<svg viewBox="0 0 330 200" xmlns="http://www.w3.org/2000/svg"><g><g><g><g><g><line x1="41.149001121520996" y1="177.5999994277954" x2="36.149001121520996" y2="177.5999994277954" style="visibility: inherit;" fill="rgb(0, 0, 0)" stroke="rgb(204, 204, 204)" stroke-width="1px"></line><line x1="41.149001121520996" y1="163.9384610102727" x2="36.149001121520996" y2="163.9384610102727" style="visibility: inherit;" fill="rgb(0, 0, 0)" stroke="rgb(204, 204, 204)" stroke-width="1px"></line><line x1="41.149001121520996" y1="150.27692259274997" x2="36.149001121520996" y2="150.27692259274997" style="visibility: inherit;" fill="rgb(0, 0, 0)" stroke="rgb(204, 204, 204)" stroke-width="1px"></line><line x1="41.149001121520996" y1="136.61538417522723" x2="36.149001121520996" y2="136.61538417522723" style="visibility: inherit;" fill="rgb(0, 0, 0)" stroke="rgb(204, 204, 204)" stroke-width="1px"></line><line x1="41.149001121520996" y1="122.95384575770451" x2="36.149001121520996" y2="122.95384575770451" style="visibility: inherit;" fill="rgb(0, 0, 0)" stroke="rgb(204, 204, 204)" stroke-width="1px"></line><line x1="41.149001121520996" y1="109.2923073401818" x2="36.149001121520996" y2="109.2923073401818" style="visibility: inherit;" fill="rgb(0, 0, 0)" stroke="rgb(204, 204, 204)" stroke-width="1px"></line><line x1="41.149001121520996" y1="95.63076892265906" x2="36.149001121520996" y2="95.63076892265906" style="visibility: inherit;" fill="rgb(0, 0, 0)" stroke="rgb(204, 204, 204)" stroke-width="1px"></line><line x1="41.149001121520996" y1="81.96923050513635" x2="36.149001121520996" y2="81.96923050513635" style="visibility: inherit;" fill="rgb(0, 0, 0)" stroke="rgb(204, 204, 204)" stroke-width="1px"></line><line x1="41.149001121520996" y1="68.30769208761362" x2="36.149001121520996" y2="68.30769208761362" style="visibility: inherit;" fill="rgb(0, 0, 0)" stroke="rgb(204, 204, 204)" stroke-width="1px"></line><line x1="41.149001121520996" y1="54.64615367009092" x2="36.149001121520996" y2="54.64615367009092" style="visibility: inherit;" fill="rgb(0, 0, 0)" stroke="rgb(204, 204, 204)" stroke-width="1px"></line><line x1="41.149001121520996" y1="40.98461525256818" x2="36.149001121520996" y2="40.98461525256818" style="visibility: inherit;" fill="rgb(0, 0, 0)" stroke="rgb(204, 204, 204)" stroke-width="1px"></line><line x1="41.149001121520996" y1="27.32307683504545" x2="36.149001121520996" y2="27.32307683504545" style="visibility: inherit;" fill="rgb(0, 0, 0)" stroke="rgb(204, 204, 204)" stroke-width="1px"></line><line x1="41.149001121520996" y1="13.661538417522735" x2="36.149001121520996" y2="13.661538417522735" style="visibility: inherit;" fill="rgb(0, 0, 0)" stroke="rgb(204, 204, 204)" stroke-width="1px"></line><line x1="41.149001121520996" y1="0" x2="36.149001121520996" y2="0" style="visibility: inherit;" fill="rgb(0, 0, 0)" stroke="rgb(204, 204, 204)" stroke-width="1px"></line></g><g transform="translate(31.149001121520996, 0)"><text style="text-anchor: end; visibility: hidden; font-family: Roboto, sans-serif; font-size: 12px; font-weight: 200;" x="0" y="177.5999994277954" dx="0em" dy="0.3em" fill="rgb(50, 49, 63)" stroke="none" stroke-width="1px">1</text><text style="text-anchor: end; visibility: inherit; font-family: Roboto, sans-serif; font-size: 12px; font-weight: 200;" x="0" y="163.9384610102727" dx="0em" dy="0.3em" fill="rgb(50, 49, 63)" stroke="none" stroke-width="1px">1.2</text><text style="text-anchor: end; visibility: hidden; font-family: Roboto, sans-serif; font-size: 12px; font-weight: 200;" x="0" y="150.27692259274997" dx="0em" dy="0.3em" fill="rgb(50, 49, 63)" stroke="none" stroke-width="1px">1.4</text><text style="text-anchor: end; visibility: inherit; font-family: Roboto, sans-serif; font-size: 12px; font-weight: 200;" x="0" y="136.61538417522723" dx="0em" dy="0.3em" fill="rgb(50, 49, 63)" stroke="none" stroke-width="1px">1.6</text><text style="text-anchor: end; visibility: hidden; font-family: Roboto, sans-serif; font-size: 12px; font-weight: 200;" x="0" y="122.95384575770451" dx="0em" dy="0.3em" fill="rgb(50, 49, 63)" stroke="none" stroke-width="1px">1.8</text><text style="text-anchor: end; visibility: inherit; font-family: Roboto, sans-serif; font-size: 12px; font-weight: 200;" x="0" y="109.2923073401818" dx="0em" dy="0.3em" fill="rgb(50, 49, 63)" stroke="none" stroke-width="1px">2</text><text style="text-anchor: end; visibility: hidden; font-family: Roboto, sans-serif; font-size: 12px; font-weight: 200;" x="0" y="95.63076892265906" dx="0em" dy="0.3em" fill="rgb(50, 49, 63)" stroke="none" stroke-width="1px">2.2</text><text style="text-anchor: end; visibility: inherit; font-family: Roboto, sans-serif; font-size: 12px; font-weight: 200;" x="0" y="81.96923050513635" dx="0em" dy="0.3em" fill="rgb(50, 49, 63)" stroke="none" stroke-width="1px">2.4</text><text style="text-anchor: end; visibility: hidden; font-family: Roboto, sans-serif; font-size: 12px; font-weight: 200;" x="0" y="68.30769208761362" dx="0em" dy="0.3em" fill="rgb(50, 49, 63)" stroke="none" stroke-width="1px">2.6</text><text style="text-anchor: end; visibility: inherit; font-family: Roboto, sans-serif; font-size: 12px; font-weight: 200;" x="0" y="54.64615367009092" dx="0em" dy="0.3em" fill="rgb(50, 49, 63)" stroke="none" stroke-width="1px">2.8</text><text style="text-anchor: end; visibility: hidden; font-family: Roboto, sans-serif; font-size: 12px; font-weight: 200;" x="0" y="40.98461525256818" dx="0em" dy="0.3em" fill="rgb(50, 49, 63)" stroke="none" stroke-width="1px">3</text><text style="text-anchor: end; visibility: inherit; font-family: Roboto, sans-serif; font-size: 12px; font-weight: 200;" x="0" y="27.32307683504545" dx="0em" dy="0.3em" fill="rgb(50, 49, 63)" stroke="none" stroke-width="1px">3.2</text><text style="text-anchor: end; visibility: hidden; font-family: Roboto, sans-serif; font-size: 12px; font-weight: 200;" x="0" y="13.661538417522735" dx="0em" dy="0.3em" fill="rgb(50, 49, 63)" stroke="none" stroke-width="1px">3.4</text><text style="text-anchor: end; visibility: hidden; font-family: Roboto, sans-serif; font-size: 12px; font-weight: 200;" x="0" y="0" dx="0em" dy="0.3em" fill="rgb(50, 49, 63)" stroke="none" stroke-width="1px">3.6</text></g><line x1="41.149001121520996" y1="0" x2="41.149001121520996" y2="177.5999994277954" fill="rgb(0, 0, 0)" stroke="rgb(204, 204, 204)" stroke-width="1px"></line></g></g><g transform="translate(41, 0)" clip-path="url(#clip_0)"><clipPath id="clip_0"><rect width="288" height="177"></rect></clipPath><g><g><g><line x1="0" y1="0" x2="0" y2="177.5999994277954" fill="rgb(0, 0, 0)" stroke="rgb(60, 60, 60)" stroke-width="1px" opacity="0.25"></line><line x1="28.8850998878479" y1="0" x2="28.8850998878479" y2="177.5999994277954" fill="rgb(0, 0, 0)" stroke="rgb(60, 60, 60)" stroke-width="1px" opacity="0.25"></line><line x1="57.7701997756958" y1="0" x2="57.7701997756958" y2="177.5999994277954" fill="rgb(0, 0, 0)" stroke="rgb(60, 60, 60)" stroke-width="1px" opacity="0.25"></line><line x1="86.6552996635437" y1="0" x2="86.6552996635437" y2="177.5999994277954" fill="rgb(0, 0, 0)" stroke="rgb(60, 60, 60)" stroke-width="1px" opacity="0.25"></line><line x1="115.5403995513916" y1="0" x2="115.5403995513916" y2="177.5999994277954" fill="rgb(0, 0, 0)" stroke="rgb(60, 60, 60)" stroke-width="1px" opacity="0.25"></line><line x1="144.4254994392395" y1="0" x2="144.4254994392395" y2="177.5999994277954" fill="rgb(0, 0, 0)" stroke="rgb(60, 60, 60)" stroke-width="1px" opacity="0.25"></line><line x1="173.3105993270874" y1="0" x2="173.3105993270874" y2="177.5999994277954" fill="rgb(0, 0, 0)" stroke="rgb(60, 60, 60)" stroke-width="1px" opacity="0.25"></line><line x1="202.1956992149353" y1="0" x2="202.1956992149353" y2="177.5999994277954" fill="rgb(0, 0, 0)" stroke="rgb(60, 60, 60)" stroke-width="1px" opacity="0.25"></line><line x1="231.0807991027832" y1="0" x2="231.0807991027832" y2="177.5999994277954" fill="rgb(0, 0, 0)" stroke="rgb(60, 60, 60)" stroke-width="1px" opacity="0.25"></line><line x1="259.9658989906311" y1="0" x2="259.9658989906311" y2="177.5999994277954" fill="rgb(0, 0, 0)" stroke="rgb(60, 60, 60)" stroke-width="1px" opacity="0.25"></line><line x1="288.850998878479" y1="0" x2="288.850998878479" y2="177.5999994277954" fill="rgb(0, 0, 0)" stroke="rgb(60, 60, 60)" stroke-width="1px" opacity="0.25"></line></g><g><line x1="0" y1="177.5999994277954" x2="288.850998878479" y2="177.5999994277954" fill="rgb(0, 0, 0)" stroke="rgb(60, 60, 60)" stroke-width="1px" opacity="0.25"></line><line x1="0" y1="163.9384610102727" x2="288.850998878479" y2="163.9384610102727" fill="rgb(0, 0, 0)" stroke="rgb(60, 60, 60)" stroke-width="1px" opacity="0.25"></line><line x1="0" y1="150.27692259274997" x2="288.850998878479" y2="150.27692259274997" fill="rgb(0, 0, 0)" stroke="rgb(60, 60, 60)" stroke-width="1px" opacity="0.25"></line><line x1="0" y1="136.61538417522723" x2="288.850998878479" y2="136.61538417522723" fill="rgb(0, 0, 0)" stroke="rgb(60, 60, 60)" stroke-width="1px" opacity="0.25"></line><line x1="0" y1="122.95384575770451" x2="288.850998878479" y2="122.95384575770451" fill="rgb(0, 0, 0)" stroke="rgb(60, 60, 60)" stroke-width="1px" opacity="0.25"></line><line x1="0" y1="109.2923073401818" x2="288.850998878479" y2="109.2923073401818" fill="rgb(0, 0, 0)" stroke="rgb(60, 60, 60)" stroke-width="1px" opacity="0.25"></line><line x1="0" y1="95.63076892265906" x2="288.850998878479" y2="95.63076892265906" fill="rgb(0, 0, 0)" stroke="rgb(60, 60, 60)" stroke-width="1px" opacity="0.25"></line><line x1="0" y1="81.96923050513635" x2="288.850998878479" y2="81.96923050513635" fill="rgb(0, 0, 0)" stroke="rgb(60, 60, 60)" stroke-width="1px" opacity="0.25"></line><line x1="0" y1="68.30769208761362" x2="288.850998878479" y2="68.30769208761362" fill="rgb(0, 0, 0)" stroke="rgb(60, 60, 60)" stroke-width="1px" opacity="0.25"></line><line x1="0" y1="54.64615367009092" x2="288.850998878479" y2="54.64615367009092" fill="rgb(0, 0, 0)" stroke="rgb(60, 60, 60)" stroke-width="1px" opacity="0.25"></line><line x1="0" y1="40.98461525256818" x2="288.850998878479" y2="40.98461525256818" fill="rgb(0, 0, 0)" stroke="rgb(60, 60, 60)" stroke-width="1px" opacity="0.25"></line><line x1="0" y1="27.32307683504545" x2="288.850998878479" y2="27.32307683504545" fill="rgb(0, 0, 0)" stroke="rgb(60, 60, 60)" stroke-width="1px" opacity="0.25"></line><line x1="0" y1="13.661538417522735" x2="288.850998878479" y2="13.661538417522735" fill="rgb(0, 0, 0)" stroke="rgb(60, 60, 60)" stroke-width="1px" opacity="0.25"></line><line x1="0" y1="0" x2="288.850998878479" y2="0" fill="rgb(0, 0, 0)" stroke="rgb(60, 60, 60)" stroke-width="1px" opacity="0.25"></line></g></g></g><g><g><line x1="0" y1="245.90769151540903" x2="288.850998878479" y2="245.90769151540903" fill="rgb(0, 0, 0)" stroke="rgb(153, 153, 153)" stroke-width="1.5px"></line></g></g><g><g><line x1="28.8850998878479" y1="0" x2="28.8850998878479" y2="177.5999994277954" fill="rgb(0, 0, 0)" stroke="rgb(153, 153, 153)" stroke-width="1.5px"></line></g></g><g><g><g><g><g><path style="fill: none;" stroke="rgb(51, 187, 238)" stroke-width="2px" d="M39.86143784523011,-6.34700398069405L40.43913984298707,3.7119096439811488L41.016841840744014,14.605255337685673L41.594543838500975,21.667284437455116L42.17224583625793,19.160143715068518L42.74994783401489,19.083849777106547L43.32764983177185,18.29669612762563L43.905351829528804,31.283583429191793L44.483053827285765,25.389530002794057L45.060755825042726,27.782095566489744L45.63845782279968,20.554323210863696L46.21615982055664,27.369405109545035L46.7938618183136,31.17536381345868L47.371563816070555,35.21499156721507L47.949265813827516,36.45275426168544L48.52696781158448,35.5611084917968L49.10466980934143,31.45247996347964L49.682371807098384,43.06963932462377L50.260073804855345,37.83453282738847L50.8377758026123,38.78576647905882L51.41547780036926,39.174878397199976L51.99317979812622,45.42328402316915L52.570881795883174,42.593029303939915L53.148583793640135,41.51120175150734L53.726285791397096,35.77058556298078L54.30398778915405,43.185347274901076L54.88168978691101,45.36456854216922L55.45939178466797,41.58963817695297L56.037093782424925,35.685698900717384L56.614795780181886,44.15107504789938L57.19249777793885,50.32500335447045L57.7701997756958,40.68357037088533L58.34790177345276,42.2586187701526L58.925603771209715,41.7869803833526L59.50330576896667,45.27256301634394L60.08100776672363,50.37660229444191L60.65870976448059,47.41707956941094L61.236411762237545,54.5675142856484L61.814113759994505,51.743707982279616L62.391815757751466,48.08111136889239L62.96951775550842,51.77772748736854L63.54721975326538,54.908323122364074L64.12492175102234,53.837222625819294L64.7026237487793,49.77898519299022L65.28032574653626,55.473337132551954L65.85802774429321,50.8185451067096L66.43572974205017,53.72082755259191L67.01343173980713,52.78094755018327L67.59113373756409,49.07338521778135L68.16883573532104,56.543598904609084L68.746537733078,52.53572481184871L69.32423973083496,52.3966380808411L69.90194172859192,53.205174751245L70.47964372634887,51.41233793555854L71.05734572410583,49.58573803928392L71.63504772186279,59.89210773924027L72.21274971961975,59.19385987129895L72.79045171737671,58.68412935889801L73.36815371513367,55.52656865712511L73.94585571289063,57.82482389656756L74.52355771064758,59.209288180036054L75.10125970840454,55.570868565884524L75.6789617061615,54.540687727051505L76.25666370391846,54.1163521668827L76.83436570167542,60.07443892104388L77.41206769943238,51.5491591068382L77.98976969718933,53.16276753944429L78.56747169494629,61.83481878152347L79.14517369270325,60.779076134457284L79.72287569046021,64.34399800762746L80.30057768821717,64.05370159753635L80.87827968597414,53.90183879492217L81.45598168373107,62.009730250130445L82.03368368148803,61.98941312657932L82.61138567924499,64.21284138706265L83.18908767700195,64.80098685393212L83.76678967475891,65.32819773045067L84.34449167251586,63.24541935698389L84.92219367027282,55.413280191073355L85.49989566802978,60.10830952568689L86.07759766578674,59.81310196721772L86.6552996635437,64.14930550479627L87.23300166130066,67.97800368530659L87.81070365905761,59.891069444798845L88.38840565681457,63.09099048752633L88.96610765457153,61.71203774478334L89.54380965232849,56.54896629553465L90.12151165008545,65.3096733381632L90.69921364784241,66.66966048435131L91.27691564559936,58.006172227585054L91.85461764335632,58.24922491215105L92.43231964111328,66.75003808325424L93.01002163887024,62.55355463452855L93.5877236366272,67.20785657225281L94.16542563438416,63.04257864145649L94.74312763214111,64.77763129297176L95.32082962989807,64.15193395291323L95.89853162765503,65.1907593276873L96.476233625412,68.42170110957359L97.05393562316895,65.40785870590621L97.63163762092591,67.58717694523177L98.20933961868286,61.75622628638906L98.78704161643982,61.220755319994126L99.36474361419677,68.26851633184835L99.94244561195373,70.78830034054418L100.52014760971069,69.93776377934654L101.09784960746765,72.70720977764228L101.6755516052246,66.15564189989897L102.25325360298156,69.25763142488783L102.83095560073852,66.70269049408917L103.40865759849548,67.88858313086341L103.98635959625244,72.89706962183612L104.5640615940094,60.69536040445762L105.14176359176635,67.27551514517107L105.71946558952331,70.16347291935041L106.29716758728027,72.76784672165623L106.87486958503723,69.62639046076823L107.45257158279419,75.42524660626056L108.03027358055115,67.35426143140238L108.6079755783081,66.8115037851606L109.18567757606506,60.29309664868989L109.76337957382202,68.05459802554945L110.34108157157898,66.92990065854187L110.91878356933594,71.72411856819974L111.4964855670929,74.57193467757125L112.07418756484985,69.80571751241644L112.65188956260681,72.42184926299937L113.22959156036377,76.00936913714631L113.80729355812073,65.55834188081893L114.3849955558777,71.26431793514845L114.96269755363465,73.89292215135337L115.5403995513916,67.3168726303451L116.11810154914856,71.93863072662046L116.69580354690552,79.43458311004997L117.27350554466248,75.60934433090877L117.85120754241943,71.76145050565627L118.42890954017639,73.15485504590336L119.00661153793334,76.2847677887254L119.5843135356903,73.22939981914672L120.16201553344726,69.28761140942103L120.73971753120422,72.842435065675L121.31741952896118,71.25564343566928L121.89512152671814,74.26459953897987L122.47282352447509,70.99347299743472L123.05052552223205,63.95887819549265L123.62822751998901,64.70991570456144L124.20592951774597,67.9727642348804L124.78363151550293,68.12505304483108L125.3613335132599,70.7957879726343L125.93903551101684,72.83487984618293L126.5167375087738,74.05626810139394L127.09443950653076,73.85574743688272L127.67214150428772,81.58703737706479L128.24984350204468,78.59796131176232L128.82754549980163,70.82572474321854L129.4052474975586,64.42882018940166L129.98294949531555,64.31817909339517L130.56065149307253,78.21755106794434L131.13835349082947,81.25132964166862L131.71605548858642,75.57451135092641L132.2937574863434,73.7655164280206L132.87145948410034,70.26980431561492L133.44916148185732,70.2705530859525L134.02686347961426,81.37613567927L134.6045654773712,77.5932138663884L135.18226747512819,79.70572857658513L135.75996947288513,78.26755654936571L136.33767147064208,74.9361011300203L136.91537346839905,71.0623345304436L137.493075466156,75.47062487787797L138.07077746391295,72.07073258551705L138.64847946166992,78.5991071297861L139.22618145942687,71.22747877507713L139.80388345718384,78.5198902981004L140.3815854549408,74.93983758134662L140.95928745269774,78.74317763570828L141.5369894504547,73.18402089767261L142.11469144821166,68.76655037284719L142.69239344596863,78.4209530703796L143.27009544372558,82.72117084471027L143.84779744148256,80.53352035247447L144.4254994392395,78.01633131917731L145.00320143699645,82.18118487972879L145.58090343475342,76.54698990802648L146.15860543251037,68.05622609818843L146.73630743026735,72.55974331209724L147.3140094280243,78.94902284945827L147.89171142578127,84.86178019402954L148.4694134235382,78.20891813757852L149.04711542129516,77.99014840220312L149.62481741905214,80.7937616734771L150.20251941680908,84.04253933972853L150.78022141456606,85.47759079580709L151.357923412323,83.5038311881298L151.93562541007995,75.74076404120471L152.51332740783693,74.05863798680019L153.09102940559387,79.9136925826932L153.66873140335085,69.04636490470561L154.2464334011078,78.57411458667849L154.82413539886477,72.20940562971336L155.40183739662172,81.9762002123074L155.97953939437866,74.31159333803498L156.55724139213564,79.33115353515751L157.13494338989258,74.68427769366527L157.71264538764956,78.21078321200405L158.2903473854065,81.40139980381637L158.86804938316345,78.5467963221553L159.44575138092043,81.46265564578762L160.02345337867737,74.50067025643763L160.60115537643435,79.88699459055971L161.1788573741913,79.71973924116924L161.75655937194827,78.36357644671581L162.33426136970522,76.6686320435194L162.91196336746214,80.04820842613151L163.4896653652191,78.66648315020558L164.06736736297606,80.40000988568448L164.64506936073303,85.51636996043881L165.22277135848998,83.66664812201563L165.80047335624693,83.5689028688398L166.3781753540039,86.59037340582695L166.95587735176085,90.26330302573975L167.53357934951782,89.12998409018209L168.11128134727477,84.56325828538114L168.68898334503172,82.94877549287206L169.2666853427887,78.11390392632426L169.84438734054564,84.47270934356236L170.4220893383026,85.8555148558251L170.99979133605956,86.47532750546165L171.57749333381653,86.38655620573962L172.15519533157348,79.93495787098888L172.73289732933043,71.81088174159436L173.3105993270874,81.17750045103656L173.88830132484435,85.01476876769831L174.46600332260132,81.43278454332533L175.04370532035827,91.00893678203961L175.62140731811522,86.35159484725288L176.1991093158722,82.01010891633166L176.77681131362914,89.21392319247951L177.3545133113861,89.9343560343474L177.93221530914306,88.58128954062148L178.50991730690004,90.71620147492361L179.08761930465698,76.46800999565654L179.66532130241393,83.1627885691427L180.2430233001709,89.10605960246222L180.82072529792785,84.46078112787468L181.39842729568483,90.75883784248941L181.97612929344177,94.50652294902244L182.55383129119872,84.9969344364904L183.1315332889557,87.59810797244567L183.70923528671264,87.01092990413802L184.28693728446962,84.48649998010886L184.86463928222656,90.03972246214916L185.44234127998354,87.36473091794976L186.02004327774048,82.59957554447512L186.59774527549743,87.80521630585051L187.1754472732544,90.45939813862486L187.75314927101135,89.04019609921947L188.33085126876833,88.9078841867553L188.90855326652527,88.21951918427739L189.48625526428222,89.83102908024564L190.0639572620392,85.70416379107594L190.64165925979614,91.76911615683102L191.21936125755312,90.61152880577522L191.79706325531006,87.81858867102099L192.37476525306704,96.64661419476197L192.952467250824,91.88622339666172L193.53016924858093,90.50449021839165L194.1078712463379,72.93066589723419L194.68557324409485,77.83354688401677L195.26327524185183,89.22787458473492L195.84097723960878,93.20064496415746L196.41867923736572,89.1964621594037L196.9963812351227,85.76605398526989L197.57408323287964,87.26862508604935L198.15178523063662,85.55409288483007L198.72948722839354,83.6210758586743L199.30718922615048,87.16628298881335L199.88489122390746,83.6544518224226L200.4625932216644,85.14369379746063L201.04029521942138,96.28597874694935L201.61799721717833,89.63815684521145L202.1956992149353,86.46479345529491L202.77340121269225,88.92523702891485L203.3511032104492,89.75362753376896L203.92880520820617,95.17053810634481L204.50650720596312,93.32835160131508L205.0842092037201,89.57363910314248L205.66191120147704,78.7190079627891L206.239613199234,79.5621152830333L206.81731519699096,84.63880627372315L207.3950171947479,95.28550704104308L207.97271919250488,94.58932670602293L208.55042119026183,97.9016146887606L209.1281231880188,83.07727013187517L209.70582518577575,94.70947645114707L210.2835271835327,97.03647963994212L210.86122918128967,94.9247309116473L211.43893117904662,91.3405345231686L212.0166331768036,95.4909617201904L212.59433517456054,85.43351885900427L213.1720371723175,90.04734028125127L213.74973917007446,90.92937025354169L214.3274411678314,88.80471772125574L214.90514316558838,88.90989319137648L215.48284516334533,92.16629624307329L216.0605471611023,85.34649872762026L216.63824915885925,87.46376511772188L217.2159511566162,90.33854976828441L217.79365315437317,87.11062923451442L218.37135515213012,94.52328226324626L218.9490571498871,89.11139824087358L219.52675914764404,90.89246174497218L220.10446114540102,91.14346744102008L220.68216314315796,89.76731884435122L221.2598651409149,84.27186797240648L221.8375671386719,95.77959513703074L222.41526913642883,96.32433059650356L222.9929711341858,96.91207581810725L223.57067313194275,92.34287244024704L224.1483751296997,95.92726969433717L224.72607712745668,96.09423260536946L225.30377912521362,85.4096191016538L225.8814811229706,86.144895446818L226.45918312072754,89.34415901530917L227.03688511848452,94.99893350397411L227.61458711624147,85.85965984101847L228.1922891139984,92.24259674805276L228.7699911117554,97.35599081249798L229.34769310951233,95.73192779697534L229.9253951072693,94.28245697120724L230.50309710502626,91.52568732349802L231.0807991027832,82.87023041249195L231.65850110054018,92.0451198624357L232.23620309829712,94.84852003513528L232.8139050960541,98.52965968862858L233.39160709381105,101.30139198579998L233.96930909156802,98.60431283981L234.54701108932497,92.35753357561855L235.1247130870819,85.64323335789868L235.70241508483886,92.25257828438598L236.2801170825958,92.78496028949338L236.85781908035278,97.5017313542379L237.43552107810973,98.026772356873L238.01322307586668,86.67588046293693L238.59092507362365,94.26788849687755L239.1686270713806,94.2484323009328L239.74632906913757,87.91798525927938L240.32403106689452,96.77801966979223L240.90173306465147,101.2236687037787L241.47943506240844,91.50022550291477L242.0571370601654,90.5968408206523L242.63483905792236,98.42197599725226L243.2125410556793,93.39143547678118L243.79024305343628,99.05173751920715L244.36794505119323,93.55873849281814L244.94564704895018,96.85629409597625L245.52334904670715,95.10305122098299L246.1010510444641,92.18727953212807L246.67875304222108,100.74343123457272L247.25645503997802,93.80081902367132L247.83415703773497,93.71389567863599L248.41185903549194,95.00340802886005L248.9895610332489,93.41604551521085L249.56726303100587,105.39622106342499L250.1449650287628,96.97519439851904L250.7226670265198,100.06085534356086L251.30036902427673,97.14973939200978L251.87807102203368,95.50637256052103L252.45577301979066,98.16856836460305L253.0334750175476,95.38857887494939L253.61117701530458,95.28947657651939L254.18887901306152,96.44895428215264L254.76658101081847,98.74897515233191L255.34428300857545,94.02697187612537L255.9219850063324,95.54856845105476L256.49968700408937,94.51851781041788L257.0773890018463,90.69289461880653L257.65509099960326,98.54009381940473L258.2327929973602,104.38679121412062L258.8104949951172,102.6947290069211L259.38819699287416,99.00006622788057L259.9658989906311,104.69157538304502L260.54360098838805,99.05579993781912L261.12130298614505,100.00219138961893L261.699004983902,94.21603960326605L262.27670698165895,92.6680841716651L262.8544089794159,96.99231045031715L263.43211097717284,97.58741328138898L264.00981297492984,98.18397051890136L264.5875149726868,101.40516598918263L265.16521697044374,97.46734121092301L265.7429189682007,105.7935877278669L266.32062096595763,107.74063825184965L266.89832296371463,108.54302730432806L267.4760249614716,98.15333138605976L268.0537269592285,92.7348685419478L268.6314289569855,97.99769792480681L269.2091309547424,101.45673853518873L269.7868329524994,93.14245016510726L270.36453495025637,97.45372391647392L270.9422369480133,86.09405673540248L271.51993894577026,93.34051328784005L272.0976409435272,93.91935306796604L272.67534294128416,85.28566220428594L273.2530449390411,89.27852334397804L273.8307469367981,97.15334440598114" fill="none"></path></g><g><path style="fill: none;" stroke="rgb(255, 112, 67)" stroke-width="2px" d="M36.395225858688356,-3.7094691452045137L36.97292785644532,15.758497107124795L37.55062985420227,19.285263636916284L38.12833185195923,16.013908092188508L38.70603384971619,19.890717338859176L39.283735847473146,28.473340128475915L39.86143784523011,38.638205669055495L40.43913984298707,44.31724952702071L41.016841840744014,39.834136335651735L41.594543838500975,35.58041917039821L42.17224583625793,42.165061280249354L42.74994783401489,45.535327204956765L43.32764983177185,47.240181039254885L43.905351829528804,52.76044838067868L44.483053827285765,50.719616696978164L45.060755825042726,55.77853143173141L45.63845782279968,58.81493219409065L46.21615982055664,52.20972760934266L46.7938618183136,61.43884785394686L47.371563816070555,61.2558543990943L47.949265813827516,61.91083850167054L48.52696781158448,62.74050707115113L49.10466980934143,64.56975819867125L49.682371807098384,69.34763877486417L50.260073804855345,70.61368676054671L50.8377758026123,71.98504926563159L51.41547780036926,73.71219275583039L51.99317979812622,72.57095370583326L52.570881795883174,65.85541571825797L53.148583793640135,69.10007704525705L53.726285791397096,81.84059525388341L54.30398778915405,78.66503766201639L54.88168978691101,77.74289477504578L55.45939178466797,79.61921419242591L56.037093782424925,75.56015411476642L56.614795780181886,81.96193605901013L57.19249777793885,83.91346460287747L57.7701997756958,86.4584657864213L58.34790177345276,91.12971507901054L58.925603771209715,87.21418428184474L59.50330576896667,95.53725128198406L60.08100776672363,92.66059264037384L60.65870976448059,88.3824258133975L61.236411762237545,100.46703273881386L61.814113759994505,91.87101269355078L62.391815757751466,96.6756120447053L62.96951775550842,85.2432398742226L63.54721975326538,89.24805020761295L64.12492175102234,88.78931288497117L64.7026237487793,84.90149353899754L65.28032574653626,95.45995955266095L65.85802774429321,97.38132860690995L66.43572974205017,96.02488902936375L67.01343173980713,93.59021000925097L67.59113373756409,96.79843023273054L68.16883573532104,90.11554714182759L68.746537733078,91.80333338679613L69.32423973083496,96.40878695175729L69.90194172859192,94.4411509144775L70.47964372634887,99.2271800070474L71.05734572410583,102.71769449732066L71.63504772186279,102.01048855234785L72.21274971961975,96.40045162116265L72.79045171737671,105.19762870647278L73.36815371513367,105.14602504484196L73.94585571289063,104.96537537030287L74.52355771064758,105.29352199920658L75.10125970840454,109.62691870168712L75.6789617061615,105.75398545374405L76.25666370391846,106.12060144447125L76.83436570167542,112.76988866136891L77.41206769943238,108.13837386874322L77.98976969718933,99.62610411253505L78.56747169494629,105.66829100888032L79.14517369270325,98.26129194171827L79.72287569046021,107.65609980842034L80.30057768821717,107.07385766944896L80.87827968597414,112.59040512599204L81.45598168373107,109.1539327342735L82.03368368148803,109.23144637535276L82.61138567924499,112.86238249539909L83.18908767700195,110.80660992044217L83.76678967475891,107.30828938808541L84.34449167251586,111.28416704877344L84.92219367027282,114.95731200235305L85.49989566802978,110.0831849680474L86.07759766578674,117.63104008932504L86.6552996635437,121.31818587819531L87.23300166130066,112.96931205470237L87.81070365905761,108.66721176358898L88.38840565681457,115.68909809168356L88.96610765457153,116.13356642788801L89.54380965232849,125.09803238572319L90.12151165008545,121.71456469373959L90.69921364784241,115.09855889411328L91.27691564559936,116.75925023937381L91.85461764335632,120.22711490203707L92.43231964111328,115.80764833088267L93.01002163887024,112.93876581680364L93.5877236366272,112.88254697454948L94.16542563438416,118.98190026171157L94.74312763214111,127.21528235486488L95.32082962989807,126.3149983407553L95.89853162765503,126.44253112988387L96.476233625412,126.37017913714932L97.05393562316895,112.79693667576554L97.63163762092591,123.14326683530308L98.20933961868286,116.72124238935248L98.78704161643982,127.60140846814467L99.36474361419677,132.66376477915267L99.94244561195373,131.19206132870477L100.52014760971069,132.52750432258475L101.09784960746765,126.24833162753768L101.6755516052246,126.02760391258828L102.25325360298156,122.09587653915403L102.83095560073852,120.48987945338955L103.40865759849548,128.72017770177354L103.98635959625244,133.7153853011867L104.5640615940094,129.41005850607837L105.14176359176635,131.08044383991466L105.71946558952331,130.64370097676957L106.29716758728027,134.89033114411453L106.87486958503723,132.94569642974216L107.45257158279419,137.50177362809347L108.03027358055115,132.3342202083606L108.6079755783081,126.96413592797151L109.18567757606506,128.0145270876662L109.76337957382202,127.12180519649287L110.34108157157898,124.3816934057561L110.91878356933594,123.98228779220678L111.4964855670929,132.81766433170498L112.07418756484985,136.91997845064103L112.65188956260681,140.42188996551528L113.22959156036377,134.30861529196804L113.80729355812073,129.76887856995498L114.3849955558777,133.8208782403194L114.96269755363465,134.15936498581246L115.5403995513916,130.83674530963418L116.11810154914856,133.7462733902143L116.69580354690552,133.03984026483394L117.27350554466248,137.7615665291748L117.85120754241943,143.6217585192374L118.42890954017639,141.34273642855553L119.00661153793334,133.23388991112097L119.5843135356903,139.08943435365563L120.16201553344726,138.3854524739472L120.73971753120422,130.6453078697328L121.31741952896118,136.52931628388092L121.89512152671814,140.10264635482952L122.47282352447509,137.99231340719592L123.05052552223205,146.46964781778576L123.62822751998901,141.84519138779106L124.20592951774597,142.4684321930934L124.78363151550293,136.41263309767172L125.3613335132599,135.8734708460843L125.93903551101684,147.77550372487033L126.5167375087738,140.96909131069594L127.09443950653076,139.92799032945342L127.67214150428772,137.36410784511094L128.24984350204468,134.52959241671147L128.82754549980163,140.25814506477127L129.4052474975586,143.42311323503947L129.98294949531555,146.626606937874L130.56065149307253,148.12989549870906L131.13835349082947,143.56759697471847L131.71605548858642,152.53630862916714L132.2937574863434,154.18808481106635L132.87145948410034,147.14923931005092L133.44916148185732,157.09562858517126L134.02686347961426,147.76160871907348L134.6045654773712,152.58403794364813L135.18226747512819,143.89216789312331L135.75996947288513,146.80956291284974L136.33767147064208,146.10468380964937L136.91537346839905,137.44149724875479L137.493075466156,147.80195307970666L138.07077746391295,150.26347441967783L138.64847946166992,143.2973018780018L139.22618145942687,143.36271170792165L139.80388345718384,146.82396120421936L140.3815854549408,140.0680787464152L140.95928745269774,143.03964620035865L141.5369894504547,146.44643157393114L142.11469144821166,142.36172362529166L142.69239344596863,141.53802430576502L143.27009544372558,146.28939886010275L143.84779744148256,147.3138218964479L144.4254994392395,141.4968435301989L145.00320143699645,152.0014207794432L145.58090343475342,148.54564472796392L146.15860543251037,146.6126715495122L146.73630743026735,146.7947923629912L147.3140094280243,149.62376866787807L147.89171142578127,147.5351048009818L148.4694134235382,148.0859064129602L149.04711542129516,151.47486841670204L149.62481741905214,152.66763570386362L150.20251941680908,145.0543952960676L150.78022141456606,151.0211523735199L151.357923412323,141.56003142475964L151.93562541007995,147.99371710011664L152.51332740783693,148.58588910061852L153.09102940559387,153.06582385324126L153.66873140335085,151.8733881381921L154.2464334011078,152.57984434398853L154.82413539886477,154.58026031041058L155.40183739662172,150.79282276125954L155.97953939437866,147.41106737851533L156.55724139213564,151.42964784431433L157.13494338989258,156.15239834828046L157.71264538764956,152.78635013399332L158.2903473854065,155.4745024389079L158.86804938316345,158.58429584262817L159.44575138092043,153.77640467564078L160.02345337867737,147.29842763460206L160.60115537643435,155.12792905239712L161.1788573741913,155.93638109747843L161.75655937194827,162.76545632790942L162.33426136970522,160.8162086909285L162.91196336746214,151.0432567495088L163.4896653652191,155.08369912859794L164.06736736297606,156.93295552025978L164.64506936073303,157.32866729727579L165.22277135848998,154.4008602281927L165.80047335624693,150.81969130037191L166.3781753540039,156.464340437939L166.95587735176085,160.93868267378565L167.53357934951782,159.99722355489018L168.11128134727477,160.68512689167653L168.68898334503172,159.46634897820425L169.2666853427887,149.39518638906054L169.84438734054564,158.26389118794864L170.4220893383026,152.88271468020213L170.99979133605956,162.2329533554166L171.57749333381653,164.97327844415508L172.15519533157348,162.7797373993164L172.73289732933043,164.25768580263556L173.3105993270874,163.1670933774834L173.88830132484435,162.61446325981547L174.46600332260132,158.68620420517996L175.04370532035827,166.2393504305665L175.62140731811522,155.15398222080015L176.1991093158722,162.35986790239104L176.77681131362914,161.02978985546002L177.3545133113861,158.75748491722507L177.93221530914306,160.27529875341554L178.50991730690004,164.0268469996236L179.08761930465698,168.10125820453416L179.66532130241393,167.46003959937977L180.2430233001709,156.16026431412797L180.82072529792785,162.72854694266977L181.39842729568483,160.72114768707726L181.97612929344177,164.65214935370108L182.55383129119872,164.58038382750428L183.1315332889557,155.68831231085133L183.70923528671264,159.21753155815802L184.28693728446962,160.48512881048586L184.86463928222656,161.5041451255859L185.44234127998354,161.40247116972748L186.02004327774048,161.84569084281594L186.59774527549743,159.2674809939019L187.1754472732544,162.9791384259382L187.75314927101135,165.85703563252164L188.33085126876833,158.99115293848342L188.90855326652527,159.4540906337501L189.48625526428222,169.57966460032947L190.0639572620392,163.75353766841818L190.64165925979614,163.03155293614446L191.21936125755312,164.32046442145258L191.79706325531006,165.81855271048343L192.37476525306704,165.67359106334925L192.952467250824,165.52397910775616L193.53016924858093,158.8194404147608L194.1078712463379,163.89389954671412L194.68557324409485,160.34055948220242L195.26327524185183,167.69215358806807L195.84097723960878,169.89576654406824L196.41867923736572,166.6524639059189L196.9963812351227,169.43457048327238L197.57408323287964,164.9064568112588L198.15178523063662,168.16274707864295L198.72948722839354,171.46402222879252L199.30718922615048,160.83441074121473L199.88489122390746,164.2418537942828L200.4625932216644,165.77250496223073L201.04029521942138,167.7850986533763L201.61799721717833,167.09489727298111L202.1956992149353,165.00291652560975L202.77340121269225,158.39023825248663L203.3511032104492,165.1204803490993L203.92880520820617,167.76327023036492L204.50650720596312,175.37654547465655L205.0842092037201,174.28652033836346L205.66191120147704,169.6837890119644L206.239613199234,165.51831218103231L206.81731519699096,170.33008436184218L207.3950171947479,171.3670921144488L207.97271919250488,166.21951149364787L208.55042119026183,165.20749968462334L209.1281231880188,165.48093434105866" fill="none"></path></g></g></g></g><g opacity="0.2"><g><g><g><path style="fill: none;" stroke="rgb(51, 187, 238)" stroke-width="2px" d="M38.70603384971619,-1.6849084359682904L39.283735847473146,7.595225735182104L39.86143784523011,-6.87599819608933L40.43913984298707,10.417851986698679L41.016841840744014,21.867485768215747L41.594543838500975,26.375303829018893L42.17224583625793,17.488716567986895L42.74994783401489,19.032987151812904L43.32764983177185,17.771927028030706L43.905351829528804,39.94150829651262L44.483053827285765,21.460161051933063L45.060755825042726,29.377139275608634L45.63845782279968,15.735808307126872L46.21615982055664,31.91279304199399L46.7938618183136,33.71266961606658L47.371563816070555,37.90807673638551L47.949265813827516,37.27792939133231L48.52696781158448,34.96667797853774L49.10466980934143,28.713394277934942L49.682371807098384,50.814412232053165L50.260073804855345,34.344461829231584L50.8377758026123,39.41992224683906L51.41547780036926,39.434286342627374L51.99317979812622,49.58888777381529L52.570881795883174,40.706192824453794L53.148583793640135,40.789983383218924L53.726285791397096,31.943508103963104L54.30398778915405,48.128521749514604L54.88168978691101,46.817382720348014L55.45939178466797,39.07301793347544L56.037093782424925,31.74973938322697L56.614795780181886,49.79465914602077L57.19249777793885,54.4409555588511L57.7701997756958,34.255948381828595L58.34790177345276,43.3086510363308L58.925603771209715,41.47255479215258L59.50330576896667,47.5962847716715L60.08100776672363,53.77929514650724L60.65870976448059,45.44406441939031L61.236411762237545,59.33447076314003L61.814113759994505,49.86117044670042L62.391815757751466,45.6393802933009L62.96951775550842,54.24213823301931L63.54721975326538,56.99538687902775L64.12492175102234,53.1231556281228L64.7026237487793,47.07349357110414L65.28032574653626,59.269571758926425L65.85802774429321,47.7153504228147L66.43572974205017,55.65568251651344L67.01343173980713,52.154360881910826L67.59113373756409,46.601676996180075L68.16883573532104,61.52374136249424L68.746537733078,49.86380875000847L69.32423973083496,52.30391359350268L69.90194172859192,53.74419919818092L70.47964372634887,50.21711339176756L71.05734572410583,48.36800477510083L71.63504772186279,66.76302087254453L72.21274971961975,58.72836129267135L72.79045171737671,58.34430901729739L73.36815371513367,53.42152818927649L73.94585571289063,59.356994056195845L74.52355771064758,60.13226436901504L75.10125970840454,53.145255489783494L75.6789617061615,53.853900501162826L76.25666370391846,53.833461793436825L76.83436570167542,64.04649675715132L77.41206769943238,45.865639230701056L77.98976969718933,54.23850649451502L78.56747169494629,67.61618627624293L79.14517369270325,60.075247703079825L79.72287569046021,66.72061258974095L80.30057768821717,63.86017065747557L80.87827968597414,47.13393025984608L81.45598168373107,67.41499122026933L82.03368368148803,61.97586837754521L82.61138567924499,65.69512689405155L83.18908767700195,65.19308383184507L83.76678967475891,65.67967164812967L84.34449167251586,61.85690044133934L84.92219367027282,50.191854080466356L85.49989566802978,63.23832908209589L86.07759766578674,59.61629692823827L86.6552996635437,67.04010786318199L87.23300166130066,70.53046913898014L87.81070365905761,54.49977995112703L88.38840565681457,65.22427118267797L88.96610765457153,60.792735916288L89.54380965232849,53.106918662702235L90.12151165008545,71.15014469991556L90.69921364784241,67.5763185818101L91.27691564559936,52.23051338974089L91.85461764335632,58.41126003519503L92.43231964111328,72.41724686398966L93.01002163887024,59.7558990020448L93.5877236366272,70.31072453073568L94.16542563438416,60.26572668759233L94.74312763214111,65.93433306064865L95.32082962989807,63.73480239287424L95.89853162765503,65.88330957753668L96.476233625412,70.57566229749777L97.05393562316895,63.398630436794626L97.63163762092591,69.04005577144883L98.20933961868286,57.86892584716058L98.78704161643982,60.86377467573084L99.36474361419677,72.96702367308451L99.94244561195373,72.46815634634143L100.52014760971069,69.37073940521475L101.09784960746765,74.55350710983942L101.6755516052246,61.787929981403416L102.25325360298156,71.32562444154708L102.83095560073852,64.9993965402234L103.40865759849548,68.67917822204625L103.98635959625244,76.23606061581793L104.5640615940094,52.56088759287194L105.14176359176635,71.66228497231336L105.71946558952331,72.08877810213667L106.29716758728027,74.50409592319347L106.87486958503723,67.53208628684293L107.45257158279419,79.29115070325547L108.03027358055115,61.973604648163594L108.6079755783081,66.44966535433275L109.18567757606506,55.947491891042766L109.76337957382202,73.2289322767892L110.34108157157898,66.1801024138701L110.91878356933594,74.920263841305L111.4964855670929,76.47047875048558L112.07418756484985,66.62823940231321L112.65188956260681,74.16593709672138L113.22959156036377,78.40104905324426L113.80729355812073,58.59099037660064L114.3849955558777,75.06830197136817L114.96269755363465,75.64532496215668L115.5403995513916,62.9328396163396L116.11810154914856,75.01980279080401L116.69580354690552,84.43188469900299L117.27350554466248,73.05918514481468L117.85120754241943,69.19618795548793L118.42890954017639,74.08379140606807L119.00661153793334,78.3713762839401L119.5843135356903,71.19248783942757L120.16201553344726,66.65975246960389L120.73971753120422,75.21231750317766L121.31741952896118,70.19778234899884L121.89512152671814,76.27057027452022L122.47282352447509,68.81272196973798L123.05052552223205,59.269148327531305L123.62822751998901,65.21060737727392L124.20592951774597,70.14799658842644L124.78363151550293,68.2265789181315L125.3613335132599,72.57627792450306L125.93903551101684,74.19427442854865L126.5167375087738,74.87052693820128L127.09443950653076,73.72206699387525L127.67214150428772,86.74123067051953L128.24984350204468,76.60524393489402L128.82754549980163,65.6442336975227L129.4052474975586,60.16421715352372L129.98294949531555,64.2444183627242L130.56065149307253,87.48379905097713L131.13835349082947,83.2738486908181L131.71605548858642,71.78996582376497L132.2937574863434,72.55951981275003L132.87145948410034,67.93932957401114L133.44916148185732,70.2710522661775L134.02686347961426,88.77985740814832L134.6045654773712,75.07126599113401L135.18226747512819,81.11407171671631L135.75996947288513,77.30877519788612L136.33767147064208,72.71513085045667L136.91537346839905,68.47982346405911L137.493075466156,78.4094851095009L138.07077746391295,69.80413772394311L138.64847946166992,82.95135682596545L139.22618145942687,66.31305987193782L139.80388345718384,83.38149798011595L140.3815854549408,72.55313577017746L140.95928745269774,81.27873767194937L141.5369894504547,69.47791640564883L142.11469144821166,65.82157002296358L142.69239344596863,84.85722153540117L143.27009544372558,85.58798269426407L143.84779744148256,79.07508669098397L144.4254994392395,76.33820529697921L145.00320143699645,84.95775392009644L145.58090343475342,72.79085992689163L146.15860543251037,62.39571689162971L146.73630743026735,75.56208812136978L147.3140094280243,83.20854254103226L147.89171142578127,88.80361842374369L148.4694134235382,73.77367676661125L149.04711542129516,77.84430191195285L149.62481741905214,82.66283718765975L150.20251941680908,86.20839111722951L150.78022141456606,86.4342917665261L151.357923412323,82.1879914496783L151.93562541007995,70.56538594325465L152.51332740783693,72.93722061719718L153.09102940559387,83.81706231328856L153.66873140335085,61.80147978604726L154.2464334011078,84.92594770799374L154.82413539886477,67.96626632506995L155.40183739662172,88.48739660070339L155.97953939437866,69.20185542185338L156.55724139213564,82.67752699990584L157.13494338989258,71.58636046600375L157.71264538764956,80.56178689089654L158.2903473854065,83.52847753169131L158.86804938316345,76.64372733438127L159.44575138092043,83.40656186154247L160.02345337867737,69.85934666353762L160.60115537643435,83.47787747997445L161.1788573741913,79.60823567490888L161.75655937194827,77.4594679170802L162.33426136970522,75.53866910805507L162.91196336746214,82.30125934787293L163.4896653652191,77.74533296625498L164.06736736297606,81.55569437600373L164.64506936073303,88.92727667694166L165.22277135848998,82.43350022973353L165.80047335624693,83.50373936672254L166.3781753540039,88.60468709715167L166.95587735176085,92.7119227723483L167.53357934951782,88.37443813314367L168.11128134727477,81.5187744155138L168.68898334503172,81.87245363119935L169.2666853427887,74.89065621529237L169.84438734054564,88.71191295505442L170.4220893383026,86.77738519733364L170.99979133605956,86.88853593855268L171.57749333381653,86.32737533925827L172.15519533157348,75.63389231448843L172.73289732933043,66.3948309886647L173.3105993270874,87.42191292399805L173.88830132484435,87.57294764547281L174.46600332260132,79.04479506040998L175.04370532035827,97.39303827451582L175.62140731811522,83.24670022406174L176.1991093158722,79.11578496238417L176.77681131362914,94.01646604324476L177.3545133113861,90.4146445955927L177.93221530914306,87.67924521147086L178.50991730690004,92.13947609779166L179.08761930465698,66.96921567614515L179.66532130241393,87.62597428480017L180.2430233001709,93.0682402913419L180.82072529792785,81.36392881148295L181.39842729568483,94.95754231889926L181.97612929344177,97.00497968671111L182.55383129119872,78.65720876146906L183.1315332889557,89.33222366308253L183.70923528671264,86.61947785859961L184.28693728446962,82.80354669742276L184.86463928222656,93.74187078350936L185.44234127998354,85.58140322181683L186.02004327774048,79.42280529549205L186.59774527549743,91.27564348010081L187.1754472732544,92.22885269380778L187.75314927101135,88.09406140628258L188.33085126876833,88.81967624511249L188.90855326652527,87.76060918262547L189.48625526428222,90.90536901089115L190.0639572620392,82.95292026496281L190.64165925979614,95.81241773400104L191.21936125755312,89.83980390507134L191.79706325531006,85.95662858118483L192.37476525306704,102.53196454392264L192.952467250824,88.71262953126154L193.53016924858093,89.58333476621165L194.1078712463379,61.21478301646254L194.68557324409485,81.1021342085385L195.26327524185183,96.82409305188037L195.84097723960878,95.84915855043914L196.41867923736572,86.52700695623453L196.9963812351227,83.47911520251402L197.57408323287964,88.27033915323567L198.15178523063662,84.41107141735056L198.72948722839354,82.33239784123714L199.30718922615048,89.52975440890607L199.88489122390746,81.31323104482877L200.4625932216644,86.13652178081932L201.04029521942138,103.71416871327517L201.61799721717833,85.20627557738617L202.1956992149353,84.34921786201724L202.77340121269225,90.56553274466145L203.3511032104492,90.30588787033837L203.92880520820617,98.78181182139541L204.50650720596312,92.1002272646286L205.0842092037201,87.0704974376941L205.66191120147704,71.48258720255353L206.239613199234,80.12418682986277L206.81731519699096,88.02326693418307L207.3950171947479,102.3833075525897L207.97271919250488,94.12520648267619L208.55042119026183,100.10980667725237L209.1281231880188,73.19437376061823L209.70582518577575,102.46428066399498L210.2835271835327,98.58781509913884L210.86122918128967,93.51689842611745L211.43893117904662,88.95107026418283L212.0166331768036,98.25791318487158L212.59433517456054,78.7285569515468L213.1720371723175,93.12322122941596L213.74973917007446,91.51739023506862L214.3274411678314,87.38828269973176L214.90514316558838,88.98001017145701L215.48284516334533,94.33723161087114L216.0605471611023,80.79996705065162L216.63824915885925,88.87527604445633L217.2159511566162,92.25507286865945L217.79365315437317,84.95868221200111L218.37135515213012,99.46505094906752L218.9490571498871,85.50347555929181L219.52675914764404,92.07983741437128L220.10446114540102,91.31080457171868L220.68216314315796,88.84988644657201L221.2598651409149,80.60823405777664L221.8375671386719,103.45141324678023L222.41526913642883,96.68748756948544L222.9929711341858,97.30390596584303L223.57067313194275,89.29673685500687L224.1483751296997,98.31686786373061L224.72607712745668,96.2055412127243L225.30377912521362,78.28654343251006L225.8814811229706,86.63507967692749L226.45918312072754,91.47700139430333L227.03688511848452,98.76878316308402L227.61458711624147,79.76681073238137L228.1922891139984,96.49788801940896L228.7699911117554,100.76492018879476L229.34769310951233,94.64921911996025L229.9253951072693,93.31614308736184L230.50309710502626,89.68784089169186L231.0807991027832,77.09992580515457L231.65850110054018,98.16171282906487L232.23620309829712,96.71745348360164L232.8139050960541,100.98375279095744L233.39160709381105,103.14921351724759L233.96930909156802,96.80626007581664L234.54701108932497,88.19301406615757L235.1247130870819,81.16703321275209L235.70241508483886,96.6588082353775L236.2801170825958,93.13988162623164L236.85781908035278,100.6462453974009L237.43552107810973,98.376799691963L238.01322307586668,79.10861920031292L238.59092507362365,99.32922718617131L239.1686270713806,94.23546150363632L239.74632906913757,83.69768723151046L240.32403106689452,102.6847092768008L240.90173306465147,104.18743472643636L241.47943506240844,85.01793003567214L242.0571370601654,89.99458436581062L242.63483905792236,103.63873278165222L243.2125410556793,90.0377417964671L243.79024305343628,102.82527221415778L244.36794505119323,89.8967391418921L244.94564704895018,99.05466449808166L245.52334904670715,93.93422263765412L246.1010510444641,90.24343173955815L246.67875304222108,106.44753236953586L247.25645503997802,89.17241088307044L247.83415703773497,93.65594678194574L248.41185903549194,95.86308292900944L248.9895610332489,92.35780383944476L249.56726303100587,113.38300476223439L250.1449650287628,91.36117662191508L250.7226670265198,102.11796264025536L251.30036902427673,95.20899542430907L251.87807102203368,94.41079467286183L252.45577301979066,99.94336556732438L253.0334750175476,93.53525254851361L253.61117701530458,95.22340837756603L254.18887901306152,97.22193941924152L254.76658101081847,100.28232239911804L255.34428300857545,90.87896969198769L255.9219850063324,96.56296616767436L256.49968700408937,93.83181738332662L257.0773890018463,88.14247915773228L257.65509099960326,103.77155995313683L258.2327929973602,108.28458947726456L258.8104949951172,101.56668753545473L259.38819699287416,96.53695770852023L259.9658989906311,108.48591481982128L260.54360098838805,95.29861630766852L261.12130298614505,100.63311902415218L261.699004983902,90.35860507903082L262.27670698165895,91.63611388393117L262.8544089794159,99.87512796941849L263.43211097717284,97.98414850210352L264.00981297492984,98.5816753439096L264.5875149726868,103.55262963603684L265.16521697044374,94.84212469208326L265.7429189682007,111.34441873916285L266.32062096595763,109.03867193450483L266.89832296371463,109.07795333931367L267.4760249614716,91.22686744054757L268.0537269592285,89.12255997920649L268.6314289569855,101.50625084671279L269.2091309547424,103.76276560877666L269.7868329524994,87.59959125171959L270.36453495025637,100.327906417385L270.9422369480133,78.52094528135483L271.51993894577026,98.17148432279842L272.0976409435272,94.30524625471669L272.67534294128416,79.52986829516588L273.2530449390411,91.94043077043942L273.8307469367981,102.40322511398324" fill="none"></path></g><g><path style="fill: none;" stroke="rgb(255, 112, 67)" stroke-width="2px" d="M35.239821863174434,-57.006725068923224L35.817523860931395,8.27594056030639L36.395225858688356,12.483822620958481L36.97292785644532,28.73710643606167L37.55062985420227,21.636438798886157L38.12833185195923,13.833005332394341L38.70603384971619,22.47525639261914L39.283735847473146,34.19508826169151L39.86143784523011,45.41478250983546L40.43913984298707,48.1032787240363L41.016841840744014,36.84539422121709L41.594543838500975,32.74460773188461L42.17224583625793,46.55482268372774L42.74994783401489,47.78217115412924L43.32764983177185,48.37675026199235L43.905351829528804,56.44062660812882L44.483053827285765,49.35906224120238L45.060755825042726,59.1511412548759L45.63845782279968,60.83919936899098L46.21615982055664,47.806257886182415L46.7938618183136,67.59159468368019L47.371563816070555,61.133858762525925L47.949265813827516,62.34749457005467L48.52696781158448,63.29361945080483L49.10466980934143,65.78925895035134L49.682371807098384,72.53289249232614L50.260073804855345,71.45771875100168L50.8377758026123,72.89929093568817L51.41547780036926,74.86362174929623L51.99317979812622,71.81012767250184L52.570881795883174,61.3783903932078L53.148583793640135,71.26318459658974L53.726285791397096,90.33427405963432L54.30398778915405,76.54799926743836L54.88168978691101,77.1281328503987L55.45939178466797,80.87009380401267L56.037093782424925,72.85411406299343L56.614795780181886,86.22979068850596L57.19249777793885,85.21448363212232L57.7701997756958,88.1551332421172L58.34790177345276,94.24388127407005L58.925603771209715,84.60383041706754L59.50330576896667,101.0859626154103L60.08100776672363,90.74282021263367L60.65870976448059,85.53031459541329L61.236411762237545,108.52343735575808L61.814113759994505,86.1403326633754L62.391815757751466,99.87867827880832L62.96951775550842,77.62165842723411L63.54721975326538,91.9179237632065L64.12492175102234,88.48348800320998L64.7026237487793,82.30961397501513L65.28032574653626,102.49893689510327L65.85802774429321,98.66224130974265L66.43572974205017,95.12059597766628L67.01343173980713,91.9670906625091L67.59113373756409,98.93724371505027L68.16883573532104,85.66029174789227L68.746537733078,92.92852421677514L69.32423973083496,99.47908932839805L69.90194172859192,93.12939355629096L70.47964372634887,102.41786606876067L71.05734572410583,105.04470415750286L71.63504772186279,101.53901792236593L72.21274971961975,92.66042700037254L72.79045171737671,111.06241343001284L73.36815371513367,105.1116226037547L73.94585571289063,104.84494225394349L74.52355771064758,105.5122864184757L75.10125970840454,112.51584983667412L75.6789617061615,103.17202995511539L76.25666370391846,106.36501210495608L76.83436570167542,117.20274680596734L77.41206769943238,105.05069734032608L77.98976969718933,93.95125760839626L78.56747169494629,109.69641560644386L79.14517369270325,93.32329256361022L79.72287569046021,113.91930505288838L80.30057768821717,106.68569624346803L80.87827968597414,116.26810343035409L81.45598168373107,106.86295113979448L82.03368368148803,109.28312213607227L82.61138567924499,115.28300657542998L83.18908767700195,109.43609487047085L83.76678967475891,104.97607569984761L84.34449167251586,113.93475215589883L84.92219367027282,117.40607530473945L85.49989566802978,106.83376694517696L86.07759766578674,122.66294350351014L86.6552996635437,123.7762830707755L87.23300166130066,107.40339617237377L87.81070365905761,105.7991449028467L88.38840565681457,120.3703556437466L88.96610765457153,116.42987865202431L89.54380965232849,131.07434302427998L90.12151165008545,119.45891956575052L90.69921364784241,110.68788836102908L91.27691564559936,117.8663778028808L91.85461764335632,122.53902467714592L92.43231964111328,112.86133728344639L93.01002163887024,111.02617747408429L93.5877236366272,112.84506774638002L94.16542563438416,123.04813578648633L94.74312763214111,132.7042037503004L95.32082962989807,125.71480899801558L95.89853162765503,126.5275529893029L96.476233625412,126.32194447532632L97.05393562316895,103.74810836817633L97.63163762092591,130.04082027499476L98.20933961868286,112.43989275871874L98.78704161643982,134.85485252067278L99.36474361419677,136.03866898649133L99.94244561195373,130.21092569507283L100.52014760971069,133.41779965183804L101.09784960746765,122.0622164975063L101.6755516052246,125.880452102622L102.25325360298156,119.47472495686452L102.83095560073852,119.41921472954657L103.40865759849548,134.20704320069618L103.98635959625244,137.04552370079546L104.5640615940094,126.53984064267283L105.14176359176635,132.19403406247218L105.71946558952331,130.3525390680062L106.29716758728027,137.7214179223445L106.87486958503723,131.64927328682725L107.45257158279419,140.53915842699433L108.03027358055115,128.88918459520534L108.6079755783081,123.38407974104548L109.18567757606506,128.71478786079595L109.76337957382202,126.526657269044L110.34108157157898,122.55495221193159L110.91878356933594,123.7160173831739L111.4964855670929,138.7079153580371L112.07418756484985,139.65485452993173L112.65188956260681,142.7564976420981L113.22959156036377,130.23309884293653L113.80729355812073,126.74238742194628L114.3849955558777,136.5222113538956L114.96269755363465,134.3850228161412L115.5403995513916,128.62166552551528L116.11810154914856,135.6859587772677L116.69580354690552,132.56888484791375L117.27350554466248,140.9093840387353L117.85120754241943,147.52855317927913L118.42890954017639,139.82338836810095L119.00661153793334,127.82799223283128L119.5843135356903,142.99313064867874L120.16201553344726,137.9161312208082L120.73971753120422,125.48521146692315L121.31741952896118,140.4519885599797L121.89512152671814,142.48486640212855L122.47282352447509,136.5854247754402L123.05052552223205,152.12120409151234L123.62822751998901,138.76222043446126L124.20592951774597,142.88392606329495L124.78363151550293,132.37543370072396L125.3613335132599,135.51402934502605L125.93903551101684,155.71019231072768L126.5167375087738,136.4314830345797L127.09443950653076,139.23392300862508L127.67214150428772,135.65485285554928L128.24984350204468,132.63991546444515L128.82754549980163,144.0771801634778L129.4052474975586,145.53309201521827L129.98294949531555,148.7622694064303L130.56065149307253,149.13208787259907L131.13835349082947,140.5260646253914L131.71605548858642,158.51544973213288L132.2937574863434,155.28926893233248L132.87145948410034,142.4566756427073L133.44916148185732,163.72655476858483L134.02686347961426,141.53892880834164L134.6045654773712,155.79899076003124L135.18226747512819,138.09758785944007L135.75996947288513,148.7544929260007L136.33767147064208,145.6347644075158L136.91537346839905,131.66603954149173L137.493075466156,154.70892363367457L138.07077746391295,151.90448864632526L138.64847946166992,138.65318685021782L139.22618145942687,143.40631826120153L139.80388345718384,149.13146086841786L140.3815854549408,135.5641571078791L140.95928745269774,145.02069116965424L141.5369894504547,148.71762182297948L142.11469144821166,139.63858499286536L142.69239344596863,140.98889142608058L143.27009544372558,149.45698189632787L143.84779744148256,147.99677058734468L144.4254994392395,137.61885795269956L145.00320143699645,159.00447227893943L145.58090343475342,146.24179402697771L146.15860543251037,145.3240227638777L146.73630743026735,146.91620623864387L147.3140094280243,151.50975287113596L147.89171142578127,146.14266222305093L148.4694134235382,148.4531074876125L149.04711542129516,153.7341764191966L149.62481741905214,153.4628138953047L150.20251941680908,139.9789016908703L150.78022141456606,154.99899042515474L151.357923412323,135.25261745891947L151.93562541007995,152.28284088368798L152.51332740783693,148.9806704342864L153.09102940559387,156.05244702165643L153.66873140335085,151.078430994826L154.2464334011078,153.0508151478528L154.82413539886477,155.9138709546919L155.40183739662172,148.26786439515888L155.97953939437866,145.15656379001916L156.55724139213564,154.10870148818034L157.13494338989258,159.30089868425785L157.71264538764956,150.54231799113523L158.2903473854065,157.26660397551763L158.86804938316345,160.65749144510832L159.44575138092043,150.5711438976492L160.02345337867737,142.97977627390955L160.60115537643435,160.3475966642605L161.1788573741913,156.47534912753267L161.75655937194827,167.3181731481968L162.33426136970522,159.51671026627457L162.91196336746214,144.52795545522898L163.4896653652191,157.77732738132406L164.06736736297606,158.16579311470102L164.64506936073303,157.59247514861977L165.22277135848998,152.448988848804L165.80047335624693,148.4322453484914L166.3781753540039,160.22743986298372L166.95587735176085,163.92157749768342L167.53357934951782,159.3695841422932L168.11128134727477,161.1437291162008L168.68898334503172,158.65383036922273L169.2666853427887,142.6810779962981L169.84438734054564,164.17636105387407L170.4220893383026,149.29526367503777L170.99979133605956,168.4664458055596L171.57749333381653,166.80016183664742L172.15519533157348,161.31737670275726L172.73289732933043,165.2429847381817L173.3105993270874,162.4400317607153L173.88830132484435,162.24604318137017L174.46600332260132,156.06736483542295L175.04370532035827,171.27478124749086L175.62140731811522,147.7637367476226L176.1991093158722,167.16379169011827L176.77681131362914,160.14307115750603L177.3545133113861,157.24261495840176L177.93221530914306,161.28717464420916L178.50991730690004,166.52787916376226L179.08761930465698,170.81753234114123L179.66532130241393,167.0325605292768L180.2430233001709,148.62708079062676L180.82072529792785,167.10740202836428L181.39842729568483,159.38288151668226L181.97612929344177,167.27281713145027L182.55383129119872,164.5325401433731L183.1315332889557,149.76026463308267L183.70923528671264,161.57034438969575L184.28693728446962,161.33019364537108L184.86463928222656,162.1834893356526L185.44234127998354,161.3346885324885L186.02004327774048,162.14117062487492L186.59774527549743,157.54867442795918L187.1754472732544,165.4535767139624L187.75314927101135,167.77563377024399L188.33085126876833,154.41389780912462L188.90855326652527,159.7627157639279L189.48625526428222,176.3300472447157L190.0639572620392,159.86945304714396L190.64165925979614,162.55022978129531L191.21936125755312,165.17973874499134L191.79706325531006,166.817278236504L192.37476525306704,165.57694996525981L192.952467250824,165.42423780402743L193.53016924858093,154.34974795276392L194.1078712463379,167.2768723013497L194.68557324409485,157.97166610586132L195.26327524185183,172.59321632531183L195.84097723960878,171.36484184806832L196.41867923736572,164.49026214715263L196.9963812351227,171.28930820150808L197.57408323287964,161.88771436324976L198.15178523063662,170.33360725689903L198.72948722839354,173.66487232889222L199.30718922615048,153.74800308282954L199.88489122390746,166.51348249632818L200.4625932216644,166.79293907419606L201.04029521942138,169.12682778080665L201.61799721717833,166.63476301938434L202.1956992149353,163.60826269402887L202.77340121269225,153.98178607040452L203.3511032104492,169.60730841350778L203.92880520820617,169.5251301512087L204.50650720596312,180.4520623041843L205.0842092037201,173.5598369141681L205.66191120147704,166.6153014610317L206.239613199234,162.7413276270776L206.81731519699096,173.53793248238208L207.3950171947479,172.05843061618657L207.97271919250488,162.7877910797806L208.55042119026183,164.53282514527368L209.1281231880188,165.66322411201554" fill="none"></path></g></g></g></g></g></g><g transform="translate(41, 177)" clip-path="url(#clip_1)"><clipPath id="clip_1"><rect width="288" height="22"></rect></clipPath><g><g><line x1="0" y1="0" x2="0" y2="5" style="visibility: inherit;" fill="rgb(0, 0, 0)" stroke="rgb(204, 204, 204)" stroke-width="1px"></line><line x1="28.8850998878479" y1="0" x2="28.8850998878479" y2="5" style="visibility: inherit;" fill="rgb(0, 0, 0)" stroke="rgb(204, 204, 204)" stroke-width="1px"></line><line x1="57.7701997756958" y1="0" x2="57.7701997756958" y2="5" style="visibility: inherit;" fill="rgb(0, 0, 0)" stroke="rgb(204, 204, 204)" stroke-width="1px"></line><line x1="86.6552996635437" y1="0" x2="86.6552996635437" y2="5" style="visibility: inherit;" fill="rgb(0, 0, 0)" stroke="rgb(204, 204, 204)" stroke-width="1px"></line><line x1="115.5403995513916" y1="0" x2="115.5403995513916" y2="5" style="visibility: inherit;" fill="rgb(0, 0, 0)" stroke="rgb(204, 204, 204)" stroke-width="1px"></line><line x1="144.4254994392395" y1="0" x2="144.4254994392395" y2="5" style="visibility: inherit;" fill="rgb(0, 0, 0)" stroke="rgb(204, 204, 204)" stroke-width="1px"></line><line x1="173.3105993270874" y1="0" x2="173.3105993270874" y2="5" style="visibility: inherit;" fill="rgb(0, 0, 0)" stroke="rgb(204, 204, 204)" stroke-width="1px"></line><line x1="202.1956992149353" y1="0" x2="202.1956992149353" y2="5" style="visibility: inherit;" fill="rgb(0, 0, 0)" stroke="rgb(204, 204, 204)" stroke-width="1px"></line><line x1="231.0807991027832" y1="0" x2="231.0807991027832" y2="5" style="visibility: inherit;" fill="rgb(0, 0, 0)" stroke="rgb(204, 204, 204)" stroke-width="1px"></line><line x1="259.9658989906311" y1="0" x2="259.9658989906311" y2="5" style="visibility: inherit;" fill="rgb(0, 0, 0)" stroke="rgb(204, 204, 204)" stroke-width="1px"></line><line x1="288.850998878479" y1="0" x2="288.850998878479" y2="5" style="visibility: inherit;" fill="rgb(0, 0, 0)" stroke="rgb(204, 204, 204)" stroke-width="1px"></line></g><g transform="translate(0, 8)"><text style="text-anchor: middle; visibility: hidden; font-family: Roboto, sans-serif; font-size: 12px; font-weight: 200;" x="0" y="0" dx="0em" dy="0.95em" fill="rgb(50, 49, 63)" stroke="none" stroke-width="1px">-1k</text><text style="text-anchor: middle; visibility: inherit; font-family: Roboto, sans-serif; font-size: 12px; font-weight: 200;" x="28.8850998878479" y="0" dx="0em" dy="0.95em" fill="rgb(50, 49, 63)" stroke="none" stroke-width="1px">0</text><text style="text-anchor: middle; visibility: inherit; font-family: Roboto, sans-serif; font-size: 12px; font-weight: 200;" x="57.7701997756958" y="0" dx="0em" dy="0.95em" fill="rgb(50, 49, 63)" stroke="none" stroke-width="1px">1k</text><text style="text-anchor: middle; visibility: inherit; font-family: Roboto, sans-serif; font-size: 12px; font-weight: 200;" x="86.6552996635437" y="0" dx="0em" dy="0.95em" fill="rgb(50, 49, 63)" stroke="none" stroke-width="1px">2k</text><text style="text-anchor: middle; visibility: inherit; font-family: Roboto, sans-serif; font-size: 12px; font-weight: 200;" x="115.5403995513916" y="0" dx="0em" dy="0.95em" fill="rgb(50, 49, 63)" stroke="none" stroke-width="1px">3k</text><text style="text-anchor: middle; visibility: inherit; font-family: Roboto, sans-serif; font-size: 12px; font-weight: 200;" x="144.4254994392395" y="0" dx="0em" dy="0.95em" fill="rgb(50, 49, 63)" stroke="none" stroke-width="1px">4k</text><text style="text-anchor: middle; visibility: inherit; font-family: Roboto, sans-serif; font-size: 12px; font-weight: 200;" x="173.3105993270874" y="0" dx="0em" dy="0.95em" fill="rgb(50, 49, 63)" stroke="none" stroke-width="1px">5k</text><text style="text-anchor: middle; visibility: inherit; font-family: Roboto, sans-serif; font-size: 12px; font-weight: 200;" x="202.1956992149353" y="0" dx="0em" dy="0.95em" fill="rgb(50, 49, 63)" stroke="none" stroke-width="1px">6k</text><text style="text-anchor: middle; visibility: inherit; font-family: Roboto, sans-serif; font-size: 12px; font-weight: 200;" x="231.0807991027832" y="0" dx="0em" dy="0.95em" fill="rgb(50, 49, 63)" stroke="none" stroke-width="1px">7k</text><text style="text-anchor: middle; visibility: inherit; font-family: Roboto, sans-serif; font-size: 12px; font-weight: 200;" x="259.9658989906311" y="0" dx="0em" dy="0.95em" fill="rgb(50, 49, 63)" stroke="none" stroke-width="1px">8k</text><text style="text-anchor: middle; visibility: hidden; font-family: Roboto, sans-serif; font-size: 12px; font-weight: 200;" x="288.850998878479" y="0" dx="0em" dy="0.95em" fill="rgb(50, 49, 63)" stroke="none" stroke-width="1px">9k</text></g><line x1="0" y1="0" x2="288.850998878479" y2="0" fill="rgb(0, 0, 0)" stroke="rgb(204, 204, 204)" stroke-width="1px"></line></g></g></g></g></svg>