<svg viewBox="0 0 330 200" xmlns="http://www.w3.org/2000/svg"><g><g><g><g><g><line x1="41.149001121520996" y1="177.5999994277954" x2="36.149001121520996" y2="177.5999994277954" style="visibility: inherit;" fill="rgb(0, 0, 0)" stroke="rgb(204, 204, 204)" stroke-width="1px"></line><line x1="41.149001121520996" y1="162.79999947547913" x2="36.149001121520996" y2="162.79999947547913" style="visibility: inherit;" fill="rgb(0, 0, 0)" stroke="rgb(204, 204, 204)" stroke-width="1px"></line><line x1="41.149001121520996" y1="147.99999952316284" x2="36.149001121520996" y2="147.99999952316284" style="visibility: inherit;" fill="rgb(0, 0, 0)" stroke="rgb(204, 204, 204)" stroke-width="1px"></line><line x1="41.149001121520996" y1="133.19999957084656" x2="36.149001121520996" y2="133.19999957084656" style="visibility: inherit;" fill="rgb(0, 0, 0)" stroke="rgb(204, 204, 204)" stroke-width="1px"></line><line x1="41.149001121520996" y1="118.39999961853029" x2="36.149001121520996" y2="118.39999961853029" style="visibility: inherit;" fill="rgb(0, 0, 0)" stroke="rgb(204, 204, 204)" stroke-width="1px"></line><line x1="41.149001121520996" y1="103.59999966621399" x2="36.149001121520996" y2="103.59999966621399" style="visibility: inherit;" fill="rgb(0, 0, 0)" stroke="rgb(204, 204, 204)" stroke-width="1px"></line><line x1="41.149001121520996" y1="88.79999971389769" x2="36.149001121520996" y2="88.79999971389769" style="visibility: inherit;" fill="rgb(0, 0, 0)" stroke="rgb(204, 204, 204)" stroke-width="1px"></line><line x1="41.149001121520996" y1="73.99999976158142" x2="36.149001121520996" y2="73.99999976158142" style="visibility: inherit;" fill="rgb(0, 0, 0)" stroke="rgb(204, 204, 204)" stroke-width="1px"></line><line x1="41.149001121520996" y1="59.19999980926512" x2="36.149001121520996" y2="59.19999980926512" style="visibility: inherit;" fill="rgb(0, 0, 0)" stroke="rgb(204, 204, 204)" stroke-width="1px"></line><line x1="41.149001121520996" y1="44.39999985694883" x2="36.149001121520996" y2="44.39999985694883" style="visibility: inherit;" fill="rgb(0, 0, 0)" stroke="rgb(204, 204, 204)" stroke-width="1px"></line><line x1="41.149001121520996" y1="29.59999990463256" x2="36.149001121520996" y2="29.59999990463256" style="visibility: inherit;" fill="rgb(0, 0, 0)" stroke="rgb(204, 204, 204)" stroke-width="1px"></line><line x1="41.149001121520996" y1="14.799999952316272" x2="36.149001121520996" y2="14.799999952316272" style="visibility: inherit;" fill="rgb(0, 0, 0)" stroke="rgb(204, 204, 204)" stroke-width="1px"></line><line x1="41.149001121520996" y1="0" x2="36.149001121520996" y2="0" style="visibility: inherit;" fill="rgb(0, 0, 0)" stroke="rgb(204, 204, 204)" stroke-width="1px"></line></g><g transform="translate(31.149001121520996, 0)"><text style="text-anchor: end; visibility: hidden; font-family: Roboto, sans-serif; font-size: 12px; font-weight: 200;" x="0" y="177.5999994277954" dx="0em" dy="0.3em" fill="rgb(50, 49, 63)" stroke="none" stroke-width="1px">0.4</text><text style="text-anchor: end; visibility: inherit; font-family: Roboto, sans-serif; font-size: 12px; font-weight: 200;" x="0" y="162.79999947547913" dx="0em" dy="0.3em" fill="rgb(50, 49, 63)" stroke="none" stroke-width="1px">0.6</text><text style="text-anchor: end; visibility: hidden; font-family: Roboto, sans-serif; font-size: 12px; font-weight: 200;" x="0" y="147.99999952316284" dx="0em" dy="0.3em" fill="rgb(50, 49, 63)" stroke="none" stroke-width="1px">0.8</text><text style="text-anchor: end; visibility: inherit; font-family: Roboto, sans-serif; font-size: 12px; font-weight: 200;" x="0" y="133.19999957084656" dx="0em" dy="0.3em" fill="rgb(50, 49, 63)" stroke="none" stroke-width="1px">1</text><text style="text-anchor: end; visibility: hidden; font-family: Roboto, sans-serif; font-size: 12px; font-weight: 200;" x="0" y="118.39999961853029" dx="0em" dy="0.3em" fill="rgb(50, 49, 63)" stroke="none" stroke-width="1px">1.2</text><text style="text-anchor: end; visibility: inherit; font-family: Roboto, sans-serif; font-size: 12px; font-weight: 200;" x="0" y="103.59999966621399" dx="0em" dy="0.3em" fill="rgb(50, 49, 63)" stroke="none" stroke-width="1px">1.4</text><text style="text-anchor: end; visibility: hidden; font-family: Roboto, sans-serif; font-size: 12px; font-weight: 200;" x="0" y="88.79999971389769" dx="0em" dy="0.3em" fill="rgb(50, 49, 63)" stroke="none" stroke-width="1px">1.6</text><text style="text-anchor: end; visibility: inherit; font-family: Roboto, sans-serif; font-size: 12px; font-weight: 200;" x="0" y="73.99999976158142" dx="0em" dy="0.3em" fill="rgb(50, 49, 63)" stroke="none" stroke-width="1px">1.8</text><text style="text-anchor: end; visibility: hidden; font-family: Roboto, sans-serif; font-size: 12px; font-weight: 200;" x="0" y="59.19999980926512" dx="0em" dy="0.3em" fill="rgb(50, 49, 63)" stroke="none" stroke-width="1px">2</text><text style="text-anchor: end; visibility: inherit; font-family: Roboto, sans-serif; font-size: 12px; font-weight: 200;" x="0" y="44.39999985694883" dx="0em" dy="0.3em" fill="rgb(50, 49, 63)" stroke="none" stroke-width="1px">2.2</text><text style="text-anchor: end; visibility: hidden; font-family: Roboto, sans-serif; font-size: 12px; font-weight: 200;" x="0" y="29.59999990463256" dx="0em" dy="0.3em" fill="rgb(50, 49, 63)" stroke="none" stroke-width="1px">2.4</text><text style="text-anchor: end; visibility: inherit; font-family: Roboto, sans-serif; font-size: 12px; font-weight: 200;" x="0" y="14.799999952316272" dx="0em" dy="0.3em" fill="rgb(50, 49, 63)" stroke="none" stroke-width="1px">2.6</text><text style="text-anchor: end; visibility: hidden; font-family: Roboto, sans-serif; font-size: 12px; font-weight: 200;" x="0" y="0" dx="0em" dy="0.3em" fill="rgb(50, 49, 63)" stroke="none" stroke-width="1px">2.8</text></g><line x1="41.149001121520996" y1="0" x2="41.149001121520996" y2="177.5999994277954" fill="rgb(0, 0, 0)" stroke="rgb(204, 204, 204)" stroke-width="1px"></line></g></g><g transform="translate(41, 0)" clip-path="url(#clip_0)"><clipPath id="clip_0"><rect width="288" height="177"></rect></clipPath><g><g><g><line x1="0" y1="0" x2="0" y2="177.5999994277954" fill="rgb(0, 0, 0)" stroke="rgb(60, 60, 60)" stroke-width="1px" opacity="0.25"></line><line x1="28.8850998878479" y1="0" x2="28.8850998878479" y2="177.5999994277954" fill="rgb(0, 0, 0)" stroke="rgb(60, 60, 60)" stroke-width="1px" opacity="0.25"></line><line x1="57.7701997756958" y1="0" x2="57.7701997756958" y2="177.5999994277954" fill="rgb(0, 0, 0)" stroke="rgb(60, 60, 60)" stroke-width="1px" opacity="0.25"></line><line x1="86.6552996635437" y1="0" x2="86.6552996635437" y2="177.5999994277954" fill="rgb(0, 0, 0)" stroke="rgb(60, 60, 60)" stroke-width="1px" opacity="0.25"></line><line x1="115.5403995513916" y1="0" x2="115.5403995513916" y2="177.5999994277954" fill="rgb(0, 0, 0)" stroke="rgb(60, 60, 60)" stroke-width="1px" opacity="0.25"></line><line x1="144.4254994392395" y1="0" x2="144.4254994392395" y2="177.5999994277954" fill="rgb(0, 0, 0)" stroke="rgb(60, 60, 60)" stroke-width="1px" opacity="0.25"></line><line x1="173.3105993270874" y1="0" x2="173.3105993270874" y2="177.5999994277954" fill="rgb(0, 0, 0)" stroke="rgb(60, 60, 60)" stroke-width="1px" opacity="0.25"></line><line x1="202.1956992149353" y1="0" x2="202.1956992149353" y2="177.5999994277954" fill="rgb(0, 0, 0)" stroke="rgb(60, 60, 60)" stroke-width="1px" opacity="0.25"></line><line x1="231.0807991027832" y1="0" x2="231.0807991027832" y2="177.5999994277954" fill="rgb(0, 0, 0)" stroke="rgb(60, 60, 60)" stroke-width="1px" opacity="0.25"></line><line x1="259.9658989906311" y1="0" x2="259.9658989906311" y2="177.5999994277954" fill="rgb(0, 0, 0)" stroke="rgb(60, 60, 60)" stroke-width="1px" opacity="0.25"></line><line x1="288.850998878479" y1="0" x2="288.850998878479" y2="177.5999994277954" fill="rgb(0, 0, 0)" stroke="rgb(60, 60, 60)" stroke-width="1px" opacity="0.25"></line></g><g><line x1="0" y1="177.5999994277954" x2="288.850998878479" y2="177.5999994277954" fill="rgb(0, 0, 0)" stroke="rgb(60, 60, 60)" stroke-width="1px" opacity="0.25"></line><line x1="0" y1="162.79999947547913" x2="288.850998878479" y2="162.79999947547913" fill="rgb(0, 0, 0)" stroke="rgb(60, 60, 60)" stroke-width="1px" opacity="0.25"></line><line x1="0" y1="147.99999952316284" x2="288.850998878479" y2="147.99999952316284" fill="rgb(0, 0, 0)" stroke="rgb(60, 60, 60)" stroke-width="1px" opacity="0.25"></line><line x1="0" y1="133.19999957084656" x2="288.850998878479" y2="133.19999957084656" fill="rgb(0, 0, 0)" stroke="rgb(60, 60, 60)" stroke-width="1px" opacity="0.25"></line><line x1="0" y1="118.39999961853029" x2="288.850998878479" y2="118.39999961853029" fill="rgb(0, 0, 0)" stroke="rgb(60, 60, 60)" stroke-width="1px" opacity="0.25"></line><line x1="0" y1="103.59999966621399" x2="288.850998878479" y2="103.59999966621399" fill="rgb(0, 0, 0)" stroke="rgb(60, 60, 60)" stroke-width="1px" opacity="0.25"></line><line x1="0" y1="88.79999971389769" x2="288.850998878479" y2="88.79999971389769" fill="rgb(0, 0, 0)" stroke="rgb(60, 60, 60)" stroke-width="1px" opacity="0.25"></line><line x1="0" y1="73.99999976158142" x2="288.850998878479" y2="73.99999976158142" fill="rgb(0, 0, 0)" stroke="rgb(60, 60, 60)" stroke-width="1px" opacity="0.25"></line><line x1="0" y1="59.19999980926512" x2="288.850998878479" y2="59.19999980926512" fill="rgb(0, 0, 0)" stroke="rgb(60, 60, 60)" stroke-width="1px" opacity="0.25"></line><line x1="0" y1="44.39999985694883" x2="288.850998878479" y2="44.39999985694883" fill="rgb(0, 0, 0)" stroke="rgb(60, 60, 60)" stroke-width="1px" opacity="0.25"></line><line x1="0" y1="29.59999990463256" x2="288.850998878479" y2="29.59999990463256" fill="rgb(0, 0, 0)" stroke="rgb(60, 60, 60)" stroke-width="1px" opacity="0.25"></line><line x1="0" y1="14.799999952316272" x2="288.850998878479" y2="14.799999952316272" fill="rgb(0, 0, 0)" stroke="rgb(60, 60, 60)" stroke-width="1px" opacity="0.25"></line><line x1="0" y1="0" x2="288.850998878479" y2="0" fill="rgb(0, 0, 0)" stroke="rgb(60, 60, 60)" stroke-width="1px" opacity="0.25"></line></g></g></g><g><g><line x1="0" y1="207.19999933242798" x2="288.850998878479" y2="207.19999933242798" fill="rgb(0, 0, 0)" stroke="rgb(153, 153, 153)" stroke-width="1.5px"></line></g></g><g><g><line x1="28.8850998878479" y1="0" x2="28.8850998878479" y2="177.5999994277954" fill="rgb(0, 0, 0)" stroke="rgb(153, 153, 153)" stroke-width="1.5px"></line></g></g><g><g><g><g><g><path style="fill: none;" stroke="rgb(51, 187, 238)" stroke-width="2px" d="M35.817523860931395,-1.6747216314990536L36.395225858688356,3.7795240340391962L36.97292785644532,1.3741727730625912L37.55062985420227,4.478216114558683L38.12833185195923,-3.473499983264549L38.70603384971619,1.3984535925504578L39.283735847473146,6.106694876355878L39.86143784523011,-10.40986027940203L40.43913984298707,4.032271383265446L41.016841840744014,8.014452366743631L41.594543838500975,14.415674065414663L42.17224583625793,15.368340804451202L42.74994783401489,18.7540025794572L43.32764983177185,21.94326016889951L43.905351829528804,24.224697454263254L44.483053827285765,28.250096512267675L45.060755825042726,28.478864137786058L45.63845782279968,27.039878410329333L46.21615982055664,34.16327253219907L46.7938618183136,35.169719134177626L47.371563816070555,38.93000288042302L47.949265813827516,41.454130852410685L48.52696781158448,45.62052660653563L49.10466980934143,50.57242558821337L49.682371807098384,58.96285675294577L50.260073804855345,48.34068024577822L50.8377758026123,47.04772069753557L51.41547780036926,30.426710502663298L51.99317979812622,51.52347392451062L52.570881795883174,50.88360375906878L53.148583793640135,57.94019944298309L53.726285791397096,58.40074685044088L54.30398778915405,62.99082770146584L54.88168978691101,64.14180626638827L55.45939178466797,51.20785588523133L56.037093782424925,57.04364020688029L56.614795780181886,63.042048705610235L57.19249777793885,63.647036882001665L57.7701997756958,64.20621402485781L58.34790177345276,66.34847370485939L58.925603771209715,67.18215765773012L59.50330576896667,71.00835273755877L60.08100776672363,67.55103652934993L60.65870976448059,63.745516126488276L61.236411762237545,68.45949440193169L61.814113759994505,71.63747243050986L62.391815757751466,65.70775228628106L62.96951775550842,69.54298739279508L63.54721975326538,76.10502755758327L64.12492175102234,72.18339312502859L64.7026237487793,73.95074359846069L65.28032574653626,78.81609236856714L65.85802774429321,67.22997317120074L66.43572974205017,70.5759740463304L67.01343173980713,74.46792506068618L67.59113373756409,73.56505071399249L68.16883573532104,79.33240351523159L68.746537733078,77.29454155486177L69.32423973083496,82.21418750655529L69.90194172859192,56.622246066435224L70.47964372634887,67.37143338723537L71.05734572410583,73.59961072595274L71.63504772186279,80.96870018248241L72.21274971961975,83.76860075133685L72.79045171737671,81.58371069732063L73.36815371513367,81.36942903195671L73.94585571289063,86.14896426731117L74.52355771064758,85.99617451487916L75.10125970840454,81.03510521668375L75.6789617061615,85.67762759698029L76.25666370391846,85.90805660209952L76.83436570167542,87.14884937811986L77.41206769943238,80.79463402654498L77.98976969718933,81.75579998072362L78.56747169494629,87.91415569468347L79.14517369270325,84.46741723263109L79.72287569046021,84.86374096326131L80.30057768821717,88.91585445595398L80.87827968597414,75.63974822561208L81.45598168373107,88.45806043390164L82.03368368148803,88.22779785393385L82.61138567924499,91.02996814411895L83.18908767700195,92.36050890127161L83.76678967475891,90.72980588050441L84.34449167251586,89.62170077535072L84.92219367027282,82.1386418519026L85.49989566802978,88.84679788421661L86.07759766578674,87.12237765410138L86.6552996635437,90.932452048244L87.23300166130066,89.75115215801634L87.81070365905761,82.22781669005042L88.38840565681457,90.87130391078523L88.96610765457153,90.170078502648L89.54380965232849,87.8021086116979L90.12151165008545,94.28651743503939L90.69921364784241,97.91491969967471L91.27691564559936,85.2525076865241L91.85461764335632,66.21670981546677L92.43231964111328,85.0233135288489L93.01002163887024,85.81405215045405L93.5877236366272,96.17582343114128L94.16542563438416,95.9593738249142L94.74312763214111,95.97867829566557L95.32082962989807,97.22621250177032L95.89853162765503,91.74232582240009L96.476233625412,84.59060652238524L97.05393562316895,86.96694476168732L97.63163762092591,93.4341983318703L98.20933961868286,91.78803493135776L98.78704161643982,92.4301073439096L99.36474361419677,101.3884408928642L99.94244561195373,102.6119064611625L100.52014760971069,103.58469255493588L101.09784960746765,108.73755838853499L101.6755516052246,94.74136052779872L102.25325360298156,96.31496764694144L102.83095560073852,101.64566870966105L103.40865759849548,95.70628287237889L103.98635959625244,100.43345786829529L104.5640615940094,92.98152584903372L105.14176359176635,98.40405606524958L105.71946558952331,104.70373668319671L106.29716758728027,108.09047885403524L106.87486958503723,99.57976938399278L107.45257158279419,106.47948217341913L108.03027358055115,98.03445690391898L108.6079755783081,100.04098037480944L109.18567757606506,80.02445254310236L109.76337957382202,97.10941199302982L110.34108157157898,99.1206603835708L110.91878356933594,101.72128691028507L111.4964855670929,100.70765178158594L112.07418756484985,101.11118987494551L112.65188956260681,102.74667036365886L113.22959156036377,108.6714084062684L113.80729355812073,99.38224718809789L114.3849955558777,104.52455047815286L114.96269755363465,98.43549861485374L115.5403995513916,92.69973296935436L116.11810154914856,103.52448518252801L116.69580354690552,106.85684521560371L117.27350554466248,104.4795721940502L117.85120754241943,105.1338120109426L118.42890954017639,104.38884213894097L119.00661153793334,106.79472299971187L119.5843135356903,102.22225008452425L120.16201553344726,99.35691787178511L120.73971753120422,103.25609708896438L121.31741952896118,103.17707869093628L121.89512152671814,106.01868623488247L122.47282352447509,101.75854792066656L123.05052552223205,80.3413423002934L123.62822751998901,90.62420197482635L124.20592951774597,95.11052651894377L124.78363151550293,101.45241841109683L125.3613335132599,104.4107487578321L125.93903551101684,104.3617949717703L126.5167375087738,109.8845493312125L127.09443950653076,103.40078978440839L127.67214150428772,116.25185612352216L128.24984350204468,109.44386379431313L128.82754549980163,99.65550761224496L129.4052474975586,81.17770314257388L129.98294949531555,99.15465793122165L130.56065149307253,110.10900394435727L131.13835349082947,111.1960703002137L131.71605548858642,105.56705756956696L132.2937574863434,97.10709606916443L132.87145948410034,100.47884293451149L133.44916148185732,105.51186588562251L134.02686347961426,115.84903233943439L134.6045654773712,114.67515426910265L135.18226747512819,115.86840225092939L135.75996947288513,113.61185369131405L136.33767147064208,105.55022144835496L136.91537346839905,100.00506923384911L137.493075466156,100.10749707958414L138.07077746391295,94.54386146446636L138.64847946166992,107.88428517806412L139.22618145942687,105.13434409766718L139.80388345718384,108.44963502341434L140.3815854549408,108.88342795031437L140.95928745269774,113.75338151112493L141.5369894504547,110.50533572097365L142.11469144821166,106.05672466718106L142.69239344596863,111.55917814853325L143.27009544372558,114.22926859794283L143.84779744148256,111.772026697634L144.4254994392395,107.05348584744968L145.00320143699645,111.96615541152286L145.58090343475342,109.84137349218089L146.15860543251037,102.9055977260161L146.73630743026735,109.11687741936258L147.3140094280243,115.2095646581535L147.89171142578127,117.50954305371484L148.4694134235382,108.78277216732421L149.04711542129516,94.53770031058242L149.62481741905214,102.78041454016706L150.20251941680908,113.40897136545384L150.78022141456606,115.58057847612504L151.357923412323,112.68032198713847L151.93562541007995,108.26439717264832L152.51332740783693,106.20286909999135L153.09102940559387,109.34213148295909L153.66873140335085,101.25259968799605L154.2464334011078,108.85338614202115L154.82413539886477,104.8261596716491L155.40183739662172,116.48078718155331L155.97953939437866,90.83624003448588L156.55724139213564,100.93116459267465L157.13494338989258,102.11642947099389L157.71264538764956,111.0903014109429L158.2903473854065,112.19048113633393L158.86804938316345,92.56665862854821L159.44575138092043,85.25739103536011L160.02345337867737,97.60723550832368L160.60115537643435,111.86790395366666L161.1788573741913,98.72014287958795L161.75655937194827,105.10200907170673L162.33426136970522,109.01446785877916L162.91196336746214,114.62504724489683L163.4896653652191,109.67892696409967L164.06736736297606,113.88608111532936L164.64506936073303,116.47325462059443L165.22277135848998,113.52523834102902L165.80047335624693,117.26049304460079L166.3781753540039,117.45842908242724L166.95587735176085,120.23894230454354L167.53357934951782,117.91461014794972L168.11128134727477,111.58398337609268L168.68898334503172,115.79985295353063L169.2666853427887,111.79320802025516L169.84438734054564,118.73471281734462L170.4220893383026,117.09140551160547L170.99979133605956,117.01008690187659L171.57749333381653,118.05814049965431L172.15519533157348,110.77758488494457L172.73289732933043,104.01965285073084L173.3105993270874,114.82778947418075L173.88830132484435,116.92389025729271L174.46600332260132,110.50414482579501L175.04370532035827,119.1162698582184L175.62140731811522,117.8955039938095L176.1991093158722,113.8916637829535L176.77681131362914,120.06706453840769L177.3545133113861,122.36377675536326L177.93221530914306,119.98588944436212L178.50991730690004,121.07948472699677L179.08761930465698,99.91181226436535L179.66532130241393,105.49511263979073L180.2430233001709,117.37653413636313L180.82072529792785,119.07931164717714L181.39842729568483,125.74141757203682L181.97612929344177,127.62290127522354L182.55383129119872,115.81025808547977L183.1315332889557,117.63682246396512L183.70923528671264,117.96940153237654L184.28693728446962,114.43246327906347L184.86463928222656,120.36362987911937L185.44234127998354,116.5722374577326L186.02004327774048,87.25564686635896L186.59774527549743,111.00922172574766L187.1754472732544,118.48325156388306L187.75314927101135,116.97889083066335L188.33085126876833,102.5409540694417L188.90855326652527,111.99720474426982L189.48625526428222,116.59946819515365L190.0639572620392,114.72144443976877L190.64165925979614,117.8017968244552L191.21936125755312,114.13541875495812L191.79706325531006,116.349243234372L192.37476525306704,125.33010910349476L192.952467250824,101.08933066479631L193.53016924858093,113.60120202950205L194.1078712463379,103.03248260798193L194.68557324409485,105.76301006811575L195.26327524185183,119.09149387231892L195.84097723960878,122.27111490184842L196.41867923736572,120.05614339004936L196.9963812351227,117.73028691200861L197.57408323287964,119.71652389170245L198.15178523063662,91.67501251656772L198.72948722839354,72.67899934594821L199.30718922615048,98.04187531877812L199.88489122390746,105.54116170657758L200.4625932216644,113.74169883672259L201.04029521942138,106.6543812304995L201.61799721717833,112.150239292624L202.1956992149353,119.37385043608222L202.77340121269225,121.06269222284944L203.3511032104492,123.87916158599297L203.92880520820617,123.64547068153455L204.50650720596312,124.31204838109934L205.0842092037201,119.81064611485236L205.66191120147704,93.97725719320918L206.239613199234,105.75885006442404L206.81731519699096,115.30110336251067L207.3950171947479,124.27560020422128L207.97271919250488,120.51469872922169L208.55042119026183,128.71013251962958L209.1281231880188,111.1588609077045L209.70582518577575,125.46894697227091L210.2835271835327,127.29331586424446L210.86122918128967,127.20685706380034L211.43893117904662,122.48995859059939L212.0166331768036,127.20962346401525L212.59433517456054,114.1321589085432L213.1720371723175,119.49138811532913L213.74973917007446,124.54734036872345L214.3274411678314,121.49852163088707L214.90514316558838,121.2236166493412L215.48284516334533,125.45322306696613L216.0605471611023,117.86807014808205L216.63824915885925,117.54352001343995L217.2159511566162,122.26274102443496L217.79365315437317,119.50996008343242L218.37135515213012,123.30471499129108L218.9490571498871,120.7421515077577L219.52675914764404,122.27295801528948L220.10446114540102,101.1040860969562L220.68216314315796,111.95750546614943L221.2598651409149,113.66554807468216L221.8375671386719,121.0471004579948L222.41526913642883,125.01090734022137L222.9929711341858,123.21683887742286L223.57067313194275,121.35616902696151L224.1483751296997,124.61912348788293L224.72607712745668,127.54751893965968L225.30377912521362,118.29415495928585L225.8814811229706,121.30697574832092L226.45918312072754,121.67045477274708L227.03688511848452,125.85582120203604L227.61458711624147,116.60945508501341L228.1922891139984,120.89496165203155L228.7699911117554,126.57380536027301L229.34769310951233,125.11049268737463L229.9253951072693,123.07597366841664L230.50309710502626,124.32166755909604L231.0807991027832,113.93614392858652L231.65850110054018,123.2329102326059L232.23620309829712,123.09657559651389L232.8139050960541,126.75496873778968L233.39160709381105,127.70791649772974L233.96930909156802,125.61231834222957L234.54701108932497,123.94460344145135L235.1247130870819,118.9065251684864L235.70241508483886,123.53569462524652L236.2801170825958,124.06177866817237L236.85781908035278,126.08485328025027L237.43552107810973,125.11837593361321L238.01322307586668,117.00560170075937L238.59092507362365,123.37730706681313L239.1686270713806,123.05603473181962L239.74632906913757,116.55542846918544L240.32403106689452,126.14886687882479L240.90173306465147,130.5654593409578L241.47943506240844,118.40279129409029L242.0571370601654,101.19777937099093L242.63483905792236,119.77555583266553L243.2125410556793,117.33413055284213L243.79024305343628,128.4402996836381L244.36794505119323,126.51473759515908L244.94564704895018,129.55938086385524L245.52334904670715,130.48875436183835L246.1010510444641,121.8911047191901L246.67875304222108,116.85315732837232L247.25645503997802,118.48063163484517L247.83415703773497,121.53612946354838L248.41185903549194,122.5611524729995L248.9895610332489,123.59646398952361L249.56726303100587,120.54147339773087L250.1449650287628,120.569393710484L250.7226670265198,124.46242737216589L251.30036902427673,128.6094319356724L251.87807102203368,127.07077097421194L252.45577301979066,126.56165138451215L253.0334750175476,123.42961024179823L253.61117701530458,124.70749503235739L254.18887901306152,125.51816843881173L254.76658101081847,130.09774336400787L255.34428300857545,119.66662433604412L255.9219850063324,126.32907158550354L256.49968700408937,129.33442581225464L257.0773890018463,108.39386842802529L257.65509099960326,122.53901395302685L258.2327929973602,131.3481718585711L258.8104949951172,126.10676544510878L259.38819699287416,128.47128551458175L259.9658989906311,133.26726788547307L260.54360098838805,127.18283128407508L261.12130298614505,130.48367800679932L261.699004983902,127.86587183400444L262.27670698165895,125.2174218077136L262.8544089794159,126.9392450581951L263.43211097717284,130.25081427761057L264.00981297492984,130.55031985068334L264.5875149726868,132.50170898330543L265.16521697044374,128.9828719261692L265.7429189682007,135.29327142464754L266.32062096595763,136.77002073928486L266.89832296371463,140.13646146114056L267.4760249614716,124.95934474224511L268.0537269592285,122.04946634818312L268.6314289569855,108.81334300758749L269.2091309547424,125.19150185786286L269.7868329524994,120.54347871091879L270.36453495025637,126.99427995393182L270.9422369480133,121.3458305553926L271.51993894577026,126.26632290419194L272.0976409435272,128.4451822556764L272.67534294128416,108.95475177484079L273.2530449390411,119.04677232158022L273.8307469367981,129.0497606548733" fill="none"></path></g><g><path style="fill: none;" stroke="rgb(255, 112, 67)" stroke-width="2px" d="M32.35131187438965,-1.4559495663859L32.929013872146605,2.3971771711973178L33.506715869903566,3.4861335003715395L34.08441786766052,4.592674773415998L34.66211986541748,4.040945782223212L35.239821863174434,6.233206154700513L35.817523860931395,10.699817251210364L36.395225858688356,12.584471727730673L36.97292785644532,18.160095943260128L37.55062985420227,20.07457708782841L38.12833185195923,20.861328712613705L38.70603384971619,27.144517474843074L39.283735847473146,33.44348110917351L39.86143784523011,39.34637857373791L40.43913984298707,46.73457856472975L41.016841840744014,49.06596412937939L41.594543838500975,56.00126177158404L42.17224583625793,61.987986577401806L42.74994783401489,67.24107659585592L43.32764983177185,66.08016008434124L43.905351829528804,74.19955767156219L44.483053827285765,77.78026081231302L45.060755825042726,83.09575729275554L45.63845782279968,87.67054319926854L46.21615982055664,83.08187805183022L46.7938618183136,87.58213656465381L47.371563816070555,92.72843832707431L47.949265813827516,94.49994664664486L48.52696781158448,93.73387604047302L49.10466980934143,96.06619285900638L49.682371807098384,103.32953538709936L50.260073804855345,103.42330381341617L50.8377758026123,104.97172025958034L51.41547780036926,106.07088753764148L51.99317979812622,106.66107901693871L52.570881795883174,103.57194886277921L53.148583793640135,104.34382738851946L53.726285791397096,114.63388889582272L54.30398778915405,109.20422962103645L54.88168978691101,110.99610720084152L55.45939178466797,111.68402784764832L56.037093782424925,109.09579422579554L56.614795780181886,114.25788501917218L57.19249777793885,118.60242303892525L57.7701997756958,118.27072788896169L58.34790177345276,123.09455248901719L58.925603771209715,119.1744517059489L59.50330576896667,126.80357947489063L60.08100776672363,128.26854845867314L60.65870976448059,120.21958959067275L61.236411762237545,126.28382406776052L61.814113759994505,124.11994496688851L62.391815757751466,128.09910480537647L62.96951775550842,119.80354509976021L63.54721975326538,122.52657042557337L64.12492175102234,123.84635482921887L64.7026237487793,119.38342035159948L65.28032574653626,125.9381989548698L65.85802774429321,128.63619043209616L66.43572974205017,126.13704769621306L67.01343173980713,126.55908268254541L67.59113373756409,128.05379269751043L68.16883573532104,122.547325631779L68.746537733078,125.11515395315695L69.32423973083496,128.34673793230525L69.90194172859192,125.4864675513675L70.47964372634887,128.98884147020368L71.05734572410583,131.9912773816842L71.63504772186279,131.28311073642092L72.21274971961975,126.57728311462876L72.79045171737671,134.63950302493018L73.36815371513367,136.74351251079713L73.94585571289063,136.07734856116903L74.52355771064758,136.0756758042562L75.10125970840454,139.42724689550167L75.6789617061615,136.16925424066827L76.25666370391846,134.9463450641421L76.83436570167542,136.42147698904773L77.41206769943238,136.27715945822203L77.98976969718933,129.96789662123055L78.56747169494629,134.62933796196444L79.14517369270325,130.0329839093712L79.72287569046021,136.7466529016871L80.30057768821717,135.06144046661367L80.87827968597414,139.64586794874845L81.45598168373107,136.68183836845245L82.03368368148803,139.62713589440085L82.61138567924499,141.53107453783292L83.18908767700195,138.10430746128338L83.76678967475891,137.76171852247745L84.34449167251586,140.1151740907407L84.92219367027282,140.80336286888772L85.49989566802978,139.99724223304165L86.07759766578674,145.248836924726L86.6552996635437,145.1152893275265L87.23300166130066,139.1126644801013L87.81070365905761,136.30545120759334L88.38840565681457,142.7914639892333L88.96610765457153,143.2301242939621L89.54380965232849,149.368682774159L90.12151165008545,148.72889941484993L90.69921364784241,142.58782955398524L91.27691564559936,144.9264684038445L91.85461764335632,145.08798133268007L92.43231964111328,146.53286699445715L93.01002163887024,141.60757339596307L93.5877236366272,141.22213736701767L94.16542563438416,144.41639226689404L94.74312763214111,149.72449685038714L95.32082962989807,150.40919932646545L95.89853162765503,149.00208414273203L96.476233625412,147.4092464935014L97.05393562316895,140.63478034930426L97.63163762092591,146.7747259283135L98.20933961868286,143.5306109804596L98.78704161643982,149.68258672624057L99.36474361419677,153.11840720520365L99.94244561195373,151.06632325458432L100.52014760971069,153.15852300731262L101.09784960746765,147.21864278123573L101.6755516052246,148.2871621820114L102.25325360298156,150.18133364857158L102.83095560073852,150.56056836514568L103.40865759849548,152.38991331791863L103.98635959625244,154.74261284070315L104.5640615940094,154.52939749514974L105.14176359176635,153.2437124626712L105.71946558952331,151.11911826825303L106.29716758728027,152.3555879425057L106.87486958503723,149.49082197075816L107.45257158279419,151.97456950102892L108.03027358055115,152.11245127880287L108.6079755783081,150.32262077575632L109.18567757606506,150.51475308005016L109.76337957382202,151.10238864725488L110.34108157157898,149.29209986314848L110.91878356933594,150.01321656931398L111.4964855670929,154.16778507980104L112.07418756484985,156.13020378494542L112.65188956260681,157.93976144600643L113.22959156036377,153.92382844221328L113.80729355812073,152.96918761183383L114.3849955558777,154.48909399747754L114.96269755363465,154.04950580533134L115.5403995513916,152.59946224915385L116.11810154914856,154.30119487845914L116.69580354690552,155.0054942304592L117.27350554466248,156.80210859490322L117.85120754241943,159.23804917119222L118.42890954017639,157.91470933988927L119.00661153793334,153.65504073486983L119.5843135356903,156.18555605166512L120.16201553344726,153.64522305580346L120.73971753120422,151.04996333762134L121.31741952896118,155.16448759327037L121.89512152671814,157.59256297999846L122.47282352447509,155.72356089076592L123.05052552223205,160.96925036474278L123.62822751998901,160.08955697046957L124.20592951774597,157.5520352554452L124.78363151550293,154.75905931289574L125.3613335132599,155.3514996581357L125.93903551101684,162.32984499810652L126.5167375087738,157.47752661880475L127.09443950653076,158.2839650667193L127.67214150428772,157.13079205472002L128.24984350204468,155.95798873356043L128.82754549980163,157.06759695800113L129.4052474975586,160.30217336161166L129.98294949531555,160.08752693149418L130.56065149307253,161.61307623027014L131.13835349082947,158.85577252885233L131.71605548858642,165.01777464510252L132.2937574863434,167.05043464197408L132.87145948410034,162.14553930283728L133.44916148185732,165.83703337846768L134.02686347961426,162.3837965872328L134.6045654773712,164.3463316586639L135.18226747512819,157.8093964672812L135.75996947288513,160.1606469642668L136.33767147064208,160.03731018662256L136.91537346839905,154.9832122222651L137.493075466156,159.65522152016695L138.07077746391295,163.37889557655984L138.64847946166992,160.08509626215837L139.22618145942687,159.52425902526235L139.80388345718384,160.0488816428538L140.3815854549408,156.82810540530434L140.95928745269774,157.9263468787993L141.5369894504547,160.30463903785497L142.11469144821166,159.27822429850474L142.69239344596863,159.37183022559552L143.27009544372558,163.15566655103623L143.84779744148256,160.9480251126338L144.4254994392395,157.16797531483311L145.00320143699645,162.67923992756624L145.58090343475342,162.43718034322512L146.15860543251037,161.47715191384302L146.73630743026735,161.6448584177006L147.3140094280243,165.2257652800783L147.89171142578127,163.20841921675455L148.4694134235382,162.12521827057134L149.04711542129516,164.922867637853L149.62481741905214,164.324846916398L150.20251941680908,159.19503247864068L150.78022141456606,163.2916454877822L151.357923412323,157.66570319329134L151.93562541007995,162.08763910971817L152.51332740783693,160.87982309090535L153.09102940559387,163.4044780839068L153.66873140335085,160.7766065618295L154.2464334011078,163.64376770046795L154.82413539886477,166.30743486729156L155.40183739662172,162.91203875419933L155.97953939437866,162.6953666639273L156.55724139213564,162.53915980695487L157.13494338989258,164.88310649023532L157.71264538764956,164.6755572985846L158.2903473854065,165.89918868544822L158.86804938316345,166.2115834023242L159.44575138092043,163.2344034950379L160.02345337867737,159.84575321889187L160.60115537643435,164.45820135241206L161.1788573741913,165.74177409060013L161.75655937194827,169.72001790917108L162.33426136970522,169.16136369944675L162.91196336746214,163.52763704027427L163.4896653652191,165.60369004856912L164.06736736297606,165.57722901625976L164.64506936073303,167.76481194416183L165.22277135848998,164.05661046231123L165.80047335624693,163.0725343128479L166.3781753540039,166.0280477049963L166.95587735176085,168.07744055906176L167.53357934951782,168.93981871705296L168.11128134727477,168.18258070519798L168.68898334503172,165.20654722438525L169.2666853427887,162.4073432965483L169.84438734054564,167.42705174507716L170.4220893383026,163.77070129130533L170.99979133605956,168.370542190919L171.57749333381653,170.36033356794368L172.15519533157348,168.2852291195121L172.73289732933043,170.0860512842999L173.3105993270874,170.80813474405855L173.88830132484435,169.4756625482781L174.46600332260132,167.0300631691167L175.04370532035827,170.07790042464896L175.62140731811522,166.46841291781652L176.1991093158722,170.3872481816384L176.77681131362914,168.4947536618594L177.3545133113861,167.21034823330967L177.93221530914306,166.1611835272226L178.50991730690004,169.8348064466212L179.08761930465698,170.96556739687827L179.66532130241393,169.46563603688728L180.2430233001709,164.560244824664L180.82072529792785,168.4871271935198L181.39842729568483,165.88036157217746L181.97612929344177,168.97540574518473L182.55383129119872,168.31846735626868L183.1315332889557,163.46500495513675L183.70923528671264,165.9777398295384L184.28693728446962,167.32450851136014L184.86463928222656,167.75892483147075L185.44234127998354,166.87964394431341L186.02004327774048,167.68927687684646L186.59774527549743,167.48725207513647L187.1754472732544,167.14646586363358L187.75314927101135,169.19440105918986L188.33085126876833,165.6517818718177L188.90855326652527,167.14003461399147L189.48625526428222,172.3409235718654L190.0639572620392,168.71957825947905L190.64165925979614,168.3151452079504L191.21936125755312,169.69609663942717L191.79706325531006,168.30280995144088L192.37476525306704,170.3555184564282L192.952467250824,170.6334200950937L193.53016924858093,166.75493472202075L194.1078712463379,168.45796017519075L194.68557324409485,167.07758875146763L195.26327524185183,169.5496613064205L195.84097723960878,171.03029001515637L196.41867923736572,168.5954966160924L196.9963812351227,171.23797183343063L197.57408323287964,169.75314295215307L198.15178523063662,171.6706981245101L198.72948722839354,172.6604001177004L199.30718922615048,169.30060190381096L199.88489122390746,170.02740769493474L200.4625932216644,169.14795353295375L201.04029521942138,171.3560038725673L201.61799721717833,170.9428729135751L202.1956992149353,170.43089240886098L202.77340121269225,166.56817959593505L203.3511032104492,169.38797878554377L203.92880520820617,169.88941054073726L204.50650720596312,173.88498712157883L205.0842092037201,174.57689593323857L205.66191120147704,173.3610240934107L206.239613199234,170.0778223367627L206.81731519699096,173.07791287322L207.3950171947479,172.33715658116222L207.97271919250488,170.67344059561546L208.55042119026183,168.29543091341912L209.1281231880188,167.81613339106335" fill="none"></path></g></g></g></g><g opacity="0.2"><g><g><g><path style="fill: none;" stroke="rgb(51, 187, 238)" stroke-width="2px" d="M35.817523860931395,-1.153035446266756L36.395225858688356,7.415663409182614L36.97292785644532,-0.22939042971138585L37.55062985420227,6.547576120261952L38.12833185195923,-8.774641771655979L38.70603384971619,4.646422085096945L39.283735847473146,9.24552218319427L39.86143784523011,-21.42089674723826L40.43913984298707,13.660359052515155L41.016841840744014,10.669239677386535L41.594543838500975,18.68315519035456L42.17224583625793,16.00345196336199L42.74994783401489,21.01111042882585L43.32764983177185,24.069431894955002L43.905351829528804,25.745655644437228L44.483053827285765,30.933695884222267L45.060755825042726,28.631375888130535L45.63845782279968,26.080554592027674L46.21615982055664,38.91220194677337L46.7938618183136,35.84068353549632L47.371563816070555,41.436858711252775L47.949265813827516,43.13688283373572L48.52696781158448,48.39812377595215L49.10466980934143,53.87369157599857L49.682371807098384,64.55647752943399L50.260073804855345,41.25922924099988L50.8377758026123,46.185747665373846L51.41547780036926,19.34603703941513L51.99317979812622,65.58798287240883L52.570881795883174,50.45702364877422L53.148583793640135,62.644596565592614L53.726285791397096,58.70777845541276L54.30398778915405,66.05088160214912L54.88168978691101,64.90912530966988L55.45939178466797,42.585222297793386L56.037093782424925,60.93416308797963L56.614795780181886,67.04098770476357L57.19249777793885,64.05036233292927L57.7701997756958,64.57899878676194L58.34790177345276,67.7766468248604L58.925603771209715,67.73794695964392L59.50330576896667,73.55914945744453L60.08100776672363,65.24615905721072L60.65870976448059,61.20850252458049L61.236411762237545,71.60214658556065L61.814113759994505,73.75612444956198L62.391815757751466,61.75460552346187L62.96951775550842,72.09981079713778L63.54721975326538,80.47972100077537L64.12492175102234,69.56897016999216L64.7026237487793,75.12897724741542L65.28032574653626,82.05965821530476L65.85802774429321,59.50589370628982L66.43572974205017,72.80664129641686L67.01343173980713,77.06255907025671L67.59113373756409,72.96313448286334L68.16883573532104,83.17730538272436L68.746537733078,75.93596691461521L69.32423973083496,85.493951474351L69.90194172859192,39.560951773021806L70.47964372634887,74.53755826776877L71.05734572410583,77.75172895176433L71.63504772186279,85.88142648683552L72.21274971961975,85.63520113057317L72.79045171737671,80.12711732797648L73.36815371513367,81.2265745883807L73.94585571289063,89.33532109088084L74.52355771064758,85.89431467992449L75.10125970840454,77.72772568455346L75.6789617061615,88.77264251717799L76.25666370391846,86.06167593884572L76.83436570167542,87.97604456213342L77.41206769943238,76.55849045882839L77.98976969718933,82.39657728350942L78.56747169494629,92.01972617065672L79.14517369270325,82.16959159126283L79.72287569046021,85.12795678368144L80.30057768821717,91.61726345108244L80.87827968597414,66.78901073871751L81.45598168373107,97.00360190609467L82.03368368148803,88.0742894672887L82.61138567924499,92.89808167090905L83.18908767700195,93.24753607270672L83.76678967475891,89.64267053332628L84.34449167251586,88.88296403858156L84.92219367027282,77.14993590293723L85.49989566802978,93.31890190575928L86.07759766578674,85.97276416735788L86.6552996635437,93.4725016443391L87.23300166130066,88.96361889786456L87.81070365905761,77.21225971140647L88.38840565681457,96.63362872460846L88.96610765457153,89.70259489722316L89.54380965232849,86.2234620177312L90.12151165008545,98.60945665060038L90.69921364784241,100.33385454276493L91.27691564559936,76.81089967775698L91.85461764335632,53.52617790142851L92.43231964111328,97.56104933777033L93.01002163887024,86.34121123152418L93.5877236366272,103.08367095159946L94.16542563438416,95.81507408742945L94.74312763214111,95.99154794283317L95.32082962989807,98.0579019725068L95.89853162765503,88.08640136948661L96.476233625412,79.82279365570868L97.05393562316895,88.55117025455534L97.63163762092591,97.74570071199228L98.20933961868286,90.69059266434941L98.78704161643982,92.85815561894418L99.36474361419677,107.36066325883392L99.94244561195373,103.4275501733614L100.52014760971069,104.23321661745143L101.09784960746765,112.17280227760106L101.6755516052246,85.41056195397452L102.25325360298156,97.36403905970329L102.83095560073852,105.19946941814077L103.40865759849548,91.74669231419082L103.98635959625244,103.58490786557292L104.5640615940094,88.01357116952595L105.14176359176635,102.01907620939345L105.71946558952331,108.90352376182814L106.29716758728027,110.34830696792761L106.87486958503723,93.90596307063115L107.45257158279419,111.07929069970332L108.03027358055115,92.40444005758556L108.6079755783081,101.37866268873644L109.18567757606506,66.68010065529764L109.76337957382202,108.49938495964817L110.34108157157898,100.46149264393145L110.91878356933594,103.4550379280946L111.4964855670929,100.03189502911988L112.07418756484985,101.38021527051856L112.65188956260681,103.83699068946777L113.22959156036377,112.6212337680081L113.80729355812073,93.18947304265087L114.3849955558777,107.95275267152284L114.96269755363465,94.37613070598766L115.5403995513916,88.87588920568811L116.11810154914856,110.74098665797715L116.69580354690552,109.07841857098752L117.27350554466248,102.8947235130145L117.85120754241943,105.56997188887088L118.42890954017639,103.89219555760656L119.00661153793334,108.39864357355916L119.5843135356903,99.1739348077325L120.16201553344726,97.4466963966257L120.73971753120422,105.85554990041722L121.31741952896118,103.12439975891758L121.89512152671814,107.91309126417995L122.47282352447509,98.9184557111893L123.05052552223205,66.0632052200446L123.62822751998901,97.4794417578483L124.20592951774597,98.10140954835539L124.78363151550293,105.68034633919888L125.3613335132599,106.38296898898896L125.93903551101684,104.32915911439572L126.5167375087738,113.56638557084062L127.09443950653076,99.07828341987235L127.67214150428772,124.81923368293133L128.24984350204468,104.90520224150708L128.82754549980163,93.12993682419952L129.4052474975586,68.85916682945984L129.98294949531555,111.13929445698683L130.56065149307253,117.4119012864477L131.13835349082947,111.920781204118L131.71605548858642,101.81438241580247L132.2937574863434,91.46712173556276L132.87145948410034,102.7266741780762L133.44916148185732,108.86721451969659L134.02686347961426,122.74047664197562L134.6045654773712,113.89256888888148L135.18226747512819,116.66390090548056L135.75996947288513,112.10748798490378L136.33767147064208,100.17579995304892L136.91537346839905,96.30830109084522L137.493075466156,100.17578231007414L138.07077746391295,90.83477105438782L138.64847946166992,116.77790098712927L139.22618145942687,103.30105004406926L139.80388345718384,110.65982897391244L140.3815854549408,109.17262323491437L140.95928745269774,117.00001721833198L141.5369894504547,108.33997186087282L142.11469144821166,103.09098396465268L142.69239344596863,115.22748046943471L143.27009544372558,116.00932889754922L143.84779744148256,110.13386543076146L144.4254994392395,103.9077919473268L145.00320143699645,115.24126845423831L145.58090343475342,108.4248522126196L146.15860543251037,98.28174721523959L146.73630743026735,113.25773054826024L147.3140094280243,119.27135615068076L147.89171142578127,119.04286198408906L148.4694134235382,102.96492490973046L149.04711542129516,85.04098573942123L149.62481741905214,108.27555735989017L150.20251941680908,120.49467591564502L150.78022141456606,117.02831654990582L151.357923412323,110.74681766114743L151.93562541007995,105.32044729632157L152.51332740783693,104.82851705155333L153.09102940559387,111.43497307160423L153.66873140335085,95.85957849135404L154.2464334011078,113.92057711137123L154.82413539886477,102.14134202473439L155.40183739662172,124.25053885482279L155.97953939437866,73.73987526977425L156.55724139213564,107.66111429813385L157.13494338989258,102.90660605654006L157.71264538764956,117.07288270424222L158.2903473854065,112.9239342865946L158.86804938316345,79.48411029002436L159.44575138092043,80.38454597323474L160.02345337867737,105.84046515696606L160.60115537643435,121.37501625056197L161.1788573741913,89.95496883020218L161.75655937194827,109.35658653311926L162.33426136970522,111.62277371682744L162.91196336746214,118.36543350230862L163.4896653652191,106.38151344356824L164.06736736297606,116.6908505494825L164.64506936073303,118.19803695743781L165.22277135848998,111.5598941546521L165.80047335624693,119.75066284698194L166.3781753540039,117.59038644097822L166.95587735176085,122.09261778595443L167.53357934951782,116.36505537688714L168.11128134727477,107.36356552818799L168.68898334503172,118.61043267182262L169.2666853427887,109.12211139807148L169.84438734054564,123.36238268207093L170.4220893383026,115.99586730777939L170.99979133605956,116.9558744953907L171.57749333381653,118.75684289817279L172.15519533157348,105.92388114180473L172.73289732933043,99.5143648279217L173.3105993270874,122.03321388981402L173.88830132484435,118.32129077936735L174.46600332260132,106.22431453812989L175.04370532035827,124.85768654650067L175.62140731811522,117.08166008420358L176.1991093158722,111.22243697571612L176.77681131362914,124.18399837537716L177.3545133113861,123.89491823333366L177.93221530914306,118.40063123702798L178.50991730690004,121.80854824875321L179.08761930465698,85.80003062261106L179.66532130241393,109.21731289007435L180.2430233001709,125.2974818007447L180.82072529792785,120.21449665438647L181.39842729568483,130.18282152194325L181.97612929344177,128.8772237440147L182.55383129119872,107.93516262565059L183.1315332889557,118.854532049622L183.70923528671264,118.19112091131753L184.28693728446962,112.07450444352142L184.86463928222656,124.3177409458233L185.44234127998354,114.04464251014143L186.02004327774048,67.71125313877654L186.59774527549743,126.84493829867343L187.1754472732544,123.46593812264L187.75314927101135,115.97598367518351L188.33085126876833,92.91566289529393L188.90855326652527,118.30137186082193L189.48625526428222,119.6676438290762L190.0639572620392,113.4694286028455L190.64165925979614,119.85536508091282L191.21936125755312,111.69116670862672L191.79706325531006,117.82512622064795L192.37476525306704,131.31735301624326L192.952467250824,84.928811705664L193.53016924858093,121.94244960597253L194.1078712463379,95.98666966030189L194.68557324409485,107.58336170820492L195.26327524185183,127.9771497417877L195.84097723960878,124.39086225486811L196.41867923736572,118.57949571551666L196.9963812351227,116.17971592664811L197.57408323287964,121.04068187816505L198.15178523063662,72.98067159981123L198.72948722839354,60.01499056553519L199.30718922615048,114.95045930066475L199.88489122390746,110.54068596511051L200.4625932216644,119.20872359015256L201.04029521942138,101.92950282635076L201.61799721717833,115.81414466737365L202.1956992149353,124.18959119838769L202.77340121269225,122.18858674736092L203.3511032104492,125.7568078280887L203.92880520820617,123.48967674522892L204.50650720596312,124.75643351414257L205.0842092037201,116.80971127068767L205.66191120147704,76.75499791211374L206.239613199234,113.6132453119006L206.81731519699096,121.66260556123513L207.3950171947479,130.25859809869496L207.97271919250488,118.00743107922197L208.55042119026183,134.1737550465682L209.1281231880188,99.45801316642113L209.70582518577575,135.00900434864855L210.2835271835327,128.50956179222686L210.86122918128967,127.14921786350425L211.43893117904662,119.34535960846539L212.0166331768036,130.35606671295918L212.59433517456054,105.41384920489514L213.1720371723175,123.06420758651977L213.74973917007446,127.91797520431966L214.3274411678314,119.46597580566285L214.90514316558838,121.0403466616439L215.48284516334533,128.2729606787161L216.0605471611023,112.81130153549265L216.63824915885925,117.32715325701186L217.2159511566162,125.4088883650983L217.79365315437317,117.67477278943072L218.37135515213012,125.8345515965302L218.9490571498871,119.03377585206879L219.52675914764404,123.29349568697732L220.10446114540102,86.99150481806734L220.68216314315796,119.19311837894493L221.2598651409149,114.80424314703733L221.8375671386719,125.96813538020322L222.41526913642883,127.65344526170574L222.9929711341858,122.02079323555718L223.57067313194275,120.11572245998731L224.1483751296997,126.79442646183058L224.72607712745668,129.4997825741775L225.30377912521362,112.12524563903663L225.8814811229706,123.31552294101095L226.45918312072754,121.91277412236454L227.03688511848452,128.64606548822871L227.61458711624147,110.44521100699835L228.1922891139984,123.75196603004365L228.7699911117554,130.3597011657673L229.34769310951233,124.13495090544238L229.9253951072693,121.71962765577798L230.50309710502626,125.15213015288234L231.0807991027832,107.01246150824682L231.65850110054018,129.4307544352855L232.23620309829712,123.00568583911918L232.8139050960541,129.19389749864018L233.39160709381105,128.34321500435644L233.96930909156802,124.21525290522946L234.54701108932497,122.83279350759919L235.1247130870819,115.54780631984309L235.70241508483886,126.62180759641993L236.2801170825958,124.41250136345624L236.85781908035278,127.43356968830223L237.43552107810973,124.47405770252183L238.01322307586668,111.59708554552347L238.59092507362365,127.62511064418227L239.1686270713806,122.84185317515731L239.74632906913757,112.22169096076267L240.32403106689452,132.544492485251L240.90173306465147,133.5098543157131L241.47943506240844,110.29434592951199L242.0571370601654,89.72777142225803L242.63483905792236,132.16074014044858L243.2125410556793,115.70651369962656L243.79024305343628,135.84441243750206L244.36794505119323,125.23102953617304L244.94564704895018,131.589143042986L245.52334904670715,131.10833669382708L246.1010510444641,116.15933829075796L246.67875304222108,113.49452573449379L247.25645503997802,119.56561450582706L247.83415703773497,123.57312801601717L248.41185903549194,123.24450114596694L248.9895610332489,124.28667166720636L249.56726303100587,118.50481300320234L250.1449650287628,120.58800725231943L250.7226670265198,127.0577831466205L251.30036902427673,131.37410164467676L251.87807102203368,126.04499699990491L252.45577301979066,126.22223832471231L253.0334750175476,121.34158281332229L253.61117701530458,125.55941822606351L254.18887901306152,126.05861737644796L254.76658101081847,133.15079331413864L255.34428300857545,112.71254498406826L255.9219850063324,130.77070308514317L256.49968700408937,131.33799529675537L257.0773890018463,94.43349683853904L257.65509099960326,131.96911096969453L258.2327929973602,137.22094379560065L258.8104949951172,122.61249450280056L259.38819699287416,130.04763222756375L259.9658989906311,136.4645894660673L260.54360098838805,123.1265402164764L261.12130298614505,132.68424248861544L261.699004983902,126.12066771880787L262.27670698165895,123.45178845685305L262.8544089794159,128.08712722518274L263.43211097717284,132.4585270905542L264.00981297492984,130.74999023273188L264.5875149726868,133.8026350717202L265.16521697044374,126.63698055474505L265.7429189682007,139.50020442363314L266.32062096595763,137.7545202823764L266.89832296371463,142.380755275711L267.4760249614716,114.84126692964814L268.0537269592285,120.10954741880845L268.6314289569855,99.98926078052372L269.2091309547424,136.1102744247131L269.7868329524994,117.4447966129561L270.36453495025637,131.2948141159405L270.9422369480133,117.58019762303314L271.51993894577026,129.54665113672485L272.0976409435272,129.89775515666602L272.67534294128416,95.9611314542837L273.2530449390411,125.77478601940649L273.8307469367981,135.71841954373534" fill="none"></path></g><g><path style="fill: none;" stroke="rgb(255, 112, 67)" stroke-width="2px" d="M31.77360987663269,-4.129687582062131L32.35131187438965,2.097964947616825L32.929013872146605,4.961719687688274L33.506715869903566,4.211628614207749L34.08441786766052,5.33017557334197L34.66211986541748,3.6731650234133193L35.239821863174434,7.694651769642392L35.817523860931395,13.67750802401752L36.395225858688356,13.840899613609501L36.97292785644532,21.877168775644904L37.55062985420227,21.35089648043497L38.12833185195923,21.38582957053238L38.70603384971619,31.333309263366893L39.283735847473146,37.642789910152814L39.86143784523011,43.281643441942414L40.43913984298707,51.660045171234906L41.016841840744014,50.62022116564343L41.594543838500975,60.62479352491998L42.17224583625793,65.97913644513845L42.74994783401489,70.74313660717287L43.32764983177185,65.30621574341858L43.905351829528804,79.61248939613235L44.483053827285765,80.16739623943728L45.060755825042726,86.63942161302495L45.63845782279968,90.7204004702684L46.21615982055664,80.02276795354156L46.7938618183136,90.58230890653485L47.371563816070555,96.15930616868732L47.949265813827516,95.68095219302515L48.52696781158448,93.22316230302512L49.10466980934143,97.6210707380286L49.682371807098384,108.17176373916135L50.260073804855345,103.48581609762739L50.8377758026123,106.00399789035644L51.41547780036926,106.80366572301558L51.99317979812622,107.05454000313688L52.570881795883174,101.5125287600062L53.148583793640135,104.85841307234631L53.726285791397096,121.49392990069153L54.30398778915405,105.58445677117898L54.88168978691101,112.19069225404489L55.45939178466797,112.14264161218618L56.037093782424925,107.37030514456033L56.614795780181886,117.6992788814233L57.19249777793885,121.49878171876064L57.7701997756958,118.049597788986L58.34790177345276,126.31043555572084L58.925603771209715,116.56105118390337L59.50330576896667,131.8896646541851L60.08100776672363,129.2451944478615L60.65870976448059,114.85361701200583L61.236411762237545,130.32664705248573L61.814113759994505,122.67735889964052L62.391815757751466,130.75187803103512L62.96951775550842,114.27317196268271L63.54721975326538,124.34192064278216L64.12492175102234,124.72621109831587L64.7026237487793,116.40813069985323L65.28032574653626,130.30805135705003L65.85802774429321,130.43485141691372L66.43572974205017,124.47095253895763L67.01343173980713,126.84043934010027L67.59113373756409,129.05026604082047L68.16883573532104,118.87634758795807L68.746537733078,126.82703950074222L69.32423973083496,130.50112725173742L69.90194172859192,123.57962063074233L70.47964372634887,131.32375741609445L71.05734572410583,133.9929013226712L71.63504772186279,130.81099963957877L72.21274971961975,123.44006470010066L72.79045171737671,140.01431629846445L73.36815371513367,138.1461855013751L73.94585571289063,135.633239261417L74.52355771064758,136.07456063298096L75.10125970840454,141.66162762299865L75.6789617061615,133.99725913744598L76.25666370391846,134.13107227979134L76.83436570167542,137.40489827231812L77.41206769943238,136.1809477710049L77.98976969718933,125.76172139656954L78.56747169494629,137.7369655224537L79.14517369270325,126.9687478743091L79.72287569046021,141.2224322298977L80.30057768821717,133.93796550989805L80.87827968597414,142.70215293683827L81.45598168373107,134.70581864825513L82.03368368148803,141.5906675783664L82.61138567924499,142.80036696678764L83.18908767700195,135.81979607691702L83.76678967475891,137.5333258966068L84.34449167251586,141.6841444695829L84.92219367027282,141.2621553876524L85.49989566802978,139.45982847581092L86.07759766578674,148.74990005251556L86.6552996635437,145.0262575960602L87.23300166130066,135.11091458181784L87.81070365905761,134.433975692588L88.38840565681457,147.11547251032664L88.96610765457153,143.52256449711464L89.54380965232849,153.46105509429026L90.12151165008545,148.30237717531057L90.69921364784241,138.49378298007545L91.27691564559936,146.48556097041734L91.85461764335632,145.19565661857044L92.43231964111328,147.49612410230856L93.01002163887024,138.32404433030038L93.5877236366272,140.96518001438739L94.16542563438416,146.54589553347827L94.74312763214111,153.26323323938257L95.32082962989807,150.86566764385097L95.89853162765503,148.06400735357641L96.476233625412,146.34735472734764L97.05393562316895,136.1184695865062L97.63163762092591,150.86802298098632L98.20933961868286,141.36786768189035L98.78704161643982,153.78390389009454L99.36474361419677,155.40895419117902L99.94244561195373,149.69826728750476L100.52014760971069,154.55332284246484L101.09784960746765,143.25872263051778L101.6755516052246,148.99950844919516L102.25325360298156,151.44411462627838L102.83095560073852,150.81339150952846L103.40865759849548,153.60947661976724L103.98635959625244,156.31107918922618L104.5640615940094,154.38725393144745L105.14176359176635,152.3865891076855L105.71946558952331,149.70272213864092L106.29716758728027,153.17990105867418L106.87486958503723,147.58097798959312L107.45257158279419,153.63040118787612L108.03027358055115,152.20437246398546L108.6079755783081,149.12940044039198L109.18567757606506,150.6428412829127L109.76337957382202,151.49414569205803L110.34108157157898,148.08524067374424L110.91878356933594,150.493961040091L111.4964855670929,156.93749742012574L112.07418756484985,157.43848292170833L112.65188956260681,159.14613322004712L113.22959156036377,151.24653977301784L113.80729355812073,152.33276039158085L114.3849955558777,155.50236492124003L114.96269755363465,153.75644701056723L115.5403995513916,151.63276654503548L116.11810154914856,155.43568329799598L116.69580354690552,155.4750271317926L117.27350554466248,157.99985150453253L117.85120754241943,160.86200955538487L118.42890954017639,157.0324827856873L119.00661153793334,150.8152616648569L119.5843135356903,157.87256626286194L120.16201553344726,151.95166772522904L120.73971753120422,149.31979019216658L121.31741952896118,157.90750376370306L121.89512152671814,159.21127990448386L122.47282352447509,154.4775594979442L123.05052552223205,164.46637668072734L123.62822751998901,159.5030947076208L124.20592951774597,155.8603541120956L124.78363151550293,152.89707535119612L125.3613335132599,155.74645988829568L125.93903551101684,166.98207522475371L126.5167375087738,154.2426476992702L127.09443950653076,158.82159069866236L127.67214150428772,156.36201004672048L128.24984350204468,155.17611985278734L128.82754549980163,157.80733577429496L129.4052474975586,162.45855763068533L129.98294949531555,159.94442931141586L130.56065149307253,162.6301090961208L131.13835349082947,157.0175700612404L131.71605548858642,169.12577605593597L132.2937574863434,168.40554130655514L132.87145948410034,158.87560907674606L133.44916148185732,168.2980294288879L134.02686347961426,160.08163872640958L134.6045654773712,165.6546883729513L135.18226747512819,153.45143967302607L135.75996947288513,161.72814729559053L136.33767147064208,159.95508566819305L136.91537346839905,151.61381357936017L137.493075466156,162.76989438543484L138.07077746391295,165.86134494748842L138.64847946166992,157.8892300525574L139.22618145942687,159.15036753399832L139.80388345718384,160.3986300545814L140.3815854549408,154.68092124693806L140.95928745269774,158.6585078611293L141.5369894504547,161.89016714389206L142.11469144821166,158.59394780560459L142.69239344596863,159.43423417698938L143.27009544372558,165.67822410133004L143.84779744148256,159.47626415369876L144.4254994392395,154.64794211629936L145.00320143699645,166.353416336055L145.58090343475342,162.27580728699772L146.15860543251037,160.83713296092156L146.73630743026735,161.75666275360564L147.3140094280243,167.61303652166342L147.89171142578127,161.8635218412054L148.4694134235382,161.40308430644922L149.04711542129516,166.78796721604073L149.62481741905214,163.92616643542803L150.20251941680908,155.77515618680246L150.78022141456606,166.02272082720987L151.357923412323,153.9150749969641L151.93562541007995,165.03559638733606L152.51332740783693,160.0746124116968L153.09102940559387,165.08758141257448L153.66873140335085,159.02469221377794L154.2464334011078,165.55520845956028L154.82413539886477,168.08321297850733L155.40183739662172,160.64844134547116L155.97953939437866,162.5509186037459L156.55724139213564,162.4350219023066L157.13494338989258,166.4457376124223L157.71264538764956,164.5371911708175L158.2903473854065,166.7149429433573L158.86804938316345,166.41984654690816L159.44575138092043,161.2496168901804L160.02345337867737,157.5866530347945L160.60115537643435,167.53316677475888L161.1788573741913,166.59748924939217L161.75655937194827,172.37218045488504L162.33426136970522,168.78892755963054L162.91196336746214,159.77181926749262L163.4896653652191,166.98772538743236L164.06736736297606,165.55958832805354L164.64506936073303,169.22320056276322L165.22277135848998,161.58447614107752L165.80047335624693,162.41648354653898L166.3781753540039,167.99838996642862L166.95587735176085,169.44370246177203L167.53357934951782,169.51473748904712L168.11128134727477,167.6777553639613L168.68898334503172,163.22252490384346L169.2666853427887,160.54120734465698L169.84438734054564,170.7735240440964L170.4220893383026,161.33313432212412L170.99979133605956,171.4371027906614L171.57749333381653,171.68686115262682L172.15519533157348,166.90182615389108L172.73289732933043,171.2865993941584L173.3105993270874,171.28952371723096L173.88830132484435,168.58734775109116L174.46600332260132,165.3996635830091L175.04370532035827,172.1097919283371L175.62140731811522,164.0620879132616L176.1991093158722,172.99980502418632L176.77681131362914,167.23309064867337L177.3545133113861,166.35407794760988L177.93221530914306,165.4617403898312L178.50991730690004,172.28388839288695L179.08761930465698,171.71940803038297L179.66532130241393,168.4656817968933L180.2430233001709,161.28998401651518L180.82072529792785,171.10504877275696L181.39842729568483,164.1425178246159L181.97612929344177,171.03876852718957L182.55383129119872,167.88050843032468L183.1315332889557,160.22936335438212L183.70923528671264,167.65289641247278L184.28693728446962,168.2223542992413L184.86463928222656,168.04853571154447L185.44234127998354,166.29345668620851L186.02004327774048,168.22903216520183L186.59774527549743,167.35256887399646L187.1754472732544,166.91927505596496L187.75314927101135,170.55969118956074L188.33085126876833,163.29003574690293L188.90855326652527,168.13220310877398L189.48625526428222,175.80818287711472L190.0639572620392,166.30534805122147L190.64165925979614,168.04552317359793L191.21936125755312,170.61673092707835L191.79706325531006,167.37395215945003L192.37476525306704,171.72399079308641L192.952467250824,170.81868785420403L193.53016924858093,164.16927780663877L194.1078712463379,169.5933104773041L194.68557324409485,166.1573411356522L195.26327524185183,171.19770967638908L195.84097723960878,172.01737582098028L196.41867923736572,166.9723010167164L196.9963812351227,172.9996219783228L197.57408323287964,168.76325703130138L198.15178523063662,172.9490682394148L198.72948722839354,173.32020144649388L199.30718922615048,167.0607364278847L199.88489122390746,170.51194488901723L200.4625932216644,168.5616507582998L201.04029521942138,172.82803743230963L201.61799721717833,170.66745227424695L202.1956992149353,170.0895720723849L202.77340121269225,163.99303772065113L203.3511032104492,171.26784491194957L203.92880520820617,170.2236983775329L204.50650720596312,176.5487048421399L205.0842092037201,175.03816847434504L205.66191120147704,172.5504428668588L206.239613199234,167.88902116566408L206.81731519699096,175.0779732308582L207.3950171947479,171.8433190531237L207.97271919250488,169.56429660525097L208.55042119026183,166.71009112528824L209.1281231880188,167.49660170949278" fill="none"></path></g></g></g></g></g></g><g transform="translate(41, 177)" clip-path="url(#clip_1)"><clipPath id="clip_1"><rect width="288" height="22"></rect></clipPath><g><g><line x1="0" y1="0" x2="0" y2="5" style="visibility: inherit;" fill="rgb(0, 0, 0)" stroke="rgb(204, 204, 204)" stroke-width="1px"></line><line x1="28.8850998878479" y1="0" x2="28.8850998878479" y2="5" style="visibility: inherit;" fill="rgb(0, 0, 0)" stroke="rgb(204, 204, 204)" stroke-width="1px"></line><line x1="57.7701997756958" y1="0" x2="57.7701997756958" y2="5" style="visibility: inherit;" fill="rgb(0, 0, 0)" stroke="rgb(204, 204, 204)" stroke-width="1px"></line><line x1="86.6552996635437" y1="0" x2="86.6552996635437" y2="5" style="visibility: inherit;" fill="rgb(0, 0, 0)" stroke="rgb(204, 204, 204)" stroke-width="1px"></line><line x1="115.5403995513916" y1="0" x2="115.5403995513916" y2="5" style="visibility: inherit;" fill="rgb(0, 0, 0)" stroke="rgb(204, 204, 204)" stroke-width="1px"></line><line x1="144.4254994392395" y1="0" x2="144.4254994392395" y2="5" style="visibility: inherit;" fill="rgb(0, 0, 0)" stroke="rgb(204, 204, 204)" stroke-width="1px"></line><line x1="173.3105993270874" y1="0" x2="173.3105993270874" y2="5" style="visibility: inherit;" fill="rgb(0, 0, 0)" stroke="rgb(204, 204, 204)" stroke-width="1px"></line><line x1="202.1956992149353" y1="0" x2="202.1956992149353" y2="5" style="visibility: inherit;" fill="rgb(0, 0, 0)" stroke="rgb(204, 204, 204)" stroke-width="1px"></line><line x1="231.0807991027832" y1="0" x2="231.0807991027832" y2="5" style="visibility: inherit;" fill="rgb(0, 0, 0)" stroke="rgb(204, 204, 204)" stroke-width="1px"></line><line x1="259.9658989906311" y1="0" x2="259.9658989906311" y2="5" style="visibility: inherit;" fill="rgb(0, 0, 0)" stroke="rgb(204, 204, 204)" stroke-width="1px"></line><line x1="288.850998878479" y1="0" x2="288.850998878479" y2="5" style="visibility: inherit;" fill="rgb(0, 0, 0)" stroke="rgb(204, 204, 204)" stroke-width="1px"></line></g><g transform="translate(0, 8)"><text style="text-anchor: middle; visibility: hidden; font-family: Roboto, sans-serif; font-size: 12px; font-weight: 200;" x="0" y="0" dx="0em" dy="0.95em" fill="rgb(50, 49, 63)" stroke="none" stroke-width="1px">-1k</text><text style="text-anchor: middle; visibility: inherit; font-family: Roboto, sans-serif; font-size: 12px; font-weight: 200;" x="28.8850998878479" y="0" dx="0em" dy="0.95em" fill="rgb(50, 49, 63)" stroke="none" stroke-width="1px">0</text><text style="text-anchor: middle; visibility: inherit; font-family: Roboto, sans-serif; font-size: 12px; font-weight: 200;" x="57.7701997756958" y="0" dx="0em" dy="0.95em" fill="rgb(50, 49, 63)" stroke="none" stroke-width="1px">1k</text><text style="text-anchor: middle; visibility: inherit; font-family: Roboto, sans-serif; font-size: 12px; font-weight: 200;" x="86.6552996635437" y="0" dx="0em" dy="0.95em" fill="rgb(50, 49, 63)" stroke="none" stroke-width="1px">2k</text><text style="text-anchor: middle; visibility: inherit; font-family: Roboto, sans-serif; font-size: 12px; font-weight: 200;" x="115.5403995513916" y="0" dx="0em" dy="0.95em" fill="rgb(50, 49, 63)" stroke="none" stroke-width="1px">3k</text><text style="text-anchor: middle; visibility: inherit; font-family: Roboto, sans-serif; font-size: 12px; font-weight: 200;" x="144.4254994392395" y="0" dx="0em" dy="0.95em" fill="rgb(50, 49, 63)" stroke="none" stroke-width="1px">4k</text><text style="text-anchor: middle; visibility: inherit; font-family: Roboto, sans-serif; font-size: 12px; font-weight: 200;" x="173.3105993270874" y="0" dx="0em" dy="0.95em" fill="rgb(50, 49, 63)" stroke="none" stroke-width="1px">5k</text><text style="text-anchor: middle; visibility: inherit; font-family: Roboto, sans-serif; font-size: 12px; font-weight: 200;" x="202.1956992149353" y="0" dx="0em" dy="0.95em" fill="rgb(50, 49, 63)" stroke="none" stroke-width="1px">6k</text><text style="text-anchor: middle; visibility: inherit; font-family: Roboto, sans-serif; font-size: 12px; font-weight: 200;" x="231.0807991027832" y="0" dx="0em" dy="0.95em" fill="rgb(50, 49, 63)" stroke="none" stroke-width="1px">7k</text><text style="text-anchor: middle; visibility: inherit; font-family: Roboto, sans-serif; font-size: 12px; font-weight: 200;" x="259.9658989906311" y="0" dx="0em" dy="0.95em" fill="rgb(50, 49, 63)" stroke="none" stroke-width="1px">8k</text><text style="text-anchor: middle; visibility: hidden; font-family: Roboto, sans-serif; font-size: 12px; font-weight: 200;" x="288.850998878479" y="0" dx="0em" dy="0.95em" fill="rgb(50, 49, 63)" stroke="none" stroke-width="1px">9k</text></g><line x1="0" y1="0" x2="288.850998878479" y2="0" fill="rgb(0, 0, 0)" stroke="rgb(204, 204, 204)" stroke-width="1px"></line></g></g></g></g></svg>