<svg viewBox="0 0 330 200" xmlns="http://www.w3.org/2000/svg"><g><g><g><g><g><line x1="41.149001121520996" y1="177.5999994277954" x2="36.149001121520996" y2="177.5999994277954" style="visibility: inherit;" fill="rgb(0, 0, 0)" stroke="rgb(204, 204, 204)" stroke-width="1px"></line><line x1="41.149001121520996" y1="159.83999948501588" x2="36.149001121520996" y2="159.83999948501588" style="visibility: inherit;" fill="rgb(0, 0, 0)" stroke="rgb(204, 204, 204)" stroke-width="1px"></line><line x1="41.149001121520996" y1="142.07999954223632" x2="36.149001121520996" y2="142.07999954223632" style="visibility: inherit;" fill="rgb(0, 0, 0)" stroke="rgb(204, 204, 204)" stroke-width="1px"></line><line x1="41.149001121520996" y1="124.31999959945678" x2="36.149001121520996" y2="124.31999959945678" style="visibility: inherit;" fill="rgb(0, 0, 0)" stroke="rgb(204, 204, 204)" stroke-width="1px"></line><line x1="41.149001121520996" y1="106.55999965667725" x2="36.149001121520996" y2="106.55999965667725" style="visibility: inherit;" fill="rgb(0, 0, 0)" stroke="rgb(204, 204, 204)" stroke-width="1px"></line><line x1="41.149001121520996" y1="88.7999997138977" x2="36.149001121520996" y2="88.7999997138977" style="visibility: inherit;" fill="rgb(0, 0, 0)" stroke="rgb(204, 204, 204)" stroke-width="1px"></line><line x1="41.149001121520996" y1="71.03999977111816" x2="36.149001121520996" y2="71.03999977111816" style="visibility: inherit;" fill="rgb(0, 0, 0)" stroke="rgb(204, 204, 204)" stroke-width="1px"></line><line x1="41.149001121520996" y1="53.27999982833863" x2="36.149001121520996" y2="53.27999982833863" style="visibility: inherit;" fill="rgb(0, 0, 0)" stroke="rgb(204, 204, 204)" stroke-width="1px"></line><line x1="41.149001121520996" y1="35.51999988555907" x2="36.149001121520996" y2="35.51999988555907" style="visibility: inherit;" fill="rgb(0, 0, 0)" stroke="rgb(204, 204, 204)" stroke-width="1px"></line><line x1="41.149001121520996" y1="17.759999942779537" x2="36.149001121520996" y2="17.759999942779537" style="visibility: inherit;" fill="rgb(0, 0, 0)" stroke="rgb(204, 204, 204)" stroke-width="1px"></line><line x1="41.149001121520996" y1="0" x2="36.149001121520996" y2="0" style="visibility: inherit;" fill="rgb(0, 0, 0)" stroke="rgb(204, 204, 204)" stroke-width="1px"></line></g><g transform="translate(31.149001121520996, 0)"><text style="text-anchor: end; visibility: hidden; font-family: Roboto, sans-serif; font-size: 12px; font-weight: 200;" x="0" y="177.5999994277954" dx="0em" dy="0.3em" fill="rgb(50, 49, 63)" stroke="none" stroke-width="1px">1.5</text><text style="text-anchor: end; visibility: inherit; font-family: Roboto, sans-serif; font-size: 12px; font-weight: 200;" x="0" y="159.83999948501588" dx="0em" dy="0.3em" fill="rgb(50, 49, 63)" stroke="none" stroke-width="1px">2</text><text style="text-anchor: end; visibility: hidden; font-family: Roboto, sans-serif; font-size: 12px; font-weight: 200;" x="0" y="142.07999954223632" dx="0em" dy="0.3em" fill="rgb(50, 49, 63)" stroke="none" stroke-width="1px">2.5</text><text style="text-anchor: end; visibility: inherit; font-family: Roboto, sans-serif; font-size: 12px; font-weight: 200;" x="0" y="124.31999959945678" dx="0em" dy="0.3em" fill="rgb(50, 49, 63)" stroke="none" stroke-width="1px">3</text><text style="text-anchor: end; visibility: hidden; font-family: Roboto, sans-serif; font-size: 12px; font-weight: 200;" x="0" y="106.55999965667725" dx="0em" dy="0.3em" fill="rgb(50, 49, 63)" stroke="none" stroke-width="1px">3.5</text><text style="text-anchor: end; visibility: inherit; font-family: Roboto, sans-serif; font-size: 12px; font-weight: 200;" x="0" y="88.7999997138977" dx="0em" dy="0.3em" fill="rgb(50, 49, 63)" stroke="none" stroke-width="1px">4</text><text style="text-anchor: end; visibility: hidden; font-family: Roboto, sans-serif; font-size: 12px; font-weight: 200;" x="0" y="71.03999977111816" dx="0em" dy="0.3em" fill="rgb(50, 49, 63)" stroke="none" stroke-width="1px">4.5</text><text style="text-anchor: end; visibility: inherit; font-family: Roboto, sans-serif; font-size: 12px; font-weight: 200;" x="0" y="53.27999982833863" dx="0em" dy="0.3em" fill="rgb(50, 49, 63)" stroke="none" stroke-width="1px">5</text><text style="text-anchor: end; visibility: hidden; font-family: Roboto, sans-serif; font-size: 12px; font-weight: 200;" x="0" y="35.51999988555907" dx="0em" dy="0.3em" fill="rgb(50, 49, 63)" stroke="none" stroke-width="1px">5.5</text><text style="text-anchor: end; visibility: inherit; font-family: Roboto, sans-serif; font-size: 12px; font-weight: 200;" x="0" y="17.759999942779537" dx="0em" dy="0.3em" fill="rgb(50, 49, 63)" stroke="none" stroke-width="1px">6</text><text style="text-anchor: end; visibility: hidden; font-family: Roboto, sans-serif; font-size: 12px; font-weight: 200;" x="0" y="0" dx="0em" dy="0.3em" fill="rgb(50, 49, 63)" stroke="none" stroke-width="1px">6.5</text></g><line x1="41.149001121520996" y1="0" x2="41.149001121520996" y2="177.5999994277954" fill="rgb(0, 0, 0)" stroke="rgb(204, 204, 204)" stroke-width="1px"></line></g></g><g transform="translate(41, 0)" clip-path="url(#clip_0)"><clipPath id="clip_0"><rect width="288" height="177"></rect></clipPath><g><g><g><line x1="0" y1="0" x2="0" y2="177.5999994277954" fill="rgb(0, 0, 0)" stroke="rgb(60, 60, 60)" stroke-width="1px" opacity="0.25"></line><line x1="28.8850998878479" y1="0" x2="28.8850998878479" y2="177.5999994277954" fill="rgb(0, 0, 0)" stroke="rgb(60, 60, 60)" stroke-width="1px" opacity="0.25"></line><line x1="57.7701997756958" y1="0" x2="57.7701997756958" y2="177.5999994277954" fill="rgb(0, 0, 0)" stroke="rgb(60, 60, 60)" stroke-width="1px" opacity="0.25"></line><line x1="86.6552996635437" y1="0" x2="86.6552996635437" y2="177.5999994277954" fill="rgb(0, 0, 0)" stroke="rgb(60, 60, 60)" stroke-width="1px" opacity="0.25"></line><line x1="115.5403995513916" y1="0" x2="115.5403995513916" y2="177.5999994277954" fill="rgb(0, 0, 0)" stroke="rgb(60, 60, 60)" stroke-width="1px" opacity="0.25"></line><line x1="144.4254994392395" y1="0" x2="144.4254994392395" y2="177.5999994277954" fill="rgb(0, 0, 0)" stroke="rgb(60, 60, 60)" stroke-width="1px" opacity="0.25"></line><line x1="173.3105993270874" y1="0" x2="173.3105993270874" y2="177.5999994277954" fill="rgb(0, 0, 0)" stroke="rgb(60, 60, 60)" stroke-width="1px" opacity="0.25"></line><line x1="202.1956992149353" y1="0" x2="202.1956992149353" y2="177.5999994277954" fill="rgb(0, 0, 0)" stroke="rgb(60, 60, 60)" stroke-width="1px" opacity="0.25"></line><line x1="231.0807991027832" y1="0" x2="231.0807991027832" y2="177.5999994277954" fill="rgb(0, 0, 0)" stroke="rgb(60, 60, 60)" stroke-width="1px" opacity="0.25"></line><line x1="259.9658989906311" y1="0" x2="259.9658989906311" y2="177.5999994277954" fill="rgb(0, 0, 0)" stroke="rgb(60, 60, 60)" stroke-width="1px" opacity="0.25"></line><line x1="288.850998878479" y1="0" x2="288.850998878479" y2="177.5999994277954" fill="rgb(0, 0, 0)" stroke="rgb(60, 60, 60)" stroke-width="1px" opacity="0.25"></line></g><g><line x1="0" y1="177.5999994277954" x2="288.850998878479" y2="177.5999994277954" fill="rgb(0, 0, 0)" stroke="rgb(60, 60, 60)" stroke-width="1px" opacity="0.25"></line><line x1="0" y1="159.83999948501588" x2="288.850998878479" y2="159.83999948501588" fill="rgb(0, 0, 0)" stroke="rgb(60, 60, 60)" stroke-width="1px" opacity="0.25"></line><line x1="0" y1="142.07999954223632" x2="288.850998878479" y2="142.07999954223632" fill="rgb(0, 0, 0)" stroke="rgb(60, 60, 60)" stroke-width="1px" opacity="0.25"></line><line x1="0" y1="124.31999959945678" x2="288.850998878479" y2="124.31999959945678" fill="rgb(0, 0, 0)" stroke="rgb(60, 60, 60)" stroke-width="1px" opacity="0.25"></line><line x1="0" y1="106.55999965667725" x2="288.850998878479" y2="106.55999965667725" fill="rgb(0, 0, 0)" stroke="rgb(60, 60, 60)" stroke-width="1px" opacity="0.25"></line><line x1="0" y1="88.7999997138977" x2="288.850998878479" y2="88.7999997138977" fill="rgb(0, 0, 0)" stroke="rgb(60, 60, 60)" stroke-width="1px" opacity="0.25"></line><line x1="0" y1="71.03999977111816" x2="288.850998878479" y2="71.03999977111816" fill="rgb(0, 0, 0)" stroke="rgb(60, 60, 60)" stroke-width="1px" opacity="0.25"></line><line x1="0" y1="53.27999982833863" x2="288.850998878479" y2="53.27999982833863" fill="rgb(0, 0, 0)" stroke="rgb(60, 60, 60)" stroke-width="1px" opacity="0.25"></line><line x1="0" y1="35.51999988555907" x2="288.850998878479" y2="35.51999988555907" fill="rgb(0, 0, 0)" stroke="rgb(60, 60, 60)" stroke-width="1px" opacity="0.25"></line><line x1="0" y1="17.759999942779537" x2="288.850998878479" y2="17.759999942779537" fill="rgb(0, 0, 0)" stroke="rgb(60, 60, 60)" stroke-width="1px" opacity="0.25"></line><line x1="0" y1="0" x2="288.850998878479" y2="0" fill="rgb(0, 0, 0)" stroke="rgb(60, 60, 60)" stroke-width="1px" opacity="0.25"></line></g></g></g><g><g><line x1="0" y1="230.87999925613403" x2="288.850998878479" y2="230.87999925613403" fill="rgb(0, 0, 0)" stroke="rgb(153, 153, 153)" stroke-width="1.5px"></line></g></g><g><g><line x1="28.8850998878479" y1="0" x2="28.8850998878479" y2="177.5999994277954" fill="rgb(0, 0, 0)" stroke="rgb(153, 153, 153)" stroke-width="1.5px"></line></g></g><g><g><g><g><g><path style="fill: none;" stroke="rgb(51, 187, 238)" stroke-width="2px" d="M38.70603384971619,-8.920585248607745L39.283735847473146,3.5953921370405126L39.86143784523011,-4.7451678629634L40.43913984298707,7.4176810472385695L41.016841840744014,14.9936690121274L41.594543838500975,21.738506011030058L42.17224583625793,20.892076131967478L42.74994783401489,22.477522240966522L43.32764983177185,23.599046508063257L43.905351829528804,31.44731292943335L44.483053827285765,30.31459982775787L45.060755825042726,31.66854363401211L45.63845782279968,27.2193893610608L46.21615982055664,34.18246132733393L46.7938618183136,36.64465938368001L47.371563816070555,40.550198997198905L47.949265813827516,42.40541581822473L48.52696781158448,43.94162949720147L49.10466980934143,44.18205906179418L49.682371807098384,54.250385762728804L50.260073804855345,46.42948949153002L50.8377758026123,46.303506858387024L51.41547780036926,38.52776382391638L51.99317979812622,51.90337503479587L52.570881795883174,50.12450497912844L53.148583793640135,52.94912061123989L53.726285791397096,50.185057880048134L54.30398778915405,56.24397329183193L54.88168978691101,57.92964080779984L55.45939178466797,49.758381933262314L56.037093782424925,49.489510423343425L56.614795780181886,56.77074481558968L57.19249777793885,60.271577865026224L57.7701997756958,55.52644122545037L58.34790177345276,57.373752432797055L58.925603771209715,57.528666785781425L59.50330576896667,61.17774005936327L60.08100776672363,62.172329911065795L60.65870976448059,58.806731324077184L61.236411762237545,64.78766053632884L61.814113759994505,64.84471322850945L62.391815757751466,60.09390086739261L62.96951775550842,63.85705551895668L63.54721975326538,68.63473747401945L64.12492175102234,66.19538802885012L64.7026237487793,64.93343572729047L65.28032574653626,70.2298647794309L65.85802774429321,62.248032624235535L66.43572974205017,65.36329614075964L67.01343173980713,66.74270113800425L67.59113373756409,64.38138386161971L68.16883573532104,71.03422225251587L68.746537733078,67.97195061437498L69.32423973083496,70.26106184525781L69.90194172859192,58.39736391052266L70.47964372634887,62.62470425727988L71.05734572410583,64.66440220516182L71.63504772186279,73.56087675622915L72.21274971961975,74.54173480395535L72.79045171737671,73.22793065915806L73.36815371513367,71.48313999271629L73.94585571289063,74.97240806933847L74.52355771064758,75.61898725064312L75.10125970840454,71.34569706276626L75.6789617061615,73.03841173837338L76.25666370391846,72.92836235724602L76.83436570167542,76.62215783933433L77.41206769943238,69.13899036157696L77.98976969718933,70.43942950288049L78.56747169494629,77.90490304962269L79.14517369270325,75.70148341521556L79.72287569046021,77.74547095974245L80.30057768821717,79.53953603666304L80.87827968597414,67.88803320103301L81.45598168373107,78.25693296440278L82.03368368148803,78.13583693867953L82.61138567924499,80.63706188077126L83.18908767700195,81.58155728991726L83.76678967475891,81.0729644957381L84.34449167251586,79.45803745341487L84.92219367027282,71.79345752823927L85.49989566802978,77.45479050807857L86.07759766578674,76.47355945876275L86.6552996635437,80.55721790352109L87.23300166130066,81.98111322790044L87.81070365905761,74.16470742593039L88.38840565681457,79.97754064518847L88.96610765457153,78.9238946469027L89.54380965232849,75.10247861694107L90.12151165008545,82.77055756106813L90.69921364784241,85.21938960457858L91.27691564559936,74.6364202009349L91.85461764335632,65.6256255212765L92.43231964111328,79.07320835131004L93.01002163887024,77.27058757579776L93.5877236366272,84.66447831110283L94.16542563438416,82.39463684069477L94.74312763214111,83.30613753304655L95.32082962989807,83.57959166159925L95.89853162765503,81.48751284037685L96.476233625412,79.73477887953607L97.05393562316895,79.30822127453983L97.63163762092591,83.54574262751856L98.20933961868286,79.72348751461097L98.78704161643982,79.7532465972386L99.36474361419677,87.71808103657553L99.94244561195373,89.61563163775035L100.52014760971069,89.6402897284867L101.09784960746765,93.55377715874722L101.6755516052246,83.42878177239822L102.25325360298156,85.79715331763846L102.83095560073852,87.02732023316318L103.40865759849548,84.79308161875257L103.98635959625244,89.66653701805477L104.5640615940094,79.74472022615497L105.14176359176635,85.76921494326263L105.71946558952331,90.29479958171174L106.29716758728027,93.27471016061774L106.87486958503723,87.55601488380576L107.45257158279419,93.88328068758612L108.03027358055115,85.63275819556806L108.6079755783081,86.31365117568032L109.18567757606506,73.3161494627251L109.76337957382202,85.55291205754885L110.34108157157898,85.93346919132121L110.91878356933594,89.67476091144043L111.4964855670929,90.66907949624775L112.07418756484985,88.3843470236521L112.65188956260681,90.52976449533817L113.22959156036377,95.23914842106736L113.80729355812073,85.34581659534336L114.3849955558777,90.7812321563247L114.96269755363465,89.22535734659238L115.5403995513916,83.05264498330665L116.11810154914856,90.65184061468447L116.69580354690552,96.14926881354067L117.27350554466248,93.01905619606855L117.85120754241943,91.33218501766802L118.42890954017639,91.69916923948466L119.00661153793334,94.48154897929015L119.5843135356903,90.69797409655472L120.16201553344726,87.2728835050884L120.73971753120422,90.99299736806887L121.31741952896118,90.12993162322861L121.89512152671814,93.05855831157076L122.47282352447509,89.31271035773098L123.05052552223205,75.37446151778855L123.62822751998901,80.70077586880713L124.20592951774597,84.55089376676018L124.78363151550293,87.67418986798391L125.3613335132599,90.4829671810125L125.93903551101684,91.51979831219171L126.5167375087738,94.80584276713111L127.09443950653076,91.58937016758668L127.67214150428772,101.77815133005456L128.24984350204468,96.95599487839635L128.82754549980163,88.21601812290027L129.4052474975586,76.02028050048914L129.98294949531555,84.59168752611137L130.56065149307253,97.07744787797989L131.13835349082947,99.17680238205838L131.71605548858642,93.52293241872269L132.2937574863434,88.52147166145434L132.87145948410034,88.32214418868105L133.44916148185732,90.73838375732595L134.02686347961426,101.47512373970679L134.6045654773712,98.94454431824794L135.18226747512819,100.61580901623825L135.75996947288513,98.7848180010216L136.33767147064208,93.18288094595114L136.91537346839905,88.50685054705224L137.493075466156,90.84832741200844L138.07077746391295,86.40983599147086L138.64847946166992,96.20799320371633L139.22618145942687,91.05477944853335L139.80388345718384,96.43816988682987L140.3815854549408,94.78475925922783L140.95928745269774,99.10007226876412L141.5369894504547,94.650250715133L142.11469144821166,90.21783604875972L142.69239344596863,97.87930444746816L143.27009544372558,101.39706163581376L143.84779744148256,99.0800074796937L144.4254994392395,95.50616711849868L145.00320143699645,100.02997137842374L145.58090343475342,96.08029427892765L146.15860543251037,88.33591949170533L146.73630743026735,93.65916314099361L147.3140094280243,99.9060836343175L147.89171142578127,104.0847091870746L148.4694134235382,96.4363666525601L149.04711542129516,89.48497020305183L149.62481741905214,94.89935379655249L150.20251941680908,101.69042620403592L150.78022141456606,103.4790272128653L151.357923412323,101.06055023757813L151.93562541007995,94.90410932380085L152.51332740783693,93.03987200665514L153.09102940559387,97.59134448216368L153.66873140335085,88.05735300357901L154.2464334011078,96.66016054694573L154.82413539886477,91.41745088963391L155.40183739662172,102.09040073800716L155.97953939437866,85.7954283388264L156.55724139213564,93.25116321108565L157.13494338989258,91.40371228724452L157.71264538764956,97.54495517740119L158.2903473854065,99.73216012852095L158.86804938316345,88.82833581757264L159.44575138092043,86.83612832066709L160.02345337867737,89.1438239862187L160.60115537643435,98.78982950094652L161.1788573741913,92.3919374283587L161.75655937194827,94.75002841673277L162.33426136970522,95.74663749257451L162.91196336746214,100.19709275536458L163.4896653652191,97.10445685249859L164.06736736297606,100.0253243376971L164.64506936073303,103.92767469516026L165.22277135848998,101.55077400000269L165.80047335624693,103.29286463489449L166.3781753540039,104.95903697581602L166.95587735176085,108.2036086107875L167.53357934951782,106.49860408353284L168.11128134727477,101.0852086568935L168.68898334503172,102.26929105772167L169.2666853427887,97.83196669744964L169.84438734054564,104.4704697265268L170.4220893383026,104.40074439054118L170.99979133605956,104.68401535743935L171.57749333381653,105.14091799663164L172.15519533157348,98.29141682215798L172.73289732933043,90.82309360148993L173.3105993270874,100.88163986628335L173.88830132484435,103.88314734949222L174.46600332260132,98.93903757875975L175.04370532035827,108.05245923226695L175.62140731811522,105.04467226019823L176.1991093158722,100.86525311389458L176.77681131362914,107.57543017629237L177.3545133113861,109.0524776286755L177.93221530914306,107.20749734684671L178.50991730690004,108.84257737002415L179.08761930465698,91.27304013258922L179.66532130241393,97.4343035947799L180.2430233001709,106.22788716055867L180.82072529792785,104.62967822359138L181.39842729568483,111.10247708438634L181.97612929344177,113.95438492741818L182.55383129119872,103.33932739327817L183.1315332889557,105.56868996361769L183.70923528671264,105.42299589292313L184.28693728446962,102.41256474022123L184.86463928222656,108.1471964254857L185.44234127998354,104.93633595204379L186.02004327774048,88.38649053011223L186.59774527549743,102.4951417415762L187.1754472732544,107.462846368964L187.75314927101135,106.00276645734378L188.33085126876833,99.00375901897918L188.90855326652527,103.18480876162107L189.48625526428222,106.23188005195396L190.0639572620392,103.18446111479142L190.64165925979614,107.81680391536132L191.21936125755312,105.45499638974484L191.79706325531006,105.06530047731937L192.37476525306704,113.96669079044321L192.952467250824,99.85571703488405L193.53016924858093,105.14291020007691L194.1078712463379,90.93153977705593L194.68557324409485,94.79168740839458L195.26327524185183,107.11441111431292L195.84097723960878,110.70647023599774L196.41867923736572,107.56110902394661L196.9963812351227,104.66088573277122L197.57408323287964,106.39561394237471L198.15178523063662,92.04413073245408L198.72948722839354,81.92088023604367L199.30718922615048,95.93856774172113L199.88489122390746,97.7120727337604L200.4625932216644,102.42273373562892L201.04029521942138,104.81481093991599L201.61799721717833,103.99595347285967L202.1956992149353,105.81313962036246L202.77340121269225,107.90321758144123L203.3511032104492,109.68588215515679L203.92880520820617,112.39050504609754L204.50650720596312,111.75252831079811L205.0842092037201,107.63940336397141L205.66191120147704,89.59497048519594L206.239613199234,95.68854912795649L206.81731519699096,102.90870932941696L207.3950171947479,112.75275193373247L207.97271919250488,110.5855078806258L208.55042119026183,116.24170301180406L209.1281231880188,100.10843106250898L209.70582518577575,113.02602123771435L210.2835271835327,115.11176059531194L210.86122918128967,113.97215128489619L211.43893117904662,109.8442579967551L212.0166331768036,114.2679167782594L212.59433517456054,102.7608650443297L213.1720371723175,107.73248535994925L213.74973917007446,110.61799674929871L214.3274411678314,108.04974646778862L214.90514316558838,107.97248413288538L215.48284516334533,111.69602004376137L216.0605471611023,104.50885257266329L216.63824915885925,105.45404982667702L217.2159511566162,109.21415996738604L217.79365315437317,106.21430993417673L218.37135515213012,111.890370722714L218.9490571498871,107.84616264270238L219.52675914764404,109.50709854075942L220.10446114540102,99.47656128282856L220.68216314315796,103.97060717073157L221.2598651409149,101.9328364543876L221.8375671386719,111.45999595679417L222.41526913642883,113.6458892734903L222.9929711341858,113.09036281571316L223.57067313194275,109.82125508665729L224.1483751296997,113.25136216287599L224.72607712745668,114.74380855742866L225.30377912521362,104.74619825167908L225.8814811229706,106.5746947600177L226.45918312072754,108.41278381999261L227.03688511848452,113.36224072862267L227.61458711624147,104.17155946251276L228.1922891139984,109.54772851625846L228.7699911117554,114.93253789369349L229.34769310951233,113.38563737680595L229.9253951072693,111.65534435197688L230.50309710502626,110.81976011675066L231.0807991027832,101.33386980541711L231.65850110054018,110.56725959533085L232.23620309829712,111.9595893804043L232.8139050960541,115.62980909568233L233.39160709381105,117.52852671063074L233.96930909156802,115.12015411715835L234.54701108932497,111.07132655882661L235.1247130870819,105.16161065856927L235.70241508483886,110.82047555435635L236.2801170825958,111.34983621552414L236.85781908035278,114.77363111356333L237.43552107810973,114.58274510136599L238.01322307586668,104.78615040187668L238.59092507362365,111.7924083609058L239.1686270713806,111.62808358166406L239.74632906913757,105.21595883873007L240.32403106689452,114.42802665873971L240.90173306465147,118.85973087479132L241.47943506240844,107.96545560129087L242.0571370601654,99.2372932659815L242.63483905792236,112.22369508785081L243.2125410556793,108.43592941426405L243.79024305343628,116.71024874195119L244.36794505119323,112.92961606801383L244.94564704895018,116.10577494012051L245.52334904670715,115.64018839995205L246.1010510444641,109.9971154835948L246.67875304222108,112.02809969740085L247.25645503997802,109.19912904529004L247.83415703773497,110.62056787582958L248.41185903549194,111.78312280676644L248.9895610332489,111.4546478944907L249.56726303100587,116.2179453222576L250.1449650287628,111.85241131674208L250.7226670265198,115.32561295040513L251.30036902427673,115.8023955599353L251.87807102203368,114.20928529101319L252.45577301979066,115.34924880406116L253.0334750175476,112.40027670071946L253.61117701530458,112.96212907691661L254.18887901306152,113.95417852712056L254.76658101081847,117.34838446697853L255.34428300857545,109.88600781982515L255.9219850063324,113.87521105389922L256.49968700408937,114.7821540837567L257.0773890018463,102.74136221334794L257.65509099960326,113.61157300253505L258.2327929973602,120.8802516538929L258.8104949951172,117.48450812314752L259.38819699287416,116.69824958840086L259.9658989906311,121.95990574821131L260.54360098838805,116.10877162216747L261.12130298614505,118.18530361425726L261.699004983902,113.91995852651073L262.27670698165895,111.84376347050967L262.8544089794159,114.91884048923697L263.43211097717284,116.81784886415262L264.00981297492984,117.27181943312117L264.5875149726868,119.88350584318674L265.16521697044374,116.14679817469316L265.7429189682007,123.50543551334177L266.32062096595763,125.22674041306597L266.89832296371463,127.25987384933639L267.4760249614716,114.5722170500576L268.0537269592285,110.35787518328584L268.6314289569855,106.74120489482473L269.2091309547424,116.40142512561332L269.7868329524994,109.84694139785836L270.36453495025637,115.18518727930349L270.9422369480133,106.5669067480712L271.51993894577026,112.69690132845187L272.0976409435272,114.0437533816941L272.67534294128416,100.19882611273663L273.2530449390411,107.11928575278272L273.8307469367981,116.01562281781682" fill="none"></path></g><g><path style="fill: none;" stroke="rgb(255, 112, 67)" stroke-width="2px" d="M35.817523860931395,-5.87187071443084L36.395225858688356,7.663624869065855L36.97292785644532,20.4632705808885L37.55062985420227,23.216141580632524L38.12833185195923,21.892672978036746L38.70603384971619,26.92454259248254L39.283735847473146,34.41100826768473L39.86143784523011,42.530123762649374L40.43913984298707,49.02956041681636L41.016841840744014,47.81741593162943L41.594543838500975,48.934429595273045L42.17224583625793,55.23206780653829L42.74994783401489,59.50609039977257L43.32764983177185,59.8353774500803L43.905351829528804,66.60322088052156L44.483053827285765,67.26072334097158L45.060755825042726,72.442801366198L45.63845782279968,76.21762353759122L46.21615982055664,70.5803590392763L46.7938618183136,77.53962865582396L47.371563816070555,79.91469810654174L47.949265813827516,81.10561431378693L48.52696781158448,81.16932827115902L49.10466980934143,83.24004846665903L49.682371807098384,89.21094979428139L50.260073804855345,89.91430573786367L50.8377758026123,91.37064991204801L51.41547780036926,92.79636821255005L51.99317979812622,92.48621463287758L52.570881795883174,87.51135193184717L53.148583793640135,89.56907732484416L53.726285791397096,101.13337370048791L54.30398778915405,96.87584879486901L54.88168978691101,97.25643632957048L55.45939178466797,98.56232711671166L56.037093782424925,95.20925976851716L56.614795780181886,101.0159883726158L57.19249777793885,104.11616082981672L57.7701997756958,105.28034751924041L58.34790177345276,110.02483539838717L58.925603771209715,106.10711198357767L59.50330576896667,114.0970910835663L60.08100776672363,113.30440979329752L60.65870976448059,107.21626376367917L61.236411762237545,116.41109230471763L61.814113759994505,110.9025000690902L62.391815757751466,115.31088851669593L62.96951775550842,105.38418889494996L63.54721975326538,108.7737409103552L64.12492175102234,109.16869595118048L64.7026237487793,105.00482211595656L65.28032574653626,113.64151594161878L65.85802774429321,115.93566286649191L66.43572974205017,114.03072287539361L67.01343173980713,112.9672705005311L67.59113373756409,115.35300485219797L68.16883573532104,109.23480360527543L68.746537733078,111.34500836709132L69.32423973083496,115.29100131834228L69.90194172859192,112.89490205168703L70.47964372634887,117.06477716309688L71.05734572410583,120.32101667703085L71.63504772186279,119.61334815192276L72.21274971961975,114.43733111164788L72.79045171737671,122.88172852191447L73.36815371513367,123.86482034896102L73.94585571289063,123.45112556382477L74.52355771064758,123.62095450293802L75.10125970840454,127.48307696906886L75.6789617061615,123.90531221775316L76.25666370391846,123.50895747356101L76.83436570167542,127.6746494181532L77.41206769943238,125.19699282921434L77.98976969718933,117.74216526085095L78.56747169494629,123.12159510744526L79.14517369270325,117.06370470375903L79.72287569046021,125.17156680364306L80.30057768821717,124.05989927969762L80.87827968597414,129.12903056168085L81.45598168373107,125.91933128470762L82.03368368148803,127.37337760574648L82.61138567924499,130.17535350310695L83.18908767700195,127.46150172352696L83.76678967475891,125.47793415911954L84.34449167251586,128.67504993666165L84.92219367027282,130.91541748481495L85.49989566802978,127.99393414528248L86.07759766578674,134.43958578005456L86.6552996635437,136.29279808119685L87.23300166130066,129.07012096066225L87.81070365905761,125.4855640459636L88.38840565681457,132.25023011475363L88.96610765457153,132.69191402392977L89.54380965232849,140.2999457637306L90.12151165008545,138.2334458296294L90.69921364784241,131.84541153247648L91.27691564559936,133.83151476980896L91.85461764335632,135.71233197676912L92.43231964111328,134.1077550280355L93.01002163887024,130.25179541368274L93.5877236366272,130.0375498693266L94.16542563438416,134.74245621988965L94.74312763214111,141.5717064944195L95.32082962989807,141.43221655000548L95.89853162765503,140.82311599333406L96.476233625412,140.02093249853928L97.05393562316895,129.71110077403986L97.63163762092591,138.0383681173661L98.20933961868286,133.1417371325963L98.78704161643982,141.75237442326338L99.36474361419677,146.03399202298957L99.94244561195373,144.2837053276993L100.52014760971069,145.98239386451078L101.09784960746765,139.86607993345478L101.6755516052246,140.26419018560753L102.25325360298156,139.1288927256981L102.83095560073852,138.4758101040697L103.40865759849548,143.63365205016578L103.98635959625244,147.36045247375682L104.5640615940094,145.01934039540706L105.14176359176635,145.27081371209528L105.71946558952331,144.023900372824L106.29716758728027,146.8256540389328L106.87486958503723,144.43935780549378L107.45257158279419,148.0007148163674L108.03027358055115,145.37977205330657L108.6079755783081,141.72821156108364L109.18567757606506,142.3666367196142L109.76337957382202,142.18448697852787L110.34108157157898,139.89069045899987L110.91878356933594,140.02913183924156L111.4964855670929,146.61772284782816L112.07418756484985,149.69288428646712L112.65188956260681,152.3824660691344L113.22959156036377,147.275919255001L113.80729355812073,144.45702883385064L114.3849955558777,147.29362383670056L114.96269755363465,147.25863592608155L115.5403995513916,144.83485204279137L116.11810154914856,147.16463800887462L116.69580354690552,147.13535635348293L117.27350554466248,150.4530288582117L117.85120754241943,154.66958015059834L118.42890954017639,152.84928426649833L119.00661153793334,146.5880439061492L119.5843135356903,150.84757467197943L120.16201553344726,149.26214310768344L120.73971753120422,143.9915440595251L121.31741952896118,149.02619913160373L121.89512152671814,152.0498078460247L122.47282352447509,150.05531533747705L123.05052552223205,156.9814582887257L123.62822751998901,154.1544886302647L124.20592951774597,153.26056490185934L124.78363151550293,148.770921510236L125.3613335132599,148.7749287412936L125.93903551101684,158.3135904256213L126.5167375087738,152.44514013726658L127.09443950653076,152.29085687765175L127.67214150428772,150.40411699887528L128.24984350204468,148.36722166489912L128.82754549980163,151.8786841136836L129.4052474975586,155.07706167469829L129.98294949531555,156.6398458189185L130.56065149307253,158.15381988634047L131.13835349082947,154.4579190181349L131.71605548858642,162.07941269121673L132.2937574863434,163.91401287279587L132.87145948410034,157.89946335687944L133.44916148185732,164.8435016289093L134.02686347961426,158.33225838610582L134.6045654773712,161.78193744582143L135.18226747512819,154.1244382797331L135.75996947288513,156.77008478936327L136.33767147064208,156.34434507646336L136.91537346839905,149.4135232121084L137.493075466156,157.0435217643944L138.07077746391295,160.11087650142147L138.64847946166992,154.90744187581242L139.22618145942687,154.67225262045073L139.80388345718384,156.72392228797966L140.3815854549408,151.66489124510184L140.95928745269774,153.73726112981745L141.5369894504547,156.65037059127104L142.11469144821166,154.0336437154301L142.69239344596863,153.65024977692147L143.27009544372558,157.93720552644533L143.84779744148256,157.41023870322846L144.4254994392395,152.5709877554556L145.00320143699645,160.6787743511287L145.58090343475342,158.7655845092458L146.15860543251037,157.2996244622013L146.73630743026735,157.47482753809774L147.3140094280243,160.6647284224061L147.89171142578127,158.61029499566087L148.4694134235382,158.37677453749617L149.04711542129516,161.4819061388469L149.62481741905214,161.81509631741065L150.20251941680908,155.39390082944846L150.78022141456606,160.46299020609183L151.357923412323,152.84275686246718L151.93562541007995,158.31080212367806L152.51332740783693,158.038979662965L153.09102940559387,161.58038004619198L153.66873140335085,159.69893638015247L154.2464334011078,161.44252763738376L154.82413539886477,163.76130412376105L155.40183739662172,160.16204771171743L155.97953939437866,158.29953026789113L156.55724139213564,160.31421200217235L157.13494338989258,163.89513888616275L157.71264538764956,162.04517108832246L158.2903473854065,164.03035116621675L158.86804938316345,165.7973923257094L159.44575138092043,161.86824475414997L160.02345337867737,156.87314289597995L160.60115537643435,163.15845934190534L161.1788573741913,164.19496956151082L161.75655937194827,169.65564708127633L162.33426136970522,168.37388483618952L162.91196336746214,160.58775997867866L163.4896653652191,163.68529503915863L164.06736736297606,164.63420689906314L164.64506936073303,165.89001549090978L165.22277135848998,162.58761983895462L165.80047335624693,160.25305827943632L166.3781753540039,164.60691958219624L166.95587735176085,167.91728758457378L167.53357934951782,167.8416696762041L168.11128134727477,167.83590616298488L168.68898334503172,165.7736459761261L169.2666853427887,159.19302370398438L169.84438734054564,166.2142077779416L170.4220893383026,161.6609505962821L170.99979133605956,168.73099565639728L171.57749333381653,171.11106476068298L172.15519533157348,168.97437463128182L172.73289732933043,170.6073004391824L173.3105993270874,170.38679290871218L173.88830132484435,169.45984005181433L174.46600332260132,166.24325695441786L175.04370532035827,171.63385396433182L175.62140731811522,164.13691130373223L176.1991093158722,169.76501200405608L176.77681131362914,168.16497437300998L177.3545133113861,166.36686005827056L177.93221530914306,166.6525237377064L178.50991730690004,170.3666682796085L179.08761930465698,173.02812563786912L179.66532130241393,171.974726761215L180.2430233001709,163.74425403075728L180.82072529792785,169.04466508484012L181.39842729568483,166.74957146405802L181.97612929344177,170.27931158930565L182.55383129119872,169.92666231122752L183.1315332889557,162.97312158862005L183.70923528671264,166.01442897466464L184.28693728446962,167.3200300385367L184.86463928222656,168.05843896619663L185.44234127998354,167.58351392737666L186.02004327774048,168.2026120626233L186.59774527549743,166.7649723457113L187.1754472732544,168.53145481199806L187.75314927101135,171.01097198713657L188.33085126876833,165.74025392924892L188.90855326652527,166.69534210821135L189.48625526428222,174.45706761023132L190.0639572620392,169.68923662668678L190.64165925979614,169.1196757392744L191.21936125755312,170.45276855457337L191.79706325531006,170.5629977169679L192.37476525306704,171.47291681749064L192.952467250824,171.52851038185003L193.53016924858093,166.18047751544785L194.1078712463379,169.63664857479736L194.68557324409485,167.12633349514905L195.26327524185183,172.13575727149052L195.84097723960878,173.99233779476938L196.41867923736572,171.13711832347306L196.9963812351227,173.85220261115026L197.57408323287964,170.78486721423653L198.15178523063662,173.39856336078503L198.72948722839354,175.59028415579925L199.30718922615048,168.45018397882103L199.88489122390746,170.57092025155333L200.4625932216644,170.94472177358858L201.04029521942138,173.05113311553873L201.61799721717833,172.49392492123297L202.1956992149353,171.1603446790106L202.77340121269225,165.86764871195732L203.3511032104492,170.72087776727818L203.92880520820617,172.3358155696572L204.50650720596312,178.21259792473242L205.0842092037201,177.9779014360054L205.66191120147704,175.00086153388585L206.239613199234,171.25887819234154L206.81731519699096,175.20104249506053L207.3950171947479,175.38472323070758L207.97271919250488,171.9093975246204L208.55042119026183,170.24170796268427L209.1281231880188,170.15383039349" fill="none"></path></g></g></g></g><g opacity="0.2"><g><g><g><path style="fill: none;" stroke="rgb(51, 187, 238)" stroke-width="2px" d="M38.12833185195923,-34.956802255537696L38.70603384971619,4.906130202698932L39.283735847473146,11.939376487411764L39.86143784523011,-10.305541043457L40.43913984298707,15.526246898218588L41.016841840744014,20.04432763317363L41.594543838500975,26.23506400238802L42.17224583625793,20.327789546322848L42.74994783401489,23.534486313335037L43.32764983177185,24.346729352710277L43.905351829528804,36.679490543444444L44.483053827285765,29.559457759987808L45.060755825042726,32.571172838175066L45.63845782279968,24.253286512435174L46.21615982055664,38.824509304844014L46.7938618183136,38.286124754576676L47.371563816070555,43.153892072877724L47.949265813827516,43.64222703224186L48.52696781158448,44.965771949852574L49.10466980934143,44.34234543818929L49.682371807098384,60.96260356335188L50.260073804855345,41.21555864406418L50.8377758026123,46.219518436291665L51.41547780036926,33.34393513426931L51.99317979812622,60.82044917538214L52.570881795883174,48.93859160868351L53.148583793640135,54.83219769931419L53.726285791397096,48.34234939258694L54.30398778915405,60.283250233021136L54.88168978691101,59.05341915177842L55.45939178466797,44.310876016903975L56.037093782424925,49.31026275006416L56.614795780181886,61.62490107708719L57.19249777793885,62.60546656465057L57.7701997756958,52.36301679906647L58.34790177345276,58.60529323769487L58.925603771209715,57.631943021104334L59.50330576896667,63.610455575084515L60.08100776672363,62.8353898122008L60.65870976448059,56.56299893275145L61.236411762237545,68.77494667782993L61.814113759994505,64.88274835662988L62.391815757751466,56.92669262664804L62.96951775550842,66.36582528666604L63.54721975326538,71.81985877739463L64.12492175102234,64.5691550654039L64.7026237487793,64.09213419291736L65.28032574653626,73.7608174808579L65.85802774429321,56.926811187438666L66.43572974205017,67.44013848510905L67.01343173980713,67.66230446950067L67.59113373756409,62.80717234403L68.16883573532104,75.46944784644666L68.746537733078,65.93043618894772L69.32423973083496,71.78713599917974L69.90194172859192,50.48823195403257L70.47964372634887,65.442931155118L71.05734572410583,66.02420083708311L71.63504772186279,79.49185979027406L72.21274971961975,75.19564016910617L72.79045171737671,72.35206122929321L73.36815371513367,70.31994621508848L73.94585571289063,77.2985867870866L74.52355771064758,76.05004003817957L75.10125970840454,68.49683693751503L75.6789617061615,74.1668881887781L76.25666370391846,72.8549961031611L76.83436570167542,79.08468816072654L77.41206769943238,64.15021204307205L77.98976969718933,71.30638893041613L78.56747169494629,82.88188541411746L79.14517369270325,74.23253699227753L79.72287569046021,79.1081293227604L80.30057768821717,80.73557942127673L80.87827968597414,60.12036464394633L81.45598168373107,85.16953280664929L82.03368368148803,78.05510625486404L82.61138567924499,82.30454517549906L83.18908767700195,82.21122089601458L83.76678967475891,80.73390263295205L84.34449167251586,78.38141942519941L84.92219367027282,66.68373757812223L85.49989566802978,81.22901249463813L86.07759766578674,75.81940542588553L86.6552996635437,83.27965686669332L87.23300166130066,82.93037677748661L87.81070365905761,68.95377022461707L88.38840565681457,83.85276279136052L88.96610765457153,78.22146398137885L89.54380965232849,72.55486793029995L90.12151165008545,87.88261019048623L90.69921364784241,86.85194430025221L91.27691564559936,67.58110726517243L91.85461764335632,59.618429068170926L92.43231964111328,88.0382635713324L93.01002163887024,76.06884039212291L93.5877236366272,89.5937388013062L94.16542563438416,80.8814091937561L94.74312763214111,83.91380466128102L95.32082962989807,83.76189441396774L95.89853162765503,80.09279362622856L96.476233625412,78.56628957230886L97.05393562316895,79.02384953787568L97.63163762092591,86.3707568628377L98.20933961868286,77.17531743933922L98.78704161643982,79.77308598565706L99.36474361419677,93.02797066280014L99.94244561195373,90.88066537186693L100.52014760971069,89.65672845564427L101.09784960746765,96.16276877892092L101.6755516052246,76.67878484816556L102.25325360298156,87.37606768113191L102.83095560073852,87.84743151017965L103.40865759849548,83.3035892091455L103.98635959625244,92.91550728425624L104.5640615940094,73.13017569822178L105.14176359176635,89.78554475466773L105.71946558952331,93.31185600734447L106.29716758728027,95.26131721322177L106.87486958503723,83.74355136593113L107.45257158279419,98.10145789010635L108.03027358055115,80.132409867556L108.6079755783081,86.76757982908849L109.18567757606506,64.65114832075496L109.76337957382202,93.71075378743136L110.34108157157898,86.18717394716941L110.91878356933594,92.16895539151993L111.4964855670929,91.33195855278596L112.07418756484985,86.86119204192164L112.65188956260681,91.96004280979555L113.22959156036377,98.37873770488682L113.80729355812073,78.75026204486066L114.3849955558777,94.40484253031228L114.96269755363465,88.18810747343751L115.5403995513916,78.93750340778278L116.11810154914856,95.71797103560301L116.69580354690552,99.81422094611149L117.27350554466248,90.93224778442045L117.85120754241943,90.20760423206765L118.42890954017639,91.94382538736245L119.00661153793334,96.3364688058271L119.5843135356903,88.17559084139775L120.16201553344726,84.9894897774442L120.73971753120422,93.47307327672252L121.31741952896118,89.55455446000178L121.89512152671814,95.01097610379884L122.47282352447509,86.81547838850447L123.05052552223205,66.0822956244936L123.62822751998901,84.25165210281948L124.20592951774597,87.1176390320622L124.78363151550293,89.75638726879974L125.3613335132599,92.35548538969825L125.93903551101684,92.21101906631115L126.5167375087738,96.99653907042408L127.09443950653076,89.44505510122372L127.67214150428772,108.5706721050331L128.24984350204468,93.74122391062419L128.82754549980163,82.38936695256952L129.4052474975586,67.88978875221501L129.98294949531555,90.30595887652616L130.56065149307253,105.4012881125589L131.13835349082947,100.57637205144401L131.71605548858642,89.75368577649887L132.2937574863434,85.1871644899421L132.87145948410034,88.18925920683223L133.44916148185732,92.34921013642257L134.02686347961426,108.63295039462737L134.6045654773712,97.2574913706087L135.18226747512819,101.72998548156511L135.75996947288513,97.56415732421051L136.33767147064208,89.44825624257082L136.91537346839905,85.3894969477863L137.493075466156,92.40931198864591L138.07077746391295,83.45084171111249L138.64847946166992,102.74009801188L139.22618145942687,87.61930361174473L139.80388345718384,100.02709684569417L140.3815854549408,93.68248550749313L140.95928745269774,101.97694760845498L141.5369894504547,91.68370301271226L142.11469144821166,87.2628929378442L142.69239344596863,102.98695004660713L143.27009544372558,103.74223309471081L143.84779744148256,97.53530470894702L144.4254994392395,93.12360687770196L145.00320143699645,103.04584088504043L145.58090343475342,93.44717621259697L146.15860543251037,83.17300296689045L146.73630743026735,97.20799224051916L147.3140094280243,104.0706972965334L147.89171142578127,106.87045955557933L148.4694134235382,91.33747162955042L149.04711542129516,84.85070590337965L149.62481741905214,98.50894285888626L150.20251941680908,106.21780780902486L150.78022141456606,104.67142788541823L151.357923412323,99.44823225405334L151.93562541007995,90.79981538128267L152.51332740783693,91.797047128558L153.09102940559387,100.625659465836L153.66873140335085,81.70135868452253L154.2464334011078,102.39536557585689L154.82413539886477,87.9223111180927L155.40183739662172,109.20570063692266L155.97953939437866,74.9321134060392L156.55724139213564,98.22165312592516L157.13494338989258,90.17207833801707L157.71264538764956,101.63911710417233L158.2903473854065,101.1902967626008L158.86804938316345,81.55911961027378L159.44575138092043,85.50798998939672L160.02345337867737,90.68228776325314L160.60115537643435,105.22049984409841L161.1788573741913,88.12667604663348L161.75655937194827,96.32208907564882L162.33426136970522,96.41104354313565L162.91196336746214,103.16406293055798L163.4896653652191,95.04269958392125L164.06736736297606,101.97256932782943L164.64506936073303,106.52924160013572L165.22277135848998,99.96617353656428L165.80047335624693,104.45425839148902L166.3781753540039,106.06981853643038L166.95587735176085,110.36665636743514L167.53357934951782,105.36193439869645L168.11128134727477,97.47627837246728L168.68898334503172,103.05867932494048L169.2666853427887,94.87375045726832L169.84438734054564,108.89613841257824L170.4220893383026,104.35426083321745L170.99979133605956,104.87286266870478L171.57749333381653,105.44551975609316L172.15519533157348,93.72508270584221L172.73289732933043,85.84421145437791L173.3105993270874,107.58733737614561L173.88830132484435,105.88415233829811L174.46600332260132,95.64296439827145L175.04370532035827,114.12807366793841L175.62140731811522,103.03948094548572L176.1991093158722,98.07897368302547L176.77681131362914,112.04888155122421L177.3545133113861,110.03717593026427L177.93221530914306,105.97751049229419L178.50991730690004,109.93263071880911L179.08761930465698,79.56001530763261L179.66532130241393,101.54181256957372L180.2430233001709,112.09027620441115L180.82072529792785,103.5642055989465L181.39842729568483,115.41767632491629L181.97612929344177,115.85565682277274L182.55383129119872,96.26262237051814L183.1315332889557,107.05493167717736L183.70923528671264,105.32586651246011L184.28693728446962,100.40561063841996L184.86463928222656,111.970284215662L185.44234127998354,102.79576230308248L186.02004327774048,77.35326024882453L186.59774527549743,111.90090921588553L187.1754472732544,110.7746494538892L187.75314927101135,105.02937984959699L188.33085126876833,94.33775406006943L188.90855326652527,105.97217525671567L189.48625526428222,108.26326091217588L190.0639572620392,101.15284849001637L190.64165925979614,110.9050324490746L191.21936125755312,103.88045803933382L191.79706325531006,104.80550320236908L192.37476525306704,119.90095099919245L192.952467250824,90.44840119784457L193.53016924858093,108.66770564353884L194.1078712463379,81.45729282837529L194.68557324409485,97.36511916262033L195.26327524185183,115.32956025159179L195.84097723960878,113.10117631712096L196.41867923736572,105.46420154924586L196.9963812351227,102.72740353865429L197.57408323287964,107.55209941544372L198.15178523063662,82.47647525917364L198.72948722839354,75.17204657177008L199.30718922615048,105.28369274550614L199.88489122390746,98.89440939511992L200.4625932216644,105.56317440354123L201.04029521942138,106.40952907610735L201.61799721717833,103.45004849482211L202.1956992149353,107.02459705203096L202.77340121269225,109.29660288882705L203.3511032104492,110.87432520430048L203.92880520820617,114.19358697339139L204.50650720596312,111.32721048726516L205.0842092037201,104.89732006608692L205.66191120147704,77.56534856601229L206.239613199234,99.75093488979682L206.81731519699096,107.72214946372397L207.3950171947479,119.31544700327613L207.97271919250488,109.14067851188803L208.55042119026183,120.0124997659229L209.1281231880188,89.35291642964557L209.70582518577575,121.6377480211846L210.2835271835327,116.502253500377L210.86122918128967,113.21241174461902L211.43893117904662,107.09232913799438L212.0166331768036,117.21702263259557L212.59433517456054,95.08949722170992L213.1720371723175,111.04689890369563L213.74973917007446,112.54167100886502L214.3274411678314,106.33757961344854L214.90514316558838,107.92097590961657L215.48284516334533,114.17837731767868L216.0605471611023,99.7174075919312L216.63824915885925,106.08418132935286L217.2159511566162,111.72090006119207L217.79365315437317,104.21440991203717L218.37135515213012,115.67441124840552L218.9490571498871,105.15002392269461L219.52675914764404,110.61438913946414L220.10446114540102,92.789536444208L220.68216314315796,106.9666377626669L221.2598651409149,100.57432264349164L221.8375671386719,117.81143562506522L222.41526913642883,115.10315148462105L222.9929711341858,112.72001184386171L223.57067313194275,107.64184993395338L224.1483751296997,115.53810021368845L224.72607712745668,115.73877282046378L225.30377912521362,98.08112471451268L225.8814811229706,107.79369243224346L226.45918312072754,109.63817652664257L227.03688511848452,116.66187866770939L227.61458711624147,98.04443861843947L228.1922891139984,113.13184121875555L228.7699911117554,118.52241081198353L229.34769310951233,112.35437036554758L229.9253951072693,110.50181566875749L230.50309710502626,110.26270395993315L231.0807991027832,95.00994293119474L231.65850110054018,116.72285278860669L232.23620309829712,112.88780923711992L232.8139050960541,118.07662223920106L233.39160709381105,118.79433845392968L233.96930909156802,113.51457238817675L234.54701108932497,108.37210818660547L235.1247130870819,101.22180005839773L235.70241508483886,114.59305215154772L236.2801170825958,111.70274332296931L236.85781908035278,117.05616104558943L237.43552107810973,114.45548775990109L238.01322307586668,98.25508726888383L238.59092507362365,116.46324700025853L239.1686270713806,111.51853372883625L239.74632906913757,100.94120901010741L240.32403106689452,120.56940520541279L240.90173306465147,121.81420035215906L241.47943506240844,100.70260541895722L242.0571370601654,93.41851837577524L242.63483905792236,120.88129630243039L243.2125410556793,105.91075229853955L243.79024305343628,122.22646162707592L244.36794505119323,110.40919428538892L244.94564704895018,118.22321418819165L245.52334904670715,115.32979737317305L246.1010510444641,106.23506687268996L246.67875304222108,113.38208917327155L247.25645503997802,107.31314861054953L247.83415703773497,111.56819376285593L248.41185903549194,112.558159427391L248.9895610332489,111.23566461964019L249.56726303100587,119.39347694076888L250.1449650287628,108.94205531306507L250.7226670265198,117.64108070618049L251.30036902427673,116.1202506329554L251.87807102203368,113.14721177839841L252.45577301979066,116.10922447942649L253.0334750175476,110.43429529849163L253.61117701530458,113.33669732771467L254.18887901306152,114.6155448272565L254.76658101081847,119.61118842688383L255.34428300857545,104.91109005505622L255.9219850063324,116.5346798766153L256.49968700408937,115.38678277032831L257.0773890018463,94.71416763307543L257.65509099960326,120.85838019532649L258.2327929973602,125.7260374214648L258.8104949951172,115.22067910265059L259.38819699287416,116.17407723190308L259.9658989906311,125.4676765214183L260.54360098838805,112.20801553813827L261.12130298614505,119.56965827565045L261.699004983902,111.07639513467971L262.27670698165895,110.45963343317563L262.8544089794159,116.96889183505517L263.43211097717284,118.08385444742972L264.00981297492984,117.5744664791002L264.5875149726868,121.62463011656378L265.16521697044374,113.65565972903077L265.7429189682007,128.41119373910752L266.32062096595763,126.3742770128821L266.89832296371463,128.61529614018332L267.4760249614716,106.11377918387176L268.0537269592285,107.54831393877134L268.6314289569855,104.33009136918399L269.2091309547424,122.84157194613904L269.7868329524994,105.47728557935507L270.36453495025637,118.74401786693362L270.9422369480133,100.82138639391633L271.51993894577026,116.783564382039L272.0976409435272,114.94165475052223L272.67534294128416,90.96887460009835L273.2530449390411,111.73292551281348L273.8307469367981,121.94651419450621" fill="none"></path></g><g><path style="fill: none;" stroke="rgb(255, 112, 67)" stroke-width="2px" d="M35.239821863174434,-22.398064197855803L35.817523860931395,14.420684462815743L36.395225858688356,16.68722803461479L36.97292785644532,28.996344816245433L37.55062985420227,25.0513869432134L38.12833185195923,21.010360955256502L38.70603384971619,30.279121759133986L39.283735847473146,39.40198504150885L39.86143784523011,47.942867277174805L40.43913984298707,53.362518138619635L41.016841840744014,47.00931961172556L41.594543838500975,49.6791053697254L42.17224583625793,59.43049327776079L42.74994783401489,62.35543879446004L43.32764983177185,60.05490215026076L43.905351829528804,71.11511650061247L44.483053827285765,67.6990583145971L45.060755825042726,75.8975200496573L45.63845782279968,78.7341716518461L46.21615982055664,66.82218270707072L46.7938618183136,82.17914173352028L47.371563816070555,81.49807774035325L47.949265813827516,81.89955845195037L48.52696781158448,81.21180424274043L49.10466980934143,84.62052859699234L49.682371807098384,93.19155067936295L50.260073804855345,90.38320970025188L50.8377758026123,92.3415460281709L51.41547780036926,93.74684707955139L51.99317979812622,92.27944557976257L52.570881795883174,84.19477679782695L53.148583793640135,90.9408942535088L53.726285791397096,108.84290461758373L54.30398778915405,94.03749885778974L54.88168978691101,97.5101613527048L55.45939178466797,99.43292097480581L56.037093782424925,92.97388153638748L56.614795780181886,104.88714077534824L57.19249777793885,106.18294246795067L57.7701997756958,106.05647197885618L58.34790177345276,113.18782731781835L58.925603771209715,103.49529637370465L59.50330576896667,119.42374381689206L60.08100776672363,112.775955599785L60.65870976448059,103.15749974393361L61.236411762237545,122.54097799874326L61.814113759994505,107.23010524533856L62.391815757751466,118.24981414843309L62.96951775550842,98.7663891471193L63.54721975326538,111.03344225395871L64.12492175102234,109.43199931173068L64.7026237487793,102.22890622580725L65.28032574653626,119.39931182539362L65.85802774429321,117.46509414974066L66.43572974205017,112.76076288132809L67.01343173980713,112.25830225062272L67.59113373756409,116.94349441997588L68.16883573532104,105.1560027739937L68.746537733078,112.75181154163523L69.32423973083496,117.9216632858429L69.90194172859192,111.29750254058354L70.47964372634887,119.84469390403679L71.05734572410583,122.49184301965352L71.63504772186279,119.141569135184L72.21274971961975,110.98665308479794L72.79045171737671,128.51132679542553L73.36815371513367,124.5202149003254L73.94585571289063,123.17532904040063L74.52355771064758,123.73417379568018L75.10125970840454,130.0578252798228L75.6789617061615,121.52013571687603L76.25666370391846,123.24472097743292L76.83436570167542,130.45177738121464L77.41206769943238,123.54522176992178L77.98976969718933,112.77228021527536L78.56747169494629,126.70788167184146L79.14517369270325,113.02511110130159L79.72287569046021,130.57680820356572L80.30057768821717,123.31878759706733L80.87827968597414,132.50845141633636L81.45598168373107,123.77953176672544L82.03368368148803,128.34274181977239L82.61138567924499,132.0433374346806L83.18908767700195,125.65226720380697L83.76678967475891,124.15555578284794L84.34449167251586,130.80646045502309L84.92219367027282,132.40899585025053L85.49989566802978,126.04627858559415L86.07759766578674,138.7366868699026L86.6552996635437,137.52827294862504L87.23300166130066,124.25500288030584L87.81070365905761,123.09585943616447L88.38840565681457,136.76000749394697L88.96610765457153,132.98636996338055L89.54380965232849,145.3719669235978L90.12151165008545,136.85577920689525L90.69921364784241,127.5867220010412L91.27691564559936,135.15558359469728L91.85461764335632,136.96621011474258L92.43231964111328,133.0380370622131L93.01002163887024,127.68115567078088L93.5877236366272,129.89471950642252L94.16542563438416,137.87906045359836L94.74312763214111,146.1245400107727L95.32082962989807,141.33922325372947L95.89853162765503,140.41704895555313L96.476233625412,139.4861435020094L97.05393562316895,122.8378796243736L97.63163762092591,143.5898796795836L98.20933961868286,129.87731647608308L98.78704161643982,147.4927992837081L99.36474361419677,148.88840375614035L99.94244561195373,143.1168475308391L100.52014760971069,147.11485288905178L101.09784960746765,135.78853731275075L101.6755516052246,140.52959702037606L102.25325360298156,138.37202775242514L102.83095560073852,138.04042168965074L103.40865759849548,147.07221334756318L103.98635959625244,149.84498608948417L104.5640615940094,143.45859900984055L105.14176359176635,145.43846258988748L105.71946558952331,143.1926248133098L106.29716758728027,148.69348981633865L106.87486958503723,142.84849364986775L107.45257158279419,150.37495282361652L108.03027358055115,143.63247687793267L108.6079755783081,139.29383789960167L109.18567757606506,142.7922534919679L109.76337957382202,142.06305381780362L110.34108157157898,138.36149277931455L110.91878356933594,140.12142609273604L111.4964855670929,151.01011685355252L112.07418756484985,151.74299191222644L112.65188956260681,154.17552059091258L113.22959156036377,143.87155471224543L113.80729355812073,142.57776855308376L114.3849955558777,149.18468717193383L114.96269755363465,147.23531065233556L115.5403995513916,143.21899612059786L116.11810154914856,148.71782865293017L116.69580354690552,147.11583524988845L117.27350554466248,152.66481052803087L117.85120754241943,157.48061434552278L118.42890954017639,151.6357536770983L119.00661153793334,142.41388366591644L119.5843135356903,153.68726184919956L120.16201553344726,148.20518873148612L120.73971753120422,140.47781136075287L121.31741952896118,152.3826358463228L121.89512152671814,154.065546988972L122.47282352447509,148.725653665112L123.05052552223205,161.59888692289144L123.62822751998901,152.2698421912907L124.20592951774597,152.66461574958913L124.78363151550293,145.77782591582044L125.3613335132599,148.77760022866534L125.93903551101684,164.67269821517306L126.5167375087738,148.53283994503008L127.09443950653076,152.1880013712419L127.67214150428772,149.14629041302433L128.24984350204468,147.00929144224833L128.82754549980163,154.2196590795399L129.4052474975586,157.20931338204142L129.98294949531555,157.68170191506533L130.56065149307253,159.16313593128842L131.13835349082947,151.99398510599787L131.71605548858642,167.16040847327127L132.2937574863434,165.13707966051527L132.87145948410034,153.8897636796018L133.44916148185732,169.47286047692924L134.02686347961426,153.99142955757014L134.6045654773712,164.0817234856318L135.18226747512819,149.01943883567424L135.75996947288513,158.5338491291167L136.33767147064208,156.06051860119678L136.91537346839905,144.79297530253842L137.493075466156,162.13018746591843L138.07077746391295,162.15577965943947L138.64847946166992,151.43848545873976L139.22618145942687,154.51545978354292L139.80388345718384,158.09170206633226L140.3815854549408,148.2922038831833L140.95928745269774,155.11884105296122L141.5369894504547,158.59244356557343L142.11469144821166,152.2891591315361L142.69239344596863,153.39465381791575L143.27009544372558,160.79517602612788L143.84779744148256,157.05892748775054L144.4254994392395,149.34482045694034L145.00320143699645,166.0839654149108L145.58090343475342,157.4901246146572L146.15860543251037,156.32231776417166L146.73630743026735,157.59162958869538L147.3140094280243,162.79132901194504L147.89171142578127,157.240672711164L148.4694134235382,158.22109423205308L149.04711542129516,163.5519938730807L149.62481741905214,162.0372231031198L150.20251941680908,151.11310383747363L150.78022141456606,163.8423831238541L151.357923412323,147.76260130005076L151.93562541007995,161.95616563115195L152.51332740783693,157.85776468915628L153.09102940559387,163.94131363500998L153.66873140335085,158.4446406027928L154.2464334011078,162.60492180887132L154.82413539886477,165.30715511467923L155.40183739662172,157.76254343702166L155.97953939437866,157.05785197200694L156.55724139213564,161.65733315835988L157.13494338989258,166.28242347548968L157.71264538764956,160.8118592230956L158.2903473854065,165.3538045514796L158.86804938316345,166.97541976537119L159.44575138092043,159.24881303977705L160.02345337867737,153.54307499053326L160.60115537643435,167.34867030585562L161.1788573741913,164.88597637458113L161.75655937194827,173.29609876112005L162.33426136970522,167.5193766727983L162.91196336746214,155.39701007367142L163.4896653652191,165.75031841281196L164.06736736297606,165.26681480566612L164.64506936073303,166.72722121880756L165.22277135848998,160.3860227376512L165.80047335624693,158.69668390642408L166.3781753540039,167.5094937840362L166.95587735176085,170.12419958615882L167.53357934951782,167.791257737291L168.11128134727477,167.83206382083873L168.68898334503172,164.39880585155356L169.2666853427887,154.80594218922323L169.84438734054564,170.89499716057972L170.4220893383026,158.62544580850908L170.99979133605956,173.4443590298074L171.57749333381653,172.69777749687344L172.15519533157348,167.54991454501436L172.73289732933043,171.69591764444945L173.3105993270874,170.23978788839872L173.88830132484435,168.84187148054912L174.46600332260132,164.09886822282022L175.04370532035827,175.22758530427447L175.62140731811522,159.13894952999917L176.1991093158722,173.51707913760532L176.77681131362914,167.09828261897923L177.3545133113861,165.16811718177757L177.93221530914306,166.84296619066365L178.50991730690004,172.8427646408765L179.08761930465698,174.8024305433762L179.66532130241393,171.2724608434456L180.2430233001709,158.25727221045213L180.82072529792785,172.57827245422868L181.39842729568483,165.2195090502033L181.97612929344177,172.63247167280406L182.55383129119872,169.6915627925088L183.1315332889557,158.33742777354837L183.70923528671264,168.04196723202767L184.28693728446962,168.1904307477847L184.86463928222656,168.55071158463662L185.44234127998354,167.26689723483003L186.02004327774048,168.61534415278774L186.59774527549743,165.80654586776996L187.1754472732544,169.70910978952256L187.75314927101135,172.6639834372289L188.33085126876833,162.22644189065713L188.90855326652527,167.33206756085298L189.48625526428222,179.63155127824464L190.0639572620392,166.51068263765708L190.64165925979614,168.7399684809995L191.21936125755312,171.341497098106L191.79706325531006,170.63648382523098L192.37476525306704,172.07952955117247L192.952467250824,171.56557275808962L193.53016924858093,162.61512227117976L194.1078712463379,171.9407626143637L194.68557324409485,165.45279010871684L195.26327524185183,175.47537312238484L195.84097723960878,175.230058143622L196.41867923736572,169.23363867594216L196.9963812351227,175.66225880293504L197.57408323287964,168.73997694962742L198.15178523063662,175.14102745848402L198.72948722839354,177.05143135247542L199.30718922615048,163.6901171941689L199.88489122390746,171.98474443337483L200.4625932216644,171.1939227882787L201.04029521942138,174.4554073435055L201.61799721717833,172.12245279169582L202.1956992149353,170.27129118419566L202.77340121269225,162.33918473392183L203.3511032104492,173.95636380415877L203.92880520820617,173.41244077124324L204.50650720596312,182.13045282811586L205.0842092037201,177.82143711018742L205.66191120147704,173.01616826580613L206.239613199234,168.76422263131198L206.81731519699096,177.82915203020653L207.3950171947479,175.5071770544723L207.97271919250488,169.5925137205623L208.55042119026183,169.12991492139355L209.1281231880188,170.0952453473605" fill="none"></path></g></g></g></g></g></g><g transform="translate(41, 177)" clip-path="url(#clip_1)"><clipPath id="clip_1"><rect width="288" height="22"></rect></clipPath><g><g><line x1="0" y1="0" x2="0" y2="5" style="visibility: inherit;" fill="rgb(0, 0, 0)" stroke="rgb(204, 204, 204)" stroke-width="1px"></line><line x1="28.8850998878479" y1="0" x2="28.8850998878479" y2="5" style="visibility: inherit;" fill="rgb(0, 0, 0)" stroke="rgb(204, 204, 204)" stroke-width="1px"></line><line x1="57.7701997756958" y1="0" x2="57.7701997756958" y2="5" style="visibility: inherit;" fill="rgb(0, 0, 0)" stroke="rgb(204, 204, 204)" stroke-width="1px"></line><line x1="86.6552996635437" y1="0" x2="86.6552996635437" y2="5" style="visibility: inherit;" fill="rgb(0, 0, 0)" stroke="rgb(204, 204, 204)" stroke-width="1px"></line><line x1="115.5403995513916" y1="0" x2="115.5403995513916" y2="5" style="visibility: inherit;" fill="rgb(0, 0, 0)" stroke="rgb(204, 204, 204)" stroke-width="1px"></line><line x1="144.4254994392395" y1="0" x2="144.4254994392395" y2="5" style="visibility: inherit;" fill="rgb(0, 0, 0)" stroke="rgb(204, 204, 204)" stroke-width="1px"></line><line x1="173.3105993270874" y1="0" x2="173.3105993270874" y2="5" style="visibility: inherit;" fill="rgb(0, 0, 0)" stroke="rgb(204, 204, 204)" stroke-width="1px"></line><line x1="202.1956992149353" y1="0" x2="202.1956992149353" y2="5" style="visibility: inherit;" fill="rgb(0, 0, 0)" stroke="rgb(204, 204, 204)" stroke-width="1px"></line><line x1="231.0807991027832" y1="0" x2="231.0807991027832" y2="5" style="visibility: inherit;" fill="rgb(0, 0, 0)" stroke="rgb(204, 204, 204)" stroke-width="1px"></line><line x1="259.9658989906311" y1="0" x2="259.9658989906311" y2="5" style="visibility: inherit;" fill="rgb(0, 0, 0)" stroke="rgb(204, 204, 204)" stroke-width="1px"></line><line x1="288.850998878479" y1="0" x2="288.850998878479" y2="5" style="visibility: inherit;" fill="rgb(0, 0, 0)" stroke="rgb(204, 204, 204)" stroke-width="1px"></line></g><g transform="translate(0, 8)"><text style="text-anchor: middle; visibility: hidden; font-family: Roboto, sans-serif; font-size: 12px; font-weight: 200;" x="0" y="0" dx="0em" dy="0.95em" fill="rgb(50, 49, 63)" stroke="none" stroke-width="1px">-1k</text><text style="text-anchor: middle; visibility: inherit; font-family: Roboto, sans-serif; font-size: 12px; font-weight: 200;" x="28.8850998878479" y="0" dx="0em" dy="0.95em" fill="rgb(50, 49, 63)" stroke="none" stroke-width="1px">0</text><text style="text-anchor: middle; visibility: inherit; font-family: Roboto, sans-serif; font-size: 12px; font-weight: 200;" x="57.7701997756958" y="0" dx="0em" dy="0.95em" fill="rgb(50, 49, 63)" stroke="none" stroke-width="1px">1k</text><text style="text-anchor: middle; visibility: inherit; font-family: Roboto, sans-serif; font-size: 12px; font-weight: 200;" x="86.6552996635437" y="0" dx="0em" dy="0.95em" fill="rgb(50, 49, 63)" stroke="none" stroke-width="1px">2k</text><text style="text-anchor: middle; visibility: inherit; font-family: Roboto, sans-serif; font-size: 12px; font-weight: 200;" x="115.5403995513916" y="0" dx="0em" dy="0.95em" fill="rgb(50, 49, 63)" stroke="none" stroke-width="1px">3k</text><text style="text-anchor: middle; visibility: inherit; font-family: Roboto, sans-serif; font-size: 12px; font-weight: 200;" x="144.4254994392395" y="0" dx="0em" dy="0.95em" fill="rgb(50, 49, 63)" stroke="none" stroke-width="1px">4k</text><text style="text-anchor: middle; visibility: inherit; font-family: Roboto, sans-serif; font-size: 12px; font-weight: 200;" x="173.3105993270874" y="0" dx="0em" dy="0.95em" fill="rgb(50, 49, 63)" stroke="none" stroke-width="1px">5k</text><text style="text-anchor: middle; visibility: inherit; font-family: Roboto, sans-serif; font-size: 12px; font-weight: 200;" x="202.1956992149353" y="0" dx="0em" dy="0.95em" fill="rgb(50, 49, 63)" stroke="none" stroke-width="1px">6k</text><text style="text-anchor: middle; visibility: inherit; font-family: Roboto, sans-serif; font-size: 12px; font-weight: 200;" x="231.0807991027832" y="0" dx="0em" dy="0.95em" fill="rgb(50, 49, 63)" stroke="none" stroke-width="1px">7k</text><text style="text-anchor: middle; visibility: inherit; font-family: Roboto, sans-serif; font-size: 12px; font-weight: 200;" x="259.9658989906311" y="0" dx="0em" dy="0.95em" fill="rgb(50, 49, 63)" stroke="none" stroke-width="1px">8k</text><text style="text-anchor: middle; visibility: hidden; font-family: Roboto, sans-serif; font-size: 12px; font-weight: 200;" x="288.850998878479" y="0" dx="0em" dy="0.95em" fill="rgb(50, 49, 63)" stroke="none" stroke-width="1px">9k</text></g><line x1="0" y1="0" x2="288.850998878479" y2="0" fill="rgb(0, 0, 0)" stroke="rgb(204, 204, 204)" stroke-width="1px"></line></g></g></g></g></svg>