<svg viewBox="0 0 330 200" xmlns="http://www.w3.org/2000/svg"><g><g><g><g><g><line x1="51.53200149536133" y1="177.5999994277954" x2="46.53200149536133" y2="177.5999994277954" style="visibility: inherit;" fill="rgb(0, 0, 0)" stroke="rgb(204, 204, 204)" stroke-width="1px"></line><line x1="51.53200149536133" y1="159.83999948501588" x2="46.53200149536133" y2="159.83999948501588" style="visibility: inherit;" fill="rgb(0, 0, 0)" stroke="rgb(204, 204, 204)" stroke-width="1px"></line><line x1="51.53200149536133" y1="142.07999954223632" x2="46.53200149536133" y2="142.07999954223632" style="visibility: inherit;" fill="rgb(0, 0, 0)" stroke="rgb(204, 204, 204)" stroke-width="1px"></line><line x1="51.53200149536133" y1="124.31999959945678" x2="46.53200149536133" y2="124.31999959945678" style="visibility: inherit;" fill="rgb(0, 0, 0)" stroke="rgb(204, 204, 204)" stroke-width="1px"></line><line x1="51.53200149536133" y1="106.55999965667725" x2="46.53200149536133" y2="106.55999965667725" style="visibility: inherit;" fill="rgb(0, 0, 0)" stroke="rgb(204, 204, 204)" stroke-width="1px"></line><line x1="51.53200149536133" y1="88.7999997138977" x2="46.53200149536133" y2="88.7999997138977" style="visibility: inherit;" fill="rgb(0, 0, 0)" stroke="rgb(204, 204, 204)" stroke-width="1px"></line><line x1="51.53200149536133" y1="71.03999977111816" x2="46.53200149536133" y2="71.03999977111816" style="visibility: inherit;" fill="rgb(0, 0, 0)" stroke="rgb(204, 204, 204)" stroke-width="1px"></line><line x1="51.53200149536133" y1="53.27999982833863" x2="46.53200149536133" y2="53.27999982833863" style="visibility: inherit;" fill="rgb(0, 0, 0)" stroke="rgb(204, 204, 204)" stroke-width="1px"></line><line x1="51.53200149536133" y1="35.51999988555907" x2="46.53200149536133" y2="35.51999988555907" style="visibility: inherit;" fill="rgb(0, 0, 0)" stroke="rgb(204, 204, 204)" stroke-width="1px"></line><line x1="51.53200149536133" y1="17.759999942779537" x2="46.53200149536133" y2="17.759999942779537" style="visibility: inherit;" fill="rgb(0, 0, 0)" stroke="rgb(204, 204, 204)" stroke-width="1px"></line><line x1="51.53200149536133" y1="0" x2="46.53200149536133" y2="0" style="visibility: inherit;" fill="rgb(0, 0, 0)" stroke="rgb(204, 204, 204)" stroke-width="1px"></line></g><g transform="translate(41.53200149536133, 0)"><text style="text-anchor: end; visibility: hidden; font-family: Roboto, sans-serif; font-size: 12px; font-weight: 200;" x="0" y="177.5999994277954" dx="0em" dy="0.3em" fill="rgb(50, 49, 63)" stroke="none" stroke-width="1px">-0.5</text><text style="text-anchor: end; visibility: inherit; font-family: Roboto, sans-serif; font-size: 12px; font-weight: 200;" x="0" y="159.83999948501588" dx="0em" dy="0.3em" fill="rgb(50, 49, 63)" stroke="none" stroke-width="1px">0</text><text style="text-anchor: end; visibility: hidden; font-family: Roboto, sans-serif; font-size: 12px; font-weight: 200;" x="0" y="142.07999954223632" dx="0em" dy="0.3em" fill="rgb(50, 49, 63)" stroke="none" stroke-width="1px">0.5</text><text style="text-anchor: end; visibility: inherit; font-family: Roboto, sans-serif; font-size: 12px; font-weight: 200;" x="0" y="124.31999959945678" dx="0em" dy="0.3em" fill="rgb(50, 49, 63)" stroke="none" stroke-width="1px">1</text><text style="text-anchor: end; visibility: hidden; font-family: Roboto, sans-serif; font-size: 12px; font-weight: 200;" x="0" y="106.55999965667725" dx="0em" dy="0.3em" fill="rgb(50, 49, 63)" stroke="none" stroke-width="1px">1.5</text><text style="text-anchor: end; visibility: inherit; font-family: Roboto, sans-serif; font-size: 12px; font-weight: 200;" x="0" y="88.7999997138977" dx="0em" dy="0.3em" fill="rgb(50, 49, 63)" stroke="none" stroke-width="1px">2</text><text style="text-anchor: end; visibility: hidden; font-family: Roboto, sans-serif; font-size: 12px; font-weight: 200;" x="0" y="71.03999977111816" dx="0em" dy="0.3em" fill="rgb(50, 49, 63)" stroke="none" stroke-width="1px">2.5</text><text style="text-anchor: end; visibility: inherit; font-family: Roboto, sans-serif; font-size: 12px; font-weight: 200;" x="0" y="53.27999982833863" dx="0em" dy="0.3em" fill="rgb(50, 49, 63)" stroke="none" stroke-width="1px">3</text><text style="text-anchor: end; visibility: hidden; font-family: Roboto, sans-serif; font-size: 12px; font-weight: 200;" x="0" y="35.51999988555907" dx="0em" dy="0.3em" fill="rgb(50, 49, 63)" stroke="none" stroke-width="1px">3.5</text><text style="text-anchor: end; visibility: inherit; font-family: Roboto, sans-serif; font-size: 12px; font-weight: 200;" x="0" y="17.759999942779537" dx="0em" dy="0.3em" fill="rgb(50, 49, 63)" stroke="none" stroke-width="1px">4</text><text style="text-anchor: end; visibility: hidden; font-family: Roboto, sans-serif; font-size: 12px; font-weight: 200;" x="0" y="0" dx="0em" dy="0.3em" fill="rgb(50, 49, 63)" stroke="none" stroke-width="1px">4.5</text></g><line x1="51.53200149536133" y1="0" x2="51.53200149536133" y2="177.5999994277954" fill="rgb(0, 0, 0)" stroke="rgb(204, 204, 204)" stroke-width="1px"></line></g></g><g transform="translate(51, 0)" clip-path="url(#clip_0)"><clipPath id="clip_0"><rect width="278" height="177"></rect></clipPath><g><g><g><line x1="0" y1="0" x2="0" y2="177.5999994277954" fill="rgb(0, 0, 0)" stroke="rgb(60, 60, 60)" stroke-width="1px" opacity="0.25"></line><line x1="23.205666542053223" y1="0" x2="23.205666542053223" y2="177.5999994277954" fill="rgb(0, 0, 0)" stroke="rgb(60, 60, 60)" stroke-width="1px" opacity="0.25"></line><line x1="46.411333084106445" y1="0" x2="46.411333084106445" y2="177.5999994277954" fill="rgb(0, 0, 0)" stroke="rgb(60, 60, 60)" stroke-width="1px" opacity="0.25"></line><line x1="69.61699962615967" y1="0" x2="69.61699962615967" y2="177.5999994277954" fill="rgb(0, 0, 0)" stroke="rgb(60, 60, 60)" stroke-width="1px" opacity="0.25"></line><line x1="92.82266616821289" y1="0" x2="92.82266616821289" y2="177.5999994277954" fill="rgb(0, 0, 0)" stroke="rgb(60, 60, 60)" stroke-width="1px" opacity="0.25"></line><line x1="116.02833271026611" y1="0" x2="116.02833271026611" y2="177.5999994277954" fill="rgb(0, 0, 0)" stroke="rgb(60, 60, 60)" stroke-width="1px" opacity="0.25"></line><line x1="139.23399925231934" y1="0" x2="139.23399925231934" y2="177.5999994277954" fill="rgb(0, 0, 0)" stroke="rgb(60, 60, 60)" stroke-width="1px" opacity="0.25"></line><line x1="162.43966579437256" y1="0" x2="162.43966579437256" y2="177.5999994277954" fill="rgb(0, 0, 0)" stroke="rgb(60, 60, 60)" stroke-width="1px" opacity="0.25"></line><line x1="185.64533233642578" y1="0" x2="185.64533233642578" y2="177.5999994277954" fill="rgb(0, 0, 0)" stroke="rgb(60, 60, 60)" stroke-width="1px" opacity="0.25"></line><line x1="208.850998878479" y1="0" x2="208.850998878479" y2="177.5999994277954" fill="rgb(0, 0, 0)" stroke="rgb(60, 60, 60)" stroke-width="1px" opacity="0.25"></line><line x1="232.05666542053223" y1="0" x2="232.05666542053223" y2="177.5999994277954" fill="rgb(0, 0, 0)" stroke="rgb(60, 60, 60)" stroke-width="1px" opacity="0.25"></line><line x1="255.26233196258545" y1="0" x2="255.26233196258545" y2="177.5999994277954" fill="rgb(0, 0, 0)" stroke="rgb(60, 60, 60)" stroke-width="1px" opacity="0.25"></line><line x1="278.4679985046387" y1="0" x2="278.4679985046387" y2="177.5999994277954" fill="rgb(0, 0, 0)" stroke="rgb(60, 60, 60)" stroke-width="1px" opacity="0.25"></line></g><g><line x1="0" y1="177.5999994277954" x2="278.4679985046387" y2="177.5999994277954" fill="rgb(0, 0, 0)" stroke="rgb(60, 60, 60)" stroke-width="1px" opacity="0.25"></line><line x1="0" y1="159.83999948501588" x2="278.4679985046387" y2="159.83999948501588" fill="rgb(0, 0, 0)" stroke="rgb(60, 60, 60)" stroke-width="1px" opacity="0.25"></line><line x1="0" y1="142.07999954223632" x2="278.4679985046387" y2="142.07999954223632" fill="rgb(0, 0, 0)" stroke="rgb(60, 60, 60)" stroke-width="1px" opacity="0.25"></line><line x1="0" y1="124.31999959945678" x2="278.4679985046387" y2="124.31999959945678" fill="rgb(0, 0, 0)" stroke="rgb(60, 60, 60)" stroke-width="1px" opacity="0.25"></line><line x1="0" y1="106.55999965667725" x2="278.4679985046387" y2="106.55999965667725" fill="rgb(0, 0, 0)" stroke="rgb(60, 60, 60)" stroke-width="1px" opacity="0.25"></line><line x1="0" y1="88.7999997138977" x2="278.4679985046387" y2="88.7999997138977" fill="rgb(0, 0, 0)" stroke="rgb(60, 60, 60)" stroke-width="1px" opacity="0.25"></line><line x1="0" y1="71.03999977111816" x2="278.4679985046387" y2="71.03999977111816" fill="rgb(0, 0, 0)" stroke="rgb(60, 60, 60)" stroke-width="1px" opacity="0.25"></line><line x1="0" y1="53.27999982833863" x2="278.4679985046387" y2="53.27999982833863" fill="rgb(0, 0, 0)" stroke="rgb(60, 60, 60)" stroke-width="1px" opacity="0.25"></line><line x1="0" y1="35.51999988555907" x2="278.4679985046387" y2="35.51999988555907" fill="rgb(0, 0, 0)" stroke="rgb(60, 60, 60)" stroke-width="1px" opacity="0.25"></line><line x1="0" y1="17.759999942779537" x2="278.4679985046387" y2="17.759999942779537" fill="rgb(0, 0, 0)" stroke="rgb(60, 60, 60)" stroke-width="1px" opacity="0.25"></line><line x1="0" y1="0" x2="278.4679985046387" y2="0" fill="rgb(0, 0, 0)" stroke="rgb(60, 60, 60)" stroke-width="1px" opacity="0.25"></line></g></g></g><g><g><line x1="0" y1="159.83999948501588" x2="278.4679985046387" y2="159.83999948501588" fill="rgb(0, 0, 0)" stroke="rgb(153, 153, 153)" stroke-width="1.5px"></line></g></g><g><g><line x1="23.205666542053223" y1="0" x2="23.205666542053223" y2="177.5999994277954" fill="rgb(0, 0, 0)" stroke="rgb(153, 153, 153)" stroke-width="1.5px"></line></g></g><g><g><g><g><g><path style="fill: none;" stroke="rgb(0, 153, 136)" stroke-width="2px" d="M26.91857318878174,-19.589754595569442L27.846799850463867,0.9709249257233842L28.775026512145995,17.902689699075815L29.703253173828127,29.866508520981956L30.631479835510255,41.07099099988454L31.55970649719238,50.180809331268605L32.48793315887451,57.814158476192986L33.416159820556636,65.7878811274448L34.34438648223877,70.61054366556226L35.2726131439209,75.21755917595296L36.20083980560303,78.07293346503056L37.129066467285156,84.59307885426382L38.05729312896728,87.03589152636803L38.98551979064942,88.1182547713175L39.913746452331544,92.07052278016991L40.84197311401367,88.76751927409694L41.7701997756958,94.3976234798875L42.698426437377925,94.48955823878654L43.626653099060064,93.1636774493715L44.55487976074219,97.28895314780094L45.483106422424314,100.59958599884202L46.411333084106445,102.26939844719412L47.33955974578858,104.35253759202948L48.2677864074707,105.92895835076632L49.19601306915283,109.84673397086702L50.12423973083496,108.28381933467529L51.05246639251708,108.8305587744465L51.98069305419922,111.12577334900249L52.908919715881346,112.18249819974332L53.83714637756348,113.04474905659679L54.7653730392456,113.99154537693684L55.693599700927734,114.9103259810358L56.621826362609866,116.31226462803974L57.55005302429199,117.4806064760113L58.478279685974115,115.88260436689562L59.406506347656254,117.45471691729304L60.33473300933838,119.43201407625271L61.26295967102051,121.20651825401144L62.191186332702635,121.66362380755665L63.11941299438476,122.20086174817258L64.04763965606689,122.19618336482056L64.97586631774902,124.22063882535275L65.90409297943116,122.62038761104354L66.83231964111327,123.32332889530285L67.76054630279542,123.28299536258237L68.68877296447754,123.94420957027648L69.61699962615967,124.79752924942652L70.5452262878418,126.03243446858833L71.47345294952392,127.35269780390611L72.40167961120606,128.45543511165113L73.32990627288818,128.10022817248554L74.25813293457031,129.69936073990348L75.18635959625244,128.49789795790895L76.11458625793456,127.37900663337848L77.04281291961671,128.77069226353223L77.97103958129884,128.64816689391597L78.89926624298096,130.80402643608167L79.82749290466309,129.40780770349426L80.7557195663452,128.24660621199328L81.68394622802734,129.15537880404648L82.61217288970948,129.37713653909267L83.5403995513916,130.81179727028712L84.46862621307373,130.49670948122497L85.39685287475585,132.43808835762533L86.32507953643798,133.3083234526642L87.25330619812013,132.71270301579128L88.18153285980225,132.82917927814182L89.10975952148438,131.82697739252185L90.0379861831665,133.4355015222796L90.96621284484863,132.94797870623046L91.89443950653077,132.74871815961106L92.82266616821289,134.93939590164976L93.75089282989502,134.8855339584469L94.67911949157715,134.96432688433026L95.60734615325927,134.5227612565476L96.5355728149414,132.1121544215811L97.46379947662354,132.3718724760541L98.39202613830567,133.39732977077986L99.3202527999878,131.91532304170155L100.24847946166992,134.08692079035256L101.17670612335205,133.4093857935803L102.10493278503417,133.99277795455902L103.03315944671631,136.4710454983177L103.96138610839844,136.39551961755868L104.88961277008056,137.30506305666893L105.81783943176269,138.73376552720234L106.74606609344484,138.4218683685748L107.67429275512696,137.38490241652937L108.60251941680909,136.9462100654751L109.5307460784912,138.81027248764934L110.45897274017334,137.42400568724398L111.38719940185547,138.25450345992152L112.3154260635376,136.53591096398358L113.24365272521973,136.3514522715542L114.17187938690185,135.5707798658724L115.10010604858398,137.2352215312532L116.02833271026611,136.7109985806763L116.95655937194823,137.33556620195782L117.88478603363038,137.0706509845513L118.81301269531251,137.0254473829157L119.74123935699463,136.2110468507526L120.66946601867676,137.0305012843203L121.59769268035888,139.4787852128762L122.52591934204102,139.18105497603145L123.45414600372315,138.07692622106165L124.38237266540527,138.18535663466338L125.3105993270874,136.02090716143096L126.23882598876952,137.74267439555547L127.16705265045167,138.67283497897643L128.09527931213378,138.81093989056285L129.0235059738159,137.68873317739582L129.95173263549805,138.5820824461447L130.87995929718016,139.52858418594215L131.8081859588623,141.0806769838518L132.73641262054443,141.10161867779857L133.66463928222655,140.9604120424404L134.5928659439087,140.75732713021034L135.52109260559084,139.2364393755512L136.44931926727295,140.87309667883702L137.37754592895507,139.94667644751135L138.3057725906372,140.3223073226826L139.23399925231934,139.79431416899928L140.16222591400145,141.16903523911282L141.0904525756836,142.14526111876083L142.01867923736572,140.7172513565594L142.94690589904783,139.45318240850966L143.87513256073,139.6344665691839L144.80335922241213,140.1907583196397L145.73158588409424,138.62061644489506L146.65981254577636,138.71849999803308L147.5880392074585,140.5367806613562L148.51626586914062,139.70198900238324L149.44449253082274,140.63982548918054L150.3727191925049,139.04422557699442L151.300945854187,139.4417487048463L152.22917251586912,141.35325484377591L153.15739917755127,143.37826250913727L154.08562583923342,143.13809854157032L155.01385250091553,142.83548777140413L155.94207916259768,140.97110332156217L156.8703058242798,138.6656977683957L157.7985324859619,141.23609773430454L158.72675914764403,141.37510216081472L159.65498580932618,140.55147327209679L160.5832124710083,139.31943793953434L161.5114391326904,141.2096659998662L162.43966579437256,142.5831622522558L163.36789245605468,142.1852657907077L164.2961191177368,140.38042116833637L165.22434577941897,141.3444300301033L166.15257244110109,141.36948419080423L167.0807991027832,143.13201805488558L168.00902576446535,142.71635110696263L168.93725242614747,144.7458066246838L169.86547908782958,143.8951484104558L170.7937057495117,143.61806672121853L171.72193241119385,139.46766533098625L172.65015907287597,141.8737649656906L173.57838573455808,142.7832643478436L174.50661239624026,143.09681263358405L175.43483905792237,144.0526608332067L176.3630657196045,144.08155906747908L177.29129238128664,143.95425214974387L178.21951904296876,144.5063062447587L179.14774570465087,142.9111045420197L180.075972366333,143.00059753067615L181.00419902801514,144.89813083852874L181.93242568969725,145.86190957853353L182.86065235137937,144.93286225601216L183.78887901306155,145.41047591620193L184.71710567474366,146.05686976041792L185.64533233642578,144.71074307128293L186.57355899810793,142.96410370480908L187.50178565979004,141.93385931979194L188.43001232147216,141.41416726304942L189.3582389831543,142.80829868641038L190.28646564483643,143.4668686054533L191.21469230651854,143.1079901811956L192.14291896820066,144.12075644543813L193.0711456298828,141.7620734935091L193.99937229156492,143.57561449014727L194.92759895324707,142.59582379633085L195.85582561492922,143.25813523187853L196.78405227661133,143.66194173658855" fill="none"></path></g><g><path style="fill: none;" stroke="rgb(204, 51, 17)" stroke-width="2px" d="M35.2726131439209,-3.915982482243053L36.20083980560303,10.960145936284725L37.129066467285156,19.586377611490686L38.05729312896728,27.772302725638863L38.98551979064942,39.51609290682081L39.913746452331544,44.78939461249198L40.84197311401367,54.51379504385812L41.7701997756958,63.91932355588591L42.698426437377925,68.70267411538082L43.626653099060064,72.44351052858299L44.55487976074219,80.05858053003986L45.483106422424314,81.12484472427826L46.411333084106445,79.11832671460793L47.33955974578858,86.6167195958519L48.2677864074707,94.05831587009405L49.19601306915283,95.5276584708189L50.12423973083496,100.76619416884321L51.05246639251708,103.4285456955039L51.98069305419922,106.92520555396011L52.908919715881346,110.14893266430106L53.83714637756348,110.98556010045974L54.7653730392456,113.0580199061541L55.693599700927734,114.27441140073257L56.621826362609866,116.11580452028679L57.55005302429199,116.17553548003775L58.478279685974115,117.48191214042103L59.406506347656254,119.79157316914333L60.33473300933838,121.87106050232663L61.26295967102051,126.1074925932955L62.191186332702635,125.38972615422868L63.11941299438476,125.70137032003028L64.04763965606689,126.83220064282783L64.97586631774902,128.25750563491383L65.90409297943116,130.00847553063733L66.83231964111327,130.70917356564547L67.76054630279542,131.2693018817365L68.68877296447754,131.81142312884177L69.61699962615967,132.835336507484L70.5452262878418,133.487676493162L71.47345294952392,133.53134846054087L72.40167961120606,134.377276713096L73.32990627288818,134.81917300504998L74.25813293457031,134.87276868953404L75.18635959625244,133.3501563069546L76.11458625793456,135.78402323094141L77.04281291961671,137.56436097768608L77.97103958129884,137.37362163607548L78.89926624298096,137.9619521987668L79.82749290466309,138.63939637426446L80.7557195663452,138.63606428164022L81.68394622802734,138.4629733365534L82.61217288970948,138.01495627213606L83.5403995513916,138.8597358812772L84.46862621307373,139.91729141964584L85.39685287475585,139.96511820158858L86.32507953643798,140.6390889955429L87.25330619812013,140.46550963600905L88.18153285980225,142.6398281498802L89.10975952148438,143.0993624028628L90.0379861831665,142.32117914945414L90.96621284484863,141.99318179461764L91.89443950653077,143.17681546039805L92.82266616821289,144.46434690770099L93.75089282989502,145.56282919208576L94.67911949157715,145.4215515036803L95.60734615325927,145.64718466228098L96.5355728149414,144.95524439638012L97.46379947662354,145.3291179654681L98.39202613830567,145.2088858183581L99.3202527999878,145.85893079290207L100.24847946166992,146.57368011621236L101.17670612335205,146.24771751780625L102.10493278503417,147.07349035830393L103.03315944671631,147.82501403644795L103.96138610839844,148.30566667707643L104.88961277008056,147.7670450881537L105.81783943176269,147.66565279662214L106.74606609344484,148.02139007508518L107.67429275512696,148.7368641368651L108.60251941680909,147.39955045035234L109.5307460784912,147.4071505056409L110.45897274017334,147.8101446615233L111.38719940185547,148.46915869444945L112.3154260635376,148.4869078060347L113.24365272521973,148.43883919456178L114.17187938690185,148.62725474847463L115.10010604858398,149.32950505624945L116.02833271026611,149.76894888785918L116.95655937194823,150.23875852722534L117.88478603363038,149.38554584190697L118.81301269531251,148.65554852164067L119.74123935699463,149.09053524934893L120.66946601867676,149.2785268665924L121.59769268035888,149.55658075898293L122.52591934204102,150.11343363530543L123.45414600372315,150.40521492452876L124.38237266540527,150.17621497377868L125.3105993270874,151.0665725550253L126.23882598876952,151.49316460465403L127.16705265045167,151.38341568827067L128.09527931213378,151.4533057407743L129.0235059738159,152.27200921137845L129.95173263549805,152.50456742853123L130.87995929718016,152.49118942596596L131.8081859588623,152.00951099555124L132.73641262054443,152.24362674979542L133.66463928222655,152.86402774223853L134.5928659439087,152.84751046923645L135.52109260559084,153.06001718464415L136.44931926727295,152.8127192207726L137.37754592895507,152.35327800067236L138.3057725906372,152.46790332358339L139.23399925231934,151.99798676758547L140.16222591400145,152.2471392111208L141.0904525756836,153.01283958905975L142.01867923736572,153.29803536913408L142.94690589904783,152.65900917066045L143.87513256073,153.70563327050098L144.80335922241213,152.71817736718654L145.73158588409424,152.86551638384944L146.65981254577636,153.02481999350888L147.5880392074585,152.3773509856274L148.51626586914062,152.8171604584331L149.44449253082274,152.77792049840934L150.3727191925049,152.94929850739325L151.300945854187,153.37374093522155L152.22917251586912,153.62108865054805L153.15739917755127,153.79280463745695L154.08562583923342,153.36357292073978L155.01385250091553,154.20613480212023L155.94207916259768,153.99876430900068L156.8703058242798,154.32248105358576L157.7985324859619,154.485334410527L158.72675914764403,154.30320781399058L159.65498580932618,154.188442068031L160.5832124710083,154.73040950752534L161.5114391326904,154.63206542119485L162.43966579437256,154.1071631216697L163.36789245605468,154.14121792041092L164.2961191177368,154.54877761038955L165.22434577941897,154.09582876170697L166.15257244110109,154.49892673891253L167.0807991027832,154.84989807943452L168.00902576446535,154.90550202911396L168.93725242614747,155.32080819766358L169.86547908782958,155.2686685908195L170.7937057495117,155.04500681753672L171.72193241119385,155.2494299574016L172.65015907287597,155.09164035887142L173.57838573455808,155.38615636824423L174.50661239624026,155.4528718355047L175.43483905792237,155.69440258959224L176.3630657196045,155.42647416150845L177.29129238128664,155.90252838857904L178.21951904296876,155.88909905807103L179.14774570465087,155.8818307358867L180.075972366333,155.91706057801986L181.00419902801514,155.89659994789605L181.93242568969725,156.2045519251514L182.86065235137937,156.27884467348318L183.78887901306155,156.47285010868293L184.71710567474366,156.39673700441813L185.64533233642578,155.88021671207895L186.57355899810793,155.89800201009933L187.50178565979004,155.34639260543415L188.43001232147216,154.98173960770208L189.3582389831543,155.4264436336463L190.28646564483643,155.66587480155178L191.21469230651854,155.10735076243859L192.14291896820066,154.92102102744087L193.0711456298828,155.6128064186402L193.99937229156492,155.1053813356075L194.92759895324707,155.4907773272664L195.85582561492922,155.5881960988785L196.78405227661133,155.522809875024L197.71227893829345,155.67207783588185L198.6405055999756,155.15512426822795L199.56873226165771,154.47421909851084L200.49695892333983,154.8292079117926L201.42518558502198,155.00804574142137L202.3534122467041,155.19346962615703L203.2816389083862,154.85816410392974L204.20986557006833,155.60163146236977L205.1380922317505,155.5655124389849L206.06631889343262,155.7824667403946L206.99454555511474,155.67273653671214L207.9227722167969,156.12720816052223L208.850998878479,156.4613488143588L209.77922554016112,156.71135721334474L210.70745220184327,156.64863593029392L211.63567886352538,156.77454782050478L212.5639055252075,156.07900584769484L213.49213218688968,155.90130133737017L214.4203588485718,156.03555372004467L215.3485855102539,156.4661255027926L216.27681217193603,156.56447787795713L217.20503883361818,156.12780209266253L218.1332654953003,156.7601868864531L219.0614921569824,157.13403254383908L219.98971881866456,157.18042094680132L220.91794548034667,156.9432367470009L221.8461721420288,156.78068366584554L222.77439880371094,156.8413560545805L223.70262546539308,157.05925192269208L224.6308521270752,156.41775696599794L225.55907878875735,156.39079247831603L226.48730545043946,156.62810099039552L227.41553211212158,156.87166799352696L228.3437587738037,156.73597310567666L229.27198543548585,156.71671420804452L230.20021209716796,156.89918138032237L231.12843875885008,156.92460176555628L232.05666542053223,157.10063724889469L232.98489208221434,156.93949305494732L233.91311874389646,156.66262790546952L234.84134540557864,156.9860371106763L235.76957206726075,157.3716661798216L236.69779872894287,157.51845213798833L237.62602539062502,157.25338007684584L238.55425205230713,157.18005629178845L239.48247871398925,157.26236610131022L240.41070537567137,156.71615783267694L241.33893203735352,157.18211416052003L242.26715869903563,157.47211913671578L243.19538536071775,157.50735481512197L244.12361202239993,157.85775446371196L245.05183868408204,158.08136118807604L245.98006534576416,158.0610367016163L246.9082920074463,157.98906138315922L247.83651866912842,157.77913737731458L248.76474533081054,157.72900948017818L249.69297199249266,158.00354738210447L250.6211986541748,157.9784421238032L251.54942531585692,157.95822490895208L252.47765197753904,157.76924088903334L253.4058786392212,157.66561332304366L254.33410530090333,157.7205694458456L255.26233196258545,157.45934023389322" fill="none"></path></g></g></g></g><g opacity="0.2"><g><g><g><path style="fill: none;" stroke="rgb(0, 153, 136)" stroke-width="2px" d="M25.99034652709961,-11.182060968611495L26.91857318878174,5.2598309156706895L27.846799850463867,29.41374654829906L28.775026512145995,42.115384233206086L29.703253173828127,47.30987121598183L30.631479835510255,57.59542629758916L31.55970649719238,63.707827858706324L32.48793315887451,69.19494827864959L33.416159820556636,77.70507245777402L34.34438648223877,77.82879064280023L35.2726131439209,82.11905681855274L36.20083980560303,82.35263851335681L37.129066467285156,94.36869842642481L38.05729312896728,90.69907681806966L38.98551979064942,89.74152482683103L39.913746452331544,97.99832270519694L40.84197311401367,83.81331592259112L41.7701997756958,102.84247102027818L42.698426437377925,94.62745735198273L43.626653099060064,91.17488244245219L44.55487976074219,103.47681782762162L45.483106422424314,105.5655117448423L46.411333084106445,104.77410999873486L47.33955974578858,107.47724097910043L48.2677864074707,108.29358706869438L49.19601306915283,115.72339379219302L50.12423973083496,105.93944824418683L51.05246639251708,109.65066775279861L51.98069305419922,114.56859475416559L52.908919715881346,113.76758534970288L53.83714637756348,114.33812528011565L54.7653730392456,115.41173981675671L55.693599700927734,116.28849686349245L56.621826362609866,118.41517257685541L57.55005302429199,119.23311923712292L58.478279685974115,113.48560121212263L59.406506347656254,119.81288573763537L60.33473300933838,122.39795981072747L61.26295967102051,123.86827451851472L62.191186332702635,122.34928213754448L63.11941299438476,123.00671865886379L64.04763965606689,122.18916578979373L64.97586631774902,127.25732201583538L65.90409297943116,120.22001078972941L66.83231964111327,124.37774082165235L67.76054630279542,123.22249506350306L68.68877296447754,124.93603088180429L69.61699962615967,126.07750876814124L70.5452262878418,127.88479229732206L71.47345294952392,129.333092806877L72.40167961120606,130.10954107326577L73.32990627288818,127.56741776373768L74.25813293457031,132.09805959102894L75.18635959625244,126.6957037849178L76.11458625793456,125.70066964658315L77.04281291961671,130.85822070876256L77.97103958129884,128.4643788394916L78.89926624298096,134.0378157493301L79.82749290466309,127.31347960461319L80.7557195663452,126.50480397474185L81.68394622802734,130.51853769212627L82.61217288970948,129.70977314166194L83.5403995513916,132.9637883670788L84.46862621307373,130.02407779763172L85.39685287475585,135.35015667222592L86.32507953643798,134.61367609522253L87.25330619812013,131.81927236048185L88.18153285980225,133.00389367166758L89.10975952148438,130.323674564092L90.0379861831665,135.84828771691616L90.96621284484863,132.21669448215673L91.89443950653077,132.44982733968197L92.82266616821289,138.2254125147078L93.75089282989502,134.8047410436426L94.67911949157715,135.08251627315536L95.60734615325927,133.86041281487357L96.5355728149414,128.49624416913133L97.46379947662354,132.76144955776365L98.39202613830567,134.93551571286847L99.3202527999878,129.69231294808415L100.24847946166992,137.34431741332907L101.17670612335205,132.3930832984219L102.10493278503417,134.8678661960271L103.03315944671631,140.18844681395566L103.96138610839844,136.28223079642015L104.88961277008056,138.6693782153343L105.81783943176269,140.87681923300246L106.74606609344484,137.95402263063346L107.67429275512696,135.8294534884612L108.60251941680909,136.2881715388937L109.5307460784912,141.60636612091076L110.45897274017334,135.34460548663588L111.38719940185547,139.50025011893786L112.3154260635376,133.95802222007666L113.24365272521973,136.07476423291013L114.17187938690185,134.3997712573497L115.10010604858398,139.73188402932436L116.02833271026611,135.92466415481096L116.95655937194823,138.27241763388008L117.88478603363038,136.6732781584415L118.81301269531251,136.9576419804623L119.74123935699463,134.98944605250796L120.66946601867676,138.25968293467184L121.59769268035888,143.15121110571008L122.52591934204102,138.73445962076426L123.45414600372315,136.42073308860697L124.38237266540527,138.348002255066L125.3105993270874,132.77423295158235L126.23882598876952,140.3253252467422L127.16705265045167,140.0680758541079L128.09527931213378,139.01809725794246L129.0235059738159,136.00542310764524L129.95173263549805,139.92210634926812L130.87995929718016,140.94833679563826L131.8081859588623,143.4088161807163L132.73641262054443,141.13303121871874L133.66463928222655,140.7486020894031L134.5928659439087,140.45269976186526L135.52109260559084,136.95510774356254L136.44931926727295,143.3280826337657L137.37754592895507,138.55704610052288L138.3057725906372,140.8857536354395L139.23399925231934,139.00232443847423L140.16222591400145,143.23111684428318L141.0904525756836,143.60959993823283L142.01867923736572,138.57523671325723L142.94690589904783,137.55707898643507L143.87513256073,139.90639281019523L144.80335922241213,141.0251959453235L145.73158588409424,136.2654036327781L146.65981254577636,138.8653253277401L147.5880392074585,143.2642016563409L148.51626586914062,138.44980151392383L149.44449253082274,142.04658021937647L150.3727191925049,136.65082570871525L151.300945854187,140.03803339662412L152.22917251586912,144.2205140521703L153.15739917755127,146.41577400717938L154.08562583923342,142.77785259021988L155.01385250091553,142.38157161615484L155.94207916259768,138.17452664679925L156.8703058242798,135.20758943864593L157.7985324859619,145.09169768316778L158.72675914764403,141.58360880058L159.65498580932618,139.3160299390199L160.5832124710083,137.47138494069065L161.5114391326904,144.04500809036395L162.43966579437256,144.64340663084016L163.36789245605468,141.58842109838557L164.2961191177368,137.67315423477936L165.22434577941897,142.79044332275376L166.15257244110109,141.4070654318556L167.0807991027832,145.77581885100759L168.00902576446535,142.09285068507822L168.93725242614747,147.7899899012656L169.86547908782958,142.61916108911373L170.7937057495117,143.20244418736263L171.72193241119385,133.24206324563778L172.65015907287597,145.48291441774717L173.57838573455808,144.1475134210731L174.50661239624026,143.56713506219472L175.43483905792237,145.48643313264063L176.3630657196045,144.12490641888763L177.29129238128664,143.7632917731411L178.21951904296876,145.33438738728088L179.14774570465087,140.51830198791123L180.075972366333,143.13483701366079L181.00419902801514,147.74443080030767L181.93242568969725,147.3075776885407L182.86065235137937,143.53929127223012L183.78887901306155,146.12689640648657L184.71710567474366,147.02646052674197L185.64533233642578,142.69155303758043L186.57355899810793,140.34414465509832L187.50178565979004,140.38849274226624L188.43001232147216,140.6346291779356L189.3582389831543,144.89949582145184L190.28646564483643,144.45472348401765L191.21469230651854,142.56967254480907L192.14291896820066,145.63990584180192L193.0711456298828,138.22404906561553L193.99937229156492,146.29592598510456L194.92759895324707,141.12613775560618L195.85582561492922,144.25160238520002L196.78405227661133,144.26765149365357" fill="none"></path></g><g><path style="fill: none;" stroke="rgb(204, 51, 17)" stroke-width="2px" d="M33.416159820556636,-11.611335716984286L34.34438648223877,12.044980277354725L35.2726131439209,19.59547341709049L36.20083980560303,33.2568522335489L37.129066467285156,32.519641237388946L38.05729312896728,40.047726387694965L38.98551979064942,57.12879643153888L39.913746452331544,52.698543836559665L40.84197311401367,69.09950684218951L41.7701997756958,78.0271005023908L42.698426437377925,75.87754255643553L43.626653099060064,78.05469129209682L44.55487976074219,91.48109532446121L45.483106422424314,82.72423343708634L46.411333084106445,76.10855825698518L47.33955974578858,97.86428973138561L48.2677864074707,105.22069885685413L49.19601306915283,97.73167101843399L50.12423973083496,108.62399482062058L51.05246639251708,107.42207210263022L51.98069305419922,112.17019464592613L52.908919715881346,114.98452294496418L53.83714637756348,112.24050119477188L54.7653730392456,116.166709525628L55.693599700927734,116.09899861123434L56.621826362609866,118.87789417112874L57.55005302429199,116.26513191910972L58.478279685974115,119.44147712371968L59.406506347656254,123.25606470450818L60.33473300933838,124.99029149793195L61.26295967102051,132.46214072465207L62.191186332702635,124.31307649614656L63.11941299438476,126.16883656859773L64.04763965606689,128.52844612673022L64.97586631774902,130.39546312282064L65.90409297943116,132.63493037405874L66.83231964111327,131.7602206181184L67.76054630279542,132.10949435585417L68.68877296447754,132.62460499948872L69.61699962615967,134.37120657543488L70.5452262878418,134.4661864716743L71.47345294952392,133.59685641160894L72.40167961120606,135.64616909192648L73.32990627288818,135.48201744298026L74.25813293457031,134.9531622162601L75.18635959625244,131.06623773308627L76.11458625793456,139.43482361692085L77.04281291961671,140.2348675978027L77.97103958129884,137.08751262365962L78.89926624298096,138.8444480428037L79.82749290466309,139.65556263751094L80.7557195663452,138.63106614270382L81.68394622802734,138.2033369189232L82.61217288970948,137.34293067551005L83.5403995513916,140.12690529498892L84.46862621307373,141.5036247271988L85.39685287475585,140.03685837450266L86.32507953643798,141.65004518647436L87.25330619812013,140.20514059670828L88.18153285980225,145.9013059206869L89.10975952148438,143.7886637823367L90.0379861831665,141.15390426934118L90.96621284484863,141.50118576236292L91.89443950653077,144.95226595906868L92.82266616821289,146.39564407865535L93.75089282989502,147.2105526186629L94.67911949157715,145.20963497107212L95.60734615325927,145.98563440018205L96.5355728149414,143.91733399752883L97.46379947662354,145.88992831910002L98.39202613830567,145.02853759769317L99.3202527999878,146.833998254718L100.24847946166992,147.6458041011778L101.17670612335205,145.75877362019702L102.10493278503417,148.31214961905044L103.03315944671631,148.95229955366398L103.96138610839844,149.02664563801918L104.88961277008056,146.9591127047696L105.81783943176269,147.5135643593248L106.74606609344484,148.55499599277974L107.67429275512696,149.810075229535L108.60251941680909,145.39357992058322L109.5307460784912,147.4185505885738L110.45897274017334,148.41463589534683L111.38719940185547,149.4576797438387L112.3154260635376,148.5135314734126L113.24365272521973,148.36673627735235L114.17187938690185,148.90987807934388L115.10010604858398,150.38288051791164L116.02833271026611,150.42811463527386L116.95655937194823,150.94347298627457L117.88478603363038,148.10572681392938L118.81301269531251,147.5605525412413L119.74123935699463,149.7430153409113L120.66946601867676,149.56051429245758L121.59769268035888,149.97366159756874L122.52591934204102,150.94871294978918L123.45414600372315,150.84288685836378L124.38237266540527,149.83271504765358L125.3105993270874,152.40210892689515L126.23882598876952,152.13305267909715L127.16705265045167,151.21879231369562L128.09527931213378,151.55814081952977L129.0235059738159,153.50006441728468L129.95173263549805,152.8534047542604L130.87995929718016,152.47112242211804L131.8081859588623,151.28699334992913L132.73641262054443,152.59480038116172L133.66463928222655,153.79462923090318L134.5928659439087,152.82273455973336L135.52109260559084,153.3787772577557L136.44931926727295,152.4417722749653L137.37754592895507,151.66411617052196L138.3057725906372,152.6398413079499L139.23399925231934,151.29311193358862L140.16222591400145,152.6208678764238L141.0904525756836,154.16139015596818L142.01867923736572,153.72582903924558L142.94690589904783,151.70046987294998L143.87513256073,155.27556942026175L144.80335922241213,151.23699351221487L145.73158588409424,153.08652490884378L146.65981254577636,153.26377540799805L147.5880392074585,151.4061474738052L148.51626586914062,153.47687466764168L149.44449253082274,152.71906055837366L150.3727191925049,153.20636552086918L151.300945854187,154.01040457696396L152.22917251586912,153.99211022353782L153.15739917755127,154.0503786178203L154.08562583923342,152.71972534566402L155.01385250091553,155.46997762419088L155.94207916259768,153.68770856932142L156.8703058242798,154.80805617046337L157.7985324859619,154.7296144459389L158.72675914764403,154.03001791918595L159.65498580932618,154.01629344909162L160.5832124710083,155.5433606667668L161.5114391326904,154.48454929169915L162.43966579437256,153.31980967238204L163.36789245605468,154.1923001185227L164.2961191177368,155.16011714535753L165.22434577941897,153.41640548868307L166.15257244110109,155.10357370472093L167.0807991027832,155.3763550902175L168.00902576446535,154.98890795363315L168.93725242614747,155.94376745048805L169.86547908782958,155.19045918055335L170.7937057495117,154.70951415761255L171.72193241119385,155.5560646671989L172.65015907287597,154.85495596107614L173.57838573455808,155.82793038230352L174.50661239624026,155.55294503639536L175.43483905792237,156.05669872072355L176.3630657196045,155.02458151938276L177.29129238128664,156.61660972918494L178.21951904296876,155.86895506230897L179.14774570465087,155.87092825261024L180.075972366333,155.96990534121957L181.00419902801514,155.86590900271034L181.93242568969725,156.66647989103447L182.86065235137937,156.39028379598088L183.78887901306155,156.7638582614826L184.71710567474366,156.2825673480209L185.64533233642578,155.1054362735702L186.57355899810793,155.92467995712988L187.50178565979004,154.51897849843638L188.43001232147216,154.43476011110397L189.3582389831543,156.0934996725627L190.28646564483643,156.02502155341L191.21469230651854,154.26956470376876L192.14291896820066,154.64152642494432L193.0711456298828,156.65048450543918L193.99937229156492,154.34424371105837L194.92759895324707,156.06887131475477L195.85582561492922,155.73432425629667L196.78405227661133,155.4247305392422L197.71227893829345,155.89597977716866L198.6405055999756,154.37969391674707L199.56873226165771,153.45286134393518L200.49695892333983,155.36169113171522L201.42518558502198,155.27630248586453L202.3534122467041,155.4716054532605L203.2816389083862,154.3552058205888L204.20986557006833,156.7168325000298L205.1380922317505,155.51133390390765L206.06631889343262,156.1078981925091L206.99454555511474,155.50814123118846L207.9227722167969,156.8089155962373L208.850998878479,156.96255979511363L209.77922554016112,157.08636981182366L210.70745220184327,156.55455400571773L211.63567886352538,156.96341565582102L212.5639055252075,155.03569288847996L213.49213218688968,155.63474457188315L214.4203588485718,156.23693229405643L215.3485855102539,157.11198317691446L216.27681217193603,156.7120064407039L217.20503883361818,155.4727884147206L218.1332654953003,157.70876407713902L219.0614921569824,157.694801029918L219.98971881866456,157.25000355124473L220.91794548034667,156.58746044730026L221.8461721420288,156.53685404411246L222.77439880371094,156.932364637683L223.70262546539308,157.38609572485944L224.6308521270752,155.4555145309567L225.55907878875735,156.35034574679315L226.48730545043946,156.98406375851482L227.41553211212158,157.23701849822413L228.3437587738037,156.53243077390118L229.27198543548585,156.68782586159634L230.20021209716796,157.17288213873914L231.12843875885008,156.96273234340714L232.05666542053223,157.36469047390224L232.98489208221434,156.6977767640263L233.91311874389646,156.24733018125286L234.84134540557864,157.47115091848647L235.76957206726075,157.95010978353955L236.69779872894287,157.73863107523843L237.62602539062502,156.85577198513207L238.55425205230713,157.07007061420236L239.48247871398925,157.38583081559287L240.41070537567137,155.89684542972705L241.33893203735352,157.8810486522847L242.26715869903563,157.90712660100934L243.19538536071775,157.56020833273124L244.12361202239993,158.38335393659696L245.05183868408204,158.41677127462216L245.98006534576416,158.0305499719267L246.9082920074463,157.8810984054736L247.83651866912842,157.4642513685476L248.76474533081054,157.65381763447357L249.69297199249266,158.41535423499394L250.6211986541748,157.94078423635128L251.54942531585692,157.92789908667547L252.47765197753904,157.48576485915518L253.4058786392212,157.51017197405915L254.33410530090333,157.80300363004852L255.26233196258545,157.06749641596465" fill="none"></path></g></g></g></g></g></g><g transform="translate(51, 177)" clip-path="url(#clip_1)"><clipPath id="clip_1"><rect width="278" height="22"></rect></clipPath><g><g><line x1="0" y1="0" x2="0" y2="5" style="visibility: inherit;" fill="rgb(0, 0, 0)" stroke="rgb(204, 204, 204)" stroke-width="1px"></line><line x1="23.205666542053223" y1="0" x2="23.205666542053223" y2="5" style="visibility: inherit;" fill="rgb(0, 0, 0)" stroke="rgb(204, 204, 204)" stroke-width="1px"></line><line x1="46.411333084106445" y1="0" x2="46.411333084106445" y2="5" style="visibility: inherit;" fill="rgb(0, 0, 0)" stroke="rgb(204, 204, 204)" stroke-width="1px"></line><line x1="69.61699962615967" y1="0" x2="69.61699962615967" y2="5" style="visibility: inherit;" fill="rgb(0, 0, 0)" stroke="rgb(204, 204, 204)" stroke-width="1px"></line><line x1="92.82266616821289" y1="0" x2="92.82266616821289" y2="5" style="visibility: inherit;" fill="rgb(0, 0, 0)" stroke="rgb(204, 204, 204)" stroke-width="1px"></line><line x1="116.02833271026611" y1="0" x2="116.02833271026611" y2="5" style="visibility: inherit;" fill="rgb(0, 0, 0)" stroke="rgb(204, 204, 204)" stroke-width="1px"></line><line x1="139.23399925231934" y1="0" x2="139.23399925231934" y2="5" style="visibility: inherit;" fill="rgb(0, 0, 0)" stroke="rgb(204, 204, 204)" stroke-width="1px"></line><line x1="162.43966579437256" y1="0" x2="162.43966579437256" y2="5" style="visibility: inherit;" fill="rgb(0, 0, 0)" stroke="rgb(204, 204, 204)" stroke-width="1px"></line><line x1="185.64533233642578" y1="0" x2="185.64533233642578" y2="5" style="visibility: inherit;" fill="rgb(0, 0, 0)" stroke="rgb(204, 204, 204)" stroke-width="1px"></line><line x1="208.850998878479" y1="0" x2="208.850998878479" y2="5" style="visibility: inherit;" fill="rgb(0, 0, 0)" stroke="rgb(204, 204, 204)" stroke-width="1px"></line><line x1="232.05666542053223" y1="0" x2="232.05666542053223" y2="5" style="visibility: inherit;" fill="rgb(0, 0, 0)" stroke="rgb(204, 204, 204)" stroke-width="1px"></line><line x1="255.26233196258545" y1="0" x2="255.26233196258545" y2="5" style="visibility: inherit;" fill="rgb(0, 0, 0)" stroke="rgb(204, 204, 204)" stroke-width="1px"></line><line x1="278.4679985046387" y1="0" x2="278.4679985046387" y2="5" style="visibility: inherit;" fill="rgb(0, 0, 0)" stroke="rgb(204, 204, 204)" stroke-width="1px"></line></g><g transform="translate(0, 8)"><text style="text-anchor: middle; visibility: hidden; font-family: Roboto, sans-serif; font-size: 12px; font-weight: 200;" x="0" y="0" dx="0em" dy="0.95em" fill="rgb(50, 49, 63)" stroke="none" stroke-width="1px">-500</text><text style="text-anchor: middle; visibility: inherit; font-family: Roboto, sans-serif; font-size: 12px; font-weight: 200;" x="23.205666542053223" y="0" dx="0em" dy="0.95em" fill="rgb(50, 49, 63)" stroke="none" stroke-width="1px">0</text><text style="text-anchor: middle; visibility: inherit; font-family: Roboto, sans-serif; font-size: 12px; font-weight: 200;" x="46.411333084106445" y="0" dx="0em" dy="0.95em" fill="rgb(50, 49, 63)" stroke="none" stroke-width="1px">500</text><text style="text-anchor: middle; visibility: inherit; font-family: Roboto, sans-serif; font-size: 12px; font-weight: 200;" x="69.61699962615967" y="0" dx="0em" dy="0.95em" fill="rgb(50, 49, 63)" stroke="none" stroke-width="1px">1k</text><text style="text-anchor: middle; visibility: inherit; font-family: Roboto, sans-serif; font-size: 12px; font-weight: 200;" x="92.82266616821289" y="0" dx="0em" dy="0.95em" fill="rgb(50, 49, 63)" stroke="none" stroke-width="1px">1.5k</text><text style="text-anchor: middle; visibility: inherit; font-family: Roboto, sans-serif; font-size: 12px; font-weight: 200;" x="116.02833271026611" y="0" dx="0em" dy="0.95em" fill="rgb(50, 49, 63)" stroke="none" stroke-width="1px">2k</text><text style="text-anchor: middle; visibility: inherit; font-family: Roboto, sans-serif; font-size: 12px; font-weight: 200;" x="139.23399925231934" y="0" dx="0em" dy="0.95em" fill="rgb(50, 49, 63)" stroke="none" stroke-width="1px">2.5k</text><text style="text-anchor: middle; visibility: inherit; font-family: Roboto, sans-serif; font-size: 12px; font-weight: 200;" x="162.43966579437256" y="0" dx="0em" dy="0.95em" fill="rgb(50, 49, 63)" stroke="none" stroke-width="1px">3k</text><text style="text-anchor: middle; visibility: inherit; font-family: Roboto, sans-serif; font-size: 12px; font-weight: 200;" x="185.64533233642578" y="0" dx="0em" dy="0.95em" fill="rgb(50, 49, 63)" stroke="none" stroke-width="1px">3.5k</text><text style="text-anchor: middle; visibility: inherit; font-family: Roboto, sans-serif; font-size: 12px; font-weight: 200;" x="208.850998878479" y="0" dx="0em" dy="0.95em" fill="rgb(50, 49, 63)" stroke="none" stroke-width="1px">4k</text><text style="text-anchor: middle; visibility: inherit; font-family: Roboto, sans-serif; font-size: 12px; font-weight: 200;" x="232.05666542053223" y="0" dx="0em" dy="0.95em" fill="rgb(50, 49, 63)" stroke="none" stroke-width="1px">4.5k</text><text style="text-anchor: middle; visibility: inherit; font-family: Roboto, sans-serif; font-size: 12px; font-weight: 200;" x="255.26233196258545" y="0" dx="0em" dy="0.95em" fill="rgb(50, 49, 63)" stroke="none" stroke-width="1px">5k</text><text style="text-anchor: middle; visibility: hidden; font-family: Roboto, sans-serif; font-size: 12px; font-weight: 200;" x="278.4679985046387" y="0" dx="0em" dy="0.95em" fill="rgb(50, 49, 63)" stroke="none" stroke-width="1px">5.5k</text></g><line x1="0" y1="0" x2="278.4679985046387" y2="0" fill="rgb(0, 0, 0)" stroke="rgb(204, 204, 204)" stroke-width="1px"></line></g></g></g></g></svg>