<svg viewBox="0 0 330 200" xmlns="http://www.w3.org/2000/svg"><g><g><g><g><g><line x1="49.98400115966797" y1="178.58999919891357" x2="44.98400115966797" y2="178.58999919891357" style="visibility: inherit;" fill="rgb(0, 0, 0)" stroke="rgb(204, 204, 204)" stroke-width="1px"></line><line x1="49.98400115966797" y1="158.74666595458984" x2="44.98400115966797" y2="158.74666595458984" style="visibility: inherit;" fill="rgb(0, 0, 0)" stroke="rgb(204, 204, 204)" stroke-width="1px"></line><line x1="49.98400115966797" y1="138.9033327102661" x2="44.98400115966797" y2="138.9033327102661" style="visibility: inherit;" fill="rgb(0, 0, 0)" stroke="rgb(204, 204, 204)" stroke-width="1px"></line><line x1="49.98400115966797" y1="119.05999946594238" x2="44.98400115966797" y2="119.05999946594238" style="visibility: inherit;" fill="rgb(0, 0, 0)" stroke="rgb(204, 204, 204)" stroke-width="1px"></line><line x1="49.98400115966797" y1="99.21666622161865" x2="44.98400115966797" y2="99.21666622161865" style="visibility: inherit;" fill="rgb(0, 0, 0)" stroke="rgb(204, 204, 204)" stroke-width="1px"></line><line x1="49.98400115966797" y1="79.37333297729492" x2="44.98400115966797" y2="79.37333297729492" style="visibility: inherit;" fill="rgb(0, 0, 0)" stroke="rgb(204, 204, 204)" stroke-width="1px"></line><line x1="49.98400115966797" y1="59.5299997329712" x2="44.98400115966797" y2="59.5299997329712" style="visibility: inherit;" fill="rgb(0, 0, 0)" stroke="rgb(204, 204, 204)" stroke-width="1px"></line><line x1="49.98400115966797" y1="39.686666488647475" x2="44.98400115966797" y2="39.686666488647475" style="visibility: inherit;" fill="rgb(0, 0, 0)" stroke="rgb(204, 204, 204)" stroke-width="1px"></line><line x1="49.98400115966797" y1="19.843333244323738" x2="44.98400115966797" y2="19.843333244323738" style="visibility: inherit;" fill="rgb(0, 0, 0)" stroke="rgb(204, 204, 204)" stroke-width="1px"></line><line x1="49.98400115966797" y1="0" x2="44.98400115966797" y2="0" style="visibility: inherit;" fill="rgb(0, 0, 0)" stroke="rgb(204, 204, 204)" stroke-width="1px"></line></g><g transform="translate(39.98400115966797, 0)"><text style="text-anchor: end; visibility: hidden; font-family: Roboto, sans-serif; font-size: 12px; font-weight: 200;" x="0" y="178.58999919891357" dx="0em" dy="0.3em" fill="rgb(50, 49, 63)" stroke="none" stroke-width="1px">-0.2</text><text style="text-anchor: end; visibility: inherit; font-family: Roboto, sans-serif; font-size: 12px; font-weight: 200;" x="0" y="158.74666595458984" dx="0em" dy="0.3em" fill="rgb(50, 49, 63)" stroke="none" stroke-width="1px">0</text><text style="text-anchor: end; visibility: hidden; font-family: Roboto, sans-serif; font-size: 12px; font-weight: 200;" x="0" y="138.9033327102661" dx="0em" dy="0.3em" fill="rgb(50, 49, 63)" stroke="none" stroke-width="1px">0.2</text><text style="text-anchor: end; visibility: inherit; font-family: Roboto, sans-serif; font-size: 12px; font-weight: 200;" x="0" y="119.05999946594238" dx="0em" dy="0.3em" fill="rgb(50, 49, 63)" stroke="none" stroke-width="1px">0.4</text><text style="text-anchor: end; visibility: hidden; font-family: Roboto, sans-serif; font-size: 12px; font-weight: 200;" x="0" y="99.21666622161865" dx="0em" dy="0.3em" fill="rgb(50, 49, 63)" stroke="none" stroke-width="1px">0.6</text><text style="text-anchor: end; visibility: inherit; font-family: Roboto, sans-serif; font-size: 12px; font-weight: 200;" x="0" y="79.37333297729492" dx="0em" dy="0.3em" fill="rgb(50, 49, 63)" stroke="none" stroke-width="1px">0.8</text><text style="text-anchor: end; visibility: hidden; font-family: Roboto, sans-serif; font-size: 12px; font-weight: 200;" x="0" y="59.5299997329712" dx="0em" dy="0.3em" fill="rgb(50, 49, 63)" stroke="none" stroke-width="1px">1</text><text style="text-anchor: end; visibility: inherit; font-family: Roboto, sans-serif; font-size: 12px; font-weight: 200;" x="0" y="39.686666488647475" dx="0em" dy="0.3em" fill="rgb(50, 49, 63)" stroke="none" stroke-width="1px">1.2</text><text style="text-anchor: end; visibility: hidden; font-family: Roboto, sans-serif; font-size: 12px; font-weight: 200;" x="0" y="19.843333244323738" dx="0em" dy="0.3em" fill="rgb(50, 49, 63)" stroke="none" stroke-width="1px">1.4</text><text style="text-anchor: end; visibility: hidden; font-family: Roboto, sans-serif; font-size: 12px; font-weight: 200;" x="0" y="0" dx="0em" dy="0.3em" fill="rgb(50, 49, 63)" stroke="none" stroke-width="1px">1.6</text></g><line x1="49.98400115966797" y1="0" x2="49.98400115966797" y2="178.58999919891357" fill="rgb(0, 0, 0)" stroke="rgb(204, 204, 204)" stroke-width="1px"></line></g></g><g transform="translate(49, 0)" clip-path="url(#clip_0)"><clipPath id="clip_0"><rect width="280" height="178"></rect></clipPath><g><g><g><line x1="0" y1="0" x2="0" y2="178.58999919891357" fill="rgb(0, 0, 0)" stroke="rgb(60, 60, 60)" stroke-width="1px" opacity="0.25"></line><line x1="23.334666570027668" y1="0" x2="23.334666570027668" y2="178.58999919891357" fill="rgb(0, 0, 0)" stroke="rgb(60, 60, 60)" stroke-width="1px" opacity="0.25"></line><line x1="46.669333140055336" y1="0" x2="46.669333140055336" y2="178.58999919891357" fill="rgb(0, 0, 0)" stroke="rgb(60, 60, 60)" stroke-width="1px" opacity="0.25"></line><line x1="70.00399971008301" y1="0" x2="70.00399971008301" y2="178.58999919891357" fill="rgb(0, 0, 0)" stroke="rgb(60, 60, 60)" stroke-width="1px" opacity="0.25"></line><line x1="93.33866628011067" y1="0" x2="93.33866628011067" y2="178.58999919891357" fill="rgb(0, 0, 0)" stroke="rgb(60, 60, 60)" stroke-width="1px" opacity="0.25"></line><line x1="116.67333285013835" y1="0" x2="116.67333285013835" y2="178.58999919891357" fill="rgb(0, 0, 0)" stroke="rgb(60, 60, 60)" stroke-width="1px" opacity="0.25"></line><line x1="140.00799942016602" y1="0" x2="140.00799942016602" y2="178.58999919891357" fill="rgb(0, 0, 0)" stroke="rgb(60, 60, 60)" stroke-width="1px" opacity="0.25"></line><line x1="163.3426659901937" y1="0" x2="163.3426659901937" y2="178.58999919891357" fill="rgb(0, 0, 0)" stroke="rgb(60, 60, 60)" stroke-width="1px" opacity="0.25"></line><line x1="186.67733256022134" y1="0" x2="186.67733256022134" y2="178.58999919891357" fill="rgb(0, 0, 0)" stroke="rgb(60, 60, 60)" stroke-width="1px" opacity="0.25"></line><line x1="210.01199913024902" y1="0" x2="210.01199913024902" y2="178.58999919891357" fill="rgb(0, 0, 0)" stroke="rgb(60, 60, 60)" stroke-width="1px" opacity="0.25"></line><line x1="233.3466657002767" y1="0" x2="233.3466657002767" y2="178.58999919891357" fill="rgb(0, 0, 0)" stroke="rgb(60, 60, 60)" stroke-width="1px" opacity="0.25"></line><line x1="256.6813322703043" y1="0" x2="256.6813322703043" y2="178.58999919891357" fill="rgb(0, 0, 0)" stroke="rgb(60, 60, 60)" stroke-width="1px" opacity="0.25"></line><line x1="280.01599884033203" y1="0" x2="280.01599884033203" y2="178.58999919891357" fill="rgb(0, 0, 0)" stroke="rgb(60, 60, 60)" stroke-width="1px" opacity="0.25"></line></g><g><line x1="0" y1="178.58999919891357" x2="280.01599884033203" y2="178.58999919891357" fill="rgb(0, 0, 0)" stroke="rgb(60, 60, 60)" stroke-width="1px" opacity="0.25"></line><line x1="0" y1="158.74666595458984" x2="280.01599884033203" y2="158.74666595458984" fill="rgb(0, 0, 0)" stroke="rgb(60, 60, 60)" stroke-width="1px" opacity="0.25"></line><line x1="0" y1="138.9033327102661" x2="280.01599884033203" y2="138.9033327102661" fill="rgb(0, 0, 0)" stroke="rgb(60, 60, 60)" stroke-width="1px" opacity="0.25"></line><line x1="0" y1="119.05999946594238" x2="280.01599884033203" y2="119.05999946594238" fill="rgb(0, 0, 0)" stroke="rgb(60, 60, 60)" stroke-width="1px" opacity="0.25"></line><line x1="0" y1="99.21666622161865" x2="280.01599884033203" y2="99.21666622161865" fill="rgb(0, 0, 0)" stroke="rgb(60, 60, 60)" stroke-width="1px" opacity="0.25"></line><line x1="0" y1="79.37333297729492" x2="280.01599884033203" y2="79.37333297729492" fill="rgb(0, 0, 0)" stroke="rgb(60, 60, 60)" stroke-width="1px" opacity="0.25"></line><line x1="0" y1="59.5299997329712" x2="280.01599884033203" y2="59.5299997329712" fill="rgb(0, 0, 0)" stroke="rgb(60, 60, 60)" stroke-width="1px" opacity="0.25"></line><line x1="0" y1="39.686666488647475" x2="280.01599884033203" y2="39.686666488647475" fill="rgb(0, 0, 0)" stroke="rgb(60, 60, 60)" stroke-width="1px" opacity="0.25"></line><line x1="0" y1="19.843333244323738" x2="280.01599884033203" y2="19.843333244323738" fill="rgb(0, 0, 0)" stroke="rgb(60, 60, 60)" stroke-width="1px" opacity="0.25"></line><line x1="0" y1="0" x2="280.01599884033203" y2="0" fill="rgb(0, 0, 0)" stroke="rgb(60, 60, 60)" stroke-width="1px" opacity="0.25"></line></g></g></g><g><g><line x1="0" y1="158.74666595458984" x2="280.01599884033203" y2="158.74666595458984" fill="rgb(0, 0, 0)" stroke="rgb(153, 153, 153)" stroke-width="1.5px"></line></g></g><g><g><line x1="23.334666570027668" y1="0" x2="23.334666570027668" y2="178.58999919891357" fill="rgb(0, 0, 0)" stroke="rgb(153, 153, 153)" stroke-width="1.5px"></line></g></g><g><g><g><g><g><path style="fill: none;" stroke="rgb(0, 153, 136)" stroke-width="2px" d="M28.001599884033205,-2.032794700942227L28.93498654683431,19.8943828790067L29.86837320963542,33.97798358301058L30.801759872436524,49.16639257782697L31.73514653523763,60.51835449657115L32.66853319803874,69.44109520980928L33.60191986083984,78.30191312225202L34.535306523640955,83.79035148225506L35.46869318644206,87.79655850021045L36.402079849243165,89.05341894000958L37.33546651204427,97.06501024189525L38.268853174845376,99.0475048487657L39.20223983764649,99.03390235143014L40.13562650044759,104.1859376655824L41.0690131632487,99.33927811137208L42.0023998260498,103.10500685825812L42.93578648885091,104.98895862230717L43.86917315165202,104.56441418448216L44.802559814453126,107.08015813811545L45.73594647725423,110.45668122132673L46.669333140055336,111.64369734434547L47.60271980285645,114.55812413735981L48.536106465657554,117.02177532702544L49.46949312845866,119.67056870994864L50.402879791259764,118.64386070545184L51.33626645406087,118.0143609204636L52.26965311686198,120.61817100320174L53.20303977966309,121.36341930723908L54.13642644246419,122.19722620743819L55.0698131052653,123.64397560070611L56.00319976806641,124.24254162666864L56.936586430867514,125.33320564263595L57.86997309366862,126.17068621685077L58.803359756469725,124.35588107921812L59.73674641927084,126.88929466465447L60.67013308207194,128.23935965507138L61.60351974487305,129.2107311384267L62.53690640767415,129.4496231167716L63.47029307047526,130.31343459081364L64.40367973327638,130.79136351485738L65.33706639607747,132.36706993223586L66.27045305887857,132.1860020092173L67.20383972167969,131.3580996576495L68.1372263844808,131.19960838655047L69.07061304728191,132.31427902512397L70.00399971008301,132.90831947550902L70.93738637288412,133.47964083616355L71.87077303568522,135.07460731955712L72.80415969848633,135.99710458392389L73.73754636128743,135.67410059540896L74.67093302408854,136.54219559477727L75.60431968688965,135.51537118158996L76.53770634969075,134.64173876615104L77.47109301249186,135.7792730796647L78.40447967529298,135.33489916641287L79.33786633809407,136.84441360581098L80.27125300089519,135.44474090970337L81.20463966369628,135.08871713431176L82.1380263264974,136.53434171737356L83.07141298929851,135.68218669149604L84.0047996520996,136.85340381690796L84.93818631490072,137.13379540637138L85.87157297770182,138.6363126414236L86.80495964050293,138.21912053906823L87.73834630330404,137.6388710870338L88.67173296610514,138.88273780201558L89.60511962890625,138.8203001322222L90.53850629170735,138.99427920253746L91.47189295450846,137.31264416664737L92.40527961730957,137.62499012146597L93.33866628011067,139.59283579551035L94.27205294291178,139.33392240796573L95.2054396057129,139.52416942275343L96.138826268514,139.4783127842013L97.07221293131511,137.48174619592882L98.0055995941162,137.97387300450742L98.93898625691732,139.0922382287023L99.87237291971843,137.6058185257721L100.80575958251953,139.80316915110166L101.73914624532064,139.35450596333854L102.67253290812174,139.72633928713603L103.60591957092285,141.5441493917404L104.53930623372396,141.34064619632872L105.47269289652506,141.79036839083935L106.40607955932617,142.35751729411018L107.33946622212729,142.10854694400052L108.27285288492838,141.76973826875656L109.2062395477295,141.2228231634444L110.1396262105306,142.52317374192063L111.0730128733317,141.96569606510158L112.00639953613282,142.47638417898327L112.93978619893392,140.94673812618427L113.87317286173503,140.93516541708013L114.80655952453613,141.06187900108998L115.73994618733724,141.82776191592268L116.67333285013835,141.67890919267185L117.60671951293945,142.32367020381477L118.54010617574056,141.8999074556169L119.47349283854167,141.1913566336943L120.40687950134277,140.76671639241744L121.34026616414388,141.16452372980717L122.27365282694498,142.66022104062432L123.2070394897461,143.0188833662488L124.1404261525472,142.55949299653182L125.0738128153483,142.44075770794493L126.00719947814942,141.33696151549597L126.94058614095051,141.88109431717535L127.87397280375163,142.0119380701516L128.80735946655275,142.2973034105429L129.74074612935382,142.63981035189545L130.67413279215495,143.2424741263096L131.60751945495605,143.953261238821L132.54090611775715,144.79126772674695L133.47429278055827,144.51392180315105L134.40767944335937,144.94999773143343L135.3410661061605,144.8236512114813L136.2744527689616,143.43850236059635L137.2078394317627,144.23836513386726L138.14122609456382,143.45512252122177L139.0746127573649,143.81929587284176L140.00799942016602,143.02954337972776L140.9413860829671,144.302949572412L141.87477274576824,144.90945093615215L142.80815940856934,144.68070287836105L143.74154607137044,142.85615670257684L144.67493273417156,143.11146852969233L145.60831939697266,143.474137473401L146.54170605977376,142.18761355615806L147.47509272257486,142.9565425215751L148.40847938537598,144.0493242111806L149.34186604817708,143.42278941283112L150.27525271097818,144.1796247681148L151.2086393737793,143.25502711643296L152.1420260365804,143.8030910091227L153.0754126993815,145.1167279766066L154.00879936218263,146.15950138665534L154.94218602498373,146.0666655290497L155.87557268778482,146.17545445960073L156.80895935058595,145.28025342618972L157.74234601338705,142.67159094678829L158.67573267618815,144.39832718048686L159.60911933898925,144.55157609201314L160.54250600179037,144.21132849164388L161.47589266459147,143.43762079516256L162.40927932739257,144.85412065177124L163.3426659901937,145.64128813666247L164.2760526529948,145.36377617692565L165.2094393157959,144.34284218145913L166.14282597859702,145.05169687576665L167.07621264139812,145.5343455068283L168.0095993041992,146.56653647132063L168.94298596700034,146.09950522815387L169.87637262980144,147.1204315215786L170.80975929260254,146.33587589697802L171.74314595540363,146.6087872021437L172.67653261820476,144.48695489822435L173.60991928100586,145.38208196442818L174.54330594380696,146.36959559641124L175.47669260660808,146.59049019186543L176.41007926940918,146.92523515006644L177.34346593221028,146.8497968063517L178.2768525950114,146.34079987807237L179.2102392578125,147.06805875300563L180.1436259206136,145.9909902717191L181.0770125834147,145.90616150394357L182.01039924621583,147.27358894317257L182.94378590901692,147.9324314213401L183.87717257181802,147.26654621177434L184.81055923461915,147.88740369778128L185.74394589742025,147.83341679798036L186.67733256022134,147.42637464702898L187.61071922302247,146.40374765174417L188.54410588582357,145.423438804329L189.47749254862467,144.1527808957195L190.4108792114258,145.71914465949908L191.3442658742269,146.43586697086613L192.277652537028,146.22617015154313L193.2110391998291,146.82464864500207L194.14442586263021,145.5977703285811L195.0778125254313,146.34220518911215L196.0111991882324,146.19461045696013L196.94458585103354,146.28082368069255L197.87797251383464,146.87523915285004" fill="none"></path></g><g><path style="fill: none;" stroke="rgb(204, 51, 17)" stroke-width="2px" d="M35.46869318644206,-8.721678127491055L36.402079849243165,13.036823571031961L37.33546651204427,25.03618385213799L38.268853174845376,39.44205028031788L39.20223983764649,51.71416510764496L40.13562650044759,57.62603393012789L41.0690131632487,68.69461202080926L42.0023998260498,79.27395168526289L42.93578648885091,84.94169719109684L43.86917315165202,90.10107889851213L44.802559814453126,96.6138872698169L45.73594647725423,97.09058628960479L46.669333140055336,96.13579118476936L47.60271980285645,103.80129827642816L48.536106465657554,109.97328983108342L49.46949312845866,109.9136824794745L50.402879791259764,114.73712189368183L51.33626645406087,117.22666491318878L52.26965311686198,120.75934172585944L53.20303977966309,122.81417642771969L54.13642644246419,122.81616645871243L55.0698131052653,123.23197637252568L56.00319976806641,123.73323297381526L56.936586430867514,125.23506500571453L57.86997309366862,125.73189388576895L58.803359756469725,127.41210291961184L59.73674641927084,128.6701550780567L60.67013308207194,130.16058418008296L61.60351974487305,134.27595732664813L62.53690640767415,133.14278085343L63.47029307047526,132.80029599845693L64.40367973327638,132.65808719989852L65.33706639607747,133.0283839188558L66.27045305887857,135.07918489180076L67.20383972167969,135.4207288268456L68.1372263844808,136.40519765962478L69.07061304728191,136.58716856601606L70.00399971008301,137.61961840017946L70.93738637288412,137.87845748259272L71.87077303568522,136.8993778184773L72.80415969848633,137.55483088914931L73.73754636128743,137.78868985291925L74.67093302408854,138.1332232282532L75.60431968688965,136.57073600078044L76.53770634969075,138.41895950149927L77.47109301249186,139.82071235463434L78.40447967529298,139.56377077078395L79.33786633809407,139.68635744020054L80.27125300089519,140.19922716458458L81.20463966369628,140.6278466495901L82.1380263264974,140.19609795248167L83.07141298929851,140.44473619122934L84.0047996520996,140.63024508354678L84.93818631490072,140.69133183164476L85.87157297770182,140.97145455346924L86.80495964050293,141.40658358220102L87.73834630330404,141.51445876641543L88.67173296610514,143.43991328967672L89.60511962890625,143.59797879516174L90.53850629170735,142.79831481419615L91.47189295450846,142.85017359199782L92.40527961730957,143.77056140970336L93.33866628011067,144.18327574929833L94.27205294291178,145.03769306307342L95.2054396057129,145.0616599075437L96.138826268514,145.27371855984734L97.07221293131511,144.30646850632158L98.0055995941162,143.8717274212274L98.93898625691732,143.47004683026282L99.87237291971843,144.2718592155208L100.80575958251953,145.3237039135774L101.73914624532064,145.185842680215L102.67253290812174,145.98601930305088L103.60591957092285,146.4887646826266L104.53930623372396,146.95417289144558L105.47269289652506,146.33307941153052L106.40607955932617,146.41525849398587L107.33946622212729,146.10442685569876L108.27285288492838,147.24248465682896L109.2062395477295,146.185607329076L110.1396262105306,146.33336437166653L111.0730128733317,146.48022669338448L112.00639953613282,147.01842901773693L112.93978619893392,146.62233394054186L113.87317286173503,146.98662518010445L114.80655952453613,146.8471138027765L115.73994618733724,147.57907994695975L116.67333285013835,147.95326607285097L117.60671951293945,148.54726414756107L118.54010617574056,147.86198361096055L119.47349283854167,147.60961934458464L120.40687950134277,148.1460427961553L121.34026616414388,148.1177417085393L122.27365282694498,147.97190169146197L123.2070394897461,148.11349403905342L124.1404261525472,147.97199506837012L125.0738128153483,147.43916277705023L126.00719947814942,148.83827554148021L126.94058614095051,149.64863294259357L127.87397280375163,149.27789833896387L128.80735946655275,149.7424545098568L129.74074612935382,150.4423704596421L130.67413279215495,150.32449361394313L131.60751945495605,150.42968750293008L132.54090611775715,150.248982180861L133.47429278055827,150.83494340735342L134.40767944335937,150.96330059846855L135.3410661061605,150.70448942071224L136.2744527689616,150.7004185103475L137.2078394317627,150.1801824584779L138.14122609456382,149.97095942157276L139.0746127573649,150.13314253917784L140.00799942016602,149.68581036946762L140.9413860829671,149.50494349997388L141.87477274576824,150.25088656761307L142.80815940856934,150.7509448416482L143.74154607137044,149.9050911492187L144.67493273417156,151.45798412148852L145.60831939697266,150.19496796158515L146.54170605977376,150.73812293485648L147.47509272257486,150.59883696605627L148.40847938537598,149.96231301338426L149.34186604817708,150.36547285786384L150.27525271097818,150.5784728813197L151.2086393737793,150.89504381870734L152.1420260365804,151.11917745774207L153.0754126993815,151.3081261622454L154.00879936218263,151.31438126366297L154.94218602498373,150.89244371154382L155.87557268778482,151.86171359002603L156.80895935058595,151.38514194619378L157.74234601338705,152.02132016079003L158.67573267618815,152.00375241862193L159.60911933898925,151.37582144039152L160.54250600179037,151.6654570844657L161.47589266459147,152.2893835748838L162.40927932739257,152.05193366097546L163.3426659901937,151.51315657357105L164.2760526529948,151.99350924586673L165.2094393157959,152.47842598764117L166.14282597859702,152.06532643619653L167.07621264139812,152.38829020650192L168.0095993041992,152.7667531219088L168.94298596700034,152.7293719180546L169.87637262980144,152.95192055051578L170.80975929260254,152.91546923264968L171.74314595540363,152.56639227532233L172.67653261820476,152.67919711617674L173.60991928100586,152.23086626536787L174.54330594380696,152.37157639322277L175.47669260660808,152.48052556071977L176.41007926940918,152.66484929756433L177.34346593221028,152.77360213824633L178.2768525950114,153.37028598993038L179.2102392578125,153.08272491222925L180.1436259206136,152.93056299167358L181.0770125834147,152.95246789541912L182.01039924621583,152.8892816069205L182.94378590901692,153.25780904212496L183.87717257181802,153.27077011534928L184.81055923461915,153.69818669423609L185.74394589742025,153.74876648384412L186.67733256022134,153.40695522820832L187.61071922302247,153.3673675141219L188.54410588582357,152.86717521986702L189.47749254862467,152.68552870664743L190.4108792114258,152.91131792682933L191.3442658742269,153.2102823283779L192.277652537028,152.4792525894849L193.2110391998291,152.71161141290287L194.14442586263021,153.2750650114269L195.0778125254313,153.04481209110148L196.0111991882324,153.19634020813777L196.94458585103354,152.99351829024292L197.87797251383464,152.98798866583292L198.81135917663573,153.00529192594507L199.74474583943686,152.84065913658347L200.67813250223796,152.24737853954437L201.61151916503906,152.28291504008516L202.54490582784018,152.4472597939969L203.47829249064128,152.9727067491632L204.41167915344238,152.88162205506183L205.34506581624348,153.30101789569588L206.2784524790446,153.20225511557956L207.2118391418457,153.2502604480583L208.1452258046468,153.27074444576576L209.07861246744793,153.72207107147503L210.01199913024902,153.73890001620327L210.94538579305012,154.0483369588061L211.87877245585125,153.98253509857778L212.81215911865235,154.39253955275274L213.74554578145344,153.26429879784718L214.67893244425457,153.44431477321677L215.61231910705567,153.52612205148577L216.54570576985677,153.94635976270993L217.47909243265786,154.22118437449245L218.412479095459,153.744902574107L219.3458657582601,154.2366915987077L220.2792524210612,154.43217868313846L221.2126390838623,154.4679993807423L222.1460257466634,154.2970652765022L223.0794124094645,154.25342936385954L224.01279907226564,154.25669013223688L224.94618573506673,154.44126689577698L225.87957239786783,153.73098964400685L226.81295906066896,153.96999854726138L227.74634572347006,154.04409903939865L228.67973238627116,154.40145520276602L229.61311904907225,154.22003841192316L230.54650571187338,154.16227595382068L231.47989237467448,154.4524063554742L232.41327903747558,154.50244407082144L233.3466657002767,154.44570941564353L234.2800523630778,154.46334968617558L235.2134390258789,154.150540292079L236.14682568868002,154.5001355255262L237.08021235148112,154.97280339262142L238.01359901428222,154.92047320742904L238.94698567708335,154.7737108165625L239.88037233988445,154.67274819625698L240.81375900268554,154.70798721907406L241.74714566548664,154.17522924846637L242.68053232828777,154.7644632277349L243.61391899108887,155.25504002923753L244.54730565388996,155.0819058121672L245.4806923166911,155.4585803431562L246.4140789794922,155.71903664010284L247.3474656422933,155.5303592331165L248.2808523050944,155.6244173406702L249.2142389678955,155.52249678330912L250.1476256306966,155.57796954529147L251.0810122934977,155.64758550885693L252.01439895629883,155.46457992392678L252.94778561909993,155.50652209557688L253.88117228190103,155.31700349970012L254.81455894470216,155.23078281698017L255.74794560750325,155.1991046068545L256.6813322703043,154.8079352988027" fill="none"></path></g></g></g></g><g opacity="0.2"><g><g><g><path style="fill: none;" stroke="rgb(0, 153, 136)" stroke-width="2px" d="M26.13482655843099,-22.70298131176594L27.068213221232096,0.16228342460318096L28.001599884033205,35.074059854375946L28.93498654683431,51.25059765317498L29.86837320963542,54.51200861201494L30.801759872436524,71.566345648618L31.73514653523763,77.37469494285644L32.66853319803874,82.74427767811115L33.60191986083984,91.54491981113034L34.535306523640955,92.00508831874824L35.46869318644206,93.7980204505396L36.402079849243165,90.93723220744205L37.33546651204427,109.07674679982472L38.268853174845376,102.02040783379482L39.20223983764649,99.01350205909944L40.13562650044759,111.91320577608587L41.0690131632487,92.06973178393748L42.0023998260498,108.75339345707313L42.93578648885091,107.81482427614544L43.86917315165202,103.92760590963401L44.802559814453126,110.85374426717986L45.73594647725423,115.5214418472627L46.669333140055336,113.42421646679207L47.60271980285645,118.9297568696619L48.536106465657554,120.717248329239L49.46949312845866,123.64375634442034L50.402879791259764,117.10379926615255L51.33626645406087,117.07011145173021L52.26965311686198,124.52388560923788L53.20303977966309,122.48129167432744L54.13642644246419,123.44793649801298L55.0698131052653,125.81409962843135L56.00319976806641,125.14039065017779L56.936586430867514,126.96920164971255L57.86997309366862,127.42690707039864L58.803359756469725,121.6336733828772L59.73674641927084,130.6894150343427L60.67013308207194,130.26445713798972L61.60351974487305,130.667788362291L62.53690640767415,129.80796108411647L63.47029307047526,131.60915180150263L64.40367973327638,131.50825690079878L65.33706639607747,134.7306295580579L66.27045305887857,131.91440012470645L67.20383972167969,130.11624613034422L68.1372263844808,130.96187147990727L69.07061304728191,133.9862849829617L70.00399971008301,133.79938015107933L70.93738637288412,134.33662287714122L71.87077303568522,137.4670570446405L72.80415969848633,137.38085048047162L73.73754636128743,135.18959461263705L74.67093302408854,137.84433809382892L75.60431968688965,133.97513456180954L76.53770634969075,133.33129014299297L77.47109301249186,137.48557454993497L78.40447967529298,134.66833829653518L79.33786633809407,139.10868526490802L80.27125300089519,133.34523186554202L81.20463966369628,134.5546814712244L82.1380263264974,138.7027785919662L83.07141298929851,134.4039541526798L84.0047996520996,138.6102295050258L84.93818631490072,137.5543827905665L85.87157297770182,140.8900884940019L86.80495964050293,137.59333238553518L87.73834630330404,136.76849690898217L88.67173296610514,140.74853787448825L89.60511962890625,138.72664362753213L90.53850629170735,139.25524780801035L91.47189295450846,134.79019161281224L92.40527961730957,138.09350905369388L93.33866628011067,142.54460430657696L94.27205294291178,138.9455523266488L95.2054396057129,139.80953994493498L96.138826268514,139.40952782637314L97.07221293131511,134.48689631352013L98.0055995941162,138.71206321737532L98.93898625691732,140.7697860649946L99.87237291971843,135.3761889713768L100.80575958251953,143.09919508909596L101.73914624532064,138.68151118169388L102.67253290812174,140.28408927283223L103.60591957092285,144.270864548647L104.53930623372396,141.03539140321112L105.47269289652506,142.46495168260532L106.40607955932617,143.20824064901643L107.33946622212729,141.73509141883608L108.27285288492838,141.26152525589058L109.2062395477295,140.40245050547614L110.1396262105306,144.473699609635L111.0730128733317,141.129479549873L112.00639953613282,143.2424163498058L112.93978619893392,138.65226904698574L113.87317286173503,140.91780635342388L114.80655952453613,141.25194937710478L115.73994618733724,142.97658628817175L116.67333285013835,141.45563010779563L117.60671951293945,143.2908117205291L118.54010617574056,141.26426333332014L119.47349283854167,140.12853040081043L120.40687950134277,140.12975603050216L121.34026616414388,141.76123473589172L122.27365282694498,144.90376700685005L123.2070394897461,143.55687685468547L124.1404261525472,141.87040744195636L125.0738128153483,142.26265477506462L126.00719947814942,139.6812672268225L126.94058614095051,142.69729351969445L127.87397280375163,142.2082036996159L128.80735946655275,142.7253514211299L129.74074612935382,143.15357076392434L130.67413279215495,144.14646978793073L131.60751945495605,145.01944190758815L132.54090611775715,146.04827745863588L133.47429278055827,144.0979029177572L134.40767944335937,145.6041116238569L135.3410661061605,144.63413143155307L136.2744527689616,141.36077908426893L137.2078394317627,145.4381592937736L138.14122609456382,142.28025860225353L139.0746127573649,144.36555590027177L140.00799942016602,141.84491464005674L140.9413860829671,146.2130588614383L141.87477274576824,145.81920298176237L142.80815940856934,144.3375807916744L143.74154607137044,140.11933743890054L144.67493273417156,143.49443627036558L145.60831939697266,144.0181408889639L146.54170605977376,140.25782768029367L147.47509272257486,144.10993596970067L148.40847938537598,145.68849674558885L149.34186604817708,142.48298721530688L150.27525271097818,145.31487780104032L151.2086393737793,141.86813063891017L152.1420260365804,144.62518684815737L153.0754126993815,147.0871834278324L154.00879936218263,147.72366150172843L154.94218602498373,145.92741174264123L155.87557268778482,146.3386378554273L156.80895935058595,143.93745187607317L157.74234601338705,138.75859722768618L158.67573267618815,146.9884315310347L159.60911933898925,144.78144945930256L160.54250600179037,143.70095709109003L161.47589266459147,142.27705925044057L162.40927932739257,146.97887043668425L163.3426659901937,146.8220393639993L164.2760526529948,144.9475082373205L165.2094393157959,142.81144118825938L166.14282597859702,146.11497891722794L167.07621264139812,146.2583184534207L168.0095993041992,148.11482291805916L168.94298596700034,145.39895836340372L169.87637262980144,148.65182096171574L170.80975929260254,145.15904246007716L171.74314595540363,147.0181541598922L172.67653261820476,141.30420644234533L173.60991928100586,146.72477256373398L174.54330594380696,147.8508660443858L175.47669260660808,146.92183208504667L176.41007926940918,147.42735258736798L177.34346593221028,146.73663929077955L178.2768525950114,145.5773044856534L179.2102392578125,148.15894706540553L180.1436259206136,144.3753875497894L181.0770125834147,145.77891835228024L182.01039924621583,149.32473010201608L182.94378590901692,148.92069513859144L183.87717257181802,146.26771839742568L184.81055923461915,148.81868992679168L185.74394589742025,147.75243644827904L186.67733256022134,146.81581142060182L187.61071922302247,144.869807158817L188.54410588582357,143.95297553320626L189.47749254862467,142.2467940328052L190.4108792114258,148.06869030516845L191.3442658742269,147.51095043791673L192.277652537028,145.91162492255864L193.2110391998291,147.7223663851905L194.14442586263021,143.7574528539497L195.0778125254313,147.45885747990872L196.0111991882324,145.9732183587321L196.94458585103354,146.41014351629116L197.87797251383464,147.76686236108628" fill="none"></path></g><g><path style="fill: none;" stroke="rgb(204, 51, 17)" stroke-width="2px" d="M33.60191986083984,-29.8674240691836L34.535306523640955,9.91966776650054L35.46869318644206,25.652152092229368L36.402079849243165,45.64899981685267L37.33546651204427,43.02676139525398L38.268853174845376,61.04475384271178L39.20223983764649,70.11922146001035L40.13562650044759,66.49293655014014L41.0690131632487,85.29646744495119L42.0023998260498,95.14238098581325L42.93578648885091,93.4431289502677L43.86917315165202,97.84004959664338L44.802559814453126,106.38302267634992L45.73594647725423,97.80563143111404L46.669333140055336,94.70360259928123L47.60271980285645,115.29953929998466L48.536106465657554,119.23126768760548L49.46949312845866,109.82427150696788L50.402879791259764,121.9722783491512L51.33626645406087,120.9609786168897L52.26965311686198,126.05835624198102L53.20303977966309,125.89642823520401L54.13642644246419,122.81915150505904L55.0698131052653,123.85569122537542L56.00319976806641,124.4851178628242L56.936586430867514,127.48781303032767L57.86997309366862,126.47713720123856L58.803359756469725,129.93241646101774L59.73674641927084,130.55723331151975L60.67013308207194,132.39622783013382L61.60351974487305,140.44901704154478L62.53690640767415,131.4430161444208L63.47029307047526,132.2865687161457L64.40367973327638,132.44477400209783L65.33706639607747,133.58382899723404L66.27045305887857,138.15538635102635L67.20383972167969,135.93304472939369L68.1372263844808,137.88190090876037L69.07061304728191,136.86012492559934L70.00399971008301,139.16829315141203L70.93738637288412,138.2667161062107L71.87077303568522,135.4307583223084L72.80415969848633,138.53801049515562L73.73754636128743,138.13947829857378L74.67093302408854,138.65002329125383L75.60431968688965,134.22700515957212L76.53770634969075,141.19129475257694L77.47109301249186,141.92334163433665L78.40447967529298,139.1783583950084L79.33786633809407,139.87023744432537L80.27125300089519,140.9685317511607L81.20463966369628,141.27077587709834L82.1380263264974,139.548474906819L83.07141298929851,140.81769354935085L84.0047996520996,140.90850842202295L84.93818631490072,140.78296195379176L85.87157297770182,141.39163863620598L86.80495964050293,142.05927712529873L87.73834630330404,141.67627154273703L88.67173296610514,146.32809507456864L89.60511962890625,143.8350770533893L90.53850629170735,141.5988188427477L91.47189295450846,142.92796175870032L92.40527961730957,145.15114313626174L93.33866628011067,144.80234725869076L94.27205294291178,146.31931903373606L95.2054396057129,145.09761017424916L96.138826268514,145.59180653830276L97.07221293131511,142.85559342603295L98.0055995941162,143.21961579358617L98.93898625691732,142.8675259438159L99.87237291971843,145.47457779340783L100.80575958251953,146.9014709606622L101.73914624532064,144.9790508301714L102.67253290812174,147.18628423730473L103.60591957092285,147.2428827519902L104.53930623372396,147.65228520467403L105.47269289652506,145.40143919165794L106.40607955932617,146.53852711766885L107.33946622212729,145.63817939826814L108.27285288492838,148.94957135852428L109.2062395477295,144.6002913374465L110.1396262105306,146.55499993555236L111.0730128733317,146.70052017596146L112.00639953613282,147.82573250426557L112.93978619893392,146.02819132474923L113.87317286173503,147.5330620394484L114.80655952453613,146.63784673678458L115.73994618733724,148.67702916323458L116.67333285013835,148.51454526168786L117.60671951293945,149.43826125962624L118.54010617574056,146.83406280605973L119.47349283854167,147.23107294502077L120.40687950134277,148.95067797351132L121.34026616414388,148.0752900771153L122.27365282694498,147.75314166584593L123.2070394897461,148.32588256044062L124.1404261525472,147.7597466123452L125.0738128153483,146.63991434007036L126.00719947814942,150.93694468812524L126.94058614095051,150.86416904426355L127.87397280375163,148.72179643351933L128.80735946655275,150.43928876619626L129.74074612935382,151.49224438431997L130.67413279215495,150.14767834539475L131.60751945495605,150.58747833641047L132.54090611775715,149.97792419775735L133.47429278055827,151.71388524709207L134.40767944335937,151.1558363851412L135.3410661061605,150.31627265407778L136.2744527689616,150.69431214480036L137.2078394317627,149.39982838067357L138.14122609456382,149.65712486621504L139.0746127573649,150.3764172155855L140.00799942016602,149.01481211490227L140.9413860829671,149.23364319573324L141.87477274576824,151.36980116907188L142.80815940856934,151.50103225270084L143.74154607137044,148.63631061057447L144.67493273417156,153.7873235798933L145.60831939697266,148.30044372173006L146.54170605977376,151.55285539476347L147.47509272257486,150.38990801285593L148.40847938537598,149.00752708437622L149.34186604817708,150.9702126245832L150.27525271097818,150.8979729165035L151.2086393737793,151.3699002247888L152.1420260365804,151.4553779162942L153.0754126993815,151.59154921900034L154.00879936218263,151.32376391578927L154.94218602498373,150.25953738336517L155.87557268778482,153.31561840774933L156.80895935058595,150.67028448044545L157.74234601338705,152.9755874826844L158.67573267618815,151.97740080536977L159.60911933898925,150.4339249730459L160.54250600179037,152.099910550577L161.47589266459147,153.22527331051094L162.40927932739257,151.695758790113L163.3426659901937,150.7049909424644L164.2760526529948,152.71403825431022L165.2094393157959,153.20580110030278L166.14282597859702,151.44567710902956L167.07621264139812,152.87273586196002L168.0095993041992,153.3344474950191L168.94298596700034,152.6733001122733L169.87637262980144,153.28574349920757L170.80975929260254,152.86079225585053L171.74314595540363,152.04277683933134L172.67653261820476,152.84840437745834L173.60991928100586,151.55836998915456L174.54330594380696,152.58264158500518L175.47669260660808,152.64394931196523L176.41007926940918,152.94133490283113L177.34346593221028,152.9367313992694L178.2768525950114,154.2653117674564L179.2102392578125,152.65138329567756L180.1436259206136,152.70232011084008L181.0770125834147,152.98532525103747L182.01039924621583,152.79450217417252L182.94378590901692,153.81060019493168L183.87717257181802,153.29021172518574L184.81055923461915,154.33931156256628L185.74394589742025,153.82463616825618L186.67733256022134,152.89423834475465L187.61071922302247,153.30798594299222L188.54410588582357,152.11688677848468L189.47749254862467,152.41305893681803L190.4108792114258,153.25000175710218L191.3442658742269,153.65872893070073L192.277652537028,151.3827079811454L193.2110391998291,153.06014964802984L194.14442586263021,154.120245409213L195.0778125254313,152.6994327106133L196.0111991882324,153.42363238369222L196.94458585103354,152.68928541340065L197.87797251383464,152.97969422921787L198.81135917663573,153.0312468161133L199.74474583943686,152.59370995254108L200.67813250223796,151.35745764398575L201.61151916503906,152.3362197908963L202.54490582784018,152.69377692486447L203.47829249064128,153.76087718191263L204.41167915344238,152.7449950139098L205.34506581624348,153.93011165664694L206.2784524790446,153.05411094540506L207.2118391418457,153.32226844677643L208.1452258046468,153.30147044232694L209.07861246744793,154.3990610100389L210.01199913024902,153.76414343329563L210.94538579305012,154.51249237271037L211.87877245585125,153.88383230823527L212.81215911865235,155.00754623401514L213.74554578145344,151.57193766548886L214.67893244425457,153.71433873627117L215.61231910705567,153.64883296888928L216.54570576985677,154.57671632954614L217.47909243265786,154.63342129216622L218.412479095459,153.03047987352878L219.3458657582601,154.9743751356088L220.2792524210612,154.72540930978454L221.2126390838623,154.5217304271481L222.1460257466634,154.040664120142L223.0794124094645,154.18797549489554L224.01279907226564,154.26158128480296L224.94618573506673,154.71813204108707L225.87957239786783,152.66557376635163L226.81295906066896,154.32851190214316L227.74634572347006,154.15524977760458L228.67973238627116,154.93748944781706L229.61311904907225,153.94791322565888L230.54650571187338,154.07563226666693L231.47989237467448,154.88760195795456L232.41327903747558,154.57750064384226L233.3466657002767,154.3606074328767L234.2800523630778,154.48981009197362L235.2134390258789,153.68132620093414L236.14682568868002,155.02452837569697L237.08021235148112,155.68180519326427L238.01359901428222,154.84197792964042L238.94698567708335,154.55356723026276L239.88037233988445,154.5213042657987L240.81375900268554,154.76084575329963L241.74714566548664,153.3760922925548L242.68053232828777,155.64831419663773L243.61391899108887,155.9909052314915L244.54730565388996,154.82220448656173L245.4806923166911,156.02359213963965L246.4140789794922,156.10972108552284L247.3474656422933,155.247343122637L248.2808523050944,155.7655045020007L249.2142389678955,155.36961594726756L250.1476256306966,155.661178688265L251.0810122934977,155.7520094542051L252.01439895629883,155.19007154653156L252.94778561909993,155.569435353052L253.88117228190103,155.03272560588502L254.81455894470216,155.10145179290026L255.74794560750325,155.15158729166598L256.6813322703043,154.22118133672498" fill="none"></path></g></g></g></g></g></g><g transform="translate(49, 178)" clip-path="url(#clip_1)"><clipPath id="clip_1"><rect width="280" height="21"></rect></clipPath><g><g><line x1="0" y1="0" x2="0" y2="5" style="visibility: inherit;" fill="rgb(0, 0, 0)" stroke="rgb(204, 204, 204)" stroke-width="1px"></line><line x1="23.334666570027668" y1="0" x2="23.334666570027668" y2="5" style="visibility: inherit;" fill="rgb(0, 0, 0)" stroke="rgb(204, 204, 204)" stroke-width="1px"></line><line x1="46.669333140055336" y1="0" x2="46.669333140055336" y2="5" style="visibility: inherit;" fill="rgb(0, 0, 0)" stroke="rgb(204, 204, 204)" stroke-width="1px"></line><line x1="70.00399971008301" y1="0" x2="70.00399971008301" y2="5" style="visibility: inherit;" fill="rgb(0, 0, 0)" stroke="rgb(204, 204, 204)" stroke-width="1px"></line><line x1="93.33866628011067" y1="0" x2="93.33866628011067" y2="5" style="visibility: inherit;" fill="rgb(0, 0, 0)" stroke="rgb(204, 204, 204)" stroke-width="1px"></line><line x1="116.67333285013835" y1="0" x2="116.67333285013835" y2="5" style="visibility: inherit;" fill="rgb(0, 0, 0)" stroke="rgb(204, 204, 204)" stroke-width="1px"></line><line x1="140.00799942016602" y1="0" x2="140.00799942016602" y2="5" style="visibility: inherit;" fill="rgb(0, 0, 0)" stroke="rgb(204, 204, 204)" stroke-width="1px"></line><line x1="163.3426659901937" y1="0" x2="163.3426659901937" y2="5" style="visibility: inherit;" fill="rgb(0, 0, 0)" stroke="rgb(204, 204, 204)" stroke-width="1px"></line><line x1="186.67733256022134" y1="0" x2="186.67733256022134" y2="5" style="visibility: inherit;" fill="rgb(0, 0, 0)" stroke="rgb(204, 204, 204)" stroke-width="1px"></line><line x1="210.01199913024902" y1="0" x2="210.01199913024902" y2="5" style="visibility: inherit;" fill="rgb(0, 0, 0)" stroke="rgb(204, 204, 204)" stroke-width="1px"></line><line x1="233.3466657002767" y1="0" x2="233.3466657002767" y2="5" style="visibility: inherit;" fill="rgb(0, 0, 0)" stroke="rgb(204, 204, 204)" stroke-width="1px"></line><line x1="256.6813322703043" y1="0" x2="256.6813322703043" y2="5" style="visibility: inherit;" fill="rgb(0, 0, 0)" stroke="rgb(204, 204, 204)" stroke-width="1px"></line><line x1="280.01599884033203" y1="0" x2="280.01599884033203" y2="5" style="visibility: inherit;" fill="rgb(0, 0, 0)" stroke="rgb(204, 204, 204)" stroke-width="1px"></line></g><g transform="translate(0, 8)"><text style="text-anchor: middle; visibility: hidden; font-family: Roboto, sans-serif; font-size: 12px; font-weight: 200;" x="0" y="0" dx="0em" dy="0.95em" fill="rgb(50, 49, 63)" stroke="none" stroke-width="1px">-500</text><text style="text-anchor: middle; visibility: inherit; font-family: Roboto, sans-serif; font-size: 12px; font-weight: 200;" x="23.334666570027668" y="0" dx="0em" dy="0.95em" fill="rgb(50, 49, 63)" stroke="none" stroke-width="1px">0</text><text style="text-anchor: middle; visibility: inherit; font-family: Roboto, sans-serif; font-size: 12px; font-weight: 200;" x="46.669333140055336" y="0" dx="0em" dy="0.95em" fill="rgb(50, 49, 63)" stroke="none" stroke-width="1px">500</text><text style="text-anchor: middle; visibility: inherit; font-family: Roboto, sans-serif; font-size: 12px; font-weight: 200;" x="70.00399971008301" y="0" dx="0em" dy="0.95em" fill="rgb(50, 49, 63)" stroke="none" stroke-width="1px">1k</text><text style="text-anchor: middle; visibility: inherit; font-family: Roboto, sans-serif; font-size: 12px; font-weight: 200;" x="93.33866628011067" y="0" dx="0em" dy="0.95em" fill="rgb(50, 49, 63)" stroke="none" stroke-width="1px">1.5k</text><text style="text-anchor: middle; visibility: inherit; font-family: Roboto, sans-serif; font-size: 12px; font-weight: 200;" x="116.67333285013835" y="0" dx="0em" dy="0.95em" fill="rgb(50, 49, 63)" stroke="none" stroke-width="1px">2k</text><text style="text-anchor: middle; visibility: inherit; font-family: Roboto, sans-serif; font-size: 12px; font-weight: 200;" x="140.00799942016602" y="0" dx="0em" dy="0.95em" fill="rgb(50, 49, 63)" stroke="none" stroke-width="1px">2.5k</text><text style="text-anchor: middle; visibility: inherit; font-family: Roboto, sans-serif; font-size: 12px; font-weight: 200;" x="163.3426659901937" y="0" dx="0em" dy="0.95em" fill="rgb(50, 49, 63)" stroke="none" stroke-width="1px">3k</text><text style="text-anchor: middle; visibility: inherit; font-family: Roboto, sans-serif; font-size: 12px; font-weight: 200;" x="186.67733256022134" y="0" dx="0em" dy="0.95em" fill="rgb(50, 49, 63)" stroke="none" stroke-width="1px">3.5k</text><text style="text-anchor: middle; visibility: inherit; font-family: Roboto, sans-serif; font-size: 12px; font-weight: 200;" x="210.01199913024902" y="0" dx="0em" dy="0.95em" fill="rgb(50, 49, 63)" stroke="none" stroke-width="1px">4k</text><text style="text-anchor: middle; visibility: inherit; font-family: Roboto, sans-serif; font-size: 12px; font-weight: 200;" x="233.3466657002767" y="0" dx="0em" dy="0.95em" fill="rgb(50, 49, 63)" stroke="none" stroke-width="1px">4.5k</text><text style="text-anchor: middle; visibility: inherit; font-family: Roboto, sans-serif; font-size: 12px; font-weight: 200;" x="256.6813322703043" y="0" dx="0em" dy="0.95em" fill="rgb(50, 49, 63)" stroke="none" stroke-width="1px">5k</text><text style="text-anchor: middle; visibility: hidden; font-family: Roboto, sans-serif; font-size: 12px; font-weight: 200;" x="280.01599884033203" y="0" dx="0em" dy="0.95em" fill="rgb(50, 49, 63)" stroke="none" stroke-width="1px">5.5k</text></g><line x1="0" y1="0" x2="280.01599884033203" y2="0" fill="rgb(0, 0, 0)" stroke="rgb(204, 204, 204)" stroke-width="1px"></line></g></g></g></g></svg>