<svg viewBox="0 0 330 200" xmlns="http://www.w3.org/2000/svg"><g><g><g><g><g><line x1="49.98400115966797" y1="178.58999919891357" x2="44.98400115966797" y2="178.58999919891357" style="visibility: inherit;" fill="rgb(0, 0, 0)" stroke="rgb(204, 204, 204)" stroke-width="1px"></line><line x1="49.98400115966797" y1="166.68399925231932" x2="44.98400115966797" y2="166.68399925231932" style="visibility: inherit;" fill="rgb(0, 0, 0)" stroke="rgb(204, 204, 204)" stroke-width="1px"></line><line x1="49.98400115966797" y1="154.7779993057251" x2="44.98400115966797" y2="154.7779993057251" style="visibility: inherit;" fill="rgb(0, 0, 0)" stroke="rgb(204, 204, 204)" stroke-width="1px"></line><line x1="49.98400115966797" y1="142.87199935913085" x2="44.98400115966797" y2="142.87199935913085" style="visibility: inherit;" fill="rgb(0, 0, 0)" stroke="rgb(204, 204, 204)" stroke-width="1px"></line><line x1="49.98400115966797" y1="130.96599941253663" x2="44.98400115966797" y2="130.96599941253663" style="visibility: inherit;" fill="rgb(0, 0, 0)" stroke="rgb(204, 204, 204)" stroke-width="1px"></line><line x1="49.98400115966797" y1="119.0599994659424" x2="44.98400115966797" y2="119.0599994659424" style="visibility: inherit;" fill="rgb(0, 0, 0)" stroke="rgb(204, 204, 204)" stroke-width="1px"></line><line x1="49.98400115966797" y1="107.15399951934816" x2="44.98400115966797" y2="107.15399951934816" style="visibility: inherit;" fill="rgb(0, 0, 0)" stroke="rgb(204, 204, 204)" stroke-width="1px"></line><line x1="49.98400115966797" y1="95.24799957275393" x2="44.98400115966797" y2="95.24799957275393" style="visibility: inherit;" fill="rgb(0, 0, 0)" stroke="rgb(204, 204, 204)" stroke-width="1px"></line><line x1="49.98400115966797" y1="83.34199962615966" x2="44.98400115966797" y2="83.34199962615966" style="visibility: inherit;" fill="rgb(0, 0, 0)" stroke="rgb(204, 204, 204)" stroke-width="1px"></line><line x1="49.98400115966797" y1="71.43599967956543" x2="44.98400115966797" y2="71.43599967956543" style="visibility: inherit;" fill="rgb(0, 0, 0)" stroke="rgb(204, 204, 204)" stroke-width="1px"></line><line x1="49.98400115966797" y1="59.5299997329712" x2="44.98400115966797" y2="59.5299997329712" style="visibility: inherit;" fill="rgb(0, 0, 0)" stroke="rgb(204, 204, 204)" stroke-width="1px"></line><line x1="49.98400115966797" y1="47.62399978637694" x2="44.98400115966797" y2="47.62399978637694" style="visibility: inherit;" fill="rgb(0, 0, 0)" stroke="rgb(204, 204, 204)" stroke-width="1px"></line><line x1="49.98400115966797" y1="35.717999839782685" x2="44.98400115966797" y2="35.717999839782685" style="visibility: inherit;" fill="rgb(0, 0, 0)" stroke="rgb(204, 204, 204)" stroke-width="1px"></line><line x1="49.98400115966797" y1="23.81199989318847" x2="44.98400115966797" y2="23.81199989318847" style="visibility: inherit;" fill="rgb(0, 0, 0)" stroke="rgb(204, 204, 204)" stroke-width="1px"></line><line x1="49.98400115966797" y1="11.905999946594216" x2="44.98400115966797" y2="11.905999946594216" style="visibility: inherit;" fill="rgb(0, 0, 0)" stroke="rgb(204, 204, 204)" stroke-width="1px"></line><line x1="49.98400115966797" y1="0" x2="44.98400115966797" y2="0" style="visibility: inherit;" fill="rgb(0, 0, 0)" stroke="rgb(204, 204, 204)" stroke-width="1px"></line></g><g transform="translate(39.98400115966797, 0)"><text style="text-anchor: end; visibility: hidden; font-family: Roboto, sans-serif; font-size: 12px; font-weight: 200;" x="0" y="178.58999919891357" dx="0em" dy="0.3em" fill="rgb(50, 49, 63)" stroke="none" stroke-width="1px">-0.2</text><text style="text-anchor: end; visibility: inherit; font-family: Roboto, sans-serif; font-size: 12px; font-weight: 200;" x="0" y="166.68399925231932" dx="0em" dy="0.3em" fill="rgb(50, 49, 63)" stroke="none" stroke-width="1px">0</text><text style="text-anchor: end; visibility: hidden; font-family: Roboto, sans-serif; font-size: 12px; font-weight: 200;" x="0" y="154.7779993057251" dx="0em" dy="0.3em" fill="rgb(50, 49, 63)" stroke="none" stroke-width="1px">0.2</text><text style="text-anchor: end; visibility: hidden; font-family: Roboto, sans-serif; font-size: 12px; font-weight: 200;" x="0" y="142.87199935913085" dx="0em" dy="0.3em" fill="rgb(50, 49, 63)" stroke="none" stroke-width="1px">0.4</text><text style="text-anchor: end; visibility: inherit; font-family: Roboto, sans-serif; font-size: 12px; font-weight: 200;" x="0" y="130.96599941253663" dx="0em" dy="0.3em" fill="rgb(50, 49, 63)" stroke="none" stroke-width="1px">0.6</text><text style="text-anchor: end; visibility: hidden; font-family: Roboto, sans-serif; font-size: 12px; font-weight: 200;" x="0" y="119.0599994659424" dx="0em" dy="0.3em" fill="rgb(50, 49, 63)" stroke="none" stroke-width="1px">0.8</text><text style="text-anchor: end; visibility: hidden; font-family: Roboto, sans-serif; font-size: 12px; font-weight: 200;" x="0" y="107.15399951934816" dx="0em" dy="0.3em" fill="rgb(50, 49, 63)" stroke="none" stroke-width="1px">1</text><text style="text-anchor: end; visibility: inherit; font-family: Roboto, sans-serif; font-size: 12px; font-weight: 200;" x="0" y="95.24799957275393" dx="0em" dy="0.3em" fill="rgb(50, 49, 63)" stroke="none" stroke-width="1px">1.2</text><text style="text-anchor: end; visibility: hidden; font-family: Roboto, sans-serif; font-size: 12px; font-weight: 200;" x="0" y="83.34199962615966" dx="0em" dy="0.3em" fill="rgb(50, 49, 63)" stroke="none" stroke-width="1px">1.4</text><text style="text-anchor: end; visibility: hidden; font-family: Roboto, sans-serif; font-size: 12px; font-weight: 200;" x="0" y="71.43599967956543" dx="0em" dy="0.3em" fill="rgb(50, 49, 63)" stroke="none" stroke-width="1px">1.6</text><text style="text-anchor: end; visibility: inherit; font-family: Roboto, sans-serif; font-size: 12px; font-weight: 200;" x="0" y="59.5299997329712" dx="0em" dy="0.3em" fill="rgb(50, 49, 63)" stroke="none" stroke-width="1px">1.8</text><text style="text-anchor: end; visibility: hidden; font-family: Roboto, sans-serif; font-size: 12px; font-weight: 200;" x="0" y="47.62399978637694" dx="0em" dy="0.3em" fill="rgb(50, 49, 63)" stroke="none" stroke-width="1px">2</text><text style="text-anchor: end; visibility: hidden; font-family: Roboto, sans-serif; font-size: 12px; font-weight: 200;" x="0" y="35.717999839782685" dx="0em" dy="0.3em" fill="rgb(50, 49, 63)" stroke="none" stroke-width="1px">2.2</text><text style="text-anchor: end; visibility: inherit; font-family: Roboto, sans-serif; font-size: 12px; font-weight: 200;" x="0" y="23.81199989318847" dx="0em" dy="0.3em" fill="rgb(50, 49, 63)" stroke="none" stroke-width="1px">2.4</text><text style="text-anchor: end; visibility: hidden; font-family: Roboto, sans-serif; font-size: 12px; font-weight: 200;" x="0" y="11.905999946594216" dx="0em" dy="0.3em" fill="rgb(50, 49, 63)" stroke="none" stroke-width="1px">2.6</text><text style="text-anchor: end; visibility: hidden; font-family: Roboto, sans-serif; font-size: 12px; font-weight: 200;" x="0" y="0" dx="0em" dy="0.3em" fill="rgb(50, 49, 63)" stroke="none" stroke-width="1px">2.8</text></g><line x1="49.98400115966797" y1="0" x2="49.98400115966797" y2="178.58999919891357" fill="rgb(0, 0, 0)" stroke="rgb(204, 204, 204)" stroke-width="1px"></line></g></g><g transform="translate(49, 0)" clip-path="url(#clip_0)"><clipPath id="clip_0"><rect width="280" height="178"></rect></clipPath><g><g><g><line x1="0" y1="0" x2="0" y2="178.58999919891357" fill="rgb(0, 0, 0)" stroke="rgb(60, 60, 60)" stroke-width="1px" opacity="0.25"></line><line x1="23.334666570027668" y1="0" x2="23.334666570027668" y2="178.58999919891357" fill="rgb(0, 0, 0)" stroke="rgb(60, 60, 60)" stroke-width="1px" opacity="0.25"></line><line x1="46.669333140055336" y1="0" x2="46.669333140055336" y2="178.58999919891357" fill="rgb(0, 0, 0)" stroke="rgb(60, 60, 60)" stroke-width="1px" opacity="0.25"></line><line x1="70.00399971008301" y1="0" x2="70.00399971008301" y2="178.58999919891357" fill="rgb(0, 0, 0)" stroke="rgb(60, 60, 60)" stroke-width="1px" opacity="0.25"></line><line x1="93.33866628011067" y1="0" x2="93.33866628011067" y2="178.58999919891357" fill="rgb(0, 0, 0)" stroke="rgb(60, 60, 60)" stroke-width="1px" opacity="0.25"></line><line x1="116.67333285013835" y1="0" x2="116.67333285013835" y2="178.58999919891357" fill="rgb(0, 0, 0)" stroke="rgb(60, 60, 60)" stroke-width="1px" opacity="0.25"></line><line x1="140.00799942016602" y1="0" x2="140.00799942016602" y2="178.58999919891357" fill="rgb(0, 0, 0)" stroke="rgb(60, 60, 60)" stroke-width="1px" opacity="0.25"></line><line x1="163.3426659901937" y1="0" x2="163.3426659901937" y2="178.58999919891357" fill="rgb(0, 0, 0)" stroke="rgb(60, 60, 60)" stroke-width="1px" opacity="0.25"></line><line x1="186.67733256022134" y1="0" x2="186.67733256022134" y2="178.58999919891357" fill="rgb(0, 0, 0)" stroke="rgb(60, 60, 60)" stroke-width="1px" opacity="0.25"></line><line x1="210.01199913024902" y1="0" x2="210.01199913024902" y2="178.58999919891357" fill="rgb(0, 0, 0)" stroke="rgb(60, 60, 60)" stroke-width="1px" opacity="0.25"></line><line x1="233.3466657002767" y1="0" x2="233.3466657002767" y2="178.58999919891357" fill="rgb(0, 0, 0)" stroke="rgb(60, 60, 60)" stroke-width="1px" opacity="0.25"></line><line x1="256.6813322703043" y1="0" x2="256.6813322703043" y2="178.58999919891357" fill="rgb(0, 0, 0)" stroke="rgb(60, 60, 60)" stroke-width="1px" opacity="0.25"></line><line x1="280.01599884033203" y1="0" x2="280.01599884033203" y2="178.58999919891357" fill="rgb(0, 0, 0)" stroke="rgb(60, 60, 60)" stroke-width="1px" opacity="0.25"></line></g><g><line x1="0" y1="178.58999919891357" x2="280.01599884033203" y2="178.58999919891357" fill="rgb(0, 0, 0)" stroke="rgb(60, 60, 60)" stroke-width="1px" opacity="0.25"></line><line x1="0" y1="166.68399925231932" x2="280.01599884033203" y2="166.68399925231932" fill="rgb(0, 0, 0)" stroke="rgb(60, 60, 60)" stroke-width="1px" opacity="0.25"></line><line x1="0" y1="154.7779993057251" x2="280.01599884033203" y2="154.7779993057251" fill="rgb(0, 0, 0)" stroke="rgb(60, 60, 60)" stroke-width="1px" opacity="0.25"></line><line x1="0" y1="142.87199935913085" x2="280.01599884033203" y2="142.87199935913085" fill="rgb(0, 0, 0)" stroke="rgb(60, 60, 60)" stroke-width="1px" opacity="0.25"></line><line x1="0" y1="130.96599941253663" x2="280.01599884033203" y2="130.96599941253663" fill="rgb(0, 0, 0)" stroke="rgb(60, 60, 60)" stroke-width="1px" opacity="0.25"></line><line x1="0" y1="119.0599994659424" x2="280.01599884033203" y2="119.0599994659424" fill="rgb(0, 0, 0)" stroke="rgb(60, 60, 60)" stroke-width="1px" opacity="0.25"></line><line x1="0" y1="107.15399951934816" x2="280.01599884033203" y2="107.15399951934816" fill="rgb(0, 0, 0)" stroke="rgb(60, 60, 60)" stroke-width="1px" opacity="0.25"></line><line x1="0" y1="95.24799957275393" x2="280.01599884033203" y2="95.24799957275393" fill="rgb(0, 0, 0)" stroke="rgb(60, 60, 60)" stroke-width="1px" opacity="0.25"></line><line x1="0" y1="83.34199962615966" x2="280.01599884033203" y2="83.34199962615966" fill="rgb(0, 0, 0)" stroke="rgb(60, 60, 60)" stroke-width="1px" opacity="0.25"></line><line x1="0" y1="71.43599967956543" x2="280.01599884033203" y2="71.43599967956543" fill="rgb(0, 0, 0)" stroke="rgb(60, 60, 60)" stroke-width="1px" opacity="0.25"></line><line x1="0" y1="59.5299997329712" x2="280.01599884033203" y2="59.5299997329712" fill="rgb(0, 0, 0)" stroke="rgb(60, 60, 60)" stroke-width="1px" opacity="0.25"></line><line x1="0" y1="47.62399978637694" x2="280.01599884033203" y2="47.62399978637694" fill="rgb(0, 0, 0)" stroke="rgb(60, 60, 60)" stroke-width="1px" opacity="0.25"></line><line x1="0" y1="35.717999839782685" x2="280.01599884033203" y2="35.717999839782685" fill="rgb(0, 0, 0)" stroke="rgb(60, 60, 60)" stroke-width="1px" opacity="0.25"></line><line x1="0" y1="23.81199989318847" x2="280.01599884033203" y2="23.81199989318847" fill="rgb(0, 0, 0)" stroke="rgb(60, 60, 60)" stroke-width="1px" opacity="0.25"></line><line x1="0" y1="11.905999946594216" x2="280.01599884033203" y2="11.905999946594216" fill="rgb(0, 0, 0)" stroke="rgb(60, 60, 60)" stroke-width="1px" opacity="0.25"></line><line x1="0" y1="0" x2="280.01599884033203" y2="0" fill="rgb(0, 0, 0)" stroke="rgb(60, 60, 60)" stroke-width="1px" opacity="0.25"></line></g></g></g><g><g><line x1="0" y1="166.68399925231932" x2="280.01599884033203" y2="166.68399925231932" fill="rgb(0, 0, 0)" stroke="rgb(153, 153, 153)" stroke-width="1.5px"></line></g></g><g><g><line x1="23.334666570027668" y1="0" x2="23.334666570027668" y2="178.58999919891357" fill="rgb(0, 0, 0)" stroke="rgb(153, 153, 153)" stroke-width="1.5px"></line></g></g><g><g><g><g><g><path style="fill: none;" stroke="rgb(0, 153, 136)" stroke-width="2px" d="M28.001599884033205,-3.106090654692239L28.93498654683431,12.114514370226537L29.86837320963542,23.715198488387227L30.801759872436524,33.38038541784968L31.73514653523763,41.83687773716239L32.66853319803874,49.27639780004643L33.60191986083984,57.323526626262606L34.535306523640955,62.1130363599121L35.46869318644206,67.4304752844432L36.402079849243165,71.46184267049495L37.33546651204427,77.58237307498001L38.268853174845376,80.48692613463717L39.20223983764649,82.30908230706993L40.13562650044759,85.8416932815265L41.0690131632487,83.21399514049332L42.0023998260498,90.3903722113552L42.93578648885091,89.41408165975412L43.86917315165202,87.44668993147651L44.802559814453126,92.85102902207933L45.73594647725423,96.37359198310773L46.669333140055336,98.45991521177238L47.60271980285645,100.2025118333703L48.536106465657554,101.36633665078415L49.46949312845866,106.34308314226115L50.402879791259764,104.339730974134L51.33626645406087,105.63374268364868L52.26965311686198,107.91813941784304L53.20303977966309,109.24201547174123L54.13642644246419,110.18682580346152L55.0698131052653,110.90556635340076L56.00319976806641,112.08626517310931L56.936586430867514,113.7814568172384L57.86997309366862,115.23705780816809L58.803359756469725,113.6477581999393L59.73674641927084,114.76250438900723L60.67013308207194,117.26632856687442L61.60351974487305,119.65749739021078L62.53690640767415,120.2802521591643L63.47029307047526,120.6623527285148L64.40367973327638,120.36775439761347L65.33706639607747,122.81523220341406L66.27045305887857,120.24192061428428L67.20383972167969,121.9167616611141L68.1372263844808,121.94425851481913L69.07061304728191,122.3836231763093L70.00399971008301,123.4573263680794L70.93738637288412,125.1841819698343L71.87077303568522,126.43990735516023L72.80415969848633,127.73454943350234L73.73754636128743,127.33303978322832L74.67093302408854,129.4922609928828L75.60431968688965,128.09475464679656L76.53770634969075,126.7437196462803L77.47109301249186,128.39360575292065L78.40447967529298,128.45488279660816L79.33786633809407,131.16230280369936L80.27125300089519,129.6621034245033L81.20463966369628,127.92959359223671L82.1380263264974,128.58528240625628L83.07141298929851,129.46823271434752L84.0047996520996,131.16993220998933L84.93818631490072,130.47362312012146L85.87157297770182,132.8257804032761L86.80495964050293,134.53457191259963L87.73834630330404,133.8844876129526L88.67173296610514,133.3333770501565L89.60511962890625,131.69119267675114L90.53850629170735,134.2826220724363L91.47189295450846,134.47453596724856L92.40527961730957,133.95317675007576L93.33866628011067,136.44395143933008L94.27205294291178,136.50902912879548L95.2054396057129,136.52693376335202L96.138826268514,135.81440256885853L97.07221293131511,132.97226857878897L98.0055995941162,133.11226880872752L98.93898625691732,134.15987255288385L99.87237291971843,132.56794507611878L100.80575958251953,134.88903957374154L101.73914624532064,134.0227171048539L102.67253290812174,134.77735803743667L103.60591957092285,137.84014305436742L104.53930623372396,137.83566655808812L105.47269289652506,139.0901896694546L106.40607955932617,141.14434450085753L107.33946622212729,140.77100005021586L108.27285288492838,139.23637518397717L109.2062395477295,138.8292938685448L110.1396262105306,141.1731719054064L111.0730128733317,139.18433475606992L112.00639953613282,140.2698010146293L112.93978619893392,138.3073007010517L113.87317286173503,138.00509917044928L114.80655952453613,136.62069801771162L115.73994618733724,138.95070088517573L116.67333285013835,138.16143741175105L117.60671951293945,138.82132912942146L118.54010617574056,138.6316003974587L119.47349283854167,138.98097134580996L120.40687950134277,137.8708552599282L121.34026616414388,139.00554119028362L122.27365282694498,142.21134175632625L123.2070394897461,141.4971622072373L124.1404261525472,139.92232447596885L125.0738128153483,140.1752903807047L126.00719947814942,137.2100430508264L126.94058614095051,139.7691717127834L127.87397280375163,141.24957487754034L128.80735946655275,141.30981293620505L129.74074612935382,139.22353865927545L130.67413279215495,140.3591550172433L131.60751945495605,141.51897849275014L132.54090611775715,143.61741566198725L133.47429278055827,143.81892057162298L134.40767944335937,143.32061942994434L135.3410661061605,143.05606542630127L136.2744527689616,141.33821283452815L137.2078394317627,143.60126223873934L138.14122609456382,142.51856789025726L139.0746127573649,142.92960417901352L140.00799942016602,142.51856222602646L140.9413860829671,144.0584917719866L141.87477274576824,145.33070385283511L142.80815940856934,143.07467020864462L143.74154607137044,142.05087185104273L144.67493273417156,142.20150924373507L145.60831939697266,142.9162286862183L146.54170605977376,141.05665258824L147.47509272257486,140.75934464858398L148.40847938537598,143.1510359798103L149.34186604817708,142.1278812682407L150.27525271097818,143.2455535753289L151.2086393737793,141.12615517370534L152.1420260365804,141.46354904921213L153.0754126993815,143.8789690990781L154.00879936218263,146.6471316189588L154.94218602498373,146.3003281192946L155.87557268778482,145.7278924805907L156.80895935058595,143.14038373652363L157.74234601338705,140.84182039892843L158.67573267618815,144.1136587800565L159.60911933898925,144.25467548005543L160.54250600179037,143.07845797079634L161.47589266459147,141.47784451668406L162.40927932739257,143.79588548235984L163.3426659901937,145.62550547996685L164.2760526529948,145.12515476569652L165.2094393157959,142.7128732545987L166.14282597859702,143.90319759034074L167.07621264139812,143.65559749082848L168.0095993041992,145.99021439988195L168.94298596700034,145.57379340232313L169.87637262980144,148.36251838729922L170.80975929260254,147.40758509707456L171.74314595540363,146.77946167425742L172.67653261820476,141.09666548123863L173.60991928100586,144.59210916103595L174.54330594380696,145.52388331956064L175.47669260660808,145.9168400706076L176.41007926940918,147.3179535952165L177.34346593221028,147.41164887624197L178.2768525950114,147.5036857748592L179.2102392578125,147.99254983288938L180.1436259206136,145.96530116388269L181.0770125834147,146.16618486139015L182.01039924621583,148.52591302766422L182.94378590901692,149.74585911573152L183.87717257181802,148.5883468331759L184.81055923461915,149.01629248406786L185.74394589742025,150.1320130969588L186.67733256022134,148.1201873405672L187.61071922302247,145.80647122245043L188.54410588582357,144.6680109853889L189.47749254862467,144.5594244111927L190.4108792114258,145.95611059845965L191.3442658742269,146.62981211754135L192.277652537028,146.15416491643913L193.2110391998291,147.49243049090614L194.14442586263021,144.27550564470042L195.0778125254313,146.86826173947125L196.0111991882324,145.31473160743727L196.94458585103354,146.37300965390367L197.87797251383464,146.69312265178542" fill="none"></path></g><g><path style="fill: none;" stroke="rgb(204, 51, 17)" stroke-width="2px" d="M35.46869318644206,-7.283013407730314L36.402079849243165,4.593640682179979L37.33546651204427,11.851219943491476L38.268853174845376,16.926960442593504L39.20223983764649,29.245782843215036L40.13562650044759,34.536491873933045L41.0690131632487,44.19302255042593L42.0023998260498,53.60868116686103L42.93578648885091,58.22472418064714L43.86917315165202,61.398578004865634L44.802559814453126,70.25342366430597L45.73594647725423,71.75441837822149L46.669333140055336,68.96445344790351L47.60271980285645,76.93213540077474L48.536106465657554,85.70073844998934L49.46949312845866,88.19905812302636L50.402879791259764,94.08455679756133L51.33626645406087,97.05281932460042L52.26965311686198,100.79346618961746L53.20303977966309,104.96339231881596L54.13642644246419,106.36435117228295L55.0698131052653,109.58821911342764L56.00319976806641,111.32608379038895L56.936586430867514,113.51107976628023L57.86997309366862,113.31308844795642L58.803359756469725,114.49439480024174L59.73674641927084,117.61045749486544L60.67013308207194,120.20133238096385L61.60351974487305,124.83218701112659L62.53690640767415,124.30914612910215L63.47029307047526,125.03694018799295L64.40367973327638,127.01748779153276L65.33706639607747,129.18406009905482L66.27045305887857,130.88812951904316L67.20383972167969,131.85754306788044L68.1372263844808,132.20561320386685L69.07061304728191,133.0050028792661L70.00399971008301,134.10156775373392L70.93738637288412,135.03955842066316L71.87077303568522,135.7001983430224L72.80415969848633,136.72466627060453L73.73754636128743,137.32495029882128L74.67093302408854,137.20805371678648L75.60431968688965,135.59371319153664L76.53770634969075,138.563836452261L77.47109301249186,140.7065553015584L78.40447967529298,140.5410493353936L79.33786633809407,141.45351421369506L80.27125300089519,142.28115913704357L81.20463966369628,142.0184032976563L82.1380263264974,141.98735967712204L83.07141298929851,141.08731905858656L84.0047996520996,142.39182875659733L84.93818631490072,144.1275941588458L85.87157297770182,144.0396755867956L86.80495964050293,144.90814403045476L87.73834630330404,144.552507842964L88.67173296610514,147.04129985444405L89.60511962890625,147.7166206158243L90.53850629170735,146.89221665776068L91.47189295450846,146.31139190608988L92.40527961730957,147.74287825805013L93.33866628011067,149.6530974183455L94.27205294291178,150.98145606933116L95.2054396057129,150.7303008017179L96.138826268514,150.98121724752184L97.07221293131511,150.40190472227627L98.0055995941162,151.28934566012472L98.93898625691732,151.32885019240317L99.87237291971843,151.9372103865265L100.80575958251953,152.5039928858626L101.73914624532064,152.04041028445295L102.67253290812174,152.94426462175375L103.60591957092285,153.90213896129765L104.53930623372396,154.42844749609122L105.47269289652506,153.89839661876923L106.40607955932617,153.67916006567677L107.33946622212729,154.46185899411648L108.27285288492838,154.97812809405121L109.2062395477295,153.37097408277174L110.1396262105306,153.2950574623171L111.0730128733317,153.88234117105407L112.00639953613282,154.66389917874483L112.93978619893392,154.9313024956063L113.87317286173503,154.63216688241795L114.80655952453613,155.03165050854383L115.73994618733724,155.76941198964437L116.67333285013835,156.2813891926395L117.60671951293945,156.7123712689696L118.54010617574056,155.69359168612115L119.47349283854167,154.62156618033825L120.40687950134277,155.02873154902252L121.34026616414388,155.3607779317047L122.27365282694498,155.91428826112434L123.2070394897461,156.762594557121L124.1404261525472,157.33650696209756L125.0738128153483,157.27241190578786L126.00719947814942,157.92514543973294L126.94058614095051,158.1538811892115L127.87397280375163,158.19238756678834L128.80735946655275,158.0307864854344L129.74074612935382,158.98294882642836L130.67413279215495,159.44343251177236L131.60751945495605,159.35789501614883L132.54090611775715,158.65904582934846L133.47429278055827,158.6998369347589L134.40767944335937,159.66258804711265L135.3410661061605,159.7901928141126L136.2744527689616,160.1487873481478L137.2078394317627,160.04646807111456L138.14122609456382,159.4019983626617L139.0746127573649,159.49679562603146L140.00799942016602,158.9776350663241L140.9413860829671,159.50372412669807L141.87477274576824,160.33943923750917L142.80815940856934,160.5173801271937L143.74154607137044,159.95391174005604L144.67493273417156,160.7762730445217L145.60831939697266,159.87914892531052L146.54170605977376,159.80018984034336L147.47509272257486,160.15074746148622L148.40847938537598,159.4475314887328L149.34186604817708,159.94273726213166L150.27525271097818,159.74917264949167L151.2086393737793,159.8464524105205L152.1420260365804,160.4233198182838L153.0754126993815,160.72449457409104L154.00879936218263,161.00853021184994L154.94218602498373,160.5423186092955L155.87557268778482,161.37285442812797L156.80895935058595,161.31125357382714L157.74234601338705,161.4720820170314L158.67573267618815,161.75555807356412L159.60911933898925,161.82708037137468L160.54250600179037,161.4609563842241L161.47589266459147,161.9949147407035L162.40927932739257,161.97256412963003L163.3426659901937,161.41611654360264L164.2760526529948,161.1849792969756L165.2094393157959,161.5770820111071L166.14282597859702,161.0658185968245L167.07621264139812,161.54761531611132L168.0095993041992,161.9087504384175L168.94298596700034,162.02436913301355L169.87637262980144,162.58687522093444L170.80975929260254,162.52136229173914L171.74314595540363,162.3559609236068L172.67653261820476,162.6308825526888L173.60991928100586,162.63543241959343L174.54330594380696,163.04460246467482L175.47669260660808,163.091045345959L176.41007926940918,163.3852462909511L177.34346593221028,162.87095790606114L178.2768525950114,163.3107941350382L179.2102392578125,163.4608238153036L180.1436259206136,163.5399395808248L181.0770125834147,163.58584026370096L182.01039924621583,163.58946093544986L182.94378590901692,163.8844588329056L183.87717257181802,164.00119366990907L184.81055923461915,164.0698884492712L185.74394589742025,163.91197831056544L186.67733256022134,163.25139936017158L187.61071922302247,163.30495933061928L188.54410588582357,162.68060091720898L189.47749254862467,162.17844616335574L190.4108792114258,162.78827737581307L191.3442658742269,163.01017511145645L192.277652537028,162.51273073599722L193.2110391998291,162.0610346151982L194.14442586263021,162.88236524533906L195.0778125254313,162.17009423197564L196.0111991882324,162.72508461452955L196.94458585103354,163.01004740699955L197.87797251383464,162.90378054967968L198.81135917663573,163.14356532541774L199.74474583943686,162.3759527756053L200.67813250223796,161.59075328585814L201.61151916503906,162.16437740249228L202.54490582784018,162.36549516252848L203.47829249064128,162.36098943430505L204.41167915344238,161.85368251443765L205.34506581624348,162.84806455662294L206.2784524790446,162.8467882407672L207.2118391418457,163.18159122674348L208.1452258046468,162.985397739146L209.07861246744793,163.47627668934965L210.01199913024902,164.02618471874098L210.94538579305012,164.2595259954498L211.87877245585125,164.1938888754331L212.81215911865235,164.15890920129263L213.74554578145344,163.67015528613194L214.67893244425457,163.26432058534934L215.61231910705567,163.44023740106186L216.54570576985677,163.90971461670998L217.47909243265786,163.90965410919532L218.412479095459,163.46357328213688L219.3458657582601,164.2283497317363L220.2792524210612,164.73760676750248L221.2126390838623,164.79385930511972L222.1460257466634,164.49890923022966L223.0794124094645,164.2526588776429L224.01279907226564,164.3523867193999L224.94618573506673,164.60682475248316L225.87957239786783,163.95787301785052L226.81295906066896,163.76927635388887L227.74634572347006,164.12253497249705L228.67973238627116,164.31632906153524L229.61311904907225,164.19776043641082L230.54650571187338,164.20014089823746L231.47989237467448,164.3318697857383L232.41327903747558,164.34445051946528L233.3466657002767,164.67351922466548L234.2800523630778,164.3928643190599L235.2134390258789,164.11653591988986L236.14682568868002,164.44879869830655L237.08021235148112,164.81149584217783L238.01359901428222,165.08890092145694L238.94698567708335,164.73270882691153L239.88037233988445,164.67039899164132L240.81375900268554,164.7872033673193L241.74714566548664,164.19143633160587L242.68053232828777,164.61881881678724L243.61391899108887,164.81050866995474L244.54730565388996,164.9734426921193L245.4806923166911,165.33469281311048L246.4140789794922,165.55317432789187L247.3474656422933,165.63231779784874L248.2808523050944,165.45525542128533L249.2142389678955,165.16458417485404L250.1476256306966,165.04728830449076L251.0810122934977,165.46563249947965L252.01439895629883,165.53336046654363L252.94778561909993,165.47431194944195L253.88117228190103,165.27129404951597L254.81455894470216,165.14935109235492L255.74794560750325,165.26046212784794L256.6813322703043,165.05735468804073" fill="none"></path></g></g></g></g><g opacity="0.2"><g><g><g><path style="fill: none;" stroke="rgb(0, 153, 136)" stroke-width="2px" d="M26.13482655843099,-11.071859737800025L27.068213221232096,2.764895685668258L28.001599884033205,22.298744570367425L28.93498654683431,33.88022308554077L29.86837320963542,40.629107299233006L30.801759872436524,47.63465877289759L31.73514653523763,54.39378327790093L32.66853319803874,60.36820199495079L33.60191986083984,69.35042774587585L34.535306523640955,69.28166238010688L35.46869318644206,75.39621625482853L36.402079849243165,77.50415502854192L37.33546651204427,86.75885200946693L38.268853174845376,84.84252661461092L39.20223983764649,85.04185392046425L40.13562650044759,91.14007158548516L41.0690131632487,79.27268811096197L42.0023998260498,101.15454424807406L42.93578648885091,87.94967795760893L43.86917315165202,84.4956411817778L44.802559814453126,100.95747363843483L45.73594647725423,101.65741138778046L46.669333140055336,101.58939115755388L47.60271980285645,102.81640230694L48.536106465657554,103.11207209015964L49.46949312845866,113.80819829518978L50.402879791259764,101.33470382916559L51.33626645406087,107.57475981881232L52.26965311686198,111.34473406461603L53.20303977966309,111.22782939454432L54.13642644246419,111.60404123336713L55.0698131052653,111.98367714742045L56.00319976806641,113.85731337222663L56.936586430867514,116.3242442572047L57.86997309366862,117.4204592810503L58.803359756469725,111.2638087964482L59.73674641927084,116.43462366888379L60.67013308207194,121.02206482865466L61.60351974487305,123.2442506223386L62.53690640767415,121.21438431214506L63.47029307047526,121.23550358237503L64.40367973327638,119.92585690133805L65.33706639607747,126.48644891173326L66.27045305887857,116.3819532308304L67.20383972167969,124.42902323126482L68.1372263844808,121.98550379537568L69.07061304728191,123.04267016853566L70.00399971008301,125.06788115572154L70.93738637288412,127.7744653724541L71.87077303568522,128.32349543314365L72.80415969848633,129.67651255101214L73.73754636128743,126.73077530781788L74.67093302408854,132.73109280736242L75.60431968688965,125.9984951276681L76.53770634969075,124.71716714550634L77.47109301249186,130.8684349128808L78.40447967529298,128.54679836213947L79.33786633809407,135.22343281433595L80.27125300089519,127.41180435570925L81.20463966369628,125.33082884383687L82.1380263264974,129.56881562728566L83.07141298929851,130.79265817648442L84.0047996520996,133.72248145345196L84.93818631490072,129.42915948531964L85.87157297770182,136.3540163280081L86.80495964050293,137.0977591765849L87.73834630330404,132.90936116348206L88.67173296610514,132.5067112059624L89.60511962890625,129.22791611664306L90.53850629170735,138.16976616596412L91.47189295450846,134.7624068094669L92.40527961730957,133.1711379243165L93.33866628011067,140.18011347321158L94.27205294291178,136.60664566299357L95.2054396057129,136.55379071518684L96.138826268514,134.74560577711827L97.07221293131511,128.7090675936847L98.0055995941162,133.32226915363526L98.93898625691732,135.73127816911835L99.87237291971843,130.18005386097116L100.80575958251953,138.37068132017563L101.73914624532064,132.72323340152246L102.67253290812174,135.90931943631082L103.60591957092285,142.43432057976352L104.53930623372396,137.82895181366922L105.47269289652506,140.97197433650425L106.40607955932617,144.22557674796192L107.33946622212729,140.21098337425337L108.27285288492838,136.93443788461911L109.2062395477295,138.2186718953962L110.1396262105306,144.68898896069885L111.0730128733317,136.20107903206514L112.00639953613282,141.89800040246843L112.93978619893392,135.36355023068532L113.87317286173503,137.5517968745457L114.80655952453613,134.5440962886051L115.73994618733724,142.44570518637187L116.67333285013835,136.97754220161403L117.60671951293945,139.81116670592704L118.54010617574056,138.34700729951462L119.47349283854167,139.50502776833684L120.40687950134277,136.20568113110554L121.34026616414388,140.70757008581677L122.27365282694498,147.0200426053902L123.2070394897461,140.42589288360384L124.1404261525472,137.5600678790662L125.0738128153483,140.5547392378085L126.00719947814942,132.76217205600898L126.94058614095051,143.60786470571884L127.87397280375163,143.4701796246757L128.80735946655275,141.40017002420214L129.74074612935382,136.09412724388102L130.67413279215495,142.06257955419505L131.60751945495605,143.25871370601044L132.54090611775715,146.76507141584293L133.47429278055827,144.1211779360766L134.40767944335937,142.57316771742637L135.3410661061605,142.65923442083667L136.2744527689616,138.7614339468685L137.2078394317627,146.99583634505603L138.14122609456382,140.89452636753424L139.0746127573649,143.54615861214788L140.00799942016602,141.90199929654588L140.9413860829671,146.36838609092683L141.87477274576824,147.23902197410789L142.80815940856934,139.69061974235882L143.74154607137044,140.5151743146399L144.67493273417156,142.42746533277355L145.60831939697266,143.9883078499431L146.54170605977376,138.26728844127254L147.47509272257486,140.31338273909995L148.40847938537598,146.73857297664978L149.34186604817708,140.59314920088633L150.27525271097818,144.92206203596115L151.2086393737793,137.94705757127002L152.1420260365804,141.96963986247232L153.0754126993815,147.502099173877L154.00879936218263,150.79937539877986L154.94218602498373,145.78012286979828L155.87557268778482,144.86923902253483L156.80895935058595,139.25912062042303L157.74234601338705,137.39397539253565L158.67573267618815,149.0214163517486L159.60911933898925,144.46620053005378L160.54250600179037,141.3141317069077L161.47589266459147,139.07692433551566L162.40927932739257,147.27294693087347L163.3426659901937,148.36993547637738L164.2760526529948,144.374628694291L165.2094393157959,139.09445098795197L166.14282597859702,145.68868409395378L167.07621264139812,143.28419734156012L168.0095993041992,149.49213976346215L168.94298596700034,144.9491619059849L169.87637262980144,152.54560586476333L170.80975929260254,145.97518516173758L171.74314595540363,145.83727654003172L172.67653261820476,132.5724711917104L173.60991928100586,149.8352746807319L174.54330594380696,146.92154455734772L175.47669260660808,146.50627519717804L176.41007926940918,149.41962388212983L177.34346593221028,147.55219179778018L178.2768525950114,147.64174112278505L179.2102392578125,148.7258459199346L180.1436259206136,142.92442816037263L181.0770125834147,146.4675104076514L182.01039924621583,152.0655052770753L182.94378590901692,151.57577824783246L183.87717257181802,146.85207840934243L184.81055923461915,149.6582109604058L185.74394589742025,151.80559401629517L186.67733256022134,145.10244870597987L187.61071922302247,142.33589704527526L188.54410588582357,142.96032062979657L189.47749254862467,144.3965445498984L190.4108792114258,148.05113987936005L191.3442658742269,147.64036439616387L192.277652537028,145.4406941147858L193.2110391998291,149.4998288526067L194.14442586263021,139.45011837539184L195.0778125254313,150.7573958816275L196.0111991882324,142.9844364093863L196.94458585103354,147.96042672360326L197.87797251383464,147.17329214860803" fill="none"></path></g><g><path style="fill: none;" stroke="rgb(204, 51, 17)" stroke-width="2px" d="M33.60191986083984,-7.49265438390563L34.535306523640955,8.282063751263815L35.46869318644206,11.49689072840141L36.402079849243165,22.39466125599524L37.33546651204427,22.732470228269165L38.268853174845376,24.53842330797505L39.20223983764649,47.72088869647433L40.13562650044759,42.471749433740285L41.0690131632487,58.676935920011886L42.0023998260498,67.73165271441788L42.93578648885091,65.1486368084647L43.86917315165202,66.1592960789862L44.802559814453126,83.53558725937792L45.73594647725423,74.00589978066678L46.669333140055336,64.77951795035251L47.60271980285645,88.88363794296727L48.536106465657554,98.85362956194008L49.46949312845866,91.94653533127638L50.402879791259764,102.91280155653811L51.33626645406087,101.50521213085094L52.26965311686198,106.40443574287949L53.20303977966309,111.21828101480828L54.13642644246419,108.46578935213566L55.0698131052653,114.42402088659324L56.00319976806641,113.93288076101825L56.936586430867514,116.78857369631164L57.86997309366862,113.01610147230868L58.803359756469725,116.26635432209008L59.73674641927084,122.2845515263875L60.67013308207194,124.0876447049164L61.60351974487305,131.7784689507995L62.53690640767415,123.52458480644302L63.47029307047526,126.12863127601398L64.40367973327638,129.98830919632775L65.33706639607747,132.43391856000005L66.27045305887857,133.4442336488663L67.20383972167969,133.31166339108196L68.1372263844808,132.72771840783474L69.07061304728191,134.2040873923489L70.00399971008301,135.7464150654223L70.93738637288412,136.44654442105025L71.87077303568522,136.69115822655837L72.80415969848633,138.26136816197504L73.73754636128743,138.22537634114548L74.67093302408854,137.0327088437344L75.60431968688965,133.17220240366277L76.53770634969075,143.01902134334657L77.47109301249186,143.92063357550407L78.40447967529298,140.29279038614638L79.33786633809407,142.82221153114716L80.27125300089519,143.52262652206636L81.20463966369628,141.6242695385754L82.1380263264974,141.94079424632065L83.07141298929851,139.73725813078335L84.0047996520996,144.34859330361348L84.93818631490072,146.7312422622185L85.87157297770182,143.90779772872028L86.80495964050293,146.21084669594353L87.73834630330404,144.01905356172782L88.67173296610514,150.7744878716641L89.60511962890625,148.7296017578947L90.53850629170735,145.6556107206652L91.47189295450846,145.44015477858366L92.40527961730957,149.89010778599047L93.33866628011067,152.5184261587886L94.27205294291178,152.97399404580966L95.2054396057129,150.35356790029797L96.138826268514,151.35759191622773L97.07221293131511,149.5329359344079L98.0055995941162,152.62050706689743L98.93898625691732,151.38810699082077L99.87237291971843,152.8497506777115L100.80575958251953,153.35416663486671L101.73914624532064,151.3450363823385L102.67253290812174,154.30004612770492L103.60591957092285,155.33895047061353L104.53930623372396,155.21791029828154L105.47269289652506,153.10332030278622L106.40607955932617,153.35030523603814L107.33946622212729,155.63590738677604L108.27285288492838,155.75253174395326L109.2062395477295,150.9602430658525L110.1396262105306,153.1811825316352L111.0730128733317,154.76326673415952L112.00639953613282,155.83623619028097L112.93978619893392,155.33240747089846L113.87317286173503,154.18346346263542L114.80655952453613,155.63087594773268L115.73994618733724,156.87605421129516L116.67333285013835,157.0493549971322L117.60671951293945,157.35884438346477L118.54010617574056,154.1654223118484L119.47349283854167,153.01352792166395L120.40687950134277,155.63947960204888L121.34026616414388,155.85884750572797L122.27365282694498,156.74455375525383L123.2070394897461,158.03505400111595L124.1404261525472,158.19737556956235L125.0738128153483,157.17626932132336L126.00719947814942,158.90424574065057L126.94058614095051,158.49698481342932L127.87397280375163,158.25014713315363L128.80735946655275,157.78838486340342L129.74074612935382,160.41119233791932L130.67413279215495,160.13415803978836L131.60751945495605,159.22958877271356L132.54090611775715,157.61077204914787L133.47429278055827,158.76102359287458L134.40767944335937,161.10671471564322L135.3410661061605,159.98159996461254L136.2744527689616,160.68667914920064L137.2078394317627,159.89298915556463L138.14122609456382,158.43529379998242L139.0746127573649,159.63899152108613L140.00799942016602,158.19889422676303L140.9413860829671,160.2928577172591L141.87477274576824,161.59301190372574L142.80815940856934,160.78429146172044L143.74154607137044,159.10870915934964L144.67493273417156,162.00981500122018L145.60831939697266,158.5334627464937L146.54170605977376,159.68175121289266L147.47509272257486,160.67658389320047L148.40847938537598,158.3927075296027L149.34186604817708,160.68554592222992L150.27525271097818,159.45882573053174L151.2086393737793,159.99237205206373L152.1420260365804,161.28862092992875L153.0754126993815,161.1762567078019L154.00879936218263,161.43458366848833L154.94218602498373,159.84300120546385L155.87557268778482,162.6186581563766L156.80895935058595,161.2188522923759L157.74234601338705,161.71332468183778L158.67573267618815,162.1807721583632L159.60911933898925,161.9343638180905L160.54250600179037,160.91177040349817L161.47589266459147,162.79585227542262L162.40927932739257,161.9390382130198L163.3426659901937,160.58144516456156L164.2760526529948,160.83827342703503L165.2094393157959,162.1652360823044L166.14282597859702,160.29892347540058L167.07621264139812,162.27031039504155L168.0095993041992,162.45045312187673L168.94298596700034,162.19779717490758L169.87637262980144,163.4306343528158L170.80975929260254,162.4230928979462L171.74314595540363,162.10785887140827L172.67653261820476,163.04326499631182L173.60991928100586,162.64225721995032L174.54330594380696,163.65835753229698L175.47669260660808,163.16070966788527L176.41007926940918,163.82654770843928L177.34346593221028,162.09952532872617L178.2768525950114,163.97054847850376L179.2102392578125,163.68586833570168L180.1436259206136,163.6586132291066L181.0770125834147,163.6546912880152L182.01039924621583,163.59489194307324L182.94378590901692,164.32695567908925L183.87717257181802,164.17629592541428L184.81055923461915,164.17293061831435L185.74394589742025,163.67511310250683L186.67733256022134,162.26053093458074L187.61071922302247,163.38529928629086L188.54410588582357,161.74406329709356L189.47749254862467,161.42521403257584L190.4108792114258,163.70302419449905L191.3442658742269,163.34302171492155L192.277652537028,161.76656417280836L193.2110391998291,161.38349043399964L194.14442586263021,164.1143611905504L195.0778125254313,161.10168771193048L196.0111991882324,163.5575701883604L196.94458585103354,163.43749159570453L197.87797251383464,162.74438026369992L198.81135917663573,163.50324248902479L199.74474583943686,161.22453395088664L200.67813250223796,160.4129540512374L201.61151916503906,163.02481357744344L202.54490582784018,162.6671718025828L203.47829249064128,162.35423084196995L204.41167915344238,161.09272213463652L205.34506581624348,164.33963761990086L206.2784524790446,162.84487376698362L207.2118391418457,163.6837957057079L208.1452258046468,162.69110750774976L209.07861246744793,164.2125951146551L210.01199913024902,164.851046762828L210.94538579305012,164.60953791051304L211.87877245585125,164.09543319540802L212.81215911865235,164.1064396900819L213.74554578145344,162.93702441339093L214.67893244425457,162.65556853417542L215.61231910705567,163.70411262463062L216.54570576985677,164.61393044018212L217.47909243265786,163.90956334792335L218.412479095459,162.79445204154922L219.3458657582601,165.37551440613547L220.2792524210612,165.5014923211517L221.2126390838623,164.87823811154558L222.1460257466634,164.05648411789457L223.0794124094645,163.88328334876275L224.01279907226564,164.5019784820354L224.94618573506673,164.98848180210803L225.87957239786783,162.9844454159015L226.81295906066896,163.4863813579464L227.74634572347006,164.6524229004093L228.67973238627116,164.6070201950926L229.61311904907225,164.01990749872414L230.54650571187338,164.20371159097743L231.47989237467448,164.52946311698958L232.41327903747558,164.36332162005576L233.3466657002767,165.1671222824658L234.2800523630778,163.9718819606515L235.2134390258789,163.7020433211348L236.14682568868002,164.94719286593156L237.08021235148112,165.35554155798476L238.01359901428222,165.5050085403756L238.94698567708335,164.19842068509342L239.88037233988445,164.57693423873602L240.81375900268554,164.96240993083626L241.74714566548664,163.29778577803572L242.68053232828777,165.25989254455925L243.61391899108887,165.098043449706L244.54730565388996,165.21784372536612L245.4806923166911,165.87656799459728L246.4140789794922,165.88089660006395L247.3474656422933,165.75103300278406L248.2808523050944,165.18966185644018L249.2142389678955,164.7285773052071L250.1476256306966,164.87134449894583L251.0810122934977,166.09314879196302L252.01439895629883,165.63495241713954L252.94778561909993,165.38573917378943L253.88117228190103,164.96676719962701L254.81455894470216,164.96643665661333L255.74794560750325,165.42712868108748L256.6813322703043,164.7526935283299" fill="none"></path></g></g></g></g></g></g><g transform="translate(49, 178)" clip-path="url(#clip_1)"><clipPath id="clip_1"><rect width="280" height="21"></rect></clipPath><g><g><line x1="0" y1="0" x2="0" y2="5" style="visibility: inherit;" fill="rgb(0, 0, 0)" stroke="rgb(204, 204, 204)" stroke-width="1px"></line><line x1="23.334666570027668" y1="0" x2="23.334666570027668" y2="5" style="visibility: inherit;" fill="rgb(0, 0, 0)" stroke="rgb(204, 204, 204)" stroke-width="1px"></line><line x1="46.669333140055336" y1="0" x2="46.669333140055336" y2="5" style="visibility: inherit;" fill="rgb(0, 0, 0)" stroke="rgb(204, 204, 204)" stroke-width="1px"></line><line x1="70.00399971008301" y1="0" x2="70.00399971008301" y2="5" style="visibility: inherit;" fill="rgb(0, 0, 0)" stroke="rgb(204, 204, 204)" stroke-width="1px"></line><line x1="93.33866628011067" y1="0" x2="93.33866628011067" y2="5" style="visibility: inherit;" fill="rgb(0, 0, 0)" stroke="rgb(204, 204, 204)" stroke-width="1px"></line><line x1="116.67333285013835" y1="0" x2="116.67333285013835" y2="5" style="visibility: inherit;" fill="rgb(0, 0, 0)" stroke="rgb(204, 204, 204)" stroke-width="1px"></line><line x1="140.00799942016602" y1="0" x2="140.00799942016602" y2="5" style="visibility: inherit;" fill="rgb(0, 0, 0)" stroke="rgb(204, 204, 204)" stroke-width="1px"></line><line x1="163.3426659901937" y1="0" x2="163.3426659901937" y2="5" style="visibility: inherit;" fill="rgb(0, 0, 0)" stroke="rgb(204, 204, 204)" stroke-width="1px"></line><line x1="186.67733256022134" y1="0" x2="186.67733256022134" y2="5" style="visibility: inherit;" fill="rgb(0, 0, 0)" stroke="rgb(204, 204, 204)" stroke-width="1px"></line><line x1="210.01199913024902" y1="0" x2="210.01199913024902" y2="5" style="visibility: inherit;" fill="rgb(0, 0, 0)" stroke="rgb(204, 204, 204)" stroke-width="1px"></line><line x1="233.3466657002767" y1="0" x2="233.3466657002767" y2="5" style="visibility: inherit;" fill="rgb(0, 0, 0)" stroke="rgb(204, 204, 204)" stroke-width="1px"></line><line x1="256.6813322703043" y1="0" x2="256.6813322703043" y2="5" style="visibility: inherit;" fill="rgb(0, 0, 0)" stroke="rgb(204, 204, 204)" stroke-width="1px"></line><line x1="280.01599884033203" y1="0" x2="280.01599884033203" y2="5" style="visibility: inherit;" fill="rgb(0, 0, 0)" stroke="rgb(204, 204, 204)" stroke-width="1px"></line></g><g transform="translate(0, 8)"><text style="text-anchor: middle; visibility: hidden; font-family: Roboto, sans-serif; font-size: 12px; font-weight: 200;" x="0" y="0" dx="0em" dy="0.95em" fill="rgb(50, 49, 63)" stroke="none" stroke-width="1px">-500</text><text style="text-anchor: middle; visibility: inherit; font-family: Roboto, sans-serif; font-size: 12px; font-weight: 200;" x="23.334666570027668" y="0" dx="0em" dy="0.95em" fill="rgb(50, 49, 63)" stroke="none" stroke-width="1px">0</text><text style="text-anchor: middle; visibility: inherit; font-family: Roboto, sans-serif; font-size: 12px; font-weight: 200;" x="46.669333140055336" y="0" dx="0em" dy="0.95em" fill="rgb(50, 49, 63)" stroke="none" stroke-width="1px">500</text><text style="text-anchor: middle; visibility: inherit; font-family: Roboto, sans-serif; font-size: 12px; font-weight: 200;" x="70.00399971008301" y="0" dx="0em" dy="0.95em" fill="rgb(50, 49, 63)" stroke="none" stroke-width="1px">1k</text><text style="text-anchor: middle; visibility: inherit; font-family: Roboto, sans-serif; font-size: 12px; font-weight: 200;" x="93.33866628011067" y="0" dx="0em" dy="0.95em" fill="rgb(50, 49, 63)" stroke="none" stroke-width="1px">1.5k</text><text style="text-anchor: middle; visibility: inherit; font-family: Roboto, sans-serif; font-size: 12px; font-weight: 200;" x="116.67333285013835" y="0" dx="0em" dy="0.95em" fill="rgb(50, 49, 63)" stroke="none" stroke-width="1px">2k</text><text style="text-anchor: middle; visibility: inherit; font-family: Roboto, sans-serif; font-size: 12px; font-weight: 200;" x="140.00799942016602" y="0" dx="0em" dy="0.95em" fill="rgb(50, 49, 63)" stroke="none" stroke-width="1px">2.5k</text><text style="text-anchor: middle; visibility: inherit; font-family: Roboto, sans-serif; font-size: 12px; font-weight: 200;" x="163.3426659901937" y="0" dx="0em" dy="0.95em" fill="rgb(50, 49, 63)" stroke="none" stroke-width="1px">3k</text><text style="text-anchor: middle; visibility: inherit; font-family: Roboto, sans-serif; font-size: 12px; font-weight: 200;" x="186.67733256022134" y="0" dx="0em" dy="0.95em" fill="rgb(50, 49, 63)" stroke="none" stroke-width="1px">3.5k</text><text style="text-anchor: middle; visibility: inherit; font-family: Roboto, sans-serif; font-size: 12px; font-weight: 200;" x="210.01199913024902" y="0" dx="0em" dy="0.95em" fill="rgb(50, 49, 63)" stroke="none" stroke-width="1px">4k</text><text style="text-anchor: middle; visibility: inherit; font-family: Roboto, sans-serif; font-size: 12px; font-weight: 200;" x="233.3466657002767" y="0" dx="0em" dy="0.95em" fill="rgb(50, 49, 63)" stroke="none" stroke-width="1px">4.5k</text><text style="text-anchor: middle; visibility: inherit; font-family: Roboto, sans-serif; font-size: 12px; font-weight: 200;" x="256.6813322703043" y="0" dx="0em" dy="0.95em" fill="rgb(50, 49, 63)" stroke="none" stroke-width="1px">5k</text><text style="text-anchor: middle; visibility: hidden; font-family: Roboto, sans-serif; font-size: 12px; font-weight: 200;" x="280.01599884033203" y="0" dx="0em" dy="0.95em" fill="rgb(50, 49, 63)" stroke="none" stroke-width="1px">5.5k</text></g><line x1="0" y1="0" x2="280.01599884033203" y2="0" fill="rgb(0, 0, 0)" stroke="rgb(204, 204, 204)" stroke-width="1px"></line></g></g></g></g></svg>