<svg viewBox="0 0 330 200" xmlns="http://www.w3.org/2000/svg"><g><g><g><g><g><line x1="51.53200149536133" y1="177.5999994277954" x2="46.53200149536133" y2="177.5999994277954" style="visibility: inherit;" fill="rgb(0, 0, 0)" stroke="rgb(204, 204, 204)" stroke-width="1px"></line><line x1="51.53200149536133" y1="165.75999946594237" x2="46.53200149536133" y2="165.75999946594237" style="visibility: inherit;" fill="rgb(0, 0, 0)" stroke="rgb(204, 204, 204)" stroke-width="1px"></line><line x1="51.53200149536133" y1="153.91999950408936" x2="46.53200149536133" y2="153.91999950408936" style="visibility: inherit;" fill="rgb(0, 0, 0)" stroke="rgb(204, 204, 204)" stroke-width="1px"></line><line x1="51.53200149536133" y1="142.07999954223632" x2="46.53200149536133" y2="142.07999954223632" style="visibility: inherit;" fill="rgb(0, 0, 0)" stroke="rgb(204, 204, 204)" stroke-width="1px"></line><line x1="51.53200149536133" y1="130.2399995803833" x2="46.53200149536133" y2="130.2399995803833" style="visibility: inherit;" fill="rgb(0, 0, 0)" stroke="rgb(204, 204, 204)" stroke-width="1px"></line><line x1="51.53200149536133" y1="118.39999961853029" x2="46.53200149536133" y2="118.39999961853029" style="visibility: inherit;" fill="rgb(0, 0, 0)" stroke="rgb(204, 204, 204)" stroke-width="1px"></line><line x1="51.53200149536133" y1="106.55999965667726" x2="46.53200149536133" y2="106.55999965667726" style="visibility: inherit;" fill="rgb(0, 0, 0)" stroke="rgb(204, 204, 204)" stroke-width="1px"></line><line x1="51.53200149536133" y1="94.71999969482424" x2="46.53200149536133" y2="94.71999969482424" style="visibility: inherit;" fill="rgb(0, 0, 0)" stroke="rgb(204, 204, 204)" stroke-width="1px"></line><line x1="51.53200149536133" y1="82.87999973297119" x2="46.53200149536133" y2="82.87999973297119" style="visibility: inherit;" fill="rgb(0, 0, 0)" stroke="rgb(204, 204, 204)" stroke-width="1px"></line><line x1="51.53200149536133" y1="71.03999977111816" x2="46.53200149536133" y2="71.03999977111816" style="visibility: inherit;" fill="rgb(0, 0, 0)" stroke="rgb(204, 204, 204)" stroke-width="1px"></line><line x1="51.53200149536133" y1="59.199999809265144" x2="46.53200149536133" y2="59.199999809265144" style="visibility: inherit;" fill="rgb(0, 0, 0)" stroke="rgb(204, 204, 204)" stroke-width="1px"></line><line x1="51.53200149536133" y1="47.3599998474121" x2="46.53200149536133" y2="47.3599998474121" style="visibility: inherit;" fill="rgb(0, 0, 0)" stroke="rgb(204, 204, 204)" stroke-width="1px"></line><line x1="51.53200149536133" y1="35.51999988555905" x2="46.53200149536133" y2="35.51999988555905" style="visibility: inherit;" fill="rgb(0, 0, 0)" stroke="rgb(204, 204, 204)" stroke-width="1px"></line><line x1="51.53200149536133" y1="23.67999992370605" x2="46.53200149536133" y2="23.67999992370605" style="visibility: inherit;" fill="rgb(0, 0, 0)" stroke="rgb(204, 204, 204)" stroke-width="1px"></line><line x1="51.53200149536133" y1="11.839999961853005" x2="46.53200149536133" y2="11.839999961853005" style="visibility: inherit;" fill="rgb(0, 0, 0)" stroke="rgb(204, 204, 204)" stroke-width="1px"></line><line x1="51.53200149536133" y1="0" x2="46.53200149536133" y2="0" style="visibility: inherit;" fill="rgb(0, 0, 0)" stroke="rgb(204, 204, 204)" stroke-width="1px"></line></g><g transform="translate(41.53200149536133, 0)"><text style="text-anchor: end; visibility: hidden; font-family: Roboto, sans-serif; font-size: 12px; font-weight: 200;" x="0" y="177.5999994277954" dx="0em" dy="0.3em" fill="rgb(50, 49, 63)" stroke="none" stroke-width="1px">-0.2</text><text style="text-anchor: end; visibility: inherit; font-family: Roboto, sans-serif; font-size: 12px; font-weight: 200;" x="0" y="165.75999946594237" dx="0em" dy="0.3em" fill="rgb(50, 49, 63)" stroke="none" stroke-width="1px">0</text><text style="text-anchor: end; visibility: hidden; font-family: Roboto, sans-serif; font-size: 12px; font-weight: 200;" x="0" y="153.91999950408936" dx="0em" dy="0.3em" fill="rgb(50, 49, 63)" stroke="none" stroke-width="1px">0.2</text><text style="text-anchor: end; visibility: hidden; font-family: Roboto, sans-serif; font-size: 12px; font-weight: 200;" x="0" y="142.07999954223632" dx="0em" dy="0.3em" fill="rgb(50, 49, 63)" stroke="none" stroke-width="1px">0.4</text><text style="text-anchor: end; visibility: inherit; font-family: Roboto, sans-serif; font-size: 12px; font-weight: 200;" x="0" y="130.2399995803833" dx="0em" dy="0.3em" fill="rgb(50, 49, 63)" stroke="none" stroke-width="1px">0.6</text><text style="text-anchor: end; visibility: hidden; font-family: Roboto, sans-serif; font-size: 12px; font-weight: 200;" x="0" y="118.39999961853029" dx="0em" dy="0.3em" fill="rgb(50, 49, 63)" stroke="none" stroke-width="1px">0.8</text><text style="text-anchor: end; visibility: hidden; font-family: Roboto, sans-serif; font-size: 12px; font-weight: 200;" x="0" y="106.55999965667726" dx="0em" dy="0.3em" fill="rgb(50, 49, 63)" stroke="none" stroke-width="1px">1</text><text style="text-anchor: end; visibility: inherit; font-family: Roboto, sans-serif; font-size: 12px; font-weight: 200;" x="0" y="94.71999969482424" dx="0em" dy="0.3em" fill="rgb(50, 49, 63)" stroke="none" stroke-width="1px">1.2</text><text style="text-anchor: end; visibility: hidden; font-family: Roboto, sans-serif; font-size: 12px; font-weight: 200;" x="0" y="82.87999973297119" dx="0em" dy="0.3em" fill="rgb(50, 49, 63)" stroke="none" stroke-width="1px">1.4</text><text style="text-anchor: end; visibility: hidden; font-family: Roboto, sans-serif; font-size: 12px; font-weight: 200;" x="0" y="71.03999977111816" dx="0em" dy="0.3em" fill="rgb(50, 49, 63)" stroke="none" stroke-width="1px">1.6</text><text style="text-anchor: end; visibility: inherit; font-family: Roboto, sans-serif; font-size: 12px; font-weight: 200;" x="0" y="59.199999809265144" dx="0em" dy="0.3em" fill="rgb(50, 49, 63)" stroke="none" stroke-width="1px">1.8</text><text style="text-anchor: end; visibility: hidden; font-family: Roboto, sans-serif; font-size: 12px; font-weight: 200;" x="0" y="47.3599998474121" dx="0em" dy="0.3em" fill="rgb(50, 49, 63)" stroke="none" stroke-width="1px">2</text><text style="text-anchor: end; visibility: hidden; font-family: Roboto, sans-serif; font-size: 12px; font-weight: 200;" x="0" y="35.51999988555905" dx="0em" dy="0.3em" fill="rgb(50, 49, 63)" stroke="none" stroke-width="1px">2.2</text><text style="text-anchor: end; visibility: inherit; font-family: Roboto, sans-serif; font-size: 12px; font-weight: 200;" x="0" y="23.67999992370605" dx="0em" dy="0.3em" fill="rgb(50, 49, 63)" stroke="none" stroke-width="1px">2.4</text><text style="text-anchor: end; visibility: hidden; font-family: Roboto, sans-serif; font-size: 12px; font-weight: 200;" x="0" y="11.839999961853005" dx="0em" dy="0.3em" fill="rgb(50, 49, 63)" stroke="none" stroke-width="1px">2.6</text><text style="text-anchor: end; visibility: hidden; font-family: Roboto, sans-serif; font-size: 12px; font-weight: 200;" x="0" y="0" dx="0em" dy="0.3em" fill="rgb(50, 49, 63)" stroke="none" stroke-width="1px">2.8</text></g><line x1="51.53200149536133" y1="0" x2="51.53200149536133" y2="177.5999994277954" fill="rgb(0, 0, 0)" stroke="rgb(204, 204, 204)" stroke-width="1px"></line></g></g><g transform="translate(51, 0)" clip-path="url(#clip_0)"><clipPath id="clip_0"><rect width="278" height="177"></rect></clipPath><g><g><g><line x1="0" y1="0" x2="0" y2="177.5999994277954" fill="rgb(0, 0, 0)" stroke="rgb(60, 60, 60)" stroke-width="1px" opacity="0.25"></line><line x1="23.205666542053223" y1="0" x2="23.205666542053223" y2="177.5999994277954" fill="rgb(0, 0, 0)" stroke="rgb(60, 60, 60)" stroke-width="1px" opacity="0.25"></line><line x1="46.411333084106445" y1="0" x2="46.411333084106445" y2="177.5999994277954" fill="rgb(0, 0, 0)" stroke="rgb(60, 60, 60)" stroke-width="1px" opacity="0.25"></line><line x1="69.61699962615967" y1="0" x2="69.61699962615967" y2="177.5999994277954" fill="rgb(0, 0, 0)" stroke="rgb(60, 60, 60)" stroke-width="1px" opacity="0.25"></line><line x1="92.82266616821289" y1="0" x2="92.82266616821289" y2="177.5999994277954" fill="rgb(0, 0, 0)" stroke="rgb(60, 60, 60)" stroke-width="1px" opacity="0.25"></line><line x1="116.02833271026611" y1="0" x2="116.02833271026611" y2="177.5999994277954" fill="rgb(0, 0, 0)" stroke="rgb(60, 60, 60)" stroke-width="1px" opacity="0.25"></line><line x1="139.23399925231934" y1="0" x2="139.23399925231934" y2="177.5999994277954" fill="rgb(0, 0, 0)" stroke="rgb(60, 60, 60)" stroke-width="1px" opacity="0.25"></line><line x1="162.43966579437256" y1="0" x2="162.43966579437256" y2="177.5999994277954" fill="rgb(0, 0, 0)" stroke="rgb(60, 60, 60)" stroke-width="1px" opacity="0.25"></line><line x1="185.64533233642578" y1="0" x2="185.64533233642578" y2="177.5999994277954" fill="rgb(0, 0, 0)" stroke="rgb(60, 60, 60)" stroke-width="1px" opacity="0.25"></line><line x1="208.850998878479" y1="0" x2="208.850998878479" y2="177.5999994277954" fill="rgb(0, 0, 0)" stroke="rgb(60, 60, 60)" stroke-width="1px" opacity="0.25"></line><line x1="232.05666542053223" y1="0" x2="232.05666542053223" y2="177.5999994277954" fill="rgb(0, 0, 0)" stroke="rgb(60, 60, 60)" stroke-width="1px" opacity="0.25"></line><line x1="255.26233196258545" y1="0" x2="255.26233196258545" y2="177.5999994277954" fill="rgb(0, 0, 0)" stroke="rgb(60, 60, 60)" stroke-width="1px" opacity="0.25"></line><line x1="278.4679985046387" y1="0" x2="278.4679985046387" y2="177.5999994277954" fill="rgb(0, 0, 0)" stroke="rgb(60, 60, 60)" stroke-width="1px" opacity="0.25"></line></g><g><line x1="0" y1="177.5999994277954" x2="278.4679985046387" y2="177.5999994277954" fill="rgb(0, 0, 0)" stroke="rgb(60, 60, 60)" stroke-width="1px" opacity="0.25"></line><line x1="0" y1="165.75999946594237" x2="278.4679985046387" y2="165.75999946594237" fill="rgb(0, 0, 0)" stroke="rgb(60, 60, 60)" stroke-width="1px" opacity="0.25"></line><line x1="0" y1="153.91999950408936" x2="278.4679985046387" y2="153.91999950408936" fill="rgb(0, 0, 0)" stroke="rgb(60, 60, 60)" stroke-width="1px" opacity="0.25"></line><line x1="0" y1="142.07999954223632" x2="278.4679985046387" y2="142.07999954223632" fill="rgb(0, 0, 0)" stroke="rgb(60, 60, 60)" stroke-width="1px" opacity="0.25"></line><line x1="0" y1="130.2399995803833" x2="278.4679985046387" y2="130.2399995803833" fill="rgb(0, 0, 0)" stroke="rgb(60, 60, 60)" stroke-width="1px" opacity="0.25"></line><line x1="0" y1="118.39999961853029" x2="278.4679985046387" y2="118.39999961853029" fill="rgb(0, 0, 0)" stroke="rgb(60, 60, 60)" stroke-width="1px" opacity="0.25"></line><line x1="0" y1="106.55999965667726" x2="278.4679985046387" y2="106.55999965667726" fill="rgb(0, 0, 0)" stroke="rgb(60, 60, 60)" stroke-width="1px" opacity="0.25"></line><line x1="0" y1="94.71999969482424" x2="278.4679985046387" y2="94.71999969482424" fill="rgb(0, 0, 0)" stroke="rgb(60, 60, 60)" stroke-width="1px" opacity="0.25"></line><line x1="0" y1="82.87999973297119" x2="278.4679985046387" y2="82.87999973297119" fill="rgb(0, 0, 0)" stroke="rgb(60, 60, 60)" stroke-width="1px" opacity="0.25"></line><line x1="0" y1="71.03999977111816" x2="278.4679985046387" y2="71.03999977111816" fill="rgb(0, 0, 0)" stroke="rgb(60, 60, 60)" stroke-width="1px" opacity="0.25"></line><line x1="0" y1="59.199999809265144" x2="278.4679985046387" y2="59.199999809265144" fill="rgb(0, 0, 0)" stroke="rgb(60, 60, 60)" stroke-width="1px" opacity="0.25"></line><line x1="0" y1="47.3599998474121" x2="278.4679985046387" y2="47.3599998474121" fill="rgb(0, 0, 0)" stroke="rgb(60, 60, 60)" stroke-width="1px" opacity="0.25"></line><line x1="0" y1="35.51999988555905" x2="278.4679985046387" y2="35.51999988555905" fill="rgb(0, 0, 0)" stroke="rgb(60, 60, 60)" stroke-width="1px" opacity="0.25"></line><line x1="0" y1="23.67999992370605" x2="278.4679985046387" y2="23.67999992370605" fill="rgb(0, 0, 0)" stroke="rgb(60, 60, 60)" stroke-width="1px" opacity="0.25"></line><line x1="0" y1="11.839999961853005" x2="278.4679985046387" y2="11.839999961853005" fill="rgb(0, 0, 0)" stroke="rgb(60, 60, 60)" stroke-width="1px" opacity="0.25"></line><line x1="0" y1="0" x2="278.4679985046387" y2="0" fill="rgb(0, 0, 0)" stroke="rgb(60, 60, 60)" stroke-width="1px" opacity="0.25"></line></g></g></g><g><g><line x1="0" y1="165.75999946594237" x2="278.4679985046387" y2="165.75999946594237" fill="rgb(0, 0, 0)" stroke="rgb(153, 153, 153)" stroke-width="1.5px"></line></g></g><g><g><line x1="23.205666542053223" y1="0" x2="23.205666542053223" y2="177.5999994277954" fill="rgb(0, 0, 0)" stroke="rgb(153, 153, 153)" stroke-width="1.5px"></line></g></g><g><g><g><g><g><path style="fill: none;" stroke="rgb(255, 112, 67)" stroke-width="2px" d="M23.205666542053223,4.636223739945473L24.13389320373535,1.5646347567692382L25.06211986541748,2.8609775342044608L25.99034652709961,4.15453005293654L26.91857318878174,4.5226319750129464L27.846799850463867,6.330959584451673L28.775026512145995,10.38964431209119L29.703253173828127,12.26151905084039L30.631479835510255,12.124007888739662L31.55970649719238,13.723622778929409L32.48793315887451,12.743851248282217L33.416159820556636,13.052921987841023L34.34438648223877,16.096870803304782L35.2726131439209,17.12110288425947L36.20083980560303,18.783811586829376L37.129066467285156,18.881342487769253L38.05729312896728,18.690010479067276L38.98551979064942,19.607589195746073L39.913746452331544,21.339211830639265L40.84197311401367,21.807859145267386L41.7701997756958,23.92548187712147L42.698426437377925,23.5197969101275L43.626653099060064,28.806819662739002L44.55487976074219,33.897397023661576L45.483106422424314,36.97582414043358L46.411333084106445,40.8758148584522L47.33955974578858,42.03898635651292L48.2677864074707,44.64071343267134L49.19601306915283,48.14447237258666L50.12423973083496,49.108193031903575L51.05246639251708,53.616467608857356L51.98069305419922,54.14957031048605L52.908919715881346,54.85457382819812L53.83714637756348,52.030757521116634L54.7653730392456,52.82530441704144L55.693599700927734,57.025422922604804L56.621826362609866,57.148412158219486L57.55005302429199,56.47463756824073L58.478279685974115,55.07252285651935L59.406506347656254,53.38605673693647L60.33473300933838,54.37505413698307L61.26295967102051,57.10012195847861L62.191186332702635,58.79830756307116L63.11941299438476,59.80648070533077L64.04763965606689,57.32028741698504L64.97586631774902,56.60262097172667L65.90409297943116,59.64444647806402L66.83231964111327,60.30624306420197L67.76054630279542,59.75595254967649L68.68877296447754,57.85146313677252L69.61699962615967,60.08806818422344L70.5452262878418,60.29366555472386L71.47345294952392,58.736721171765545L72.40167961120606,60.663062268985186L73.32990627288818,60.79095898690122L74.25813293457031,60.80710398500908L75.18635959625244,62.848411994784676L76.11458625793456,61.12550172652826L77.04281291961671,62.23524150532399L77.97103958129884,63.23116425947737L78.89926624298096,62.03791927271951L79.82749290466309,63.436749571824926L80.7557195663452,61.785469451207014L81.68394622802734,61.24289221906706L82.61217288970948,60.844103539931176L83.5403995513916,62.296992039644195L84.46862621307373,61.89795106519715L85.39685287475585,56.88407497308443L86.32507953643798,60.52772950573558L87.25330619812013,61.81557582319131L88.18153285980225,60.43043205811708L89.10975952148438,60.098114108012446L90.0379861831665,62.975751297396215L90.96621284484863,62.405079971577365L91.89443950653077,62.229432928112274L92.82266616821289,63.696310398261495L93.75089282989502,61.412788971842744L94.67911949157715,60.22803462064331L95.60734615325927,61.193913877080035L96.5355728149414,62.284455375828834L97.46379947662354,63.71031179725055L98.39202613830567,65.45178527249327L99.3202527999878,65.02506741841047L100.24847946166992,65.0519199295367L101.17670612335205,63.48101903593009L102.10493278503417,63.45442271068226L103.03315944671631,61.88702639819323L103.96138610839844,63.174168025519904L104.88961277008056,63.60052931223452L105.81783943176269,62.74905604876834L106.74606609344484,63.85925660389834L107.67429275512696,64.1392893680298L108.60251941680909,62.00784507517704L109.5307460784912,59.79802223415427L110.45897274017334,59.10220009123128L111.38719940185547,61.41396773723592L112.3154260635376,63.39980266067809L113.24365272521973,64.41333257649845L114.17187938690185,65.57752886282208L115.10010604858398,67.74555682275279L116.02833271026611,66.48316269998712L116.95655937194823,63.43325736164346L117.88478603363038,62.79370401686251L118.81301269531251,63.47375870395425L119.74123935699463,63.82472425565098L120.66946601867676,63.05277620030821L121.59769268035888,64.4179671939755L122.52591934204102,63.878722343258374L123.45414600372315,62.52052364172802L124.38237266540527,61.26532610191584L125.3105993270874,61.218533488228424L126.23882598876952,63.48584281557462L127.16705265045167,62.38756272471344L128.09527931213378,63.16917884829459L129.0235059738159,65.07224573156795L129.95173263549805,63.216019388647375L130.87995929718016,63.458627496371776L131.8081859588623,62.92580163138055L132.73641262054443,61.867681279559875L133.66463928222655,62.68183082283208L134.5928659439087,61.64663372509127L135.52109260559084,61.54854074857513L136.44931926727295,61.95919698507853L137.37754592895507,62.66500249918203L138.3057725906372,64.76451477868461L139.23399925231934,63.923443497148746L140.16222591400145,63.20378791153715L141.0904525756836,64.90309372017417L142.01867923736572,64.16186880038497L142.94690589904783,66.89371617470269L143.87513256073,66.70974919623147L144.80335922241213,68.42512614437967L145.73158588409424,65.00689428926768L146.65981254577636,66.7350069828725L147.5880392074585,62.32943465990521L148.51626586914062,66.43741975084262L149.44449253082274,66.96169811634468L150.3727191925049,64.58737415309822L151.300945854187,65.31206672501273L152.22917251586912,67.7422575516496L153.15739917755127,66.80531422453771L154.08562583923342,65.32831340760968L155.01385250091553,67.78113481831605L155.94207916259768,64.71350196525367L156.8703058242798,63.57088962787649L157.7985324859619,64.07086520563928L158.72675914764403,64.37967486257126L159.65498580932618,64.77549639213612L160.5832124710083,63.69802875808139L161.5114391326904,64.52765260404507L162.43966579437256,65.78080593750987L163.36789245605468,65.8221857023291L164.2961191177368,65.63949830310017L165.22434577941897,67.00530997685115L166.15257244110109,65.68404358528902L167.0807991027832,67.8700191686111L168.00902576446535,66.92611532909388L168.93725242614747,65.20654915214598L169.86547908782958,65.3495012909474L170.7937057495117,65.92719823182301L171.72193241119385,68.38294793557357L172.65015907287597,65.51870726581792L173.57838573455808,66.94557217084702L174.50661239624026,67.25694944691841L175.43483905792237,63.0934755336086L176.3630657196045,65.24954583371355L177.29129238128664,67.02462951002812L178.21951904296876,66.8828804795927L179.14774570465087,65.91912623017818L180.075972366333,66.35098621084433L181.00419902801514,63.79396725958678L181.93242568969725,62.79456385524881L182.86065235137937,63.602486810552435L183.78887901306155,64.30235502395952L184.71710567474366,65.17048090661439L185.64533233642578,64.82208283366133L186.57355899810793,66.26459862629201L187.50178565979004,67.62024405610182L188.43001232147216,66.7117898888712L189.3582389831543,71.58641906174508L190.28646564483643,67.98756972491543L191.21469230651854,65.51806275138053L192.14291896820066,67.7369626507957L193.0711456298828,64.50256041765503L193.99937229156492,64.69540639084312L194.92759895324707,65.48270157330019L195.85582561492922,65.4035395304987L196.78405227661133,66.69518361214875" fill="none"></path></g><g><path style="fill: none;" stroke="rgb(204, 51, 17)" stroke-width="2px" d="M27.846799850463867,-4.303187719559517L28.775026512145995,0.1494683713517206L29.703253173828127,1.9522684784843092L30.631479835510255,6.897300240385096L31.55970649719238,15.344305528508997L32.48793315887451,23.75464554098406L33.416159820556636,35.5660525768217L34.34438648223877,52.144807385244306L35.2726131439209,65.8360016612579L36.20083980560303,78.81873274320375L37.129066467285156,85.97843839957056L38.05729312896728,94.5740435763823L38.98551979064942,101.89649476431329L39.913746452331544,105.42395286678207L40.84197311401367,112.02828504010394L41.7701997756958,118.34070139078898L42.698426437377925,121.7224974704402L43.626653099060064,124.800966116148L44.55487976074219,128.6869891909186L45.483106422424314,128.97142307642616L46.411333084106445,128.40172171296885L47.33955974578858,132.97553008252723L48.2677864074707,136.65819664221826L49.19601306915283,136.62263048848357L50.12423973083496,139.50065112025175L51.05246639251708,140.98609657908997L51.98069305419922,143.09395279519342L52.908919715881346,144.3200191264938L53.83714637756348,144.32120652614023L54.7653730392456,144.5693094684771L55.693599700927734,144.86839622305976L56.621826362609866,145.764500268759L57.55005302429199,146.06094511743757L58.478279685974115,147.06348207288056L59.406506347656254,147.81412901936858L60.33473300933838,148.70342923389697L61.26295967102051,151.1589651712517L62.191186332702635,150.48282829271022L63.11941299438476,150.27847650262092L64.04763965606689,150.19362421753476L64.97586631774902,150.4145706222716L65.90409297943116,151.63823013262038L66.83231964111327,151.84202050030262L67.76054630279542,152.42942740412434L68.68877296447754,152.5380047030188L69.61699962615967,153.15404062030132L70.5452262878418,153.30848315715565L71.47345294952392,152.72429182986974L72.40167961120606,153.11538360040046L73.32990627288818,153.25492115127574L74.25813293457031,153.4604952400936L75.18635959625244,152.52819981946584L76.11458625793456,153.6309866299563L77.04281291961671,154.46737603708345L77.97103958129884,154.31406568818542L78.89926624298096,154.38720996003457L79.82749290466309,154.69322596260713L80.7557195663452,154.94897204234232L81.68394622802734,154.69135884327173L82.61217288970948,154.83971480247678L83.5403995513916,154.95040312539706L84.46862621307373,154.98685199647355L85.39685287475585,155.15399392645472L86.32507953643798,155.41362408133605L87.25330619812013,155.47799039324832L88.18153285980225,156.62685894276402L89.10975952148438,156.7211725117532L90.0379861831665,156.24403384822563L90.96621284484863,156.27497662984572L91.89443950653077,156.82414806149728L92.82266616821289,157.07040395534807L93.75089282989502,157.58021250605603L94.67911949157715,157.5945128977352L95.60734615325927,157.72104277072938L96.5355728149414,157.1439098638815L97.46379947662354,156.88451118486154L98.39202613830567,156.64483884135248L99.3202527999878,157.1232594017482L100.24847946166992,157.75086772901486L101.17670612335205,157.6686095228126L102.10493278503417,158.1460540663881L103.03315944671631,158.44602913618647L103.96138610839844,158.72372608895216L104.88961277008056,158.35313579104417L105.81783943176269,158.40216990850598L106.74606609344484,158.21670476814128L107.67429275512696,158.89575420787304L108.60251941680909,158.26514304158331L109.5307460784912,158.35330581933314L110.45897274017334,158.44093474044882L111.38719940185547,158.76206604542375L112.3154260635376,158.5257264324597L113.24365272521973,158.7430895241045L114.17187938690185,158.65984671998976L115.10010604858398,159.09659184806375L116.02833271026611,159.31985896058606L116.95655937194823,159.67428213613397L117.88478603363038,159.26539309378873L118.81301269531251,159.11481391097334L119.74123935699463,159.43488380890497L120.66946601867676,159.41799728726227L121.59769268035888,159.33097834869122L122.52591934204102,159.415462813546L123.45414600372315,159.33103406425954L124.38237266540527,159.01310691808783L125.3105993270874,159.8479210530678L126.23882598876952,160.33144020179822L127.16705265045167,160.1102325226857L128.09527931213378,160.38742108661936L129.0235059738159,160.80504269871057L129.95173263549805,160.73470865596713L130.87995929718016,160.79747510887387L131.8081859588623,160.68965295117178L132.73641262054443,161.03928074877487L133.66463928222655,161.1158681405802L134.5928659439087,160.96144225370767L135.52109260559084,160.95901324755383L136.44931926727295,160.6486019492881L137.37754592895507,160.52376401412494L138.3057725906372,160.6205344549886L139.23399925231934,160.35362300381797L140.16222591400145,160.24570445497642L141.0904525756836,160.69078924913111L142.01867923736572,160.98916099306146L142.94690589904783,160.48446213209954L143.87513256073,161.41103291061003L144.80335922241213,160.65742407378048L145.73158588409424,160.98151049533232L146.65981254577636,160.8984021866134L147.5880392074585,160.51860492762663L148.51626586914062,160.75915990316858L149.44449253082274,160.88625146780345L150.3727191925049,161.07514109841355L151.300945854187,161.2088758013965L152.22917251586912,161.3216165706295L153.15739917755127,161.32534882667906L154.08562583923342,161.07358968221055L155.01385250091553,161.65192776598673L155.94207916259768,161.36756988239335L156.8703058242798,161.74716084847793L157.7985324859619,161.73667863442452L158.72675914764403,161.36200857941142L159.65498580932618,161.53482662225562L160.5832124710083,161.9071073037214L161.5114391326904,161.76542712645477L162.43966579437256,161.44395287534124L163.36789245605468,161.73056680011032L164.2961191177368,162.01990398622817L165.22434577941897,161.7734182465027L166.15257244110109,161.9661223139602L167.0807991027832,162.19194127536187L168.00902576446535,162.16963688492714L168.93725242614747,162.30242585578236L169.86547908782958,162.2806763040901L170.7937057495117,162.07239117827226L171.72193241119385,162.1396988878676L172.65015907287597,161.87219154970438L173.57838573455808,161.95614961702714L174.50661239624026,162.02115674678328L175.43483905792237,162.13113791831012L176.3630657196045,162.19602790497075L177.29129238128664,162.55205361366555L178.21951904296876,162.38047341052675L179.14774570465087,162.28968235685687L180.075972366333,162.30275244222602L181.00419902801514,162.26505083009252L181.93242568969725,162.4849415493098L182.86065235137937,162.49267508402355L183.78887901306155,162.74770342101743L184.71710567474366,162.77788306370428L185.64533233642578,162.57393319279L186.57355899810793,162.55031223518665L187.50178565979004,162.25186052488283L188.43001232147216,162.1434767829424L189.3582389831543,162.27819932806247L190.28646564483643,162.45658359744638L191.21469230651854,162.0203971980126L192.14291896820066,162.1590396542235L193.0711456298828,162.49523773661673L193.99937229156492,162.35785181791528L194.92759895324707,162.44826469753787L195.85582561492922,162.32724614331764L196.78405227661133,162.32394676049736L197.71227893829345,162.33427116499863L198.6405055999756,162.23603906882L199.56873226165771,161.88204399350568L200.49695892333983,161.90324769753397L201.42518558502198,162.00130793046395L202.3534122467041,162.31482843896543L203.2816389083862,162.2604805750553L204.20986557006833,162.51072314650077L205.1380922317505,162.4517939687053L206.06631889343262,162.48043749989628L206.99454555511474,162.49265976765184L207.9227722167969,162.76195460664817L208.850998878479,162.77199599951737L209.77922554016112,162.95662896130375L210.70745220184327,162.91736670566348L211.63567886352538,163.16200568148574L212.5639055252075,162.48881381746946L213.49213218688968,162.59622465995574L214.4203588485718,162.64503693154631L215.3485855102539,162.89578182523934L216.27681217193603,163.05976251099193L217.20503883361818,162.77557756943185L218.1332654953003,163.06901526766626L219.0614921569824,163.18565731785532L219.98971881866456,163.20703059486684L220.91794548034667,163.10503866827048L221.8461721420288,163.07900225605772L222.77439880371094,163.08094787159462L223.70262546539308,163.19108001755845L224.6308521270752,162.76727608651933L225.55907878875735,162.909886472112L226.48730545043946,162.95410030520526L227.41553211212158,163.16732541756625L228.3437587738037,163.059078744983L229.27198543548585,163.02461339113796L230.20021209716796,163.19772664293973L231.12843875885008,163.22758284403798L232.05666542053223,163.19373075342037L232.98489208221434,163.20425624325892L233.91311874389646,163.01761102752985L234.84134540557864,163.22620539520562L235.76957206726075,163.5082339969264L236.69779872894287,163.47700993879803L237.62602539062502,163.38944064381792L238.55425205230713,163.3291988786947L239.48247871398925,163.35022508551555L240.41070537567137,163.03234228457652L241.33893203735352,163.38392284849502L242.26715869903563,163.67663724478925L243.19538536071775,163.57333256818737L244.12361202239993,163.79808444720024L245.05183868408204,163.9534919338328L245.98006534576416,163.84091304076L246.9082920074463,163.89703506300978L247.83651866912842,163.83622172180299L248.76474533081054,163.86932087362734L249.69297199249266,163.9108589053587L250.6211986541748,163.80166424073695L251.54942531585692,163.82669004182705L252.47765197753904,163.71360923325912L253.4058786392212,163.66216359821658L254.33410530090333,163.64326203555765L255.26233196258545,163.4098615007087" fill="none"></path></g></g></g></g><g opacity="0.2"><g><g><g><path style="fill: none;" stroke="rgb(255, 112, 67)" stroke-width="2px" d="M23.205666542053223,4.636223739945473L24.13389320373535,-0.27831863313650645L25.06211986541748,4.10546660054223L25.99034652709961,5.6757478149653995L26.91857318878174,5.003225844475936L27.846799850463867,8.832527666244857L28.775026512145995,16.193628411571297L29.703253173828127,14.99073038993418L30.631479835510255,11.921205634809155L31.55970649719238,16.09886446534341L32.48793315887451,11.283080407983272L33.416159820556636,13.514846147863132L34.34438648223877,20.652855005480596L35.2726131439209,18.655444428419905L36.20083980560303,21.27592018902005L37.129066467285156,19.027570052831322L38.05729312896728,18.40309343130815L38.98551979064942,20.983724297627468L39.913746452331544,23.936381987699356L40.84197311401367,22.510787280988716L41.7701997756958,27.101799839439245L42.698426437377925,22.91128280887318L43.626653099060064,36.73724940861479L44.55487976074219,41.53320276230346L45.483106422424314,41.59344293544921L46.411333084106445,46.72578430380116L47.33955974578858,43.78374062736697L48.2677864074707,48.543300052645066L49.19601306915283,53.400107555002414L50.12423973083496,50.55377348824521L51.05246639251708,60.37887797929506L51.98069305419922,54.94922425685951L52.908919715881346,55.912079020603024L53.83714637756348,47.79503326275852L54.7653730392456,54.01712472678156L55.693599700927734,63.325600572645335L56.621826362609866,57.3328960097387L57.55005302429199,55.46397568952721L58.478279685974115,52.9693507967467L59.406506347656254,50.85635756319806L60.33473300933838,55.858550235069906L61.26295967102051,61.18772368744347L62.191186332702635,61.34558596873417L63.11941299438476,61.318740418283554L64.04763965606689,53.5909974851125L64.97586631774902,55.52612130395102L65.90409297943116,64.20718473728546L66.83231964111327,61.298937943371776L67.76054630279542,58.9305167779068L68.68877296447754,54.99472901745508L69.61699962615967,63.442975755372636L70.5452262878418,60.60206161047297L71.47345294952392,56.40130459733489L72.40167961120606,63.55257391480957L73.32990627288818,60.982804063775085L74.25813293457031,60.83132148217086L75.18635959625244,65.91037400944693L76.11458625793456,58.54113632414424L77.04281291961671,63.89985117351735L77.97103958129884,64.7250483907073L78.89926624298096,60.248051792582785L79.82749290466309,65.53499502048301L80.7557195663452,59.308549270280146L81.68394622802734,60.42902637085713L82.61217288970948,60.24592052122734L83.5403995513916,64.47632478921373L84.46862621307373,61.29938960352656L85.39685287475585,49.36326083491536L86.32507953643798,65.99321130471226L87.25330619812013,63.74734529937492L88.18153285980225,58.352716410505714L89.10975952148438,59.59963718285548L90.0379861831665,67.29220708147189L90.96621284484863,61.54907298284906L91.89443950653077,61.96596236291459L92.82266616821289,65.89662660348536L93.75089282989502,57.9875068322146L94.67911949157715,58.45090309384414L95.60734615325927,62.6427327617351L96.5355728149414,63.92026762395205L97.46379947662354,65.84909642938312L98.39202613830567,68.06399548535735L99.3202527999878,64.38499063728632L100.24847946166992,65.09219869622605L101.17670612335205,61.12466769552015L102.10493278503417,63.414528222810496L103.03315944671631,59.53593192945966L103.96138610839844,65.1048804665099L104.88961277008056,64.24007124230646L105.81783943176269,61.47184615356908L106.74606609344484,65.5245574365933L107.67429275512696,64.55933851422704L108.60251941680909,58.810678635897894L109.5307460784912,56.48328797262008L110.45897274017334,58.0584668768468L111.38719940185547,64.88161920624289L112.3154260635376,66.37855504584134L113.24365272521973,65.93362745022894L114.17187938690185,67.32382329230752L115.10010604858398,70.99759876264882L116.02833271026611,64.58957151583861L116.95655937194823,58.85839935412793L117.88478603363038,61.834373999691095L118.81301269531251,64.49384073459187L119.74123935699463,64.35117258319606L120.66946601867676,61.894854117294095L121.59769268035888,66.46575368447641L122.52591934204102,63.06985506718271L123.45414600372315,60.48322558943251L124.38237266540527,59.382529792197566L125.3105993270874,61.1483445676973L126.23882598876952,66.88680680659395L127.16705265045167,60.74014258842165L128.09527931213378,64.34160303366635L129.0235059738159,67.92684605647794L129.95173263549805,60.43167987426654L130.87995929718016,63.82253965795832L131.8081859588623,62.12656283389374L132.73641262054443,60.28050075182883L133.66463928222655,63.90305513774042L134.5928659439087,60.09383807848003L135.52109260559084,61.401401283800915L136.44931926727295,62.57518133983361L137.37754592895507,63.723710770337284L138.3057725906372,67.91378319793849L139.23399925231934,62.66183657484495L140.16222591400145,62.12430453311976L141.0904525756836,67.45205243312974L142.01867923736572,63.05003142070115L142.94690589904783,70.99148723617925L143.87513256073,66.43379872852468L144.80335922241213,70.99819156660199L145.73158588409424,59.879546506599645L146.65981254577636,69.32717602327973L147.5880392074585,55.72107617545424L148.51626586914062,72.59939738724877L149.44449253082274,67.74811566459773L150.3727191925049,61.02588820822856L151.300945854187,66.3991055828845L152.22917251586912,71.38754379160487L153.15739917755127,65.39989923386993L154.08562583923342,63.112812182217645L155.01385250091553,71.46036693437561L155.94207916259768,60.11205268566011L156.8703058242798,61.856971121810666L157.7985324859619,64.82082857228347L158.72675914764403,64.84288934796923L159.65498580932618,65.3692286864834L160.5832124710083,62.0818273069993L161.5114391326904,65.77208837299061L162.43966579437256,67.66053593770705L163.36789245605468,65.88425534955793L164.2961191177368,65.36546720425675L165.22434577941897,69.05402748747765L166.15257244110109,63.702143997945846L167.0807991027832,71.14898254359419L168.00902576446535,65.51025956981807L168.93725242614747,62.62719988672412L169.86547908782958,65.56392949914955L170.7937057495117,66.79374364313647L171.72193241119385,72.06657249119935L172.65015907287597,61.222346261184455L173.57838573455808,69.08586952839069L174.50661239624026,67.72401536102548L175.43483905792237,56.84826466364388L176.3630657196045,68.483651283871L177.29129238128664,69.68725502449998L178.21951904296876,66.6702569339396L179.14774570465087,64.47349485605635L180.075972366333,66.99877618184355L181.00419902801514,59.95843883270046L181.93242568969725,61.29545874874186L182.86065235137937,64.81437124350789L183.78887901306155,65.35215734407014L184.71710567474366,66.4726697305967L185.64533233642578,64.29948572423173L186.57355899810793,68.42837231523806L187.50178565979004,69.65371220081654L188.43001232147216,65.34910863802527L189.3582389831543,78.89836282105587L190.28646564483643,62.589295719670936L191.21469230651854,61.81380229107817L192.14291896820066,71.06531249991845L193.0711456298828,59.65095706794404L193.99937229156492,64.98467535062521L194.92759895324707,66.6636443469858L195.85582561492922,65.28479646629644L196.78405227661133,68.63264973462385" fill="none"></path></g><g><path style="fill: none;" stroke="rgb(204, 51, 17)" stroke-width="2px" d="M26.91857318878174,-9.502348144433483L27.846799850463867,1.6323308510640695L28.775026512145995,6.516837823852207L29.703253173828127,4.580768341564579L30.631479835510255,14.190261566219256L31.55970649719238,27.887123933588732L32.48793315887451,36.293874394784496L33.416159820556636,53.21888597508093L34.34438648223877,76.95880708694843L35.2726131439209,86.34597060040535L36.20083980560303,98.27756865308875L37.129066467285156,96.71294730498035L38.05729312896728,107.46381396956119L38.98551979064942,112.87831237664636L39.913746452331544,110.71460264774723L40.84197311401367,121.93417963796637L41.7701997756958,127.80897972890176L42.698426437377925,126.79508031047654L43.626653099060064,129.41860830571648L44.55487976074219,134.51597776942646L45.483106422424314,129.39807188305315L46.411333084106445,127.54717209729898L47.33955974578858,139.83623093374283L48.2677864074707,142.1821908279941L49.19601306915283,136.569281290643L50.12423973083496,143.81768047726578L51.05246639251708,143.2142642747574L51.98069305419922,146.25573669995575L52.908919715881346,146.1591184770767L53.83714637756348,144.32298762552483L54.7653730392456,144.94146387131968L55.693599700927734,145.31702634722149L56.621826362609866,147.10865632344368L57.55005302429199,146.5056123877035L58.478279685974115,148.56728750046108L59.406506347656254,148.94009943659208L60.33473300933838,150.0373795539064L61.26295967102051,154.84226907432958L62.191186332702635,149.46862297538607L63.11941299438476,149.97194881757545L64.04763965606689,150.06634578992757L64.97586631774902,150.74599022934245L65.90409297943116,153.47371939802903L66.83231964111327,152.14770605181454L67.76054630279542,153.31053775983713L68.68877296447754,152.7008706513583L69.61699962615967,154.07809449621763L70.5452262878418,153.54014696243598L71.47345294952392,151.84800483894347L72.40167961120606,153.70202125619545L73.32990627288818,153.46422747758842L74.25813293457031,153.7688563733202L75.18635959625244,151.1297566885247L76.11458625793456,155.28516684569163L77.04281291961671,155.721960147774L77.97103958129884,154.08410016483842L78.89926624298096,154.49692636780827L79.82749290466309,155.15224996646594L80.7557195663452,155.3325911619451L81.68394622802734,154.30493904466584L82.61217288970948,155.0622487412844L83.5403995513916,155.11643560977743L84.46862621307373,155.04152530308824L85.39685287475585,155.4047068214265L86.32507953643798,155.80306931365803L87.25330619812013,155.57453986111673L88.18153285980225,158.3501617670376L89.10975952148438,156.8626428652369L90.0379861831665,155.52832585293433L90.96621284484863,156.32139080227583L91.89443950653077,157.64790520897458L92.82266616821289,157.43978779612428L93.75089282989502,158.34492533211795L94.67911949157715,157.61596348525393L95.60734615325927,157.91083758022063L96.5355728149414,156.27821050360973L97.46379947662354,156.49541316633156L98.39202613830567,156.2853303260889L99.3202527999878,157.84089024234174L100.24847946166992,158.69228021991484L101.17670612335205,157.5452222135092L102.10493278503417,158.86222088175134L103.03315944671631,158.89599174088403L103.96138610839844,159.1402715181007L104.88961277008056,157.79725034418217L105.81783943176269,158.47572108469873L106.74606609344484,157.93850705759425L107.67429275512696,159.91432836747063L108.60251941680909,157.3192262921487L109.5307460784912,158.48554998595796L110.45897274017334,158.57237812212227L111.38719940185547,159.2437630028861L112.3154260635376,158.17121701301363L113.24365272521973,159.06913416157175L114.17187938690185,158.53498251381762L115.10010604858398,159.75170954017474L116.02833271026611,159.65475962936955L116.95655937194823,160.20591689945581L117.88478603363038,158.65205953027086L118.81301269531251,158.88894513675024L119.74123935699463,159.9149886558024L120.66946601867676,159.39266750479817L121.59769268035888,159.20044994083466L122.52591934204102,159.5421895108281L123.45414600372315,159.20439094032986L124.38237266540527,158.5362161988303L125.3105993270874,161.10014225553775L126.23882598876952,161.0567189248938L127.16705265045167,159.7784210040169L128.09527931213378,160.80320393251984L129.0235059738159,161.43147511684742L129.95173263549805,160.62920759185195L130.87995929718016,160.89162478823397L131.8081859588623,160.52791971461863L132.73641262054443,161.56372244517956L133.66463928222655,161.23074922828818L134.5928659439087,160.72980342339886L135.52109260559084,160.95536973832307L136.44931926727295,160.18298500188948L137.37754592895507,160.3365071113802L138.3057725906372,160.76569011628405L139.23399925231934,159.953255827062L140.16222591400145,160.08382663171412L141.0904525756836,161.35841644036313L142.01867923736572,161.436718608957L142.94690589904783,159.72741384065662L143.87513256073,162.8008890783758L144.80335922241213,159.52701081853618L145.73158588409424,161.46764012766L146.65981254577636,160.77373972353502L147.5880392074585,159.94890903914649L148.51626586914062,161.11999236648148L149.44449253082274,161.07688881475573L150.3727191925049,161.3584755443287L151.300945854187,161.40947785587093L152.22917251586912,161.49072772447892L153.15739917755127,161.33094721075346L154.08562583923342,160.69595096550776L155.01385250091553,162.519434891651L155.94207916259768,160.9410330570033L156.8703058242798,162.31654729760484L157.7985324859619,161.7209553133444L158.72675914764403,160.80000349689172L159.65498580932618,161.79405368652198L160.5832124710083,162.46552832592008L161.5114391326904,161.55290686055483L162.43966579437256,160.9617414986709L163.36789245605468,162.16048768726398L164.2961191177368,162.45390976540492L165.22434577941897,161.4036896369145L166.15257244110109,162.25517841514645L167.0807991027832,162.53066971746435L168.00902576446535,162.13618029927505L168.93725242614747,162.5016093120652L169.86547908782958,162.24805197655172L170.7937057495117,161.75996348954547L171.72193241119385,162.24066045226064L172.65015907287597,161.47093054245957L173.57838573455808,162.08208671801125L174.50661239624026,162.1186674414175L175.43483905792237,162.29610967560038L176.3630657196045,162.2933628849617L177.29129238128664,163.08609217670772L178.21951904296876,162.12310310581856L179.14774570465087,162.15349577635206L180.075972366333,162.32235757027973L181.00419902801514,162.20849841189224L181.93242568969725,162.81477762813574L182.86065235137937,162.50427538609415L183.78887901306155,163.13024592650822L184.71710567474366,162.82315252773455L185.64533233642578,162.2680083864186L186.57355899810793,162.51488079878163L187.50178565979004,161.80418295942712L188.43001232147216,161.98090117003176L189.3582389831543,162.48028314574253L190.28646564483643,162.72416000152225L191.21469230651854,161.36611759886188L192.14291896820066,162.36700333853992L193.0711456298828,162.9995348602065L193.99937229156492,162.15177293986315L194.92759895324707,162.5838840169717L195.85582561492922,162.1457183119873L196.78405227661133,162.3189976862669L197.71227893829345,162.34975777175055L198.6405055999756,162.08869092455203L199.56873226165771,161.35105138053424L200.49695892333983,161.93505325357637L201.42518558502198,162.14839827985892L202.3534122467041,162.78510920171766L203.2816389083862,162.17895877919017L204.20986557006833,162.88608700366893L205.1380922317505,162.36340020201206L206.06631889343262,162.52340279668277L206.99454555511474,162.51099316928517L207.9227722167969,163.16589686514268L208.850998878479,162.78705808882114L209.77922554016112,163.2335784039833L210.70745220184327,162.8584733222031L211.63567886352538,163.5289641452191L212.5639055252075,161.47902602144504L213.49213218688968,162.75734092368518L214.4203588485718,162.71825533893218L215.3485855102539,163.27189916577888L216.27681217193603,163.30573353962083L217.20503883361818,162.34930015709173L218.1332654953003,163.50917181501785L219.0614921569824,163.36062039313887L219.98971881866456,163.23909051038416L220.91794548034667,162.9520507783759L221.8461721420288,163.03994763773858L222.77439880371094,163.08386629489993L223.70262546539308,163.35627823650424L224.6308521270752,162.13157018996068L225.55907878875735,163.12380205050093L226.48730545043946,163.02042105484517L227.41553211212158,163.48716308610773L228.3437587738037,162.89670873610808L229.27198543548585,162.97291536037045L230.20021209716796,163.45739652064233L231.12843875885008,163.27236714568537L232.05666542053223,163.142952617494L232.98489208221434,163.22004447801677L233.91311874389646,162.73764320393624L234.84134540557864,163.5390969467192L235.76957206726075,163.93127689950762L236.69779872894287,163.43017385160545L237.62602539062502,163.25808670134774L238.55425205230713,163.23883623100988L239.48247871398925,163.38176439574679L240.41070537567137,162.55551808316798L241.33893203735352,163.91129369437277L242.26715869903563,164.11570883923056L243.19538536071775,163.41837555328453L244.12361202239993,164.13521226571956L245.05183868408204,164.18660316378168L245.98006534576416,163.6720447011508L246.9082920074463,163.98121809638442L247.83651866912842,163.7450017099928L248.76474533081054,163.91896960136384L249.69297199249266,163.9731659529558L250.6211986541748,163.6378722438043L251.54942531585692,163.8642287434622L252.47765197753904,163.54398802040723L253.4058786392212,163.58499514565275L254.33410530090333,163.61490969156927L255.26233196258545,163.05976069843524" fill="none"></path></g></g></g></g></g></g><g transform="translate(51, 177)" clip-path="url(#clip_1)"><clipPath id="clip_1"><rect width="278" height="22"></rect></clipPath><g><g><line x1="0" y1="0" x2="0" y2="5" style="visibility: inherit;" fill="rgb(0, 0, 0)" stroke="rgb(204, 204, 204)" stroke-width="1px"></line><line x1="23.205666542053223" y1="0" x2="23.205666542053223" y2="5" style="visibility: inherit;" fill="rgb(0, 0, 0)" stroke="rgb(204, 204, 204)" stroke-width="1px"></line><line x1="46.411333084106445" y1="0" x2="46.411333084106445" y2="5" style="visibility: inherit;" fill="rgb(0, 0, 0)" stroke="rgb(204, 204, 204)" stroke-width="1px"></line><line x1="69.61699962615967" y1="0" x2="69.61699962615967" y2="5" style="visibility: inherit;" fill="rgb(0, 0, 0)" stroke="rgb(204, 204, 204)" stroke-width="1px"></line><line x1="92.82266616821289" y1="0" x2="92.82266616821289" y2="5" style="visibility: inherit;" fill="rgb(0, 0, 0)" stroke="rgb(204, 204, 204)" stroke-width="1px"></line><line x1="116.02833271026611" y1="0" x2="116.02833271026611" y2="5" style="visibility: inherit;" fill="rgb(0, 0, 0)" stroke="rgb(204, 204, 204)" stroke-width="1px"></line><line x1="139.23399925231934" y1="0" x2="139.23399925231934" y2="5" style="visibility: inherit;" fill="rgb(0, 0, 0)" stroke="rgb(204, 204, 204)" stroke-width="1px"></line><line x1="162.43966579437256" y1="0" x2="162.43966579437256" y2="5" style="visibility: inherit;" fill="rgb(0, 0, 0)" stroke="rgb(204, 204, 204)" stroke-width="1px"></line><line x1="185.64533233642578" y1="0" x2="185.64533233642578" y2="5" style="visibility: inherit;" fill="rgb(0, 0, 0)" stroke="rgb(204, 204, 204)" stroke-width="1px"></line><line x1="208.850998878479" y1="0" x2="208.850998878479" y2="5" style="visibility: inherit;" fill="rgb(0, 0, 0)" stroke="rgb(204, 204, 204)" stroke-width="1px"></line><line x1="232.05666542053223" y1="0" x2="232.05666542053223" y2="5" style="visibility: inherit;" fill="rgb(0, 0, 0)" stroke="rgb(204, 204, 204)" stroke-width="1px"></line><line x1="255.26233196258545" y1="0" x2="255.26233196258545" y2="5" style="visibility: inherit;" fill="rgb(0, 0, 0)" stroke="rgb(204, 204, 204)" stroke-width="1px"></line><line x1="278.4679985046387" y1="0" x2="278.4679985046387" y2="5" style="visibility: inherit;" fill="rgb(0, 0, 0)" stroke="rgb(204, 204, 204)" stroke-width="1px"></line></g><g transform="translate(0, 8)"><text style="text-anchor: middle; visibility: hidden; font-family: Roboto, sans-serif; font-size: 12px; font-weight: 200;" x="0" y="0" dx="0em" dy="0.95em" fill="rgb(50, 49, 63)" stroke="none" stroke-width="1px">-500</text><text style="text-anchor: middle; visibility: inherit; font-family: Roboto, sans-serif; font-size: 12px; font-weight: 200;" x="23.205666542053223" y="0" dx="0em" dy="0.95em" fill="rgb(50, 49, 63)" stroke="none" stroke-width="1px">0</text><text style="text-anchor: middle; visibility: inherit; font-family: Roboto, sans-serif; font-size: 12px; font-weight: 200;" x="46.411333084106445" y="0" dx="0em" dy="0.95em" fill="rgb(50, 49, 63)" stroke="none" stroke-width="1px">500</text><text style="text-anchor: middle; visibility: inherit; font-family: Roboto, sans-serif; font-size: 12px; font-weight: 200;" x="69.61699962615967" y="0" dx="0em" dy="0.95em" fill="rgb(50, 49, 63)" stroke="none" stroke-width="1px">1k</text><text style="text-anchor: middle; visibility: inherit; font-family: Roboto, sans-serif; font-size: 12px; font-weight: 200;" x="92.82266616821289" y="0" dx="0em" dy="0.95em" fill="rgb(50, 49, 63)" stroke="none" stroke-width="1px">1.5k</text><text style="text-anchor: middle; visibility: inherit; font-family: Roboto, sans-serif; font-size: 12px; font-weight: 200;" x="116.02833271026611" y="0" dx="0em" dy="0.95em" fill="rgb(50, 49, 63)" stroke="none" stroke-width="1px">2k</text><text style="text-anchor: middle; visibility: inherit; font-family: Roboto, sans-serif; font-size: 12px; font-weight: 200;" x="139.23399925231934" y="0" dx="0em" dy="0.95em" fill="rgb(50, 49, 63)" stroke="none" stroke-width="1px">2.5k</text><text style="text-anchor: middle; visibility: inherit; font-family: Roboto, sans-serif; font-size: 12px; font-weight: 200;" x="162.43966579437256" y="0" dx="0em" dy="0.95em" fill="rgb(50, 49, 63)" stroke="none" stroke-width="1px">3k</text><text style="text-anchor: middle; visibility: inherit; font-family: Roboto, sans-serif; font-size: 12px; font-weight: 200;" x="185.64533233642578" y="0" dx="0em" dy="0.95em" fill="rgb(50, 49, 63)" stroke="none" stroke-width="1px">3.5k</text><text style="text-anchor: middle; visibility: inherit; font-family: Roboto, sans-serif; font-size: 12px; font-weight: 200;" x="208.850998878479" y="0" dx="0em" dy="0.95em" fill="rgb(50, 49, 63)" stroke="none" stroke-width="1px">4k</text><text style="text-anchor: middle; visibility: inherit; font-family: Roboto, sans-serif; font-size: 12px; font-weight: 200;" x="232.05666542053223" y="0" dx="0em" dy="0.95em" fill="rgb(50, 49, 63)" stroke="none" stroke-width="1px">4.5k</text><text style="text-anchor: middle; visibility: inherit; font-family: Roboto, sans-serif; font-size: 12px; font-weight: 200;" x="255.26233196258545" y="0" dx="0em" dy="0.95em" fill="rgb(50, 49, 63)" stroke="none" stroke-width="1px">5k</text><text style="text-anchor: middle; visibility: hidden; font-family: Roboto, sans-serif; font-size: 12px; font-weight: 200;" x="278.4679985046387" y="0" dx="0em" dy="0.95em" fill="rgb(50, 49, 63)" stroke="none" stroke-width="1px">5.5k</text></g><line x1="0" y1="0" x2="278.4679985046387" y2="0" fill="rgb(0, 0, 0)" stroke="rgb(204, 204, 204)" stroke-width="1px"></line></g></g></g></g></svg>