<svg viewBox="0 0 330 200" xmlns="http://www.w3.org/2000/svg"><g><g><g><g><g><line x1="51.53200149536133" y1="177.5999994277954" x2="46.53200149536133" y2="177.5999994277954" style="visibility: inherit;" fill="rgb(0, 0, 0)" stroke="rgb(204, 204, 204)" stroke-width="1px"></line><line x1="51.53200149536133" y1="157.86666615804035" x2="46.53200149536133" y2="157.86666615804035" style="visibility: inherit;" fill="rgb(0, 0, 0)" stroke="rgb(204, 204, 204)" stroke-width="1px"></line><line x1="51.53200149536133" y1="138.1333328882853" x2="46.53200149536133" y2="138.1333328882853" style="visibility: inherit;" fill="rgb(0, 0, 0)" stroke="rgb(204, 204, 204)" stroke-width="1px"></line><line x1="51.53200149536133" y1="118.39999961853029" x2="46.53200149536133" y2="118.39999961853029" style="visibility: inherit;" fill="rgb(0, 0, 0)" stroke="rgb(204, 204, 204)" stroke-width="1px"></line><line x1="51.53200149536133" y1="98.66666634877524" x2="46.53200149536133" y2="98.66666634877524" style="visibility: inherit;" fill="rgb(0, 0, 0)" stroke="rgb(204, 204, 204)" stroke-width="1px"></line><line x1="51.53200149536133" y1="78.93333307902017" x2="46.53200149536133" y2="78.93333307902017" style="visibility: inherit;" fill="rgb(0, 0, 0)" stroke="rgb(204, 204, 204)" stroke-width="1px"></line><line x1="51.53200149536133" y1="59.199999809265144" x2="46.53200149536133" y2="59.199999809265144" style="visibility: inherit;" fill="rgb(0, 0, 0)" stroke="rgb(204, 204, 204)" stroke-width="1px"></line><line x1="51.53200149536133" y1="39.466666539510086" x2="46.53200149536133" y2="39.466666539510086" style="visibility: inherit;" fill="rgb(0, 0, 0)" stroke="rgb(204, 204, 204)" stroke-width="1px"></line><line x1="51.53200149536133" y1="19.733333269755054" x2="46.53200149536133" y2="19.733333269755054" style="visibility: inherit;" fill="rgb(0, 0, 0)" stroke="rgb(204, 204, 204)" stroke-width="1px"></line><line x1="51.53200149536133" y1="0" x2="46.53200149536133" y2="0" style="visibility: inherit;" fill="rgb(0, 0, 0)" stroke="rgb(204, 204, 204)" stroke-width="1px"></line></g><g transform="translate(41.53200149536133, 0)"><text style="text-anchor: end; visibility: hidden; font-family: Roboto, sans-serif; font-size: 12px; font-weight: 200;" x="0" y="177.5999994277954" dx="0em" dy="0.3em" fill="rgb(50, 49, 63)" stroke="none" stroke-width="1px">-0.5</text><text style="text-anchor: end; visibility: inherit; font-family: Roboto, sans-serif; font-size: 12px; font-weight: 200;" x="0" y="157.86666615804035" dx="0em" dy="0.3em" fill="rgb(50, 49, 63)" stroke="none" stroke-width="1px">0</text><text style="text-anchor: end; visibility: hidden; font-family: Roboto, sans-serif; font-size: 12px; font-weight: 200;" x="0" y="138.1333328882853" dx="0em" dy="0.3em" fill="rgb(50, 49, 63)" stroke="none" stroke-width="1px">0.5</text><text style="text-anchor: end; visibility: inherit; font-family: Roboto, sans-serif; font-size: 12px; font-weight: 200;" x="0" y="118.39999961853029" dx="0em" dy="0.3em" fill="rgb(50, 49, 63)" stroke="none" stroke-width="1px">1</text><text style="text-anchor: end; visibility: hidden; font-family: Roboto, sans-serif; font-size: 12px; font-weight: 200;" x="0" y="98.66666634877524" dx="0em" dy="0.3em" fill="rgb(50, 49, 63)" stroke="none" stroke-width="1px">1.5</text><text style="text-anchor: end; visibility: inherit; font-family: Roboto, sans-serif; font-size: 12px; font-weight: 200;" x="0" y="78.93333307902017" dx="0em" dy="0.3em" fill="rgb(50, 49, 63)" stroke="none" stroke-width="1px">2</text><text style="text-anchor: end; visibility: hidden; font-family: Roboto, sans-serif; font-size: 12px; font-weight: 200;" x="0" y="59.199999809265144" dx="0em" dy="0.3em" fill="rgb(50, 49, 63)" stroke="none" stroke-width="1px">2.5</text><text style="text-anchor: end; visibility: inherit; font-family: Roboto, sans-serif; font-size: 12px; font-weight: 200;" x="0" y="39.466666539510086" dx="0em" dy="0.3em" fill="rgb(50, 49, 63)" stroke="none" stroke-width="1px">3</text><text style="text-anchor: end; visibility: hidden; font-family: Roboto, sans-serif; font-size: 12px; font-weight: 200;" x="0" y="19.733333269755054" dx="0em" dy="0.3em" fill="rgb(50, 49, 63)" stroke="none" stroke-width="1px">3.5</text><text style="text-anchor: end; visibility: hidden; font-family: Roboto, sans-serif; font-size: 12px; font-weight: 200;" x="0" y="0" dx="0em" dy="0.3em" fill="rgb(50, 49, 63)" stroke="none" stroke-width="1px">4</text></g><line x1="51.53200149536133" y1="0" x2="51.53200149536133" y2="177.5999994277954" fill="rgb(0, 0, 0)" stroke="rgb(204, 204, 204)" stroke-width="1px"></line></g></g><g transform="translate(51, 0)" clip-path="url(#clip_0)"><clipPath id="clip_0"><rect width="278" height="177"></rect></clipPath><g><g><g><line x1="0" y1="0" x2="0" y2="177.5999994277954" fill="rgb(0, 0, 0)" stroke="rgb(60, 60, 60)" stroke-width="1px" opacity="0.25"></line><line x1="23.205666542053223" y1="0" x2="23.205666542053223" y2="177.5999994277954" fill="rgb(0, 0, 0)" stroke="rgb(60, 60, 60)" stroke-width="1px" opacity="0.25"></line><line x1="46.411333084106445" y1="0" x2="46.411333084106445" y2="177.5999994277954" fill="rgb(0, 0, 0)" stroke="rgb(60, 60, 60)" stroke-width="1px" opacity="0.25"></line><line x1="69.61699962615967" y1="0" x2="69.61699962615967" y2="177.5999994277954" fill="rgb(0, 0, 0)" stroke="rgb(60, 60, 60)" stroke-width="1px" opacity="0.25"></line><line x1="92.82266616821289" y1="0" x2="92.82266616821289" y2="177.5999994277954" fill="rgb(0, 0, 0)" stroke="rgb(60, 60, 60)" stroke-width="1px" opacity="0.25"></line><line x1="116.02833271026611" y1="0" x2="116.02833271026611" y2="177.5999994277954" fill="rgb(0, 0, 0)" stroke="rgb(60, 60, 60)" stroke-width="1px" opacity="0.25"></line><line x1="139.23399925231934" y1="0" x2="139.23399925231934" y2="177.5999994277954" fill="rgb(0, 0, 0)" stroke="rgb(60, 60, 60)" stroke-width="1px" opacity="0.25"></line><line x1="162.43966579437256" y1="0" x2="162.43966579437256" y2="177.5999994277954" fill="rgb(0, 0, 0)" stroke="rgb(60, 60, 60)" stroke-width="1px" opacity="0.25"></line><line x1="185.64533233642578" y1="0" x2="185.64533233642578" y2="177.5999994277954" fill="rgb(0, 0, 0)" stroke="rgb(60, 60, 60)" stroke-width="1px" opacity="0.25"></line><line x1="208.850998878479" y1="0" x2="208.850998878479" y2="177.5999994277954" fill="rgb(0, 0, 0)" stroke="rgb(60, 60, 60)" stroke-width="1px" opacity="0.25"></line><line x1="232.05666542053223" y1="0" x2="232.05666542053223" y2="177.5999994277954" fill="rgb(0, 0, 0)" stroke="rgb(60, 60, 60)" stroke-width="1px" opacity="0.25"></line><line x1="255.26233196258545" y1="0" x2="255.26233196258545" y2="177.5999994277954" fill="rgb(0, 0, 0)" stroke="rgb(60, 60, 60)" stroke-width="1px" opacity="0.25"></line><line x1="278.4679985046387" y1="0" x2="278.4679985046387" y2="177.5999994277954" fill="rgb(0, 0, 0)" stroke="rgb(60, 60, 60)" stroke-width="1px" opacity="0.25"></line></g><g><line x1="0" y1="177.5999994277954" x2="278.4679985046387" y2="177.5999994277954" fill="rgb(0, 0, 0)" stroke="rgb(60, 60, 60)" stroke-width="1px" opacity="0.25"></line><line x1="0" y1="157.86666615804035" x2="278.4679985046387" y2="157.86666615804035" fill="rgb(0, 0, 0)" stroke="rgb(60, 60, 60)" stroke-width="1px" opacity="0.25"></line><line x1="0" y1="138.1333328882853" x2="278.4679985046387" y2="138.1333328882853" fill="rgb(0, 0, 0)" stroke="rgb(60, 60, 60)" stroke-width="1px" opacity="0.25"></line><line x1="0" y1="118.39999961853029" x2="278.4679985046387" y2="118.39999961853029" fill="rgb(0, 0, 0)" stroke="rgb(60, 60, 60)" stroke-width="1px" opacity="0.25"></line><line x1="0" y1="98.66666634877524" x2="278.4679985046387" y2="98.66666634877524" fill="rgb(0, 0, 0)" stroke="rgb(60, 60, 60)" stroke-width="1px" opacity="0.25"></line><line x1="0" y1="78.93333307902017" x2="278.4679985046387" y2="78.93333307902017" fill="rgb(0, 0, 0)" stroke="rgb(60, 60, 60)" stroke-width="1px" opacity="0.25"></line><line x1="0" y1="59.199999809265144" x2="278.4679985046387" y2="59.199999809265144" fill="rgb(0, 0, 0)" stroke="rgb(60, 60, 60)" stroke-width="1px" opacity="0.25"></line><line x1="0" y1="39.466666539510086" x2="278.4679985046387" y2="39.466666539510086" fill="rgb(0, 0, 0)" stroke="rgb(60, 60, 60)" stroke-width="1px" opacity="0.25"></line><line x1="0" y1="19.733333269755054" x2="278.4679985046387" y2="19.733333269755054" fill="rgb(0, 0, 0)" stroke="rgb(60, 60, 60)" stroke-width="1px" opacity="0.25"></line><line x1="0" y1="0" x2="278.4679985046387" y2="0" fill="rgb(0, 0, 0)" stroke="rgb(60, 60, 60)" stroke-width="1px" opacity="0.25"></line></g></g></g><g><g><line x1="0" y1="157.86666615804035" x2="278.4679985046387" y2="157.86666615804035" fill="rgb(0, 0, 0)" stroke="rgb(153, 153, 153)" stroke-width="1.5px"></line></g></g><g><g><line x1="23.205666542053223" y1="0" x2="23.205666542053223" y2="177.5999994277954" fill="rgb(0, 0, 0)" stroke="rgb(153, 153, 153)" stroke-width="1.5px"></line></g></g><g><g><g><g><g><path style="fill: none;" stroke="rgb(255, 112, 67)" stroke-width="2px" d="M33.416159820556636,-9.575757904039053L34.34438648223877,4.56092751959922L35.2726131439209,10.17934289765246L36.20083980560303,18.13207676743757L37.129066467285156,20.794871092740426L38.05729312896728,25.699230621865087L38.98551979064942,27.253331525044498L39.913746452331544,31.143507586518908L40.84197311401367,29.952719812345496L41.7701997756958,33.26073191235659L42.698426437377925,33.332916393125494L43.626653099060064,33.100342744560116L44.55487976074219,37.23675442648687L45.483106422424314,35.81151043385788L46.411333084106445,40.57610876400873L47.33955974578858,42.14406168296166L48.2677864074707,42.423721977374825L49.19601306915283,45.18230186795875L50.12423973083496,46.399206970555504L51.05246639251708,48.34896417386966L51.98069305419922,51.143093763620776L52.908919715881346,52.043144948975325L53.83714637756348,52.76423866625703L54.7653730392456,53.02873051337868L55.693599700927734,55.2204157454655L56.621826362609866,55.27572034388879L57.55005302429199,56.408842373283655L58.478279685974115,53.93618792209045L59.406506347656254,53.999049516307835L60.33473300933838,54.21789725034098L61.26295967102051,54.77908849851986L62.191186332702635,54.3740944685054L63.11941299438476,57.14273408875349L64.04763965606689,54.40823702713281L64.97586631774902,55.41232892277383L65.90409297943116,55.09253542617372L66.83231964111327,55.90296096075673L67.76054630279542,55.685100683168024L68.68877296447754,55.509816950841966L69.61699962615967,54.72018209369473L70.5452262878418,57.48739400751788L71.47345294952392,59.27374563049845L72.40167961120606,60.05496222452413L73.32990627288818,58.8298499215841L74.25813293457031,59.494752119457715L75.18635959625244,60.30691731380361L76.11458625793456,59.962277244451954L77.04281291961671,59.835354245877966L77.97103958129884,59.899105943515934L78.89926624298096,60.34209715447958L79.82749290466309,60.74343885734632L80.7557195663452,59.38370331618922L81.68394622802734,59.15601760890338L82.61217288970948,58.863402767065786L83.5403995513916,60.64057524971466L84.46862621307373,60.91110247640568L85.39685287475585,57.30991917041169L86.32507953643798,59.171927883164486L87.25330619812013,62.03078736138969L88.18153285980225,59.843431857285424L89.10975952148438,60.55167833835161L90.0379861831665,61.43685663322336L90.96621284484863,62.27077163325937L91.89443950653077,63.57166567464703L92.82266616821289,64.18560725138354L93.75089282989502,62.77706587177022L94.67911949157715,63.01032859342494L95.60734615325927,61.45336138650742L96.5355728149414,61.985010220231864L97.46379947662354,62.98749683271753L98.39202613830567,63.86570968554783L99.3202527999878,62.992125825423635L100.24847946166992,63.751428060552556L101.17670612335205,63.81753532248109L102.10493278503417,64.51062771708372L103.03315944671631,63.3174551438927L103.96138610839844,64.703178993923L104.88961277008056,64.17262457948823L105.81783943176269,65.75313520677332L106.74606609344484,67.17769839720239L107.67429275512696,66.82029713486388L108.60251941680909,65.34782100146843L109.5307460784912,63.28065826225655L110.45897274017334,63.9112197842512L111.38719940185547,65.64719442907649L112.3154260635376,67.26020458847954L113.24365272521973,65.5889754549938L114.17187938690185,64.96598254154999L115.10010604858398,65.09622070706159L116.02833271026611,64.141864728673L116.95655937194823,64.67919468054419L117.88478603363038,62.27635808199675L118.81301269531251,65.07738224445266L119.74123935699463,64.12663973543017L120.66946601867676,64.10361010146258L121.59769268035888,64.76527266558541L122.52591934204102,63.26663747904683L123.45414600372315,63.93765289526779L124.38237266540527,63.21539500181467L125.3105993270874,62.012896896638836L126.23882598876952,64.55120627091479L127.16705265045167,63.08035879558834L128.09527931213378,65.00187323023195L129.0235059738159,64.96694203075015L129.95173263549805,64.73678938269862L130.87995929718016,65.87773160322335L131.8081859588623,64.45178689188225L132.73641262054443,65.00512122427529L133.66463928222655,64.29865726813765L134.5928659439087,65.20903192156901L135.52109260559084,65.0171122864813L136.44931926727295,65.83694971953865L137.37754592895507,66.1473261993264L138.3057725906372,67.35392012590376L139.23399925231934,66.60565633278487L140.16222591400145,65.32560949757949L141.0904525756836,65.32775229241238L142.01867923736572,65.39011747757885L142.94690589904783,67.17860042581046L143.87513256073,67.36344027899146L144.80335922241213,68.38952057955305L145.73158588409424,68.04255299964507L146.65981254577636,67.09350300828649L147.5880392074585,62.99271163568878L148.51626586914062,65.57790177390102L149.44449253082274,69.27021620800261L150.3727191925049,67.30405235101149L151.300945854187,64.76907246566255L152.22917251586912,66.55076284819388L153.15739917755127,64.74481716672805L154.08562583923342,65.70158310495322L155.01385250091553,68.86346716313143L155.94207916259768,67.67433224746756L156.8703058242798,66.07593990362217L157.7985324859619,66.42814543954208L158.72675914764403,63.91545367384183L159.65498580932618,64.3226292576665L160.5832124710083,64.3447178118023L161.5114391326904,65.3169207296056L162.43966579437256,67.88814184725523L163.36789245605468,68.89002277398208L164.2961191177368,66.85012879620953L165.22434577941897,68.54000262151223L166.15257244110109,66.88266573552168L167.0807991027832,66.29632726228056L168.00902576446535,66.87590011120754L168.93725242614747,64.81424766947234L169.86547908782958,66.22590426718668L170.7937057495117,64.65317411251753L171.72193241119385,66.24907804441158L172.65015907287597,67.07649711295163L173.57838573455808,67.61489649095222L174.50661239624026,68.0373766284999L175.43483905792237,66.47316218189142L176.3630657196045,67.52514121828793L177.29129238128664,67.89863017497302L178.21951904296876,69.72507075248036L179.14774570465087,68.14928247901179L180.075972366333,68.1184363837286L181.00419902801514,64.80482324808006L181.93242568969725,64.45081073658866L182.86065235137937,65.53671916382461L183.78887901306155,67.85427292248079L184.71710567474366,68.15771940643737L185.64533233642578,68.80893046343132L186.57355899810793,68.47230734818073L187.50178565979004,69.76605501148352L188.43001232147216,69.81271061458277L189.3582389831543,71.323560722153L190.28646564483643,69.33076262953246L191.21469230651854,69.45494766130925L192.14291896820066,68.08334448825717L193.0711456298828,66.09310078887034L193.99937229156492,66.9616940238554L194.92759895324707,65.99004164039175L195.85582561492922,67.88391309702746L196.78405227661133,67.54612637696266" fill="none"></path></g><g><path style="fill: none;" stroke="rgb(204, 51, 17)" stroke-width="2px" d="M27.846799850463867,-13.238823071298086L28.775026512145995,2.261028176676462L29.703253173828127,12.381359400176288L30.631479835510255,19.984058164759954L31.55970649719238,17.504753675892207L32.48793315887451,7.976550367130941L33.416159820556636,21.77299683700447L34.34438648223877,34.22036257134443L35.2726131439209,42.53157278786227L36.20083980560303,50.40545064229113L37.129066467285156,55.21701559903683L38.05729312896728,58.58208461663664L38.98551979064942,66.74910726111182L39.913746452331544,70.25669419223141L40.84197311401367,76.6586944920334L41.7701997756958,82.90100358881796L42.698426437377925,85.96130648104575L43.626653099060064,88.06547968930136L44.55487976074219,93.93598603009683L45.483106422424314,94.93110207440047L46.411333084106445,93.08143608992707L47.33955974578858,98.36377857501658L48.2677864074707,104.17710856179654L49.19601306915283,105.83342218328374L50.12423973083496,109.73533743019327L51.05246639251708,111.70320955990692L51.98069305419922,114.18315014660115L52.908919715881346,116.9476904586065L53.83714637756348,117.87648562328602L54.7653730392456,120.01381674324745L55.693599700927734,121.16597071610288L56.621826362609866,122.61455979652429L57.55005302429199,122.48329728395828L58.478279685974115,123.2664691988882L59.406506347656254,125.33232856116884L60.33473300933838,127.0500036096134L61.26295967102051,130.12012617473002L62.191186332702635,129.77336521101446L63.11941299438476,130.2558716037664L64.04763965606689,131.56891733172128L64.97586631774902,133.00529205334504L65.90409297943116,134.13504074913763L66.83231964111327,134.7777338692865L67.76054630279542,135.00849429345845L68.68877296447754,135.53846650739473L69.61699962615967,136.2654572756408L70.5452262878418,136.887317934719L71.47345294952392,137.32530307893862L72.40167961120606,138.00449565847282L73.32990627288818,138.40246659206755L74.25813293457031,138.32496754211843L75.18635959625244,137.25470650605183L76.11458625793456,139.22381224833404L77.04281291961671,140.6443728176684L77.97103958129884,140.5346471531929L78.89926624298096,141.13958495333526L79.82749290466309,141.68828957872472L80.7557195663452,141.51409006350679L81.68394622802734,141.493509041748L82.61217288970948,140.89680816617116L83.5403995513916,141.76166033280793L84.46862621307373,142.9124225472989L85.39685287475585,142.85413507910974L86.32507953643798,143.4299045166997L87.25330619812013,143.19412801940354L88.18153285980225,144.84412507708666L89.10975952148438,145.2918431925941L90.0379861831665,144.74528723336857L90.96621284484863,144.36021723681372L91.89443950653077,145.30925124927958L92.82266616821289,146.57567125524184L93.75089282989502,147.45633458731788L94.67911949157715,147.289825915371L95.60734615325927,147.45617625537173L96.5355728149414,147.07210882116064L97.46379947662354,147.6604564731795L98.39202613830567,147.6866468344969L99.3202527999878,148.08997203229762L100.24847946166992,148.46573242205181L101.17670612335205,148.1583905771766L102.10493278503417,148.75761983789474L103.03315944671631,149.39266279632088L103.96138610839844,149.7415901192298L104.88961277008056,149.3901817315584L105.81783943176269,149.24483424335108L106.74606609344484,149.76374097521946L107.67429275512696,150.10601244344005L108.60251941680909,149.04051585809955L109.5307460784912,148.99018533638395L110.45897274017334,149.37953743449881L111.38719940185547,149.8976877689382L112.3154260635376,150.0749684271856L113.24365272521973,149.87665017506478L114.17187938690185,150.14149625487374L115.10010604858398,150.63061076001225L116.02833271026611,150.97003682480442L116.95655937194823,151.25576546527685L117.88478603363038,150.58034409363398L118.81301269531251,149.8696222164567L119.74123935699463,150.13956106920958L120.66946601867676,150.35969820879887L121.59769268035888,150.72665953410325L122.52591934204102,151.28906205144986L123.45414600372315,151.66954936224607L124.38237266540527,151.62705619534617L125.3105993270874,152.05979963292253L126.23882598876952,152.2114448133497L127.16705265045167,152.2369734269947L128.09527931213378,152.12983658810958L129.0235059738159,152.76109265684892L129.95173263549805,153.0663800100805L130.87995929718016,153.00967112663452L131.8081859588623,152.54635434617796L132.73641262054443,152.573397668238L133.66463928222655,153.21167378586347L134.5928659439087,153.29627205246234L135.52109260559084,153.5340098478788L136.44931926727295,153.46617512915967L137.37754592895507,153.0389103686622L138.3057725906372,153.10175821007078L139.23399925231934,152.75756978772333L140.16222591400145,153.1063516054455L141.0904525756836,153.6604065315056L142.01867923736572,153.7783761903066L142.94690589904783,153.4048129610026L143.87513256073,153.9500147000237L144.80335922241213,153.35524737907156L145.73158588409424,153.30289979145792L146.65981254577636,153.53530934628048L147.5880392074585,153.06909751314748L148.51626586914062,153.3974046056192L149.44449253082274,153.26907687077662L150.3727191925049,153.33357053626946L151.300945854187,153.71601692837143L152.22917251586912,153.91568707301917L153.15739917755127,154.10399447854667L154.08562583923342,153.79490968201716L155.01385250091553,154.34553088742638L155.94207916259768,154.3046913042558L156.8703058242798,154.4113159064141L157.7985324859619,154.59925232578746L158.72675914764403,154.64666953879754L159.65498580932618,154.40393993392934L160.5832124710083,154.7579388671678L161.5114391326904,154.743121059035L162.43966579437256,154.3742124176278L163.36789245605468,154.22097511411013L164.2961191177368,154.48092786293054L165.22434577941897,154.14197501939194L166.15257244110109,154.4613922971547L167.0807991027832,154.70081442904944L168.00902576446535,154.77746627661915L168.93725242614747,155.1503915293993L169.86547908782958,155.10695835382097L170.7937057495117,154.9973020348131L171.72193241119385,155.1795671164215L172.65015907287597,155.18258354646903L173.57838573455808,155.45385144164155L174.50661239624026,155.4846417274974L175.43483905792237,155.67968843745365L176.3630657196045,155.33873012596965L177.29129238128664,155.63032881333567L178.21951904296876,155.72979414826972L179.14774570465087,155.7822456105551L180.075972366333,155.8126764345621L181.00419902801514,155.81507683511987L181.93242568969725,156.0106519014892L182.86065235137937,156.08804371916477L183.78887901306155,156.13358636929496L184.71710567474366,156.02889651853965L185.64533233642578,155.59095179696803L186.57355899810793,155.62646050691274L187.50178565979004,155.21252895284363L188.43001232147216,154.87961488749082L189.3582389831543,155.28391532786372L190.28646564483643,155.43102710306601L191.21469230651854,155.1012358822317L192.14291896820066,154.80177442990964L193.0711456298828,155.34629286168956L193.99937229156492,154.87407779875878L194.92759895324707,155.24202035644635L195.85582561492922,155.4309424387079L196.78405227661133,155.3604905885339L197.71227893829345,155.5194609535222L198.6405055999756,155.01055605396093L199.56873226165771,154.48999152233236L200.49695892333983,154.87028770630295L201.42518558502198,155.00362295921957L202.3534122467041,155.00063579183998L203.2816389083862,154.66430598956543L204.20986557006833,155.32355249801228L205.1380922317505,155.32270633754692L206.06631889343262,155.54467102532163L206.99454555511474,155.41460042248332L207.9227722167969,155.7400389564301L208.850998878479,156.10461206109565L209.77922554016112,156.25931057275497L210.70745220184327,156.21579506225717L211.63567886352538,156.19260455089895L212.5639055252075,155.8685748536698L213.49213218688968,155.59951819521532L214.4203588485718,155.71614595156606L215.3485855102539,156.02739575504324L216.27681217193603,156.0273556403126L217.20503883361818,155.7316169651882L218.1332654953003,156.23864161240814L219.0614921569824,156.5762642850713L219.98971881866456,156.61355808910452L220.91794548034667,156.41801472771186L221.8461721420288,156.25475787243934L222.77439880371094,156.32087454458758L223.70262546539308,156.48955959501106L224.6308521270752,156.05932338090273L225.55907878875735,155.93428925222094L226.48730545043946,156.16848949017415L227.41553211212158,156.29696936122585L228.3437587738037,156.21836179511087L229.27198543548585,156.21993997239196L230.20021209716796,156.30727241149725L231.12843875885008,156.31561307376924L232.05666542053223,156.53377609938624L232.98489208221434,156.34771002141045L233.91311874389646,156.16451229195707L234.84134540557864,156.3847928956541L235.76957206726075,156.6252506026289L236.69779872894287,156.80916213982673L237.62602539062502,156.5730170922458L238.55425205230713,156.5317074752162L239.48247871398925,156.60914539501994L240.41070537567137,156.21416909669634L241.33893203735352,156.49751131243866L242.26715869903563,156.6245961360218L243.19538536071775,156.73261667607815L244.12361202239993,156.97211504877208L245.05183868408204,157.1169619684362L245.98006534576416,157.1694317979604L246.9082920074463,157.05204456792737L247.83651866912842,156.85933794593868L248.76474533081054,156.78157417938647L249.69297199249266,157.05892427037298L250.6211986541748,157.10382595193693L251.54942531585692,157.06467849444394L252.47765197753904,156.93008350378594L253.4058786392212,156.84923885321135L254.33410530090333,156.92290225328415L255.26233196258545,156.7882479002769" fill="none"></path></g></g></g></g><g opacity="0.2"><g><g><g><path style="fill: none;" stroke="rgb(255, 112, 67)" stroke-width="2px" d="M31.55970649719238,-12.584945638163832L32.48793315887451,5.488461286027808L33.416159820556636,22.779432859143366L34.34438648223877,25.719796924376926L35.2726131439209,18.59595890411614L36.20083980560303,30.051829431985432L37.129066467285156,24.787184571831556L38.05729312896728,33.053694554963535L38.98551979064942,29.584088293762616L39.913746452331544,36.978179049562186L40.84197311401367,28.166646993804694L41.7701997756958,38.22256864312778L42.698426437377925,33.44119073901781L43.626653099060064,32.75148686347302L44.55487976074219,43.441322949637204L45.483106422424314,33.673654574938766L46.411333084106445,47.72298594039951L47.33955974578858,44.49598704942931L48.2677864074707,42.84321198965017L49.19601306915283,49.32016916279265L50.12423973083496,48.224563951885706L51.05246639251708,51.273599332280206L51.98069305419922,55.33428759230917L52.908919715881346,53.39322161955912L53.83714637756348,53.84587919052911L54.7653730392456,53.425468272694154L55.693599700927734,58.5079435370808L56.621826362609866,55.35867724066809L57.55005302429199,58.108525406857254L58.478279685974115,50.227206259072766L59.406506347656254,54.09334190742386L60.33473300933838,54.54616885095191L61.26295967102051,55.62087537011302L62.191186332702635,53.766603423776054L63.11941299438476,61.295693517926495L64.04763965606689,50.306491435412376L64.97586631774902,56.91846676607884L65.90409297943116,54.612845181303484L66.83231964111327,57.11859926258574L67.76054630279542,55.35831026679232L68.68877296447754,55.24689135235637L69.61699962615967,53.53572980798344L70.5452262878418,61.63821187823244L71.47345294952392,61.953273064961486L72.40167961120606,61.226787115560604L73.32990627288818,56.99218146717596L74.25813293457031,60.492105416267506L75.18635959625244,61.52516510532194L76.11458625793456,59.44531714042463L77.04281291961671,59.64496974801705L77.97103958129884,59.99473348997282L78.89926624298096,61.006583970925014L79.82749290466309,61.34545141164638L80.7557195663452,57.3441000044536L81.68394622802734,58.814489047974654L82.61217288970948,58.42448050430932L83.5403995513916,63.30633397368805L84.46862621307373,61.31689331644217L85.39685287475585,51.90814421142067L86.32507953643798,61.96494095229371L87.25330619812013,66.31907657872746L88.18153285980225,56.562398601129026L89.10975952148438,61.614048059950925L90.0379861831665,62.76462407553102L90.96621284484863,63.521644133313366L91.89443950653077,65.52300673672849L92.82266616821289,65.10651961648833L93.75089282989502,60.66425380235023L94.67911949157715,63.360222675906996L95.60734615325927,59.11791057613117L96.5355728149414,62.78248347081854L97.46379947662354,64.49122675144599L98.39202613830567,65.18302896479327L99.3202527999878,61.681750035237364L100.24847946166992,64.8903814132459L101.17670612335205,63.916696215373875L102.10493278503417,65.55026630898769L103.03315944671631,61.527696284106085L103.96138610839844,66.78176476896851L104.88961277008056,63.37679295783604L105.81783943176269,68.12390114770096L106.74606609344484,69.31454318284598L107.67429275512696,66.28419524135613L108.60251941680909,63.13910680137526L109.5307460784912,60.1799141534387L110.45897274017334,64.85706206724323L111.38719940185547,68.2511563963144L112.3154260635376,69.67971982758415L113.24365272521973,63.082131754765214L114.17187938690185,64.03149317138423L115.10010604858398,65.29157795532895L116.02833271026611,62.71033076109007L116.95655937194823,65.48518960835099L117.88478603363038,58.672103184175576L118.81301269531251,69.27891848813655L119.74123935699463,62.700525971896404L120.66946601867676,64.06906565051122L121.59769268035888,65.75776651176966L122.52591934204102,61.018684699238904L123.45414600372315,64.94417601959927L124.38237266540527,62.13200816163499L125.3105993270874,60.20914973887511L126.23882598876952,68.35867033232869L127.16705265045167,60.87408758259865L128.09527931213378,67.88414488219738L129.0235059738159,64.91454523152743L129.95173263549805,64.39156041062127L130.87995929718016,67.58914493401046L131.8081859588623,62.312869824870624L132.73641262054443,65.83512272286482L133.66463928222655,63.238961333931165L134.5928659439087,66.57459390171607L135.52109260559084,64.72923283384975L136.44931926727295,67.06670586912469L137.37754592895507,66.61289091900805L138.3057725906372,69.16381101576978L139.23399925231934,65.48326064310656L140.16222591400145,63.405539244771425L141.0904525756836,65.33096648466169L142.01867923736572,65.48366525532856L142.94690589904783,69.86132484815789L143.87513256073,67.64070005876299L144.80335922241213,69.92864103039543L145.73158588409424,67.52210162978312L146.65981254577636,65.66992802124864L147.5880392074585,56.84152457679222L148.51626586914062,69.45568698121936L149.44449253082274,74.80868785915496L150.3727191925049,64.35480656552484L151.300945854187,60.96660263763913L152.22917251586912,69.22329842199088L153.15739917755127,62.03589864452927L154.08562583923342,67.136732012291L155.01385250091553,73.60629325039872L155.94207916259768,65.89062987397179L156.8703058242798,63.67835138785403L157.7985324859619,66.95645374342196L158.72675914764403,60.14641602529143L159.65498580932618,64.93339263340356L160.5832124710083,64.37785064300594L161.5114391326904,66.77522510631054L162.43966579437256,71.74497352372964L163.36789245605468,70.39284416407236L164.2961191177368,63.79028782955067L165.22434577941897,71.07481335946629L166.15257244110109,64.39666040653583L167.0807991027832,65.41681955241893L168.00902576446535,67.74525938459797L168.93725242614747,61.721769006869486L169.86547908782958,68.34338916375813L170.7937057495117,62.29407888051386L171.72193241119385,68.64293394225265L172.65015907287597,68.31762571576171L173.57838573455808,68.42249555795311L174.50661239624026,68.67109683482143L175.43483905792237,64.12684051197873L176.3630657196045,69.10310977288268L177.29129238128664,68.45886361000066L178.21951904296876,72.46473161874141L179.14774570465087,65.78560006880889L180.075972366333,68.07216724080384L181.00419902801514,59.83440354460725L181.93242568969725,63.91979196935153L182.86065235137937,67.16558180467851L183.78887901306155,71.33060356046508L184.71710567474366,68.61288913237225L185.64533233642578,69.78574704892223L186.57355899810793,67.96737267530489L187.50178565979004,71.70667650643766L188.43001232147216,69.88269401923162L189.3582389831543,73.58983588350839L190.28646564483643,66.34156549060162L191.21469230651854,69.64122520897445L192.14291896820066,66.02593972867908L193.0711456298828,63.10773523979014L193.99937229156492,68.26458387633299L194.92759895324707,64.53256306519627L195.85582561492922,70.72472028198096L196.78405227661133,67.0394462968655" fill="none"></path></g><g><path style="fill: none;" stroke="rgb(204, 51, 17)" stroke-width="2px" d="M25.99034652709961,-43.272317365464914L26.91857318878174,13.408312690768225L27.846799850463867,20.56646747320686L28.775026512145995,24.42606345889999L29.703253173828127,27.136899479218748L30.631479835510255,31.196562094312867L31.55970649719238,13.823275457985956L32.48793315887451,-6.229334493276249L33.416159820556636,42.39258688937678L34.34438648223877,52.85076836406399L35.2726131439209,54.98210558660791L36.20083980560303,62.20701197609059L37.129066467285156,62.43096954576293L38.05729312896728,63.628264158604615L38.98551979064942,78.9975676216599L39.913746452331544,75.51754024334575L40.84197311401367,86.26110977355066L41.7701997756958,92.26412489092847L42.698426437377925,90.55166011881722L43.626653099060064,91.22169795845532L44.55487976074219,102.74167599954582L45.483106422424314,96.42376906799699L46.411333084106445,90.30694500119748L47.33955974578858,106.28727878658425L48.2677864074707,112.8970946171356L49.19601306915283,108.31789108981563L50.12423973083496,115.58820814402831L51.05246639251708,114.6550171019096L51.98069305419922,117.9030605332173L52.908919715881346,121.09450059658396L53.83714637756348,119.2696783037776L54.7653730392456,123.21981333133398L55.693599700927734,122.89420164567649L56.621826362609866,124.78744339474436L57.55005302429199,122.28640351632778L58.478279685974115,124.44122706692103L59.406506347656254,128.4311175976859L60.33473300933838,129.6265161788361L61.26295967102051,134.72531001871133L62.191186332702635,129.25322376569147L63.11941299438476,130.97963119268536L64.04763965606689,133.53848592331232L64.97586631774902,135.15985413555674L65.90409297943116,135.8296637927208L66.83231964111327,135.7417735494737L67.76054630279542,135.35463492970862L68.68877296447754,136.3334248282885L69.61699962615967,137.35594342800107L70.5452262878418,137.82010892333176L71.47345294952392,137.98228079526612L72.40167961120606,139.02328452777235L73.32990627288818,138.99942299245902L74.25813293457031,138.20871896719487L75.18635959625244,135.64931495195256L76.11458625793456,142.1774708617567L77.04281291961671,142.77521367166963L77.97103958129884,140.37005865647967L78.89926624298096,142.04699165354873L79.82749290466309,142.5113465168089L80.7557195663452,141.25279079067988L81.68394622802734,141.4626375091098L82.61217288970948,140.00175685280584L83.5403995513916,143.05893858276315L84.46862621307373,144.6385658690353L85.39685287475585,142.76670387682603L86.32507953643798,144.29355867308468L87.25330619812013,142.8404632734593L88.18153285980225,147.31912066361136L89.10975952148438,145.96342036585523L90.0379861831665,143.92545329453026L90.96621284484863,143.78261224198144L91.89443950653077,146.7328022679784L92.82266616821289,148.4753012641852L93.75089282989502,148.77732958543194L94.67911949157715,147.0400629074507L95.60734615325927,147.70570176537285L96.5355728149414,146.49600766984403L97.46379947662354,148.54297795120775L98.39202613830567,147.72593237647303L99.3202527999878,148.69495982899872L100.24847946166992,149.02937300668307L101.17670612335205,147.69737780986375L102.10493278503417,149.65646372897194L103.03315944671631,150.3452272339601L103.96138610839844,150.26498110359321L104.88961277008056,148.86306915005133L105.81783943176269,149.0268130110401L106.74606609344484,150.54210107302202L107.67429275512696,150.61941964577096L108.60251941680909,147.44227098008875L109.5307460784912,148.9146895538106L110.45897274017334,149.96356558167108L111.38719940185547,150.67491327059727L112.3154260635376,150.34088941455676L113.24365272521973,149.57917279688354L114.17187938690185,150.53876537458714L115.10010604858398,151.36428251772008L116.02833271026611,151.47917592199263L116.95655937194823,151.68435842598552L117.88478603363038,149.56721203616974L118.81301269531251,148.8035394006907L119.74123935699463,150.5444693483389L120.66946601867676,150.68990391818284L121.59769268035888,151.2771015220598L122.52591934204102,152.1326658274698L123.45414600372315,152.2402803284404L124.38237266540527,151.5633164449963L125.3105993270874,152.7089147892871L126.23882598876952,152.43891258399043L127.16705265045167,152.2752663474622L128.09527931213378,151.96913132978196L129.0235059738159,153.70797675995792L129.95173263549805,153.5243110399279L130.87995929718016,152.92460780146547L131.8081859588623,151.85137917549315L132.73641262054443,152.61396265132802L133.66463928222655,154.16908796230172L134.5928659439087,153.4231694523606L135.52109260559084,153.89061654100348L136.44931926727295,153.364423051081L137.37754592895507,152.39801322791592L138.3057725906372,153.1960299721837L139.23399925231934,152.24128715420215L140.16222591400145,153.62952433202872L141.0904525756836,154.49148892059577L142.01867923736572,153.9553306785081L142.94690589904783,152.84446811704655L143.87513256073,154.76781730855538L144.80335922241213,152.4630963976434L145.73158588409424,153.22437841003745L146.65981254577636,153.88392367851435L147.5880392074585,152.36977976344798L148.51626586914062,153.88986524432673L149.44449253082274,153.07658526851276L150.3727191925049,153.43031103450872L151.300945854187,154.28968651652437L152.22917251586912,154.2151922899908L153.15739917755127,154.38645558683788L154.08562583923342,153.3312824872229L155.01385250091553,155.17146269554019L155.94207916259768,154.24343192949993L156.8703058242798,154.57125280965153L157.7985324859619,154.8811569548475L158.72675914764403,154.71779535831269L159.65498580932618,154.039845526627L160.5832124710083,155.28893726702552L161.5114391326904,154.7208943468357L162.43966579437256,153.8208494555171L163.36789245605468,153.99111915883356L164.2961191177368,154.87085698616121L165.22434577941897,153.63354575408403L166.15257244110109,154.9405182137988L167.0807991027832,155.0599476268916L168.00902576446535,154.8924440479737L168.93725242614747,155.70977940856943L169.86547908782958,155.04180859045357L170.7937057495117,154.83281755630125L171.72193241119385,155.45296473883414L172.65015907287597,155.1871081915403L173.57838573455808,155.86075328440037L174.50661239624026,155.53082715628116L175.43483905792237,155.97225850238803L176.3630657196045,154.8272926587437L177.29129238128664,156.06772684438468L178.21951904296876,155.8789921506708L179.14774570465087,155.86092280398321L180.075972366333,155.85832267057253L181.00419902801514,155.81867743595652L181.93242568969725,156.3040145010432L182.86065235137937,156.2041314456781L183.78887901306155,156.20190034449027L184.71710567474366,155.87186174240674L185.64533233642578,154.93403471461062L186.57355899810793,155.67972357182978L187.50178565979004,154.59163162174L188.43001232147216,154.38024378946156L189.3582389831543,155.89036598842307L190.28646564483643,155.65169476586948L191.21469230651854,154.60654905098016L192.14291896820066,154.3525822514266L193.0711456298828,156.16307050935941L193.99937229156492,154.16575520436263L194.92759895324707,155.79393419297773L195.85582561492922,155.71432556210019L196.78405227661133,155.25481281327296L197.71227893829345,155.75791650100467L198.6405055999756,154.24719870461902L199.56873226165771,153.70914472488946L200.49695892333983,155.44073198225885L201.42518558502198,155.20362583859452L202.3534122467041,154.99615504077053L203.2816389083862,154.15981128615363L204.20986557006833,156.31242226068258L205.1380922317505,155.32143709684888L206.06631889343262,155.87761805698372L206.99454555511474,155.21949451822582L207.9227722167969,156.22819675735033L208.850998878479,156.65147171809392L209.77922554016112,156.49135834024395L210.70745220184327,156.15052179651047L211.63567886352538,156.1578187838616L212.5639055252075,155.38253030782607L213.49213218688968,155.1959332075336L214.4203588485718,155.89108758609223L215.3485855102539,156.49427046025895L216.27681217193603,156.02729546821666L217.20503883361818,155.28800895250163L218.1332654953003,156.999178583238L219.0614921569824,157.082698294066L219.98971881866456,156.6694987951544L220.91794548034667,156.1246996856229L221.8461721420288,156.00987258953057L222.77439880371094,156.42004955280993L223.70262546539308,156.74258717064626L224.6308521270752,155.4139690597402L225.55907878875735,155.74673805919832L226.48730545043946,156.519789847104L227.41553211212158,156.4896891678034L228.3437587738037,156.10045044593838L229.27198543548585,156.22230723831362L230.20021209716796,156.43827107015514L231.12843875885008,156.32812406717724L232.05666542053223,156.86102063781178L232.98489208221434,156.06861090444676L233.91311874389646,155.889715697777L234.84134540557864,156.71521380119964L235.76957206726075,156.98593716309114L236.69779872894287,157.0850294456234L237.62602539062502,156.21879952087446L238.55425205230713,156.46974304967182L239.48247871398925,156.72530227472555L240.41070537567137,155.62170464921093L241.33893203735352,156.92252463605212L242.26715869903563,156.81522337139654L243.19538536071775,156.89464748616268L244.12361202239993,157.33136260781302L245.05183868408204,157.33423234793227L245.98006534576416,157.24813654224678L246.9082920074463,156.87596372287777L247.83651866912842,156.57027801295567L248.76474533081054,156.66492852955813L249.69297199249266,157.47494940685274L250.6211986541748,157.17117847428287L251.54942531585692,157.00595730820447L252.47765197753904,156.72819101779893L253.4058786392212,156.7279718773495L254.33410530090333,157.03339735339333L255.26233196258545,156.586266370766" fill="none"></path></g></g></g></g></g></g><g transform="translate(51, 177)" clip-path="url(#clip_1)"><clipPath id="clip_1"><rect width="278" height="22"></rect></clipPath><g><g><line x1="0" y1="0" x2="0" y2="5" style="visibility: inherit;" fill="rgb(0, 0, 0)" stroke="rgb(204, 204, 204)" stroke-width="1px"></line><line x1="23.205666542053223" y1="0" x2="23.205666542053223" y2="5" style="visibility: inherit;" fill="rgb(0, 0, 0)" stroke="rgb(204, 204, 204)" stroke-width="1px"></line><line x1="46.411333084106445" y1="0" x2="46.411333084106445" y2="5" style="visibility: inherit;" fill="rgb(0, 0, 0)" stroke="rgb(204, 204, 204)" stroke-width="1px"></line><line x1="69.61699962615967" y1="0" x2="69.61699962615967" y2="5" style="visibility: inherit;" fill="rgb(0, 0, 0)" stroke="rgb(204, 204, 204)" stroke-width="1px"></line><line x1="92.82266616821289" y1="0" x2="92.82266616821289" y2="5" style="visibility: inherit;" fill="rgb(0, 0, 0)" stroke="rgb(204, 204, 204)" stroke-width="1px"></line><line x1="116.02833271026611" y1="0" x2="116.02833271026611" y2="5" style="visibility: inherit;" fill="rgb(0, 0, 0)" stroke="rgb(204, 204, 204)" stroke-width="1px"></line><line x1="139.23399925231934" y1="0" x2="139.23399925231934" y2="5" style="visibility: inherit;" fill="rgb(0, 0, 0)" stroke="rgb(204, 204, 204)" stroke-width="1px"></line><line x1="162.43966579437256" y1="0" x2="162.43966579437256" y2="5" style="visibility: inherit;" fill="rgb(0, 0, 0)" stroke="rgb(204, 204, 204)" stroke-width="1px"></line><line x1="185.64533233642578" y1="0" x2="185.64533233642578" y2="5" style="visibility: inherit;" fill="rgb(0, 0, 0)" stroke="rgb(204, 204, 204)" stroke-width="1px"></line><line x1="208.850998878479" y1="0" x2="208.850998878479" y2="5" style="visibility: inherit;" fill="rgb(0, 0, 0)" stroke="rgb(204, 204, 204)" stroke-width="1px"></line><line x1="232.05666542053223" y1="0" x2="232.05666542053223" y2="5" style="visibility: inherit;" fill="rgb(0, 0, 0)" stroke="rgb(204, 204, 204)" stroke-width="1px"></line><line x1="255.26233196258545" y1="0" x2="255.26233196258545" y2="5" style="visibility: inherit;" fill="rgb(0, 0, 0)" stroke="rgb(204, 204, 204)" stroke-width="1px"></line><line x1="278.4679985046387" y1="0" x2="278.4679985046387" y2="5" style="visibility: inherit;" fill="rgb(0, 0, 0)" stroke="rgb(204, 204, 204)" stroke-width="1px"></line></g><g transform="translate(0, 8)"><text style="text-anchor: middle; visibility: hidden; font-family: Roboto, sans-serif; font-size: 12px; font-weight: 200;" x="0" y="0" dx="0em" dy="0.95em" fill="rgb(50, 49, 63)" stroke="none" stroke-width="1px">-500</text><text style="text-anchor: middle; visibility: inherit; font-family: Roboto, sans-serif; font-size: 12px; font-weight: 200;" x="23.205666542053223" y="0" dx="0em" dy="0.95em" fill="rgb(50, 49, 63)" stroke="none" stroke-width="1px">0</text><text style="text-anchor: middle; visibility: inherit; font-family: Roboto, sans-serif; font-size: 12px; font-weight: 200;" x="46.411333084106445" y="0" dx="0em" dy="0.95em" fill="rgb(50, 49, 63)" stroke="none" stroke-width="1px">500</text><text style="text-anchor: middle; visibility: inherit; font-family: Roboto, sans-serif; font-size: 12px; font-weight: 200;" x="69.61699962615967" y="0" dx="0em" dy="0.95em" fill="rgb(50, 49, 63)" stroke="none" stroke-width="1px">1k</text><text style="text-anchor: middle; visibility: inherit; font-family: Roboto, sans-serif; font-size: 12px; font-weight: 200;" x="92.82266616821289" y="0" dx="0em" dy="0.95em" fill="rgb(50, 49, 63)" stroke="none" stroke-width="1px">1.5k</text><text style="text-anchor: middle; visibility: inherit; font-family: Roboto, sans-serif; font-size: 12px; font-weight: 200;" x="116.02833271026611" y="0" dx="0em" dy="0.95em" fill="rgb(50, 49, 63)" stroke="none" stroke-width="1px">2k</text><text style="text-anchor: middle; visibility: inherit; font-family: Roboto, sans-serif; font-size: 12px; font-weight: 200;" x="139.23399925231934" y="0" dx="0em" dy="0.95em" fill="rgb(50, 49, 63)" stroke="none" stroke-width="1px">2.5k</text><text style="text-anchor: middle; visibility: inherit; font-family: Roboto, sans-serif; font-size: 12px; font-weight: 200;" x="162.43966579437256" y="0" dx="0em" dy="0.95em" fill="rgb(50, 49, 63)" stroke="none" stroke-width="1px">3k</text><text style="text-anchor: middle; visibility: inherit; font-family: Roboto, sans-serif; font-size: 12px; font-weight: 200;" x="185.64533233642578" y="0" dx="0em" dy="0.95em" fill="rgb(50, 49, 63)" stroke="none" stroke-width="1px">3.5k</text><text style="text-anchor: middle; visibility: inherit; font-family: Roboto, sans-serif; font-size: 12px; font-weight: 200;" x="208.850998878479" y="0" dx="0em" dy="0.95em" fill="rgb(50, 49, 63)" stroke="none" stroke-width="1px">4k</text><text style="text-anchor: middle; visibility: inherit; font-family: Roboto, sans-serif; font-size: 12px; font-weight: 200;" x="232.05666542053223" y="0" dx="0em" dy="0.95em" fill="rgb(50, 49, 63)" stroke="none" stroke-width="1px">4.5k</text><text style="text-anchor: middle; visibility: inherit; font-family: Roboto, sans-serif; font-size: 12px; font-weight: 200;" x="255.26233196258545" y="0" dx="0em" dy="0.95em" fill="rgb(50, 49, 63)" stroke="none" stroke-width="1px">5k</text><text style="text-anchor: middle; visibility: hidden; font-family: Roboto, sans-serif; font-size: 12px; font-weight: 200;" x="278.4679985046387" y="0" dx="0em" dy="0.95em" fill="rgb(50, 49, 63)" stroke="none" stroke-width="1px">5.5k</text></g><line x1="0" y1="0" x2="278.4679985046387" y2="0" fill="rgb(0, 0, 0)" stroke="rgb(204, 204, 204)" stroke-width="1px"></line></g></g></g></g></svg>