<svg viewBox="0 0 330 200" xmlns="http://www.w3.org/2000/svg"><g><g><g><g><g><line x1="30.766000747680664" y1="177.5999994277954" x2="25.766000747680664" y2="177.5999994277954" style="visibility: inherit;" fill="rgb(0, 0, 0)" stroke="rgb(204, 204, 204)" stroke-width="1px"></line><line x1="30.766000747680664" y1="155.39999949932098" x2="25.766000747680664" y2="155.39999949932098" style="visibility: inherit;" fill="rgb(0, 0, 0)" stroke="rgb(204, 204, 204)" stroke-width="1px"></line><line x1="30.766000747680664" y1="133.19999957084656" x2="25.766000747680664" y2="133.19999957084656" style="visibility: inherit;" fill="rgb(0, 0, 0)" stroke="rgb(204, 204, 204)" stroke-width="1px"></line><line x1="30.766000747680664" y1="110.99999964237213" x2="25.766000747680664" y2="110.99999964237213" style="visibility: inherit;" fill="rgb(0, 0, 0)" stroke="rgb(204, 204, 204)" stroke-width="1px"></line><line x1="30.766000747680664" y1="88.7999997138977" x2="25.766000747680664" y2="88.7999997138977" style="visibility: inherit;" fill="rgb(0, 0, 0)" stroke="rgb(204, 204, 204)" stroke-width="1px"></line><line x1="30.766000747680664" y1="66.59999978542328" x2="25.766000747680664" y2="66.59999978542328" style="visibility: inherit;" fill="rgb(0, 0, 0)" stroke="rgb(204, 204, 204)" stroke-width="1px"></line><line x1="30.766000747680664" y1="44.39999985694885" x2="25.766000747680664" y2="44.39999985694885" style="visibility: inherit;" fill="rgb(0, 0, 0)" stroke="rgb(204, 204, 204)" stroke-width="1px"></line><line x1="30.766000747680664" y1="22.199999928474426" x2="25.766000747680664" y2="22.199999928474426" style="visibility: inherit;" fill="rgb(0, 0, 0)" stroke="rgb(204, 204, 204)" stroke-width="1px"></line><line x1="30.766000747680664" y1="0" x2="25.766000747680664" y2="0" style="visibility: inherit;" fill="rgb(0, 0, 0)" stroke="rgb(204, 204, 204)" stroke-width="1px"></line></g><g transform="translate(20.766000747680664, 0)"><text style="text-anchor: end; visibility: hidden; font-family: Roboto, sans-serif; font-size: 12px; font-weight: 200;" x="0" y="177.5999994277954" dx="0em" dy="0.3em" fill="rgb(50, 49, 63)" stroke="none" stroke-width="1px">-1</text><text style="text-anchor: end; visibility: inherit; font-family: Roboto, sans-serif; font-size: 12px; font-weight: 200;" x="0" y="155.39999949932098" dx="0em" dy="0.3em" fill="rgb(50, 49, 63)" stroke="none" stroke-width="1px">0</text><text style="text-anchor: end; visibility: hidden; font-family: Roboto, sans-serif; font-size: 12px; font-weight: 200;" x="0" y="133.19999957084656" dx="0em" dy="0.3em" fill="rgb(50, 49, 63)" stroke="none" stroke-width="1px">1</text><text style="text-anchor: end; visibility: inherit; font-family: Roboto, sans-serif; font-size: 12px; font-weight: 200;" x="0" y="110.99999964237213" dx="0em" dy="0.3em" fill="rgb(50, 49, 63)" stroke="none" stroke-width="1px">2</text><text style="text-anchor: end; visibility: hidden; font-family: Roboto, sans-serif; font-size: 12px; font-weight: 200;" x="0" y="88.7999997138977" dx="0em" dy="0.3em" fill="rgb(50, 49, 63)" stroke="none" stroke-width="1px">3</text><text style="text-anchor: end; visibility: inherit; font-family: Roboto, sans-serif; font-size: 12px; font-weight: 200;" x="0" y="66.59999978542328" dx="0em" dy="0.3em" fill="rgb(50, 49, 63)" stroke="none" stroke-width="1px">4</text><text style="text-anchor: end; visibility: hidden; font-family: Roboto, sans-serif; font-size: 12px; font-weight: 200;" x="0" y="44.39999985694885" dx="0em" dy="0.3em" fill="rgb(50, 49, 63)" stroke="none" stroke-width="1px">5</text><text style="text-anchor: end; visibility: inherit; font-family: Roboto, sans-serif; font-size: 12px; font-weight: 200;" x="0" y="22.199999928474426" dx="0em" dy="0.3em" fill="rgb(50, 49, 63)" stroke="none" stroke-width="1px">6</text><text style="text-anchor: end; visibility: hidden; font-family: Roboto, sans-serif; font-size: 12px; font-weight: 200;" x="0" y="0" dx="0em" dy="0.3em" fill="rgb(50, 49, 63)" stroke="none" stroke-width="1px">7</text></g><line x1="30.766000747680664" y1="0" x2="30.766000747680664" y2="177.5999994277954" fill="rgb(0, 0, 0)" stroke="rgb(204, 204, 204)" stroke-width="1px"></line></g></g><g transform="translate(30, 0)" clip-path="url(#clip_0)"><clipPath id="clip_0"><rect width="299" height="177"></rect></clipPath><g><g><g><line x1="0" y1="0" x2="0" y2="177.5999994277954" fill="rgb(0, 0, 0)" stroke="rgb(60, 60, 60)" stroke-width="1px" opacity="0.25"></line><line x1="24.936166604359943" y1="0" x2="24.936166604359943" y2="177.5999994277954" fill="rgb(0, 0, 0)" stroke="rgb(60, 60, 60)" stroke-width="1px" opacity="0.25"></line><line x1="49.87233320871989" y1="0" x2="49.87233320871989" y2="177.5999994277954" fill="rgb(0, 0, 0)" stroke="rgb(60, 60, 60)" stroke-width="1px" opacity="0.25"></line><line x1="74.80849981307983" y1="0" x2="74.80849981307983" y2="177.5999994277954" fill="rgb(0, 0, 0)" stroke="rgb(60, 60, 60)" stroke-width="1px" opacity="0.25"></line><line x1="99.74466641743977" y1="0" x2="99.74466641743977" y2="177.5999994277954" fill="rgb(0, 0, 0)" stroke="rgb(60, 60, 60)" stroke-width="1px" opacity="0.25"></line><line x1="124.68083302179973" y1="0" x2="124.68083302179973" y2="177.5999994277954" fill="rgb(0, 0, 0)" stroke="rgb(60, 60, 60)" stroke-width="1px" opacity="0.25"></line><line x1="149.61699962615967" y1="0" x2="149.61699962615967" y2="177.5999994277954" fill="rgb(0, 0, 0)" stroke="rgb(60, 60, 60)" stroke-width="1px" opacity="0.25"></line><line x1="174.55316623051962" y1="0" x2="174.55316623051962" y2="177.5999994277954" fill="rgb(0, 0, 0)" stroke="rgb(60, 60, 60)" stroke-width="1px" opacity="0.25"></line><line x1="199.48933283487955" y1="0" x2="199.48933283487955" y2="177.5999994277954" fill="rgb(0, 0, 0)" stroke="rgb(60, 60, 60)" stroke-width="1px" opacity="0.25"></line><line x1="224.4254994392395" y1="0" x2="224.4254994392395" y2="177.5999994277954" fill="rgb(0, 0, 0)" stroke="rgb(60, 60, 60)" stroke-width="1px" opacity="0.25"></line><line x1="249.36166604359946" y1="0" x2="249.36166604359946" y2="177.5999994277954" fill="rgb(0, 0, 0)" stroke="rgb(60, 60, 60)" stroke-width="1px" opacity="0.25"></line><line x1="274.29783264795935" y1="0" x2="274.29783264795935" y2="177.5999994277954" fill="rgb(0, 0, 0)" stroke="rgb(60, 60, 60)" stroke-width="1px" opacity="0.25"></line><line x1="299.23399925231934" y1="0" x2="299.23399925231934" y2="177.5999994277954" fill="rgb(0, 0, 0)" stroke="rgb(60, 60, 60)" stroke-width="1px" opacity="0.25"></line></g><g><line x1="0" y1="177.5999994277954" x2="299.23399925231934" y2="177.5999994277954" fill="rgb(0, 0, 0)" stroke="rgb(60, 60, 60)" stroke-width="1px" opacity="0.25"></line><line x1="0" y1="155.39999949932098" x2="299.23399925231934" y2="155.39999949932098" fill="rgb(0, 0, 0)" stroke="rgb(60, 60, 60)" stroke-width="1px" opacity="0.25"></line><line x1="0" y1="133.19999957084656" x2="299.23399925231934" y2="133.19999957084656" fill="rgb(0, 0, 0)" stroke="rgb(60, 60, 60)" stroke-width="1px" opacity="0.25"></line><line x1="0" y1="110.99999964237213" x2="299.23399925231934" y2="110.99999964237213" fill="rgb(0, 0, 0)" stroke="rgb(60, 60, 60)" stroke-width="1px" opacity="0.25"></line><line x1="0" y1="88.7999997138977" x2="299.23399925231934" y2="88.7999997138977" fill="rgb(0, 0, 0)" stroke="rgb(60, 60, 60)" stroke-width="1px" opacity="0.25"></line><line x1="0" y1="66.59999978542328" x2="299.23399925231934" y2="66.59999978542328" fill="rgb(0, 0, 0)" stroke="rgb(60, 60, 60)" stroke-width="1px" opacity="0.25"></line><line x1="0" y1="44.39999985694885" x2="299.23399925231934" y2="44.39999985694885" fill="rgb(0, 0, 0)" stroke="rgb(60, 60, 60)" stroke-width="1px" opacity="0.25"></line><line x1="0" y1="22.199999928474426" x2="299.23399925231934" y2="22.199999928474426" fill="rgb(0, 0, 0)" stroke="rgb(60, 60, 60)" stroke-width="1px" opacity="0.25"></line><line x1="0" y1="0" x2="299.23399925231934" y2="0" fill="rgb(0, 0, 0)" stroke="rgb(60, 60, 60)" stroke-width="1px" opacity="0.25"></line></g></g></g><g><g><line x1="0" y1="155.39999949932098" x2="299.23399925231934" y2="155.39999949932098" fill="rgb(0, 0, 0)" stroke="rgb(153, 153, 153)" stroke-width="1.5px"></line></g></g><g><g><line x1="24.936166604359943" y1="0" x2="24.936166604359943" y2="177.5999994277954" fill="rgb(0, 0, 0)" stroke="rgb(153, 153, 153)" stroke-width="1.5px"></line></g></g><g><g><g><g><g><path style="fill: none;" stroke="rgb(255, 112, 67)" stroke-width="2px" d="M34.91063324610392,-8.344795904452088L35.90807991027832,3.9484836780971966L36.90552657445272,13.041851446499937L37.90297323862712,16.586295854098918L38.90041990280152,21.683223656207037L39.897866566975914,23.217621212160658L40.895313231150304,25.904574939801282L41.89275989532471,27.122845079205035L42.890206559499106,29.960427536958246L43.8876532236735,29.466354235261523L44.8850998878479,32.12121869568515L45.8825465520223,32.0096900813404L46.8799932161967,33.861500622963376L47.87743988037109,38.09719851642171L48.87488654454549,38.44991094373815L49.87233320871989,42.59249522632976L50.86977987289429,43.910656659427964L51.86722653706869,45.04361344982348L52.864673201243086,47.90922119774568L53.862119865417476,48.95512585655868L54.85956652959187,51.742465307438316L55.85701319376628,53.51407872511462L56.854459857940675,54.28473504221682L57.85190652211507,53.63142092532964L58.84935318628946,54.078152686107295L59.84679985046387,56.886017958065345L60.844246514638265,56.96324755020621L61.84169317881266,57.347962037223695L62.83913984298706,55.43129912298843L63.83658650716146,54.83423503092296L64.83403317133586,55.32821153995259L65.83147983551025,56.66578137170663L66.82892649968466,57.07479460023674L67.82637316385905,59.01021885903128L68.82381982803345,56.53974044659612L69.82126649220784,56.835416421635976L70.81871315638224,57.79621666510308L71.81615982055663,58.50025551894318L72.81360648473104,58.17135063235372L73.81105314890544,57.358571339160555L74.80849981307983,57.75312730929989L75.80594647725424,59.38678223545741L76.80339314142863,59.807749347612734L77.80083980560303,60.96956384964786L78.79828646977742,60.328397626590174L79.79573313395183,60.708461569796505L80.79317979812623,61.93079730342756L81.79062646230061,61.09084624013005L82.78807312647501,61.435601490530466L83.78551979064942,61.84493106528926L84.78296645482381,61.646645678640084L85.78041311899821,62.39696216357641L86.7778597831726,61.0128811253894L87.775306447347,60.68134477809145L88.77275311152141,60.36720305278652L89.7701997756958,61.91169568841173L90.7676464398702,61.91422684405348L91.7650931040446,58.00835873209549L92.762539768219,60.42210652635121L93.7599864323934,62.51315793520857L94.75743309656778,60.763339785076006L95.75487976074218,61.0371123733978L96.75232642491657,62.6141378389534L97.74977308909098,62.86921145791589L98.74721975326538,63.53509879780708L99.74466641743977,64.43052017719488L100.74211308161418,62.7818931137989L101.73955974578858,62.46882248729148L102.73700640996297,61.95523433912111L103.73445307413738,62.663240580856076L104.73189973831177,63.76183376769593L105.72934640248617,64.90888003619912L106.72679306666058,64.25747248667575L107.72423973083495,64.69464805011914L108.72168639500936,64.14274562713659L109.71913305918375,64.52263864066069L110.71657972335815,63.2637035734387L111.71402638753256,64.5258491641786L112.71147305170695,64.38729965322268L113.70891971588135,64.95703340890115L114.70636638005575,66.174675871248L115.70381304423015,66.07864916488747L116.70125970840455,64.45108926032607L117.69870637257893,62.45962637231184L118.69615303675333,62.55338587290029L119.69359970092773,64.3967845881253L120.69104636510212,66.04879202381427L121.68849302927653,65.48879791234455L122.68593969345092,65.57493714051375L123.68338635762532,66.46120819151103L124.68083302179973,65.45098611638412L125.67827968597412,64.6095181705281L126.67572635014852,63.01809127156647L127.67317301432293,64.84868752723735L128.6706196784973,64.44550462461947L129.66806634267172,64.14306959943028L130.6655130068461,65.02720333033425L131.6629596710205,63.98200642704164L132.66040633519492,63.85012517617068L133.6578529993693,62.97315852233484L134.6552996635437,62.279206542658834L135.6527463277181,64.5572457656363L136.6501929918925,63.31803748942917L137.6476396560669,64.69199554147983L138.6450863202413,65.38599584615271L139.64253298441568,64.56045057549935L140.63997964859007,65.29320995700216L141.6374263127645,64.29130610415919L142.63487297693888,64.20576349934936L143.63231964111327,64.11368266468314L144.6297663052877,64.23756681558899L145.62721296946208,64.09282660523918L146.62465963363647,64.70798092037109L147.6221062978109,65.1472445602495L148.61955296198528,66.61327168866661L149.61699962615967,65.87697213840364L150.61444629033406,64.88707317020472L151.61189295450848,65.52551816184064L152.60933961868287,65.28263922835795L153.60678628285726,67.31310364897665L154.60423294703168,67.34809056474279L155.60167961120607,68.5685283585314L156.59912627538046,67.09152079350945L157.59657293955485,67.205723737235L158.59401960372927,63.24693869271534L159.59146626790366,66.24160344734732L160.58891293207802,68.51513523926437L161.58635959625246,66.51879690489243L162.58380626042683,65.3646285095364L163.58125292460122,67.27815081368848L164.57869958877563,65.91095256259061L165.57614625295002,65.89525912050892L166.57359291712442,68.59362754665786L167.57103958129883,66.77437720534382L168.56848624547322,65.4468021066015L169.56593290964761,65.83240551919432L170.563379573822,64.53482031368053L171.56082623799642,64.91229194513156L172.5582729021708,64.5206667106616L173.5557195663452,65.37863998412186L174.55316623051962,67.29488447682479L175.550612894694,67.87395997830129L176.5480595588684,66.65801188212463L177.54550622304282,68.1207442525543L178.5429528872172,66.69301779555147L179.5403995513916,67.18294245244222L180.53784621556602,67.15498776275055L181.5352928797404,65.35046854432554L182.5327395439148,66.19813416616977L183.5301862080892,65.53011084714439L184.5276328722636,67.34871251325133L185.525079536438,66.74004628603129L186.52252620061236,67.57796969569479L187.5199728647868,67.93238090368345L188.51741952896117,65.4912094683868L189.51486619313556,66.89147306678927L190.51231285730998,67.76721640027667L191.50975952148437,68.74143193017322L192.50720618565876,67.49364233769384L193.50465284983315,67.63823945335167L194.50209951400757,64.81544817157368L195.49954617818196,64.24154196121602L196.49699284235635,65.15533570500791L197.49443950653077,66.72140976141937L198.49188617070516,67.21764530692435L199.48933283487955,67.45330312307482L200.48677949905397,67.80489762593064L201.48422616322836,69.04099867248577L202.48167282740275,68.72657058922184L203.47911949157717,71.40440878618034L204.47656615575156,68.93389080074367L205.47401281992595,68.07768049040513L206.47145948410034,68.13824160246159L207.46890614827475,65.8058289448993L208.46635281244914,66.36672897740776L209.46379947662354,66.11541072243963L210.46124614079795,67.15102796113193L211.45869280497234,67.44539070652391" fill="none"></path></g><g><path style="fill: none;" stroke="rgb(204, 51, 17)" stroke-width="2px" d="M29.923399925231934,-4.620532659754148L30.92084658940633,5.767881580282676L31.91829325358073,12.136616873488805L32.915739917755126,18.26752335339039L33.91318658192952,20.040542460090002L34.91063324610392,17.834804014418534L35.90807991027832,30.02458290324441L36.90552657445272,43.243259248463914L37.90297323862712,53.05251076978415L38.90041990280152,62.35009103136402L39.897866566975914,67.74148582836774L40.895313231150304,72.85768902471035L41.89275989532471,80.19755788794907L42.890206559499106,83.49337145399356L43.8876532236735,89.57112172359739L44.8850998878479,95.44957704361475L45.8825465520223,98.43917114329908L46.8799932161967,100.77719390155042L47.87743988037109,105.53661265246097L48.87488654454549,106.20302777385997L49.87233320871989,104.94895401781602L50.86977987289429,109.6354495685935L51.86722653706869,114.28644723999484L52.864673201243086,115.2047863654479L53.862119865417476,118.47887117671306L54.85956652959187,120.14284088087601L55.85701319376628,122.32825329241113L56.854459857940675,124.34308273637421L57.85190652211507,124.86597488397341L58.84935318628946,126.16126226253238L59.84679985046387,126.92150694664392L60.844246514638265,128.0723776463653L61.84169317881266,128.10970949620966L62.83913984298706,128.9261949089492L63.83658650716146,130.36973305190065L64.83403317133586,131.66941263514022L65.83147983551025,134.31718269199575L66.82892649968466,133.86857866757902L67.82637316385905,134.06335627120498L68.82381982803345,134.77012522295345L69.82126649220784,135.6609408430072L70.81871315638224,136.75529702783442L71.81615982055663,137.1932332997145L72.81360648473104,137.54331349727138L73.81105314890544,137.88213927671217L74.80849981307983,138.52208513836356L75.80594647725424,138.92979762941232L76.80339314142863,138.9570926090241L77.80083980560303,139.48579776687106L78.79828646977742,139.76198294934233L79.79573313395183,139.79548025214484L80.79317979812623,138.8438475130327L81.79062646230061,140.36501434052445L82.78807312647501,141.47772543223985L83.78551979064942,141.35851334373325L84.78296645482381,141.7262199454153L85.78041311899821,142.14962255510136L86.7778597831726,142.1475399972112L87.775306447347,142.03935815653193L88.77275311152141,141.7593474912711L89.7701997756958,142.28733474698433L90.7676464398702,142.9483069584647L91.7650931040446,142.97819869717893L92.762539768219,143.39943044340038L93.7599864323934,143.2909433436917L94.75743309656778,144.6498924148612L95.75487976074218,144.9371013229753L96.75232642491657,144.4507367895949L97.74977308909098,144.2457384428221L98.74721975326538,144.98550948393486L99.74466641743977,145.79021663849917L100.74211308161418,146.47676806623966L101.73955974578858,146.38846951098625L102.73700640996297,146.5294902351117L103.73445307413738,146.09702756892364L104.73189973831177,146.3306985496036L105.72934640248617,146.2555534576599L106.72679306666058,146.66183156674984L107.72423973083495,147.1085498938188L108.72168639500936,146.90482326981495L109.71913305918375,147.420931295126L110.71657972335815,147.89063359396602L111.71402638753256,148.19104149435884L112.71147305170695,147.85440300128212L113.70891971588135,147.7910328190749L114.70636638005575,148.0133686181143L115.70381304423015,148.46053990672675L116.70125970840455,147.6247188526563L117.69870637257893,147.62946888721163L118.69615303675333,147.88134023463812L119.69359970092773,148.29322400521698L120.69104636510212,148.30431719995775L121.68849302927653,148.27427431778716L122.68593969345092,148.3920340389827L123.68338635762532,148.83094048134197L124.68083302179973,149.10559287609806L125.67827968597412,149.39922390070188L126.67572635014852,148.86596597237792L127.67317301432293,148.4097176472115L128.6706196784973,148.68158435202918L129.66806634267172,148.7990791128063L130.6655130068461,148.9728627955504L131.6629596710205,149.32089584325195L132.66040633519492,149.50325914901654L133.6578529993693,149.36013417979774L134.6552996635437,149.91660766807686L135.6527463277181,150.18322769909483L136.6501929918925,150.1146346263552L137.6476396560669,150.15831590917L138.6450863202413,150.6700055782976L139.64253298441568,150.8153544640181L140.63997964859007,150.80699321241477L141.6374263127645,150.50594419340558L142.63487297693888,150.6522665398082L143.63231964111327,151.04001716008514L144.6297663052877,151.02969386445886L145.62721296946208,151.16251056158868L146.62465963363647,151.00794933416896L147.6221062978109,150.72079857160628L148.61955296198528,150.79243939842567L149.61699962615967,150.49874155092698L150.61444629033406,150.65446182813656L151.61189295450848,151.1330245643484L152.60933961868287,151.31127192689488L153.60678628285726,150.91188055284883L154.60423294703168,151.5660206152492L155.60167961120607,150.94886067567765L156.59912627538046,151.04094756109197L157.59657293955485,151.14051231712912L158.59401960372927,150.7358441872032L159.59146626790366,151.01072510770675L160.58891293207802,150.9862001326919L161.58635959625246,151.09331138830686L162.58380626042683,151.35858790569955L163.58125292460122,151.5131802277786L164.57869958877563,151.62050271959666L165.57614625295002,151.35223289664842L166.57359291712442,151.8788340725112L167.57103958129883,151.74922751431149L168.56848624547322,151.95155047967717L169.56593290964761,152.05333382776544L170.563379573822,151.9395047049302L171.56082623799642,151.86777611370545L172.5582729021708,152.2065057633894L173.5557195663452,152.14504070943283L174.55316623051962,151.81697677222965L175.550612894694,151.8382610214429L176.5480595588684,152.09298582767954L177.54550622304282,151.80989279725293L178.5429528872172,152.0618290330064L179.5403995513916,152.28118612083264L180.53784621556602,152.31593858938228L181.5352928797404,152.57550494472582L182.5327395439148,152.54291769044826L183.5301862080892,152.4031290821465L184.5276328722636,152.53089354456205L185.525079536438,152.4322750454807L186.52252620061236,152.61634755133872L187.5199728647868,152.6580447183765L188.51741952896117,152.8090014396812L189.51486619313556,152.64154617212884L190.51231285730998,152.93908006404797L191.50975952148437,152.93068673248044L192.50720618565876,152.92614403111526L193.50465284983315,152.94816268244847L194.50209951400757,152.9353747886211L195.49954617818196,153.1278447744057L196.49699284235635,153.17427774211305L197.49443950653077,153.2955311391129L198.49188617070516,153.2479604489474L199.48933283487955,152.9251352662354L200.48677949905397,152.93625107749816L201.48422616322836,152.5914951995824L202.48167282740275,152.36358707599987L203.47911949157717,152.641527092215L204.47656615575156,152.79117157215592L205.47401281992595,152.44209404771016L206.47145948410034,152.32563796333662L207.46890614827475,152.75800383283618L208.46635281244914,152.44086315594072L209.46379947662354,152.68173565072757L210.46124614079795,152.7426223829851L211.45869280497234,152.70175599307606L212.4561394691467,152.7950484686122L213.45358613332115,152.47195248882852L214.45103279749551,152.04638675775533L215.4484794616699,152.26825476605643L216.44592612584432,152.3800284095744L217.4433727900187,152.49591833753422L218.4408194541931,152.28635238614214L219.4382661183675,152.75101948516718L220.4357127825419,152.72844509555165L221.4331594467163,152.8640415339327L222.4306061108907,152.79546015663115L223.4280527750651,153.07950492151244L224.4254994392395,153.2883428301603L225.4229461034139,153.44459807952654L226.4203927675883,153.40539727761978L227.4178394317627,153.48409220900155L228.4152860959371,153.04937847599535L229.4127327601115,152.93831315704242L230.4101794242859,153.02222089621398L231.4076260884603,153.29132826043144L232.40507275263468,153.35279849490925L233.4025194168091,153.07987612910014L234.3999660809835,153.47511662521927L235.39741274515785,153.70877016108548L236.3948594093323,153.7377629129369L237.39230607350666,153.58952278806163L238.38975273768105,153.48792711233952L239.38719940185547,153.52584735529888L240.38464606602986,153.6620322728686L241.38209273020425,153.26109792493477L242.37953939437867,153.24424512013357L243.37698605855306,153.3925629401833L244.37443272272745,153.54479231714043L245.37187938690184,153.45998301223398L246.36932605107626,153.4479462012139L247.36677271525065,153.56198818388756L248.36421937942504,153.57787592465874L249.36166604359946,153.68789810174525L250.35911270777385,153.58718298052815L251.35655937194824,153.41414226210452L252.35400603612266,153.61627301535876L253.35145270029705,153.85729118357457L254.34889936447144,153.94903240742877L255.34634602864585,153.78336236921473L256.3437926928202,153.73753500355386L257.3412393569946,153.78897863450496L258.338686021169,153.44759846660915L259.33613268534344,153.7388211715111L260.33357934951783,153.92007428163342L261.3310260136922,153.9420965806373L262.3284726778666,154.16109636100603L263.325919342041,154.30085056373358L264.3233660062154,154.28814775969627L265.32081267038984,154.2431631856606L266.31825933456423,154.11196068200766L267.3157059987386,154.08063074629743L268.313152662913,154.25221693500137L269.3105993270874,154.23652614856306L270.3080459912618,154.2238903892811L271.3054926554362,154.1057753768319L272.30293931961063,154.04100814808837L273.300385983785,154.07535572483957L274.29783264795935,153.91208746736933" fill="none"></path></g></g></g></g><g opacity="0.2"><g><g><g><path style="fill: none;" stroke="rgb(255, 112, 67)" stroke-width="2px" d="M32.915739917755126,-19.668875249434564L33.91318658192952,3.398036945839067L34.91063324610392,11.758414612079264L35.90807991027832,22.32150356730415L36.90552657445272,26.652211675604576L37.90297323862712,21.896018529917683L38.90041990280152,29.322624112069207L39.897866566975914,25.518135370054324L40.895313231150304,29.933868502494875L41.89275989532471,28.94994096965422L42.890206559499106,34.216368946460875L43.8876532236735,28.725289442973235L44.8850998878479,36.10336978724399L45.8825465520223,31.84240082971985L46.8799932161967,36.63917987462901L47.87743988037109,44.45069518072961L48.87488654454549,38.97897707778384L49.87233320871989,48.80635398398749L50.86977987289429,45.88789543626149L51.86722653706869,46.74304689606123L52.864673201243086,52.20763017999923L53.862119865417476,50.523982266722555L54.85956652959187,55.92347355944571L55.85701319376628,56.17149849913733L56.854459857940675,55.44071942586925L57.85190652211507,52.651449796794395L58.84935318628946,54.74825030807466L59.84679985046387,61.09781579359861L60.844246514638265,57.0790919372227L61.84169317881266,57.92503376417858L62.83913984298706,52.5563047623109L63.83658650716146,53.93863889482009L64.83403317133586,56.06917630250655L65.83147983551025,58.67213611772854L66.82892649968466,57.68831444273667L67.82637316385905,61.91335524638487L68.82381982803345,52.83402282858532L69.82126649220784,57.278930384149646L70.81871315638224,59.23741703021392L71.81615982055663,59.55631379966377L72.81360648473104,57.677993302480616L73.81105314890544,56.13940239938722L74.80849981307983,58.34496126450409L75.80594647725424,61.83726462468178L76.80339314142863,60.43920001584388L77.80083980560303,62.712285602697534L78.79828646977742,59.366648292004584L79.79573313395183,61.27855748460564L80.79317979812623,63.764300903873504L81.79062646230061,59.83091964518405L82.78807312647501,61.95273436613104L83.78551979064942,62.4589254274274L84.78296645482381,61.349217598666314L85.78041311899821,63.522436890980885L86.7778597831726,58.93675956810887L87.775306447347,60.18404025714449L88.77275311152141,59.89599046482914L89.7701997756958,64.22843464184956L90.7676464398702,61.91802357751607L91.7650931040446,52.1495565641585L92.762539768219,64.04272821773475L93.7599864323934,65.64973504849468L94.75743309656778,58.138612559877174L95.75487976074218,61.447771255880525L96.75232642491657,64.97967603728682L97.74977308909098,63.25182188635961L98.74721975326538,64.53392980764386L99.74466641743977,65.77365224627658L100.74211308161418,60.30895251870493L101.73955974578858,61.99921654753035L102.73700640996297,61.18485211686556L103.73445307413738,63.72524994345855L104.73189973831177,65.4097235479557L105.72934640248617,66.62944943895388L106.72679306666058,63.280361162390705L107.72423973083495,65.35041139528425L108.72168639500936,63.31489199266275L109.71913305918375,65.09247816094683L110.71657972335815,61.375300972605714L111.71402638753256,66.41906755028845L112.71147305170695,64.1794753867888L113.70891971588135,65.81163404241886L114.70636638005575,68.00113956476824L115.70381304423015,65.93460910534662L116.70125970840455,62.009749403483966L117.69870637257893,59.47243204029047L118.69615303675333,62.69402512378298L119.69359970092773,67.16188266096282L120.69104636510212,68.52680317734769L121.68849302927653,64.64880674513995L122.68593969345092,65.70414598276761L123.68338635762532,67.79061476800695L124.68083302179973,63.935653003693744L125.67827968597412,63.347316251744076L126.67572635014852,60.63095092312403L127.67317301432293,67.59458191074364L128.6706196784973,63.84073027069269L129.66806634267172,63.68941706164651L130.6655130068461,66.35340392669019L131.6629596710205,62.41421107210272L132.66040633519492,63.65230329986423L133.6578529993693,61.65770854158109L134.6552996635437,61.23827857314484L135.6527463277181,67.9743046001025L136.6501929918925,61.459225075118525L137.6476396560669,66.75293261955579L138.6450863202413,66.42699630316207L139.64253298441568,63.322132669519306L140.63997964859007,66.39234902925637L141.6374263127645,62.78845032489477L142.63487297693888,64.0774495921346L143.63231964111327,63.97556141268382L144.6297663052877,64.42339304194775L145.62721296946208,63.87571628971449L146.62465963363647,65.6307123930689L147.6221062978109,65.80614002006718L148.61955296198528,68.81231238129232L149.61699962615967,64.77252281300918L150.61444629033406,63.40222471790628L151.61189295450848,66.48318564929451L152.60933961868287,64.91832082813391L153.60678628285726,70.3588002799047L154.60423294703168,67.40057093839204L155.60167961120607,70.39918504921428L156.59912627538046,64.87600944597654L157.59657293955485,67.37702815282336L158.59401960372927,57.30876112593586L159.59146626790366,70.73360057929528L160.58891293207802,71.92543292713992L161.58635959625246,63.524289403334535L162.58380626042683,63.63337591650236L163.58125292460122,70.14843426991658L164.57869958877563,63.860155185943825L165.57614625295002,65.8717189573864L166.57359291712442,72.64118018588124L167.57103958129883,64.04550169337278L168.56848624547322,63.455439458488L169.56593290964761,66.4108106380836L170.563379573822,62.58844250540977L171.56082623799642,65.4784993923081L172.5582729021708,63.93322885895668L173.5557195663452,66.66559989431227L174.55316623051962,70.16925121587917L175.550612894694,68.74257323051603L176.5480595588684,64.83408973785964L177.54550622304282,70.31484280819879L178.5429528872172,64.5514281100472L179.5403995513916,67.91782943777835L180.53784621556602,67.11305572821303L181.5352928797404,62.64368971668807L182.5327395439148,67.46963259893613L183.5301862080892,64.52807586860632L184.5276328722636,70.07661501241176L185.525079536438,65.82704694520123L186.52252620061236,68.83485481019002L187.5199728647868,68.4639977156665L188.51741952896117,61.82945231544181L189.51486619313556,68.99186846439301L190.51231285730998,69.08083140050775L191.50975952148437,70.20275522501805L192.50720618565876,65.6219579489748L193.50465284983315,67.85513512683838L194.50209951400757,60.581261248906685L195.49954617818196,63.38068264567954L196.49699284235635,66.52602632069579L197.49443950653077,69.07052084603657L198.49188617070516,67.96199862518182L199.48933283487955,67.80678984730054L200.48677949905397,68.33228938021438L201.48422616322836,70.8951502423185L202.48167282740275,68.25492846432593L203.47911949157717,75.42116608161808L204.47656615575156,65.22811382258868L205.47401281992595,66.79336502489733L206.47145948410034,68.22908327054628L207.46890614827475,62.30720995855586L208.46635281244914,67.20807902617042L209.46379947662354,65.73843333998747L210.46124614079795,68.70445381917034L211.45869280497234,67.8869348246119" fill="none"></path></g><g><path style="fill: none;" stroke="rgb(204, 51, 17)" stroke-width="2px" d="M27.92850659688314,-23.098648378337884L28.925953261057536,8.41879002719702L29.923399925231934,16.620762008522775L30.92084658940633,20.623480158163147L31.91829325358073,21.422294070842156L32.915739917755126,27.309419543970535L33.91318658192952,22.6732691988002L34.91063324610392,14.546202231271195L35.90807991027832,48.24291499807089L36.90552657445272,63.02811249453276L37.90297323862712,67.74717070686762L38.90041990280152,76.28553246715413L39.897866566975914,75.82477559455415L40.895313231150304,80.52982881349541L41.89275989532471,91.20549759089786L42.890206559499106,88.43658971903585L43.8876532236735,98.68719159755452L44.8850998878479,104.26693763518031L45.8825465520223,102.92346391895828L46.8799932161967,104.28418187874658L47.87743988037109,112.67568439897433L48.87488654454549,107.20264571936502L49.87233320871989,103.0678487318018L50.86977987289429,116.66518090330207L51.86722653706869,121.26293660671989L52.864673201243086,116.5822942077073L53.862119865417476,123.38999658407393L54.85956652959187,122.63879488532996L55.85701319376628,125.6063714748899L56.854459857940675,127.36532666178869L57.85190652211507,125.65031306791849L58.84935318628946,128.10419327470356L59.84679985046387,128.0618739532075L60.844246514638265,129.79868367814151L61.84169317881266,128.16570727062964L62.83913984298706,130.15092302351087L63.83658650716146,132.5350402615037L64.83403317133586,133.61893200739354L65.83147983551025,138.28883777409362L66.82892649968466,133.19567263127766L67.82637316385905,134.35552267655964L68.82381982803345,135.83027865039247L69.82126649220784,136.99716427294896L70.81871315638224,138.39683130497278L71.81615982055663,137.85013770751007L72.81360648473104,138.06843379359492L73.81105314890544,138.39037794586653L74.80849981307983,139.4820039308329L75.80594647725424,139.5413663659825L76.80339314142863,138.99803507844166L77.80083980560303,140.27885550364013L78.79828646977742,140.17626072304873L79.79573313395183,139.84572620634862L80.79317979812623,137.41639840436497L81.79062646230061,142.6467645817616L82.78807312647501,143.14679206981276L83.78551979064942,141.17969521097334L84.78296645482381,142.27777984793838L85.78041311899821,142.7847264696304L86.7778597831726,142.14441616037595L87.775306447347,141.87708539551306L88.77275311152141,141.33933149337983L89.7701997756958,143.07931563055413L90.7676464398702,143.93976527568532L91.7650931040446,143.02303630525023L92.762539768219,144.03127806273255L93.7599864323934,143.12821269412873L94.75743309656778,146.68831602161538L95.75487976074218,145.3679146851465L96.75232642491657,143.7211899895243L97.74977308909098,143.93824092266289L98.74721975326538,146.095166045604L99.74466641743977,146.99727737034567L100.74211308161418,147.50659520785035L101.73955974578858,146.25602167810612L102.73700640996297,146.74102132129985L103.73445307413738,145.4483335696416L104.73189973831177,146.68120502062357L105.72934640248617,146.1428358197443L106.72679306666058,147.27124873038483L107.72423973083495,147.77862738442218L108.72168639500936,146.5992333338092L109.71913305918375,148.1950933330926L110.71657972335815,148.59518704222606L111.71402638753256,148.64165334494805L112.71147305170695,147.34944526166709L113.70891971588135,147.69597754576407L114.70636638005575,148.3468723166734L115.70381304423015,149.13129683964544L116.70125970840455,146.37098727155058L117.69870637257893,147.6365939390447L118.69615303675333,148.25914725577783L119.69359970092773,148.91104966108526L120.69104636510212,148.32095699206894L121.68849302927653,148.2292099945313L122.68593969345092,148.568673620776L123.68338635762532,149.48930014488084L124.68083302179973,149.51757146823223L125.67827968597412,149.83967043760765L126.67572635014852,148.06607907989192L127.67317301432293,147.72534515946188L128.6706196784973,149.08938440925564L129.66806634267172,148.97532125397206L130.6655130068461,149.2335383196665L131.6629596710205,149.8429454148043L132.66040633519492,149.77680410766342L133.6578529993693,149.14544672596955L134.6552996635437,150.75131790049554L135.6527463277181,150.5831577456218L136.6501929918925,150.01174501724583L137.6476396560669,150.22383783339217L138.6450863202413,151.437540081989L139.64253298441568,151.03337779259883L140.63997964859007,150.79445133500985L141.6374263127645,150.05437066489176L142.63487297693888,150.87175005941214L143.63231964111327,151.62164309050056L144.6297663052877,151.01420892101942L145.62721296946208,151.36173560728338L146.62465963363647,150.77610749303938L147.6221062978109,150.29007242776228L148.61955296198528,150.89990063865474L149.61699962615967,150.05819477967896L150.61444629033406,150.88804224395093L151.61189295450848,151.85086866866618L152.60933961868287,151.57864297071455L153.60678628285726,150.31279349177981L154.60423294703168,152.54723070884964L155.60167961120607,150.02312076632035L156.59912627538046,151.17907788921343L157.59657293955485,151.28985945118484L158.59401960372927,150.1288419923143L159.59146626790366,151.42304648846212L160.58891293207802,150.9494126701696L161.58635959625246,151.2539782717293L162.58380626042683,151.75650268178856L163.58125292460122,151.7450687108972L164.57869958877563,151.78148645732375L165.57614625295002,150.94982816222608L166.57359291712442,152.66873583630536L167.57103958129883,151.55481767701195L168.56848624547322,152.2550349277257L169.56593290964761,152.20600884989787L170.563379573822,151.7687610206773L171.56082623799642,151.76018322686832L172.5582729021708,152.7146002379153L173.5557195663452,152.05284312849804L174.55316623051962,151.32488086642485L175.550612894694,151.87018739526275L176.5480595588684,152.47507303703452L177.54550622304282,151.385253251613L178.5429528872172,152.43973338663665L179.5403995513916,152.610221752572L180.53784621556602,152.36806729220677L181.5352928797404,152.96485447774108L182.5327395439148,152.4940368090319L183.5301862080892,152.1934461696939L184.5276328722636,152.7225402381854L185.525079536438,152.28434729685864L186.52252620061236,152.89245631012577L187.5199728647868,152.72059046893315L188.51741952896117,153.03543652163827L189.51486619313556,152.3903632708003L190.51231285730998,153.38538090192665L191.50975952148437,152.91809673512918L192.50720618565876,152.91932997906747L193.50465284983315,152.9811906594483L194.50209951400757,152.91619294788L195.49954617818196,153.4165497530826L196.49699284235635,153.24392719367412L197.49443950653077,153.47741123461267L198.49188617070516,153.17660441369912L199.48933283487955,152.44089749216744L200.48677949905397,152.95292479439226L201.48422616322836,152.0743613827088L202.48167282740275,152.02172489062605L203.47911949157717,153.05843711653773L204.47656615575156,153.0156382920673L205.47401281992595,151.91847776104154L206.47145948410034,152.15095383677627L207.46890614827475,153.40655263708555L208.46635281244914,151.96515214059755L209.46379947662354,153.0430443929078L210.46124614079795,152.83395248137148L211.45869280497234,152.64045640821246L212.4561394691467,152.93498718191648L213.45358613332115,151.98730851915298L214.45103279749551,151.40803816114556L215.4484794616699,152.60105677850808L216.44592612584432,152.54768887485142L217.4433727900187,152.66975322947388L218.4408194541931,151.97200345905406L219.4382661183675,153.4480201337047L220.4357127825419,152.69458351112834L221.4331594467163,153.06743619150427L222.4306061108907,152.69258809067884L223.4280527750651,153.5055720688344L224.4254994392395,153.6015996931321L225.4229461034139,153.67898095357586L226.4203927675883,153.34659607475965L227.4178394317627,153.6021346060742L228.4152860959371,152.39730787648605L229.4127327601115,152.77171517861302L230.4101794242859,153.14808250497134L231.4076260884603,153.6949893067576L232.40507275263468,153.445003846626L233.4025194168091,152.67049258038645L234.3999660809835,154.06797736939794L235.39741274515785,154.05925046488483L236.3948594093323,153.781252040714L237.39230607350666,153.3671626007487L238.38975273768105,153.33553359875637L239.38719940185547,153.58272771973793L240.38464606602986,153.8663096492232L241.38209273020425,152.659696403034L242.37953939437867,153.2189659129318L243.37698605855306,153.61503967025783L244.37443272272745,153.77313638257613L245.37187938690184,153.33276905487432L246.36932605107626,153.42989098468377L247.36677271525065,153.73305115789802L248.36421937942504,153.60170753581554L249.36166604359946,153.85293136737496L250.35911270777385,153.4361102987025L251.35655937194824,153.1545811844691L252.35400603612266,153.9194691452401L253.35145270029705,154.21881843589827L254.34889936447144,154.0866442432101L255.34634602864585,153.5348573118936L256.3437926928202,153.66879395506254L257.3412393569946,153.8661440809316L258.338686021169,152.93552821476547L259.33613268534344,154.175655228864L260.33357934951783,154.1919539468169L261.3310260136922,153.9751300291431L262.3284726778666,154.48959603155916L263.325919342041,154.51048186782492L264.3233660062154,154.26909355364026L265.32081267038984,154.17568632460708L266.31825933456423,153.9151569265283L267.3157059987386,154.03363584273205L268.313152662913,154.50959621805728L269.3105993270874,154.21298996890562L270.3080459912618,154.20493675035823L271.3054926554362,153.92860285815806L272.30293931961063,153.94385730497302L273.300385983785,154.12687708996637L274.29783264795935,153.66718508116398" fill="none"></path></g></g></g></g></g></g><g transform="translate(30, 177)" clip-path="url(#clip_1)"><clipPath id="clip_1"><rect width="299" height="22"></rect></clipPath><g><g><line x1="0" y1="0" x2="0" y2="5" style="visibility: inherit;" fill="rgb(0, 0, 0)" stroke="rgb(204, 204, 204)" stroke-width="1px"></line><line x1="24.936166604359943" y1="0" x2="24.936166604359943" y2="5" style="visibility: inherit;" fill="rgb(0, 0, 0)" stroke="rgb(204, 204, 204)" stroke-width="1px"></line><line x1="49.87233320871989" y1="0" x2="49.87233320871989" y2="5" style="visibility: inherit;" fill="rgb(0, 0, 0)" stroke="rgb(204, 204, 204)" stroke-width="1px"></line><line x1="74.80849981307983" y1="0" x2="74.80849981307983" y2="5" style="visibility: inherit;" fill="rgb(0, 0, 0)" stroke="rgb(204, 204, 204)" stroke-width="1px"></line><line x1="99.74466641743977" y1="0" x2="99.74466641743977" y2="5" style="visibility: inherit;" fill="rgb(0, 0, 0)" stroke="rgb(204, 204, 204)" stroke-width="1px"></line><line x1="124.68083302179973" y1="0" x2="124.68083302179973" y2="5" style="visibility: inherit;" fill="rgb(0, 0, 0)" stroke="rgb(204, 204, 204)" stroke-width="1px"></line><line x1="149.61699962615967" y1="0" x2="149.61699962615967" y2="5" style="visibility: inherit;" fill="rgb(0, 0, 0)" stroke="rgb(204, 204, 204)" stroke-width="1px"></line><line x1="174.55316623051962" y1="0" x2="174.55316623051962" y2="5" style="visibility: inherit;" fill="rgb(0, 0, 0)" stroke="rgb(204, 204, 204)" stroke-width="1px"></line><line x1="199.48933283487955" y1="0" x2="199.48933283487955" y2="5" style="visibility: inherit;" fill="rgb(0, 0, 0)" stroke="rgb(204, 204, 204)" stroke-width="1px"></line><line x1="224.4254994392395" y1="0" x2="224.4254994392395" y2="5" style="visibility: inherit;" fill="rgb(0, 0, 0)" stroke="rgb(204, 204, 204)" stroke-width="1px"></line><line x1="249.36166604359946" y1="0" x2="249.36166604359946" y2="5" style="visibility: inherit;" fill="rgb(0, 0, 0)" stroke="rgb(204, 204, 204)" stroke-width="1px"></line><line x1="274.29783264795935" y1="0" x2="274.29783264795935" y2="5" style="visibility: inherit;" fill="rgb(0, 0, 0)" stroke="rgb(204, 204, 204)" stroke-width="1px"></line><line x1="299.23399925231934" y1="0" x2="299.23399925231934" y2="5" style="visibility: inherit;" fill="rgb(0, 0, 0)" stroke="rgb(204, 204, 204)" stroke-width="1px"></line></g><g transform="translate(0, 8)"><text style="text-anchor: middle; visibility: hidden; font-family: Roboto, sans-serif; font-size: 12px; font-weight: 200;" x="0" y="0" dx="0em" dy="0.95em" fill="rgb(50, 49, 63)" stroke="none" stroke-width="1px">-500</text><text style="text-anchor: middle; visibility: inherit; font-family: Roboto, sans-serif; font-size: 12px; font-weight: 200;" x="24.936166604359943" y="0" dx="0em" dy="0.95em" fill="rgb(50, 49, 63)" stroke="none" stroke-width="1px">0</text><text style="text-anchor: middle; visibility: inherit; font-family: Roboto, sans-serif; font-size: 12px; font-weight: 200;" x="49.87233320871989" y="0" dx="0em" dy="0.95em" fill="rgb(50, 49, 63)" stroke="none" stroke-width="1px">500</text><text style="text-anchor: middle; visibility: inherit; font-family: Roboto, sans-serif; font-size: 12px; font-weight: 200;" x="74.80849981307983" y="0" dx="0em" dy="0.95em" fill="rgb(50, 49, 63)" stroke="none" stroke-width="1px">1k</text><text style="text-anchor: middle; visibility: inherit; font-family: Roboto, sans-serif; font-size: 12px; font-weight: 200;" x="99.74466641743977" y="0" dx="0em" dy="0.95em" fill="rgb(50, 49, 63)" stroke="none" stroke-width="1px">1.5k</text><text style="text-anchor: middle; visibility: inherit; font-family: Roboto, sans-serif; font-size: 12px; font-weight: 200;" x="124.68083302179973" y="0" dx="0em" dy="0.95em" fill="rgb(50, 49, 63)" stroke="none" stroke-width="1px">2k</text><text style="text-anchor: middle; visibility: inherit; font-family: Roboto, sans-serif; font-size: 12px; font-weight: 200;" x="149.61699962615967" y="0" dx="0em" dy="0.95em" fill="rgb(50, 49, 63)" stroke="none" stroke-width="1px">2.5k</text><text style="text-anchor: middle; visibility: inherit; font-family: Roboto, sans-serif; font-size: 12px; font-weight: 200;" x="174.55316623051962" y="0" dx="0em" dy="0.95em" fill="rgb(50, 49, 63)" stroke="none" stroke-width="1px">3k</text><text style="text-anchor: middle; visibility: inherit; font-family: Roboto, sans-serif; font-size: 12px; font-weight: 200;" x="199.48933283487955" y="0" dx="0em" dy="0.95em" fill="rgb(50, 49, 63)" stroke="none" stroke-width="1px">3.5k</text><text style="text-anchor: middle; visibility: inherit; font-family: Roboto, sans-serif; font-size: 12px; font-weight: 200;" x="224.4254994392395" y="0" dx="0em" dy="0.95em" fill="rgb(50, 49, 63)" stroke="none" stroke-width="1px">4k</text><text style="text-anchor: middle; visibility: inherit; font-family: Roboto, sans-serif; font-size: 12px; font-weight: 200;" x="249.36166604359946" y="0" dx="0em" dy="0.95em" fill="rgb(50, 49, 63)" stroke="none" stroke-width="1px">4.5k</text><text style="text-anchor: middle; visibility: inherit; font-family: Roboto, sans-serif; font-size: 12px; font-weight: 200;" x="274.29783264795935" y="0" dx="0em" dy="0.95em" fill="rgb(50, 49, 63)" stroke="none" stroke-width="1px">5k</text><text style="text-anchor: middle; visibility: hidden; font-family: Roboto, sans-serif; font-size: 12px; font-weight: 200;" x="299.23399925231934" y="0" dx="0em" dy="0.95em" fill="rgb(50, 49, 63)" stroke="none" stroke-width="1px">5.5k</text></g><line x1="0" y1="0" x2="299.23399925231934" y2="0" fill="rgb(0, 0, 0)" stroke="rgb(204, 204, 204)" stroke-width="1px"></line></g></g></g></g></svg>