<svg viewBox="0 0 330 200" xmlns="http://www.w3.org/2000/svg"><g><g><g><g><g><line x1="41.0620002746582" y1="177.95999908447266" x2="36.0620002746582" y2="177.95999908447266" style="visibility: inherit;" fill="rgb(0, 0, 0)" stroke="rgb(204, 204, 204)" stroke-width="1px"></line><line x1="41.0620002746582" y1="166.09599914550782" x2="36.0620002746582" y2="166.09599914550782" style="visibility: inherit;" fill="rgb(0, 0, 0)" stroke="rgb(204, 204, 204)" stroke-width="1px"></line><line x1="41.0620002746582" y1="154.23199920654298" x2="36.0620002746582" y2="154.23199920654298" style="visibility: inherit;" fill="rgb(0, 0, 0)" stroke="rgb(204, 204, 204)" stroke-width="1px"></line><line x1="41.0620002746582" y1="142.3679992675781" x2="36.0620002746582" y2="142.3679992675781" style="visibility: inherit;" fill="rgb(0, 0, 0)" stroke="rgb(204, 204, 204)" stroke-width="1px"></line><line x1="41.0620002746582" y1="130.5039993286133" x2="36.0620002746582" y2="130.5039993286133" style="visibility: inherit;" fill="rgb(0, 0, 0)" stroke="rgb(204, 204, 204)" stroke-width="1px"></line><line x1="41.0620002746582" y1="118.63999938964845" x2="36.0620002746582" y2="118.63999938964845" style="visibility: inherit;" fill="rgb(0, 0, 0)" stroke="rgb(204, 204, 204)" stroke-width="1px"></line><line x1="41.0620002746582" y1="106.77599945068361" x2="36.0620002746582" y2="106.77599945068361" style="visibility: inherit;" fill="rgb(0, 0, 0)" stroke="rgb(204, 204, 204)" stroke-width="1px"></line><line x1="41.0620002746582" y1="94.91199951171873" x2="36.0620002746582" y2="94.91199951171873" style="visibility: inherit;" fill="rgb(0, 0, 0)" stroke="rgb(204, 204, 204)" stroke-width="1px"></line><line x1="41.0620002746582" y1="83.04799957275391" x2="36.0620002746582" y2="83.04799957275391" style="visibility: inherit;" fill="rgb(0, 0, 0)" stroke="rgb(204, 204, 204)" stroke-width="1px"></line><line x1="41.0620002746582" y1="71.18399963378907" x2="36.0620002746582" y2="71.18399963378907" style="visibility: inherit;" fill="rgb(0, 0, 0)" stroke="rgb(204, 204, 204)" stroke-width="1px"></line><line x1="41.0620002746582" y1="59.319999694824226" x2="36.0620002746582" y2="59.319999694824226" style="visibility: inherit;" fill="rgb(0, 0, 0)" stroke="rgb(204, 204, 204)" stroke-width="1px"></line><line x1="41.0620002746582" y1="47.45599975585938" x2="36.0620002746582" y2="47.45599975585938" style="visibility: inherit;" fill="rgb(0, 0, 0)" stroke="rgb(204, 204, 204)" stroke-width="1px"></line><line x1="41.0620002746582" y1="35.59199981689454" x2="36.0620002746582" y2="35.59199981689454" style="visibility: inherit;" fill="rgb(0, 0, 0)" stroke="rgb(204, 204, 204)" stroke-width="1px"></line><line x1="41.0620002746582" y1="23.7279998779297" x2="36.0620002746582" y2="23.7279998779297" style="visibility: inherit;" fill="rgb(0, 0, 0)" stroke="rgb(204, 204, 204)" stroke-width="1px"></line><line x1="41.0620002746582" y1="11.863999938964861" x2="36.0620002746582" y2="11.863999938964861" style="visibility: inherit;" fill="rgb(0, 0, 0)" stroke="rgb(204, 204, 204)" stroke-width="1px"></line><line x1="41.0620002746582" y1="0" x2="36.0620002746582" y2="0" style="visibility: inherit;" fill="rgb(0, 0, 0)" stroke="rgb(204, 204, 204)" stroke-width="1px"></line></g><g transform="translate(31.062000274658203, 0)"><text style="text-anchor: end; visibility: hidden; font-family: Roboto, sans-serif; font-size: 12px; font-weight: 200;" x="0" y="177.95999908447266" dx="0em" dy="0.3em" fill="rgb(50, 49, 63)" stroke="none" stroke-width="1px">0.2</text><text style="text-anchor: end; visibility: inherit; font-family: Roboto, sans-serif; font-size: 12px; font-weight: 200;" x="0" y="166.09599914550782" dx="0em" dy="0.3em" fill="rgb(50, 49, 63)" stroke="none" stroke-width="1px">0.4</text><text style="text-anchor: end; visibility: hidden; font-family: Roboto, sans-serif; font-size: 12px; font-weight: 200;" x="0" y="154.23199920654298" dx="0em" dy="0.3em" fill="rgb(50, 49, 63)" stroke="none" stroke-width="1px">0.6</text><text style="text-anchor: end; visibility: hidden; font-family: Roboto, sans-serif; font-size: 12px; font-weight: 200;" x="0" y="142.3679992675781" dx="0em" dy="0.3em" fill="rgb(50, 49, 63)" stroke="none" stroke-width="1px">0.8</text><text style="text-anchor: end; visibility: inherit; font-family: Roboto, sans-serif; font-size: 12px; font-weight: 200;" x="0" y="130.5039993286133" dx="0em" dy="0.3em" fill="rgb(50, 49, 63)" stroke="none" stroke-width="1px">1</text><text style="text-anchor: end; visibility: hidden; font-family: Roboto, sans-serif; font-size: 12px; font-weight: 200;" x="0" y="118.63999938964845" dx="0em" dy="0.3em" fill="rgb(50, 49, 63)" stroke="none" stroke-width="1px">1.2</text><text style="text-anchor: end; visibility: hidden; font-family: Roboto, sans-serif; font-size: 12px; font-weight: 200;" x="0" y="106.77599945068361" dx="0em" dy="0.3em" fill="rgb(50, 49, 63)" stroke="none" stroke-width="1px">1.4</text><text style="text-anchor: end; visibility: inherit; font-family: Roboto, sans-serif; font-size: 12px; font-weight: 200;" x="0" y="94.91199951171873" dx="0em" dy="0.3em" fill="rgb(50, 49, 63)" stroke="none" stroke-width="1px">1.6</text><text style="text-anchor: end; visibility: hidden; font-family: Roboto, sans-serif; font-size: 12px; font-weight: 200;" x="0" y="83.04799957275391" dx="0em" dy="0.3em" fill="rgb(50, 49, 63)" stroke="none" stroke-width="1px">1.8</text><text style="text-anchor: end; visibility: hidden; font-family: Roboto, sans-serif; font-size: 12px; font-weight: 200;" x="0" y="71.18399963378907" dx="0em" dy="0.3em" fill="rgb(50, 49, 63)" stroke="none" stroke-width="1px">2</text><text style="text-anchor: end; visibility: inherit; font-family: Roboto, sans-serif; font-size: 12px; font-weight: 200;" x="0" y="59.319999694824226" dx="0em" dy="0.3em" fill="rgb(50, 49, 63)" stroke="none" stroke-width="1px">2.2</text><text style="text-anchor: end; visibility: hidden; font-family: Roboto, sans-serif; font-size: 12px; font-weight: 200;" x="0" y="47.45599975585938" dx="0em" dy="0.3em" fill="rgb(50, 49, 63)" stroke="none" stroke-width="1px">2.4</text><text style="text-anchor: end; visibility: hidden; font-family: Roboto, sans-serif; font-size: 12px; font-weight: 200;" x="0" y="35.59199981689454" dx="0em" dy="0.3em" fill="rgb(50, 49, 63)" stroke="none" stroke-width="1px">2.6</text><text style="text-anchor: end; visibility: inherit; font-family: Roboto, sans-serif; font-size: 12px; font-weight: 200;" x="0" y="23.7279998779297" dx="0em" dy="0.3em" fill="rgb(50, 49, 63)" stroke="none" stroke-width="1px">2.8</text><text style="text-anchor: end; visibility: hidden; font-family: Roboto, sans-serif; font-size: 12px; font-weight: 200;" x="0" y="11.863999938964861" dx="0em" dy="0.3em" fill="rgb(50, 49, 63)" stroke="none" stroke-width="1px">3</text><text style="text-anchor: end; visibility: hidden; font-family: Roboto, sans-serif; font-size: 12px; font-weight: 200;" x="0" y="0" dx="0em" dy="0.3em" fill="rgb(50, 49, 63)" stroke="none" stroke-width="1px">3.2</text></g><line x1="41.0620002746582" y1="0" x2="41.0620002746582" y2="177.95999908447266" fill="rgb(0, 0, 0)" stroke="rgb(204, 204, 204)" stroke-width="1px"></line></g></g><g transform="translate(41, 0)" clip-path="url(#clip_0)"><clipPath id="clip_0"><rect width="288" height="177"></rect></clipPath><g><g><g><line x1="0" y1="0" x2="0" y2="177.95999908447266" fill="rgb(0, 0, 0)" stroke="rgb(60, 60, 60)" stroke-width="1px" opacity="0.25"></line><line x1="20.638428551810126" y1="0" x2="20.638428551810126" y2="177.95999908447266" fill="rgb(0, 0, 0)" stroke="rgb(60, 60, 60)" stroke-width="1px" opacity="0.25"></line><line x1="41.27685710362025" y1="0" x2="41.27685710362025" y2="177.95999908447266" fill="rgb(0, 0, 0)" stroke="rgb(60, 60, 60)" stroke-width="1px" opacity="0.25"></line><line x1="61.91528565543038" y1="0" x2="61.91528565543038" y2="177.95999908447266" fill="rgb(0, 0, 0)" stroke="rgb(60, 60, 60)" stroke-width="1px" opacity="0.25"></line><line x1="82.5537142072405" y1="0" x2="82.5537142072405" y2="177.95999908447266" fill="rgb(0, 0, 0)" stroke="rgb(60, 60, 60)" stroke-width="1px" opacity="0.25"></line><line x1="103.19214275905064" y1="0" x2="103.19214275905064" y2="177.95999908447266" fill="rgb(0, 0, 0)" stroke="rgb(60, 60, 60)" stroke-width="1px" opacity="0.25"></line><line x1="123.83057131086076" y1="0" x2="123.83057131086076" y2="177.95999908447266" fill="rgb(0, 0, 0)" stroke="rgb(60, 60, 60)" stroke-width="1px" opacity="0.25"></line><line x1="144.4689998626709" y1="0" x2="144.4689998626709" y2="177.95999908447266" fill="rgb(0, 0, 0)" stroke="rgb(60, 60, 60)" stroke-width="1px" opacity="0.25"></line><line x1="165.107428414481" y1="0" x2="165.107428414481" y2="177.95999908447266" fill="rgb(0, 0, 0)" stroke="rgb(60, 60, 60)" stroke-width="1px" opacity="0.25"></line><line x1="185.74585696629117" y1="0" x2="185.74585696629117" y2="177.95999908447266" fill="rgb(0, 0, 0)" stroke="rgb(60, 60, 60)" stroke-width="1px" opacity="0.25"></line><line x1="206.38428551810128" y1="0" x2="206.38428551810128" y2="177.95999908447266" fill="rgb(0, 0, 0)" stroke="rgb(60, 60, 60)" stroke-width="1px" opacity="0.25"></line><line x1="227.02271406991142" y1="0" x2="227.02271406991142" y2="177.95999908447266" fill="rgb(0, 0, 0)" stroke="rgb(60, 60, 60)" stroke-width="1px" opacity="0.25"></line><line x1="247.66114262172152" y1="0" x2="247.66114262172152" y2="177.95999908447266" fill="rgb(0, 0, 0)" stroke="rgb(60, 60, 60)" stroke-width="1px" opacity="0.25"></line><line x1="268.29957117353166" y1="0" x2="268.29957117353166" y2="177.95999908447266" fill="rgb(0, 0, 0)" stroke="rgb(60, 60, 60)" stroke-width="1px" opacity="0.25"></line><line x1="288.9379997253418" y1="0" x2="288.9379997253418" y2="177.95999908447266" fill="rgb(0, 0, 0)" stroke="rgb(60, 60, 60)" stroke-width="1px" opacity="0.25"></line></g><g><line x1="0" y1="177.95999908447266" x2="288.9379997253418" y2="177.95999908447266" fill="rgb(0, 0, 0)" stroke="rgb(60, 60, 60)" stroke-width="1px" opacity="0.25"></line><line x1="0" y1="166.09599914550782" x2="288.9379997253418" y2="166.09599914550782" fill="rgb(0, 0, 0)" stroke="rgb(60, 60, 60)" stroke-width="1px" opacity="0.25"></line><line x1="0" y1="154.23199920654298" x2="288.9379997253418" y2="154.23199920654298" fill="rgb(0, 0, 0)" stroke="rgb(60, 60, 60)" stroke-width="1px" opacity="0.25"></line><line x1="0" y1="142.3679992675781" x2="288.9379997253418" y2="142.3679992675781" fill="rgb(0, 0, 0)" stroke="rgb(60, 60, 60)" stroke-width="1px" opacity="0.25"></line><line x1="0" y1="130.5039993286133" x2="288.9379997253418" y2="130.5039993286133" fill="rgb(0, 0, 0)" stroke="rgb(60, 60, 60)" stroke-width="1px" opacity="0.25"></line><line x1="0" y1="118.63999938964845" x2="288.9379997253418" y2="118.63999938964845" fill="rgb(0, 0, 0)" stroke="rgb(60, 60, 60)" stroke-width="1px" opacity="0.25"></line><line x1="0" y1="106.77599945068361" x2="288.9379997253418" y2="106.77599945068361" fill="rgb(0, 0, 0)" stroke="rgb(60, 60, 60)" stroke-width="1px" opacity="0.25"></line><line x1="0" y1="94.91199951171873" x2="288.9379997253418" y2="94.91199951171873" fill="rgb(0, 0, 0)" stroke="rgb(60, 60, 60)" stroke-width="1px" opacity="0.25"></line><line x1="0" y1="83.04799957275391" x2="288.9379997253418" y2="83.04799957275391" fill="rgb(0, 0, 0)" stroke="rgb(60, 60, 60)" stroke-width="1px" opacity="0.25"></line><line x1="0" y1="71.18399963378907" x2="288.9379997253418" y2="71.18399963378907" fill="rgb(0, 0, 0)" stroke="rgb(60, 60, 60)" stroke-width="1px" opacity="0.25"></line><line x1="0" y1="59.319999694824226" x2="288.9379997253418" y2="59.319999694824226" fill="rgb(0, 0, 0)" stroke="rgb(60, 60, 60)" stroke-width="1px" opacity="0.25"></line><line x1="0" y1="47.45599975585938" x2="288.9379997253418" y2="47.45599975585938" fill="rgb(0, 0, 0)" stroke="rgb(60, 60, 60)" stroke-width="1px" opacity="0.25"></line><line x1="0" y1="35.59199981689454" x2="288.9379997253418" y2="35.59199981689454" fill="rgb(0, 0, 0)" stroke="rgb(60, 60, 60)" stroke-width="1px" opacity="0.25"></line><line x1="0" y1="23.7279998779297" x2="288.9379997253418" y2="23.7279998779297" fill="rgb(0, 0, 0)" stroke="rgb(60, 60, 60)" stroke-width="1px" opacity="0.25"></line><line x1="0" y1="11.863999938964861" x2="288.9379997253418" y2="11.863999938964861" fill="rgb(0, 0, 0)" stroke="rgb(60, 60, 60)" stroke-width="1px" opacity="0.25"></line><line x1="0" y1="0" x2="288.9379997253418" y2="0" fill="rgb(0, 0, 0)" stroke="rgb(60, 60, 60)" stroke-width="1px" opacity="0.25"></line></g></g></g><g><g><line x1="0" y1="189.8239990234375" x2="288.9379997253418" y2="189.8239990234375" fill="rgb(0, 0, 0)" stroke="rgb(153, 153, 153)" stroke-width="1.5px"></line></g></g><g><g><line x1="20.638428551810126" y1="0" x2="20.638428551810126" y2="177.95999908447266" fill="rgb(0, 0, 0)" stroke="rgb(153, 153, 153)" stroke-width="1.5px"></line></g></g><g><g><g><g><g><path style="fill: none;" stroke="rgb(255, 112, 67)" stroke-width="2px" d="M20.638428551810126,13.118440726502387L21.463965693882535,15.17534416164118L22.289502835954938,14.070457339905126L23.115039978027344,13.929653517250042L23.940577120099746,14.739103278088349L24.766114262172156,17.121642948924073L25.59165140424456,20.532373984927958L26.417188546316964,23.450608180364345L27.24272568838937,24.92689545491123L28.068262830461773,26.16393069453641L28.893799972534183,26.368094466805353L29.719337114606585,27.782414986193054L30.54487425667899,30.549937976333318L31.370411398751394,32.26056900733255L32.1959485408238,35.86412028195335L33.021485682896206,37.856370246680896L33.84702282496861,39.062563606259594L34.67255996704102,42.976118829097985L35.498097109113424,47.34724730044989L36.32363425118583,51.77791077778643L37.14917139325823,57.12278730957208L37.974708535330635,59.99621563731979L38.80024567740304,64.92822636413622L39.62578281947545,69.60427882603503L40.45131996154785,73.93747067682501L41.27685710362025,74.7940336046291L42.102394245692665,79.89526242635073L42.92793138776507,83.13392661625964L43.75346852983748,87.15237080805261L44.579005671909876,90.87199701804157L45.40454281398228,89.67359035912763L46.23007995605469,92.34044926540467L47.055617098127094,95.72882119091422L47.88115424019949,97.60846068269551L48.7066913822719,97.94815732437446L49.53222852434431,99.56215871404272L50.35776566641672,103.91362500474128L51.18330280848912,105.02196198033889L52.00883995056152,106.49441575220023L52.83437709263393,107.6343004229772L53.659914234706335,108.39867372327963L54.48545137677874,107.08025928972478L55.31098851885114,107.36206391153154L56.136525660923546,112.86530266581238L56.96206280299596,111.06589486735864L57.787599945068365,112.10453066470109L58.613137087140764,112.71230476971544L59.43867422921317,111.54672599637648L60.264211371285576,114.15935019671902L61.08974851335798,116.94523016489833L61.91528565543038,117.51078198188975L62.74082279750279,120.49893953360693L63.56635993957519,119.16570714665724L64.3918970816476,123.2808668999472L65.21743422372,124.90201695549891L66.04297136579241,121.26006714097059L66.86850850786482,124.03630341569617L67.69404564993722,123.24931127591269L68.51958279200963,125.3661996350342L69.34511993408204,121.35245782837055L70.17065707615444,122.1727433960218L70.99619421822685,122.78813695163112L71.82173136029925,120.490191851007L72.64726850237166,123.5684155571167L73.47280564444405,125.45600804854823L74.29834278651646,124.6762474311901L75.12387992858886,124.96816380009162L75.94941707066127,125.85189156540379L76.77495421273369,123.1198750274915L77.60049135480608,124.03004371749844L78.42602849687849,125.75423620161067L79.2515656389509,124.56937995171045L80.0771027810233,126.3416131921694L80.9026399230957,128.26081052149183L81.72817706516811,128.39205644623055L82.5537142072405,126.10732367799723L83.37925134931292,130.05099538421715L84.20478849138533,131.81818479351517L85.03032563345772,132.07272562467398L85.85586277553014,132.36695922450892L86.68139991760253,134.33498486122403L87.50693705967495,133.05823085034055L88.33247420174735,132.3350854469924L89.15801134381975,132.9509460833797L89.98354848589216,132.92800439170773L90.80908562796456,129.57332852620107L91.63462277003696,131.40036884571663L92.46015991210938,129.0437786068326L93.28569705418178,132.20024908159849L94.11123419625419,131.75837696105503L94.9367713383266,134.3034785382776L95.76230848039899,133.26652570576394L96.5878456224714,134.85197150760143L97.4133827645438,136.19112746212653L98.23891990661622,134.75631041651204L99.06445704868862,134.44486120918964L99.88999419076102,135.58894604844767L100.71553133283344,136.14008672339716L101.54106847490583,135.89285744077293L102.36660561697823,138.72336876239055L103.19214275905064,139.22769463594364L104.01767990112305,136.35094882778375L104.84321704319545,134.4078418032559L105.66875418526786,137.30828239817095L106.49429132734025,137.89648565817973L107.31982846941267,141.43617118764948L108.14536561148508,141.90585940497724L108.97090275355748,139.04255986757585L109.79643989562989,139.88713295311118L110.62197703770228,139.98027071792188L111.4475141797747,140.77379516531082L112.27305132184709,138.30889485520683L113.0985884639195,137.6768312555164L113.92412560599192,139.0870419819506L114.74966274806431,142.08707367158465L115.57519989013673,143.1183165185895L116.40073703220912,142.83871364247054L117.22627417428153,142.12050957305806L118.05181131635393,138.40970894012375L118.87734845842634,140.91265291538105L119.70288560049875,139.36820734778496L120.52842274257115,142.42272523130606L121.35395988464354,144.7765061434457L122.17949702671596,144.35765065573148L123.00503416878837,145.6631043629218L123.83057131086076,142.82477829921166L124.65610845293318,142.96255787238655L125.48164559500557,143.82908528194426L126.307182737078,144.1467612130104L127.13271987915039,145.23392768203092L127.95825702122279,146.75249277486043L128.7837941632952,147.04675986260128L129.60933130536762,146.58180964434106L130.43486844744,145.44226119826268L131.26040558951243,145.87348485029017L132.08594273158482,144.33693192896988L132.91147987365724,145.3547395460814L133.73701701572963,145.50816993397777L134.56255415780203,144.6142425446137L135.38809129987445,144.56316887102614L136.21362844194684,144.80549427472985L137.03916558401926,143.8578287315598L137.86470272609165,144.06158233461431L138.69023986816407,146.24994572525108L139.51577701023646,147.7236040833993L140.34131415230888,149.15535485776223L141.16685129438127,147.48141136358652L141.9923884364537,146.82534043988795L142.8179255785261,147.44802729290058L143.6434627205985,147.2618131870758L144.4689998626709,146.46912945345596L145.29453700474332,147.21291932869957L146.1200741468157,147.67180880096103L146.9456112888881,148.7567240059556L147.77114843096052,150.3254202384124L148.59668557303291,150.03870539658007L149.42222271510533,147.87313294456956L150.24775985717773,148.83670465146457L151.07329699925015,147.5163195643741L151.89883414132254,145.88018053935718L152.72437128339496,147.6521358707475L153.54990842546738,149.13336312645956L154.37544556753974,148.50423843136772L155.20098270961216,151.32966433941223L156.02651985168458,151.43345022976004L156.85205699375697,150.3276819168818L157.67759413582937,148.71404960073008L158.5031312779018,148.6595215105837L159.32866841997418,152.2294895239403L160.1542055620466,150.28659011920456L160.97974270411902,150.58908235853443L161.8052798461914,149.98191649136118L162.6308169882638,149.237362883658L163.45635413033622,149.63432654694813L164.28189127240864,151.36391274487136L165.107428414481,151.59551261707222L165.93296555655343,152.5956321324056L166.75850269862585,151.39605078804362L167.58403984069824,154.55878186372024L168.40957698277066,156.22547821047144L169.23511412484305,154.16973613319598L170.06065126691544,155.95757723393552L170.88618840898786,154.3957073239257L171.71172555106028,155.24557621249943L172.53726269313267,151.84254234841265L173.36279983520507,152.4546371392932L174.1883369772775,152.25336420011885L175.0138741193499,149.4579828184618L175.83941126142227,151.35793621727265L176.6649484034947,153.48917769973986L177.4904855455671,152.21167472620368L178.3160226876395,151.84955497048867L179.14155982971192,152.03253680667382L179.96709697178431,150.30895030937262L180.7926341138567,150.55020618126304L181.61817125592913,151.73118688431572L182.44370839800155,151.38284703170802L183.2692455400739,151.44327980908776L184.09478268214633,153.48166640308176L184.92031982421875,152.7160482871207L185.74585696629117,150.70848248398818L186.57139410836356,153.25728748524836L187.39693125043596,153.47909065722064L188.22246839250838,153.15086358278913L189.04800553458077,153.24877332297964L189.8735426766532,155.1853574981926L190.6990798187256,154.5037338941905L191.52461696079797,153.94712105876647L192.3501541028704,155.33980878228394L193.1756912449428,155.25778886515366L194.0012283870152,152.59496649855754L194.8267655290876,154.2831408261685L195.65230267116002,151.41374515641476L196.47783981323244,153.2578879037978L197.30337695530483,152.77364074752978L198.12891409737725,154.09049418652742L198.95445123944964,152.93654902516323L199.77998838152203,154.33818313350673L200.60552552359445,155.98976482973237L201.43106266566687,154.596764374907L202.25659980773924,154.37099086278945L203.08213694981166,154.19836463489105L203.90767409188408,155.38081946824187L204.73321123395647,155.47831953204522L205.55874837602886,156.2351127319417L206.38428551810128,156.59456639131903L207.2098226601737,155.1524114375L208.0353598022461,153.11259405718852L208.8608969443185,155.07803981235426L209.6864340863909,155.95728353195085L210.5119712284633,158.33647669155314L211.33750837053572,158.61502739089394L212.16304551260814,155.890834227465L212.9885826546805,156.57008887109313L213.81411979675292,156.51971143997562L214.63965693882534,157.66421729127876L215.46519408089773,155.90157414355704L216.29073122297015,155.11077030463798L217.11626836504254,156.42611874826605L217.94180550711496,157.67876531205872L218.76734264918736,158.453130535793L219.59287979125978,158.32872383516562L220.4184169333322,156.82551619108077L221.24395407540456,155.06383075433192L222.06949121747698,157.2877980081945L222.8950283595494,155.59513015926515L223.7205655016218,157.81935327910338L224.54610264369418,159.23397183210525L225.3716397857666,158.54842796077529L226.197176927839,159.54307324939654L227.02271406991142,160.1407981028089L227.84825121198384,159.63298394456865L228.67378835405623,158.30616883077553L229.49932549612862,159.66167334455122L230.32486263820104,157.89449064061986L231.15039978027346,159.70004792637278L231.97593692234582,158.93429312972881L232.80147406441824,158.19298601754332L233.62701120649066,157.46207491874202L234.45254834856306,159.2110407933162L235.27808549063545,160.0794204529831L236.10362263270787,159.55714533094812L236.92915977478026,156.94290246576162L237.75469691685268,158.52154399108656L238.5802340589251,157.23620277087818L239.4057712009975,158.67627150302405L240.23130834306988,158.52762091211804L241.0568454851423,155.98510123307568L241.88238262721472,156.83993526434892L242.7079197692871,157.53543158461645L243.5334569113595,157.89699468162908L244.35899405343193,157.55116882317313L245.18453119550432,157.96431296860294L246.01006833757674,157.93116268648603L246.83560547964913,157.77233744026339L247.66114262172152,158.8443368040417L248.48667976379394,157.15653123296096L249.31221690586636,157.6964823084418L250.13775404793878,160.48174548877083L250.96329119001115,159.10583225757284L251.78882833208357,158.83826911918322L252.614365474156,159.50218552611273L253.43990261622838,158.86074274256305L254.26543975830077,159.87071107919635L255.0909769003732,160.18640791776417L255.91651404244558,158.24370167894173L256.742051184518,158.81728667837928L257.5675883265904,158.05969875396121L258.3931254686628,159.2213333574814L259.21866261073524,160.1811389606944L260.04419975280763,159.13932590741393L260.86973689488,160.44689039304058L261.6952740369524,159.87304439158336L262.52081117902486,160.87091149550838L263.34634832109725,161.58863511895316L264.17188546316964,160.0121802973985L264.99742260524204,160.17293273160493L265.8229597473145,159.64402501584925L266.6484968893868,160.6946915053994L267.47403403145927,160.6323026892384L268.29957117353166,160.4095728940902L269.12510831560405,158.32108951943633L269.9506454576765,159.40065658522835L270.7761825997489,159.71359265009542L271.6017197418213,161.9294590606864L272.4272568838937,162.77462746290422L273.2527940259661,162.48404265151953L274.0783311680385,160.81501319829292L274.9038683101109,162.11872328682932L275.7294054521833,161.8637618510091L276.55494259425575,160.98001952277167L277.38047973632814,159.5345769974732L278.20601687840053,158.91950503778233" fill="none"></path></g></g></g></g><g opacity="0.2"><g><g><g><path style="fill: none;" stroke="rgb(255, 112, 67)" stroke-width="2px" d="M20.638428551810126,13.118440726502387L21.463965693882535,16.409486222724457L22.289502835954938,13.009765991038515L23.115039978027344,13.764068221807614L23.940577120099746,15.79592088583887L24.766114262172156,20.417553027971387L25.59165140424456,25.409773938110096L26.417188546316964,27.705421652358933L27.24272568838937,27.10413243082768L28.068262830461773,28.0007838563448L28.893799972534183,26.672488374820755L29.719337114606585,29.89619909546455L30.54487425667899,34.692186018804584L31.370411398751394,34.82316424956081L32.1959485408238,41.26521135463336L33.021485682896206,40.84334010474377L33.84702282496861,40.871343225022066L34.67255996704102,48.84545801210844L35.498097109113424,53.90327411005055L36.32363425118583,58.423501013599534L37.14917139325823,65.13980898151894L37.974708535330635,64.30626357755828L38.80024567740304,72.32614508041262L39.62578281947545,76.61830212658388L40.45131996154785,80.43722765453695L41.27685710362025,76.07887434348558L42.102394245692665,87.5470926062868L42.92793138776507,87.99191792901057L43.75346852983748,93.180033394187L44.579005671909876,96.45143427724415L45.40454281398228,87.8759807681614L46.23007995605469,96.34073709420463L47.055617098127094,100.81137867467497L47.88115424019949,100.42791978573277L48.7066913822719,98.45770227229384L49.53222852434431,101.98316075692638L50.35776566641672,110.44082437346479L51.18330280848912,106.68446743344664L52.00883995056152,108.70309640179093L52.83437709263393,109.3441274253333L53.659914234706335,109.54523367220064L54.48545137677874,105.10263764097871L55.31098851885114,107.78477084403822L56.136525660923546,121.12016079485018L56.96206280299596,108.36678317014557L57.787599945068365,113.66248436055282L58.613137087140764,113.62396592718014L59.43867422921317,109.79835783643338L60.264211371285576,118.07828649714483L61.08974851335798,121.12405011711107L61.91528565543038,118.35910970737005L62.74082279750279,124.98117586116093L63.56635993957519,117.16585856623861L64.3918970816476,129.4536065298713L65.21743422372,127.33374203882394L66.04297136579241,115.79714241918155L66.86850850786482,128.20065782778295L67.69404564993722,122.06882306623775L68.51958279200963,128.54153217371606L69.34511993408204,115.33184511837554L70.17065707615444,123.40317174749872L70.99619421822685,123.71122728504507L71.82173136029925,117.04327420007084L72.64726850237166,128.18575111628124L73.47280564444405,128.28739678569545L74.29834278651646,123.50660650515292L75.12387992858886,125.40603835344389L75.94941707066127,127.17748321337204L76.77495421273369,119.02185022062314L77.60049135480608,125.39529675250888L78.42602849687849,128.34052492777903L79.2515656389509,122.79209557686006L80.0771027810233,128.99996305285785L80.9026399230957,131.13960651547552L81.72817706516811,128.58892533333858L82.5537142072405,122.68022452564729L83.37925134931292,135.96650294354694L84.20478849138533,134.4689689074622L85.03032563345772,132.45453687141216L85.85586277553014,132.80830962426134L86.68139991760253,137.28702331629674L87.50693705967495,131.14309983401526L88.33247420174735,131.25036734197022L89.15801134381975,133.87473703796067L89.98354848589216,132.8935918541998L90.80908562796456,124.54131472794104L91.63462277003696,134.14092932498997L92.46015991210938,125.5088932485065L93.28569705418178,136.93495479374732L94.11123419625419,131.09556878023986L94.9367713383266,138.12113090411148L95.76230848039899,131.71109645699343L96.5878456224714,137.2301402103577L97.4133827645438,138.19986139391412L98.23891990661622,132.60408484809034L99.06445704868862,133.97768739820603L99.88999419076102,137.3050733073347L100.71553133283344,136.96679773582136L101.54106847490583,135.5220135168366L102.36660561697823,142.96913574481695L103.19214275905064,139.98418344627325L104.01767990112305,132.03583011554392L104.84321704319545,131.49318126646412L105.66875418526786,141.65894329054353L106.49429132734025,138.77879054819286L107.31982846941267,146.74569948185407L108.14536561148508,142.61039173096887L108.97090275355748,134.7476105614738L109.79643989562989,141.15399258141414L110.62197703770228,140.11997736513794L111.4475141797747,141.96408183639423L112.27305132184709,134.61154439005085L113.0985884639195,136.72873585598072L113.92412560599192,141.20235807160188L114.74966274806431,146.58712120603568L115.57519989013673,144.66518078909675L116.40073703220912,142.4193093282921L117.22627417428153,141.04320346893937L118.05181131635393,132.84350799072226L118.87734845842634,144.66706887826703L119.70288560049875,137.0515389963908L120.52842274257115,147.0045020565877L121.35395988464354,148.3071775116551L122.17949702671596,143.72936742416013L123.00503416878837,147.6212849237073L123.83057131086076,138.56728920364648L124.65610845293318,143.16922723214893L125.48164559500557,145.1288763962808L126.307182737078,144.62327510960958L127.13271987915039,146.86467738556175L127.95825702122279,149.03034041410464L128.7837941632952,147.48816049421256L129.60933130536762,145.88438431695076L130.43486844744,143.73293852914512L131.26040558951243,146.5203203283314L132.08594273158482,142.03210254698942L132.91147987365724,146.88145097174865L133.73701701572963,145.73831551582234L134.56255415780203,143.27335146056757L135.38809129987445,144.4865583606448L136.21362844194684,145.16898238028543L137.03916558401926,142.43633041680468L137.86470272609165,144.3672127391961L138.69023986816407,149.53249081120623L139.51577701023646,149.93409162062164L140.34131415230888,151.30298101930666L141.16685129438127,144.97049612232294L141.9923884364537,145.8412340543401L142.8179255785261,148.38205757241948L143.6434627205985,146.98249202833867L144.4689998626709,145.28010385302613L145.29453700474332,148.32860414156502L146.1200741468157,148.3601430093532L146.9456112888881,150.38409681344737L147.77114843096052,152.67846458709764L148.59668557303291,149.6086331338316L149.42222271510533,144.62477426655377L150.24775985717773,150.2820622118071L151.07329699925015,145.53574193373842L151.89883414132254,143.4259720018318L152.72437128339496,150.31006886783288L153.54990842546738,151.35520401002768L154.37544556753974,147.56055138872998L155.20098270961216,155.567803201479L156.02651985168458,151.58912906528178L156.85205699375697,148.6690294475644L157.67759413582937,146.29360112650247L158.5031312779018,148.5777293753641L159.32866841997418,157.5844415439752L160.1542055620466,147.37224101210094L160.97974270411902,151.04282071752922L161.8052798461914,149.0711676906013L162.6308169882638,148.12053247210324L163.45635413033622,150.22977204188336L164.28189127240864,153.95829204175615L165.107428414481,151.9429124253735L165.93296555655343,154.0958114054057L166.75850269862585,149.59667877150068L167.58403984069824,159.3028784772351L168.40957698277066,158.7255227305983L169.23511412484305,151.08612301728283L170.06065126691544,158.63933888504482L170.88618840898786,152.052902458911L171.71172555106028,156.52037954536L172.53726269313267,146.73799155228252L173.36279983520507,153.37277932561403L174.1883369772775,151.95145479135735L175.0138741193499,145.26491074597615L175.83941126142227,154.207866315489L176.6649484034947,156.6860399234407L177.4904855455671,150.29542026589942L178.3160226876395,151.30637533691615L179.14155982971192,152.3070095609515L179.96709697178431,147.7235705634208L180.7926341138567,150.91208998909872L181.61817125592913,153.50265793889466L182.44370839800155,150.8603372527965L183.2692455400739,151.53392897515744L184.09478268214633,156.53924629407274L184.92031982421875,151.56762111317911L185.74585696629117,147.69713377928937L186.57139410836356,157.08049498713862L187.39693125043596,153.81179541517903L188.22246839250838,152.65852297114188L189.04800553458077,153.39563793326545L189.8735426766532,158.09023376101197L190.6990798187256,153.48129848818743L191.52461696079797,153.11220180563043L192.3501541028704,157.42884036756016L193.1756912449428,155.1347589894582L194.0012283870152,148.60073294866342L194.8267655290876,156.81540231758493L195.65230267116002,147.10965165178422L196.47783981323244,156.02410202487238L197.30337695530483,152.04727001312776L198.12891409737725,156.06577434502387L198.95445123944964,151.20563128311696L199.77998838152203,156.440634296022L200.60552552359445,158.4671373740708L201.43106266566687,152.50726369266894L202.25659980773924,154.03233059461317L203.08213694981166,153.9394252930434L203.90767409188408,157.15450171826805L204.73321123395647,155.62456962775025L205.55874837602886,157.37030253178645L206.38428551810128,157.13374688038505L207.2098226601737,152.98917900677145L208.0353598022461,150.05286798672122L208.8608969443185,158.02620844510295L209.6864340863909,157.27614911134572L210.5119712284633,161.90526643095666L211.33750837053572,159.0328534399051L212.16304551260814,151.80454448232157L212.9885826546805,157.58897083653537L213.81411979675292,156.44414529329933L214.63965693882534,159.3809760682335L215.46519408089773,153.25760942197448L216.29073122297015,153.92456454625935L217.11626836504254,158.39914141370818L217.94180550711496,159.55773515774774L218.76734264918736,159.61467837139443L219.59287979125978,158.14211378422453L220.4184169333322,154.57070472495352L221.24395407540456,152.4213025992086L222.06949121747698,160.6237488889884L222.8950283595494,153.05612838587112L223.7205655016218,161.15568795886074L224.54610264369418,161.35589966160805L225.3716397857666,157.52011215378033L226.197176927839,161.0350411823284L227.02271406991142,161.03738538292745L227.84825121198384,158.87126270720827L228.67378835405623,156.31594616008587L229.49932549612862,161.6949301152148L230.32486263820104,155.24371658472285L231.15039978027346,162.40838385500217L231.97593692234582,157.78566093476283L232.80147406441824,157.0810253492651L233.62701120649066,156.36570827054004L234.45254834856306,161.8344896051775L235.27808549063545,161.38198994248353L236.10362263270787,158.7737326478956L236.92915977478026,153.0215381679819L237.75469691685268,160.889506279074L238.5802340589251,155.3081909405656L239.4057712009975,160.83637460124294L240.23130834306988,158.30464502575896L241.0568454851423,152.17132171451212L241.88238262721472,158.1221863112588L242.7079197692871,158.5786760650177L243.5334569113595,158.4393393271481L244.35899405343193,157.03243003548923L245.18453119550432,158.58402918674764L246.01006833757674,157.88143726331063L246.83560547964913,157.53409957092944L247.66114262172152,160.4523358497091L248.48667976379394,154.62482287633983L249.31221690586636,158.50640892166314L250.13775404793878,164.65964025926436L250.96329119001115,157.0419624107759L251.78882833208357,158.43692441159882L252.614365474156,160.49806013650695L253.43990261622838,157.89857856723856L254.26543975830077,161.38566358414627L255.0909769003732,160.65995317561587L255.91651404244558,155.32964232070807L256.742051184518,159.67766417753555L257.5675883265904,156.92331686733414L258.3931254686628,160.96378526276166L259.21866261073524,161.62084736551387L260.04419975280763,157.5766063274933L260.86973689488,162.40823712148048L261.6952740369524,159.01227538939756L262.52081117902486,162.36771215139592L263.34634832109725,162.66522055412028L264.17188546316964,157.64749806506654L264.99742260524204,160.41406138291458L265.8229597473145,158.85066344221568L266.6484968893868,162.27069123972467L267.47403403145927,160.53871946499692L268.29957117353166,160.07547820136787L269.12510831560405,155.18836445745555L269.9506454576765,161.0200071839164L270.7761825997489,160.182996747396L271.6017197418213,165.25325867657293L272.4272568838937,164.04238006623095L273.2527940259661,162.04816543444244L274.0783311680385,158.31146901845307L274.9038683101109,164.07428841963394L275.7294054521833,161.48131969727874L276.55494259425575,159.65440603041552L277.38047973632814,157.36641320952558L278.20601687840053,157.99689709824597" fill="none"></path></g></g></g></g></g></g><g transform="translate(41, 177)" clip-path="url(#clip_1)"><clipPath id="clip_1"><rect width="288" height="22"></rect></clipPath><g><g><line x1="0" y1="0" x2="0" y2="5" style="visibility: inherit;" fill="rgb(0, 0, 0)" stroke="rgb(204, 204, 204)" stroke-width="1px"></line><line x1="20.638428551810126" y1="0" x2="20.638428551810126" y2="5" style="visibility: inherit;" fill="rgb(0, 0, 0)" stroke="rgb(204, 204, 204)" stroke-width="1px"></line><line x1="41.27685710362025" y1="0" x2="41.27685710362025" y2="5" style="visibility: inherit;" fill="rgb(0, 0, 0)" stroke="rgb(204, 204, 204)" stroke-width="1px"></line><line x1="61.91528565543038" y1="0" x2="61.91528565543038" y2="5" style="visibility: inherit;" fill="rgb(0, 0, 0)" stroke="rgb(204, 204, 204)" stroke-width="1px"></line><line x1="82.5537142072405" y1="0" x2="82.5537142072405" y2="5" style="visibility: inherit;" fill="rgb(0, 0, 0)" stroke="rgb(204, 204, 204)" stroke-width="1px"></line><line x1="103.19214275905064" y1="0" x2="103.19214275905064" y2="5" style="visibility: inherit;" fill="rgb(0, 0, 0)" stroke="rgb(204, 204, 204)" stroke-width="1px"></line><line x1="123.83057131086076" y1="0" x2="123.83057131086076" y2="5" style="visibility: inherit;" fill="rgb(0, 0, 0)" stroke="rgb(204, 204, 204)" stroke-width="1px"></line><line x1="144.4689998626709" y1="0" x2="144.4689998626709" y2="5" style="visibility: inherit;" fill="rgb(0, 0, 0)" stroke="rgb(204, 204, 204)" stroke-width="1px"></line><line x1="165.107428414481" y1="0" x2="165.107428414481" y2="5" style="visibility: inherit;" fill="rgb(0, 0, 0)" stroke="rgb(204, 204, 204)" stroke-width="1px"></line><line x1="185.74585696629117" y1="0" x2="185.74585696629117" y2="5" style="visibility: inherit;" fill="rgb(0, 0, 0)" stroke="rgb(204, 204, 204)" stroke-width="1px"></line><line x1="206.38428551810128" y1="0" x2="206.38428551810128" y2="5" style="visibility: inherit;" fill="rgb(0, 0, 0)" stroke="rgb(204, 204, 204)" stroke-width="1px"></line><line x1="227.02271406991142" y1="0" x2="227.02271406991142" y2="5" style="visibility: inherit;" fill="rgb(0, 0, 0)" stroke="rgb(204, 204, 204)" stroke-width="1px"></line><line x1="247.66114262172152" y1="0" x2="247.66114262172152" y2="5" style="visibility: inherit;" fill="rgb(0, 0, 0)" stroke="rgb(204, 204, 204)" stroke-width="1px"></line><line x1="268.29957117353166" y1="0" x2="268.29957117353166" y2="5" style="visibility: inherit;" fill="rgb(0, 0, 0)" stroke="rgb(204, 204, 204)" stroke-width="1px"></line><line x1="288.9379997253418" y1="0" x2="288.9379997253418" y2="5" style="visibility: inherit;" fill="rgb(0, 0, 0)" stroke="rgb(204, 204, 204)" stroke-width="1px"></line></g><g transform="translate(0, 8)"><text style="text-anchor: middle; visibility: hidden; font-family: Roboto, sans-serif; font-size: 12px; font-weight: 200;" x="0" y="0" dx="0em" dy="0.95em" fill="rgb(50, 49, 63)" stroke="none" stroke-width="1px">-500</text><text style="text-anchor: middle; visibility: inherit; font-family: Roboto, sans-serif; font-size: 12px; font-weight: 200;" x="20.638428551810126" y="0" dx="0em" dy="0.95em" fill="rgb(50, 49, 63)" stroke="none" stroke-width="1px">0</text><text style="text-anchor: middle; visibility: hidden; font-family: Roboto, sans-serif; font-size: 12px; font-weight: 200;" x="41.27685710362025" y="0" dx="0em" dy="0.95em" fill="rgb(50, 49, 63)" stroke="none" stroke-width="1px">500</text><text style="text-anchor: middle; visibility: inherit; font-family: Roboto, sans-serif; font-size: 12px; font-weight: 200;" x="61.91528565543038" y="0" dx="0em" dy="0.95em" fill="rgb(50, 49, 63)" stroke="none" stroke-width="1px">1k</text><text style="text-anchor: middle; visibility: hidden; font-family: Roboto, sans-serif; font-size: 12px; font-weight: 200;" x="82.5537142072405" y="0" dx="0em" dy="0.95em" fill="rgb(50, 49, 63)" stroke="none" stroke-width="1px">1.5k</text><text style="text-anchor: middle; visibility: inherit; font-family: Roboto, sans-serif; font-size: 12px; font-weight: 200;" x="103.19214275905064" y="0" dx="0em" dy="0.95em" fill="rgb(50, 49, 63)" stroke="none" stroke-width="1px">2k</text><text style="text-anchor: middle; visibility: hidden; font-family: Roboto, sans-serif; font-size: 12px; font-weight: 200;" x="123.83057131086076" y="0" dx="0em" dy="0.95em" fill="rgb(50, 49, 63)" stroke="none" stroke-width="1px">2.5k</text><text style="text-anchor: middle; visibility: inherit; font-family: Roboto, sans-serif; font-size: 12px; font-weight: 200;" x="144.4689998626709" y="0" dx="0em" dy="0.95em" fill="rgb(50, 49, 63)" stroke="none" stroke-width="1px">3k</text><text style="text-anchor: middle; visibility: hidden; font-family: Roboto, sans-serif; font-size: 12px; font-weight: 200;" x="165.107428414481" y="0" dx="0em" dy="0.95em" fill="rgb(50, 49, 63)" stroke="none" stroke-width="1px">3.5k</text><text style="text-anchor: middle; visibility: inherit; font-family: Roboto, sans-serif; font-size: 12px; font-weight: 200;" x="185.74585696629117" y="0" dx="0em" dy="0.95em" fill="rgb(50, 49, 63)" stroke="none" stroke-width="1px">4k</text><text style="text-anchor: middle; visibility: hidden; font-family: Roboto, sans-serif; font-size: 12px; font-weight: 200;" x="206.38428551810128" y="0" dx="0em" dy="0.95em" fill="rgb(50, 49, 63)" stroke="none" stroke-width="1px">4.5k</text><text style="text-anchor: middle; visibility: inherit; font-family: Roboto, sans-serif; font-size: 12px; font-weight: 200;" x="227.02271406991142" y="0" dx="0em" dy="0.95em" fill="rgb(50, 49, 63)" stroke="none" stroke-width="1px">5k</text><text style="text-anchor: middle; visibility: hidden; font-family: Roboto, sans-serif; font-size: 12px; font-weight: 200;" x="247.66114262172152" y="0" dx="0em" dy="0.95em" fill="rgb(50, 49, 63)" stroke="none" stroke-width="1px">5.5k</text><text style="text-anchor: middle; visibility: inherit; font-family: Roboto, sans-serif; font-size: 12px; font-weight: 200;" x="268.29957117353166" y="0" dx="0em" dy="0.95em" fill="rgb(50, 49, 63)" stroke="none" stroke-width="1px">6k</text><text style="text-anchor: middle; visibility: hidden; font-family: Roboto, sans-serif; font-size: 12px; font-weight: 200;" x="288.9379997253418" y="0" dx="0em" dy="0.95em" fill="rgb(50, 49, 63)" stroke="none" stroke-width="1px">6.5k</text></g><line x1="0" y1="0" x2="288.9379997253418" y2="0" fill="rgb(0, 0, 0)" stroke="rgb(204, 204, 204)" stroke-width="1px"></line></g></g></g></g></svg>