<svg viewBox="0 0 330 200" xmlns="http://www.w3.org/2000/svg"><g><g><g><g><g><line x1="30.766000747680664" y1="177.89999961853027" x2="25.766000747680664" y2="177.89999961853027" style="visibility: inherit;" fill="rgb(0, 0, 0)" stroke="rgb(204, 204, 204)" stroke-width="1px"></line><line x1="30.766000747680664" y1="160.10999965667725" x2="25.766000747680664" y2="160.10999965667725" style="visibility: inherit;" fill="rgb(0, 0, 0)" stroke="rgb(204, 204, 204)" stroke-width="1px"></line><line x1="30.766000747680664" y1="142.31999969482422" x2="25.766000747680664" y2="142.31999969482422" style="visibility: inherit;" fill="rgb(0, 0, 0)" stroke="rgb(204, 204, 204)" stroke-width="1px"></line><line x1="30.766000747680664" y1="124.52999973297118" x2="25.766000747680664" y2="124.52999973297118" style="visibility: inherit;" fill="rgb(0, 0, 0)" stroke="rgb(204, 204, 204)" stroke-width="1px"></line><line x1="30.766000747680664" y1="106.73999977111816" x2="25.766000747680664" y2="106.73999977111816" style="visibility: inherit;" fill="rgb(0, 0, 0)" stroke="rgb(204, 204, 204)" stroke-width="1px"></line><line x1="30.766000747680664" y1="88.94999980926514" x2="25.766000747680664" y2="88.94999980926514" style="visibility: inherit;" fill="rgb(0, 0, 0)" stroke="rgb(204, 204, 204)" stroke-width="1px"></line><line x1="30.766000747680664" y1="71.15999984741211" x2="25.766000747680664" y2="71.15999984741211" style="visibility: inherit;" fill="rgb(0, 0, 0)" stroke="rgb(204, 204, 204)" stroke-width="1px"></line><line x1="30.766000747680664" y1="53.36999988555909" x2="25.766000747680664" y2="53.36999988555909" style="visibility: inherit;" fill="rgb(0, 0, 0)" stroke="rgb(204, 204, 204)" stroke-width="1px"></line><line x1="30.766000747680664" y1="35.57999992370605" x2="25.766000747680664" y2="35.57999992370605" style="visibility: inherit;" fill="rgb(0, 0, 0)" stroke="rgb(204, 204, 204)" stroke-width="1px"></line><line x1="30.766000747680664" y1="17.789999961853024" x2="25.766000747680664" y2="17.789999961853024" style="visibility: inherit;" fill="rgb(0, 0, 0)" stroke="rgb(204, 204, 204)" stroke-width="1px"></line><line x1="30.766000747680664" y1="0" x2="25.766000747680664" y2="0" style="visibility: inherit;" fill="rgb(0, 0, 0)" stroke="rgb(204, 204, 204)" stroke-width="1px"></line></g><g transform="translate(20.766000747680664, 0)"><text style="text-anchor: end; visibility: hidden; font-family: Roboto, sans-serif; font-size: 12px; font-weight: 200;" x="0" y="177.89999961853027" dx="0em" dy="0.3em" fill="rgb(50, 49, 63)" stroke="none" stroke-width="1px">0</text><text style="text-anchor: end; visibility: inherit; font-family: Roboto, sans-serif; font-size: 12px; font-weight: 200;" x="0" y="160.10999965667725" dx="0em" dy="0.3em" fill="rgb(50, 49, 63)" stroke="none" stroke-width="1px">1</text><text style="text-anchor: end; visibility: hidden; font-family: Roboto, sans-serif; font-size: 12px; font-weight: 200;" x="0" y="142.31999969482422" dx="0em" dy="0.3em" fill="rgb(50, 49, 63)" stroke="none" stroke-width="1px">2</text><text style="text-anchor: end; visibility: inherit; font-family: Roboto, sans-serif; font-size: 12px; font-weight: 200;" x="0" y="124.52999973297118" dx="0em" dy="0.3em" fill="rgb(50, 49, 63)" stroke="none" stroke-width="1px">3</text><text style="text-anchor: end; visibility: hidden; font-family: Roboto, sans-serif; font-size: 12px; font-weight: 200;" x="0" y="106.73999977111816" dx="0em" dy="0.3em" fill="rgb(50, 49, 63)" stroke="none" stroke-width="1px">4</text><text style="text-anchor: end; visibility: inherit; font-family: Roboto, sans-serif; font-size: 12px; font-weight: 200;" x="0" y="88.94999980926514" dx="0em" dy="0.3em" fill="rgb(50, 49, 63)" stroke="none" stroke-width="1px">5</text><text style="text-anchor: end; visibility: hidden; font-family: Roboto, sans-serif; font-size: 12px; font-weight: 200;" x="0" y="71.15999984741211" dx="0em" dy="0.3em" fill="rgb(50, 49, 63)" stroke="none" stroke-width="1px">6</text><text style="text-anchor: end; visibility: inherit; font-family: Roboto, sans-serif; font-size: 12px; font-weight: 200;" x="0" y="53.36999988555909" dx="0em" dy="0.3em" fill="rgb(50, 49, 63)" stroke="none" stroke-width="1px">7</text><text style="text-anchor: end; visibility: hidden; font-family: Roboto, sans-serif; font-size: 12px; font-weight: 200;" x="0" y="35.57999992370605" dx="0em" dy="0.3em" fill="rgb(50, 49, 63)" stroke="none" stroke-width="1px">8</text><text style="text-anchor: end; visibility: inherit; font-family: Roboto, sans-serif; font-size: 12px; font-weight: 200;" x="0" y="17.789999961853024" dx="0em" dy="0.3em" fill="rgb(50, 49, 63)" stroke="none" stroke-width="1px">9</text><text style="text-anchor: end; visibility: hidden; font-family: Roboto, sans-serif; font-size: 12px; font-weight: 200;" x="0" y="0" dx="0em" dy="0.3em" fill="rgb(50, 49, 63)" stroke="none" stroke-width="1px">10</text></g><line x1="30.766000747680664" y1="0" x2="30.766000747680664" y2="177.89999961853027" fill="rgb(0, 0, 0)" stroke="rgb(204, 204, 204)" stroke-width="1px"></line></g></g><g transform="translate(30, 0)" clip-path="url(#clip_0)"><clipPath id="clip_0"><rect width="299" height="177"></rect></clipPath><g><g><g><line x1="0" y1="0" x2="0" y2="177.89999961853027" fill="rgb(0, 0, 0)" stroke="rgb(60, 60, 60)" stroke-width="1px" opacity="0.25"></line><line x1="21.37385708945138" y1="0" x2="21.37385708945138" y2="177.89999961853027" fill="rgb(0, 0, 0)" stroke="rgb(60, 60, 60)" stroke-width="1px" opacity="0.25"></line><line x1="42.74771417890276" y1="0" x2="42.74771417890276" y2="177.89999961853027" fill="rgb(0, 0, 0)" stroke="rgb(60, 60, 60)" stroke-width="1px" opacity="0.25"></line><line x1="64.12157126835415" y1="0" x2="64.12157126835415" y2="177.89999961853027" fill="rgb(0, 0, 0)" stroke="rgb(60, 60, 60)" stroke-width="1px" opacity="0.25"></line><line x1="85.49542835780552" y1="0" x2="85.49542835780552" y2="177.89999961853027" fill="rgb(0, 0, 0)" stroke="rgb(60, 60, 60)" stroke-width="1px" opacity="0.25"></line><line x1="106.86928544725691" y1="0" x2="106.86928544725691" y2="177.89999961853027" fill="rgb(0, 0, 0)" stroke="rgb(60, 60, 60)" stroke-width="1px" opacity="0.25"></line><line x1="128.2431425367083" y1="0" x2="128.2431425367083" y2="177.89999961853027" fill="rgb(0, 0, 0)" stroke="rgb(60, 60, 60)" stroke-width="1px" opacity="0.25"></line><line x1="149.61699962615967" y1="0" x2="149.61699962615967" y2="177.89999961853027" fill="rgb(0, 0, 0)" stroke="rgb(60, 60, 60)" stroke-width="1px" opacity="0.25"></line><line x1="170.99085671561105" y1="0" x2="170.99085671561105" y2="177.89999961853027" fill="rgb(0, 0, 0)" stroke="rgb(60, 60, 60)" stroke-width="1px" opacity="0.25"></line><line x1="192.36471380506245" y1="0" x2="192.36471380506245" y2="177.89999961853027" fill="rgb(0, 0, 0)" stroke="rgb(60, 60, 60)" stroke-width="1px" opacity="0.25"></line><line x1="213.73857089451383" y1="0" x2="213.73857089451383" y2="177.89999961853027" fill="rgb(0, 0, 0)" stroke="rgb(60, 60, 60)" stroke-width="1px" opacity="0.25"></line><line x1="235.11242798396518" y1="0" x2="235.11242798396518" y2="177.89999961853027" fill="rgb(0, 0, 0)" stroke="rgb(60, 60, 60)" stroke-width="1px" opacity="0.25"></line><line x1="256.4862850734166" y1="0" x2="256.4862850734166" y2="177.89999961853027" fill="rgb(0, 0, 0)" stroke="rgb(60, 60, 60)" stroke-width="1px" opacity="0.25"></line><line x1="277.860142162868" y1="0" x2="277.860142162868" y2="177.89999961853027" fill="rgb(0, 0, 0)" stroke="rgb(60, 60, 60)" stroke-width="1px" opacity="0.25"></line><line x1="299.23399925231934" y1="0" x2="299.23399925231934" y2="177.89999961853027" fill="rgb(0, 0, 0)" stroke="rgb(60, 60, 60)" stroke-width="1px" opacity="0.25"></line></g><g><line x1="0" y1="177.89999961853027" x2="299.23399925231934" y2="177.89999961853027" fill="rgb(0, 0, 0)" stroke="rgb(60, 60, 60)" stroke-width="1px" opacity="0.25"></line><line x1="0" y1="160.10999965667725" x2="299.23399925231934" y2="160.10999965667725" fill="rgb(0, 0, 0)" stroke="rgb(60, 60, 60)" stroke-width="1px" opacity="0.25"></line><line x1="0" y1="142.31999969482422" x2="299.23399925231934" y2="142.31999969482422" fill="rgb(0, 0, 0)" stroke="rgb(60, 60, 60)" stroke-width="1px" opacity="0.25"></line><line x1="0" y1="124.52999973297118" x2="299.23399925231934" y2="124.52999973297118" fill="rgb(0, 0, 0)" stroke="rgb(60, 60, 60)" stroke-width="1px" opacity="0.25"></line><line x1="0" y1="106.73999977111816" x2="299.23399925231934" y2="106.73999977111816" fill="rgb(0, 0, 0)" stroke="rgb(60, 60, 60)" stroke-width="1px" opacity="0.25"></line><line x1="0" y1="88.94999980926514" x2="299.23399925231934" y2="88.94999980926514" fill="rgb(0, 0, 0)" stroke="rgb(60, 60, 60)" stroke-width="1px" opacity="0.25"></line><line x1="0" y1="71.15999984741211" x2="299.23399925231934" y2="71.15999984741211" fill="rgb(0, 0, 0)" stroke="rgb(60, 60, 60)" stroke-width="1px" opacity="0.25"></line><line x1="0" y1="53.36999988555909" x2="299.23399925231934" y2="53.36999988555909" fill="rgb(0, 0, 0)" stroke="rgb(60, 60, 60)" stroke-width="1px" opacity="0.25"></line><line x1="0" y1="35.57999992370605" x2="299.23399925231934" y2="35.57999992370605" fill="rgb(0, 0, 0)" stroke="rgb(60, 60, 60)" stroke-width="1px" opacity="0.25"></line><line x1="0" y1="17.789999961853024" x2="299.23399925231934" y2="17.789999961853024" fill="rgb(0, 0, 0)" stroke="rgb(60, 60, 60)" stroke-width="1px" opacity="0.25"></line><line x1="0" y1="0" x2="299.23399925231934" y2="0" fill="rgb(0, 0, 0)" stroke="rgb(60, 60, 60)" stroke-width="1px" opacity="0.25"></line></g></g></g><g><g><line x1="0" y1="177.89999961853027" x2="299.23399925231934" y2="177.89999961853027" fill="rgb(0, 0, 0)" stroke="rgb(153, 153, 153)" stroke-width="1.5px"></line></g></g><g><g><line x1="21.37385708945138" y1="0" x2="21.37385708945138" y2="177.89999961853027" fill="rgb(0, 0, 0)" stroke="rgb(153, 153, 153)" stroke-width="1.5px"></line></g></g><g><g><g><g><g><path style="fill: none;" stroke="rgb(255, 112, 67)" stroke-width="2px" d="M21.37385708945138,14.871684376298617L22.228811373029437,18.725682319780503L23.08376565660749,20.893540216914367L23.938719940185546,22.87355276560431L24.7936742237636,25.340386841445408L25.64862850734166,30.00306734627144L26.50358279091971,36.26129341402697L27.358537074497768,45.444883480765185L28.213491358075824,52.271947316400954L29.068445641653877,64.72158722007684L29.923399925231934,74.34948334953336L30.77835420880999,84.23489419125613L31.633308492388046,96.96211074585761L32.4882627759661,105.0264965963746L33.34321705954416,111.55507498286296L34.19817134312221,114.73033130028533L35.053125626700265,115.82184611819122L35.90807991027832,117.37704054194494L36.76303419385638,119.53105191258133L37.61798847743443,121.99223669343175L38.47294276101248,123.74897202451083L39.32789704459054,123.63017539609689L40.182851328168596,123.13169284221438L41.037805611746656,124.27130112183573L41.89275989532471,125.08292285350524L42.74771417890276,125.63183520175821L43.602668462480814,126.80124263907214L44.457622746058874,126.76515912886427L45.312577029636934,127.76360586140073L46.16753131321498,128.53852829916076L47.02248559679304,127.64576598560559L47.87743988037109,129.17125966887244L48.73239416394915,129.41381676535997L49.5873484475272,129.68578234987183L50.44230273110526,129.94752489611827L51.29725701468332,130.36455535505632L52.15221129826137,131.3172962135153L53.00716558183942,131.7769337733093L53.862119865417476,132.20289306496483L54.717074148995536,132.663104129603L55.572028432573596,132.62113095877254L56.42698271615165,131.5092137750602L57.2819369997297,131.87181858163453L58.136891283307754,134.07612509868113L58.991845566885814,133.96251451544023L59.84679985046387,133.9547839735592L60.70175413404192,134.33996695956026L61.55670841761998,133.73600664450984L62.41166270119803,134.76705060709068L63.26661698477609,135.27990668589842L64.12157126835415,135.89396449355866L64.9765255519322,136.89669861908587L65.83147983551025,136.49408028174028L66.68643411908832,137.96954653952358L67.54138840266636,137.77732244461183L68.39634268624442,137.1189716924423L69.25129696982248,139.1192853431751L70.10625125340053,137.9876984760532L70.96120553697858,138.73994779447617L71.81615982055663,136.87265730146657L72.6711141041347,137.24160610827948L73.52606838771275,137.1051907261193L74.38102267129081,136.38017399770646L75.23597695486886,138.04840031955973L76.09093123844691,138.6496457572742L76.94588552202497,138.6414397240326L77.80083980560303,138.30799755678032L78.65579408918109,138.83405266102275L79.51074837275914,137.7665502799856L80.36570265633719,137.883221880593L81.22065693991524,138.6356343882536L82.07561122349331,138.4255980447429L82.93056550707135,139.26720913966068L83.78551979064942,140.04582842969154L84.64047407422747,140.14779277106422L85.49542835780552,139.28403816654455L86.35038264138359,140.68282477598092L87.20533692496163,140.90216908584466L88.06029120853968,141.00599406610195L88.91524549211775,141.1378100835796L89.7701997756958,141.94650064608066L90.62515405927387,141.45831623297917L91.4801083428519,141.49803665835677L92.33506262642996,142.6508972500715L93.19001691000803,142.07666563980877L94.04497119358608,140.5758350387099L94.89992547716412,141.31559915288497L95.75487976074218,140.05377646364383L96.60983404432024,141.4422863697064L97.4647883278983,141.52182622723706L98.31974261147636,142.56780388612444L99.1746968950544,142.2156023856994L100.02965117863246,142.25640443450396L100.88460546221052,142.9059276799063L101.73955974578858,142.6865356490112L102.59451402936664,142.09027491934734L103.44946831294467,142.6657946555236L104.30442259652274,143.37273393213815L105.1593768801008,142.695520130111L106.01433116367885,143.9382070140256L106.86928544725691,144.79980204617567L107.72423973083495,143.61110250822531L108.57919401441302,142.73075882531847L109.43414829799107,143.72051834155602L110.28910258156913,143.90387219775906L111.14405686514719,145.53948148401292L111.99901114872523,145.31080246740993L112.8539654323033,144.25986695433923L113.70891971588135,144.37712963523825L114.5638739994594,144.93426338962263L115.41882828303747,144.26036401795022L116.27378256661551,143.66484538162763L117.12873685019356,143.49701832313457L117.98369113377163,144.45923359622708L118.83864541734968,146.04249016566712L119.69359970092773,146.26431918566325L120.54855398450579,146.48208475219587L121.40350826808384,146.59132468622417L122.2584625516619,144.30522401505274L123.11341683523996,145.67262464354016L123.96837111881801,144.6594765021301L124.82332540239607,146.38668119824496L125.67827968597412,147.54632889624943L126.53323396955219,147.63500841935L127.38818825313022,148.02229439482306L128.2431425367083,147.07169043103832L129.09809682028634,146.89909532724795L129.9530511038644,146.12821731065134L130.80800538744245,145.65990768524938L131.6629596710205,146.91945393442626L132.51791395459855,147.9708823082411L133.37286823817664,147.50730270033623L134.22782252175466,147.81818435613658L135.0827768053327,147.8128743641082L135.9377310889108,148.5773463033413L136.79268537248885,148.4034596959941L137.6476396560669,149.22523752373974L138.50259393964495,148.5046603235488L139.357548223223,147.49881598496867L140.21250250680106,147.45063950262386L141.0674567903791,147.19378363010895L141.92241107395716,146.62591504824493L142.77736535753522,146.40614864797456L143.63231964111327,147.83607991068746L144.48727392469135,148.79268669647735L145.3422282082694,149.68976653521426L146.19718249184743,148.92338090539192L147.0521367754255,148.0999023062362L147.90709105900356,148.6246349139406L148.76204534258162,148.71683141835646L149.61699962615967,148.1717476804477L150.47195390973772,148.5806249611679L151.32690819331577,148.50122804652858L152.18186247689383,149.3224670373576L153.0368167604719,150.50476685022574L153.89177104404993,150.41145598668476L154.74672532762798,149.1058409698245L155.60167961120607,149.90231050259678L156.45663389478412,149.8512923758868L157.31158817836217,148.52568203383427L158.16654246194022,149.28948994663926L159.02149674551828,149.95955111732243L159.87645102909633,149.7470095015006L160.73140531267438,151.23793484115154L161.58635959625246,150.74080889462883L162.4413138798305,150.8719147959979L163.29626816340854,149.85584904343617L164.15122244698662,149.57317491416936L165.00617673056465,151.50751936188445L165.8611310141427,150.6597534633517L166.71608529772078,150.44304000238338L167.57103958129883,149.94015987391327L168.4259938648769,149.32434865665462L169.28094814845494,150.14634670548665L170.13590243203302,150.7912161358286L170.99085671561105,151.51453953100238L171.8458109991891,151.98705965673864L172.70076528276718,151.37403344455586L173.5557195663452,152.88027406775038L174.41067384992326,153.44792887663382L175.26562813350134,152.4516776839055L176.12058241707936,154.06973100013442L176.97553670065744,152.72915206133356L177.8304909842355,153.41035628864813L178.68544526781355,151.97502321547327L179.5403995513916,152.22401365868518L180.39535383496965,152.04840809792427L181.25030811854774,150.48784340865396L182.10526240212576,151.95201261749793L182.9602166857038,152.53836023279388L183.8151709692819,151.5097054822921L184.67012525285992,151.3876733088391L185.525079536438,151.9108746048564L186.38003382001605,150.8114123445924L187.23498810359408,151.13687581493113L188.08994238717216,151.71728414628558L188.9448966707502,151.1197143478176L189.79985095432824,150.9018415539378L190.65480523790632,151.6532869249813L191.50975952148437,151.9520356477009L192.36471380506245,151.05015881935034L193.21966808864047,152.73689354691618L194.07462237221856,152.4193737516936L194.9295766557966,152.13325243300787L195.78453093937463,152.12744643125856L196.63948522295271,152.60249865491224L197.49443950653077,152.3284096938251L198.3493937901088,152.40464851397954L199.20434807368687,153.00055073090263L200.05930235726493,153.32982268674652L200.91425664084298,152.12269019409075L201.76921092442103,152.9631385927861L202.62416520799908,151.41031588388518L203.47911949157717,152.25275729263936L204.3340737751552,152.41421629975852L205.18902805873327,153.24779880904057L206.04398234231132,153.22977683363473L206.89893662588935,153.42443810044622L207.75389090946743,153.83949563402913L208.60884519304548,153.29200225376056L209.46379947662354,152.63938438247956L210.3187537602016,153.18040865416356L211.17370804377964,154.04592386889954L212.0286623273577,153.65280193509193L212.88361661093575,154.11743581142173L213.73857089451383,154.74946413088506L214.59352517809188,154.07792905057454L215.4484794616699,152.8841721500305L216.303433745248,153.97722243583235L217.15838802882604,154.22965860335665L218.01334231240406,155.51067882367357L218.86829659598214,155.466568288005L219.7232508795602,153.87863830494356L220.57820516313825,154.3061425892733L221.4331594467163,154.60311384016615L222.28811373029438,154.721570804144L223.1430680138724,154.2568188213414L223.99802229745046,153.559520663048L224.85297658102854,154.36991412766932L225.7079308646066,155.2409894909906L226.56288514818462,155.28942772500338L227.4178394317627,155.50331341701366L228.27279371534075,155.37225794760985L229.1277479989188,153.62965239332482L229.98270228249686,154.8233746995297L230.83765656607494,153.98935970734632L231.69261084965297,155.48612156613694L232.54756513323102,156.2105924228953L233.4025194168091,156.0741020904273L234.25747370038712,156.40116076091533L235.11242798396518,156.3053964425788L235.96738226754326,156.22772896022846L236.8223365511213,155.53746047865295L237.67729083469936,156.7075422714233L238.53224511827742,154.9603123978316L239.38719940185547,155.93298830763408L240.24215368543352,155.78520554751248L241.09710796901157,155.39437890680452L241.95206225258966,155.58122766091338L242.80701653616768,156.239290848308L243.66197081974573,157.0810062793941L244.5169251033238,157.1917335417065L245.37187938690184,155.34076660911896L246.22683367047992,156.15538640328583L247.08178795405797,155.83945113534372L247.93674223763603,156.47182934917018L248.79169652121408,156.56578607038702L249.64665080479213,155.08324831890707L250.5016050883702,155.42404870777366L251.35655937194824,155.60351107501262L252.2115136555263,155.80008115053798L253.06646793910437,155.82959879857427L253.9214222226824,155.93132520438124L254.77637650626045,155.51393465299824L255.63133078983853,156.08699885985038L256.4862850734166,156.67273924701794L257.3412393569946,155.63221560586894L258.1961936405727,155.5651181462878L259.05114792415077,157.2507726235529L259.9061022077288,156.54737178550897L260.7610564913069,156.4046030105994L261.6160107748849,156.59287261893712L262.470965058463,156.87642616709752L263.325919342041,156.91734626013803L264.1808736256191,156.92598942336488L265.0358279091971,155.77748285703905L265.8907821927752,156.43507083225208L266.7457364763533,155.86024747361884L267.6006907599313,157.0385633336174L268.4556450435093,157.617586108329L269.3105993270874,157.24883578705507L270.1655536106654,157.73588081171647L271.0205078942435,157.04869043492909L271.8754621778216,157.51623280868506L272.7304164613996,158.1437950230423L273.5853707449777,156.44547903836815L274.4403250285557,156.75634189222183L275.2952793121338,156.9719721823868L276.1502335957118,157.34448478971078L277.0051878792899,157.30837982347668L277.860142162868,156.97142912706994L278.715096446446,155.76641400150308L279.57005073002404,156.6712042757952L280.4250050136021,157.20551746436036L281.27995929718014,158.6644259188246L282.1349135807582,158.82176875381546L282.9898678643363,158.19272278094624L283.84482214791433,157.41172135508774L284.6997764314924,158.06786410658927L285.55473071507043,158.3074216507498L286.4096849986485,157.48538103855466L287.26463928222654,157.1739467742833L288.1195935658046,157.10484629199078" fill="none"></path></g></g></g></g><g opacity="0.2"><g><g><g><path style="fill: none;" stroke="rgb(255, 112, 67)" stroke-width="2px" d="M21.37385708945138,14.871684376298617L22.228811373029437,21.03808108586964L23.08376565660749,22.97468379816291L23.938719940185546,25.20204752286372L24.7936742237636,28.5610854108636L25.64862850734166,36.453233049427574L26.50358279091971,45.21065682253447L27.358537074497768,58.83464596053408L28.213491358075824,62.34054038508429L29.068445641653877,83.2078515462026L29.923399925231934,88.70400323443711L30.77835420880999,99.00921448457939L31.633308492388046,116.01137900748608L32.4882627759661,117.10727640074697L33.34321705954416,121.34026846377559L34.19817134312221,119.49097633965494L35.053125626700265,117.45865645256004L35.90807991027832,119.70943731387979L36.76303419385638,122.76174082658372L37.61798847743443,125.68378890266968L38.47294276101248,126.38397867758886L39.32789704459054,123.45198436252964L40.182851328168596,122.38397885305903L41.037805611746656,125.98070004152123L41.89275989532471,126.30034968234963L42.74771417890276,126.45520138327718L43.602668462480814,128.55535080284994L44.457622746058874,126.71103391894917L45.312577029636934,129.26127504049487L46.16753131321498,129.70091152751297L47.02248559679304,126.30662281132253L47.87743988037109,131.45949989025053L48.73239416394915,129.77765238113489L49.5873484475272,130.09373070715924L50.44230273110526,130.34013870423905L51.29725701468332,130.99010103270984L52.15221129826137,132.74640748646334L53.00716558183942,132.46639010873355L53.862119865417476,132.84183200007556L54.717074148995536,133.35342072502226L55.572028432573596,132.558171202611L56.42698271615165,129.8413380008294L57.2819369997297,132.4157257912343L58.136891283307754,137.3825848732963L58.991845566885814,133.7920986406084L59.84679985046387,133.94318816073883L60.70175413404192,134.9177414385258L61.55670841761998,132.83006617196816L62.41166270119803,136.31361655092724L63.26661698477609,136.04919080409968L64.12157126835415,136.81505120504153L64.9765255519322,138.40079980736937L65.83147983551025,135.89015277572366L66.68643411908832,140.18274592619468L67.54138840266636,137.48898630224448L68.39634268624442,136.13144556418865L69.25129696982248,142.11975581927322L70.10625125340053,136.29031817537066L70.96120553697858,139.86832177211045L71.81615982055663,134.07172156195247L72.6711141041347,137.7950293184988L73.52606838771275,136.9005676528791L74.38102267129081,135.29264890508716L75.23597695486886,140.55073980233965L76.09093123844691,139.55151391384584L76.94588552202497,138.62913067417026L77.80083980560303,137.8078343059019L78.65579408918109,139.6231353173864L79.51074837275914,136.16529670842988L80.36570265633719,138.05822928150405L81.22065693991524,139.7642531497445L82.07561122349331,138.1105435294769L82.93056550707135,140.52962578203733L83.78551979064942,141.21375736473783L84.64047407422747,140.30073928312322L85.49542835780552,137.98840625976504L86.35038264138359,142.78100469013543L87.20533692496163,141.23118555064025L88.06029120853968,141.16173153648788L88.91524549211775,141.33553410979607L89.7701997756958,143.15953648983225L90.62515405927387,140.72603961332698L91.4801083428519,141.55761729642313L92.33506262642996,144.3801881376436L93.19001691000803,141.21531822441466L94.04497119358608,138.3245891370616L94.89992547716412,142.42524532414757L95.75487976074218,138.16104242978213L96.60983404432024,143.5250512288003L97.4647883278983,141.641136013533L98.31974261147636,144.13677037445552L99.1746968950544,141.68730013506183L100.02965117863246,142.31760750771082L100.88460546221052,143.8802125480098L101.73955974578858,142.35744760266857L102.59451402936664,141.19588382485153L103.44946831294467,143.529074259788L104.30442259652274,144.4331428470599L105.1593768801008,141.67969942707032L106.01433116367885,145.8022373398975L106.86928544725691,146.09219459440078L107.72423973083495,141.82805320129978L108.57919401441302,141.4102433009582L109.43414829799107,145.2051576159123L110.28910258156913,144.17890298206362L111.14405686514719,147.99289541339374L111.99901114872523,144.96778394250543L112.8539654323033,142.68346368473317L113.70891971588135,144.5530236565868L114.5638739994594,145.76996402119914L115.41882828303747,143.24951496044162L116.27378256661551,142.77156742714374L117.12873685019356,143.245277735395L117.98369113377163,145.90255650586585L118.83864541734968,148.4173750198272L119.69359970092773,146.59706271565744L120.54855398450579,146.8087331019948L121.40350826808384,146.75518458726663L122.2584625516619,140.87607300829563L123.11341683523996,147.72372558627126L123.96837111881801,143.13975429001505L124.82332540239607,148.97748824241728L125.67827968597412,149.2858004432561L126.53323396955219,147.76802770400081L127.38818825313022,148.60322335803266L128.2431425367083,145.64578448536122L129.09809682028634,146.6402026715624L129.9530511038644,144.97190028575642L130.80800538744245,144.95744324714644L131.6629596710205,148.80877330819158L132.51791395459855,149.54802486896335L133.37286823817664,146.81193328847894L134.22782252175466,148.28450683983715L135.0827768053327,147.80490937606567L135.9377310889108,149.72405421219094L136.79268537248885,148.14262978497322L137.6476396560669,150.45790426535825L138.50259393964495,147.42379452326236L139.357548223223,145.99004947709852L140.21250250680106,147.3783747791066L141.0674567903791,146.80849982133657L141.92241107395716,145.77411217544898L142.77736535753522,146.07649904756897L143.63231964111327,149.98097680475678L144.48727392469135,150.22759687516225L145.3422282082694,151.03538629331956L146.19718249184743,147.77380246065843L147.0521367754255,146.86468440750264L147.90709105900356,149.4117338254972L148.76204534258162,148.85512617498023L149.61699962615967,147.35412207358456L150.47195390973772,149.19394088224817L151.32690819331577,148.38213267456968L152.18186247689383,150.55432552360105L153.0368167604719,152.278216569528L153.89177104404993,150.2714896913733L154.74672532762798,147.14741844453408L155.60167961120607,151.09701480175522L156.45663389478412,149.77476518582182L157.31158817836217,146.53726652075545L158.16654246194022,150.43520181584677L159.02149674551828,150.9646428733472L159.87645102909633,149.4281970777679L160.73140531267438,153.4743228506279L161.58635959625246,149.99511997484478L162.4413138798305,151.06857364805148L163.29626816340854,148.33175041459356L164.15122244698662,149.14916372026914L165.00617673056465,154.40903603345714L165.8611310141427,149.3881046155526L166.71608529772078,150.11796981093084L167.57103958129883,149.1858396812081L168.4259938648769,148.40063183076666L169.28094814845494,151.37934377873466L170.13590243203302,151.75852028134148L170.99085671561105,152.59952462376305L171.8458109991891,152.69583984534302L172.70076528276718,150.4544941262817L173.5557195663452,155.13963500254215L174.41067384992326,154.299411089959L175.26562813350134,150.957300894813L176.12058241707936,156.49681097447785L176.97553670065744,150.7182836531323L177.8304909842355,154.43216262961994L178.68544526781355,149.82202360571102L179.5403995513916,152.59749932350303L180.39535383496965,151.7849997567829L181.25030811854774,148.14699637474848L182.10526240212576,154.1482664307639L182.9602166857038,153.4178816557378L183.8151709692819,149.96672335653943L184.67012525285992,151.20462504865964L185.525079536438,152.69567654888226L186.38003382001605,149.16221895419653L187.23498810359408,151.62507102043912L188.08994238717216,152.58789664331732L188.9448966707502,150.22335965011564L189.79985095432824,150.5750323631181L190.65480523790632,152.78045498154654L191.50975952148437,152.40015873178027L192.36471380506245,149.69734357682455L193.21966808864047,155.26699563826492L194.07462237221856,151.94309405885974L194.9295766557966,151.70407045497927L195.78453093937463,152.11873742863463L196.63948522295271,153.31507699039275L197.49443950653077,151.91727625219437L198.3493937901088,152.5190067442112L199.20434807368687,153.89440405628727L200.05930235726493,153.82373062051238L200.91425664084298,150.3119914551071L201.76921092442103,154.2238111908291L202.62416520799908,149.08108182053377L203.47911949157717,153.51641940577065L204.3340737751552,152.65640481043727L205.18902805873327,154.49817257296365L206.04398234231132,153.20274387052598L206.89893662588935,153.71643000066342L207.75389090946743,154.4620819344035L208.60884519304548,152.4707621833577L209.46379947662354,151.6604575755581L210.3187537602016,153.99194506168953L211.17370804377964,155.3441966910035L212.0286623273577,153.06311903438052L212.88361661093575,154.81438662591643L213.73857089451383,155.69750661008004L214.59352517809188,153.07062643010875L215.4484794616699,151.09353679921446L216.303433745248,155.6167978645351L217.15838802882604,154.60831285464315L218.01334231240406,157.43220915414895L218.86829659598214,155.40040248450214L219.7232508795602,151.49674333035136L220.57820516313825,154.94739901576793L221.4331594467163,155.04857071650542L222.28811373029438,154.89925625011074L223.1430680138724,153.55969084713752L223.99802229745046,152.5135734256079L224.85297658102854,155.5855043246013L225.7079308646066,156.5476025359725L226.56288514818462,155.3620850760226L227.4178394317627,155.82414195502906L228.27279371534075,155.17567474350415L229.1277479989188,151.0157440618973L229.98270228249686,156.61395815883702L230.83765656607494,152.73833721907124L231.69261084965297,157.7312643543229L232.54756513323102,157.29729870803283L233.4025194168091,155.86936659172522L234.25747370038712,156.89174876664742L235.11242798396518,156.16174996507402L235.96738226754326,156.11122773670297L236.8223365511213,154.50205775628967L237.67729083469936,158.46266496057888L238.53224511827742,152.339467587444L239.38719940185547,157.3920021723378L240.24215368543352,155.56353140733006L241.09710796901157,154.8081389457426L241.95206225258966,155.86150079207664L242.80701653616768,157.22638562939994L243.66197081974573,158.3435794260232L244.5169251033238,157.35782443517508L245.37187938690184,152.56431621023762L246.22683367047992,157.37731609453613L247.08178795405797,155.36554823343056L247.93674223763603,157.4203966699099L248.79169652121408,156.70672115221225L249.64665080479213,152.85944169168715L250.5016050883702,155.93524929107355L251.35655937194824,155.87270462587105L252.2115136555263,156.09493626382607L253.06646793910437,155.87387527062867L253.9214222226824,156.08391481309172L254.77637650626045,154.8878488259237L255.63133078983853,156.9465951701286L256.4862850734166,157.5513498277693L257.3412393569946,154.07143014414544L258.1961936405727,155.4644719569161L259.05114792415077,159.77925433945052L259.9061022077288,155.4922705284431L260.7610564913069,156.19044984823506L261.6160107748849,156.87527703144372L262.470965058463,157.30175648933812L263.325919342041,156.97872639969876L264.1808736256191,156.9389541682052L265.0358279091971,154.05472300755025L265.8907821927752,157.42145279507167L266.7457364763533,154.998012435669L267.6006907599313,158.80603712361517L268.4556450435093,158.48612027039644L269.3105993270874,156.6957103051442L270.1655536106654,158.46644834870858L271.0205078942435,156.017904869748L271.8754621778216,158.21754636931905L272.7304164613996,159.08513834457813L273.5853707449777,153.8980050613569L274.4403250285557,157.22263617300234L275.2952793121338,157.29541761763426L276.1502335957118,157.90325370069672L277.0051878792899,157.25422237412556L277.860142162868,156.4660030824598L278.715096446446,153.95889131315278L279.57005073002404,158.02838968723336L280.4250050136021,158.00698724720814L281.27995929718014,160.85278860052097L282.1349135807582,159.05778300630175L282.9898678643363,157.24915382164238L283.84482214791433,156.24021921630003L284.6997764314924,159.0520782338416L285.55473071507043,158.66675796699053L286.4096849986485,156.25232012026197L287.26463928222654,156.70679537787623L288.1195935658046,157.00119556855202" fill="none"></path></g></g></g></g></g></g><g transform="translate(30, 177)" clip-path="url(#clip_1)"><clipPath id="clip_1"><rect width="299" height="22"></rect></clipPath><g><g><line x1="0" y1="0" x2="0" y2="5" style="visibility: inherit;" fill="rgb(0, 0, 0)" stroke="rgb(204, 204, 204)" stroke-width="1px"></line><line x1="21.37385708945138" y1="0" x2="21.37385708945138" y2="5" style="visibility: inherit;" fill="rgb(0, 0, 0)" stroke="rgb(204, 204, 204)" stroke-width="1px"></line><line x1="42.74771417890276" y1="0" x2="42.74771417890276" y2="5" style="visibility: inherit;" fill="rgb(0, 0, 0)" stroke="rgb(204, 204, 204)" stroke-width="1px"></line><line x1="64.12157126835415" y1="0" x2="64.12157126835415" y2="5" style="visibility: inherit;" fill="rgb(0, 0, 0)" stroke="rgb(204, 204, 204)" stroke-width="1px"></line><line x1="85.49542835780552" y1="0" x2="85.49542835780552" y2="5" style="visibility: inherit;" fill="rgb(0, 0, 0)" stroke="rgb(204, 204, 204)" stroke-width="1px"></line><line x1="106.86928544725691" y1="0" x2="106.86928544725691" y2="5" style="visibility: inherit;" fill="rgb(0, 0, 0)" stroke="rgb(204, 204, 204)" stroke-width="1px"></line><line x1="128.2431425367083" y1="0" x2="128.2431425367083" y2="5" style="visibility: inherit;" fill="rgb(0, 0, 0)" stroke="rgb(204, 204, 204)" stroke-width="1px"></line><line x1="149.61699962615967" y1="0" x2="149.61699962615967" y2="5" style="visibility: inherit;" fill="rgb(0, 0, 0)" stroke="rgb(204, 204, 204)" stroke-width="1px"></line><line x1="170.99085671561105" y1="0" x2="170.99085671561105" y2="5" style="visibility: inherit;" fill="rgb(0, 0, 0)" stroke="rgb(204, 204, 204)" stroke-width="1px"></line><line x1="192.36471380506245" y1="0" x2="192.36471380506245" y2="5" style="visibility: inherit;" fill="rgb(0, 0, 0)" stroke="rgb(204, 204, 204)" stroke-width="1px"></line><line x1="213.73857089451383" y1="0" x2="213.73857089451383" y2="5" style="visibility: inherit;" fill="rgb(0, 0, 0)" stroke="rgb(204, 204, 204)" stroke-width="1px"></line><line x1="235.11242798396518" y1="0" x2="235.11242798396518" y2="5" style="visibility: inherit;" fill="rgb(0, 0, 0)" stroke="rgb(204, 204, 204)" stroke-width="1px"></line><line x1="256.4862850734166" y1="0" x2="256.4862850734166" y2="5" style="visibility: inherit;" fill="rgb(0, 0, 0)" stroke="rgb(204, 204, 204)" stroke-width="1px"></line><line x1="277.860142162868" y1="0" x2="277.860142162868" y2="5" style="visibility: inherit;" fill="rgb(0, 0, 0)" stroke="rgb(204, 204, 204)" stroke-width="1px"></line><line x1="299.23399925231934" y1="0" x2="299.23399925231934" y2="5" style="visibility: inherit;" fill="rgb(0, 0, 0)" stroke="rgb(204, 204, 204)" stroke-width="1px"></line></g><g transform="translate(0, 8)"><text style="text-anchor: middle; visibility: hidden; font-family: Roboto, sans-serif; font-size: 12px; font-weight: 200;" x="0" y="0" dx="0em" dy="0.95em" fill="rgb(50, 49, 63)" stroke="none" stroke-width="1px">-500</text><text style="text-anchor: middle; visibility: hidden; font-family: Roboto, sans-serif; font-size: 12px; font-weight: 200;" x="21.37385708945138" y="0" dx="0em" dy="0.95em" fill="rgb(50, 49, 63)" stroke="none" stroke-width="1px">0</text><text style="text-anchor: middle; visibility: hidden; font-family: Roboto, sans-serif; font-size: 12px; font-weight: 200;" x="42.74771417890276" y="0" dx="0em" dy="0.95em" fill="rgb(50, 49, 63)" stroke="none" stroke-width="1px">500</text><text style="text-anchor: middle; visibility: hidden; font-family: Roboto, sans-serif; font-size: 12px; font-weight: 200;" x="64.12157126835415" y="0" dx="0em" dy="0.95em" fill="rgb(50, 49, 63)" stroke="none" stroke-width="1px">1k</text><text style="text-anchor: middle; visibility: hidden; font-family: Roboto, sans-serif; font-size: 12px; font-weight: 200;" x="85.49542835780552" y="0" dx="0em" dy="0.95em" fill="rgb(50, 49, 63)" stroke="none" stroke-width="1px">1.5k</text><text style="text-anchor: middle; visibility: hidden; font-family: Roboto, sans-serif; font-size: 12px; font-weight: 200;" x="106.86928544725691" y="0" dx="0em" dy="0.95em" fill="rgb(50, 49, 63)" stroke="none" stroke-width="1px">2k</text><text style="text-anchor: middle; visibility: hidden; font-family: Roboto, sans-serif; font-size: 12px; font-weight: 200;" x="128.2431425367083" y="0" dx="0em" dy="0.95em" fill="rgb(50, 49, 63)" stroke="none" stroke-width="1px">2.5k</text><text style="text-anchor: middle; visibility: hidden; font-family: Roboto, sans-serif; font-size: 12px; font-weight: 200;" x="149.61699962615967" y="0" dx="0em" dy="0.95em" fill="rgb(50, 49, 63)" stroke="none" stroke-width="1px">3k</text><text style="text-anchor: middle; visibility: hidden; font-family: Roboto, sans-serif; font-size: 12px; font-weight: 200;" x="170.99085671561105" y="0" dx="0em" dy="0.95em" fill="rgb(50, 49, 63)" stroke="none" stroke-width="1px">3.5k</text><text style="text-anchor: middle; visibility: hidden; font-family: Roboto, sans-serif; font-size: 12px; font-weight: 200;" x="192.36471380506245" y="0" dx="0em" dy="0.95em" fill="rgb(50, 49, 63)" stroke="none" stroke-width="1px">4k</text><text style="text-anchor: middle; visibility: hidden; font-family: Roboto, sans-serif; font-size: 12px; font-weight: 200;" x="213.73857089451383" y="0" dx="0em" dy="0.95em" fill="rgb(50, 49, 63)" stroke="none" stroke-width="1px">4.5k</text><text style="text-anchor: middle; visibility: hidden; font-family: Roboto, sans-serif; font-size: 12px; font-weight: 200;" x="235.11242798396518" y="0" dx="0em" dy="0.95em" fill="rgb(50, 49, 63)" stroke="none" stroke-width="1px">5k</text><text style="text-anchor: middle; visibility: hidden; font-family: Roboto, sans-serif; font-size: 12px; font-weight: 200;" x="256.4862850734166" y="0" dx="0em" dy="0.95em" fill="rgb(50, 49, 63)" stroke="none" stroke-width="1px">5.5k</text><text style="text-anchor: middle; visibility: hidden; font-family: Roboto, sans-serif; font-size: 12px; font-weight: 200;" x="277.860142162868" y="0" dx="0em" dy="0.95em" fill="rgb(50, 49, 63)" stroke="none" stroke-width="1px">6k</text><text style="text-anchor: middle; visibility: hidden; font-family: Roboto, sans-serif; font-size: 12px; font-weight: 200;" x="299.23399925231934" y="0" dx="0em" dy="0.95em" fill="rgb(50, 49, 63)" stroke="none" stroke-width="1px">6.5k</text></g><line x1="0" y1="0" x2="299.23399925231934" y2="0" fill="rgb(0, 0, 0)" stroke="rgb(204, 204, 204)" stroke-width="1px"></line></g></g></g></g></svg>