<svg viewBox="0 0 330 200" xmlns="http://www.w3.org/2000/svg"><g><g><g><g><g><line x1="30.766000747680664" y1="177.89999961853027" x2="25.766000747680664" y2="177.89999961853027" style="visibility: inherit;" fill="rgb(0, 0, 0)" stroke="rgb(204, 204, 204)" stroke-width="1px"></line><line x1="30.766000747680664" y1="164.21538426325873" x2="25.766000747680664" y2="164.21538426325873" style="visibility: inherit;" fill="rgb(0, 0, 0)" stroke="rgb(204, 204, 204)" stroke-width="1px"></line><line x1="30.766000747680664" y1="150.53076890798715" x2="25.766000747680664" y2="150.53076890798715" style="visibility: inherit;" fill="rgb(0, 0, 0)" stroke="rgb(204, 204, 204)" stroke-width="1px"></line><line x1="30.766000747680664" y1="136.84615355271558" x2="25.766000747680664" y2="136.84615355271558" style="visibility: inherit;" fill="rgb(0, 0, 0)" stroke="rgb(204, 204, 204)" stroke-width="1px"></line><line x1="30.766000747680664" y1="123.16153819744403" x2="25.766000747680664" y2="123.16153819744403" style="visibility: inherit;" fill="rgb(0, 0, 0)" stroke="rgb(204, 204, 204)" stroke-width="1px"></line><line x1="30.766000747680664" y1="109.47692284217248" x2="25.766000747680664" y2="109.47692284217248" style="visibility: inherit;" fill="rgb(0, 0, 0)" stroke="rgb(204, 204, 204)" stroke-width="1px"></line><line x1="30.766000747680664" y1="95.79230748690091" x2="25.766000747680664" y2="95.79230748690091" style="visibility: inherit;" fill="rgb(0, 0, 0)" stroke="rgb(204, 204, 204)" stroke-width="1px"></line><line x1="30.766000747680664" y1="82.10769213162936" x2="25.766000747680664" y2="82.10769213162936" style="visibility: inherit;" fill="rgb(0, 0, 0)" stroke="rgb(204, 204, 204)" stroke-width="1px"></line><line x1="30.766000747680664" y1="68.42307677635779" x2="25.766000747680664" y2="68.42307677635779" style="visibility: inherit;" fill="rgb(0, 0, 0)" stroke="rgb(204, 204, 204)" stroke-width="1px"></line><line x1="30.766000747680664" y1="54.73846142108624" x2="25.766000747680664" y2="54.73846142108624" style="visibility: inherit;" fill="rgb(0, 0, 0)" stroke="rgb(204, 204, 204)" stroke-width="1px"></line><line x1="30.766000747680664" y1="41.05384606581467" x2="25.766000747680664" y2="41.05384606581467" style="visibility: inherit;" fill="rgb(0, 0, 0)" stroke="rgb(204, 204, 204)" stroke-width="1px"></line><line x1="30.766000747680664" y1="27.36923071054312" x2="25.766000747680664" y2="27.36923071054312" style="visibility: inherit;" fill="rgb(0, 0, 0)" stroke="rgb(204, 204, 204)" stroke-width="1px"></line><line x1="30.766000747680664" y1="13.68461535527155" x2="25.766000747680664" y2="13.68461535527155" style="visibility: inherit;" fill="rgb(0, 0, 0)" stroke="rgb(204, 204, 204)" stroke-width="1px"></line><line x1="30.766000747680664" y1="0" x2="25.766000747680664" y2="0" style="visibility: inherit;" fill="rgb(0, 0, 0)" stroke="rgb(204, 204, 204)" stroke-width="1px"></line></g><g transform="translate(20.766000747680664, 0)"><text style="text-anchor: end; visibility: hidden; font-family: Roboto, sans-serif; font-size: 12px; font-weight: 200;" x="0" y="177.89999961853027" dx="0em" dy="0.3em" fill="rgb(50, 49, 63)" stroke="none" stroke-width="1px">0</text><text style="text-anchor: end; visibility: inherit; font-family: Roboto, sans-serif; font-size: 12px; font-weight: 200;" x="0" y="164.21538426325873" dx="0em" dy="0.3em" fill="rgb(50, 49, 63)" stroke="none" stroke-width="1px">1</text><text style="text-anchor: end; visibility: hidden; font-family: Roboto, sans-serif; font-size: 12px; font-weight: 200;" x="0" y="150.53076890798715" dx="0em" dy="0.3em" fill="rgb(50, 49, 63)" stroke="none" stroke-width="1px">2</text><text style="text-anchor: end; visibility: inherit; font-family: Roboto, sans-serif; font-size: 12px; font-weight: 200;" x="0" y="136.84615355271558" dx="0em" dy="0.3em" fill="rgb(50, 49, 63)" stroke="none" stroke-width="1px">3</text><text style="text-anchor: end; visibility: hidden; font-family: Roboto, sans-serif; font-size: 12px; font-weight: 200;" x="0" y="123.16153819744403" dx="0em" dy="0.3em" fill="rgb(50, 49, 63)" stroke="none" stroke-width="1px">4</text><text style="text-anchor: end; visibility: inherit; font-family: Roboto, sans-serif; font-size: 12px; font-weight: 200;" x="0" y="109.47692284217248" dx="0em" dy="0.3em" fill="rgb(50, 49, 63)" stroke="none" stroke-width="1px">5</text><text style="text-anchor: end; visibility: hidden; font-family: Roboto, sans-serif; font-size: 12px; font-weight: 200;" x="0" y="95.79230748690091" dx="0em" dy="0.3em" fill="rgb(50, 49, 63)" stroke="none" stroke-width="1px">6</text><text style="text-anchor: end; visibility: inherit; font-family: Roboto, sans-serif; font-size: 12px; font-weight: 200;" x="0" y="82.10769213162936" dx="0em" dy="0.3em" fill="rgb(50, 49, 63)" stroke="none" stroke-width="1px">7</text><text style="text-anchor: end; visibility: hidden; font-family: Roboto, sans-serif; font-size: 12px; font-weight: 200;" x="0" y="68.42307677635779" dx="0em" dy="0.3em" fill="rgb(50, 49, 63)" stroke="none" stroke-width="1px">8</text><text style="text-anchor: end; visibility: inherit; font-family: Roboto, sans-serif; font-size: 12px; font-weight: 200;" x="0" y="54.73846142108624" dx="0em" dy="0.3em" fill="rgb(50, 49, 63)" stroke="none" stroke-width="1px">9</text><text style="text-anchor: end; visibility: hidden; font-family: Roboto, sans-serif; font-size: 12px; font-weight: 200;" x="0" y="41.05384606581467" dx="0em" dy="0.3em" fill="rgb(50, 49, 63)" stroke="none" stroke-width="1px">10</text><text style="text-anchor: end; visibility: inherit; font-family: Roboto, sans-serif; font-size: 12px; font-weight: 200;" x="0" y="27.36923071054312" dx="0em" dy="0.3em" fill="rgb(50, 49, 63)" stroke="none" stroke-width="1px">11</text><text style="text-anchor: end; visibility: hidden; font-family: Roboto, sans-serif; font-size: 12px; font-weight: 200;" x="0" y="13.68461535527155" dx="0em" dy="0.3em" fill="rgb(50, 49, 63)" stroke="none" stroke-width="1px">12</text><text style="text-anchor: end; visibility: hidden; font-family: Roboto, sans-serif; font-size: 12px; font-weight: 200;" x="0" y="0" dx="0em" dy="0.3em" fill="rgb(50, 49, 63)" stroke="none" stroke-width="1px">13</text></g><line x1="30.766000747680664" y1="0" x2="30.766000747680664" y2="177.89999961853027" fill="rgb(0, 0, 0)" stroke="rgb(204, 204, 204)" stroke-width="1px"></line></g></g><g transform="translate(30, 0)" clip-path="url(#clip_0)"><clipPath id="clip_0"><rect width="299" height="177"></rect></clipPath><g><g><g><line x1="0" y1="0" x2="0" y2="177.89999961853027" fill="rgb(0, 0, 0)" stroke="rgb(60, 60, 60)" stroke-width="1px" opacity="0.25"></line><line x1="21.37385708945138" y1="0" x2="21.37385708945138" y2="177.89999961853027" fill="rgb(0, 0, 0)" stroke="rgb(60, 60, 60)" stroke-width="1px" opacity="0.25"></line><line x1="42.74771417890276" y1="0" x2="42.74771417890276" y2="177.89999961853027" fill="rgb(0, 0, 0)" stroke="rgb(60, 60, 60)" stroke-width="1px" opacity="0.25"></line><line x1="64.12157126835415" y1="0" x2="64.12157126835415" y2="177.89999961853027" fill="rgb(0, 0, 0)" stroke="rgb(60, 60, 60)" stroke-width="1px" opacity="0.25"></line><line x1="85.49542835780552" y1="0" x2="85.49542835780552" y2="177.89999961853027" fill="rgb(0, 0, 0)" stroke="rgb(60, 60, 60)" stroke-width="1px" opacity="0.25"></line><line x1="106.86928544725691" y1="0" x2="106.86928544725691" y2="177.89999961853027" fill="rgb(0, 0, 0)" stroke="rgb(60, 60, 60)" stroke-width="1px" opacity="0.25"></line><line x1="128.2431425367083" y1="0" x2="128.2431425367083" y2="177.89999961853027" fill="rgb(0, 0, 0)" stroke="rgb(60, 60, 60)" stroke-width="1px" opacity="0.25"></line><line x1="149.61699962615967" y1="0" x2="149.61699962615967" y2="177.89999961853027" fill="rgb(0, 0, 0)" stroke="rgb(60, 60, 60)" stroke-width="1px" opacity="0.25"></line><line x1="170.99085671561105" y1="0" x2="170.99085671561105" y2="177.89999961853027" fill="rgb(0, 0, 0)" stroke="rgb(60, 60, 60)" stroke-width="1px" opacity="0.25"></line><line x1="192.36471380506245" y1="0" x2="192.36471380506245" y2="177.89999961853027" fill="rgb(0, 0, 0)" stroke="rgb(60, 60, 60)" stroke-width="1px" opacity="0.25"></line><line x1="213.73857089451383" y1="0" x2="213.73857089451383" y2="177.89999961853027" fill="rgb(0, 0, 0)" stroke="rgb(60, 60, 60)" stroke-width="1px" opacity="0.25"></line><line x1="235.11242798396518" y1="0" x2="235.11242798396518" y2="177.89999961853027" fill="rgb(0, 0, 0)" stroke="rgb(60, 60, 60)" stroke-width="1px" opacity="0.25"></line><line x1="256.4862850734166" y1="0" x2="256.4862850734166" y2="177.89999961853027" fill="rgb(0, 0, 0)" stroke="rgb(60, 60, 60)" stroke-width="1px" opacity="0.25"></line><line x1="277.860142162868" y1="0" x2="277.860142162868" y2="177.89999961853027" fill="rgb(0, 0, 0)" stroke="rgb(60, 60, 60)" stroke-width="1px" opacity="0.25"></line><line x1="299.23399925231934" y1="0" x2="299.23399925231934" y2="177.89999961853027" fill="rgb(0, 0, 0)" stroke="rgb(60, 60, 60)" stroke-width="1px" opacity="0.25"></line></g><g><line x1="0" y1="177.89999961853027" x2="299.23399925231934" y2="177.89999961853027" fill="rgb(0, 0, 0)" stroke="rgb(60, 60, 60)" stroke-width="1px" opacity="0.25"></line><line x1="0" y1="164.21538426325873" x2="299.23399925231934" y2="164.21538426325873" fill="rgb(0, 0, 0)" stroke="rgb(60, 60, 60)" stroke-width="1px" opacity="0.25"></line><line x1="0" y1="150.53076890798715" x2="299.23399925231934" y2="150.53076890798715" fill="rgb(0, 0, 0)" stroke="rgb(60, 60, 60)" stroke-width="1px" opacity="0.25"></line><line x1="0" y1="136.84615355271558" x2="299.23399925231934" y2="136.84615355271558" fill="rgb(0, 0, 0)" stroke="rgb(60, 60, 60)" stroke-width="1px" opacity="0.25"></line><line x1="0" y1="123.16153819744403" x2="299.23399925231934" y2="123.16153819744403" fill="rgb(0, 0, 0)" stroke="rgb(60, 60, 60)" stroke-width="1px" opacity="0.25"></line><line x1="0" y1="109.47692284217248" x2="299.23399925231934" y2="109.47692284217248" fill="rgb(0, 0, 0)" stroke="rgb(60, 60, 60)" stroke-width="1px" opacity="0.25"></line><line x1="0" y1="95.79230748690091" x2="299.23399925231934" y2="95.79230748690091" fill="rgb(0, 0, 0)" stroke="rgb(60, 60, 60)" stroke-width="1px" opacity="0.25"></line><line x1="0" y1="82.10769213162936" x2="299.23399925231934" y2="82.10769213162936" fill="rgb(0, 0, 0)" stroke="rgb(60, 60, 60)" stroke-width="1px" opacity="0.25"></line><line x1="0" y1="68.42307677635779" x2="299.23399925231934" y2="68.42307677635779" fill="rgb(0, 0, 0)" stroke="rgb(60, 60, 60)" stroke-width="1px" opacity="0.25"></line><line x1="0" y1="54.73846142108624" x2="299.23399925231934" y2="54.73846142108624" fill="rgb(0, 0, 0)" stroke="rgb(60, 60, 60)" stroke-width="1px" opacity="0.25"></line><line x1="0" y1="41.05384606581467" x2="299.23399925231934" y2="41.05384606581467" fill="rgb(0, 0, 0)" stroke="rgb(60, 60, 60)" stroke-width="1px" opacity="0.25"></line><line x1="0" y1="27.36923071054312" x2="299.23399925231934" y2="27.36923071054312" fill="rgb(0, 0, 0)" stroke="rgb(60, 60, 60)" stroke-width="1px" opacity="0.25"></line><line x1="0" y1="13.68461535527155" x2="299.23399925231934" y2="13.68461535527155" fill="rgb(0, 0, 0)" stroke="rgb(60, 60, 60)" stroke-width="1px" opacity="0.25"></line><line x1="0" y1="0" x2="299.23399925231934" y2="0" fill="rgb(0, 0, 0)" stroke="rgb(60, 60, 60)" stroke-width="1px" opacity="0.25"></line></g></g></g><g><g><line x1="0" y1="177.89999961853027" x2="299.23399925231934" y2="177.89999961853027" fill="rgb(0, 0, 0)" stroke="rgb(153, 153, 153)" stroke-width="1.5px"></line></g></g><g><g><line x1="21.37385708945138" y1="0" x2="21.37385708945138" y2="177.89999961853027" fill="rgb(0, 0, 0)" stroke="rgb(153, 153, 153)" stroke-width="1.5px"></line></g></g><g><g><g><g><g><path style="fill: none;" stroke="rgb(255, 112, 67)" stroke-width="2px" d="M21.37385708945138,11.729142684728059L22.228811373029437,15.168270553561939L23.08376565660749,16.580963553441627L23.938719940185546,18.07156997542073L24.7936742237636,20.155867415453866L25.64862850734166,24.292177377582814L26.50358279091971,29.893021821811416L27.358537074497768,37.63053363714421L28.213491358075824,43.22268679300599L29.068445641653877,53.0847042554287L29.923399925231934,60.53787712589213L30.77835420880999,68.46831229351805L31.633308492388046,78.8969222100804L32.4882627759661,85.49492617237877L33.34321705954416,91.34821932071796L34.19817134312221,94.25032000021206L35.053125626700265,95.36820444471415L35.90807991027832,97.46733100188304L36.76303419385638,100.13264439848896L37.61798847743443,103.0479780600214L38.47294276101248,105.63232923480564L39.32789704459054,106.20382457085408L40.182851328168596,106.95815028967488L41.037805611746656,108.9134966994053L41.89275989532471,110.537451636433L42.74771417890276,111.15729447160511L43.602668462480814,113.23364695692742L44.457622746058874,113.95302160194858L45.312577029636934,115.64807895588174L46.16753131321498,117.10225818000941L47.02248559679304,116.13905594822918L47.87743988037109,117.92773485653964L48.73239416394915,118.89598603773973L49.5873484475272,119.53880731693503L50.44230273110526,119.81851300054647L51.29725701468332,120.51164138817106L52.15221129826137,122.24836460426208L53.00716558183942,122.85761624829809L53.862119865417476,123.52495866941909L54.717074148995536,124.1419294863898L55.572028432573596,124.28597655738265L56.42698271615165,123.12650859534074L57.2819369997297,123.47044519287114L58.136891283307754,126.43561488499915L58.991845566885814,125.93311440630606L59.84679985046387,126.16677234725046L60.70175413404192,126.60327596242557L61.55670841761998,125.86980121073134L62.41166270119803,127.26562143675538L63.26661698477609,128.3028044259304L64.12157126835415,128.9056243545355L64.9765255519322,130.36630116631565L65.83147983551025,129.7490297959842L66.68643411908832,131.8333367617274L67.54138840266636,132.05945669559108L68.39634268624442,130.7128666162345L69.25129696982248,132.8920234359522L70.10625125340053,131.84001972306473L70.96120553697858,132.9070210781227L71.81615982055663,130.5447086275842L72.6711141041347,131.01774800242615L73.52606838771275,131.05477961439874L74.38102267129081,129.96695850763334L75.23597695486886,131.96032887151765L76.09093123844691,132.8582764841055L76.94588552202497,132.67207923950252L77.80083980560303,132.48292868007724L78.65579408918109,133.09145470601777L79.51074837275914,131.64004678894185L80.36570265633719,131.93976196698765L81.22065693991524,132.91629639804034L82.07561122349331,132.48139394696L82.93056550707135,133.5376261987623L83.78551979064942,134.5793071889425L84.64047407422747,134.68801837774103L85.49542835780552,133.4965233594479L86.35038264138359,135.48228422830584L87.20533692496163,136.05868634308612L88.06029120853968,136.1972725922571L88.91524549211775,136.36654568797536L89.7701997756958,137.4426223661281L90.62515405927387,136.77255893531623L91.4801083428519,136.63628986347473L92.33506262642996,137.66517926549662L93.19001691000803,137.2181710455065L94.04497119358608,135.2897908669456L94.89992547716412,136.2803229657988L95.75487976074218,134.7660447830438L96.60983404432024,136.5623002208072L97.4647883278983,136.52154874742277L98.31974261147636,137.91328046492504L99.1746968950544,137.40314034838974L100.02965117863246,137.8002744604781L100.88460546221052,138.60883902388633L101.73955974578858,138.10907530585231L102.59451402936664,137.57856482098168L103.44946831294467,138.28520304015544L104.30442259652274,138.95614633818613L105.1593768801008,138.3781792239674L106.01433116367885,139.98706738597258L106.86928544725691,140.76617641205047L107.72423973083495,139.18815088201248L108.57919401441302,138.06270457045625L109.43414829799107,139.49316438409332L110.28910258156913,139.76989997652785L111.14405686514719,141.84463649969211L111.99901114872523,141.7770825400339L112.8539654323033,140.30813256314892L113.70891971588135,140.59316978332635L114.5638739994594,141.04322057893168L115.41882828303747,140.70789590487598L116.27378256661551,139.68117337992737L117.12873685019356,139.4062633982092L117.98369113377163,140.47175248890215L118.83864541734968,142.38172405731825L119.69359970092773,142.7902608341308L120.54855398450579,142.8932702808296L121.40350826808384,142.8116178057755L122.2584625516619,140.19702848028663L123.11341683523996,141.82628321295593L123.96837111881801,140.69064738612343L124.82332540239607,142.72391799921783L125.67827968597412,144.15895143075537L126.53323396955219,144.1305398770761L127.38818825313022,144.72960967563122L128.2431425367083,143.34359803501795L129.09809682028634,143.24261693673398L129.9530511038644,142.84953384500022L130.80800538744245,142.56258149634326L131.6629596710205,143.78226363676274L132.51791395459855,144.94137391834576L133.37286823817664,144.6526593330571L134.22782252175466,144.78453949670538L135.0827768053327,144.5175704527567L135.9377310889108,145.20510548956608L136.79268537248885,144.71687736132625L137.6476396560669,145.5838132221273L138.50259393964495,145.064918543156L139.357548223223,144.0849713103775L140.21250250680106,144.03612990639357L141.0674567903791,143.8944509976712L141.92241107395716,143.239010778688L142.77736535753522,143.11696298201312L143.63231964111327,144.72174720112932L144.48727392469135,145.7975581978438L145.3422282082694,146.81791213163532L146.19718249184743,145.84222122459374L147.0521367754255,145.05742643265316L147.90709105900356,145.6047155515637L148.76204534258162,145.63267834791844L149.61699962615967,145.0305177409374L150.47195390973772,145.51662462393872L151.32690819331577,145.56141191147665L152.18186247689383,146.44341483064292L153.0368167604719,147.71476098620977L153.89177104404993,147.57684041029034L154.74672532762798,146.0729422948521L155.60167961120607,146.90789897389752L156.45663389478412,146.5640524609747L157.31158817836217,145.1669091099303L158.16654246194022,146.16322832995598L159.02149674551828,147.02036661578282L159.87645102909633,146.71173983040228L160.73140531267438,148.5104066204238L161.58635959625246,148.151944653948L162.4413138798305,147.9977044595935L163.29626816340854,146.8438645072673L164.15122244698662,146.61384384393654L165.00617673056465,148.9253618815296L165.8611310141427,147.82502323305937L166.71608529772078,147.72810245771925L167.57103958129883,147.20120399455087L168.4259938648769,146.555740490705L169.28094814845494,147.27962351457248L170.13590243203302,148.17467708234767L170.99085671561105,148.7845071441108L171.8458109991891,149.37870309503742L172.70076528276718,148.6304112986551L173.5557195663452,150.51867350421568L174.41067384992326,151.3398236583064L175.26562813350134,150.0992345449737L176.12058241707936,151.75633024817287L176.97553670065744,150.36480582365976L177.8304909842355,151.08486630039377L178.68544526781355,149.19571370726325L179.5403995513916,149.52845014257286L180.39535383496965,149.34693685702345L181.25030811854774,147.5016325282862L182.10526240212576,149.06621885619015L182.9602166857038,150.0089145642564L183.8151709692819,148.9229323352855L184.67012525285992,148.74552329327057L185.525079536438,149.19019836597724L186.38003382001605,147.94684165573707L187.23498810359408,148.2528535771087L188.08994238717216,148.97176382041994L188.9448966707502,148.43173583090459L189.79985095432824,148.27808243369472L190.65480523790632,149.32635548741632L191.50975952148437,149.3795408930263L192.36471380506245,148.2226617324942L193.21966808864047,150.1081373990577L194.07462237221856,149.91506011707224L194.9295766557966,149.6192476711959L195.78453093937463,149.63736880885554L196.63948522295271,150.44954652297673L197.49443950653077,150.08146354908195L198.3493937901088,150.0117026323422L199.20434807368687,150.79136985842513L200.05930235726493,151.0257348854588L200.91425664084298,149.48288125835552L201.76921092442103,150.5188277684131L202.62416520799908,148.6624043460198L203.47911949157717,149.7358641328678L204.3340737751552,149.74835170944064L205.18902805873327,150.6933558273123L206.04398234231132,150.41328784283328L206.89893662588935,150.88637146946996L207.75389090946743,151.58665209037682L208.60884519304548,150.84415031487728L209.46379947662354,150.29005204604218L210.3187537602016,150.6664008670817L211.17370804377964,151.60496446350305L212.0286623273577,151.3250556865416L212.88361661093575,151.85705158009287L213.73857089451383,152.4261497978437L214.59352517809188,151.57689204626584L215.4484794616699,150.1880487604835L216.303433745248,151.48226826479578L217.15838802882604,151.87928398432197L218.01334231240406,153.41354398271952L218.86829659598214,153.44387227851837L219.7232508795602,151.59393947402566L220.57820516313825,152.07948702930457L221.4331594467163,152.296304741436L222.28811373029438,152.65145280216754L223.1430680138724,151.88732471984923L223.99802229745046,151.16851057108272L224.85297658102854,152.09532921879145L225.7079308646066,153.05436233629652L226.56288514818462,153.27026180194784L227.4178394317627,153.4060899448443L228.27279371534075,152.9585010774689L229.1277479989188,151.2116296286934L229.98270228249686,152.64292713580423L230.83765656607494,151.6108938002531L231.69261084965297,153.2753576735844L232.54756513323102,154.1589832820149L233.4025194168091,153.89584192832524L234.25747370038712,154.37688119111522L235.11242798396518,154.44110637397924L235.96738226754326,154.26421413682968L236.8223365511213,153.42715339566672L237.67729083469936,154.6399193512844L238.53224511827742,152.88822314907648L239.38719940185547,154.0529618899394L240.24215368543352,153.7626298902662L241.09710796901157,153.29098055909688L241.95206225258966,153.26609529078502L242.80701653616768,154.17576924539304L243.66197081974573,155.023569949092L244.5169251033238,154.9882607574043L245.37187938690184,152.9613562019338L246.22683367047992,153.95216595142452L247.08178795405797,153.41262199257184L247.93674223763603,154.23127785217167L248.79169652121408,154.26925957793821L249.64665080479213,152.54230794980697L250.5016050883702,153.00166501478878L251.35655937194824,153.300158376683L252.2115136555263,153.53477584300956L253.06646793910437,153.47770279103426L253.9214222226824,153.65126276005975L254.77637650626045,153.3225459907447L255.63133078983853,153.72672455911749L256.4862850734166,154.42459554498993L257.3412393569946,153.23483005340873L258.1961936405727,153.30777845744353L259.05114792415077,155.2469720976484L259.9061022077288,154.38848331496968L260.7610564913069,154.21693643479242L261.6160107748849,154.51491955190608L262.470965058463,154.58506262610734L263.325919342041,154.84953051751103L264.1808736256191,154.92900741175384L265.0358279091971,153.59737516356537L265.8907821927752,154.23553321836002L266.7457364763533,153.61859237036504L267.6006907599313,154.79296833285434L268.4556450435093,155.45978939304982L269.3105993270874,154.93579763515308L270.1655536106654,155.6120917018846L271.0205078942435,154.95110277200797L271.8754621778216,155.54094989117203L272.7304164613996,156.18926292107938L273.5853707449777,154.5191916682302L274.4403250285557,154.79540098464688L275.2952793121338,154.8392561909087L276.1502335957118,155.368183749004L277.0051878792899,155.32601792140957L277.860142162868,155.01544325998015L278.715096446446,153.6067130343072L279.57005073002404,154.55175223676054L280.4250050136021,155.03495393940025L281.27995929718014,156.66837318221496L282.1349135807582,156.9843794255428L282.9898678643363,156.433462270347L283.84482214791433,155.44766151881686L284.6997764314924,156.25314134319424L285.55473071507043,156.3785988942411L286.4096849986485,155.54238814399912L287.26463928222654,154.969372429768L288.1195935658046,154.77432624011064" fill="none"></path></g></g></g></g><g opacity="0.2"><g><g><g><path style="fill: none;" stroke="rgb(255, 112, 67)" stroke-width="2px" d="M21.37385708945138,11.729142684728059L22.228811373029437,17.23174727486227L23.08376565660749,17.937148833326116L23.938719940185546,19.82452312766816L24.7936742237636,22.877126153161246L25.64862850734166,30.01418312679351L26.50358279091971,37.9023189905694L27.358537074497768,48.91190014401289L28.213491358075824,51.47002647807312L29.068445641653877,67.7286508281633L29.923399925231934,71.65003670220568L30.77835420880999,80.32080796698281L31.633308492388046,94.50578586414079L32.4882627759661,95.37900593919613L33.34321705954416,100.12127871685502L34.19817134312221,98.60142423320843L35.053125626700265,97.044558060235L35.90807991027832,100.6154878696309L36.76303419385638,104.13020845972824L37.61798847743443,107.42071207927577L38.47294276101248,109.50871426502158L39.32789704459054,107.06104876962922L40.182851328168596,108.08962397506059L41.037805611746656,111.84649315105861L41.89275989532471,112.97337249959793L42.74771417890276,112.0870560810167L43.602668462480814,116.34817037209393L44.457622746058874,115.0320824650708L45.312577029636934,118.19066342539406L46.16753131321498,119.28352621249815L47.02248559679304,114.6942529199672L47.87743988037109,120.61075286311802L48.73239416394915,120.34836269395012L49.5873484475272,120.50303918968405L50.44230273110526,120.23807151394277L51.29725701468332,121.55133395173485L52.15221129826137,124.85344940152868L53.00716558183942,123.77149370869643L53.862119865417476,124.52597229738365L54.717074148995536,125.06738570978402L55.572028432573596,124.50204716358309L56.42698271615165,121.3873066536728L57.2819369997297,123.98635008891847L58.136891283307754,130.88336942190696L58.991845566885814,125.17936368839696L59.84679985046387,126.51725925863065L60.70175413404192,127.25803138514738L61.55670841761998,124.76958908323118L62.41166270119803,129.35935177574441L63.26661698477609,129.85857890967193L64.12157126835415,129.80985424743582L64.9765255519322,132.55731638397526L65.83147983551025,128.82312274048968L66.68643411908832,134.9597972103367L67.54138840266636,132.39863659638627L68.39634268624442,128.69298149720092L69.25129696982248,136.1607586655275L70.10625125340053,130.2620141537339L70.96120553697858,134.5075231107094L71.81615982055663,127.0012399517768L72.6711141041347,131.727307064689L73.52606838771275,131.11032703235756L74.38102267129081,128.33522684748527L75.23597695486886,134.9503844173441L76.09093123844691,134.20519790298718L76.94588552202497,132.39278337259816L77.80083980560303,132.19920284093928L78.65579408918109,134.00424374492854L79.51074837275914,129.46293491332793L80.36570265633719,132.38933473405635L81.22065693991524,134.38109804461942L82.07561122349331,131.8290402703395L82.93056550707135,135.12197457646573L83.78551979064942,136.14182867421277L84.64047407422747,134.85108516093882L85.49542835780552,131.70928083200823L86.35038264138359,138.46092553159275L87.20533692496163,136.92328951525656L88.06029120853968,136.4051519660136L88.91524549211775,136.62045533155273L89.7701997756958,139.0567373833572L90.62515405927387,135.76746378909843L91.4801083428519,136.43188625571244L92.33506262642996,139.20851336852942L93.19001691000803,136.54765871552138L94.04497119358608,132.39722059910423L94.89992547716412,137.76612111407863L95.75487976074218,132.49462750891132L96.60983404432024,139.2566833774523L97.4647883278983,136.4604215373461L98.31974261147636,140.00087804117845L99.1746968950544,136.6379301735868L100.02965117863246,138.39597562861067L100.88460546221052,139.8216858689987L101.73955974578858,137.35942972880122L102.59451402936664,136.78279909367575L103.44946831294467,139.34516036891603L104.30442259652274,139.96256128523223L105.1593768801008,137.5112285526393L106.01433116367885,142.40039962898032L106.86928544725691,141.93483995116733L107.72423973083495,136.82111258695545L108.57919401441302,136.37453510312193L109.43414829799107,141.63885410454895L110.28910258156913,140.18500336517963L111.14405686514719,144.95674128443852L111.99901114872523,141.67575160054656L112.8539654323033,138.10470759782152L113.70891971588135,141.02072561359242L114.5638739994594,141.71829677233973L115.41882828303747,140.20490889379238L116.27378256661551,138.14108959250444L117.12873685019356,138.993898425632L117.98369113377163,142.06998612494158L118.83864541734968,145.24668140994243L119.69359970092773,143.4030659993496L120.54855398450579,143.04778445087777L121.40350826808384,142.6891390931944L122.2584625516619,136.2751444920533L123.11341683523996,144.27016531195983L123.96837111881801,138.98719364587473L124.82332540239607,145.77382391885942L125.67827968597412,146.31150157806167L126.53323396955219,144.0879225465572L127.38818825313022,145.62821437346395L128.2431425367083,141.26458057409798L129.09809682028634,143.0911452893081L129.9530511038644,142.25990920739955L130.80800538744245,142.13215297335776L131.6629596710205,145.61178684739195L132.51791395459855,146.68003934072027L133.37286823817664,144.21958745512416L134.22782252175466,144.98235974217778L135.0827768053327,144.11711688683366L135.9377310889108,146.23640804478012L136.79268537248885,143.98453516896657L137.6476396560669,146.88421701332888L138.50259393964495,144.28657652469906L139.357548223223,142.6150504612098L140.21250250680106,143.9628678004176L141.0674567903791,143.68193263458772L141.92241107395716,142.25585045021313L142.77736535753522,142.9338912870008L143.63231964111327,147.12892352980361L144.48727392469135,147.41127469291558L145.3422282082694,148.34844303232262L146.19718249184743,144.37868486403136L147.0521367754255,143.88023424474235L147.90709105900356,146.42564922992943L148.76204534258162,145.6746225424506L149.61699962615967,144.12727683046586L150.47195390973772,146.24578494844067L151.32690819331577,145.62859284278358L152.18186247689383,147.76641920939238L153.0368167604719,149.62178021956L153.89177104404993,147.36995954641122L154.74672532762798,143.8170951216947L155.60167961120607,148.16033399246567L156.45663389478412,146.04828269159043L157.31158817836217,143.07119408336365L158.16654246194022,147.65770715999452L159.02149674551828,148.30607404452306L159.87645102909633,146.24879965233154L160.73140531267438,151.20840680545606L161.58635959625246,147.6142517042343L162.4413138798305,147.76634416806178L163.29626816340854,145.11310457877804L164.15122244698662,146.26881284894037L165.00617673056465,152.39263893791917L165.8611310141427,146.17451526035404L166.71608529772078,147.58272129470907L167.57103958129883,146.4108562997983L168.4259938648769,145.58754523493621L169.28094814845494,148.3654480503737L170.13590243203302,149.5172574340105L170.99085671561105,149.69925223675546L171.8458109991891,150.26999702142734L172.70076528276718,147.50797360408166L173.5557195663452,153.35106681255655L174.41067384992326,152.57154888944245L175.26562813350134,148.23835087497469L176.12058241707936,154.24197380297161L176.97553670065744,148.27751918689012L177.8304909842355,152.1649570154948L178.68544526781355,146.36198481756747L179.5403995513916,150.0275547955373L180.39535383496965,149.07466692869934L181.25030811854774,144.73367603518034L182.10526240212576,151.41309834804605L182.9602166857038,151.42295812635578L183.8151709692819,147.2939589918292L184.67012525285992,148.47940973024816L185.525079536438,149.85721097503722L186.38003382001605,146.08180659037683L187.23498810359408,148.71187145916616L188.08994238717216,150.05012918538674L188.9448966707502,147.62169384663156L189.79985095432824,148.04760233787997L190.65480523790632,150.8987650679987L191.50975952148437,149.45931900144126L192.36471380506245,146.48734299169607L193.21966808864047,152.93635089890296L194.07462237221856,149.62544419409403L194.9295766557966,149.17552900238138L195.78453093937463,149.664550515345L196.63948522295271,151.66781309415848L197.49443950653077,149.5293390882398L198.3493937901088,149.90706125723258L199.20434807368687,151.96087069754955L200.05930235726493,151.3772824260093L200.91425664084298,147.1686008177006L201.76921092442103,152.07274753349952L202.62416520799908,145.87776921242983L203.47911949157717,151.3460538131398L204.3340737751552,149.76708307429993L205.18902805873327,152.11086200411972L206.04398234231132,149.9931858661148L206.89893662588935,151.59599690942497L207.75389090946743,152.63707302173708L208.60884519304548,149.73039765162798L209.46379947662354,149.45890464278958L210.3187537602016,151.2309240986409L211.17370804377964,153.01280985813509L212.0286623273577,150.90519252109937L212.88361661093575,152.6550454204198L213.73857089451383,153.27979712446992L214.59352517809188,150.30300541889906L215.4484794616699,148.10478383180995L216.303433745248,153.4235975212642L217.15838802882604,152.47480756361125L218.01334231240406,155.71493398031583L218.86829659598214,153.48936472221672L219.7232508795602,148.81904026728657L220.57820516313825,152.807808362223L221.4331594467163,152.62153130963304L222.28811373029438,153.18417489326487L223.1430680138724,150.7411325963718L223.99802229745046,150.0902893479329L224.85297658102854,153.48555719035454L225.7079308646066,154.4929120125541L226.56288514818462,153.59411100042482L227.4178394317627,153.609832159189L228.27279371534075,152.28711777640578L229.1277479989188,148.59132245553016L229.98270228249686,154.7898733964705L230.83765656607494,150.06284379692647L231.69261084965297,155.77205348358137L232.54756513323102,155.48442169466057L233.4025194168091,153.5011298977908L234.25747370038712,155.09844008530013L235.11242798396518,154.5374441482753L235.96738226754326,153.9988757811053L236.8223365511213,152.17156228392233L237.67729083469936,156.45906828471084L238.53224511827742,150.26067884576466L239.38719940185547,155.80007000123382L240.24215368543352,153.32713189075636L241.09710796901157,152.5835065623429L241.95206225258966,153.22876738831724L242.80701653616768,155.5402801773051L243.66197081974573,156.29527100464045L244.5169251033238,154.9352969698727L245.37187938690184,149.92099936872802L246.22683367047992,155.43838057566063L247.08178795405797,152.60330605429283L247.93674223763603,155.4592616415714L248.79169652121408,154.32623216658806L249.64665080479213,149.9518805076101L250.5016050883702,153.6907006122615L251.35655937194824,153.74789841952423L252.2115136555263,153.88670204249942L253.06646793910437,153.39209321307135L253.9214222226824,153.911602713598L254.77637650626045,152.82947083677212L255.63133078983853,154.33299241167666L256.4862850734166,155.47140202379856L257.3412393569946,151.45018181603695L258.1961936405727,153.41720106349578L259.05114792415077,158.15576255795568L259.9061022077288,153.10075014095156L260.7610564913069,153.95961611452654L261.6160107748849,154.96189422757652L262.470965058463,154.6902772374093L263.325919342041,155.24623235461655L264.1808736256191,155.048222753118L265.0358279091971,151.5999267912827L265.8907821927752,155.19277030055196L266.7457364763533,152.6931810983726L267.6006907599313,156.5545322765883L268.4556450435093,156.46002098334301L269.3105993270874,154.149809998308L270.1655536106654,156.6265328019818L271.0205078942435,153.9596193771931L271.8754621778216,156.42572056991804L272.7304164613996,157.16173246594045L273.5853707449777,152.0140847889565L274.4403250285557,155.20971495927188L275.2952793121338,154.9050390003014L276.1502335957118,156.16157508614702L277.0051878792899,155.26276918001793L277.860142162868,154.54958126783595L278.715096446446,151.49361769579787L279.57005073002404,155.9693110404405L280.4250050136021,155.75975649335987L281.27995929718014,159.118502046437L282.1349135807582,157.45838879053457L282.9898678643363,155.60708653755333L283.84482214791433,153.9689603915216L284.6997764314924,157.46136107976028L285.55473071507043,156.5667852208114L286.4096849986485,154.28807201863614L287.26463928222654,154.10984885842132L288.1195935658046,154.48175695562458" fill="none"></path></g></g></g></g></g></g><g transform="translate(30, 177)" clip-path="url(#clip_1)"><clipPath id="clip_1"><rect width="299" height="22"></rect></clipPath><g><g><line x1="0" y1="0" x2="0" y2="5" style="visibility: inherit;" fill="rgb(0, 0, 0)" stroke="rgb(204, 204, 204)" stroke-width="1px"></line><line x1="21.37385708945138" y1="0" x2="21.37385708945138" y2="5" style="visibility: inherit;" fill="rgb(0, 0, 0)" stroke="rgb(204, 204, 204)" stroke-width="1px"></line><line x1="42.74771417890276" y1="0" x2="42.74771417890276" y2="5" style="visibility: inherit;" fill="rgb(0, 0, 0)" stroke="rgb(204, 204, 204)" stroke-width="1px"></line><line x1="64.12157126835415" y1="0" x2="64.12157126835415" y2="5" style="visibility: inherit;" fill="rgb(0, 0, 0)" stroke="rgb(204, 204, 204)" stroke-width="1px"></line><line x1="85.49542835780552" y1="0" x2="85.49542835780552" y2="5" style="visibility: inherit;" fill="rgb(0, 0, 0)" stroke="rgb(204, 204, 204)" stroke-width="1px"></line><line x1="106.86928544725691" y1="0" x2="106.86928544725691" y2="5" style="visibility: inherit;" fill="rgb(0, 0, 0)" stroke="rgb(204, 204, 204)" stroke-width="1px"></line><line x1="128.2431425367083" y1="0" x2="128.2431425367083" y2="5" style="visibility: inherit;" fill="rgb(0, 0, 0)" stroke="rgb(204, 204, 204)" stroke-width="1px"></line><line x1="149.61699962615967" y1="0" x2="149.61699962615967" y2="5" style="visibility: inherit;" fill="rgb(0, 0, 0)" stroke="rgb(204, 204, 204)" stroke-width="1px"></line><line x1="170.99085671561105" y1="0" x2="170.99085671561105" y2="5" style="visibility: inherit;" fill="rgb(0, 0, 0)" stroke="rgb(204, 204, 204)" stroke-width="1px"></line><line x1="192.36471380506245" y1="0" x2="192.36471380506245" y2="5" style="visibility: inherit;" fill="rgb(0, 0, 0)" stroke="rgb(204, 204, 204)" stroke-width="1px"></line><line x1="213.73857089451383" y1="0" x2="213.73857089451383" y2="5" style="visibility: inherit;" fill="rgb(0, 0, 0)" stroke="rgb(204, 204, 204)" stroke-width="1px"></line><line x1="235.11242798396518" y1="0" x2="235.11242798396518" y2="5" style="visibility: inherit;" fill="rgb(0, 0, 0)" stroke="rgb(204, 204, 204)" stroke-width="1px"></line><line x1="256.4862850734166" y1="0" x2="256.4862850734166" y2="5" style="visibility: inherit;" fill="rgb(0, 0, 0)" stroke="rgb(204, 204, 204)" stroke-width="1px"></line><line x1="277.860142162868" y1="0" x2="277.860142162868" y2="5" style="visibility: inherit;" fill="rgb(0, 0, 0)" stroke="rgb(204, 204, 204)" stroke-width="1px"></line><line x1="299.23399925231934" y1="0" x2="299.23399925231934" y2="5" style="visibility: inherit;" fill="rgb(0, 0, 0)" stroke="rgb(204, 204, 204)" stroke-width="1px"></line></g><g transform="translate(0, 8)"><text style="text-anchor: middle; visibility: hidden; font-family: Roboto, sans-serif; font-size: 12px; font-weight: 200;" x="0" y="0" dx="0em" dy="0.95em" fill="rgb(50, 49, 63)" stroke="none" stroke-width="1px">-500</text><text style="text-anchor: middle; visibility: hidden; font-family: Roboto, sans-serif; font-size: 12px; font-weight: 200;" x="21.37385708945138" y="0" dx="0em" dy="0.95em" fill="rgb(50, 49, 63)" stroke="none" stroke-width="1px">0</text><text style="text-anchor: middle; visibility: hidden; font-family: Roboto, sans-serif; font-size: 12px; font-weight: 200;" x="42.74771417890276" y="0" dx="0em" dy="0.95em" fill="rgb(50, 49, 63)" stroke="none" stroke-width="1px">500</text><text style="text-anchor: middle; visibility: hidden; font-family: Roboto, sans-serif; font-size: 12px; font-weight: 200;" x="64.12157126835415" y="0" dx="0em" dy="0.95em" fill="rgb(50, 49, 63)" stroke="none" stroke-width="1px">1k</text><text style="text-anchor: middle; visibility: hidden; font-family: Roboto, sans-serif; font-size: 12px; font-weight: 200;" x="85.49542835780552" y="0" dx="0em" dy="0.95em" fill="rgb(50, 49, 63)" stroke="none" stroke-width="1px">1.5k</text><text style="text-anchor: middle; visibility: hidden; font-family: Roboto, sans-serif; font-size: 12px; font-weight: 200;" x="106.86928544725691" y="0" dx="0em" dy="0.95em" fill="rgb(50, 49, 63)" stroke="none" stroke-width="1px">2k</text><text style="text-anchor: middle; visibility: hidden; font-family: Roboto, sans-serif; font-size: 12px; font-weight: 200;" x="128.2431425367083" y="0" dx="0em" dy="0.95em" fill="rgb(50, 49, 63)" stroke="none" stroke-width="1px">2.5k</text><text style="text-anchor: middle; visibility: hidden; font-family: Roboto, sans-serif; font-size: 12px; font-weight: 200;" x="149.61699962615967" y="0" dx="0em" dy="0.95em" fill="rgb(50, 49, 63)" stroke="none" stroke-width="1px">3k</text><text style="text-anchor: middle; visibility: hidden; font-family: Roboto, sans-serif; font-size: 12px; font-weight: 200;" x="170.99085671561105" y="0" dx="0em" dy="0.95em" fill="rgb(50, 49, 63)" stroke="none" stroke-width="1px">3.5k</text><text style="text-anchor: middle; visibility: hidden; font-family: Roboto, sans-serif; font-size: 12px; font-weight: 200;" x="192.36471380506245" y="0" dx="0em" dy="0.95em" fill="rgb(50, 49, 63)" stroke="none" stroke-width="1px">4k</text><text style="text-anchor: middle; visibility: hidden; font-family: Roboto, sans-serif; font-size: 12px; font-weight: 200;" x="213.73857089451383" y="0" dx="0em" dy="0.95em" fill="rgb(50, 49, 63)" stroke="none" stroke-width="1px">4.5k</text><text style="text-anchor: middle; visibility: hidden; font-family: Roboto, sans-serif; font-size: 12px; font-weight: 200;" x="235.11242798396518" y="0" dx="0em" dy="0.95em" fill="rgb(50, 49, 63)" stroke="none" stroke-width="1px">5k</text><text style="text-anchor: middle; visibility: hidden; font-family: Roboto, sans-serif; font-size: 12px; font-weight: 200;" x="256.4862850734166" y="0" dx="0em" dy="0.95em" fill="rgb(50, 49, 63)" stroke="none" stroke-width="1px">5.5k</text><text style="text-anchor: middle; visibility: hidden; font-family: Roboto, sans-serif; font-size: 12px; font-weight: 200;" x="277.860142162868" y="0" dx="0em" dy="0.95em" fill="rgb(50, 49, 63)" stroke="none" stroke-width="1px">6k</text><text style="text-anchor: middle; visibility: hidden; font-family: Roboto, sans-serif; font-size: 12px; font-weight: 200;" x="299.23399925231934" y="0" dx="0em" dy="0.95em" fill="rgb(50, 49, 63)" stroke="none" stroke-width="1px">6.5k</text></g><line x1="0" y1="0" x2="299.23399925231934" y2="0" fill="rgb(0, 0, 0)" stroke="rgb(204, 204, 204)" stroke-width="1px"></line></g></g></g></g></svg>