<svg viewBox="0 0 330 200" xmlns="http://www.w3.org/2000/svg"><g><g><g><g><g><line x1="30.766000747680664" y1="177.89999961853027" x2="25.766000747680664" y2="177.89999961853027" style="visibility: inherit;" fill="rgb(0, 0, 0)" stroke="rgb(204, 204, 204)" stroke-width="1px"></line><line x1="30.766000747680664" y1="164.21538426325873" x2="25.766000747680664" y2="164.21538426325873" style="visibility: inherit;" fill="rgb(0, 0, 0)" stroke="rgb(204, 204, 204)" stroke-width="1px"></line><line x1="30.766000747680664" y1="150.53076890798715" x2="25.766000747680664" y2="150.53076890798715" style="visibility: inherit;" fill="rgb(0, 0, 0)" stroke="rgb(204, 204, 204)" stroke-width="1px"></line><line x1="30.766000747680664" y1="136.84615355271558" x2="25.766000747680664" y2="136.84615355271558" style="visibility: inherit;" fill="rgb(0, 0, 0)" stroke="rgb(204, 204, 204)" stroke-width="1px"></line><line x1="30.766000747680664" y1="123.16153819744403" x2="25.766000747680664" y2="123.16153819744403" style="visibility: inherit;" fill="rgb(0, 0, 0)" stroke="rgb(204, 204, 204)" stroke-width="1px"></line><line x1="30.766000747680664" y1="109.47692284217248" x2="25.766000747680664" y2="109.47692284217248" style="visibility: inherit;" fill="rgb(0, 0, 0)" stroke="rgb(204, 204, 204)" stroke-width="1px"></line><line x1="30.766000747680664" y1="95.79230748690091" x2="25.766000747680664" y2="95.79230748690091" style="visibility: inherit;" fill="rgb(0, 0, 0)" stroke="rgb(204, 204, 204)" stroke-width="1px"></line><line x1="30.766000747680664" y1="82.10769213162936" x2="25.766000747680664" y2="82.10769213162936" style="visibility: inherit;" fill="rgb(0, 0, 0)" stroke="rgb(204, 204, 204)" stroke-width="1px"></line><line x1="30.766000747680664" y1="68.42307677635779" x2="25.766000747680664" y2="68.42307677635779" style="visibility: inherit;" fill="rgb(0, 0, 0)" stroke="rgb(204, 204, 204)" stroke-width="1px"></line><line x1="30.766000747680664" y1="54.73846142108624" x2="25.766000747680664" y2="54.73846142108624" style="visibility: inherit;" fill="rgb(0, 0, 0)" stroke="rgb(204, 204, 204)" stroke-width="1px"></line><line x1="30.766000747680664" y1="41.05384606581467" x2="25.766000747680664" y2="41.05384606581467" style="visibility: inherit;" fill="rgb(0, 0, 0)" stroke="rgb(204, 204, 204)" stroke-width="1px"></line><line x1="30.766000747680664" y1="27.36923071054312" x2="25.766000747680664" y2="27.36923071054312" style="visibility: inherit;" fill="rgb(0, 0, 0)" stroke="rgb(204, 204, 204)" stroke-width="1px"></line><line x1="30.766000747680664" y1="13.68461535527155" x2="25.766000747680664" y2="13.68461535527155" style="visibility: inherit;" fill="rgb(0, 0, 0)" stroke="rgb(204, 204, 204)" stroke-width="1px"></line><line x1="30.766000747680664" y1="0" x2="25.766000747680664" y2="0" style="visibility: inherit;" fill="rgb(0, 0, 0)" stroke="rgb(204, 204, 204)" stroke-width="1px"></line></g><g transform="translate(20.766000747680664, 0)"><text style="text-anchor: end; visibility: hidden; font-family: Roboto, sans-serif; font-size: 12px; font-weight: 200;" x="0" y="177.89999961853027" dx="0em" dy="0.3em" fill="rgb(50, 49, 63)" stroke="none" stroke-width="1px">0</text><text style="text-anchor: end; visibility: inherit; font-family: Roboto, sans-serif; font-size: 12px; font-weight: 200;" x="0" y="164.21538426325873" dx="0em" dy="0.3em" fill="rgb(50, 49, 63)" stroke="none" stroke-width="1px">1</text><text style="text-anchor: end; visibility: hidden; font-family: Roboto, sans-serif; font-size: 12px; font-weight: 200;" x="0" y="150.53076890798715" dx="0em" dy="0.3em" fill="rgb(50, 49, 63)" stroke="none" stroke-width="1px">2</text><text style="text-anchor: end; visibility: inherit; font-family: Roboto, sans-serif; font-size: 12px; font-weight: 200;" x="0" y="136.84615355271558" dx="0em" dy="0.3em" fill="rgb(50, 49, 63)" stroke="none" stroke-width="1px">3</text><text style="text-anchor: end; visibility: hidden; font-family: Roboto, sans-serif; font-size: 12px; font-weight: 200;" x="0" y="123.16153819744403" dx="0em" dy="0.3em" fill="rgb(50, 49, 63)" stroke="none" stroke-width="1px">4</text><text style="text-anchor: end; visibility: inherit; font-family: Roboto, sans-serif; font-size: 12px; font-weight: 200;" x="0" y="109.47692284217248" dx="0em" dy="0.3em" fill="rgb(50, 49, 63)" stroke="none" stroke-width="1px">5</text><text style="text-anchor: end; visibility: hidden; font-family: Roboto, sans-serif; font-size: 12px; font-weight: 200;" x="0" y="95.79230748690091" dx="0em" dy="0.3em" fill="rgb(50, 49, 63)" stroke="none" stroke-width="1px">6</text><text style="text-anchor: end; visibility: inherit; font-family: Roboto, sans-serif; font-size: 12px; font-weight: 200;" x="0" y="82.10769213162936" dx="0em" dy="0.3em" fill="rgb(50, 49, 63)" stroke="none" stroke-width="1px">7</text><text style="text-anchor: end; visibility: hidden; font-family: Roboto, sans-serif; font-size: 12px; font-weight: 200;" x="0" y="68.42307677635779" dx="0em" dy="0.3em" fill="rgb(50, 49, 63)" stroke="none" stroke-width="1px">8</text><text style="text-anchor: end; visibility: inherit; font-family: Roboto, sans-serif; font-size: 12px; font-weight: 200;" x="0" y="54.73846142108624" dx="0em" dy="0.3em" fill="rgb(50, 49, 63)" stroke="none" stroke-width="1px">9</text><text style="text-anchor: end; visibility: hidden; font-family: Roboto, sans-serif; font-size: 12px; font-weight: 200;" x="0" y="41.05384606581467" dx="0em" dy="0.3em" fill="rgb(50, 49, 63)" stroke="none" stroke-width="1px">10</text><text style="text-anchor: end; visibility: inherit; font-family: Roboto, sans-serif; font-size: 12px; font-weight: 200;" x="0" y="27.36923071054312" dx="0em" dy="0.3em" fill="rgb(50, 49, 63)" stroke="none" stroke-width="1px">11</text><text style="text-anchor: end; visibility: hidden; font-family: Roboto, sans-serif; font-size: 12px; font-weight: 200;" x="0" y="13.68461535527155" dx="0em" dy="0.3em" fill="rgb(50, 49, 63)" stroke="none" stroke-width="1px">12</text><text style="text-anchor: end; visibility: hidden; font-family: Roboto, sans-serif; font-size: 12px; font-weight: 200;" x="0" y="0" dx="0em" dy="0.3em" fill="rgb(50, 49, 63)" stroke="none" stroke-width="1px">13</text></g><line x1="30.766000747680664" y1="0" x2="30.766000747680664" y2="177.89999961853027" fill="rgb(0, 0, 0)" stroke="rgb(204, 204, 204)" stroke-width="1px"></line></g></g><g transform="translate(30, 0)" clip-path="url(#clip_0)"><clipPath id="clip_0"><rect width="299" height="177"></rect></clipPath><g><g><g><line x1="0" y1="0" x2="0" y2="177.89999961853027" fill="rgb(0, 0, 0)" stroke="rgb(60, 60, 60)" stroke-width="1px" opacity="0.25"></line><line x1="21.37385708945138" y1="0" x2="21.37385708945138" y2="177.89999961853027" fill="rgb(0, 0, 0)" stroke="rgb(60, 60, 60)" stroke-width="1px" opacity="0.25"></line><line x1="42.74771417890276" y1="0" x2="42.74771417890276" y2="177.89999961853027" fill="rgb(0, 0, 0)" stroke="rgb(60, 60, 60)" stroke-width="1px" opacity="0.25"></line><line x1="64.12157126835415" y1="0" x2="64.12157126835415" y2="177.89999961853027" fill="rgb(0, 0, 0)" stroke="rgb(60, 60, 60)" stroke-width="1px" opacity="0.25"></line><line x1="85.49542835780552" y1="0" x2="85.49542835780552" y2="177.89999961853027" fill="rgb(0, 0, 0)" stroke="rgb(60, 60, 60)" stroke-width="1px" opacity="0.25"></line><line x1="106.86928544725691" y1="0" x2="106.86928544725691" y2="177.89999961853027" fill="rgb(0, 0, 0)" stroke="rgb(60, 60, 60)" stroke-width="1px" opacity="0.25"></line><line x1="128.2431425367083" y1="0" x2="128.2431425367083" y2="177.89999961853027" fill="rgb(0, 0, 0)" stroke="rgb(60, 60, 60)" stroke-width="1px" opacity="0.25"></line><line x1="149.61699962615967" y1="0" x2="149.61699962615967" y2="177.89999961853027" fill="rgb(0, 0, 0)" stroke="rgb(60, 60, 60)" stroke-width="1px" opacity="0.25"></line><line x1="170.99085671561105" y1="0" x2="170.99085671561105" y2="177.89999961853027" fill="rgb(0, 0, 0)" stroke="rgb(60, 60, 60)" stroke-width="1px" opacity="0.25"></line><line x1="192.36471380506245" y1="0" x2="192.36471380506245" y2="177.89999961853027" fill="rgb(0, 0, 0)" stroke="rgb(60, 60, 60)" stroke-width="1px" opacity="0.25"></line><line x1="213.73857089451383" y1="0" x2="213.73857089451383" y2="177.89999961853027" fill="rgb(0, 0, 0)" stroke="rgb(60, 60, 60)" stroke-width="1px" opacity="0.25"></line><line x1="235.11242798396518" y1="0" x2="235.11242798396518" y2="177.89999961853027" fill="rgb(0, 0, 0)" stroke="rgb(60, 60, 60)" stroke-width="1px" opacity="0.25"></line><line x1="256.4862850734166" y1="0" x2="256.4862850734166" y2="177.89999961853027" fill="rgb(0, 0, 0)" stroke="rgb(60, 60, 60)" stroke-width="1px" opacity="0.25"></line><line x1="277.860142162868" y1="0" x2="277.860142162868" y2="177.89999961853027" fill="rgb(0, 0, 0)" stroke="rgb(60, 60, 60)" stroke-width="1px" opacity="0.25"></line><line x1="299.23399925231934" y1="0" x2="299.23399925231934" y2="177.89999961853027" fill="rgb(0, 0, 0)" stroke="rgb(60, 60, 60)" stroke-width="1px" opacity="0.25"></line></g><g><line x1="0" y1="177.89999961853027" x2="299.23399925231934" y2="177.89999961853027" fill="rgb(0, 0, 0)" stroke="rgb(60, 60, 60)" stroke-width="1px" opacity="0.25"></line><line x1="0" y1="164.21538426325873" x2="299.23399925231934" y2="164.21538426325873" fill="rgb(0, 0, 0)" stroke="rgb(60, 60, 60)" stroke-width="1px" opacity="0.25"></line><line x1="0" y1="150.53076890798715" x2="299.23399925231934" y2="150.53076890798715" fill="rgb(0, 0, 0)" stroke="rgb(60, 60, 60)" stroke-width="1px" opacity="0.25"></line><line x1="0" y1="136.84615355271558" x2="299.23399925231934" y2="136.84615355271558" fill="rgb(0, 0, 0)" stroke="rgb(60, 60, 60)" stroke-width="1px" opacity="0.25"></line><line x1="0" y1="123.16153819744403" x2="299.23399925231934" y2="123.16153819744403" fill="rgb(0, 0, 0)" stroke="rgb(60, 60, 60)" stroke-width="1px" opacity="0.25"></line><line x1="0" y1="109.47692284217248" x2="299.23399925231934" y2="109.47692284217248" fill="rgb(0, 0, 0)" stroke="rgb(60, 60, 60)" stroke-width="1px" opacity="0.25"></line><line x1="0" y1="95.79230748690091" x2="299.23399925231934" y2="95.79230748690091" fill="rgb(0, 0, 0)" stroke="rgb(60, 60, 60)" stroke-width="1px" opacity="0.25"></line><line x1="0" y1="82.10769213162936" x2="299.23399925231934" y2="82.10769213162936" fill="rgb(0, 0, 0)" stroke="rgb(60, 60, 60)" stroke-width="1px" opacity="0.25"></line><line x1="0" y1="68.42307677635779" x2="299.23399925231934" y2="68.42307677635779" fill="rgb(0, 0, 0)" stroke="rgb(60, 60, 60)" stroke-width="1px" opacity="0.25"></line><line x1="0" y1="54.73846142108624" x2="299.23399925231934" y2="54.73846142108624" fill="rgb(0, 0, 0)" stroke="rgb(60, 60, 60)" stroke-width="1px" opacity="0.25"></line><line x1="0" y1="41.05384606581467" x2="299.23399925231934" y2="41.05384606581467" fill="rgb(0, 0, 0)" stroke="rgb(60, 60, 60)" stroke-width="1px" opacity="0.25"></line><line x1="0" y1="27.36923071054312" x2="299.23399925231934" y2="27.36923071054312" fill="rgb(0, 0, 0)" stroke="rgb(60, 60, 60)" stroke-width="1px" opacity="0.25"></line><line x1="0" y1="13.68461535527155" x2="299.23399925231934" y2="13.68461535527155" fill="rgb(0, 0, 0)" stroke="rgb(60, 60, 60)" stroke-width="1px" opacity="0.25"></line><line x1="0" y1="0" x2="299.23399925231934" y2="0" fill="rgb(0, 0, 0)" stroke="rgb(60, 60, 60)" stroke-width="1px" opacity="0.25"></line></g></g></g><g><g><line x1="0" y1="177.89999961853027" x2="299.23399925231934" y2="177.89999961853027" fill="rgb(0, 0, 0)" stroke="rgb(153, 153, 153)" stroke-width="1.5px"></line></g></g><g><g><line x1="21.37385708945138" y1="0" x2="21.37385708945138" y2="177.89999961853027" fill="rgb(0, 0, 0)" stroke="rgb(153, 153, 153)" stroke-width="1.5px"></line></g></g><g><g><g><g><g><path style="fill: none;" stroke="rgb(238, 51, 119)" stroke-width="2px" d="M21.37385708945138,11.729142684728059L22.228811373029437,15.170440226816694L23.08376565660749,16.60039040226215L23.938719940185546,18.232511558614124L24.7936742237636,20.415294327163508L25.64862850734166,24.53505417418612L26.50358279091971,30.33671483180813L27.358537074497768,38.804011269491546L28.213491358075824,36.83897159885653L29.068445641653877,34.47622489629291L29.923399925231934,37.534706578263645L30.77835420880999,48.93296538307444L31.633308492388046,62.46013896158981L32.4882627759661,67.86220491773328L33.34321705954416,76.97802502492901L34.19817134312221,82.7741083130566L35.053125626700265,85.32054281936509L35.90807991027832,88.83479740715171L36.76303419385638,93.02078649119333L37.61798847743443,96.5655827257223L38.47294276101248,99.45455836439795L39.32789704459054,100.8993595999861L40.182851328168596,102.95079690335729L41.037805611746656,105.39513432096669L41.89275989532471,106.12847298397689L42.74771417890276,107.02366719997286L43.602668462480814,108.29603715710758L44.457622746058874,109.14716926916344L45.312577029636934,110.55145374679016L46.16753131321498,110.55762499185772L47.02248559679304,110.26534641987963L47.87743988037109,112.1258207466315L48.73239416394915,113.53247736433934L49.5873484475272,114.78406710009762L50.44230273110526,114.81580391254158L51.29725701468332,116.12713342007274L52.15221129826137,116.77624397660064L53.00716558183942,117.85954375847207L53.862119865417476,117.25242864159443L54.717074148995536,117.89152089201886L55.572028432573596,118.82609543501779L56.42698271615165,118.46666900813895L57.2819369997297,120.38697653674866L58.136891283307754,121.95987276960237L58.991845566885814,121.36448541163124L59.84679985046387,122.39313456173781L60.70175413404192,123.23298668797509L61.55670841761998,123.16502560145345L62.41166270119803,122.19373644988096L63.26661698477609,124.11657602239401L64.12157126835415,124.58603203225897L64.9765255519322,124.34645811517791L65.83147983551025,124.35290605175955L66.68643411908832,126.13917737958589L67.54138840266636,125.42209841170366L68.39634268624442,125.99081427481164L69.25129696982248,127.01767881212251L70.10625125340053,127.63200959324028L70.96120553697858,127.58232637998636L71.81615982055663,127.96463821951485L72.6711141041347,126.73429786887532L73.52606838771275,127.68855625322303L74.38102267129081,129.13942894910244L75.23597695486886,129.2741586167331L76.09093123844691,129.19900963469172L76.94588552202497,129.5987600330966L77.80083980560303,131.04458318314894L78.65579408918109,131.11904812162203L79.51074837275914,130.9659755601313L80.36570265633719,130.66835172881963L81.22065693991524,129.69037975337156L82.07561122349331,129.732025297353L82.93056550707135,131.0542775549131L83.78551979064942,129.86264346237405L84.64047407422747,130.14012571385592L85.49542835780552,129.86247087762342L86.35038264138359,129.81166609649233L87.20533692496163,130.9098727037541L88.06029120853968,131.04321632393766L88.91524549211775,132.02460982395007L89.7701997756958,131.90132066227045L90.62515405927387,131.52958316537533L91.4801083428519,131.61142511060115L92.33506262642996,132.38823281459318L93.19001691000803,133.9003479084545L94.04497119358608,134.47014631298805L94.89992547716412,135.1908718395936L95.75487976074218,134.13939029140934L96.60983404432024,132.86844579473603L97.4647883278983,132.77740243082232L98.31974261147636,133.96169181509092L99.1746968950544,134.94417346567545L100.02965117863246,135.3023537534664L100.88460546221052,135.73077996054477L101.73955974578858,133.94212026764848L102.59451402936664,136.43250151597275L103.44946831294467,135.64092696211543L104.30442259652274,137.45560546264798L105.1593768801008,136.111520421707L106.01433116367885,136.90536557707696L106.86928544725691,134.4999015602216L107.72423973083495,135.59107296555905L108.57919401441302,134.56296940194724L109.43414829799107,134.72244702340936L110.28910258156913,136.75872720230205L111.14405686514719,136.1026466965508L111.99901114872523,136.08377698433273L112.8539654323033,135.6904739030966L113.70891971588135,135.81060558279665L114.5638739994594,136.7353511714827L115.41882828303747,137.90664413224513L116.27378256661551,138.5462285829902L117.12873685019356,136.25027291311164L117.98369113377163,137.4096915964098L118.83864541734968,137.34462599926064L119.69359970092773,136.53361102411736L120.54855398450579,138.65072870584083L121.40350826808384,138.542311277318L122.2584625516619,139.0929742853816L123.11341683523996,139.7690046286409L123.96837111881801,139.037103277909L124.82332540239607,139.87408531940642L125.67827968597412,140.9757281844708L126.53323396955219,141.51793457020932L127.38818825313022,139.84329992525272L128.2431425367083,139.4235087251016L129.09809682028634,139.54672972743214L129.9530511038644,139.8043152187154L130.80800538744245,139.22704518637795L131.6629596710205,139.5783091385208L132.51791395459855,141.49371551156344L133.37286823817664,140.87173205497564L134.22782252175466,140.6287275965768L135.0827768053327,139.85676831327157L135.9377310889108,139.4560206050285L136.79268537248885,140.1228595141714L137.6476396560669,138.79361125186117L138.50259393964495,137.53440541838742L139.357548223223,138.9114677899017L140.21250250680106,141.26377311863192L141.0674567903791,140.95167750786152L141.92241107395716,141.59767907656789L142.77736535753522,140.3663931638635L143.63231964111327,139.99003339618793L144.48727392469135,141.163526930793L145.3422282082694,142.58693270498307L146.19718249184743,142.23824243383714L147.0521367754255,142.11114697804348L147.90709105900356,143.45900319594645L148.76204534258162,142.05961729035673L149.61699962615967,143.01535284467568L150.47195390973772,143.40595434388604L151.32690819331577,143.18095789470803L152.18186247689383,144.09108347536687L153.0368167604719,142.40931613961203L153.89177104404993,140.9158424154286L154.74672532762798,140.94214272566077L155.60167961120607,142.22728682371465L156.45663389478412,144.05471769550638L157.31158817836217,143.76353542401526L158.16654246194022,144.0770932455782L159.02149674551828,143.61715926171L159.87645102909633,144.08607739002375L160.73140531267438,142.89924006576172L161.58635959625246,143.82083833632979L162.4413138798305,143.64957798462132L163.29626816340854,142.53345581454766L164.15122244698662,143.76710602600147L165.00617673056465,144.31847650424254L165.8611310141427,142.63773044214105L166.71608529772078,143.1518361662957L167.57103958129883,145.10978374160908L168.4259938648769,144.81978074995644L169.28094814845494,145.22069081735256L170.13590243203302,146.56467329464485L170.99085671561105,146.37004275219135L171.8458109991891,145.33198266327048L172.70076528276718,145.04343289914982L173.5557195663452,145.89126840265092L174.41067384992326,145.04270433575246L175.26562813350134,144.9020997430721L176.12058241707936,146.18534892462182L176.97553670065744,146.5365573681771L177.8304909842355,147.0827276227002L178.68544526781355,147.12556244385982L179.5403995513916,145.6889179185605L180.39535383496965,146.00616460442492L181.25030811854774,147.48286196990995L182.10526240212576,147.43390325664794L182.9602166857038,147.25422220106526L183.8151709692819,147.58525526916253L184.67012525285992,148.28278772289318L185.525079536438,147.18090066830493L186.38003382001605,146.48179360706004L187.23498810359408,145.67252032682455L188.08994238717216,145.0191326218253L188.9448966707502,144.77441330869286L189.79985095432824,145.9183017428882L190.65480523790632,145.5929406346963L191.50975952148437,145.7400129275233L192.36471380506245,145.87549971484262L193.21966808864047,145.14982733431367L194.07462237221856,146.79343418273433L194.9295766557966,146.77900632480902L195.78453093937463,146.80287970060954L196.63948522295271,146.99484678419236L197.49443950653077,147.00451761842825L198.3493937901088,146.78034780462832L199.20434807368687,146.91723321479057L200.05930235726493,148.41073462926175L200.91425664084298,149.10156872724195L201.76921092442103,149.6109644951281L202.62416520799908,148.62056770251073L203.47911949157717,146.25361848578066L204.3340737751552,145.758425362791L205.18902805873327,146.83090382235L206.04398234231132,147.45300868659282L206.89893662588935,148.0280610058335L207.75389090946743,148.52076329549882L208.60884519304548,147.1240747673611L209.46379947662354,149.04862275527134L210.3187537602016,148.57275955157965L211.17370804377964,150.31455364957415L212.0286623273577,149.10065571254773L212.88361661093575,148.80484995974047L213.73857089451383,146.48043534417693L214.59352517809188,147.8081229162878L215.4484794616699,146.94397162794215L216.303433745248,147.00628509310908L217.15838802882604,148.82141795532002L218.01334231240406,148.63653079076528L218.86829659598214,148.77901502312523L219.7232508795602,147.90980495816885L220.57820516313825,148.21005457317935L221.4331594467163,148.34237495565046L222.28811373029438,149.1589758272455L223.1430680138724,149.16056998068183L223.99802229745046,146.98159017405925L224.85297658102854,147.82854753742984L225.7079308646066,148.59823642491847L226.56288514818462,147.8096040912122L227.4178394317627,149.53036435449923L228.27279371534075,148.79088849608362L229.1277479989188,149.0796155033203L229.98270228249686,149.9638298157909L230.83765656607494,149.55793003663948L231.69261084965297,149.53414642199326L232.54756513323102,150.74018271089602L233.4025194168091,151.39174523084628L234.25747370038712,149.94858779321228L235.11242798396518,149.80717757320494L235.96738226754326,151.11728191390208L236.8223365511213,150.75148097441883L237.67729083469936,149.64222165040633L238.53224511827742,149.9778139813564L239.38719940185547,150.1358516086946L240.24215368543352,150.152291883935L241.09710796901157,151.25542471190198L241.95206225258966,151.26786671699236L242.80701653616768,150.70510785695586L243.66197081974573,151.28433100960885L244.5169251033238,150.6804426241763L245.37187938690184,150.14639936766613L246.22683367047992,150.0812496647855L247.08178795405797,150.29946482014245L247.93674223763603,150.35129447808674L248.79169652121408,150.33586795293755L249.64665080479213,151.4829128082556L250.5016050883702,150.7128334846384L251.35655937194824,150.93617098965652L252.2115136555263,151.94595345589673L253.06646793910437,150.3516894259543L253.9214222226824,150.48864241320274L254.77637650626045,151.6536514708855L255.63133078983853,151.1769041171251L256.4862850734166,151.62194358453618L257.3412393569946,149.19030874720997L258.1961936405727,150.27748541290777L259.05114792415077,151.73782210467502L259.9061022077288,151.02754598516728L260.7610564913069,151.04980577162922L261.6160107748849,150.63378885291672L262.470965058463,151.53753915700327L263.325919342041,151.97208936922067L264.1808736256191,150.69869215182118L265.0358279091971,152.0215375650345L265.8907821927752,150.5566247427265L266.7457364763533,149.7488292814326L267.6006907599313,150.08510611920366L268.4556450435093,151.00348103992442L269.3105993270874,150.8661081468775L270.1655536106654,150.8421337772001L271.0205078942435,151.18097718153982L271.8754621778216,150.3726875879643L272.7304164613996,151.33115992756498L273.5853707449777,150.96250332895627L274.4403250285557,151.41371949664918L275.2952793121338,152.1194664009836L276.1502335957118,150.92440354884246L277.0051878792899,151.65109970049332L277.860142162868,152.1446786598001L278.715096446446,152.1306573772792L279.57005073002404,151.45297512372812L280.4250050136021,151.2159004507935L281.27995929718014,149.84126949271285L282.1349135807582,150.37400816472115L282.9898678643363,150.67423784942895L283.84482214791433,151.10447862719965L284.6997764314924,151.74242684411286L285.55473071507043,151.05437686742533L286.4096849986485,151.27358346733257L287.26463928222654,151.11480384071947L288.1195935658046,150.2978616306102" fill="none"></path></g><g><path style="fill: none;" stroke="rgb(51, 187, 238)" stroke-width="2px" d="M21.37385708945138,11.3424253440609L22.228811373029437,15.01066581460071L23.08376565660749,16.523025786722716L23.938719940185546,18.716085809873015L24.7936742237636,20.96018448322704L25.64862850734166,25.201446113891702L26.50358279091971,31.608557509386685L27.358537074497768,39.6085313049194L28.213491358075824,42.67615020243452L29.068445641653877,54.55503427463518L29.923399925231934,56.74887042276657L30.77835420880999,66.64485927431528L31.633308492388046,69.0035900005664L32.4882627759661,78.39796713603963L33.34321705954416,86.69122475658466L34.19817134312221,92.1679856228578L35.053125626700265,93.02315070141789L35.90807991027832,96.77388638102977L36.76303419385638,99.33357589901449L37.61798847743443,101.44169204691053L38.47294276101248,102.06244268000638L39.32789704459054,104.0743567122936L40.182851328168596,107.14237127085049L41.037805611746656,107.53121358239119L41.89275989532471,110.03798945670037L42.74771417890276,111.62934386504965L43.602668462480814,112.13674615608393L44.457622746058874,113.47648935289953L45.312577029636934,112.80776750210696L46.16753131321498,113.67788635876289L47.02248559679304,114.52204803404253L47.87743988037109,116.38268219963098L48.73239416394915,117.46784540918455L49.5873484475272,117.70603065207013L50.44230273110526,118.52698655707752L51.29725701468332,119.44489435737268L52.15221129826137,119.84601836291424L53.00716558183942,119.59624350698398L53.862119865417476,120.57653496735799L54.717074148995536,120.77157418335761L55.572028432573596,121.42760066757714L56.42698271615165,122.91358733528634L57.2819369997297,123.91399187501315L58.136891283307754,123.7147507874679L58.991845566885814,124.07787980393981L59.84679985046387,123.11254466455831L60.70175413404192,123.38518535976242L61.55670841761998,124.83788848224006L62.41166270119803,126.26685471633692L63.26661698477609,126.10446975609086L64.12157126835415,126.19340229319845L64.9765255519322,125.19084807448466L65.83147983551025,127.40580330583715L66.68643411908832,128.38402674000994L67.54138840266636,128.5964288668711L68.39634268624442,128.68910708344615L69.25129696982248,130.1094521938534L70.10625125340053,128.9828924554637L70.96120553697858,128.19992418377134L71.81615982055663,128.16655227802423L72.6711141041347,128.46340975030463L73.52606838771275,128.82163386768607L74.38102267129081,130.4701409523517L75.23597695486886,131.41715680467468L76.09093123844691,130.40022195958542L76.94588552202497,131.08910478950534L77.80083980560303,131.74697656553803L78.65579408918109,132.45703504800886L79.51074837275914,131.6024056537192L80.36570265633719,131.80450435926625L81.22065693991524,132.45250935125915L82.07561122349331,132.37345901405828L82.93056550707135,132.77612279757727L83.78551979064942,133.92757044755135L84.64047407422747,132.9093329282069L85.49542835780552,129.98487532915152L86.35038264138359,129.36204198154465L87.20533692496163,132.4581095433719L88.06029120853968,133.74989538041933L88.91524549211775,134.77158271158677L89.7701997756958,135.4992882800019L90.62515405927387,134.52185758317432L91.4801083428519,134.3613911805898L92.33506262642996,133.03581688754065L93.19001691000803,132.86215906680553L94.04497119358608,134.61147480006576L94.89992547716412,135.16649097365922L95.75487976074218,134.2375678152317L96.60983404432024,135.12758630884574L97.4647883278983,134.42982332693876L98.31974261147636,133.9949592205146L99.1746968950544,135.54941061040878L100.02965117863246,134.13099479399003L100.88460546221052,134.71079163420757L101.73955974578858,135.81100410256957L102.59451402936664,137.18812604883095L103.44946831294467,134.91003072363532L104.30442259652274,136.03463966979132L105.1593768801008,134.99794589304128L106.01433116367885,135.37536530494413L106.86928544725691,135.1943855940352L107.72423973083495,136.7812163381142L108.57919401441302,135.66624195219146L109.43414829799107,136.72295996216585L110.28910258156913,137.8445845382325L111.14405686514719,137.63417012971863L111.99901114872523,137.13145805237195L112.8539654323033,136.68476482081545L113.70891971588135,139.23204511863202L114.5638739994594,139.65352365419233L115.41882828303747,138.7620396190891L116.27378256661551,137.76456572463977L117.12873685019356,137.61689316045036L117.98369113377163,136.94015090936122L118.83864541734968,137.9908887827709L119.69359970092773,137.6617016658228L120.54855398450579,137.75652040320463L121.40350826808384,138.8365055712635L122.2584625516619,138.16109647680707L123.11341683523996,139.20620548602912L123.96837111881801,138.52082020520754L124.82332540239607,137.819455761351L125.67827968597412,138.65264689817417L126.53323396955219,138.80561222962794L127.38818825313022,139.3304490746898L128.2431425367083,139.04997195954684L129.09809682028634,139.6516345388549L129.9530511038644,139.5936717698731L130.80800538744245,139.2044367095824L131.6629596710205,139.20107810347514L132.51791395459855,140.43195023971256L133.37286823817664,141.3680619127021L134.22782252175466,140.31508352908077L135.0827768053327,140.56541973844097L135.9377310889108,139.64321559621246L136.79268537248885,140.50924832936013L137.6476396560669,141.828251290177L138.50259393964495,141.77615327373593L139.357548223223,140.45933337014304L140.21250250680106,140.75849179068882L141.0674567903791,143.06097655976217L141.92241107395716,143.15667533068634L142.77736535753522,143.7336755461649L143.63231964111327,143.1934913934066L144.48727392469135,143.88413153648338L145.3422282082694,144.2173665799338L146.19718249184743,143.845555309902L147.0521367754255,145.22570765304422L147.90709105900356,144.4292899780049L148.76204534258162,145.2849068521753L149.61699962615967,145.94574689453896L150.47195390973772,145.89703657820766L151.32690819331577,145.47689464842705L152.18186247689383,141.3954060169198L153.0368167604719,142.00789374159075L153.89177104404993,141.61667806679253L154.74672532762798,144.21579511559258L155.60167961120607,143.98014359972422L156.45663389478412,143.26273935158878L157.31158817836217,144.76044137824027L158.16654246194022,144.51490677378396L159.02149674551828,144.30116334044806L159.87645102909633,142.87334760162545L160.73140531267438,144.56450709276416L161.58635959625246,144.42557479347641L162.4413138798305,144.74132044692246L163.29626816340854,145.6031211954503L164.15122244698662,146.45583998281663L165.00617673056465,146.35444231209524L165.8611310141427,145.83168582025093L166.71608529772078,143.90702767359744L167.57103958129883,143.72097460173606L168.4259938648769,144.77902176694246L169.28094814845494,146.0019457114434L170.13590243203302,145.75214445081622L170.99085671561105,146.48756477119122L171.8458109991891,145.25575157384932L172.70076528276718,146.68570525798967L173.5557195663452,146.6928184048757L174.41067384992326,147.0278919695652L175.26562813350134,147.57044594134928L176.12058241707936,148.48479436657072L176.97553670065744,147.12191802156772L177.8304909842355,145.69879530101514L178.68544526781355,146.13671967578605L179.5403995513916,146.05005315383127L180.39535383496965,146.04187998787185L181.25030811854774,147.32675515733837L182.10526240212576,147.67565303589606L182.9602166857038,146.84408889831226L183.8151709692819,147.36433958206646L184.67012525285992,147.67227462713822L185.525079536438,148.28606194958348L186.38003382001605,147.85696996018262L187.23498810359408,147.32274667842802L188.08994238717216,147.92010129961355L188.9448966707502,147.48851940065668L189.79985095432824,147.3121274705606L190.65480523790632,148.2218664442716L191.50975952148437,147.63406370953717L192.36471380506245,145.27815701054837L193.21966808864047,144.72026556444638L194.07462237221856,147.06036913862036L194.9295766557966,148.68785607823656L195.78453093937463,149.15762741555002L196.63948522295271,150.1705650469392L197.49443950653077,149.0079355879958L198.3493937901088,148.0347121818084L199.20434807368687,146.72679504110477L200.05930235726493,146.73824632519273L200.91425664084298,147.85719698872055L201.76921092442103,149.35524748117737L202.62416520799908,148.1341549664612L203.47911949157717,148.43526099780843L204.3340737751552,147.72852107754156L205.18902805873327,147.06413083648218L206.04398234231132,148.4759999521714L206.89893662588935,147.84337163515318L207.75389090946743,148.04789156619742L208.60884519304548,148.6794137629379L209.46379947662354,149.67192242303622L210.3187537602016,147.94427069946215L211.17370804377964,148.83431297370524L212.0286623273577,147.76213281666384L212.88361661093575,148.46064593306386L213.73857089451383,148.01602678243825L214.59352517809188,149.1128867760315L215.4484794616699,148.31430829265443L216.303433745248,148.78870029770925L217.15838802882604,149.60463986710846L218.01334231240406,149.391576621917L218.86829659598214,148.55709077771678L219.7232508795602,148.16164897885315L220.57820516313825,150.08266261767005L221.4331594467163,150.15433762782428L222.28811373029438,149.77683842353943L223.1430680138724,148.75478595056822L223.99802229745046,148.61016604288804L224.85297658102854,148.3199485680448L225.7079308646066,148.90475477939805L226.56288514818462,148.4529559768678L227.4178394317627,148.51759594772963L228.27279371534075,149.42457354121737L229.1277479989188,148.94378491814837L229.98270228249686,149.97527504665644L230.83765656607494,149.31244427336085L231.69261084965297,148.1505444743816L232.54756513323102,148.56507469715064L233.4025194168091,148.6453922545083L234.25747370038712,149.09650644687002L235.11242798396518,149.90951888718706L235.96738226754326,148.67835785360546L236.8223365511213,149.98988043550344L237.67729083469936,149.89765673753442L238.53224511827742,150.05486827852533L239.38719940185547,149.22930464068742L240.24215368543352,150.38577361738777L241.09710796901157,151.09398332982263L241.95206225258966,151.3339851325113L242.80701653616768,151.7534387950862L243.66197081974573,152.24616593270474L244.5169251033238,152.54596929299169L245.37187938690184,152.24629022412438L246.22683367047992,152.14711958655153L247.08178795405797,152.01884280329753L247.93674223763603,152.31363474788716L248.79169652121408,151.68123679887066L249.64665080479213,151.41098903830795L250.5016050883702,152.59810438752578L251.35655937194824,150.20791441656823L252.2115136555263,150.40580647011365L253.06646793910437,149.93897070823908L253.9214222226824,149.34414330037436L254.77637650626045,149.80829297739962L255.63133078983853,151.34213680536985L256.4862850734166,152.5330721568883L257.3412393569946,151.8793179997336L258.1961936405727,150.6779268115323L259.05114792415077,151.20684607950267L259.9061022077288,151.53747147287103L260.7610564913069,151.55654491111625L261.6160107748849,149.90339868712303L262.470965058463,151.35267199608828L263.325919342041,151.85286950150544L264.1808736256191,151.65678405765212L265.0358279091971,152.13446176845537L265.8907821927752,151.89212880928537L266.7457364763533,150.66483011134906L267.6006907599313,151.26074054915722L268.4556450435093,150.39896241678275L269.3105993270874,150.107692943584L270.1655536106654,149.76850069601727L271.0205078942435,150.979045910687L271.8754621778216,151.71463901248674L272.7304164613996,153.251886067761L273.5853707449777,153.9756879907798L274.4403250285557,154.49442457326708L275.2952793121338,153.4655314582068L276.1502335957118,152.52870614526978L277.0051878792899,151.31163847828483L277.860142162868,152.45012342297767L278.715096446446,153.56264068811444L279.57005073002404,153.17720241758082L280.4250050136021,153.67904366285498L281.27995929718014,152.4183190686924L282.1349135807582,151.91088058264765L282.9898678643363,152.94048334325976L283.84482214791433,152.7418729739804L284.6997764314924,153.95777293821556L285.55473071507043,152.561424647049L286.4096849986485,153.12429016724343L287.26463928222654,152.05189804774068L288.1195935658046,152.83804123388705" fill="none"></path></g><g><path style="fill: none;" stroke="rgb(255, 112, 67)" stroke-width="2px" d="M21.37385708945138,11.729142684728059L22.228811373029437,15.168270553561939L23.08376565660749,16.580963553441627L23.938719940185546,18.07156997542073L24.7936742237636,20.155867415453866L25.64862850734166,24.292177377582814L26.50358279091971,29.893021821811416L27.358537074497768,37.63053363714421L28.213491358075824,43.22268679300599L29.068445641653877,53.0847042554287L29.923399925231934,60.53787712589213L30.77835420880999,68.46831229351805L31.633308492388046,78.8969222100804L32.4882627759661,85.49492617237877L33.34321705954416,91.34821932071796L34.19817134312221,94.25032000021206L35.053125626700265,95.36820444471415L35.90807991027832,97.46733100188304L36.76303419385638,100.13264439848896L37.61798847743443,103.0479780600214L38.47294276101248,105.63232923480564L39.32789704459054,106.20382457085408L40.182851328168596,106.95815028967488L41.037805611746656,108.9134966994053L41.89275989532471,110.537451636433L42.74771417890276,111.15729447160511L43.602668462480814,113.23364695692742L44.457622746058874,113.95302160194858L45.312577029636934,115.64807895588174L46.16753131321498,117.10225818000941L47.02248559679304,116.13905594822918L47.87743988037109,117.92773485653964L48.73239416394915,118.89598603773973L49.5873484475272,119.53880731693503L50.44230273110526,119.81851300054647L51.29725701468332,120.51164138817106L52.15221129826137,122.24836460426208L53.00716558183942,122.85761624829809L53.862119865417476,123.52495866941909L54.717074148995536,124.1419294863898L55.572028432573596,124.28597655738265L56.42698271615165,123.12650859534074L57.2819369997297,123.47044519287114L58.136891283307754,126.43561488499915L58.991845566885814,125.93311440630606L59.84679985046387,126.16677234725046L60.70175413404192,126.60327596242557L61.55670841761998,125.86980121073134L62.41166270119803,127.26562143675538L63.26661698477609,128.3028044259304L64.12157126835415,128.9056243545355L64.9765255519322,130.36630116631565L65.83147983551025,129.7490297959842L66.68643411908832,131.8333367617274L67.54138840266636,132.05945669559108L68.39634268624442,130.7128666162345L69.25129696982248,132.8920234359522L70.10625125340053,131.84001972306473L70.96120553697858,132.9070210781227L71.81615982055663,130.5447086275842L72.6711141041347,131.01774800242615L73.52606838771275,131.05477961439874L74.38102267129081,129.96695850763334L75.23597695486886,131.96032887151765L76.09093123844691,132.8582764841055L76.94588552202497,132.67207923950252L77.80083980560303,132.48292868007724L78.65579408918109,133.09145470601777L79.51074837275914,131.64004678894185L80.36570265633719,131.93976196698765L81.22065693991524,132.91629639804034L82.07561122349331,132.48139394696L82.93056550707135,133.5376261987623L83.78551979064942,134.5793071889425L84.64047407422747,134.68801837774103L85.49542835780552,133.4965233594479L86.35038264138359,135.48228422830584L87.20533692496163,136.05868634308612L88.06029120853968,136.1972725922571L88.91524549211775,136.36654568797536L89.7701997756958,137.4426223661281L90.62515405927387,136.77255893531623L91.4801083428519,136.63628986347473L92.33506262642996,137.66517926549662L93.19001691000803,137.2181710455065L94.04497119358608,135.2897908669456L94.89992547716412,136.2803229657988L95.75487976074218,134.7660447830438L96.60983404432024,136.5623002208072L97.4647883278983,136.52154874742277L98.31974261147636,137.91328046492504L99.1746968950544,137.40314034838974L100.02965117863246,137.8002744604781L100.88460546221052,138.60883902388633L101.73955974578858,138.10907530585231L102.59451402936664,137.57856482098168L103.44946831294467,138.28520304015544L104.30442259652274,138.95614633818613L105.1593768801008,138.3781792239674L106.01433116367885,139.98706738597258L106.86928544725691,140.76617641205047L107.72423973083495,139.18815088201248L108.57919401441302,138.06270457045625L109.43414829799107,139.49316438409332L110.28910258156913,139.76989997652785L111.14405686514719,141.84463649969211L111.99901114872523,141.7770825400339L112.8539654323033,140.30813256314892L113.70891971588135,140.59316978332635L114.5638739994594,141.04322057893168L115.41882828303747,140.70789590487598L116.27378256661551,139.68117337992737L117.12873685019356,139.4062633982092L117.98369113377163,140.47175248890215L118.83864541734968,142.38172405731825L119.69359970092773,142.7902608341308L120.54855398450579,142.8932702808296L121.40350826808384,142.8116178057755L122.2584625516619,140.19702848028663L123.11341683523996,141.82628321295593L123.96837111881801,140.69064738612343L124.82332540239607,142.72391799921783L125.67827968597412,144.15895143075537L126.53323396955219,144.1305398770761L127.38818825313022,144.72960967563122L128.2431425367083,143.34359803501795L129.09809682028634,143.24261693673398L129.9530511038644,142.84953384500022L130.80800538744245,142.56258149634326L131.6629596710205,143.78226363676274L132.51791395459855,144.94137391834576L133.37286823817664,144.6526593330571L134.22782252175466,144.78453949670538L135.0827768053327,144.5175704527567L135.9377310889108,145.20510548956608L136.79268537248885,144.71687736132625L137.6476396560669,145.5838132221273L138.50259393964495,145.064918543156L139.357548223223,144.0849713103775L140.21250250680106,144.03612990639357L141.0674567903791,143.8944509976712L141.92241107395716,143.239010778688L142.77736535753522,143.11696298201312L143.63231964111327,144.72174720112932L144.48727392469135,145.7975581978438L145.3422282082694,146.81791213163532L146.19718249184743,145.84222122459374L147.0521367754255,145.05742643265316L147.90709105900356,145.6047155515637L148.76204534258162,145.63267834791844L149.61699962615967,145.0305177409374L150.47195390973772,145.51662462393872L151.32690819331577,145.56141191147665L152.18186247689383,146.44341483064292L153.0368167604719,147.71476098620977L153.89177104404993,147.57684041029034L154.74672532762798,146.0729422948521L155.60167961120607,146.90789897389752L156.45663389478412,146.5640524609747L157.31158817836217,145.1669091099303L158.16654246194022,146.16322832995598L159.02149674551828,147.02036661578282L159.87645102909633,146.71173983040228L160.73140531267438,148.5104066204238L161.58635959625246,148.151944653948L162.4413138798305,147.9977044595935L163.29626816340854,146.8438645072673L164.15122244698662,146.61384384393654L165.00617673056465,148.9253618815296L165.8611310141427,147.82502323305937L166.71608529772078,147.72810245771925L167.57103958129883,147.20120399455087L168.4259938648769,146.555740490705L169.28094814845494,147.27962351457248L170.13590243203302,148.17467708234767L170.99085671561105,148.7845071441108L171.8458109991891,149.37870309503742L172.70076528276718,148.6304112986551L173.5557195663452,150.51867350421568L174.41067384992326,151.3398236583064L175.26562813350134,150.0992345449737L176.12058241707936,151.75633024817287L176.97553670065744,150.36480582365976L177.8304909842355,151.08486630039377L178.68544526781355,149.19571370726325L179.5403995513916,149.52845014257286L180.39535383496965,149.34693685702345L181.25030811854774,147.5016325282862L182.10526240212576,149.06621885619015L182.9602166857038,150.0089145642564L183.8151709692819,148.9229323352855L184.67012525285992,148.74552329327057L185.525079536438,149.19019836597724L186.38003382001605,147.94684165573707L187.23498810359408,148.2528535771087L188.08994238717216,148.97176382041994L188.9448966707502,148.43173583090459L189.79985095432824,148.27808243369472L190.65480523790632,149.32635548741632L191.50975952148437,149.3795408930263L192.36471380506245,148.2226617324942L193.21966808864047,150.1081373990577L194.07462237221856,149.91506011707224L194.9295766557966,149.6192476711959L195.78453093937463,149.63736880885554L196.63948522295271,150.44954652297673L197.49443950653077,150.08146354908195L198.3493937901088,150.0117026323422L199.20434807368687,150.79136985842513L200.05930235726493,151.0257348854588L200.91425664084298,149.48288125835552L201.76921092442103,150.5188277684131L202.62416520799908,148.6624043460198L203.47911949157717,149.7358641328678L204.3340737751552,149.74835170944064L205.18902805873327,150.6933558273123L206.04398234231132,150.41328784283328L206.89893662588935,150.88637146946996L207.75389090946743,151.58665209037682L208.60884519304548,150.84415031487728L209.46379947662354,150.29005204604218L210.3187537602016,150.6664008670817L211.17370804377964,151.60496446350305L212.0286623273577,151.3250556865416L212.88361661093575,151.85705158009287L213.73857089451383,152.4261497978437L214.59352517809188,151.57689204626584L215.4484794616699,150.1880487604835L216.303433745248,151.48226826479578L217.15838802882604,151.87928398432197L218.01334231240406,153.41354398271952L218.86829659598214,153.44387227851837L219.7232508795602,151.59393947402566L220.57820516313825,152.07948702930457L221.4331594467163,152.296304741436L222.28811373029438,152.65145280216754L223.1430680138724,151.88732471984923L223.99802229745046,151.16851057108272L224.85297658102854,152.09532921879145L225.7079308646066,153.05436233629652L226.56288514818462,153.27026180194784L227.4178394317627,153.4060899448443L228.27279371534075,152.9585010774689L229.1277479989188,151.2116296286934L229.98270228249686,152.64292713580423L230.83765656607494,151.6108938002531L231.69261084965297,153.2753576735844L232.54756513323102,154.1589832820149L233.4025194168091,153.89584192832524L234.25747370038712,154.37688119111522L235.11242798396518,154.44110637397924L235.96738226754326,154.26421413682968L236.8223365511213,153.42715339566672L237.67729083469936,154.6399193512844L238.53224511827742,152.88822314907648L239.38719940185547,154.0529618899394L240.24215368543352,153.7626298902662L241.09710796901157,153.29098055909688L241.95206225258966,153.26609529078502L242.80701653616768,154.17576924539304L243.66197081974573,155.023569949092L244.5169251033238,154.9882607574043L245.37187938690184,152.9613562019338L246.22683367047992,153.95216595142452L247.08178795405797,153.41262199257184L247.93674223763603,154.23127785217167L248.79169652121408,154.26925957793821L249.64665080479213,152.54230794980697L250.5016050883702,153.00166501478878L251.35655937194824,153.300158376683L252.2115136555263,153.53477584300956L253.06646793910437,153.47770279103426L253.9214222226824,153.65126276005975L254.77637650626045,153.3225459907447L255.63133078983853,153.72672455911749L256.4862850734166,154.42459554498993L257.3412393569946,153.23483005340873L258.1961936405727,153.30777845744353L259.05114792415077,155.2469720976484L259.9061022077288,154.38848331496968L260.7610564913069,154.21693643479242L261.6160107748849,154.51491955190608L262.470965058463,154.58506262610734L263.325919342041,154.84953051751103L264.1808736256191,154.92900741175384L265.0358279091971,153.59737516356537L265.8907821927752,154.23553321836002L266.7457364763533,153.61859237036504L267.6006907599313,154.79296833285434L268.4556450435093,155.45978939304982L269.3105993270874,154.93579763515308L270.1655536106654,155.6120917018846L271.0205078942435,154.95110277200797L271.8754621778216,155.54094989117203L272.7304164613996,156.18926292107938L273.5853707449777,154.5191916682302L274.4403250285557,154.79540098464688L275.2952793121338,154.8392561909087L276.1502335957118,155.368183749004L277.0051878792899,155.32601792140957L277.860142162868,155.01544325998015L278.715096446446,153.6067130343072L279.57005073002404,154.55175223676054L280.4250050136021,155.03495393940025L281.27995929718014,156.66837318221496L282.1349135807582,156.9843794255428L282.9898678643363,156.433462270347L283.84482214791433,155.44766151881686L284.6997764314924,156.25314134319424L285.55473071507043,156.3785988942411L286.4096849986485,155.54238814399912L287.26463928222654,154.969372429768L288.1195935658046,154.77432624011064" fill="none"></path></g></g></g></g><g opacity="0.2"><g><g><g><path style="fill: none;" stroke="rgb(238, 51, 119)" stroke-width="2px" d="M21.37385708945138,11.729142684728059L22.228811373029437,17.235218752069926L23.08376565660749,17.973142570689763L23.938719940185546,20.151886038484008L24.7936742237636,23.265135509781633L25.64862850734166,30.234165156163304L26.50358279091971,38.63318239877816L27.358537074497768,51.14941076167969L28.213491358075824,33.94091977397554L29.068445641653877,30.96782140693764L29.923399925231934,42.094688897468586L30.77835420880999,65.96832476922197L31.633308492388046,82.7067307606103L32.4882627759661,75.95472064237234L33.34321705954416,90.64103988138135L34.19817134312221,91.46414539825085L35.053125626700265,89.13911701308558L35.90807991027832,94.10528701997254L36.76303419385638,99.29913242395077L37.61798847743443,101.88245306909897L38.47294276101248,103.78786338412144L39.32789704459054,103.06651391156825L40.182851328168596,106.027912356363L41.037805611746656,109.06161149187378L41.89275989532471,107.22847576623491L42.74771417890276,108.3664547063724L43.602668462480814,110.20458883716367L44.457622746058874,110.42386613055896L45.312577029636934,112.65787916968571L46.16753131321498,110.56688185604833L47.02248559679304,109.8269286588353L47.87743988037109,114.91653186658718L48.73239416394915,115.64246212297454L49.5873484475272,116.66145161408622L50.44230273110526,114.8634091298436L51.29725701468332,118.09412764755541L52.15221129826137,117.74990980134976L53.00716558183942,119.48449342122296L53.862119865417476,116.34175596965949L54.717074148995536,118.85015926551975L55.572028432573596,120.22795724764225L56.42698271615165,117.92752936825309L57.2819369997297,123.26743782827702L58.136891283307754,124.31921711820172L58.991845566885814,120.47140437482926L59.84679985046387,123.93610828673724L60.70175413404192,124.49276487725245L61.55670841761998,123.06308397167481L62.41166270119803,120.73680272255493L63.26661698477609,127.00083538112477L64.12157126835415,125.2902160470507L64.9765255519322,123.98709723955807L65.83147983551025,124.36257795663201L66.68643411908832,128.81858437132064L67.54138840266636,124.34647995988144L68.39634268624442,126.84388806947305L69.25129696982248,128.55797561808825L70.10625125340053,128.55350576491674L70.96120553697858,127.50780156010546L71.81615982055663,128.53810597880755L72.6711141041347,124.88878734291609L73.52606838771275,129.1199438297445L74.38102267129081,131.3157379929215L75.23597695486886,129.47625311817913L76.09093123844691,129.08628616162963L76.94588552202497,130.19838563070397L77.80083980560303,133.21331790822745L78.65579408918109,131.23074552933164L79.51074837275914,130.73636671789524L80.36570265633719,130.22191598185213L81.22065693991524,128.22342179019938L82.07561122349331,129.79449361332522L82.93056550707135,133.0376559412532L83.78551979064942,128.07519232356543L84.64047407422747,130.55634909107872L85.49542835780552,129.44598862327473L86.35038264138359,129.73545892479567L87.20533692496163,132.55718261464676L88.06029120853968,131.24323175421296L88.91524549211775,133.49670007396875L89.7701997756958,131.716386919751L90.62515405927387,130.9719769200326L91.4801083428519,131.73418802843992L92.33506262642996,133.55344437058125L93.19001691000803,136.16852054924652L94.04497119358608,135.32484391978835L94.89992547716412,136.2719601295019L95.75487976074218,132.562167969133L96.60983404432024,130.96202904972608L97.4647883278983,132.64083738495174L98.31974261147636,135.73812589149384L99.1746968950544,136.41789594155222L100.02965117863246,135.83962418515284L100.88460546221052,136.37341927116233L101.73955974578858,131.25913072830406L102.59451402936664,140.16807338845916L103.44946831294467,134.4535651313294L104.30442259652274,140.1776232134468L105.1593768801008,134.09539286029553L106.01433116367885,138.0961333101319L106.86928544725691,130.89170553493852L107.72423973083495,137.22783007356523L108.57919401441302,133.0208140565296L109.43414829799107,134.96166345560246L110.28910258156913,139.81314747064113L111.14405686514719,135.1185259379239L111.99901114872523,136.0554724160056L112.8539654323033,135.10051928124244L113.70891971588135,135.99080310234672L114.5638739994594,138.12246955451184L115.41882828303747,139.66358357338882L116.27378256661551,139.50560525910777L117.12873685019356,132.80633940829375L117.98369113377163,139.14881962135706L118.83864541734968,137.24702760353694L119.69359970092773,135.31708856140244L120.54855398450579,141.8264052284261L121.40350826808384,138.37968513453373L122.2584625516619,139.91896879747696L123.11341683523996,140.7830501435298L123.96837111881801,137.93925125181116L124.82332540239607,141.12955838165257L125.67827968597412,142.62819248206736L126.53323396955219,142.33124414881718L127.38818825313022,137.3313479578178L128.2431425367083,138.79382192487495L129.09809682028634,139.73156123092798L129.9530511038644,140.19069345564031L130.80800538744245,138.36114013787176L131.6629596710205,140.10520506673507L132.51791395459855,144.36682507112732L133.37286823817664,139.93875687009398L134.22782252175466,140.26422090897856L135.0827768053327,138.69882938831375L135.9377310889108,138.8548990426639L136.79268537248885,141.12311787788573L137.6476396560669,136.79973885839584L138.50259393964495,135.6455966681768L139.357548223223,140.9770613471731L140.21250250680106,144.79223111172726L141.0674567903791,140.4835340917059L141.92241107395716,142.56668142962747L142.77736535753522,138.51946429480694L143.63231964111327,139.42549374467455L144.48727392469135,142.92376723270064L145.3422282082694,144.7220413662682L146.19718249184743,141.71520702711825L147.0521367754255,141.92050379435298L147.90709105900356,145.48078752280094L148.76204534258162,139.9605384319721L149.61699962615967,144.44895617615413L150.47195390973772,143.99185659270154L151.32690819331577,142.84346322094103L152.18186247689383,145.4562718463551L153.0368167604719,139.88666513597974L153.89177104404993,138.67563182915353L154.74672532762798,140.98159319100904L155.60167961120607,144.1550029707955L156.45663389478412,146.795864003194L157.31158817836217,143.32676201677853L158.16654246194022,144.5474299779226L159.02149674551828,142.92725828590758L159.87645102909633,144.78945458249444L160.73140531267438,141.11898407936872L161.58635959625246,145.20323574218187L162.4413138798305,143.39268745705863L163.29626816340854,140.85927255943716L164.15122244698662,145.6175813431822L165.00617673056465,145.14553222160413L165.8611310141427,140.1166113489888L166.71608529772078,143.92299475252773L167.57103958129883,148.04670510457913L168.4259938648769,144.3847762624775L169.28094814845494,145.82205591844672L170.13590243203302,148.58064701058328L170.99085671561105,146.07809693851112L171.8458109991891,143.77489252988914L172.70076528276718,144.61060825296886L173.5557195663452,147.16302165790256L174.41067384992326,143.76985823540474L175.26562813350134,144.69119285405162L176.12058241707936,148.11022269694638L176.97553670065744,147.06337003351004L177.8304909842355,147.90198300448486L178.68544526781355,147.1898146755993L179.5403995513916,143.53395113061146L180.39535383496965,146.48203463322156L181.25030811854774,149.69790801813747L182.10526240212576,147.36046518675494L182.9602166857038,146.98470061769126L183.8151709692819,148.08180487130846L184.67012525285992,149.3290864034891L185.525079536438,145.5280700864226L186.38003382001605,145.4331330151927L187.23498810359408,144.45861040647128L188.08994238717216,144.03905106432637L188.9448966707502,144.4073343389942L189.79985095432824,147.63413439418122L190.65480523790632,145.10489897240842L191.50975952148437,145.96062136676386L192.36471380506245,146.07872989582154L193.21966808864047,144.06131876352026L194.07462237221856,149.25884445536528L194.9295766557966,146.75736453792103L195.78453093937463,146.83868976431035L196.63948522295271,147.28279740956657L197.49443950653077,147.01902386978207L198.3493937901088,146.4440930839284L199.20434807368687,147.12256133003393L200.05930235726493,150.6509867509685L200.91425664084298,150.13781987421225L201.76921092442103,150.37505814695737L202.62416520799908,147.13497251358464L203.47911949157717,142.70319466068554L204.3340737751552,145.0156356783065L205.18902805873327,148.43962151168853L206.04398234231132,148.38616598295698L206.89893662588935,148.89063948469462L207.75389090946743,149.25981672999674L208.60884519304548,145.0290419751545L209.46379947662354,151.93544473713666L210.3187537602016,147.85896474604215L211.17370804377964,152.92724479656596L212.0286623273577,147.2798088070081L212.88361661093575,148.36114133052956L213.73857089451383,142.99381342083157L214.59352517809188,149.79965427445416L215.4484794616699,145.6477446954236L216.303433745248,147.09975529085955L217.15838802882604,151.54411724863638L218.01334231240406,148.35920004393319L218.86829659598214,148.9927413716651L219.7232508795602,146.60598986073427L220.57820516313825,148.6604289956951L221.4331594467163,148.5408555293571L222.28811373029438,150.3838771346381L223.1430680138724,149.16296121083633L223.99802229745046,143.71312046412535L224.85297658102854,149.09898358248572L225.7079308646066,149.7527697561514L226.56288514818462,146.62665559065283L227.4178394317627,152.1115047494298L228.27279371534075,147.6816747084602L229.1277479989188,149.51270601417525L229.98270228249686,151.29015128449686L230.83765656607494,148.94908036791233L231.69261084965297,149.49847100002393L232.54756513323102,152.54923714425016L233.4025194168091,152.3690890107717L234.25747370038712,147.7838516367613L235.11242798396518,149.5950622431939L235.96738226754326,153.0824384249478L236.8223365511213,150.202779565194L237.67729083469936,147.9783326643876L238.53224511827742,150.4812024777815L239.38719940185547,150.37290804970186L240.24215368543352,150.17695229679563L241.09710796901157,152.9101239538524L241.95206225258966,151.28652972462794L242.80701653616768,149.86096956690113L243.66197081974573,152.1531657385883L244.5169251033238,149.77461004602742L245.37187938690184,149.3453344829009L246.22683367047992,149.98352511046454L247.08178795405797,150.62678755317785L247.93674223763603,150.4290389650032L248.79169652121408,150.31272816521374L249.64665080479213,153.20348009123268L250.5016050883702,149.55771449921258L251.35655937194824,151.27117724718372L252.2115136555263,153.46062715525704L253.06646793910437,147.96029338104063L253.9214222226824,150.69407189407545L254.77637650626045,153.40116505740963L255.63133078983853,150.4617830864845L256.4862850734166,152.28950278565276L257.3412393569946,145.54285649122062L258.1961936405727,151.90825041145445L259.05114792415077,153.92832714232588L259.9061022077288,149.96213180590564L260.7610564913069,151.08319545132215L261.6160107748849,150.009763474848L262.470965058463,152.89316461313302L263.325919342041,152.62391468754677L264.1808736256191,148.78859632572198L265.0358279091971,154.00580568485444L265.8907821927752,148.35925550926453L266.7457364763533,148.53713608949175L267.6006907599313,150.58952137586027L268.4556450435093,152.3810434210056L269.3105993270874,150.6600488073071L270.1655536106654,150.80617222268398L271.0205078942435,151.6892422880494L271.8754621778216,149.16025319760104L272.7304164613996,152.768868436966L273.5853707449777,150.40951843104318L274.4403250285557,152.0905437481886L275.2952793121338,153.17808675748526L276.1502335957118,149.13180927063073L277.0051878792899,152.74114392796963L277.860142162868,152.8850470987602L278.715096446446,152.1096254534978L279.57005073002404,150.4364517434015L280.4250050136021,150.8602884413916L281.27995929718014,147.77932305559193L282.1349135807582,151.17311617273361L282.9898678643363,151.1245823764906L283.84482214791433,151.7498397938557L284.6997764314924,152.69934916948264L285.55473071507043,150.0223019023941L286.4096849986485,151.6023933671934L287.26463928222654,150.87663440079984L288.1195935658046,149.0724483154463" fill="none"></path></g><g><path style="fill: none;" stroke="rgb(51, 187, 238)" stroke-width="2px" d="M21.37385708945138,11.3424253440609L22.228811373029437,17.211610096924577L23.08376565660749,17.9748913599598L23.938719940185546,21.29512439709777L24.7936742237636,23.89007971115811L25.64862850734166,31.068637803288L26.50358279091971,40.77082931872681L27.358537074497768,51.272569898554565L28.213491358075824,47.20029222197459L29.068445641653877,72.1937927091879L29.923399925231934,60.01972671256647L30.77835420880999,81.43498901731513L31.633308492388046,72.53398442487267L32.4882627759661,92.47112827646384L33.34321705954416,99.12136277438617L34.19817134312221,100.37926428618238L35.053125626700265,94.30553644205668L35.90807991027832,102.39903758906482L36.76303419385638,103.17272023305682L37.61798847743443,104.60367357858837L38.47294276101248,102.99353458621016L39.32789704459054,107.09216155783628L40.182851328168596,111.74433253609027L41.037805611746656,108.11447244349438L41.89275989532471,113.79813545107413L42.74771417890276,114.01636869117388L43.602668462480814,112.89784829433196L44.457622746058874,115.48610209130158L45.312577029636934,111.80468534190544L46.16753131321498,114.98306416284532L47.02248559679304,115.78829026702874L47.87743988037109,119.17363307780971L48.73239416394915,119.09559009396827L49.5873484475272,118.06330849933778L50.44230273110526,119.75842037930656L51.29725701468332,120.8217560341462L52.15221129826137,120.44770436502054L53.00716558183942,119.22158122540728L53.862119865417476,122.04697215245898L54.717074148995536,121.06413300670528L55.572028432573596,122.41164039259098L56.42698271615165,125.14256733506238L57.2819369997297,125.41459868388125L58.136891283307754,123.41588915623629L58.991845566885814,124.62257332855327L59.84679985046387,121.66454195563662L60.70175413404192,123.79414640254305L61.55670841761998,127.01694316587498L62.41166270119803,128.41030406743408L63.26661698477609,125.86089231572504L64.12157126835415,126.32680109885874L64.9765255519322,123.68701674642125L65.83147983551025,130.72823615285625L66.68643411908832,129.85136189126655L67.54138840266636,128.9150320571625L68.39634268624442,128.82812440830864L69.25129696982248,132.23996985946349L70.10625125340053,127.29305284787958L70.96120553697858,127.0254717762329L71.81615982055663,128.11649441940358L72.6711141041347,128.90869595872522L73.52606838771275,129.35897004375823L74.38102267129081,132.94290157935006L75.23597695486886,132.83768058315917L76.09093123844691,128.87481969195156L76.94588552202497,132.12242903438525L77.80083980560303,132.73378422958697L78.65579408918109,133.5221227717151L79.51074837275914,130.32046156228472L80.36570265633719,132.10765241758685L81.22065693991524,133.42451683924853L82.07561122349331,132.25488350825694L82.93056550707135,133.38011847285577L83.78551979064942,135.65474192251241L84.64047407422747,131.38197664919028L85.49542835780552,125.59818893056848L86.35038264138359,128.42779196013436L87.20533692496163,137.10221088611274L88.06029120853968,135.68757413599053L88.91524549211775,136.30411370833792L89.7701997756958,136.5908466326246L90.62515405927387,133.05571153793292L91.4801083428519,134.12069157671306L92.33506262642996,131.0474554479669L93.19001691000803,132.6016723357029L94.04497119358608,137.2354483999561L94.89992547716412,135.9990152340494L95.75487976074218,132.84418307759046L96.60983404432024,136.46261404926673L97.4647883278983,133.38317885407832L98.31974261147636,133.34266306087835L99.1746968950544,137.88108769525007L100.02965117863246,132.00337106936192L100.88460546221052,135.58048689453383L101.73955974578858,137.4613228051126L102.59451402936664,139.253808968223L103.44946831294467,131.49288773584186L104.30442259652274,137.72155308902535L105.1593768801008,133.44290522791619L106.01433116367885,135.94149442279837L106.86928544725691,134.92291602767182L107.72423973083495,139.16146245423272L108.57919401441302,133.99378037330735L109.43414829799107,138.30803697712747L110.28910258156913,139.52702140233248L111.14405686514719,137.31854851694783L111.99901114872523,136.3773899363519L112.8539654323033,136.01472497348072L113.70891971588135,143.05296556535689L114.5638739994594,140.28574145753282L115.41882828303747,137.42481356643427L116.27378256661551,136.26835488296575L117.12873685019356,137.39538431416628L117.98369113377163,135.92503753272746L118.83864541734968,139.5669955928854L119.69359970092773,137.16792099040066L120.54855398450579,137.8987485092774L121.40350826808384,140.45648332335182L122.2584625516619,137.14798283512243L123.11341683523996,140.77386899986217L123.96837111881801,137.4927422839752L124.82332540239607,136.76740909556622L125.67827968597412,139.9024336034089L126.53323396955219,139.03506022680858L127.38818825313022,140.1177043422826L128.2431425367083,138.62925628683237L129.09809682028634,140.55412840781696L129.9530511038644,139.50672761640047L130.80800538744245,138.62058411914632L131.6629596710205,139.1960401943143L132.51791395459855,142.27825844406863L133.37286823817664,142.77222942218646L134.22782252175466,138.73561595364873L135.0827768053327,140.9409240524813L135.9377310889108,138.25990938286972L136.79268537248885,141.80829742908162L137.6476396560669,143.80675573140235L138.50259393964495,141.69800624907427L139.357548223223,138.4841035147537L140.21250250680106,141.20722942150746L141.0674567903791,146.51470371337223L141.92241107395716,143.30022348707257L142.77736535753522,144.5991758693827L143.63231964111327,142.3832151642691L144.48727392469135,144.9200917510986L145.3422282082694,144.71721914510942L146.19718249184743,143.28783840485426L147.0521367754255,147.29593616775762L147.90709105900356,143.23466346544592L148.76204534258162,146.56833216343085L149.61699962615967,146.9370069580845L150.47195390973772,145.8239711037107L151.32690819331577,144.84668175375612L152.18186247689383,135.27317306965887L153.0368167604719,142.92662532859717L153.89177104404993,141.02985455459526L154.74672532762798,148.1144706887926L155.60167961120607,143.62666632592175L156.45663389478412,142.18663297938554L157.31158817836217,147.00699441821757L158.16654246194022,144.1466048670995L159.02149674551828,143.98054819044424L159.87645102909633,140.73162399339148L160.73140531267438,147.10124632947222L161.58635959625246,144.21717634454475L162.4413138798305,145.21493892709154L163.29626816340854,146.8958223182421L164.15122244698662,147.73491816386607L165.00617673056465,146.20234580601323L165.8611310141427,145.04755108248446L166.71608529772078,141.0200404536172L167.57103958129883,143.44189499394395L168.4259938648769,146.3660925147521L169.28094814845494,147.8363316281948L170.13590243203302,145.37744255987542L170.99085671561105,147.59069525175374L171.8458109991891,143.4080317778365L172.70076528276718,148.83063578420013L173.5557195663452,146.70348812520476L174.41067384992326,147.53050231659944L175.26562813350134,148.3842768990254L176.12058241707936,149.8563170044029L176.97553670065744,145.0776035040632L177.8304909842355,143.5641112201863L178.68544526781355,146.7936062379424L179.5403995513916,145.9200533708991L180.39535383496965,146.0296202389327L181.25030811854774,149.2540679115382L182.10526240212576,148.19899985373257L182.9602166857038,145.59674269193658L183.8151709692819,148.14471560769772L184.67012525285992,148.1341771947459L185.525079536438,149.2067429332514L186.38003382001605,147.2133319760813L187.23498810359408,146.52141175579607L188.08994238717216,148.8161332313918L188.9448966707502,146.8411465522214L189.79985095432824,147.04753957541647L190.65480523790632,149.5864749048381L191.50975952148437,146.75235960743555L192.36471380506245,141.74429696206516L193.21966808864047,143.88342839529338L194.07462237221856,150.5705244998813L194.9295766557966,151.12908648766086L195.78453093937463,149.8622844215202L196.63948522295271,151.68997149402298L197.49443950653077,147.2639913995807L198.3493937901088,146.57487707252724L199.20434807368687,144.7649193300493L200.05930235726493,146.75542325132466L200.91425664084298,149.53562298401232L201.76921092442103,151.60232321986263L202.62416520799908,146.30251619438695L203.47911949157717,148.88692004482925L204.3340737751552,146.66841119714124L205.18902805873327,146.0675454748931L206.04398234231132,150.59380362570525L206.89893662588935,146.89442915962584L207.75389090946743,148.3546714627638L208.60884519304548,149.62669705804868L209.46379947662354,151.16068541318361L210.3187537602016,145.3527931141011L211.17370804377964,150.16937638506988L212.0286623273577,146.1538625811017L212.88361661093575,149.5084156076639L213.73857089451383,147.34909805649977L214.59352517809188,150.75817676642146L215.4484794616699,147.11644056758882L216.303433745248,149.50028830529146L217.15838802882604,150.82854922120725L218.01334231240406,149.07198175412987L218.86829659598214,147.30536201141638L219.7232508795602,147.56848628055772L220.57820516313825,152.96418307589542L221.4331594467163,150.2618501430556L222.28811373029438,149.21058961711213L223.1430680138724,147.22170724111143L223.99802229745046,148.3932361813677L224.85297658102854,147.88462235577998L225.7079308646066,149.78196409642788L226.56288514818462,147.7752577730724L227.4178394317627,148.6145559040224L228.27279371534075,150.78503993144898L229.1277479989188,148.22260198354482L229.98270228249686,151.52251023941858L230.83765656607494,148.3181981134175L231.69261084965297,146.40769477591272L232.54756513323102,149.18687003130412L233.4025194168091,148.76586859054476L234.25747370038712,149.77317773541262L235.11242798396518,151.12903754766262L235.96738226754326,146.83161630323306L236.8223365511213,151.9571643083504L237.67729083469936,149.75932119058092L238.53224511827742,150.29068559001172L239.38719940185547,147.9909591839305L240.24215368543352,152.12047708243833L241.09710796901157,152.15629789847492L241.95206225258966,151.69398783654427L242.80701653616768,152.38261928894855L243.66197081974573,152.98525663913256L244.5169251033238,152.99567433342207L245.37187938690184,151.7967716208234L246.22683367047992,151.99836363019227L247.08178795405797,151.8264276284165L247.93674223763603,152.75582266477159L248.79169652121408,150.7326398753459L249.64665080479213,151.00561739746388L250.5016050883702,154.37877741135253L251.35655937194824,146.62262946013192L252.2115136555263,150.70264455043178L253.06646793910437,149.23871706542724L253.9214222226824,148.4519021885773L254.77637650626045,150.50451749293748L255.63133078983853,153.64290254732518L256.4862850734166,154.31947518416598L257.3412393569946,150.89868676400152L258.1961936405727,148.87584002923037L259.05114792415077,152.00022498145822L259.9061022077288,152.03340956292357L260.7610564913069,151.5851550684841L261.6160107748849,147.4236793511332L262.470965058463,153.5265819595361L263.325919342041,152.60316575963122L264.1808736256191,151.36265589187212L265.0358279091971,152.8509783346602L265.8907821927752,151.52862937053038L266.7457364763533,148.82388206444463L267.6006907599313,152.15460620586947L268.4556450435093,149.10629521822102L269.3105993270874,149.67078873378586L270.1655536106654,149.2597123246672L271.0205078942435,152.7948637326916L271.8754621778216,152.81802866518635L272.7304164613996,155.55775665067245L273.5853707449777,155.061390875308L274.4403250285557,155.2725294469979L275.2952793121338,151.9221917856164L276.1502335957118,151.12346817586425L277.0051878792899,149.48603697780737L277.860142162868,154.15785084001692L278.715096446446,155.23141658581957L279.57005073002404,152.5990450117804L280.4250050136021,154.4318055307662L281.27995929718014,150.52723217744852L282.1349135807582,151.14972285358047L282.9898678643363,154.48488748417793L283.84482214791433,152.4439574200614L284.6997764314924,155.7816228845683L285.55473071507043,150.46690221029917L286.4096849986485,153.96858844753507L287.26463928222654,150.44330986848658L288.1195935658046,154.0172560131066" fill="none"></path></g><g><path style="fill: none;" stroke="rgb(255, 112, 67)" stroke-width="2px" d="M21.37385708945138,11.729142684728059L22.228811373029437,17.23174727486227L23.08376565660749,17.937148833326116L23.938719940185546,19.82452312766816L24.7936742237636,22.877126153161246L25.64862850734166,30.01418312679351L26.50358279091971,37.9023189905694L27.358537074497768,48.91190014401289L28.213491358075824,51.47002647807312L29.068445641653877,67.7286508281633L29.923399925231934,71.65003670220568L30.77835420880999,80.32080796698281L31.633308492388046,94.50578586414079L32.4882627759661,95.37900593919613L33.34321705954416,100.12127871685502L34.19817134312221,98.60142423320843L35.053125626700265,97.044558060235L35.90807991027832,100.6154878696309L36.76303419385638,104.13020845972824L37.61798847743443,107.42071207927577L38.47294276101248,109.50871426502158L39.32789704459054,107.06104876962922L40.182851328168596,108.08962397506059L41.037805611746656,111.84649315105861L41.89275989532471,112.97337249959793L42.74771417890276,112.0870560810167L43.602668462480814,116.34817037209393L44.457622746058874,115.0320824650708L45.312577029636934,118.19066342539406L46.16753131321498,119.28352621249815L47.02248559679304,114.6942529199672L47.87743988037109,120.61075286311802L48.73239416394915,120.34836269395012L49.5873484475272,120.50303918968405L50.44230273110526,120.23807151394277L51.29725701468332,121.55133395173485L52.15221129826137,124.85344940152868L53.00716558183942,123.77149370869643L53.862119865417476,124.52597229738365L54.717074148995536,125.06738570978402L55.572028432573596,124.50204716358309L56.42698271615165,121.3873066536728L57.2819369997297,123.98635008891847L58.136891283307754,130.88336942190696L58.991845566885814,125.17936368839696L59.84679985046387,126.51725925863065L60.70175413404192,127.25803138514738L61.55670841761998,124.76958908323118L62.41166270119803,129.35935177574441L63.26661698477609,129.85857890967193L64.12157126835415,129.80985424743582L64.9765255519322,132.55731638397526L65.83147983551025,128.82312274048968L66.68643411908832,134.9597972103367L67.54138840266636,132.39863659638627L68.39634268624442,128.69298149720092L69.25129696982248,136.1607586655275L70.10625125340053,130.2620141537339L70.96120553697858,134.5075231107094L71.81615982055663,127.0012399517768L72.6711141041347,131.727307064689L73.52606838771275,131.11032703235756L74.38102267129081,128.33522684748527L75.23597695486886,134.9503844173441L76.09093123844691,134.20519790298718L76.94588552202497,132.39278337259816L77.80083980560303,132.19920284093928L78.65579408918109,134.00424374492854L79.51074837275914,129.46293491332793L80.36570265633719,132.38933473405635L81.22065693991524,134.38109804461942L82.07561122349331,131.8290402703395L82.93056550707135,135.12197457646573L83.78551979064942,136.14182867421277L84.64047407422747,134.85108516093882L85.49542835780552,131.70928083200823L86.35038264138359,138.46092553159275L87.20533692496163,136.92328951525656L88.06029120853968,136.4051519660136L88.91524549211775,136.62045533155273L89.7701997756958,139.0567373833572L90.62515405927387,135.76746378909843L91.4801083428519,136.43188625571244L92.33506262642996,139.20851336852942L93.19001691000803,136.54765871552138L94.04497119358608,132.39722059910423L94.89992547716412,137.76612111407863L95.75487976074218,132.49462750891132L96.60983404432024,139.2566833774523L97.4647883278983,136.4604215373461L98.31974261147636,140.00087804117845L99.1746968950544,136.6379301735868L100.02965117863246,138.39597562861067L100.88460546221052,139.8216858689987L101.73955974578858,137.35942972880122L102.59451402936664,136.78279909367575L103.44946831294467,139.34516036891603L104.30442259652274,139.96256128523223L105.1593768801008,137.5112285526393L106.01433116367885,142.40039962898032L106.86928544725691,141.93483995116733L107.72423973083495,136.82111258695545L108.57919401441302,136.37453510312193L109.43414829799107,141.63885410454895L110.28910258156913,140.18500336517963L111.14405686514719,144.95674128443852L111.99901114872523,141.67575160054656L112.8539654323033,138.10470759782152L113.70891971588135,141.02072561359242L114.5638739994594,141.71829677233973L115.41882828303747,140.20490889379238L116.27378256661551,138.14108959250444L117.12873685019356,138.993898425632L117.98369113377163,142.06998612494158L118.83864541734968,145.24668140994243L119.69359970092773,143.4030659993496L120.54855398450579,143.04778445087777L121.40350826808384,142.6891390931944L122.2584625516619,136.2751444920533L123.11341683523996,144.27016531195983L123.96837111881801,138.98719364587473L124.82332540239607,145.77382391885942L125.67827968597412,146.31150157806167L126.53323396955219,144.0879225465572L127.38818825313022,145.62821437346395L128.2431425367083,141.26458057409798L129.09809682028634,143.0911452893081L129.9530511038644,142.25990920739955L130.80800538744245,142.13215297335776L131.6629596710205,145.61178684739195L132.51791395459855,146.68003934072027L133.37286823817664,144.21958745512416L134.22782252175466,144.98235974217778L135.0827768053327,144.11711688683366L135.9377310889108,146.23640804478012L136.79268537248885,143.98453516896657L137.6476396560669,146.88421701332888L138.50259393964495,144.28657652469906L139.357548223223,142.6150504612098L140.21250250680106,143.9628678004176L141.0674567903791,143.68193263458772L141.92241107395716,142.25585045021313L142.77736535753522,142.9338912870008L143.63231964111327,147.12892352980361L144.48727392469135,147.41127469291558L145.3422282082694,148.34844303232262L146.19718249184743,144.37868486403136L147.0521367754255,143.88023424474235L147.90709105900356,146.42564922992943L148.76204534258162,145.6746225424506L149.61699962615967,144.12727683046586L150.47195390973772,146.24578494844067L151.32690819331577,145.62859284278358L152.18186247689383,147.76641920939238L153.0368167604719,149.62178021956L153.89177104404993,147.36995954641122L154.74672532762798,143.8170951216947L155.60167961120607,148.16033399246567L156.45663389478412,146.04828269159043L157.31158817836217,143.07119408336365L158.16654246194022,147.65770715999452L159.02149674551828,148.30607404452306L159.87645102909633,146.24879965233154L160.73140531267438,151.20840680545606L161.58635959625246,147.6142517042343L162.4413138798305,147.76634416806178L163.29626816340854,145.11310457877804L164.15122244698662,146.26881284894037L165.00617673056465,152.39263893791917L165.8611310141427,146.17451526035404L166.71608529772078,147.58272129470907L167.57103958129883,146.4108562997983L168.4259938648769,145.58754523493621L169.28094814845494,148.3654480503737L170.13590243203302,149.5172574340105L170.99085671561105,149.69925223675546L171.8458109991891,150.26999702142734L172.70076528276718,147.50797360408166L173.5557195663452,153.35106681255655L174.41067384992326,152.57154888944245L175.26562813350134,148.23835087497469L176.12058241707936,154.24197380297161L176.97553670065744,148.27751918689012L177.8304909842355,152.1649570154948L178.68544526781355,146.36198481756747L179.5403995513916,150.0275547955373L180.39535383496965,149.07466692869934L181.25030811854774,144.73367603518034L182.10526240212576,151.41309834804605L182.9602166857038,151.42295812635578L183.8151709692819,147.2939589918292L184.67012525285992,148.47940973024816L185.525079536438,149.85721097503722L186.38003382001605,146.08180659037683L187.23498810359408,148.71187145916616L188.08994238717216,150.05012918538674L188.9448966707502,147.62169384663156L189.79985095432824,148.04760233787997L190.65480523790632,150.8987650679987L191.50975952148437,149.45931900144126L192.36471380506245,146.48734299169607L193.21966808864047,152.93635089890296L194.07462237221856,149.62544419409403L194.9295766557966,149.17552900238138L195.78453093937463,149.664550515345L196.63948522295271,151.66781309415848L197.49443950653077,149.5293390882398L198.3493937901088,149.90706125723258L199.20434807368687,151.96087069754955L200.05930235726493,151.3772824260093L200.91425664084298,147.1686008177006L201.76921092442103,152.07274753349952L202.62416520799908,145.87776921242983L203.47911949157717,151.3460538131398L204.3340737751552,149.76708307429993L205.18902805873327,152.11086200411972L206.04398234231132,149.9931858661148L206.89893662588935,151.59599690942497L207.75389090946743,152.63707302173708L208.60884519304548,149.73039765162798L209.46379947662354,149.45890464278958L210.3187537602016,151.2309240986409L211.17370804377964,153.01280985813509L212.0286623273577,150.90519252109937L212.88361661093575,152.6550454204198L213.73857089451383,153.27979712446992L214.59352517809188,150.30300541889906L215.4484794616699,148.10478383180995L216.303433745248,153.4235975212642L217.15838802882604,152.47480756361125L218.01334231240406,155.71493398031583L218.86829659598214,153.48936472221672L219.7232508795602,148.81904026728657L220.57820516313825,152.807808362223L221.4331594467163,152.62153130963304L222.28811373029438,153.18417489326487L223.1430680138724,150.7411325963718L223.99802229745046,150.0902893479329L224.85297658102854,153.48555719035454L225.7079308646066,154.4929120125541L226.56288514818462,153.59411100042482L227.4178394317627,153.609832159189L228.27279371534075,152.28711777640578L229.1277479989188,148.59132245553016L229.98270228249686,154.7898733964705L230.83765656607494,150.06284379692647L231.69261084965297,155.77205348358137L232.54756513323102,155.48442169466057L233.4025194168091,153.5011298977908L234.25747370038712,155.09844008530013L235.11242798396518,154.5374441482753L235.96738226754326,153.9988757811053L236.8223365511213,152.17156228392233L237.67729083469936,156.45906828471084L238.53224511827742,150.26067884576466L239.38719940185547,155.80007000123382L240.24215368543352,153.32713189075636L241.09710796901157,152.5835065623429L241.95206225258966,153.22876738831724L242.80701653616768,155.5402801773051L243.66197081974573,156.29527100464045L244.5169251033238,154.9352969698727L245.37187938690184,149.92099936872802L246.22683367047992,155.43838057566063L247.08178795405797,152.60330605429283L247.93674223763603,155.4592616415714L248.79169652121408,154.32623216658806L249.64665080479213,149.9518805076101L250.5016050883702,153.6907006122615L251.35655937194824,153.74789841952423L252.2115136555263,153.88670204249942L253.06646793910437,153.39209321307135L253.9214222226824,153.911602713598L254.77637650626045,152.82947083677212L255.63133078983853,154.33299241167666L256.4862850734166,155.47140202379856L257.3412393569946,151.45018181603695L258.1961936405727,153.41720106349578L259.05114792415077,158.15576255795568L259.9061022077288,153.10075014095156L260.7610564913069,153.95961611452654L261.6160107748849,154.96189422757652L262.470965058463,154.6902772374093L263.325919342041,155.24623235461655L264.1808736256191,155.048222753118L265.0358279091971,151.5999267912827L265.8907821927752,155.19277030055196L266.7457364763533,152.6931810983726L267.6006907599313,156.5545322765883L268.4556450435093,156.46002098334301L269.3105993270874,154.149809998308L270.1655536106654,156.6265328019818L271.0205078942435,153.9596193771931L271.8754621778216,156.42572056991804L272.7304164613996,157.16173246594045L273.5853707449777,152.0140847889565L274.4403250285557,155.20971495927188L275.2952793121338,154.9050390003014L276.1502335957118,156.16157508614702L277.0051878792899,155.26276918001793L277.860142162868,154.54958126783595L278.715096446446,151.49361769579787L279.57005073002404,155.9693110404405L280.4250050136021,155.75975649335987L281.27995929718014,159.118502046437L282.1349135807582,157.45838879053457L282.9898678643363,155.60708653755333L283.84482214791433,153.9689603915216L284.6997764314924,157.46136107976028L285.55473071507043,156.5667852208114L286.4096849986485,154.28807201863614L287.26463928222654,154.10984885842132L288.1195935658046,154.48175695562458" fill="none"></path></g></g></g></g></g></g><g transform="translate(30, 177)" clip-path="url(#clip_1)"><clipPath id="clip_1"><rect width="299" height="22"></rect></clipPath><g><g><line x1="0" y1="0" x2="0" y2="5" style="visibility: inherit;" fill="rgb(0, 0, 0)" stroke="rgb(204, 204, 204)" stroke-width="1px"></line><line x1="21.37385708945138" y1="0" x2="21.37385708945138" y2="5" style="visibility: inherit;" fill="rgb(0, 0, 0)" stroke="rgb(204, 204, 204)" stroke-width="1px"></line><line x1="42.74771417890276" y1="0" x2="42.74771417890276" y2="5" style="visibility: inherit;" fill="rgb(0, 0, 0)" stroke="rgb(204, 204, 204)" stroke-width="1px"></line><line x1="64.12157126835415" y1="0" x2="64.12157126835415" y2="5" style="visibility: inherit;" fill="rgb(0, 0, 0)" stroke="rgb(204, 204, 204)" stroke-width="1px"></line><line x1="85.49542835780552" y1="0" x2="85.49542835780552" y2="5" style="visibility: inherit;" fill="rgb(0, 0, 0)" stroke="rgb(204, 204, 204)" stroke-width="1px"></line><line x1="106.86928544725691" y1="0" x2="106.86928544725691" y2="5" style="visibility: inherit;" fill="rgb(0, 0, 0)" stroke="rgb(204, 204, 204)" stroke-width="1px"></line><line x1="128.2431425367083" y1="0" x2="128.2431425367083" y2="5" style="visibility: inherit;" fill="rgb(0, 0, 0)" stroke="rgb(204, 204, 204)" stroke-width="1px"></line><line x1="149.61699962615967" y1="0" x2="149.61699962615967" y2="5" style="visibility: inherit;" fill="rgb(0, 0, 0)" stroke="rgb(204, 204, 204)" stroke-width="1px"></line><line x1="170.99085671561105" y1="0" x2="170.99085671561105" y2="5" style="visibility: inherit;" fill="rgb(0, 0, 0)" stroke="rgb(204, 204, 204)" stroke-width="1px"></line><line x1="192.36471380506245" y1="0" x2="192.36471380506245" y2="5" style="visibility: inherit;" fill="rgb(0, 0, 0)" stroke="rgb(204, 204, 204)" stroke-width="1px"></line><line x1="213.73857089451383" y1="0" x2="213.73857089451383" y2="5" style="visibility: inherit;" fill="rgb(0, 0, 0)" stroke="rgb(204, 204, 204)" stroke-width="1px"></line><line x1="235.11242798396518" y1="0" x2="235.11242798396518" y2="5" style="visibility: inherit;" fill="rgb(0, 0, 0)" stroke="rgb(204, 204, 204)" stroke-width="1px"></line><line x1="256.4862850734166" y1="0" x2="256.4862850734166" y2="5" style="visibility: inherit;" fill="rgb(0, 0, 0)" stroke="rgb(204, 204, 204)" stroke-width="1px"></line><line x1="277.860142162868" y1="0" x2="277.860142162868" y2="5" style="visibility: inherit;" fill="rgb(0, 0, 0)" stroke="rgb(204, 204, 204)" stroke-width="1px"></line><line x1="299.23399925231934" y1="0" x2="299.23399925231934" y2="5" style="visibility: inherit;" fill="rgb(0, 0, 0)" stroke="rgb(204, 204, 204)" stroke-width="1px"></line></g><g transform="translate(0, 8)"><text style="text-anchor: middle; visibility: hidden; font-family: Roboto, sans-serif; font-size: 12px; font-weight: 200;" x="0" y="0" dx="0em" dy="0.95em" fill="rgb(50, 49, 63)" stroke="none" stroke-width="1px">-500</text><text style="text-anchor: middle; visibility: hidden; font-family: Roboto, sans-serif; font-size: 12px; font-weight: 200;" x="21.37385708945138" y="0" dx="0em" dy="0.95em" fill="rgb(50, 49, 63)" stroke="none" stroke-width="1px">0</text><text style="text-anchor: middle; visibility: hidden; font-family: Roboto, sans-serif; font-size: 12px; font-weight: 200;" x="42.74771417890276" y="0" dx="0em" dy="0.95em" fill="rgb(50, 49, 63)" stroke="none" stroke-width="1px">500</text><text style="text-anchor: middle; visibility: hidden; font-family: Roboto, sans-serif; font-size: 12px; font-weight: 200;" x="64.12157126835415" y="0" dx="0em" dy="0.95em" fill="rgb(50, 49, 63)" stroke="none" stroke-width="1px">1k</text><text style="text-anchor: middle; visibility: hidden; font-family: Roboto, sans-serif; font-size: 12px; font-weight: 200;" x="85.49542835780552" y="0" dx="0em" dy="0.95em" fill="rgb(50, 49, 63)" stroke="none" stroke-width="1px">1.5k</text><text style="text-anchor: middle; visibility: hidden; font-family: Roboto, sans-serif; font-size: 12px; font-weight: 200;" x="106.86928544725691" y="0" dx="0em" dy="0.95em" fill="rgb(50, 49, 63)" stroke="none" stroke-width="1px">2k</text><text style="text-anchor: middle; visibility: hidden; font-family: Roboto, sans-serif; font-size: 12px; font-weight: 200;" x="128.2431425367083" y="0" dx="0em" dy="0.95em" fill="rgb(50, 49, 63)" stroke="none" stroke-width="1px">2.5k</text><text style="text-anchor: middle; visibility: hidden; font-family: Roboto, sans-serif; font-size: 12px; font-weight: 200;" x="149.61699962615967" y="0" dx="0em" dy="0.95em" fill="rgb(50, 49, 63)" stroke="none" stroke-width="1px">3k</text><text style="text-anchor: middle; visibility: hidden; font-family: Roboto, sans-serif; font-size: 12px; font-weight: 200;" x="170.99085671561105" y="0" dx="0em" dy="0.95em" fill="rgb(50, 49, 63)" stroke="none" stroke-width="1px">3.5k</text><text style="text-anchor: middle; visibility: hidden; font-family: Roboto, sans-serif; font-size: 12px; font-weight: 200;" x="192.36471380506245" y="0" dx="0em" dy="0.95em" fill="rgb(50, 49, 63)" stroke="none" stroke-width="1px">4k</text><text style="text-anchor: middle; visibility: hidden; font-family: Roboto, sans-serif; font-size: 12px; font-weight: 200;" x="213.73857089451383" y="0" dx="0em" dy="0.95em" fill="rgb(50, 49, 63)" stroke="none" stroke-width="1px">4.5k</text><text style="text-anchor: middle; visibility: hidden; font-family: Roboto, sans-serif; font-size: 12px; font-weight: 200;" x="235.11242798396518" y="0" dx="0em" dy="0.95em" fill="rgb(50, 49, 63)" stroke="none" stroke-width="1px">5k</text><text style="text-anchor: middle; visibility: hidden; font-family: Roboto, sans-serif; font-size: 12px; font-weight: 200;" x="256.4862850734166" y="0" dx="0em" dy="0.95em" fill="rgb(50, 49, 63)" stroke="none" stroke-width="1px">5.5k</text><text style="text-anchor: middle; visibility: hidden; font-family: Roboto, sans-serif; font-size: 12px; font-weight: 200;" x="277.860142162868" y="0" dx="0em" dy="0.95em" fill="rgb(50, 49, 63)" stroke="none" stroke-width="1px">6k</text><text style="text-anchor: middle; visibility: hidden; font-family: Roboto, sans-serif; font-size: 12px; font-weight: 200;" x="299.23399925231934" y="0" dx="0em" dy="0.95em" fill="rgb(50, 49, 63)" stroke="none" stroke-width="1px">6.5k</text></g><line x1="0" y1="0" x2="299.23399925231934" y2="0" fill="rgb(0, 0, 0)" stroke="rgb(204, 204, 204)" stroke-width="1px"></line></g></g></g></g></svg>