<svg viewBox="0 0 330 200" xmlns="http://www.w3.org/2000/svg"><g><g><g><g><g><line x1="30.766000747680664" y1="177.89999961853027" x2="25.766000747680664" y2="177.89999961853027" style="visibility: inherit;" fill="rgb(0, 0, 0)" stroke="rgb(204, 204, 204)" stroke-width="1px"></line><line x1="30.766000747680664" y1="160.10999965667725" x2="25.766000747680664" y2="160.10999965667725" style="visibility: inherit;" fill="rgb(0, 0, 0)" stroke="rgb(204, 204, 204)" stroke-width="1px"></line><line x1="30.766000747680664" y1="142.31999969482422" x2="25.766000747680664" y2="142.31999969482422" style="visibility: inherit;" fill="rgb(0, 0, 0)" stroke="rgb(204, 204, 204)" stroke-width="1px"></line><line x1="30.766000747680664" y1="124.52999973297118" x2="25.766000747680664" y2="124.52999973297118" style="visibility: inherit;" fill="rgb(0, 0, 0)" stroke="rgb(204, 204, 204)" stroke-width="1px"></line><line x1="30.766000747680664" y1="106.73999977111816" x2="25.766000747680664" y2="106.73999977111816" style="visibility: inherit;" fill="rgb(0, 0, 0)" stroke="rgb(204, 204, 204)" stroke-width="1px"></line><line x1="30.766000747680664" y1="88.94999980926514" x2="25.766000747680664" y2="88.94999980926514" style="visibility: inherit;" fill="rgb(0, 0, 0)" stroke="rgb(204, 204, 204)" stroke-width="1px"></line><line x1="30.766000747680664" y1="71.15999984741211" x2="25.766000747680664" y2="71.15999984741211" style="visibility: inherit;" fill="rgb(0, 0, 0)" stroke="rgb(204, 204, 204)" stroke-width="1px"></line><line x1="30.766000747680664" y1="53.36999988555909" x2="25.766000747680664" y2="53.36999988555909" style="visibility: inherit;" fill="rgb(0, 0, 0)" stroke="rgb(204, 204, 204)" stroke-width="1px"></line><line x1="30.766000747680664" y1="35.57999992370605" x2="25.766000747680664" y2="35.57999992370605" style="visibility: inherit;" fill="rgb(0, 0, 0)" stroke="rgb(204, 204, 204)" stroke-width="1px"></line><line x1="30.766000747680664" y1="17.789999961853024" x2="25.766000747680664" y2="17.789999961853024" style="visibility: inherit;" fill="rgb(0, 0, 0)" stroke="rgb(204, 204, 204)" stroke-width="1px"></line><line x1="30.766000747680664" y1="0" x2="25.766000747680664" y2="0" style="visibility: inherit;" fill="rgb(0, 0, 0)" stroke="rgb(204, 204, 204)" stroke-width="1px"></line></g><g transform="translate(20.766000747680664, 0)"><text style="text-anchor: end; visibility: hidden; font-family: Roboto, sans-serif; font-size: 12px; font-weight: 200;" x="0" y="177.89999961853027" dx="0em" dy="0.3em" fill="rgb(50, 49, 63)" stroke="none" stroke-width="1px">0</text><text style="text-anchor: end; visibility: inherit; font-family: Roboto, sans-serif; font-size: 12px; font-weight: 200;" x="0" y="160.10999965667725" dx="0em" dy="0.3em" fill="rgb(50, 49, 63)" stroke="none" stroke-width="1px">1</text><text style="text-anchor: end; visibility: hidden; font-family: Roboto, sans-serif; font-size: 12px; font-weight: 200;" x="0" y="142.31999969482422" dx="0em" dy="0.3em" fill="rgb(50, 49, 63)" stroke="none" stroke-width="1px">2</text><text style="text-anchor: end; visibility: inherit; font-family: Roboto, sans-serif; font-size: 12px; font-weight: 200;" x="0" y="124.52999973297118" dx="0em" dy="0.3em" fill="rgb(50, 49, 63)" stroke="none" stroke-width="1px">3</text><text style="text-anchor: end; visibility: hidden; font-family: Roboto, sans-serif; font-size: 12px; font-weight: 200;" x="0" y="106.73999977111816" dx="0em" dy="0.3em" fill="rgb(50, 49, 63)" stroke="none" stroke-width="1px">4</text><text style="text-anchor: end; visibility: inherit; font-family: Roboto, sans-serif; font-size: 12px; font-weight: 200;" x="0" y="88.94999980926514" dx="0em" dy="0.3em" fill="rgb(50, 49, 63)" stroke="none" stroke-width="1px">5</text><text style="text-anchor: end; visibility: hidden; font-family: Roboto, sans-serif; font-size: 12px; font-weight: 200;" x="0" y="71.15999984741211" dx="0em" dy="0.3em" fill="rgb(50, 49, 63)" stroke="none" stroke-width="1px">6</text><text style="text-anchor: end; visibility: inherit; font-family: Roboto, sans-serif; font-size: 12px; font-weight: 200;" x="0" y="53.36999988555909" dx="0em" dy="0.3em" fill="rgb(50, 49, 63)" stroke="none" stroke-width="1px">7</text><text style="text-anchor: end; visibility: hidden; font-family: Roboto, sans-serif; font-size: 12px; font-weight: 200;" x="0" y="35.57999992370605" dx="0em" dy="0.3em" fill="rgb(50, 49, 63)" stroke="none" stroke-width="1px">8</text><text style="text-anchor: end; visibility: inherit; font-family: Roboto, sans-serif; font-size: 12px; font-weight: 200;" x="0" y="17.789999961853024" dx="0em" dy="0.3em" fill="rgb(50, 49, 63)" stroke="none" stroke-width="1px">9</text><text style="text-anchor: end; visibility: hidden; font-family: Roboto, sans-serif; font-size: 12px; font-weight: 200;" x="0" y="0" dx="0em" dy="0.3em" fill="rgb(50, 49, 63)" stroke="none" stroke-width="1px">10</text></g><line x1="30.766000747680664" y1="0" x2="30.766000747680664" y2="177.89999961853027" fill="rgb(0, 0, 0)" stroke="rgb(204, 204, 204)" stroke-width="1px"></line></g></g><g transform="translate(30, 0)" clip-path="url(#clip_0)"><clipPath id="clip_0"><rect width="299" height="177"></rect></clipPath><g><g><g><line x1="0" y1="0" x2="0" y2="177.89999961853027" fill="rgb(0, 0, 0)" stroke="rgb(60, 60, 60)" stroke-width="1px" opacity="0.25"></line><line x1="21.37385708945138" y1="0" x2="21.37385708945138" y2="177.89999961853027" fill="rgb(0, 0, 0)" stroke="rgb(60, 60, 60)" stroke-width="1px" opacity="0.25"></line><line x1="42.74771417890276" y1="0" x2="42.74771417890276" y2="177.89999961853027" fill="rgb(0, 0, 0)" stroke="rgb(60, 60, 60)" stroke-width="1px" opacity="0.25"></line><line x1="64.12157126835415" y1="0" x2="64.12157126835415" y2="177.89999961853027" fill="rgb(0, 0, 0)" stroke="rgb(60, 60, 60)" stroke-width="1px" opacity="0.25"></line><line x1="85.49542835780552" y1="0" x2="85.49542835780552" y2="177.89999961853027" fill="rgb(0, 0, 0)" stroke="rgb(60, 60, 60)" stroke-width="1px" opacity="0.25"></line><line x1="106.86928544725691" y1="0" x2="106.86928544725691" y2="177.89999961853027" fill="rgb(0, 0, 0)" stroke="rgb(60, 60, 60)" stroke-width="1px" opacity="0.25"></line><line x1="128.2431425367083" y1="0" x2="128.2431425367083" y2="177.89999961853027" fill="rgb(0, 0, 0)" stroke="rgb(60, 60, 60)" stroke-width="1px" opacity="0.25"></line><line x1="149.61699962615967" y1="0" x2="149.61699962615967" y2="177.89999961853027" fill="rgb(0, 0, 0)" stroke="rgb(60, 60, 60)" stroke-width="1px" opacity="0.25"></line><line x1="170.99085671561105" y1="0" x2="170.99085671561105" y2="177.89999961853027" fill="rgb(0, 0, 0)" stroke="rgb(60, 60, 60)" stroke-width="1px" opacity="0.25"></line><line x1="192.36471380506245" y1="0" x2="192.36471380506245" y2="177.89999961853027" fill="rgb(0, 0, 0)" stroke="rgb(60, 60, 60)" stroke-width="1px" opacity="0.25"></line><line x1="213.73857089451383" y1="0" x2="213.73857089451383" y2="177.89999961853027" fill="rgb(0, 0, 0)" stroke="rgb(60, 60, 60)" stroke-width="1px" opacity="0.25"></line><line x1="235.11242798396518" y1="0" x2="235.11242798396518" y2="177.89999961853027" fill="rgb(0, 0, 0)" stroke="rgb(60, 60, 60)" stroke-width="1px" opacity="0.25"></line><line x1="256.4862850734166" y1="0" x2="256.4862850734166" y2="177.89999961853027" fill="rgb(0, 0, 0)" stroke="rgb(60, 60, 60)" stroke-width="1px" opacity="0.25"></line><line x1="277.860142162868" y1="0" x2="277.860142162868" y2="177.89999961853027" fill="rgb(0, 0, 0)" stroke="rgb(60, 60, 60)" stroke-width="1px" opacity="0.25"></line><line x1="299.23399925231934" y1="0" x2="299.23399925231934" y2="177.89999961853027" fill="rgb(0, 0, 0)" stroke="rgb(60, 60, 60)" stroke-width="1px" opacity="0.25"></line></g><g><line x1="0" y1="177.89999961853027" x2="299.23399925231934" y2="177.89999961853027" fill="rgb(0, 0, 0)" stroke="rgb(60, 60, 60)" stroke-width="1px" opacity="0.25"></line><line x1="0" y1="160.10999965667725" x2="299.23399925231934" y2="160.10999965667725" fill="rgb(0, 0, 0)" stroke="rgb(60, 60, 60)" stroke-width="1px" opacity="0.25"></line><line x1="0" y1="142.31999969482422" x2="299.23399925231934" y2="142.31999969482422" fill="rgb(0, 0, 0)" stroke="rgb(60, 60, 60)" stroke-width="1px" opacity="0.25"></line><line x1="0" y1="124.52999973297118" x2="299.23399925231934" y2="124.52999973297118" fill="rgb(0, 0, 0)" stroke="rgb(60, 60, 60)" stroke-width="1px" opacity="0.25"></line><line x1="0" y1="106.73999977111816" x2="299.23399925231934" y2="106.73999977111816" fill="rgb(0, 0, 0)" stroke="rgb(60, 60, 60)" stroke-width="1px" opacity="0.25"></line><line x1="0" y1="88.94999980926514" x2="299.23399925231934" y2="88.94999980926514" fill="rgb(0, 0, 0)" stroke="rgb(60, 60, 60)" stroke-width="1px" opacity="0.25"></line><line x1="0" y1="71.15999984741211" x2="299.23399925231934" y2="71.15999984741211" fill="rgb(0, 0, 0)" stroke="rgb(60, 60, 60)" stroke-width="1px" opacity="0.25"></line><line x1="0" y1="53.36999988555909" x2="299.23399925231934" y2="53.36999988555909" fill="rgb(0, 0, 0)" stroke="rgb(60, 60, 60)" stroke-width="1px" opacity="0.25"></line><line x1="0" y1="35.57999992370605" x2="299.23399925231934" y2="35.57999992370605" fill="rgb(0, 0, 0)" stroke="rgb(60, 60, 60)" stroke-width="1px" opacity="0.25"></line><line x1="0" y1="17.789999961853024" x2="299.23399925231934" y2="17.789999961853024" fill="rgb(0, 0, 0)" stroke="rgb(60, 60, 60)" stroke-width="1px" opacity="0.25"></line><line x1="0" y1="0" x2="299.23399925231934" y2="0" fill="rgb(0, 0, 0)" stroke="rgb(60, 60, 60)" stroke-width="1px" opacity="0.25"></line></g></g></g><g><g><line x1="0" y1="177.89999961853027" x2="299.23399925231934" y2="177.89999961853027" fill="rgb(0, 0, 0)" stroke="rgb(153, 153, 153)" stroke-width="1.5px"></line></g></g><g><g><line x1="21.37385708945138" y1="0" x2="21.37385708945138" y2="177.89999961853027" fill="rgb(0, 0, 0)" stroke="rgb(153, 153, 153)" stroke-width="1.5px"></line></g></g><g><g><g><g><g><path style="fill: none;" stroke="rgb(238, 51, 119)" stroke-width="2px" d="M21.37385708945138,14.871684376298617L22.228811373029437,18.723943318510123L23.08376565660749,20.9139563861345L23.938719940185546,22.84886150491976L24.7936742237636,25.400718803327052L25.64862850734166,30.357587130003417L26.50358279091971,37.13071293866834L27.358537074497768,46.685357614550846L28.213491358075824,45.47041622644164L29.068445641653877,42.82702939204856L29.923399925231934,46.63555079654636L30.77835420880999,60.73647978043376L31.633308492388046,77.7371714604411L32.4882627759661,83.49320678821586L33.34321705954416,94.472499484359L34.19817134312221,101.47860474548125L35.053125626700265,103.92624344221116L35.90807991027832,108.05231376116875L36.76303419385638,112.98791538770925L37.61798847743443,116.55304497835779L38.47294276101248,119.1466123368907L39.32789704459054,120.0665456723469L40.182851328168596,121.92837661977798L41.037805611746656,123.782327370739L41.89275989532471,123.83976182825374L42.74771417890276,123.75430745244624L43.602668462480814,124.50228581190639L44.457622746058874,124.81117511342536L45.312577029636934,125.5741116955155L46.16753131321498,125.7040436592396L47.02248559679304,125.16630636861709L47.87743988037109,125.96040493677067L48.73239416394915,126.85962120428503L49.5873484475272,127.50080362326501L50.44230273110526,127.04770804426263L51.29725701468332,127.91790798694903L52.15221129826137,128.5184933812082L53.00716558183942,128.79996012429442L53.862119865417476,128.45715473795406L54.717074148995536,128.80740221984325L55.572028432573596,129.56105901445088L56.42698271615165,129.3596074725233L57.2819369997297,130.91591250581112L58.136891283307754,131.72880185374507L58.991845566885814,131.07355863903328L59.84679985046387,131.89447820893528L60.70175413404192,132.46066350610084L61.55670841761998,132.12397444683106L62.41166270119803,131.12501829541998L63.26661698477609,132.46186728149132L64.12157126835415,133.0515504574562L64.9765255519322,132.8782156355015L65.83147983551025,132.8604624189936L66.68643411908832,134.1730292801219L67.54138840266636,133.3581925491511L68.39634268624442,133.8479376518348L69.25129696982248,134.76962864234318L70.10625125340053,135.01323504086224L70.96120553697858,134.88922424943416L71.81615982055663,135.29010293934496L72.6711141041347,134.40663134779444L73.52606838771275,135.20875400314387L74.38102267129081,136.09651617427824L75.23597695486886,136.12009909336115L76.09093123844691,136.35390082283263L76.94588552202497,136.31415196607276L77.80083980560303,137.38999615780693L78.65579408918109,137.28928280674128L79.51074837275914,137.44027154274175L80.36570265633719,137.0566722213482L81.22065693991524,136.29469889464423L82.07561122349331,136.17847112233224L82.93056550707135,137.29733758578325L83.78551979064942,136.46243635864704L84.64047407422747,136.7897793825674L85.49542835780552,136.2671158062572L86.35038264138359,136.16997496591515L87.20533692496163,137.07575374451665L88.06029120853968,136.94131081205848L88.91524549211775,137.91312085656304L89.7701997756958,137.89320098226844L90.62515405927387,137.75827028102364L91.4801083428519,137.9838596110461L92.33506262642996,138.52085294246658L93.19001691000803,139.53577712834812L94.04497119358608,139.78118536551776L94.89992547716412,140.2204315250355L95.75487976074218,139.0602597289794L96.60983404432024,137.97615408107174L97.4647883278983,138.1986286119794L98.31974261147636,139.4309772054641L99.1746968950544,140.13492600491864L100.02965117863246,140.16640173074205L100.88460546221052,140.41227857791216L101.73955974578858,139.4351017972761L102.59451402936664,141.33878427374137L103.44946831294467,140.75704121242913L104.30442259652274,142.12281010737732L105.1593768801008,140.98804628698423L106.01433116367885,141.66156544707871L106.86928544725691,139.69606545939743L107.72423973083495,140.50964734995125L108.57919401441302,139.66628308133883L109.43414829799107,139.84767560477982L110.28910258156913,141.2474133282193L111.14405686514719,140.42309621682037L111.99901114872523,140.77488550291466L112.8539654323033,140.23943891263593L113.70891971588135,140.508579703922L114.5638739994594,141.3792475592073L115.41882828303747,142.15671310261155L116.27378256661551,142.46446742050676L117.12873685019356,140.8424274801944L117.98369113377163,141.81675939142374L118.83864541734968,141.90641332781215L119.69359970092773,141.4345624412606L120.54855398450579,143.0130425897518L121.40350826808384,143.09859466947486L122.2584625516619,143.41492850358205L123.11341683523996,143.8528970097291L123.96837111881801,143.2842649992219L124.82332540239607,144.0470029510615L125.67827968597412,144.82264882569325L126.53323396955219,145.2395860784929L127.38818825313022,143.9242876104704L128.2431425367083,143.7985451489466L129.09809682028634,143.89941658668948L129.9530511038644,143.6708046151888L130.80800538744245,143.1893440227255L131.6629596710205,143.38228638703188L132.51791395459855,145.0878153801449L133.37286823817664,144.63791112857126L134.22782252175466,144.56671945696547L135.0827768053327,144.04188459009515L135.9377310889108,143.55337111436458L136.79268537248885,144.11016130247916L137.6476396560669,143.19722644633072L138.50259393964495,142.27657106608743L139.357548223223,143.2694178901891L140.21250250680106,145.21547998184607L141.0674567903791,144.8294578735641L141.92241107395716,145.37916854815032L142.77736535753522,144.6045552460837L143.63231964111327,144.3120569721541L144.48727392469135,145.15029056005832L145.3422282082694,146.30105279726916L146.19718249184743,145.7988615019972L147.0521367754255,145.65269872159078L147.90709105900356,146.775300129693L148.76204534258162,145.5879981297859L149.61699962615967,146.38040357107369L150.47195390973772,146.69238750277705L151.32690819331577,146.47591070739887L152.18186247689383,147.32684509887872L153.0368167604719,146.09821699056678L153.89177104404993,144.9542707625717L154.74672532762798,144.9681750851442L155.60167961120607,146.19216269942692L156.45663389478412,147.4402536983869L157.31158817836217,147.26637810612652L158.16654246194022,147.42262554941735L159.02149674551828,147.03688046754993L159.87645102909633,147.347570033497L160.73140531267438,146.51444041168023L161.58635959625246,147.176400415144L162.4413138798305,146.99774983364102L163.29626816340854,145.93791592637243L164.15122244698662,147.08654729882298L165.00617673056465,147.51141065359508L165.8611310141427,145.94228853737022L166.71608529772078,146.6327135705058L167.57103958129883,148.31867307403036L168.4259938648769,147.82648178346275L169.28094814845494,148.33874986786032L170.13590243203302,149.42999141406835L170.99085671561105,149.23231524395825L171.8458109991891,148.4169137884768L172.70076528276718,148.07313400925543L173.5557195663452,148.70256144050973L174.41067384992326,148.01503890307603L175.26562813350134,148.23833308703902L176.12058241707936,149.24711545892143L176.97553670065744,149.3778920232279L177.8304909842355,149.90271886983982L178.68544526781355,149.84916217498525L179.5403995513916,148.67086090369813L180.39535383496965,149.16415832848807L181.25030811854774,150.17675630296642L182.10526240212576,150.12074358972865L182.9602166857038,150.07464993266467L183.8151709692819,150.42268587629255L184.67012525285992,151.07477716970251L185.525079536438,149.83709248991755L186.38003382001605,149.2479260643851L187.23498810359408,148.55120928370368L188.08994238717216,148.15625703459276L188.9448966707502,148.0367539485004L189.79985095432824,148.96419145942193L190.65480523790632,148.5436228234509L191.50975952148437,148.75476874338298L192.36471380506245,148.90015607290525L193.21966808864047,148.29298405602336L194.07462237221856,149.71987421001145L194.9295766557966,149.58249397271706L195.78453093937463,149.74259967190716L196.63948522295271,150.02536990244892L197.49443950653077,150.06059536646737L198.3493937901088,150.02824151068148L199.20434807368687,149.92727936885544L200.05930235726493,151.14412067108947L200.91425664084298,151.55899626800147L201.76921092442103,152.12191739211508L202.62416520799908,151.195315196114L203.47911949157717,148.95688287382026L204.3340737751552,148.49277410302525L205.18902805873327,149.63025626907637L206.04398234231132,150.04901118092113L206.89893662588935,150.56833668776352L207.75389090946743,151.09510922271934L208.60884519304548,150.3051348522924L209.46379947662354,151.84861734969547L210.3187537602016,151.26545479096023L211.17370804377964,152.92712958521838L212.0286623273577,151.7571488611801L212.88361661093575,151.62009237945273L213.73857089451383,149.55468023434247L214.59352517809188,150.71499851582323L215.4484794616699,149.89277161839976L216.303433745248,149.92460707725402L217.15838802882604,151.41380064601458L218.01334231240406,151.26016826523195L218.86829659598214,151.32389072479862L219.7232508795602,150.49379929986605L220.57820516313825,150.97645293889732L221.4331594467163,151.19131981358123L222.28811373029438,151.66802746806803L223.1430680138724,151.42966343817008L223.99802229745046,149.61215306234274L224.85297658102854,150.4284133770997L225.7079308646066,151.09668271197157L226.56288514818462,150.58294321736767L227.4178394317627,152.01334196291828L228.27279371534075,151.44850048333873L229.1277479989188,151.75142788104947L229.98270228249686,152.53277329525022L230.83765656607494,152.3419782102089L231.69261084965297,152.3869887830105L232.54756513323102,153.29819413993602L233.4025194168091,153.7086101930524L234.25747370038712,152.3300549506483L235.11242798396518,152.15369001231412L235.96738226754326,153.37987646237386L236.8223365511213,152.87413229135146L237.67729083469936,152.04705214718737L238.53224511827742,152.4798387681504L239.38719940185547,152.6457387024695L240.24215368543352,152.74476968707938L241.09710796901157,153.88156233855008L241.95206225258966,153.61799618398555L242.80701653616768,152.97922792696605L243.66197081974573,153.32719155815002L244.5169251033238,152.8746640303469L245.37187938690184,152.50856281042243L246.22683367047992,152.4320464835258L247.08178795405797,152.88322468661946L247.93674223763603,153.0341890707571L248.79169652121408,153.0438006503841L249.64665080479213,154.13520827709917L250.5016050883702,153.24316880846007L251.35655937194824,153.32720517624554L252.2115136555263,154.22085344364464L253.06646793910437,152.6077454154372L253.9214222226824,152.76701639264272L254.77637650626045,153.70087768989893L255.63133078983853,153.39301377744155L256.4862850734166,153.82889747894077L257.3412393569946,151.94961025104647L258.1961936405727,152.91807226307156L259.05114792415077,154.16039409968232L259.9061022077288,153.46992354296165L260.7610564913069,153.5786259061034L261.6160107748849,153.42924099453072L262.470965058463,154.0852445913145L263.325919342041,154.36368160232718L264.1808736256191,153.27816664267917L265.0358279091971,154.45034895021172L265.8907821927752,153.10055611001533L266.7457364763533,152.24232174959482L267.6006907599313,152.53691930814318L268.4556450435093,153.51047974242726L269.3105993270874,153.46664567839744L270.1655536106654,153.52154133002688L271.0205078942435,153.73454424376598L271.8754621778216,153.08276614348426L272.7304164613996,153.76203675107473L273.5853707449777,153.49626630667092L274.4403250285557,153.9101731179122L275.2952793121338,154.5050170251L276.1502335957118,153.60088702234333L277.0051878792899,154.1167787665354L277.860142162868,154.82582263368138L278.715096446446,154.77095885871591L279.57005073002404,154.43939723996115L280.4250050136021,154.055932723175L281.27995929718014,152.61099620854887L282.1349135807582,152.89716349728226L282.9898678643363,153.21070360048088L283.84482214791433,153.5149462911298L284.6997764314924,153.97958251208055L285.55473071507043,153.43227077775634L286.4096849986485,153.7424458519386L287.26463928222654,153.64791256802067L288.1195935658046,152.96308569784793" fill="none"></path></g><g><path style="fill: none;" stroke="rgb(51, 187, 238)" stroke-width="2px" d="M21.37385708945138,14.38868313565035L22.228811373029437,18.530538807711533L23.08376565660749,20.820482773997195L23.938719940185546,22.961032825313936L24.7936742237636,25.612491087880386L25.64862850734166,30.807324335808865L26.50358279091971,38.29095320835415L27.358537074497768,48.16155491448232L28.213491358075824,52.08838847309723L29.068445641653877,67.10505564641416L29.923399925231934,70.1877469037329L30.77835420880999,82.65868373624403L31.633308492388046,84.84358853988354L32.4882627759661,95.92543944014444L33.34321705954416,105.66449466071798L34.19817134312221,111.8324569470739L35.053125626700265,112.74453180595731L35.90807991027832,116.53438782811845L36.76303419385638,119.4456067177218L37.61798847743443,120.57828880989467L38.47294276101248,120.64893800047108L39.32789704459054,122.246728394059L40.182851328168596,124.71937732965772L41.037805611746656,124.60046456429154L41.89275989532471,126.30892141419427L42.74771417890276,127.03053023814229L43.602668462480814,126.30538657679188L44.457622746058874,127.77023640770904L45.312577029636934,126.97394567880202L46.16753131321498,127.09386375311679L47.02248559679304,127.3228896792476L47.87743988037109,128.3195873779375L48.73239416394915,129.26046066687783L49.5873484475272,129.1745081986387L50.44230273110526,129.87357111662828L51.29725701468332,130.53349153057232L52.15221129826137,130.79175559119477L53.00716558183942,130.5026545365985L53.862119865417476,130.71303135554095L54.717074148995536,130.6423533015247L55.572028432573596,131.16726976114617L56.42698271615165,132.14744615512797L57.2819369997297,132.71521161439895L58.136891283307754,132.55509620784503L58.991845566885814,132.99550800760508L59.84679985046387,132.09240001116495L60.70175413404192,132.1784724545219L61.55670841761998,133.31358836181568L62.41166270119803,134.37977797581246L63.26661698477609,134.40980807832082L64.12157126835415,134.16056115531296L64.9765255519322,133.15868521593487L65.83147983551025,134.88089419151385L66.68643411908832,135.43763652333823L67.54138840266636,135.55947117326122L68.39634268624442,135.53952436743666L69.25129696982248,136.69374580513846L70.10625125340053,135.90073725668373L70.96120553697858,135.01648908191692L71.81615982055663,135.04957169611964L72.6711141041347,135.2473694473194L73.52606838771275,135.37398133700535L74.38102267129081,136.78464806340634L75.23597695486886,137.52661301417422L76.09093123844691,136.39198143542546L76.94588552202497,137.2247528475177L77.80083980560303,137.90418601146519L78.65579408918109,138.30155271889967L79.51074837275914,137.32052397545212L80.36570265633719,137.57379372098652L81.22065693991524,138.18043738534064L82.07561122349331,138.3121422152419L82.93056550707135,138.41189740149878L83.78551979064942,139.3123514922091L84.64047407422747,138.68420850381295L85.49542835780552,136.11595885725123L86.35038264138359,135.81424512679942L87.20533692496163,138.11023163560486L88.06029120853968,139.23011033896427L88.91524549211775,139.83968969982362L89.7701997756958,140.4652050846421L90.62515405927387,139.79467046859364L91.4801083428519,139.55704584366907L92.33506262642996,138.5647068255032L93.19001691000803,138.3398565916427L94.04497119358608,139.54355837262744L94.89992547716412,139.86944154095275L95.75487976074218,139.35311763411764L96.60983404432024,140.2415375799735L97.4647883278983,139.59255221081116L98.31974261147636,139.15285719646815L99.1746968950544,140.39515440811297L100.02965117863246,139.0940522879043L100.88460546221052,139.64099378659867L101.73955974578858,140.34421290711802L102.59451402936664,141.67604922462363L103.44946831294467,139.816218072716L104.30442259652274,140.82120278604694L105.1593768801008,140.10769076109074L106.01433116367885,140.47832125058866L106.86928544725691,140.2256688675106L107.72423973083495,141.5071841431174L108.57919401441302,140.3447601941841L109.43414829799107,141.38475980822005L110.28910258156913,142.41979161349525L111.14405686514719,142.05098474625296L111.99901114872523,141.4601552213121L112.8539654323033,140.7719474040282L113.70891971588135,142.97337529813598L114.5638739994594,143.66947334844414L115.41882828303747,142.87748289495275L116.27378256661551,141.9575165681857L117.12873685019356,142.1826735359391L117.98369113377163,141.4590064746124L118.83864541734968,142.37105195054778L119.69359970092773,141.94503487488797L120.54855398450579,142.29705457728198L121.40350826808384,143.1959141571583L122.2584625516619,142.51309883375296L123.11341683523996,143.17312785335835L123.96837111881801,142.65106626566353L124.82332540239607,142.14374998492582L125.67827968597412,142.69535856717528L126.53323396955219,142.8830469777117L127.38818825313022,143.314314616818L128.2431425367083,143.42111448292954L129.09809682028634,143.8844657011025L129.9530511038644,143.24295703052033L130.80800538744245,142.57586536446644L131.6629596710205,143.06188006203038L132.51791395459855,144.34141635056488L133.37286823817664,144.97087903975736L134.22782252175466,144.21276741916276L135.0827768053327,144.30238259285525L135.9377310889108,143.530786914123L136.79268537248885,144.1185883652186L137.6476396560669,145.22544100340093L138.50259393964495,145.2966481619607L139.357548223223,144.08452186478988L140.21250250680106,144.44770931285169L141.0674567903791,146.46552542143732L141.92241107395716,146.444829135326L142.77736535753522,147.034804796892L143.63231964111327,146.7470749728489L144.48727392469135,147.27575423514145L145.3422282082694,147.45008884131576L146.19718249184743,147.30244195684526L147.0521367754255,148.3940342487994L147.90709105900356,147.7107916698025L148.76204534258162,148.407467639597L149.61699962615967,148.99788204888569L150.47195390973772,148.85992801635706L151.32690819331577,148.500972504838L152.18186247689383,145.03228834569921L153.0368167604719,145.70009614819244L153.89177104404993,145.27270574963873L154.74672532762798,147.35889878428802L155.60167961120607,147.3164413767278L156.45663389478412,146.75463433990072L157.31158817836217,147.93304391710222L158.16654246194022,147.79342932540635L159.02149674551828,147.95413445873865L159.87645102909633,146.76527696907962L160.73140531267438,147.76851960146337L161.58635959625246,147.5684861477126L162.4413138798305,147.64861239728336L163.29626816340854,148.41357403072723L164.15122244698662,149.1830696225125L165.00617673056465,149.2231151568745L165.8611310141427,148.83892931928273L166.71608529772078,147.26859198771052L167.57103958129883,147.17535728456716L168.4259938648769,148.0552341233904L169.28094814845494,149.01744143808295L170.13590243203302,148.98377069957706L170.99085671561105,149.5188839562906L171.8458109991891,148.3216892816812L172.70076528276718,149.55172574803674L173.5557195663452,149.36488737173084L174.41067384992326,149.68247289740552L175.26562813350134,150.15033129343826L176.12058241707936,151.04052386166094L176.97553670065744,149.9157136268091L177.8304909842355,148.67899010717036L178.68544526781355,148.94951026825174L179.5403995513916,148.8344991666999L180.39535383496965,148.85154253009375L181.25030811854774,149.99920007807404L182.10526240212576,150.21045063424913L182.9602166857038,149.54351654668625L183.8151709692819,150.06357703419573L184.67012525285992,150.3209128296683L185.525079536438,150.83069321339346L186.38003382001605,150.38247620202046L187.23498810359408,150.0474919406012L188.08994238717216,150.57525743563468L188.9448966707502,150.23228216394747L189.79985095432824,149.92922660109642L190.65480523790632,150.85971361498548L191.50975952148437,150.56237563192013L192.36471380506245,148.45388587064514L193.21966808864047,148.13575285541265L194.07462237221856,149.91963283961175L194.9295766557966,151.21040681068422L195.78453093937463,151.55504012859464L196.63948522295271,152.44987336197943L197.49443950653077,151.50529606414773L198.3493937901088,150.52644201268737L199.20434807368687,149.38971630679373L200.05930235726493,149.54181701895445L200.91425664084298,150.5145517414074L201.76921092442103,151.74798863786262L202.62416520799908,150.73783846106832L203.47911949157717,151.03024789673194L204.3340737751552,150.33747214924048L205.18902805873327,149.7809094246462L206.04398234231132,150.9731837750661L206.89893662588935,150.52543986539695L207.75389090946743,150.71698924309592L208.60884519304548,151.3463425908794L209.46379947662354,152.18881423962782L210.3187537602016,150.8200415294466L211.17370804377964,151.50989875066062L212.0286623273577,150.65585551126352L212.88361661093575,151.3847040739167L213.73857089451383,150.88704978215515L214.59352517809188,151.84529110914636L215.4484794616699,150.92569749549804L216.303433745248,151.4233853310249L217.15838802882604,152.22472548544852L218.01334231240406,151.97163032392382L218.86829659598214,151.11968694387272L219.7232508795602,150.66620316383396L220.57820516313825,152.2850519796237L221.4331594467163,152.60889377122973L222.28811373029438,152.16669214608882L223.1430680138724,151.22619671728617L223.99802229745046,151.28890697170635L224.85297658102854,150.9378162911237L225.7079308646066,151.56957566451797L226.56288514818462,151.04694725375631L227.4178394317627,151.30817799062407L228.27279371534075,152.05196763330633L229.1277479989188,151.70781698880972L229.98270228249686,152.43011700110208L230.83765656607494,151.86723675336964L231.69261084965297,150.8695924026464L232.54756513323102,151.13584166253128L233.4025194168091,151.21404139010772L234.25747370038712,151.58456815573876L235.11242798396518,152.3637030906667L235.96738226754326,151.21372030759042L236.8223365511213,152.39299752426217L237.67729083469936,152.37936694399988L238.53224511827742,152.6109968710279L239.38719940185547,151.9471805841999L240.24215368543352,152.88566872328389L241.09710796901157,153.4062553259264L241.95206225258966,153.62613313800622L242.80701653616768,154.06359641040672L243.66197081974573,154.37326493027206L244.5169251033238,154.52248848327537L245.37187938690184,154.42959289888148L246.22683367047992,154.40199767855972L247.08178795405797,154.2839889088393L247.93674223763603,154.7536465793885L248.79169652121408,154.1848820876823L249.64665080479213,153.85531966071517L250.5016050883702,154.69097565067182L251.35655937194824,152.73694780358758L252.2115136555263,152.88010591541868L253.06646793910437,152.47376926244326L253.9214222226824,151.96366934051156L254.77637650626045,152.4044408729299L255.63133078983853,153.98696156695942L256.4862850734166,155.03651321255558L257.3412393569946,154.51741839432847L258.1961936405727,153.55509913572732L259.05114792415077,154.02983982575853L259.9061022077288,153.973263151337L260.7610564913069,154.03691498773762L261.6160107748849,152.4804495592793L262.470965058463,153.72294481307097L263.325919342041,153.94952822773107L264.1808736256191,153.78305662438177L265.0358279091971,154.31939109446054L265.8907821927752,154.03022888433188L266.7457364763533,153.1638209881653L267.6006907599313,153.72550355517978L268.4556450435093,153.15786512379086L269.3105993270874,152.78847063122717L270.1655536106654,152.4037741487652L271.0205078942435,153.41310423207358L271.8754621778216,154.2972054562432L272.7304164613996,155.54617401124102L273.5853707449777,156.2823904804763L274.4403250285557,156.6432271126792L275.2952793121338,155.72567037622818L276.1502335957118,154.7915236819247L277.0051878792899,153.63767485919612L277.860142162868,154.76537036340656L278.715096446446,155.60284104197643L279.57005073002404,155.37451537573423L280.4250050136021,155.77825436222722L281.27995929718014,154.6469336038739L282.1349135807582,154.28764997300206L282.9898678643363,155.17100983629675L283.84482214791433,155.11798528444677L284.6997764314924,156.1488386013473L285.55473071507043,154.98330579503158L286.4096849986485,155.41324348692206L287.26463928222654,154.41019096231952L288.1195935658046,155.15804074816504" fill="none"></path></g><g><path style="fill: none;" stroke="rgb(255, 112, 67)" stroke-width="2px" d="M21.37385708945138,14.871684376298617L22.228811373029437,18.725682319780503L23.08376565660749,20.893540216914367L23.938719940185546,22.87355276560431L24.7936742237636,25.340386841445408L25.64862850734166,30.00306734627144L26.50358279091971,36.26129341402697L27.358537074497768,45.444883480765185L28.213491358075824,52.271947316400954L29.068445641653877,64.72158722007684L29.923399925231934,74.34948334953336L30.77835420880999,84.23489419125613L31.633308492388046,96.96211074585761L32.4882627759661,105.0264965963746L33.34321705954416,111.55507498286296L34.19817134312221,114.73033130028533L35.053125626700265,115.82184611819122L35.90807991027832,117.37704054194494L36.76303419385638,119.53105191258133L37.61798847743443,121.99223669343175L38.47294276101248,123.74897202451083L39.32789704459054,123.63017539609689L40.182851328168596,123.13169284221438L41.037805611746656,124.27130112183573L41.89275989532471,125.08292285350524L42.74771417890276,125.63183520175821L43.602668462480814,126.80124263907214L44.457622746058874,126.76515912886427L45.312577029636934,127.76360586140073L46.16753131321498,128.53852829916076L47.02248559679304,127.64576598560559L47.87743988037109,129.17125966887244L48.73239416394915,129.41381676535997L49.5873484475272,129.68578234987183L50.44230273110526,129.94752489611827L51.29725701468332,130.36455535505632L52.15221129826137,131.3172962135153L53.00716558183942,131.7769337733093L53.862119865417476,132.20289306496483L54.717074148995536,132.663104129603L55.572028432573596,132.62113095877254L56.42698271615165,131.5092137750602L57.2819369997297,131.87181858163453L58.136891283307754,134.07612509868113L58.991845566885814,133.96251451544023L59.84679985046387,133.9547839735592L60.70175413404192,134.33996695956026L61.55670841761998,133.73600664450984L62.41166270119803,134.76705060709068L63.26661698477609,135.27990668589842L64.12157126835415,135.89396449355866L64.9765255519322,136.89669861908587L65.83147983551025,136.49408028174028L66.68643411908832,137.96954653952358L67.54138840266636,137.77732244461183L68.39634268624442,137.1189716924423L69.25129696982248,139.1192853431751L70.10625125340053,137.9876984760532L70.96120553697858,138.73994779447617L71.81615982055663,136.87265730146657L72.6711141041347,137.24160610827948L73.52606838771275,137.1051907261193L74.38102267129081,136.38017399770646L75.23597695486886,138.04840031955973L76.09093123844691,138.6496457572742L76.94588552202497,138.6414397240326L77.80083980560303,138.30799755678032L78.65579408918109,138.83405266102275L79.51074837275914,137.7665502799856L80.36570265633719,137.883221880593L81.22065693991524,138.6356343882536L82.07561122349331,138.4255980447429L82.93056550707135,139.26720913966068L83.78551979064942,140.04582842969154L84.64047407422747,140.14779277106422L85.49542835780552,139.28403816654455L86.35038264138359,140.68282477598092L87.20533692496163,140.90216908584466L88.06029120853968,141.00599406610195L88.91524549211775,141.1378100835796L89.7701997756958,141.94650064608066L90.62515405927387,141.45831623297917L91.4801083428519,141.49803665835677L92.33506262642996,142.6508972500715L93.19001691000803,142.07666563980877L94.04497119358608,140.5758350387099L94.89992547716412,141.31559915288497L95.75487976074218,140.05377646364383L96.60983404432024,141.4422863697064L97.4647883278983,141.52182622723706L98.31974261147636,142.56780388612444L99.1746968950544,142.2156023856994L100.02965117863246,142.25640443450396L100.88460546221052,142.9059276799063L101.73955974578858,142.6865356490112L102.59451402936664,142.09027491934734L103.44946831294467,142.6657946555236L104.30442259652274,143.37273393213815L105.1593768801008,142.695520130111L106.01433116367885,143.9382070140256L106.86928544725691,144.79980204617567L107.72423973083495,143.61110250822531L108.57919401441302,142.73075882531847L109.43414829799107,143.72051834155602L110.28910258156913,143.90387219775906L111.14405686514719,145.53948148401292L111.99901114872523,145.31080246740993L112.8539654323033,144.25986695433923L113.70891971588135,144.37712963523825L114.5638739994594,144.93426338962263L115.41882828303747,144.26036401795022L116.27378256661551,143.66484538162763L117.12873685019356,143.49701832313457L117.98369113377163,144.45923359622708L118.83864541734968,146.04249016566712L119.69359970092773,146.26431918566325L120.54855398450579,146.48208475219587L121.40350826808384,146.59132468622417L122.2584625516619,144.30522401505274L123.11341683523996,145.67262464354016L123.96837111881801,144.6594765021301L124.82332540239607,146.38668119824496L125.67827968597412,147.54632889624943L126.53323396955219,147.63500841935L127.38818825313022,148.02229439482306L128.2431425367083,147.07169043103832L129.09809682028634,146.89909532724795L129.9530511038644,146.12821731065134L130.80800538744245,145.65990768524938L131.6629596710205,146.91945393442626L132.51791395459855,147.9708823082411L133.37286823817664,147.50730270033623L134.22782252175466,147.81818435613658L135.0827768053327,147.8128743641082L135.9377310889108,148.5773463033413L136.79268537248885,148.4034596959941L137.6476396560669,149.22523752373974L138.50259393964495,148.5046603235488L139.357548223223,147.49881598496867L140.21250250680106,147.45063950262386L141.0674567903791,147.19378363010895L141.92241107395716,146.62591504824493L142.77736535753522,146.40614864797456L143.63231964111327,147.83607991068746L144.48727392469135,148.79268669647735L145.3422282082694,149.68976653521426L146.19718249184743,148.92338090539192L147.0521367754255,148.0999023062362L147.90709105900356,148.6246349139406L148.76204534258162,148.71683141835646L149.61699962615967,148.1717476804477L150.47195390973772,148.5806249611679L151.32690819331577,148.50122804652858L152.18186247689383,149.3224670373576L153.0368167604719,150.50476685022574L153.89177104404993,150.41145598668476L154.74672532762798,149.1058409698245L155.60167961120607,149.90231050259678L156.45663389478412,149.8512923758868L157.31158817836217,148.52568203383427L158.16654246194022,149.28948994663926L159.02149674551828,149.95955111732243L159.87645102909633,149.7470095015006L160.73140531267438,151.23793484115154L161.58635959625246,150.74080889462883L162.4413138798305,150.8719147959979L163.29626816340854,149.85584904343617L164.15122244698662,149.57317491416936L165.00617673056465,151.50751936188445L165.8611310141427,150.6597534633517L166.71608529772078,150.44304000238338L167.57103958129883,149.94015987391327L168.4259938648769,149.32434865665462L169.28094814845494,150.14634670548665L170.13590243203302,150.7912161358286L170.99085671561105,151.51453953100238L171.8458109991891,151.98705965673864L172.70076528276718,151.37403344455586L173.5557195663452,152.88027406775038L174.41067384992326,153.44792887663382L175.26562813350134,152.4516776839055L176.12058241707936,154.06973100013442L176.97553670065744,152.72915206133356L177.8304909842355,153.41035628864813L178.68544526781355,151.97502321547327L179.5403995513916,152.22401365868518L180.39535383496965,152.04840809792427L181.25030811854774,150.48784340865396L182.10526240212576,151.95201261749793L182.9602166857038,152.53836023279388L183.8151709692819,151.5097054822921L184.67012525285992,151.3876733088391L185.525079536438,151.9108746048564L186.38003382001605,150.8114123445924L187.23498810359408,151.13687581493113L188.08994238717216,151.71728414628558L188.9448966707502,151.1197143478176L189.79985095432824,150.9018415539378L190.65480523790632,151.6532869249813L191.50975952148437,151.9520356477009L192.36471380506245,151.05015881935034L193.21966808864047,152.73689354691618L194.07462237221856,152.4193737516936L194.9295766557966,152.13325243300787L195.78453093937463,152.12744643125856L196.63948522295271,152.60249865491224L197.49443950653077,152.3284096938251L198.3493937901088,152.40464851397954L199.20434807368687,153.00055073090263L200.05930235726493,153.32982268674652L200.91425664084298,152.12269019409075L201.76921092442103,152.9631385927861L202.62416520799908,151.41031588388518L203.47911949157717,152.25275729263936L204.3340737751552,152.41421629975852L205.18902805873327,153.24779880904057L206.04398234231132,153.22977683363473L206.89893662588935,153.42443810044622L207.75389090946743,153.83949563402913L208.60884519304548,153.29200225376056L209.46379947662354,152.63938438247956L210.3187537602016,153.18040865416356L211.17370804377964,154.04592386889954L212.0286623273577,153.65280193509193L212.88361661093575,154.11743581142173L213.73857089451383,154.74946413088506L214.59352517809188,154.07792905057454L215.4484794616699,152.8841721500305L216.303433745248,153.97722243583235L217.15838802882604,154.22965860335665L218.01334231240406,155.51067882367357L218.86829659598214,155.466568288005L219.7232508795602,153.87863830494356L220.57820516313825,154.3061425892733L221.4331594467163,154.60311384016615L222.28811373029438,154.721570804144L223.1430680138724,154.2568188213414L223.99802229745046,153.559520663048L224.85297658102854,154.36991412766932L225.7079308646066,155.2409894909906L226.56288514818462,155.28942772500338L227.4178394317627,155.50331341701366L228.27279371534075,155.37225794760985L229.1277479989188,153.62965239332482L229.98270228249686,154.8233746995297L230.83765656607494,153.98935970734632L231.69261084965297,155.48612156613694L232.54756513323102,156.2105924228953L233.4025194168091,156.0741020904273L234.25747370038712,156.40116076091533L235.11242798396518,156.3053964425788L235.96738226754326,156.22772896022846L236.8223365511213,155.53746047865295L237.67729083469936,156.7075422714233L238.53224511827742,154.9603123978316L239.38719940185547,155.93298830763408L240.24215368543352,155.78520554751248L241.09710796901157,155.39437890680452L241.95206225258966,155.58122766091338L242.80701653616768,156.239290848308L243.66197081974573,157.0810062793941L244.5169251033238,157.1917335417065L245.37187938690184,155.34076660911896L246.22683367047992,156.15538640328583L247.08178795405797,155.83945113534372L247.93674223763603,156.47182934917018L248.79169652121408,156.56578607038702L249.64665080479213,155.08324831890707L250.5016050883702,155.42404870777366L251.35655937194824,155.60351107501262L252.2115136555263,155.80008115053798L253.06646793910437,155.82959879857427L253.9214222226824,155.93132520438124L254.77637650626045,155.51393465299824L255.63133078983853,156.08699885985038L256.4862850734166,156.67273924701794L257.3412393569946,155.63221560586894L258.1961936405727,155.5651181462878L259.05114792415077,157.2507726235529L259.9061022077288,156.54737178550897L260.7610564913069,156.4046030105994L261.6160107748849,156.59287261893712L262.470965058463,156.87642616709752L263.325919342041,156.91734626013803L264.1808736256191,156.92598942336488L265.0358279091971,155.77748285703905L265.8907821927752,156.43507083225208L266.7457364763533,155.86024747361884L267.6006907599313,157.0385633336174L268.4556450435093,157.617586108329L269.3105993270874,157.24883578705507L270.1655536106654,157.73588081171647L271.0205078942435,157.04869043492909L271.8754621778216,157.51623280868506L272.7304164613996,158.1437950230423L273.5853707449777,156.44547903836815L274.4403250285557,156.75634189222183L275.2952793121338,156.9719721823868L276.1502335957118,157.34448478971078L277.0051878792899,157.30837982347668L277.860142162868,156.97142912706994L278.715096446446,155.76641400150308L279.57005073002404,156.6712042757952L280.4250050136021,157.20551746436036L281.27995929718014,158.6644259188246L282.1349135807582,158.82176875381546L282.9898678643363,158.19272278094624L283.84482214791433,157.41172135508774L284.6997764314924,158.06786410658927L285.55473071507043,158.3074216507498L286.4096849986485,157.48538103855466L287.26463928222654,157.1739467742833L288.1195935658046,157.10484629199078" fill="none"></path></g></g></g></g><g opacity="0.2"><g><g><g><path style="fill: none;" stroke="rgb(238, 51, 119)" stroke-width="2px" d="M21.37385708945138,14.871684376298617L22.228811373029437,21.035298683837027L23.08376565660749,23.016368931053883L23.938719940185546,25.12430992461123L24.7936742237636,28.732423692127675L25.64862850734166,37.214720498394406L26.50358279091971,46.81639121507214L27.358537074497768,60.61612127657646L28.213491358075824,43.67861366919578L29.068445641653877,38.90190801385007L29.923399925231934,52.313789894461486L30.77835420880999,81.81113662343158L31.633308492388046,103.1826987724289L32.4882627759661,92.11598310745376L33.34321705954416,110.92853278215625L34.19817134312221,111.98282138892341L35.053125626700265,107.59666572863942L35.90807991027832,114.2403716307981L36.76303419385638,120.390565938289L37.61798847743443,121.90041349736454L38.47294276101248,123.03682113729224L39.32789704459054,121.44641540473299L40.182851328168596,124.72108628232036L41.037805611746656,126.5632315353664L41.89275989532471,123.92591310630633L42.74771417890276,123.62612625315887L43.602668462480814,125.624251437225L44.457622746058874,125.27450859148598L45.312577029636934,126.71851586587832L46.16753131321498,125.8989415330143L47.02248559679304,124.35970061100285L47.87743988037109,127.151552631002L48.73239416394915,128.20844549820822L49.5873484475272,128.46257720580843L50.44230273110526,126.36806469523162L51.29725701468332,129.2232078785396L52.15221129826137,129.41937146330497L53.00716558183942,129.22216023631086L53.862119865417476,127.94294666035285L54.717074148995536,129.33277344150656L55.572028432573596,130.6915442048512L56.42698271615165,129.05743015987423L57.2819369997297,133.25037005461945L58.136891283307754,132.94813587529393L58.991845566885814,130.09069381713584L59.84679985046387,133.12585756366025L60.70175413404192,133.30994145179625L61.55670841761998,131.6189408579453L62.41166270119803,129.62658406833702L63.26661698477609,134.46714076057128L64.12157126835415,133.93607522139632L64.9765255519322,132.61821340257075L65.83147983551025,132.8338325942318L66.68643411908832,136.14187957181093L67.54138840266636,132.13593745269623L68.39634268624442,134.58255530585984L69.25129696982248,136.15216512810525L70.10625125340053,135.3786446386407L70.96120553697858,134.7032080622921L71.81615982055663,135.8914209742111L72.6711141041347,133.08142396046878L73.52606838771275,136.4119379861679L74.38102267129081,137.4281594309798L75.23597695486886,136.1554734719855L76.09093123844691,136.70460341703983L76.94588552202497,136.25452868093294L77.80083980560303,139.00376244540826L78.65579408918109,137.1382127801428L79.51074837275914,137.66675464674245L80.36570265633719,136.48127323925792L81.22065693991524,135.15173890458823L82.07561122349331,136.00412946386427L82.93056550707135,138.97563728095975L83.78551979064942,135.21008451794273L84.64047407422747,137.2807939184479L85.49542835780552,135.48312044179193L86.35038264138359,136.02426370540206L87.20533692496163,138.43442191241888L88.06029120853968,136.73964641337125L88.91524549211775,139.37083592331987L89.7701997756958,137.86332117082657L90.62515405927387,137.55587422915642L91.4801083428519,138.32224360607984L92.33506262642996,139.32634293959723L93.19001691000803,141.05816340717047L94.04497119358608,140.1492977212722L94.89992547716412,140.87930076431212L95.75487976074218,137.3200020348952L96.60983404432024,136.34999560921028L97.4647883278983,138.53234040834081L98.31974261147636,141.27950009569122L99.1746968950544,141.19084920410046L100.02965117863246,140.21361531947719L100.88460546221052,140.7810938486673L101.73955974578858,137.96933662632205L102.59451402936664,144.19430798843928L103.44946831294467,139.88442662046077L104.30442259652274,144.1714634497996L105.1593768801008,139.2859005563946L106.01433116367885,142.67184418722047L106.86928544725691,136.74781547787552L107.72423973083495,141.730020185782L108.57919401441302,138.40123667842022L109.43414829799107,140.11976438994134L110.28910258156913,143.34701991337852L111.14405686514719,139.18662054972197L111.99901114872523,141.3025694320561L112.8539654323033,139.4362690272178L113.70891971588135,140.91229089085118L114.5638739994594,142.6852493421352L115.41882828303747,143.32291141771793L116.27378256661551,142.92609889734956L117.12873685019356,138.40936756972587L117.98369113377163,143.2782572582678L118.83864541734968,142.04089423239475L119.69359970092773,140.72678611143328L120.54855398450579,145.38076281248857L121.40350826808384,143.22692278905947L122.2584625516619,143.88942925474282L123.11341683523996,144.50984976894972L123.96837111881801,142.4313169834611L124.82332540239607,145.19110987882084L125.67827968597412,145.98611763764086L126.53323396955219,145.86499195769238L127.38818825313022,141.9513399084367L128.2431425367083,143.6099314566609L129.09809682028634,144.05072374330382L129.9530511038644,143.32788665793782L130.80800538744245,142.46715313403047L131.6629596710205,143.67169993349148L132.51791395459855,147.64610886981438L133.37286823817664,143.96305475121085L134.22782252175466,144.4599319495568L135.0827768053327,143.2546322897897L135.9377310889108,142.82060090076868L136.79268537248885,144.94534658465102L137.6476396560669,141.82782416210807L138.50259393964495,140.8955879957225L139.357548223223,144.75868812634155L140.21250250680106,148.13457311933155L141.0674567903791,144.25042471114114L141.92241107395716,146.2037345600296L142.77736535753522,143.44263529298382L143.63231964111327,143.8733095612597L144.48727392469135,146.40764094191468L145.3422282082694,148.02719615308536L146.19718249184743,145.04557455908935L147.0521367754255,145.43345455098108L147.90709105900356,148.45920224184636L148.76204534258162,143.8070451299252L149.61699962615967,147.56901173300537L150.47195390973772,147.16036340033213L151.32690819331577,146.15119551433156L152.18186247689383,148.6032466860985L153.0368167604719,144.2552748280989L153.89177104404993,143.23835142057908L154.74672532762798,144.98903156900292L155.60167961120607,148.02814412085104L156.45663389478412,149.31239019682687L157.31158817836217,147.00556471773598L158.16654246194022,147.65699671435357L159.02149674551828,146.4582628447488L159.87645102909633,147.81360438241757L160.73140531267438,145.26474597895515L161.58635959625246,148.1693404203396L162.4413138798305,146.7297739613865L163.29626816340854,144.34816506546952L164.15122244698662,148.8094943574988L165.00617673056465,148.14870568575327L165.8611310141427,143.5886053630329L166.71608529772078,147.6683511202092L167.57103958129883,150.84761232931714L168.4259938648769,147.08819484761136L169.28094814845494,149.10715199445667L170.13590243203302,151.0668537333804L170.99085671561105,148.93580098879306L171.8458109991891,147.1938116052546L172.70076528276718,147.5574643404234L173.5557195663452,149.64670258739113L174.41067384992326,146.9837550969255L175.26562813350134,148.5732743629835L176.12058241707936,150.760289016745L176.97553670065744,149.57405686968764L177.8304909842355,150.68995913975766L178.68544526781355,149.76882713270345L179.5403995513916,146.90340899676744L180.39535383496965,149.90410446567296L181.25030811854774,151.69565326468398L182.10526240212576,150.036724519872L182.9602166857038,150.00550944706868L183.8151709692819,150.94473979173438L184.67012525285992,152.0529141098175L185.525079536438,147.9805654702401L186.38003382001605,148.36417642608637L187.23498810359408,147.5061341126816L188.08994238717216,147.56382866092633L188.9448966707502,147.85749931936186L189.79985095432824,150.35534772580422L190.65480523790632,147.91276986949435L191.50975952148437,149.0714876232811L192.36471380506245,149.11823706718872L193.21966808864047,147.3822260307005L194.07462237221856,151.86020944099357L194.9295766557966,149.37642361677547L195.78453093937463,149.9827582206923L196.63948522295271,150.44952524826158L197.49443950653077,150.11343356249506L198.3493937901088,149.9797107270026L199.20434807368687,149.77583615611638L200.05930235726493,152.96938262444053L200.91425664084298,152.18130966336946L201.76921092442103,152.9662990782855L202.62416520799908,149.80541190211238L203.47911949157717,145.5992343903797L204.3340737751552,147.79661094683274L205.18902805873327,151.33647951815306L206.04398234231132,150.67714354868826L206.89893662588935,151.3473249480271L207.75389090946743,151.8852680251531L208.60884519304548,149.12017329665196L209.46379947662354,154.16384109580008L210.3187537602016,150.39071095285738L211.17370804377964,155.41964177660566L212.0286623273577,150.00217777512262L212.88361661093575,151.4145076568617L213.73857089451383,146.45656201667703L214.59352517809188,152.4554759380444L215.4484794616699,148.65943127226456L216.303433745248,149.97236026553537L217.15838802882604,153.64759099915545L218.01334231240406,151.02971969405803L218.86829659598214,151.41947441414857L219.7232508795602,149.2486621624672L220.57820516313825,151.70043339744427L221.4331594467163,151.51362012560708L222.28811373029438,152.3830889497982L223.1430680138724,151.0721173933232L223.99802229745046,146.88588749860173L224.85297658102854,151.65280384923517L225.7079308646066,152.09908671427934L226.56288514818462,149.8123339754618L227.4178394317627,154.15894008124417L228.27279371534075,150.60123826396944L229.1277479989188,152.20581897761554L229.98270228249686,153.70479141655142L230.83765656607494,152.05578558264688L231.69261084965297,152.4545046422129L232.54756513323102,154.66500217532428L233.4025194168091,154.32423427272704L234.25747370038712,150.26222208704212L235.11242798396518,151.88914260481283L235.96738226754326,155.21915613746341L236.8223365511213,152.11551603481792L237.67729083469936,150.80643193094124L238.53224511827742,153.1290186995949L239.38719940185547,152.89458860394814L240.24215368543352,152.8933161639942L241.09710796901157,155.58675131575615L241.95206225258966,153.2226469521388L242.80701653616768,152.02107554143674L243.66197081974573,153.84913700492598L244.5169251033238,152.19587273864227L245.37187938690184,151.95941098053572L246.22683367047992,152.31727199318084L247.08178795405797,153.55999199125995L247.93674223763603,153.26063564696358L248.79169652121408,153.0582180198246L249.64665080479213,155.77231971717174L250.5016050883702,151.90510960550148L251.35655937194824,153.45325972792375L252.2115136555263,155.56132584474324L253.06646793910437,150.188083373126L253.9214222226824,153.00592285845107L254.77637650626045,155.1016696357832L255.63133078983853,152.93121790875546L256.4862850734166,154.4827230311896L257.3412393569946,149.13067940920496L258.1961936405727,154.37076528110924L259.05114792415077,156.02387685459848L259.9061022077288,152.43421770788063L260.7610564913069,153.74167945081604L261.6160107748849,153.20516362717171L262.470965058463,155.06924998649015L263.325919342041,154.78133711884618L264.1808736256191,151.64989420320717L265.0358279091971,156.20862241151053L265.8907821927752,151.0758668497208L266.7457364763533,150.95497020896403L267.6006907599313,152.9788156459657L268.4556450435093,154.9708203938534L269.3105993270874,153.40089458235275L270.1655536106654,153.603884807471L271.0205078942435,154.05404861437466L271.8754621778216,152.1050989930617L272.7304164613996,154.78094266246046L273.5853707449777,153.09761064006523L274.4403250285557,154.53103333477407L275.2952793121338,155.39728288588174L276.1502335957118,152.2446920182083L277.0051878792899,154.8906163828235L277.860142162868,155.88938843440042L278.715096446446,154.68866319626773L279.57005073002404,153.94205481182894L280.4250050136021,153.48073594799575L281.27995929718014,150.44359143660972L282.1349135807582,153.32641443038233L282.9898678643363,153.68101375527885L283.84482214791433,153.9713103271032L284.6997764314924,154.6765368435067L285.55473071507043,152.61130317626998L286.4096849986485,154.20770846321204L287.26463928222654,153.50611264214376L288.1195935658046,151.93584539258882" fill="none"></path></g><g><path style="fill: none;" stroke="rgb(51, 187, 238)" stroke-width="2px" d="M21.37385708945138,14.38868313565035L22.228811373029437,21.01565221094824L23.08376565660749,23.018828981631493L23.938719940185546,25.478319685662427L24.7936742237636,29.07423499548713L25.64862850734166,37.99364885766317L26.50358279091971,48.99266223415588L27.358537074497768,62.55298695979355L28.213491358075824,57.87970522390378L29.068445641653877,89.40305629633076L29.923399925231934,74.78382400689316L30.77835420880999,101.29722269748481L31.633308492388046,88.11381165206922L32.4882627759661,112.52650529097491L33.34321705954416,120.26162959775661L34.19817134312221,121.08005025172908L35.053125626700265,114.11225813476925L35.90807991027832,122.21820961732668L36.76303419385638,123.81199155723039L37.61798847743443,122.2772084165242L38.47294276101248,120.75490791176617L39.32789704459054,124.6433614084674L40.182851328168596,128.4283019149159L41.037805611746656,124.42209682487736L41.89275989532471,128.8715945460683L42.74771417890276,128.11294039673226L43.602668462480814,125.21767294021015L44.457622746058874,129.96750890519525L45.312577029636934,125.77951031893782L46.16753131321498,127.273740798312L47.02248559679304,127.66642849249638L47.87743988037109,129.8146337276628L48.73239416394915,130.67177048796702L49.5873484475272,129.04557950243657L50.44230273110526,130.92216546356917L51.29725701468332,131.52337213447163L52.15221129826137,131.1791516781327L53.00716558183942,130.06900295738774L53.862119865417476,131.02859658278294L54.717074148995536,130.53633622073653L55.572028432573596,131.95464444952586L56.42698271615165,133.6177107449214L57.2819369997297,133.56685980289558L58.136891283307754,132.31492309808345L58.991845566885814,133.65612570713074L59.84679985046387,130.7377380166456L60.70175413404192,132.30758111954924L61.55670841761998,135.0162622226926L62.41166270119803,135.97906239677172L63.26661698477609,134.45485323208277L64.12157126835415,133.78669077080417L64.9765255519322,131.65587130687504L65.83147983551025,137.46420765487483L66.68643411908832,136.2727500210733L67.54138840266636,135.7422231481455L68.39634268624442,135.50960415869986L69.25129696982248,138.42507796169048L70.10625125340053,134.7112244340019L70.96120553697858,133.6901168197669L71.81615982055663,135.09919561742367L72.6711141041347,135.54406607411897L73.52606838771275,135.56389917153433L74.38102267129081,138.90064815300775L75.23597695486886,138.63956044032602L76.09093123844691,134.69003406730235L76.94588552202497,138.47390996565605L77.80083980560303,138.92333575738644L78.65579408918109,138.89760278005133L79.51074837275914,135.8489808602808L80.36570265633719,137.95369833928817L81.22065693991524,139.0904028818718L82.07561122349331,138.50969946009377L82.93056550707135,138.56153018088412L83.78551979064942,140.66303262827455L84.64047407422747,137.74199402121872L85.49542835780552,132.26358438740863L86.35038264138359,135.3616745311217L87.20533692496163,141.5542113988131L88.06029120853968,140.90992839400337L88.91524549211775,140.75405874111266L89.7701997756958,141.40347816186977L90.62515405927387,138.78886854452094L91.4801083428519,139.20060890628224L92.33506262642996,137.07619829825444L93.19001691000803,138.0025812408519L94.04497119358608,141.34911104410457L94.89992547716412,140.3582662934407L95.75487976074218,138.57863177386503L96.60983404432024,141.57416749875733L97.4647883278983,138.61907415706764L98.31974261147636,138.49331467495358L99.1746968950544,142.25860022558027L100.02965117863246,137.14239910759125L100.88460546221052,140.46140603464028L101.73955974578858,141.39904158789705L102.59451402936664,143.673803700882L103.44946831294467,137.0264713448546L104.30442259652274,142.32867985604332L105.1593768801008,139.0374227236564L106.01433116367885,141.03426698483554L106.86928544725691,139.84669029289353L107.72423973083495,143.42945705652755L108.57919401441302,138.6011242707841L109.43414829799107,142.94475922927404L110.28910258156913,143.97233932140807L111.14405686514719,141.4977744453895L111.99901114872523,140.57391093390083L112.8539654323033,139.73963567810233L113.70891971588135,146.27551713929768L114.5638739994594,144.71362042390638L115.41882828303747,141.68949721471563L116.27378256661551,140.57756707803514L117.12873685019356,142.52040898756923L117.98369113377163,140.37350588262234L118.83864541734968,143.7391201644508L119.69359970092773,141.30600926139823L120.54855398450579,142.82508413087305L121.40350826808384,144.54420352697275L122.2584625516619,141.48887584864497L123.11341683523996,144.16317138276645L123.96837111881801,141.86797388412128L124.82332540239607,141.38277556381922L125.67827968597412,143.5227714405495L126.53323396955219,143.16457959351635L127.38818825313022,143.9612160754774L128.2431425367083,143.58131428209686L129.09809682028634,144.57949252836192L129.9530511038644,142.28069402464712L130.80800538744245,141.5752278653856L131.6629596710205,143.79090210837626L132.51791395459855,146.26072078336665L133.37286823817664,145.91507307354607L134.22782252175466,143.07559998827082L135.0827768053327,144.436805353394L135.9377310889108,142.37339339602465L136.79268537248885,145.000290541862L137.6476396560669,146.88571996067446L138.50259393964495,145.40345889980028L139.357548223223,142.2663324190337L140.21250250680106,144.99249048494437L141.0674567903791,149.4922495843158L141.92241107395716,146.41378470615894L142.77736535753522,147.919768289241L143.63231964111327,146.3154802367843L144.48727392469135,148.06877312858023L145.3422282082694,147.71159075057722L146.19718249184743,147.08097163013952L147.0521367754255,150.0314226867306L147.90709105900356,146.68592780130712L148.76204534258162,149.45248159428877L149.61699962615967,149.88350366281873L150.47195390973772,148.65299696756415L151.32690819331577,147.96253923755933L152.18186247689383,139.8292621069911L153.0368167604719,146.70180785193224L153.89177104404993,144.6316201518082L154.74672532762798,150.48818833626194L155.60167961120607,147.25275526538746L156.45663389478412,145.91192378466008L157.31158817836217,149.70065828290456L158.16654246194022,147.5840074378625L159.02149674551828,148.1951921587371L159.87645102909633,144.98199073459114L160.73140531267438,149.27338355003894L161.58635959625246,147.26843596708648L162.4413138798305,147.76880177163946L163.29626816340854,149.56101648089304L164.15122244698662,150.33731301019043L165.00617673056465,149.2831834584175L165.8611310141427,148.26265056289503L166.71608529772078,144.91308599035222L167.57103958129883,147.0355052298521L168.4259938648769,149.37504938162522L169.28094814845494,150.4607524101218L170.13590243203302,148.93326459181822L170.99085671561105,150.32155384136092L171.8458109991891,146.52589726976703L172.70076528276718,151.3967804475701L173.5557195663452,149.084629807272L174.41067384992326,150.15885118591757L175.26562813350134,150.85211888748734L176.12058241707936,152.37581271399495L176.97553670065744,148.22849827453138L177.8304909842355,146.82390482771223L178.68544526781355,149.35529050987384L179.5403995513916,148.6619825143722L180.39535383496965,148.87710757518448L181.25030811854774,151.72068640004443L182.10526240212576,150.52732646851177L182.9602166857038,148.54311541534196L183.8151709692819,150.84366776545994L184.67012525285992,150.70691652287712L185.525079536438,151.59536378898122L186.38003382001605,149.71015068496092L187.23498810359408,149.5450155484723L188.08994238717216,151.36690567818493L188.9448966707502,149.71781925641665L189.79985095432824,149.47464325681983L190.65480523790632,152.25544413581906L191.50975952148437,150.11636865732214L192.36471380506245,145.2911512287326L193.21966808864047,147.65855333256388L194.07462237221856,152.59545281591045L194.9295766557966,153.14656776729294L195.78453093937463,152.07199010546026L196.63948522295271,153.7921232120566L197.49443950653077,150.0884301174002L198.3493937901088,149.05816093549686L199.20434807368687,147.6846277479533L200.05930235726493,149.76996808719548L200.91425664084298,151.97365382508679L201.76921092442103,153.59814398254548L202.62416520799908,149.22261319587687L203.47911949157717,151.46886205022736L204.3340737751552,149.2983085280033L205.18902805873327,148.94606533775482L206.04398234231132,152.76159530069594L206.89893662588935,149.85382400089316L207.75389090946743,151.00431330964443L208.60884519304548,152.29037261255462L209.46379947662354,153.45252171275047L210.3187537602016,148.76688246417473L211.17370804377964,152.54468458248164L212.0286623273577,149.37479065216792L212.88361661093575,152.4779769178965L213.73857089451383,150.14056834451276L214.59352517809188,153.2826530996332L215.4484794616699,149.54630707502554L216.303433745248,152.16991708431522L217.15838802882604,153.42673571708394L218.01334231240406,151.59198758163677L218.86829659598214,149.84177187379612L219.7232508795602,149.98597749377575L220.57820516313825,154.71332520330827L221.4331594467163,153.09465645863884L222.28811373029438,151.50338970837743L223.1430680138724,149.8154535740822L223.99802229745046,151.38297235333664L224.85297658102854,150.4111802702497L225.7079308646066,152.5172147246094L226.56288514818462,150.2630046376138L227.4178394317627,151.70002409592576L228.27279371534075,153.16765209732966L229.1277479989188,151.1915910220648L229.98270228249686,153.51356701954057L230.83765656607494,151.02291638177098L231.69261084965297,149.37312587656152L232.54756513323102,151.53521555235864L233.4025194168091,151.3313409814724L234.25747370038712,152.14035830418527L235.11242798396518,153.5324054930586L235.96738226754326,149.48874613297596L236.8223365511213,154.16191334926987L237.67729083469936,152.35892107360644L238.53224511827742,152.95844176156993L239.38719940185547,150.9514561539579L240.24215368543352,154.2934009319099L241.09710796901157,154.18713522989015L241.95206225258966,153.95594985612593L242.80701653616768,154.71979131900753L243.66197081974573,154.83776771007L244.5169251033238,154.74632381278036L245.37187938690184,154.29024952229065L246.22683367047992,154.36060484807706L247.08178795405797,154.10697575425866L247.93674223763603,155.45813308521224L248.79169652121408,153.33173535012304L249.64665080479213,153.3609760202645L250.5016050883702,155.9444596356068L251.35655937194824,149.80590603296116L252.2115136555263,153.09484308316542L253.06646793910437,151.86426428298012L253.9214222226824,151.198519457614L254.77637650626045,153.06559817155744L255.63133078983853,156.36074260800365L256.4862850734166,156.61084068094988L257.3412393569946,153.7387761669878L258.1961936405727,152.1116202478256L259.05114792415077,154.74195086080533L259.9061022077288,153.8883981397047L260.7610564913069,154.13239274233854L261.6160107748849,150.1457514165918L262.470965058463,155.58668769375845L263.325919342041,154.28940334972128L264.1808736256191,153.53334921935777L265.0358279091971,155.1238927995787L265.8907821927752,153.59648556913885L266.7457364763533,151.86420914391545L267.6006907599313,154.5680274057015L268.4556450435093,152.30640747670748L269.3105993270874,152.23437889238164L270.1655536106654,151.82672942507224L271.0205078942435,154.92709935703613L271.8754621778216,155.62335729249764L272.7304164613996,157.41962684373777L273.5853707449777,157.3867151843292L274.4403250285557,157.18448206098356L275.2952793121338,154.3493352715517L276.1502335957118,153.39030364046948L277.0051878792899,151.90690162510327L277.860142162868,156.45691361972217L278.715096446446,156.85904705983125L279.57005073002404,155.032026876371L280.4250050136021,156.38386284196667L281.27995929718014,152.94995246634392L282.1349135807582,153.74872452669433L282.9898678643363,156.49604963123875L283.84482214791433,155.03844845667186L284.6997764314924,157.69511857669806L285.55473071507043,153.23500658555804L286.4096849986485,156.05815002475777L287.26463928222654,152.90561217541574L288.1195935658046,156.27981542693328" fill="none"></path></g><g><path style="fill: none;" stroke="rgb(255, 112, 67)" stroke-width="2px" d="M21.37385708945138,14.871684376298617L22.228811373029437,21.03808108586964L23.08376565660749,22.97468379816291L23.938719940185546,25.20204752286372L24.7936742237636,28.5610854108636L25.64862850734166,36.453233049427574L26.50358279091971,45.21065682253447L27.358537074497768,58.83464596053408L28.213491358075824,62.34054038508429L29.068445641653877,83.2078515462026L29.923399925231934,88.70400323443711L30.77835420880999,99.00921448457939L31.633308492388046,116.01137900748608L32.4882627759661,117.10727640074697L33.34321705954416,121.34026846377559L34.19817134312221,119.49097633965494L35.053125626700265,117.45865645256004L35.90807991027832,119.70943731387979L36.76303419385638,122.76174082658372L37.61798847743443,125.68378890266968L38.47294276101248,126.38397867758886L39.32789704459054,123.45198436252964L40.182851328168596,122.38397885305903L41.037805611746656,125.98070004152123L41.89275989532471,126.30034968234963L42.74771417890276,126.45520138327718L43.602668462480814,128.55535080284994L44.457622746058874,126.71103391894917L45.312577029636934,129.26127504049487L46.16753131321498,129.70091152751297L47.02248559679304,126.30662281132253L47.87743988037109,131.45949989025053L48.73239416394915,129.77765238113489L49.5873484475272,130.09373070715924L50.44230273110526,130.34013870423905L51.29725701468332,130.99010103270984L52.15221129826137,132.74640748646334L53.00716558183942,132.46639010873355L53.862119865417476,132.84183200007556L54.717074148995536,133.35342072502226L55.572028432573596,132.558171202611L56.42698271615165,129.8413380008294L57.2819369997297,132.4157257912343L58.136891283307754,137.3825848732963L58.991845566885814,133.7920986406084L59.84679985046387,133.94318816073883L60.70175413404192,134.9177414385258L61.55670841761998,132.83006617196816L62.41166270119803,136.31361655092724L63.26661698477609,136.04919080409968L64.12157126835415,136.81505120504153L64.9765255519322,138.40079980736937L65.83147983551025,135.89015277572366L66.68643411908832,140.18274592619468L67.54138840266636,137.48898630224448L68.39634268624442,136.13144556418865L69.25129696982248,142.11975581927322L70.10625125340053,136.29031817537066L70.96120553697858,139.86832177211045L71.81615982055663,134.07172156195247L72.6711141041347,137.7950293184988L73.52606838771275,136.9005676528791L74.38102267129081,135.29264890508716L75.23597695486886,140.55073980233965L76.09093123844691,139.55151391384584L76.94588552202497,138.62913067417026L77.80083980560303,137.8078343059019L78.65579408918109,139.6231353173864L79.51074837275914,136.16529670842988L80.36570265633719,138.05822928150405L81.22065693991524,139.7642531497445L82.07561122349331,138.1105435294769L82.93056550707135,140.52962578203733L83.78551979064942,141.21375736473783L84.64047407422747,140.30073928312322L85.49542835780552,137.98840625976504L86.35038264138359,142.78100469013543L87.20533692496163,141.23118555064025L88.06029120853968,141.16173153648788L88.91524549211775,141.33553410979607L89.7701997756958,143.15953648983225L90.62515405927387,140.72603961332698L91.4801083428519,141.55761729642313L92.33506262642996,144.3801881376436L93.19001691000803,141.21531822441466L94.04497119358608,138.3245891370616L94.89992547716412,142.42524532414757L95.75487976074218,138.16104242978213L96.60983404432024,143.5250512288003L97.4647883278983,141.641136013533L98.31974261147636,144.13677037445552L99.1746968950544,141.68730013506183L100.02965117863246,142.31760750771082L100.88460546221052,143.8802125480098L101.73955974578858,142.35744760266857L102.59451402936664,141.19588382485153L103.44946831294467,143.529074259788L104.30442259652274,144.4331428470599L105.1593768801008,141.67969942707032L106.01433116367885,145.8022373398975L106.86928544725691,146.09219459440078L107.72423973083495,141.82805320129978L108.57919401441302,141.4102433009582L109.43414829799107,145.2051576159123L110.28910258156913,144.17890298206362L111.14405686514719,147.99289541339374L111.99901114872523,144.96778394250543L112.8539654323033,142.68346368473317L113.70891971588135,144.5530236565868L114.5638739994594,145.76996402119914L115.41882828303747,143.24951496044162L116.27378256661551,142.77156742714374L117.12873685019356,143.245277735395L117.98369113377163,145.90255650586585L118.83864541734968,148.4173750198272L119.69359970092773,146.59706271565744L120.54855398450579,146.8087331019948L121.40350826808384,146.75518458726663L122.2584625516619,140.87607300829563L123.11341683523996,147.72372558627126L123.96837111881801,143.13975429001505L124.82332540239607,148.97748824241728L125.67827968597412,149.2858004432561L126.53323396955219,147.76802770400081L127.38818825313022,148.60322335803266L128.2431425367083,145.64578448536122L129.09809682028634,146.6402026715624L129.9530511038644,144.97190028575642L130.80800538744245,144.95744324714644L131.6629596710205,148.80877330819158L132.51791395459855,149.54802486896335L133.37286823817664,146.81193328847894L134.22782252175466,148.28450683983715L135.0827768053327,147.80490937606567L135.9377310889108,149.72405421219094L136.79268537248885,148.14262978497322L137.6476396560669,150.45790426535825L138.50259393964495,147.42379452326236L139.357548223223,145.99004947709852L140.21250250680106,147.3783747791066L141.0674567903791,146.80849982133657L141.92241107395716,145.77411217544898L142.77736535753522,146.07649904756897L143.63231964111327,149.98097680475678L144.48727392469135,150.22759687516225L145.3422282082694,151.03538629331956L146.19718249184743,147.77380246065843L147.0521367754255,146.86468440750264L147.90709105900356,149.4117338254972L148.76204534258162,148.85512617498023L149.61699962615967,147.35412207358456L150.47195390973772,149.19394088224817L151.32690819331577,148.38213267456968L152.18186247689383,150.55432552360105L153.0368167604719,152.278216569528L153.89177104404993,150.2714896913733L154.74672532762798,147.14741844453408L155.60167961120607,151.09701480175522L156.45663389478412,149.77476518582182L157.31158817836217,146.53726652075545L158.16654246194022,150.43520181584677L159.02149674551828,150.9646428733472L159.87645102909633,149.4281970777679L160.73140531267438,153.4743228506279L161.58635959625246,149.99511997484478L162.4413138798305,151.06857364805148L163.29626816340854,148.33175041459356L164.15122244698662,149.14916372026914L165.00617673056465,154.40903603345714L165.8611310141427,149.3881046155526L166.71608529772078,150.11796981093084L167.57103958129883,149.1858396812081L168.4259938648769,148.40063183076666L169.28094814845494,151.37934377873466L170.13590243203302,151.75852028134148L170.99085671561105,152.59952462376305L171.8458109991891,152.69583984534302L172.70076528276718,150.4544941262817L173.5557195663452,155.13963500254215L174.41067384992326,154.299411089959L175.26562813350134,150.957300894813L176.12058241707936,156.49681097447785L176.97553670065744,150.7182836531323L177.8304909842355,154.43216262961994L178.68544526781355,149.82202360571102L179.5403995513916,152.59749932350303L180.39535383496965,151.7849997567829L181.25030811854774,148.14699637474848L182.10526240212576,154.1482664307639L182.9602166857038,153.4178816557378L183.8151709692819,149.96672335653943L184.67012525285992,151.20462504865964L185.525079536438,152.69567654888226L186.38003382001605,149.16221895419653L187.23498810359408,151.62507102043912L188.08994238717216,152.58789664331732L188.9448966707502,150.22335965011564L189.79985095432824,150.5750323631181L190.65480523790632,152.78045498154654L191.50975952148437,152.40015873178027L192.36471380506245,149.69734357682455L193.21966808864047,155.26699563826492L194.07462237221856,151.94309405885974L194.9295766557966,151.70407045497927L195.78453093937463,152.11873742863463L196.63948522295271,153.31507699039275L197.49443950653077,151.91727625219437L198.3493937901088,152.5190067442112L199.20434807368687,153.89440405628727L200.05930235726493,153.82373062051238L200.91425664084298,150.3119914551071L201.76921092442103,154.2238111908291L202.62416520799908,149.08108182053377L203.47911949157717,153.51641940577065L204.3340737751552,152.65640481043727L205.18902805873327,154.49817257296365L206.04398234231132,153.20274387052598L206.89893662588935,153.71643000066342L207.75389090946743,154.4620819344035L208.60884519304548,152.4707621833577L209.46379947662354,151.6604575755581L210.3187537602016,153.99194506168953L211.17370804377964,155.3441966910035L212.0286623273577,153.06311903438052L212.88361661093575,154.81438662591643L213.73857089451383,155.69750661008004L214.59352517809188,153.07062643010875L215.4484794616699,151.09353679921446L216.303433745248,155.6167978645351L217.15838802882604,154.60831285464315L218.01334231240406,157.43220915414895L218.86829659598214,155.40040248450214L219.7232508795602,151.49674333035136L220.57820516313825,154.94739901576793L221.4331594467163,155.04857071650542L222.28811373029438,154.89925625011074L223.1430680138724,153.55969084713752L223.99802229745046,152.5135734256079L224.85297658102854,155.5855043246013L225.7079308646066,156.5476025359725L226.56288514818462,155.3620850760226L227.4178394317627,155.82414195502906L228.27279371534075,155.17567474350415L229.1277479989188,151.0157440618973L229.98270228249686,156.61395815883702L230.83765656607494,152.73833721907124L231.69261084965297,157.7312643543229L232.54756513323102,157.29729870803283L233.4025194168091,155.86936659172522L234.25747370038712,156.89174876664742L235.11242798396518,156.16174996507402L235.96738226754326,156.11122773670297L236.8223365511213,154.50205775628967L237.67729083469936,158.46266496057888L238.53224511827742,152.339467587444L239.38719940185547,157.3920021723378L240.24215368543352,155.56353140733006L241.09710796901157,154.8081389457426L241.95206225258966,155.86150079207664L242.80701653616768,157.22638562939994L243.66197081974573,158.3435794260232L244.5169251033238,157.35782443517508L245.37187938690184,152.56431621023762L246.22683367047992,157.37731609453613L247.08178795405797,155.36554823343056L247.93674223763603,157.4203966699099L248.79169652121408,156.70672115221225L249.64665080479213,152.85944169168715L250.5016050883702,155.93524929107355L251.35655937194824,155.87270462587105L252.2115136555263,156.09493626382607L253.06646793910437,155.87387527062867L253.9214222226824,156.08391481309172L254.77637650626045,154.8878488259237L255.63133078983853,156.9465951701286L256.4862850734166,157.5513498277693L257.3412393569946,154.07143014414544L258.1961936405727,155.4644719569161L259.05114792415077,159.77925433945052L259.9061022077288,155.4922705284431L260.7610564913069,156.19044984823506L261.6160107748849,156.87527703144372L262.470965058463,157.30175648933812L263.325919342041,156.97872639969876L264.1808736256191,156.9389541682052L265.0358279091971,154.05472300755025L265.8907821927752,157.42145279507167L266.7457364763533,154.998012435669L267.6006907599313,158.80603712361517L268.4556450435093,158.48612027039644L269.3105993270874,156.6957103051442L270.1655536106654,158.46644834870858L271.0205078942435,156.017904869748L271.8754621778216,158.21754636931905L272.7304164613996,159.08513834457813L273.5853707449777,153.8980050613569L274.4403250285557,157.22263617300234L275.2952793121338,157.29541761763426L276.1502335957118,157.90325370069672L277.0051878792899,157.25422237412556L277.860142162868,156.4660030824598L278.715096446446,153.95889131315278L279.57005073002404,158.02838968723336L280.4250050136021,158.00698724720814L281.27995929718014,160.85278860052097L282.1349135807582,159.05778300630175L282.9898678643363,157.24915382164238L283.84482214791433,156.24021921630003L284.6997764314924,159.0520782338416L285.55473071507043,158.66675796699053L286.4096849986485,156.25232012026197L287.26463928222654,156.70679537787623L288.1195935658046,157.00119556855202" fill="none"></path></g></g></g></g></g></g><g transform="translate(30, 177)" clip-path="url(#clip_1)"><clipPath id="clip_1"><rect width="299" height="22"></rect></clipPath><g><g><line x1="0" y1="0" x2="0" y2="5" style="visibility: inherit;" fill="rgb(0, 0, 0)" stroke="rgb(204, 204, 204)" stroke-width="1px"></line><line x1="21.37385708945138" y1="0" x2="21.37385708945138" y2="5" style="visibility: inherit;" fill="rgb(0, 0, 0)" stroke="rgb(204, 204, 204)" stroke-width="1px"></line><line x1="42.74771417890276" y1="0" x2="42.74771417890276" y2="5" style="visibility: inherit;" fill="rgb(0, 0, 0)" stroke="rgb(204, 204, 204)" stroke-width="1px"></line><line x1="64.12157126835415" y1="0" x2="64.12157126835415" y2="5" style="visibility: inherit;" fill="rgb(0, 0, 0)" stroke="rgb(204, 204, 204)" stroke-width="1px"></line><line x1="85.49542835780552" y1="0" x2="85.49542835780552" y2="5" style="visibility: inherit;" fill="rgb(0, 0, 0)" stroke="rgb(204, 204, 204)" stroke-width="1px"></line><line x1="106.86928544725691" y1="0" x2="106.86928544725691" y2="5" style="visibility: inherit;" fill="rgb(0, 0, 0)" stroke="rgb(204, 204, 204)" stroke-width="1px"></line><line x1="128.2431425367083" y1="0" x2="128.2431425367083" y2="5" style="visibility: inherit;" fill="rgb(0, 0, 0)" stroke="rgb(204, 204, 204)" stroke-width="1px"></line><line x1="149.61699962615967" y1="0" x2="149.61699962615967" y2="5" style="visibility: inherit;" fill="rgb(0, 0, 0)" stroke="rgb(204, 204, 204)" stroke-width="1px"></line><line x1="170.99085671561105" y1="0" x2="170.99085671561105" y2="5" style="visibility: inherit;" fill="rgb(0, 0, 0)" stroke="rgb(204, 204, 204)" stroke-width="1px"></line><line x1="192.36471380506245" y1="0" x2="192.36471380506245" y2="5" style="visibility: inherit;" fill="rgb(0, 0, 0)" stroke="rgb(204, 204, 204)" stroke-width="1px"></line><line x1="213.73857089451383" y1="0" x2="213.73857089451383" y2="5" style="visibility: inherit;" fill="rgb(0, 0, 0)" stroke="rgb(204, 204, 204)" stroke-width="1px"></line><line x1="235.11242798396518" y1="0" x2="235.11242798396518" y2="5" style="visibility: inherit;" fill="rgb(0, 0, 0)" stroke="rgb(204, 204, 204)" stroke-width="1px"></line><line x1="256.4862850734166" y1="0" x2="256.4862850734166" y2="5" style="visibility: inherit;" fill="rgb(0, 0, 0)" stroke="rgb(204, 204, 204)" stroke-width="1px"></line><line x1="277.860142162868" y1="0" x2="277.860142162868" y2="5" style="visibility: inherit;" fill="rgb(0, 0, 0)" stroke="rgb(204, 204, 204)" stroke-width="1px"></line><line x1="299.23399925231934" y1="0" x2="299.23399925231934" y2="5" style="visibility: inherit;" fill="rgb(0, 0, 0)" stroke="rgb(204, 204, 204)" stroke-width="1px"></line></g><g transform="translate(0, 8)"><text style="text-anchor: middle; visibility: hidden; font-family: Roboto, sans-serif; font-size: 12px; font-weight: 200;" x="0" y="0" dx="0em" dy="0.95em" fill="rgb(50, 49, 63)" stroke="none" stroke-width="1px">-500</text><text style="text-anchor: middle; visibility: hidden; font-family: Roboto, sans-serif; font-size: 12px; font-weight: 200;" x="21.37385708945138" y="0" dx="0em" dy="0.95em" fill="rgb(50, 49, 63)" stroke="none" stroke-width="1px">0</text><text style="text-anchor: middle; visibility: hidden; font-family: Roboto, sans-serif; font-size: 12px; font-weight: 200;" x="42.74771417890276" y="0" dx="0em" dy="0.95em" fill="rgb(50, 49, 63)" stroke="none" stroke-width="1px">500</text><text style="text-anchor: middle; visibility: hidden; font-family: Roboto, sans-serif; font-size: 12px; font-weight: 200;" x="64.12157126835415" y="0" dx="0em" dy="0.95em" fill="rgb(50, 49, 63)" stroke="none" stroke-width="1px">1k</text><text style="text-anchor: middle; visibility: hidden; font-family: Roboto, sans-serif; font-size: 12px; font-weight: 200;" x="85.49542835780552" y="0" dx="0em" dy="0.95em" fill="rgb(50, 49, 63)" stroke="none" stroke-width="1px">1.5k</text><text style="text-anchor: middle; visibility: hidden; font-family: Roboto, sans-serif; font-size: 12px; font-weight: 200;" x="106.86928544725691" y="0" dx="0em" dy="0.95em" fill="rgb(50, 49, 63)" stroke="none" stroke-width="1px">2k</text><text style="text-anchor: middle; visibility: hidden; font-family: Roboto, sans-serif; font-size: 12px; font-weight: 200;" x="128.2431425367083" y="0" dx="0em" dy="0.95em" fill="rgb(50, 49, 63)" stroke="none" stroke-width="1px">2.5k</text><text style="text-anchor: middle; visibility: hidden; font-family: Roboto, sans-serif; font-size: 12px; font-weight: 200;" x="149.61699962615967" y="0" dx="0em" dy="0.95em" fill="rgb(50, 49, 63)" stroke="none" stroke-width="1px">3k</text><text style="text-anchor: middle; visibility: hidden; font-family: Roboto, sans-serif; font-size: 12px; font-weight: 200;" x="170.99085671561105" y="0" dx="0em" dy="0.95em" fill="rgb(50, 49, 63)" stroke="none" stroke-width="1px">3.5k</text><text style="text-anchor: middle; visibility: hidden; font-family: Roboto, sans-serif; font-size: 12px; font-weight: 200;" x="192.36471380506245" y="0" dx="0em" dy="0.95em" fill="rgb(50, 49, 63)" stroke="none" stroke-width="1px">4k</text><text style="text-anchor: middle; visibility: hidden; font-family: Roboto, sans-serif; font-size: 12px; font-weight: 200;" x="213.73857089451383" y="0" dx="0em" dy="0.95em" fill="rgb(50, 49, 63)" stroke="none" stroke-width="1px">4.5k</text><text style="text-anchor: middle; visibility: hidden; font-family: Roboto, sans-serif; font-size: 12px; font-weight: 200;" x="235.11242798396518" y="0" dx="0em" dy="0.95em" fill="rgb(50, 49, 63)" stroke="none" stroke-width="1px">5k</text><text style="text-anchor: middle; visibility: hidden; font-family: Roboto, sans-serif; font-size: 12px; font-weight: 200;" x="256.4862850734166" y="0" dx="0em" dy="0.95em" fill="rgb(50, 49, 63)" stroke="none" stroke-width="1px">5.5k</text><text style="text-anchor: middle; visibility: hidden; font-family: Roboto, sans-serif; font-size: 12px; font-weight: 200;" x="277.860142162868" y="0" dx="0em" dy="0.95em" fill="rgb(50, 49, 63)" stroke="none" stroke-width="1px">6k</text><text style="text-anchor: middle; visibility: hidden; font-family: Roboto, sans-serif; font-size: 12px; font-weight: 200;" x="299.23399925231934" y="0" dx="0em" dy="0.95em" fill="rgb(50, 49, 63)" stroke="none" stroke-width="1px">6.5k</text></g><line x1="0" y1="0" x2="299.23399925231934" y2="0" fill="rgb(0, 0, 0)" stroke="rgb(204, 204, 204)" stroke-width="1px"></line></g></g></g></g></svg>