<svg viewBox="0 0 330 200" xmlns="http://www.w3.org/2000/svg"><g><g><g><g><g><line x1="41.149001121520996" y1="177.89999961853027" x2="36.149001121520996" y2="177.89999961853027" style="visibility: inherit;" fill="rgb(0, 0, 0)" stroke="rgb(204, 204, 204)" stroke-width="1px"></line><line x1="41.149001121520996" y1="166.03999964396158" x2="36.149001121520996" y2="166.03999964396158" style="visibility: inherit;" fill="rgb(0, 0, 0)" stroke="rgb(204, 204, 204)" stroke-width="1px"></line><line x1="41.149001121520996" y1="154.1799996693929" x2="36.149001121520996" y2="154.1799996693929" style="visibility: inherit;" fill="rgb(0, 0, 0)" stroke="rgb(204, 204, 204)" stroke-width="1px"></line><line x1="41.149001121520996" y1="142.31999969482422" x2="36.149001121520996" y2="142.31999969482422" style="visibility: inherit;" fill="rgb(0, 0, 0)" stroke="rgb(204, 204, 204)" stroke-width="1px"></line><line x1="41.149001121520996" y1="130.45999972025555" x2="36.149001121520996" y2="130.45999972025555" style="visibility: inherit;" fill="rgb(0, 0, 0)" stroke="rgb(204, 204, 204)" stroke-width="1px"></line><line x1="41.149001121520996" y1="118.59999974568686" x2="36.149001121520996" y2="118.59999974568686" style="visibility: inherit;" fill="rgb(0, 0, 0)" stroke="rgb(204, 204, 204)" stroke-width="1px"></line><line x1="41.149001121520996" y1="106.73999977111818" x2="36.149001121520996" y2="106.73999977111818" style="visibility: inherit;" fill="rgb(0, 0, 0)" stroke="rgb(204, 204, 204)" stroke-width="1px"></line><line x1="41.149001121520996" y1="94.87999979654946" x2="36.149001121520996" y2="94.87999979654946" style="visibility: inherit;" fill="rgb(0, 0, 0)" stroke="rgb(204, 204, 204)" stroke-width="1px"></line><line x1="41.149001121520996" y1="83.01999982198079" x2="36.149001121520996" y2="83.01999982198079" style="visibility: inherit;" fill="rgb(0, 0, 0)" stroke="rgb(204, 204, 204)" stroke-width="1px"></line><line x1="41.149001121520996" y1="71.15999984741211" x2="36.149001121520996" y2="71.15999984741211" style="visibility: inherit;" fill="rgb(0, 0, 0)" stroke="rgb(204, 204, 204)" stroke-width="1px"></line><line x1="41.149001121520996" y1="59.29999987284343" x2="36.149001121520996" y2="59.29999987284343" style="visibility: inherit;" fill="rgb(0, 0, 0)" stroke="rgb(204, 204, 204)" stroke-width="1px"></line><line x1="41.149001121520996" y1="47.43999989827475" x2="36.149001121520996" y2="47.43999989827475" style="visibility: inherit;" fill="rgb(0, 0, 0)" stroke="rgb(204, 204, 204)" stroke-width="1px"></line><line x1="41.149001121520996" y1="35.57999992370607" x2="36.149001121520996" y2="35.57999992370607" style="visibility: inherit;" fill="rgb(0, 0, 0)" stroke="rgb(204, 204, 204)" stroke-width="1px"></line><line x1="41.149001121520996" y1="23.719999949137385" x2="36.149001121520996" y2="23.719999949137385" style="visibility: inherit;" fill="rgb(0, 0, 0)" stroke="rgb(204, 204, 204)" stroke-width="1px"></line><line x1="41.149001121520996" y1="11.859999974568701" x2="36.149001121520996" y2="11.859999974568701" style="visibility: inherit;" fill="rgb(0, 0, 0)" stroke="rgb(204, 204, 204)" stroke-width="1px"></line><line x1="41.149001121520996" y1="0" x2="36.149001121520996" y2="0" style="visibility: inherit;" fill="rgb(0, 0, 0)" stroke="rgb(204, 204, 204)" stroke-width="1px"></line></g><g transform="translate(31.149001121520996, 0)"><text style="text-anchor: end; visibility: hidden; font-family: Roboto, sans-serif; font-size: 12px; font-weight: 200;" x="0" y="177.89999961853027" dx="0em" dy="0.3em" fill="rgb(50, 49, 63)" stroke="none" stroke-width="1px">0.2</text><text style="text-anchor: end; visibility: inherit; font-family: Roboto, sans-serif; font-size: 12px; font-weight: 200;" x="0" y="166.03999964396158" dx="0em" dy="0.3em" fill="rgb(50, 49, 63)" stroke="none" stroke-width="1px">0.4</text><text style="text-anchor: end; visibility: hidden; font-family: Roboto, sans-serif; font-size: 12px; font-weight: 200;" x="0" y="154.1799996693929" dx="0em" dy="0.3em" fill="rgb(50, 49, 63)" stroke="none" stroke-width="1px">0.6</text><text style="text-anchor: end; visibility: hidden; font-family: Roboto, sans-serif; font-size: 12px; font-weight: 200;" x="0" y="142.31999969482422" dx="0em" dy="0.3em" fill="rgb(50, 49, 63)" stroke="none" stroke-width="1px">0.8</text><text style="text-anchor: end; visibility: inherit; font-family: Roboto, sans-serif; font-size: 12px; font-weight: 200;" x="0" y="130.45999972025555" dx="0em" dy="0.3em" fill="rgb(50, 49, 63)" stroke="none" stroke-width="1px">1</text><text style="text-anchor: end; visibility: hidden; font-family: Roboto, sans-serif; font-size: 12px; font-weight: 200;" x="0" y="118.59999974568686" dx="0em" dy="0.3em" fill="rgb(50, 49, 63)" stroke="none" stroke-width="1px">1.2</text><text style="text-anchor: end; visibility: hidden; font-family: Roboto, sans-serif; font-size: 12px; font-weight: 200;" x="0" y="106.73999977111818" dx="0em" dy="0.3em" fill="rgb(50, 49, 63)" stroke="none" stroke-width="1px">1.4</text><text style="text-anchor: end; visibility: inherit; font-family: Roboto, sans-serif; font-size: 12px; font-weight: 200;" x="0" y="94.87999979654946" dx="0em" dy="0.3em" fill="rgb(50, 49, 63)" stroke="none" stroke-width="1px">1.6</text><text style="text-anchor: end; visibility: hidden; font-family: Roboto, sans-serif; font-size: 12px; font-weight: 200;" x="0" y="83.01999982198079" dx="0em" dy="0.3em" fill="rgb(50, 49, 63)" stroke="none" stroke-width="1px">1.8</text><text style="text-anchor: end; visibility: hidden; font-family: Roboto, sans-serif; font-size: 12px; font-weight: 200;" x="0" y="71.15999984741211" dx="0em" dy="0.3em" fill="rgb(50, 49, 63)" stroke="none" stroke-width="1px">2</text><text style="text-anchor: end; visibility: inherit; font-family: Roboto, sans-serif; font-size: 12px; font-weight: 200;" x="0" y="59.29999987284343" dx="0em" dy="0.3em" fill="rgb(50, 49, 63)" stroke="none" stroke-width="1px">2.2</text><text style="text-anchor: end; visibility: hidden; font-family: Roboto, sans-serif; font-size: 12px; font-weight: 200;" x="0" y="47.43999989827475" dx="0em" dy="0.3em" fill="rgb(50, 49, 63)" stroke="none" stroke-width="1px">2.4</text><text style="text-anchor: end; visibility: hidden; font-family: Roboto, sans-serif; font-size: 12px; font-weight: 200;" x="0" y="35.57999992370607" dx="0em" dy="0.3em" fill="rgb(50, 49, 63)" stroke="none" stroke-width="1px">2.6</text><text style="text-anchor: end; visibility: inherit; font-family: Roboto, sans-serif; font-size: 12px; font-weight: 200;" x="0" y="23.719999949137385" dx="0em" dy="0.3em" fill="rgb(50, 49, 63)" stroke="none" stroke-width="1px">2.8</text><text style="text-anchor: end; visibility: hidden; font-family: Roboto, sans-serif; font-size: 12px; font-weight: 200;" x="0" y="11.859999974568701" dx="0em" dy="0.3em" fill="rgb(50, 49, 63)" stroke="none" stroke-width="1px">3</text><text style="text-anchor: end; visibility: hidden; font-family: Roboto, sans-serif; font-size: 12px; font-weight: 200;" x="0" y="0" dx="0em" dy="0.3em" fill="rgb(50, 49, 63)" stroke="none" stroke-width="1px">3.2</text></g><line x1="41.149001121520996" y1="0" x2="41.149001121520996" y2="177.89999961853027" fill="rgb(0, 0, 0)" stroke="rgb(204, 204, 204)" stroke-width="1px"></line></g></g><g transform="translate(41, 0)" clip-path="url(#clip_0)"><clipPath id="clip_0"><rect width="288" height="177"></rect></clipPath><g><g><g><line x1="0" y1="0" x2="0" y2="177.89999961853027" fill="rgb(0, 0, 0)" stroke="rgb(60, 60, 60)" stroke-width="1px" opacity="0.25"></line><line x1="20.632214205605642" y1="0" x2="20.632214205605642" y2="177.89999961853027" fill="rgb(0, 0, 0)" stroke="rgb(60, 60, 60)" stroke-width="1px" opacity="0.25"></line><line x1="41.264428411211284" y1="0" x2="41.264428411211284" y2="177.89999961853027" fill="rgb(0, 0, 0)" stroke="rgb(60, 60, 60)" stroke-width="1px" opacity="0.25"></line><line x1="61.896642616816926" y1="0" x2="61.896642616816926" y2="177.89999961853027" fill="rgb(0, 0, 0)" stroke="rgb(60, 60, 60)" stroke-width="1px" opacity="0.25"></line><line x1="82.52885682242257" y1="0" x2="82.52885682242257" y2="177.89999961853027" fill="rgb(0, 0, 0)" stroke="rgb(60, 60, 60)" stroke-width="1px" opacity="0.25"></line><line x1="103.16107102802822" y1="0" x2="103.16107102802822" y2="177.89999961853027" fill="rgb(0, 0, 0)" stroke="rgb(60, 60, 60)" stroke-width="1px" opacity="0.25"></line><line x1="123.79328523363385" y1="0" x2="123.79328523363385" y2="177.89999961853027" fill="rgb(0, 0, 0)" stroke="rgb(60, 60, 60)" stroke-width="1px" opacity="0.25"></line><line x1="144.4254994392395" y1="0" x2="144.4254994392395" y2="177.89999961853027" fill="rgb(0, 0, 0)" stroke="rgb(60, 60, 60)" stroke-width="1px" opacity="0.25"></line><line x1="165.05771364484514" y1="0" x2="165.05771364484514" y2="177.89999961853027" fill="rgb(0, 0, 0)" stroke="rgb(60, 60, 60)" stroke-width="1px" opacity="0.25"></line><line x1="185.6899278504508" y1="0" x2="185.6899278504508" y2="177.89999961853027" fill="rgb(0, 0, 0)" stroke="rgb(60, 60, 60)" stroke-width="1px" opacity="0.25"></line><line x1="206.32214205605644" y1="0" x2="206.32214205605644" y2="177.89999961853027" fill="rgb(0, 0, 0)" stroke="rgb(60, 60, 60)" stroke-width="1px" opacity="0.25"></line><line x1="226.95435626166207" y1="0" x2="226.95435626166207" y2="177.89999961853027" fill="rgb(0, 0, 0)" stroke="rgb(60, 60, 60)" stroke-width="1px" opacity="0.25"></line><line x1="247.5865704672677" y1="0" x2="247.5865704672677" y2="177.89999961853027" fill="rgb(0, 0, 0)" stroke="rgb(60, 60, 60)" stroke-width="1px" opacity="0.25"></line><line x1="268.21878467287337" y1="0" x2="268.21878467287337" y2="177.89999961853027" fill="rgb(0, 0, 0)" stroke="rgb(60, 60, 60)" stroke-width="1px" opacity="0.25"></line><line x1="288.850998878479" y1="0" x2="288.850998878479" y2="177.89999961853027" fill="rgb(0, 0, 0)" stroke="rgb(60, 60, 60)" stroke-width="1px" opacity="0.25"></line></g><g><line x1="0" y1="177.89999961853027" x2="288.850998878479" y2="177.89999961853027" fill="rgb(0, 0, 0)" stroke="rgb(60, 60, 60)" stroke-width="1px" opacity="0.25"></line><line x1="0" y1="166.03999964396158" x2="288.850998878479" y2="166.03999964396158" fill="rgb(0, 0, 0)" stroke="rgb(60, 60, 60)" stroke-width="1px" opacity="0.25"></line><line x1="0" y1="154.1799996693929" x2="288.850998878479" y2="154.1799996693929" fill="rgb(0, 0, 0)" stroke="rgb(60, 60, 60)" stroke-width="1px" opacity="0.25"></line><line x1="0" y1="142.31999969482422" x2="288.850998878479" y2="142.31999969482422" fill="rgb(0, 0, 0)" stroke="rgb(60, 60, 60)" stroke-width="1px" opacity="0.25"></line><line x1="0" y1="130.45999972025555" x2="288.850998878479" y2="130.45999972025555" fill="rgb(0, 0, 0)" stroke="rgb(60, 60, 60)" stroke-width="1px" opacity="0.25"></line><line x1="0" y1="118.59999974568686" x2="288.850998878479" y2="118.59999974568686" fill="rgb(0, 0, 0)" stroke="rgb(60, 60, 60)" stroke-width="1px" opacity="0.25"></line><line x1="0" y1="106.73999977111818" x2="288.850998878479" y2="106.73999977111818" fill="rgb(0, 0, 0)" stroke="rgb(60, 60, 60)" stroke-width="1px" opacity="0.25"></line><line x1="0" y1="94.87999979654946" x2="288.850998878479" y2="94.87999979654946" fill="rgb(0, 0, 0)" stroke="rgb(60, 60, 60)" stroke-width="1px" opacity="0.25"></line><line x1="0" y1="83.01999982198079" x2="288.850998878479" y2="83.01999982198079" fill="rgb(0, 0, 0)" stroke="rgb(60, 60, 60)" stroke-width="1px" opacity="0.25"></line><line x1="0" y1="71.15999984741211" x2="288.850998878479" y2="71.15999984741211" fill="rgb(0, 0, 0)" stroke="rgb(60, 60, 60)" stroke-width="1px" opacity="0.25"></line><line x1="0" y1="59.29999987284343" x2="288.850998878479" y2="59.29999987284343" fill="rgb(0, 0, 0)" stroke="rgb(60, 60, 60)" stroke-width="1px" opacity="0.25"></line><line x1="0" y1="47.43999989827475" x2="288.850998878479" y2="47.43999989827475" fill="rgb(0, 0, 0)" stroke="rgb(60, 60, 60)" stroke-width="1px" opacity="0.25"></line><line x1="0" y1="35.57999992370607" x2="288.850998878479" y2="35.57999992370607" fill="rgb(0, 0, 0)" stroke="rgb(60, 60, 60)" stroke-width="1px" opacity="0.25"></line><line x1="0" y1="23.719999949137385" x2="288.850998878479" y2="23.719999949137385" fill="rgb(0, 0, 0)" stroke="rgb(60, 60, 60)" stroke-width="1px" opacity="0.25"></line><line x1="0" y1="11.859999974568701" x2="288.850998878479" y2="11.859999974568701" fill="rgb(0, 0, 0)" stroke="rgb(60, 60, 60)" stroke-width="1px" opacity="0.25"></line><line x1="0" y1="0" x2="288.850998878479" y2="0" fill="rgb(0, 0, 0)" stroke="rgb(60, 60, 60)" stroke-width="1px" opacity="0.25"></line></g></g></g><g><g><line x1="0" y1="189.75999959309897" x2="288.850998878479" y2="189.75999959309897" fill="rgb(0, 0, 0)" stroke="rgb(153, 153, 153)" stroke-width="1.5px"></line></g></g><g><g><line x1="20.632214205605642" y1="0" x2="20.632214205605642" y2="177.89999961853027" fill="rgb(0, 0, 0)" stroke="rgb(153, 153, 153)" stroke-width="1.5px"></line></g></g><g><g><g><g><g><path style="fill: none;" stroke="rgb(238, 51, 119)" stroke-width="2px" d="M20.632214205605642,13.11401782561659L21.45750277382987,15.185435197573899L22.282791342054093,14.081825267315839L23.10807991027832,14.704665488099128L23.933368478502544,15.6571992827192L24.75865704672677,16.986591302444467L25.583945614950995,19.55005451682903L26.409234183175222,24.392851048166886L27.23452275139945,19.92749179018007L28.059811319623673,18.500199885230487L28.8850998878479,19.058564525014937L29.710388456072124,21.447931916889257L30.535677024296355,23.396700333291083L31.360965592520575,27.618861499325046L32.1862541607448,30.523113498578653L33.011542728969026,32.285783207254106L33.83683129719326,35.16153853465312L34.66211986541748,36.63641388107256L35.487408433641704,38.323692751581746L36.312697001865935,41.80071574482032L37.13798557009015,45.67438841799542L37.96327413831438,48.86875098106538L38.788562706538606,51.55220481178141L39.61385127476284,55.96448933412029L40.43913984298707,58.950842600320065L41.264428411211284,63.11486015128423L42.089716979435515,66.13519891804731L42.91500554765974,68.79381646624046L43.74029411588397,72.33593007528185L44.565582684108186,71.92956445162446L45.39087125233242,72.45547526924996L46.21615982055664,77.87053165446986L47.04144838878087,80.96865382404035L47.86673695700509,84.25493890174585L48.69202552522932,85.90278908493379L49.51731409345354,88.68455088718994L50.34260266167777,89.49541223175915L51.16789122990199,93.25149178551302L51.99317979812622,91.76334601907011L52.818468366350444,93.36524675301435L53.643756934574675,94.90288449329199L54.4690455027989,94.01686905522732L55.29433407102312,97.15052308103394L56.119622639247346,101.25677284933927L56.94491120747158,100.86091184820145L57.7701997756958,102.58198855000893L58.595488343920024,104.33406646571866L59.42077691214425,105.16185862096458L60.24606548036848,104.28279728468458L61.07135404859271,108.15894150150177L61.896642616816926,108.22763907708833L62.72193118504115,107.76727027552978L63.54721975326538,107.8543871543319L64.3725083214896,111.21967243030473L65.19779688971383,110.82845493585391L66.02308545793805,111.66040519728033L66.84837402616229,113.03784734207527L67.67366259438651,114.88792270842995L68.49895116261074,115.08599607503446L69.32423973083496,115.40642286014415L70.14952829905918,113.01985598065444L70.97481686728341,114.48123223488678L71.80010543550765,117.80913927718377L72.62539400373187,118.31436049264526L73.4506825719561,117.20937158187516L74.2759711401803,119.07412261857321L75.10125970840454,121.75320518037697L75.92654827662876,122.4115954810604L76.751836844853,121.24498389951457L77.57712541307721,121.23394704573604L78.40241398130144,119.53597795318606L79.22770254952567,120.10387256732814L80.0529911177499,122.10407462613927L80.87827968597414,119.72333493007851L81.70356825419834,119.83461414781381L82.52885682242257,120.37365483646943L83.3541453906468,120.4773062484632L84.17943395887103,122.21693489342363L85.00472252709524,123.24290074868911L85.83001109531948,124.25623933616028L86.6552996635437,123.7883860246566L87.48058823176794,122.62729262713607L88.30587679999215,122.22997950160953L89.13116536821637,123.8061701746487L89.95645393644061,126.97558508992785L90.78174250466483,128.62668354305438L91.60703107288904,130.2856747348694L92.43231964111328,129.59649043640832L93.2576082093375,127.7027504589173L94.08289677756174,126.56664502699545L94.90818534578595,127.59074125133675L95.73347391401018,129.50166260620844L96.55876248223441,130.9488604623367L97.38405105045864,131.98578312519896L98.20933961868286,127.49218378655554L99.03462818690709,131.93822681717097L99.85991675513131,130.44721348048668L100.68520532335555,133.75825704836112L101.51049389157976,131.71643160718597L102.33578245980398,132.9113658558959L103.16107102802822,129.03935512675773L103.98635959625244,131.0558235318637L104.81164816447668,129.41192573001436L105.63693673270089,129.4983500699809L106.46222530092511,133.6564405102448L107.28751386914935,133.56115134972418L108.11280243737357,132.30675041133026L108.9380910055978,132.3872582878221L109.76337957382202,132.01069389927562L110.58866814204625,133.11569918152193L111.41395671027048,135.59974913565733L112.23924527849469,137.34543056289826L113.06453384671892,132.80308704799677L113.88982241494315,134.57946321795404L114.71511098316738,133.9986653763821L115.5403995513916,132.0571045735099L116.36568811961583,135.96968420753157L117.19097668784005,135.21470244261445L118.01626525606429,136.5464602842103L118.8415538242885,138.01602722289468L119.66684239251273,136.73989302111116L120.49213096073696,137.8243599865752L121.31741952896118,140.01265660619055L122.14270809718542,140.9724292817239L122.96799666540963,138.10000888831922L123.79328523363385,136.70005754469875L124.61857380185809,136.8977770730056L125.4438623700823,138.77601934615694L126.26915093830654,137.87938224396987L127.09443950653076,138.75838770153922L127.91972807475499,141.3733856547747L128.7450166429792,140.1778007949297L129.57030521120345,139.3620860291169L130.39559377942766,137.7663809078107L131.2208823476519,137.65818567410642L132.0461709158761,138.69185501691408L132.87145948410034,135.97489339122913L133.69674805232458,133.58718908275242L134.5220366205488,136.24497176710122L135.34732518877303,139.95141948464007L136.17261375699724,139.8857444913802L136.99790232522147,140.85271366881489L137.82319089344568,138.09918873911434L138.64847946166992,137.44328964238568L139.47376802989416,139.73431430889823L140.29905659811837,142.0665292449398L141.12434516634258,142.2295117188327L141.94963373456682,142.16597419669748L142.77492230279105,144.26467706392808L143.6002108710153,142.1583474175246L144.4254994392395,143.65851400735787L145.25078800746374,144.31117246017098L146.07607657568795,144.05777620214147L146.9013651439122,145.165206582841L147.72665371213643,141.97297848492062L148.5519422803606,139.31441227671834L149.37723084858484,139.3820334616036L150.20251941680908,140.87103446885595L151.02780798503332,144.62959942806364L151.85309655325753,143.94739277161165L152.67838512148177,144.78531866205557L153.503673689706,144.0780898367911L154.32896225793021,145.07443599166908L155.15425082615442,142.70857409761666L155.97953939437866,144.49563250772658L156.80482796260287,144.34900863249405L157.6301165308271,143.0452561045668L158.45540509905135,144.56230075692943L159.28069366727556,145.5353620470946L160.1059822354998,143.4825349917988L160.93127080372403,143.40890756803154L161.75655937194827,146.27348077851633L162.58184794017245,146.65743943459427L163.4071365083967,146.68715933043825L164.23242507662093,148.87361492290526L165.05771364484514,148.68913847957683L165.88300221306937,146.9088813223753L166.7082907812936,146.80443204832295L167.53357934951782,148.38029330933085L168.35886791774206,146.9949220404047L169.18415648596627,145.6413202632929L170.00944505419048,147.83945663920593L170.83473362241472,148.92543953851828L171.66002219063895,149.54275398721313L172.4853107588632,149.9068949762562L173.3105993270874,147.60910693961776L174.13588789531164,147.33952105792923L174.96117646353588,150.36321691693345L175.78646503176006,150.33776902337794L176.6117535999843,149.71279937273857L177.43704216820854,149.9871521737818L178.26233073643274,150.83615699420986L179.08761930465698,150.18692978965458L179.91290787288122,149.12135460232795L180.73819644110543,147.93689055837686L181.56348500932967,146.42205270227305L182.3887735775539,145.7599467867876L183.2140621457781,147.6253373774085L184.03935071400232,147.6173327286325L184.86463928222656,147.55082932600055L185.6899278504508,147.65331472908903L186.515216418675,146.53263714880433L187.34050498689925,148.89863058610746L188.16579355512349,149.2940425572101L188.99108212334767,148.86381156852391L189.8163706915719,148.7531021098418L190.64165925979614,148.67758979953922L191.46694782802035,147.81403424569012L192.2922363962446,148.74374671496736L193.11752496446883,151.15944822123257L193.94281353269304,152.77014664768666L194.76810210091728,153.10112474260706L195.5933906691415,151.89808081709958L196.41867923736572,149.10274286574693L197.24396780558993,148.50393295589657L198.06925637381417,149.35973385373248L198.8945449420384,150.65966852711924L199.71983351026262,151.42047910984454L200.54512207848686,151.7996152485021L201.3704106467111,148.38054275317177L202.1956992149353,151.5753098055228L203.0209877831595,151.45711157629322L203.84627635138375,153.4659688808435L204.67156491960796,152.1056781364953L205.4968534878322,151.28070830216032L206.32214205605644,148.0929550393067L207.14743062428067,149.97853917173947L207.97271919250488,148.97463926858597L208.79800776072912,149.13854570108842L209.62329632895336,152.04014264257634L210.44858489717754,151.75107272611342L211.27387346540178,152.15609753133913L212.09916203362602,151.15649138394738L212.92445060185022,150.84872862996392L213.74973917007446,150.70589325121534L214.5750277382987,152.6554710408651L215.4003163065229,153.45692552203192L216.22560487474715,150.07304602890608L217.05089344297136,151.02232735116613L217.8761820111956,152.1300802783283L218.7014705794198,150.4251392133403L219.52675914764404,153.11377305567322L220.35204771586828,151.7921808854477L221.1773362840925,152.03357646982352L222.00262485231673,153.26068762326972L222.82791342054097,152.13776826366384L223.65320198876515,151.88466974462787L224.47849055698939,154.07347523904994L225.30377912521362,155.52886180211448L226.12906769343783,153.8703652059151L226.95435626166207,153.84547160898435L227.7796448298863,155.43530278899857L228.60493339811055,155.53597678265015L229.43022196633476,153.4861229307454L230.255510534559,153.49773593794714L231.0807991027832,153.6295668611258L231.9060876710074,153.37070394944527L232.73137623923165,154.3616340446751L233.5566648074559,155.29410125598042L234.3819533756801,154.98471009843973L235.20724194390434,156.33479732254304L236.03253051212857,155.2263721449445L236.85781908035278,154.132523153597L237.683107648577,154.10526141588304L238.50839621680123,153.54693260985235L239.33368478502547,153.26831007148198L240.15897335324968,153.1694255731432L240.98426192147392,154.50192928277653L241.80955048969815,154.13838463128207L242.63483905792236,154.8260583598168L243.4601276261466,156.2229542818388L244.28541619437084,154.69150466905535L245.11070476259502,154.75406218256785L245.93599333081926,156.68956529832278L246.7612818990435,155.64987405420916L247.5865704672677,156.1254332897205L248.41185903549194,151.85264008332442L249.23714760371618,153.33553245868634L250.06243617194042,155.5225854527617L250.8877247401646,154.74628944788012L251.71301330838884,154.4804065064259L252.53830187661308,153.17561574719062L253.36359044483729,154.90518670509672L254.18887901306152,155.86011464617164L255.01416758128576,153.96044064352802L255.83945614950997,155.7854962671891L256.6647447177342,153.93685432754938L257.4900332859584,153.2971867823686L258.3153218541826,153.77239491611883L259.1406104224069,154.50681834410395L259.9658989906311,154.05765089964066L260.7911875588553,153.77077597230277L261.6164761270795,154.52908738666187L262.4417646953038,153.19909546789515L263.267053263528,155.08823901135833L264.0923418317522,154.37662782369705L264.9176303999765,154.95220806787384L265.7429189682007,156.02763136235058L266.5682075364249,153.86278935774232L267.39349610464916,155.2921679025222L268.21878467287337,155.0675325371468L269.0440732410976,155.18965128933266L269.8693618093218,153.3582326223956L270.69465037754605,153.6091263448381L271.51993894577026,152.46884576378784L272.3452275139945,153.82348815983985L273.17051608221874,154.0793506646099L273.99580465044295,154.92958559513906L274.82109321866716,156.14524219649405L275.64638178689137,154.98806437018038L276.47167035511563,154.90404249745487L277.29695892333984,154.53110967398396L278.12224749156405,153.27377952322868" fill="none"></path></g><g><path style="fill: none;" stroke="rgb(51, 187, 238)" stroke-width="2px" d="M20.632214205605642,13.04823267999807L21.45750277382987,15.137746975744712L22.282791342054093,14.058164809015864L23.10807991027832,16.42626655793905L23.933368478502544,17.31251039459808L24.75865704672677,18.375187901892957L25.583945614950995,21.19390665654543L26.409234183175222,22.95844772026876L27.23452275139945,23.162031137237193L28.059811319623673,24.581634773318743L28.8850998878479,23.812612835503984L29.710388456072124,25.12544280291291L30.535677024296355,28.063588238491032L31.360965592520575,31.833055468978955L32.1862541607448,35.30698368340399L33.011542728969026,38.479737373678866L33.83683129719326,39.14520737574827L34.66211986541748,42.76555008369044L35.487408433641704,44.15346861991219L36.312697001865935,49.51303343014352L37.13798557009015,51.96746227962952L37.96327413831438,55.35979248561505L38.788562706538606,60.41235589215201L39.61385127476284,62.49371884491919L40.43913984298707,67.66155188187018L41.264428411211284,72.15206014230559L42.089716979435515,76.76795008373593L42.91500554765974,77.69067185234721L43.74029411588397,77.44718000654966L44.565582684108186,80.81796555679924L45.39087125233242,83.71257818071571L46.21615982055664,88.45299398489496L47.04144838878087,90.01911964585031L47.86673695700509,91.33777003836624L48.69202552522932,92.56503956762835L49.51731409345354,94.34290186765568L50.34260266167777,95.22022927202003L51.16789122990199,95.1015438944321L51.99317979812622,98.64822161022875L52.818468366350444,99.72898470236088L53.643756934574675,100.82204438755494L54.4690455027989,103.9940623447665L55.29433407102312,106.4365925512817L56.119622639247346,106.10692976626004L56.94491120747158,106.21245067624584L57.7701997756958,105.03969242974446L58.595488343920024,105.93422771938327L59.42077691214425,108.44555514544032L60.24606548036848,111.08377693165068L61.07135404859271,110.28000569231342L61.896642616816926,111.49620145452664L62.72193118504115,110.491390974815L63.54721975326538,114.34883652748529L64.3725083214896,116.73199299544103L65.19779688971383,117.2462871553134L66.02308545793805,117.71437955150651L66.84837402616229,120.02180486154796L67.67366259438651,117.7834085977447L68.49895116261074,117.33804046758874L69.32423973083496,117.0831537741154L70.14952829905918,117.71021048392846L70.97481686728341,118.84047546065304L71.80010543550765,121.28178097210477L72.62539400373187,122.91230382444255L73.4506825719561,122.28769382178358L74.2759711401803,122.4969466549573L75.10125970840454,123.08294913188172L75.92654827662876,124.83530907221656L76.751836844853,124.4020138217209L77.57712541307721,124.43354135429296L78.40241398130144,125.21941681460495L79.22770254952567,124.43784887944409L80.0529911177499,125.85020776259844L80.87827968597414,127.83830047537532L81.70356825419834,125.51975059966853L82.52885682242257,121.40792915175808L83.3541453906468,119.7146975036196L84.17943395887103,125.47770074902172L85.00472252709524,127.34250825530859L85.83001109531948,129.73789179647028L86.6552996635437,130.80623309558808L87.48058823176794,128.80581512023616L88.30587679999215,128.90253975891778L89.13116536821637,126.4661822239815L89.95645393644061,126.46316355732117L90.78174250466483,130.03119254484918L91.60703107288904,131.34998403685736L92.43231964111328,129.04573204794528L93.2576082093375,129.9410816528027L94.08289677756174,129.08072961346568L94.90818534578595,128.66196466918024L95.73347391401018,131.25693190948422L96.55876248223441,129.44747300660137L97.38405105045864,130.13678919243756L98.20933961868286,132.56030808931143L99.03462818690709,134.08838070666943L99.85991675513131,130.41607485712655L100.68520532335555,131.93942762271192L101.51049389157976,129.8254648212785L102.33578245980398,130.22551323566438L103.16107102802822,130.28344481631024L103.98635959625244,132.8879938054024L104.81164816447668,131.93118463957833L105.63693673270089,133.04362922823003L106.46222530092511,134.45389270128672L107.28751386914935,134.77145095181206L108.11280243737357,134.56246661921242L108.9380910055978,134.9208237584072L109.76337957382202,138.6209436252713L110.58866814204625,138.12702271234983L111.41395671027048,136.90389559325808L112.23924527849469,135.64806021123175L113.06453384671892,134.25762643867347L113.88982241494315,133.7372997329294L114.71511098316738,135.25034671847422L115.5403995513916,135.24392680289768L116.36568811961583,134.48140515217185L117.19097668784005,136.16514421946556L118.01626525606429,135.51442089037025L118.8415538242885,137.84313028012212L119.66684239251273,136.61333011031834L120.49213096073696,135.26514115039646L121.31741952896118,137.03693959141927L122.14270809718542,137.07416342694762L122.96799666540963,137.9108960581605L123.79328523363385,136.33949614577074L124.61857380185809,137.4021940520458L125.4438623700823,139.28938841759728L126.26915093830654,139.82634169305862L127.09443950653076,138.19173994512792L127.91972807475499,139.26040037644532L128.7450166429792,141.21867519657857L129.57030521120345,139.18280610973798L130.39559377942766,139.96888103642354L131.2208823476519,138.5446484277784L132.0461709158761,140.33811861490884L132.87145948410034,142.36428922612637L133.69674805232458,141.90117249083164L134.5220366205488,140.23537301785464L135.34732518877303,140.3211036455384L136.17261375699724,143.57248250124132L136.99790232522147,144.05616675426384L137.82319089344568,144.58991241650563L138.64847946166992,143.20821340875153L139.47376802989416,144.43872572651998L140.29905659811837,145.30162619600404L141.12434516634258,144.1826001023246L141.94963373456682,146.52461774587246L142.77492230279105,145.3509488285589L143.6002108710153,146.73637099168008L144.4254994392395,147.63196168126817L145.25078800746374,147.88073095493473L146.07607657568795,147.25663320539763L146.9013651439122,141.13246234399776L147.72665371213643,141.5605522437071L148.5519422803606,141.28991761445045L149.37723084858484,145.59878055690015L150.20251941680908,144.71915242935964L151.02780798503332,143.4830888183426L151.85309655325753,146.0450978147152L152.67838512148177,145.44649578399023L153.503673689706,143.98458861769782L154.32896225793021,141.76024993051422L155.15425082615442,145.7444641053471L155.97953939437866,145.80919999982035L156.80482796260287,146.91034510115907L157.6301165308271,148.09494234712963L158.45540509905135,149.22507286855253L159.28069366727556,148.65220132446956L160.1059822354998,147.6675419102889L160.93127080372403,144.56181534895654L161.75655937194827,144.06636829605694L162.58184794017245,145.71831831184267L163.4071365083967,147.81029591897502L164.23242507662093,146.84005852257226L165.05771364484514,148.24316700410725L165.88300221306937,146.8959589141857L166.7082907812936,148.9923048480145L167.53357934951782,149.64592257262842L168.35886791774206,150.03928930095347L169.18415648596627,150.8308269315716L170.00944505419048,151.82569392392003L170.83473362241472,149.66926330469173L171.66002219063895,147.62481239783793L172.4853107588632,148.6207494806431L173.3105993270874,148.62856267429785L174.13588789531164,148.53633308066586L174.96117646353588,150.27860517914496L175.78646503176006,151.08632755243522L176.6117535999843,149.7059980473449L177.43704216820854,150.22688501194156L178.26233073643274,150.70348277071577L179.08761930465698,151.6639604317399L179.91290787288122,151.29861601364223L180.73819644110543,150.10026399058512L181.56348500932967,150.92958316149992L182.3887735775539,150.20264348820015L183.2140621457781,150.44846508486515L184.03935071400232,151.28904194755168L184.86463928222656,149.73302360148392L185.6899278504508,146.5523924994985L186.515216418675,145.19530834510545L187.34050498689925,149.3894889616489L188.16579355512349,152.13935433619392L188.99108212334767,153.02625352872067L189.8163706915719,154.43287316111315L190.64165925979614,152.54340074207946L191.46694782802035,151.5889461134599L192.2922363962446,149.71039224654L193.11752496446883,149.25301293760907L193.94281353269304,150.85935198554287L194.76810210091728,153.2394475326766L195.5933906691415,151.3152109047128L196.41867923736572,151.64530379623392L197.24396780558993,150.89201838576372L198.06925637381417,149.86820131360517L198.8945449420384,152.01205474210724L199.71983351026262,150.7631461244079L200.54512207848686,151.01089903991473L201.3704106467111,151.64965083098787L202.1956992149353,153.14228433476003L203.0209877831595,150.21836870289243L203.84627635138375,151.77569558286405L204.67156491960796,149.9763887829206L205.4968534878322,150.57378300851306L206.32214205605644,150.30594721969572L207.14743062428067,151.86487199775334L207.97271919250488,151.4696774055994L208.79800776072912,151.8664153027832L209.62329632895336,152.73102019881136L210.44858489717754,152.65139704075702L211.27387346540178,151.87510178851977L212.09916203362602,151.67313395753837L212.92445060185022,154.6013655053137L213.74973917007446,153.83248284897144L214.5750277382987,153.67065593005714L215.4003163065229,152.3767480003453L216.22560487474715,151.54102695280102L217.05089344297136,151.45372121786045L217.8761820111956,151.88201610771736L218.7014705794198,151.66631694429836L219.52675914764404,151.07565351498883L220.35204771586828,152.52659185022614L221.1773362840925,151.59034242819894L222.00262485231673,153.65246716901828L222.82791342054097,152.65646709831194L223.65320198876515,150.94705143880353L224.47849055698939,151.8558500904031L225.30377912521362,151.94322762571704L226.12906769343783,152.66296407341488L226.95435626166207,153.58890427290234L227.7796448298863,152.08715071569375L228.60493339811055,153.8394921685134L229.43022196633476,153.48528917597832L230.255510534559,153.39443808885272L231.0807991027832,152.02971439569708L231.9060876710074,153.9127890747478L232.73137623923165,155.24641089933465L233.5566648074559,155.55349089078157L234.3819533756801,155.91291286646387L235.20724194390434,157.015837017931L236.03253051212857,157.8175712143217L236.85781908035278,156.82861275097136L237.683107648577,156.49085813530746L238.50839621680123,156.32835508792235L239.33368478502547,156.04026296172415L240.15897335324968,155.19575449778634L240.98426192147392,155.1232200699285L241.80955048969815,157.48186599040883L242.63483905792236,153.63779977670885L243.4601276261466,154.01813963238064L244.28541619437084,153.34963955820075L245.11070476259502,152.47238824146322L245.93599333081926,153.01446569372044L246.7612818990435,154.38605367741854L247.5865704672677,156.0482696880553L248.41185903549194,154.9456506376129L249.23714760371618,152.94734993164937L250.06243617194042,153.65686402178207L250.8877247401646,155.27816271186916L251.71301330838884,155.14864274587003L252.53830187661308,153.17322654336914L253.36359044483729,155.31175964021142L254.18887901306152,156.7240038771979L255.01416758128576,156.4292069029142L255.83945614950997,156.7113642593709L256.6647447177342,156.6251272816954L257.4900332859584,154.19486115915032L258.3153218541826,154.9048642345561L259.1406104224069,153.0626202732009L259.9658989906311,153.03176602197917L260.7911875588553,152.84425647949726L261.6164761270795,154.7255185381431L262.4417646953038,154.96608440903947L263.267053263528,157.46426041167746L264.0923418317522,158.14668017492886L264.9176303999765,159.19174830778093L265.7429189682007,157.79173296034008L266.5682075364249,156.84597975023692L267.39349610464916,155.41818168754253L268.21878467287337,156.5926322987528L269.0440732410976,158.62197203805806L269.8693618093218,157.71282681174253L270.69465037754605,158.54167662140102L271.51993894577026,156.8496051151203L272.3452275139945,155.84831663618004L273.17051608221874,157.36539543579224L273.99580465044295,156.68150025100223L274.82109321866716,158.5142202909276L275.64638178689137,156.3484872148252L276.47167035511563,157.35444559477304L277.29695892333984,156.05092437915806L278.12224749156405,156.96471113746267" fill="none"></path></g><g><path style="fill: none;" stroke="rgb(255, 112, 67)" stroke-width="2px" d="M20.632214205605642,13.11401782561659L21.45750277382987,15.17022777284665L22.282791342054093,14.065713465268676L23.10807991027832,13.924957114821984L23.933368478502544,14.734133968526063L24.75865704672677,17.11587036273461L25.583945614950995,20.525451465935134L26.409234183175222,23.442701774576054L27.23452275139945,24.918491316775746L28.059811319623673,26.155109488216443L28.8850998878479,26.35920442638017L29.710388456072124,27.773048105600015L30.535677024296355,30.539638021441302L31.360965592520575,32.249692310763685L32.1862541607448,35.852028642964356L33.011542728969026,37.843606917792364L33.83683129719326,39.04939360757015L34.66211986541748,42.961629369717855L35.487408433641704,47.33128410890974L36.312697001865935,51.76045378177462L37.13798557009015,57.10352828086143L37.96327413831438,59.975987828175484L38.788562706538606,64.90633572058444L39.61385127476284,69.5808116447676L40.43913984298707,73.91254255378297L41.264428411211284,74.76881669018181L42.089716979435515,79.8683256253754L42.91500554765974,83.10589789506201L43.74029411588397,87.12298726269974L44.565582684108186,90.84135939543957L45.39087125233242,89.6433567810294L46.21615982055664,92.30931655204601L47.04144838878087,95.696546083158L47.86673695700509,97.57555185182032L48.69202552522932,97.91513396429502L49.51731409345354,99.52859119110698L50.34260266167777,103.87859037877759L51.16789122990199,104.98655367699286L51.99317979812622,106.45851100897788L52.818468366350444,107.59801136602236L53.643756934574675,108.36212695678311L54.4690455027989,107.04415702852334L55.29433407102312,107.32586663950241L56.119622639247346,112.82724996903663L56.94491120747158,111.02844884347272L57.7701997756958,112.06673446328388L58.595488343920024,112.67430365639723L59.42077691214425,111.50911785959386L60.24606548036848,114.12086120998396L61.07135404859271,116.90580191478314L61.896642616816926,117.47116305517781L62.72193118504115,120.45831314534084L63.54721975326538,119.1255302595802L64.3725083214896,123.23930258092626L65.19779688971383,124.85990606343884L66.02308545793805,121.21918413745281L66.84837402616229,123.99448440018315L67.67366259438651,123.20775759591514L68.49895116261074,125.32393224312577L69.32423973083496,121.31154367520155L70.14952829905918,122.13155268241096L70.97481686728341,122.7467387572107L71.80010543550765,120.44956841203448L72.62539400373187,123.5267542906584L73.4506825719561,125.41371037760588L74.2759711401803,124.63421265764516L75.10125970840454,124.92603060652914L75.92654827662876,125.80946042177258L76.751836844853,123.07836498710859L77.57712541307721,123.98822681245156L78.40241398130144,125.71183798262378L79.22770254952567,124.5273812086877L80.0529911177499,126.29901693819757L80.87827968597414,128.21756720742005L81.70356825419834,128.3487688824092L82.52885682242257,126.0648064150672L83.3541453906468,130.00714850678136L84.17943395887103,131.77374210566512L85.00472252709524,132.02819711802192L85.83001109531948,132.32233151658158L86.6552996635437,134.28969363066372L87.48058823176794,133.01337007920472L88.30587679999215,132.29046848535432L89.13116536821637,132.90612148345514L89.95645393644061,132.88318752660703L90.78174250466483,129.52964269482356L91.60703107288904,131.3560670251056L92.43231964111328,129.000271313961L93.2576082093375,132.15567758023215L94.08289677756174,131.71395443750046L94.90818534578595,134.2581979301187L95.73347391401018,133.22159470772237L96.55876248223441,134.8065059742605L97.38405105045864,136.1452104304573L98.20933961868286,134.71087713544352L99.03462818690709,134.39953293366284L99.85991675513131,135.54323204309563L100.68520532335555,136.09418690018535L101.51049389157976,135.84704097126416L102.33578245980398,138.67659798197758L103.16107102802822,139.18075382134754L103.98635959625244,136.30497791211454L104.81164816447668,134.36252600887428L105.63693673270089,137.26198871613153L106.46222530092511,137.84999366257742L107.28751386914935,141.38848578205355L108.11280243737357,141.85801564333306L108.9380910055978,138.99568147142935L109.76337957382202,139.83996980795172L110.58866814204625,139.933076171233L111.41395671027048,140.72633308072972L112.23924527849469,138.26226381525916L113.06453384671892,137.6304133167073L113.88982241494315,139.04014858859617L114.71511098316738,142.03916881329363L115.5403995513916,143.07006397531086L116.36568811961583,142.7905553676979L117.19097668784005,142.07259344180548L118.01626525606429,138.36304391056447L118.8415538242885,140.86514401471268L119.66684239251273,139.3212191591289L120.49213096073696,142.37470720761593L121.31741952896118,144.72769453918463L122.14270809718542,144.3089802691918L122.96799666540963,145.61399384081432L123.79328523363385,142.77662472275978L124.61857380185809,142.91435784335627L125.4438623700823,143.78059310196957L126.26915093830654,144.09816192814526L127.09443950653076,145.18496185744976L127.91972807475499,146.7030149639057L128.7450166429792,146.9971828390808L129.57030521120345,146.53238937944573L130.39559377942766,145.3932251337412L131.2208823476519,145.82430339810318L132.0461709158761,144.2882685277783L132.87145948410034,145.305732989609L133.69674805232458,145.4591116482326L134.5220366205488,144.56548564775497L135.34732518877303,144.51442919372886L136.17261375699724,144.75667289707923L136.99790232522147,143.80932686069033L137.82319089344568,144.01301176792876L138.64847946166992,146.20063734874645L139.47376802989416,147.67379886089037L140.29905659811837,149.10506691845032L141.12434516634258,147.4316877966964L141.94963373456682,146.7758380682397L142.77492230279105,147.3983149814972L143.6002108710153,147.21216365802215L144.4254994392395,146.4197471788467L145.25078800746374,147.16328628427956L146.07607657568795,147.622021041305L146.9013651439122,148.70657046560038L147.72665371213643,150.27473780989885L148.5519422803606,149.98811963438186L149.37723084858484,147.82327730819316L150.20251941680908,148.78652414552135L151.02780798503332,147.4665842281346L151.85309655325753,145.8309968297091L152.67838512148177,147.60235474384777L153.503673689706,149.083082601691L154.32896225793021,148.45417001688187L155.15425082615442,151.27864332857658L155.97953939437866,151.38239422736433L156.80482796260287,150.27699872584014L157.6301165308271,148.66391044811107L158.45540509905135,148.60940074218757L159.28069366727556,152.17816513576818L160.1059822354998,150.23592078232076L160.93127080372403,150.53831103596335L161.75655937194827,149.93134987562286L162.58184794017245,149.1870472952239L163.4071365083967,149.58387712165228L164.23242507662093,151.31288018713724L165.05771364484514,151.5444019751129L165.88300221306937,152.54418429873405L166.7082907812936,151.3450073949227L167.53357934951782,154.5066721513341L168.35886791774206,156.17280656904953L169.18415648596627,154.11775758812936L170.00944505419048,155.9049959157076L170.83473362241472,154.34365259235182L171.66002219063895,155.1932349464251L172.4853107588632,151.79134842002927L173.3105993270874,152.40323684228346L174.13588789531164,152.20203176256584L174.96117646353588,149.40759284770394L175.78646503176006,151.30690567453328L176.6117535999843,153.43742860591374L177.43704216820854,152.1603563443159L178.26233073643274,151.79835867778982L179.08761930465698,151.9812788213895L179.91290787288122,150.258273433719L180.73819644110543,150.49944796585024L181.56348500932967,151.6800304995849L182.3887735775539,151.33180809025225L183.2140621457781,151.39222049263546L184.03935071400232,153.42991984169996L184.86463928222656,152.66455985497194L185.6899278504508,150.65767090549556L186.515216418675,153.20561657353673L187.34050498689925,153.42734496425518L188.16579355512349,153.0992285520471L188.99108212334767,153.1971052818299L189.8163706915719,155.13303653494313L190.64165925979614,154.45164274130533L191.46694782802035,153.8952175686877L192.2922363962446,155.28743574556515L193.11752496446883,155.20544348156616L193.94281353269304,152.5435188893054L194.76810210091728,154.23112404654887L195.5933906691415,151.36269579761247L196.41867923736572,153.20621678965423L197.24396780558993,152.72213289800135L198.06925637381417,154.03854235799542L198.8945449420384,152.8849862508781L199.71983351026262,154.28614779629518L200.54512207848686,155.9371726594109L201.3704106467111,154.5446418566634L202.1956992149353,154.3189444644055L203.0209877831595,154.1463764376845L203.84627635138375,155.32843260471216L204.67156491960796,155.4258997962308L205.4968534878322,156.18243784222722L206.32214205605644,156.5417703112938L207.14743062428067,155.10010158206163L207.97271919250488,153.06097192907126L208.79800776072912,155.02575503141472L209.62329632895336,155.90470231274494L210.44858489717754,158.28309332400107L211.27387346540178,158.56155010957877L212.09916203362602,155.8382754117363L212.92445060185022,156.51730104369852L213.74973917007446,156.4669405974033L214.5750277382987,157.6110605769364L215.4003163065229,155.84901170685043L216.22560487474715,155.05847448856656L217.05089344297136,156.37337946060242L217.8761820111956,157.62560369283054L218.7014705794198,158.399707838232L219.52675914764404,158.27534308150007L220.35204771586828,156.77264224600316L221.1773362840925,155.0115507639964L222.00262485231673,157.234768204147L222.82791342054097,155.5426710405822L223.65320198876515,157.76614426044284L224.47849055698939,159.1802858727944L225.30377912521362,158.49497313355235L226.12906769343783,159.4892830761047L226.95435626166207,160.08680640573547L227.7796448298863,159.57916345775848L228.60493339811055,158.2527956815617L229.43022196633476,159.60784318506919L230.255510534559,157.84125628929138L231.0807991027832,159.6462048288461L231.9060876710074,158.88070820751722L232.73137623923165,158.1396510280754L233.5566648074559,157.40898635698707L234.3819533756801,159.15736256523758L235.20724194390434,160.02544944947132L236.03253051212857,159.50335041323402L236.85781908035278,156.88998894373512L237.683107648577,158.46809822783214L238.50839621680123,157.18319036223807L239.33368478502547,158.62277357316967L240.15897335324968,158.47417310002106L240.98426192147392,155.9325106350924L241.80955048969815,156.78705645786033L242.63483905792236,157.48231829055763L243.4601276261466,157.8437594860596L244.28541619437084,157.49805022328204L245.11070476259502,157.91105507657758L245.93599333081926,157.87791597112528L246.7612818990435,157.71914427305953L247.5865704672677,158.79078221073283L248.41185903549194,157.10354568569278L249.23714760371618,157.6433147159032L250.06243617194042,160.42763884080296L250.8877247401646,159.05218950070116L251.71301330838884,158.78471657160293L252.53830187661308,159.44840913817475L253.36359044483729,158.80718261796878L254.18887901306152,159.81681044234577L255.01416758128576,160.13240084327697L255.83945614950997,158.19034959061665L256.6647447177342,158.7637412050586L257.4900332859584,158.00640870248313L258.3153218541826,159.16765165925017L259.1406104224069,160.12713366264356L259.9658989906311,159.08567185811074L260.7911875588553,160.39279549651764L261.6164761270795,159.81914296805323L262.4417646953038,160.81667363966972L263.267053263528,161.53415528157748L264.0923418317522,159.95823196400048L264.9176303999765,160.11893020029586L265.7429189682007,159.59020080652624L266.5682075364249,160.64051306238017L267.39349610464916,160.578145280697L268.21878467287337,160.35549057921492L269.0440732410976,158.26771133969115L269.8693618093218,159.34691442791672L270.69465037754605,159.65974498594593L271.51993894577026,161.8748643140357L272.3452275139945,162.7197477665287L273.17051608221874,162.42926092622506L273.99580465044295,160.76079418864438L274.82109321866716,162.06406472947648L275.64638178689137,161.80918925426573L276.47167035511563,160.92574488100695L277.29695892333984,159.48078968870476L278.12224749156405,158.86592510139693" fill="none"></path></g></g></g></g><g opacity="0.2"><g><g><g><path style="fill: none;" stroke="rgb(238, 51, 119)" stroke-width="2px" d="M20.632214205605642,13.11401782561659L21.45750277382987,16.428285620748287L22.282791342054093,13.022359734268028L23.10807991027832,15.437125587740276L23.933368478502544,16.900827404975193L24.75865704672677,18.825619046851607L25.583945614950995,23.215847928810355L26.409234183175222,31.45369488170416L27.23452275139945,13.341954236031759L28.059811319623673,16.380837748688172L28.8850998878479,19.8910471585044L29.710388456072124,25.018980172868716L30.535677024296355,26.3134898908952L31.360965592520575,33.94383159511458L32.1862541607448,34.87607765825533L33.011542728969026,34.92854459902265L33.83683129719326,39.47395460247481L34.66211986541748,38.848352430011055L35.487408433641704,40.85435401739203L36.312697001865935,47.015932421004145L37.13798557009015,51.48468498634248L37.96327413831438,53.66018971380952L38.788562706538606,55.5773325777406L39.61385127476284,62.58286384991198L40.43913984298707,63.43035127389886L41.264428411211284,69.36086872009778L42.089716979435515,70.66569933997289L42.91500554765974,72.78173870692595L43.74029411588397,77.64909722605663L44.565582684108186,71.32001624073048L45.39087125233242,73.24434132129045L46.21615982055664,85.99311515488473L47.04144838878087,85.61583670854255L47.86673695700509,89.18436628291418L48.69202552522932,88.37456428889641L49.51731409345354,92.85719351884352L50.34260266167777,90.71170423606766L51.16789122990199,98.88561108127617L51.99317979812622,89.53112737769446L52.818468366350444,95.76809784857731L53.643756934574675,97.20934110062528L54.4690455027989,92.68784589919626L55.29433407102312,101.85100411748188L56.119622639247346,107.4161475000188L56.94491120747158,100.26712034659765L57.7701997756958,105.16360360245174L58.595488343920024,106.96218333911936L59.42077691214425,106.40354685378695L60.24606548036848,102.96420528029414L61.07135404859271,113.97315782664926L61.896642616816926,108.33068544046726L62.72193118504115,107.07671707319535L63.54721975326538,107.9850624725347L64.3725083214896,116.26760034425509L65.19779688971383,110.24162869417835L66.02308545793805,112.90833058941915L66.84837402616229,115.10401055926694L67.67366259438651,117.66303575796131L68.49895116261074,115.38310612494122L69.32423973083496,115.88706303780866L70.14952829905918,109.44000566142002L70.97481686728341,116.67329661623519L71.80010543550765,122.80099984062916L72.62539400373187,119.07219231583751L73.4506825719561,115.55188821572004L74.2759711401803,121.87124917362028L75.10125970840454,125.77182902308253L75.92654827662876,123.3991809320856L76.751836844853,119.49506652719576L77.57712541307721,121.21739176506829L78.40241398130144,116.98902431436112L79.22770254952567,120.95571448854123L80.0529911177499,125.10437771435598L80.87827968597414,116.15222538598731L81.70356825419834,120.00153297441678L82.52885682242257,121.1822158694528L83.3541453906468,120.63278336645384L84.17943395887103,124.82637786086427L85.00472252709524,124.78184953158733L85.83001109531948,125.77624721736704L86.6552996635437,123.08660605740108L87.48058823176794,120.88565253085532L88.30587679999215,121.63400981331968L89.13116536821637,126.17045618420745L89.95645393644061,131.72970746284656L90.78174250466483,131.10333122274412L91.60703107288904,132.77416152259192L92.43231964111328,128.5627139887167L93.2576082093375,124.86214049268072L94.08289677756174,124.86248687911264L94.90818534578595,129.1268855878488L95.73347391401018,132.36804463851598L96.55876248223441,133.11965724652916L97.38405105045864,133.54116711949234L98.20933961868286,120.75178477859033L99.03462818690709,138.6072913630942L99.85991675513131,128.21069347546015L100.68520532335555,138.7248224001728L101.51049389157976,128.65369344542316L102.33578245980398,134.70376722896074L103.16107102802822,123.2313390330505L103.98635959625244,134.08052613952262L104.81164816447668,126.94607902724032L105.63693673270089,129.6279865799307L106.46222530092511,139.89357617064067L107.28751386914935,133.4182176089432L108.11280243737357,130.4251490037394L108.9380910055978,132.5080201025598L109.76337957382202,131.44584731645588L110.58866814204625,134.7732071048914L111.41395671027048,139.32582406686046L112.23924527849469,139.96395270375965L113.06453384671892,125.9895717756445L113.88982241494315,137.24402747289L114.71511098316738,133.12746861402417L115.5403995513916,129.1447633692016L116.36568811961583,141.8385536585641L117.19097668784005,134.08222979523873L118.01626525606429,138.5440970466041L118.8415538242885,140.22037763092126L119.66684239251273,134.82569171843588L120.49213096073696,139.45106043477122L121.31741952896118,143.29510153561355L122.14270809718542,142.41208829502386L122.96799666540963,133.79137829821227L123.79328523363385,134.60013052926806L124.61857380185809,137.1943563654659L125.4438623700823,141.59338275588394L126.26915093830654,136.53442659068926L127.09443950653076,140.07689588789322L127.91972807475499,145.29588258462798L128.7450166429792,138.3844235051622L129.57030521120345,138.13851388039768L130.39559377942766,135.37282322585145L131.2208823476519,137.49589282355L132.0461709158761,140.24235903112552L132.87145948410034,131.8994509527017L133.69674805232458,130.00563262003737L134.5220366205488,140.23164579362447L135.34732518877303,145.51109106094836L136.17261375699724,139.78723200149042L136.99790232522147,142.3031674349669L137.82319089344568,133.96890134456353L138.64847946166992,136.45944099729272L139.47376802989416,143.1708513086671L140.29905659811837,145.56485164900218L141.12434516634258,142.473985429672L141.94963373456682,142.0706679134947L142.77492230279105,147.41273136477398L143.6002108710153,138.99885294791932L144.4254994392395,145.9087638921078L145.25078800746374,145.29016013939068L146.07607657568795,143.67768181509715L146.9013651439122,146.8263521538903L147.72665371213643,137.18463633804L148.5519422803606,135.326562964415L149.37723084858484,139.48346523893147L150.20251941680908,143.10453597973444L151.02780798503332,150.26744686687522L151.85309655325753,142.92408278693367L152.67838512148177,146.04220749772148L153.503673689706,143.0172465988944L154.32896225793021,146.56895522398608L155.15425082615442,139.15978125653803L155.97953939437866,147.17622012289144L156.80482796260287,144.1290728196453L157.6301165308271,141.0896273126759L158.45540509905135,146.83786773547342L159.28069366727556,146.9949539823423L160.1059822354998,140.4032944088551L160.93127080372403,143.29846643238065L161.75655937194827,150.57034059424353L162.58184794017245,147.23337741871117L163.4071365083967,146.73173917420425L164.23242507662093,152.15329831160574L165.05771364484514,148.41242381458423L165.88300221306937,144.23849558657298L166.7082907812936,146.64775813724444L167.53357934951782,150.7440852008427L168.35886791774206,144.9168651370154L169.18415648596627,143.6109175976252L170.00944505419048,151.13666120307556L170.83473362241472,150.55441388748676L171.66002219063895,150.46872566025542L172.4853107588632,150.45310645982084L173.3105993270874,144.16242488466014L174.13588789531164,146.93514223539646L174.96117646353588,154.8987607054398L175.78646503176006,150.29959718304468L176.6117535999843,148.7753448967795L177.43704216820854,150.39868137534663L178.26233073643274,152.109664224852L179.08761930465698,149.21308898282166L179.91290787288122,147.522991821338L180.73819644110543,146.16019449245024L181.56348500932967,144.14979591811732L182.3887735775539,144.76678791355945L183.2140621457781,150.42342326333983L184.03935071400232,147.60532575546856L184.86463928222656,147.4510742220526L185.6899278504508,147.80704283372177L186.515216418675,144.8516207783773L187.34050498689925,152.4476207420621L188.16579355512349,149.88716051386413L188.99108212334767,148.21846508549459L189.8163706915719,148.5870379218186L190.64165925979614,148.5643213340854L191.46694782802035,146.51870091491642L192.2922363962446,150.13831541888322L193.11752496446883,154.78300048063042L193.94281353269304,155.18619428736778L194.76810210091728,153.5975918849877L195.5933906691415,150.09351492883837L196.41867923736572,144.90973593871794L197.24396780558993,147.60571809112102L198.06925637381417,150.64343520048632L198.8945449420384,152.60957053719937L199.71983351026262,152.5616949839325L200.54512207848686,152.36831945648845L201.3704106467111,143.25193401017626L202.1956992149353,156.36746038404937L203.0209877831595,151.27981423244884L203.84627635138375,156.47925483766898L204.67156491960796,150.06524201997297L205.4968534878322,150.04325355065788L206.32214205605644,143.31132514502625L207.14743062428067,152.80691537038865L207.97271919250488,147.46878941385572L208.79800776072912,149.3844053498421L209.62329632895336,156.3925380548082L210.44858489717754,151.31746785141908L211.27387346540178,152.7636347391777L212.09916203362602,149.65708216285984L212.92445060185022,150.38708449898866L213.74973917007446,150.49164018309256L214.5750277382987,155.57983772533976L215.4003163065229,154.65910724378213L216.22560487474715,144.99722678921736L217.05089344297136,152.4462493345562L217.8761820111956,153.79170966907157L218.7014705794198,147.86772761585826L219.52675914764404,157.14672381917268L220.35204771586828,149.80979263010937L221.1773362840925,152.39566984638722L222.00262485231673,155.10135435343906L222.82791342054097,150.45338922425503L223.65320198876515,151.5050219660739L224.47849055698939,157.35668348068305L225.30377912521362,157.7119416467113L226.12906769343783,151.38262031161605L226.95435626166207,153.8081312135882L227.7796448298863,157.8200495590199L228.60493339811055,155.6869877731275L229.43022196633476,150.4113421528883L230.255510534559,153.51515544874974L231.0807991027832,153.8273132458938L231.9060876710074,152.98240958192451L232.73137623923165,155.8480291875199L233.5566648074559,156.69280207293838L234.3819533756801,154.5206233621287L235.20724194390434,158.35992815869804L236.03253051212857,153.5637343785467L236.85781908035278,152.4917496665757L237.683107648577,154.06436880931219L238.50839621680123,152.70943940080627L239.33368478502547,152.85037626392645L240.15897335324968,153.02109882563502L240.98426192147392,156.50068484722652L241.80955048969815,153.59306765404037L242.63483905792236,155.85756895261898L243.4601276261466,158.31829816487175L244.28541619437084,152.39433024988017L245.11070476259502,154.8478984528366L245.93599333081926,159.59281997195518L246.7612818990435,154.09033718803877L247.5865704672677,156.83877214298747L248.41185903549194,145.44345027373035L249.23714760371618,155.55987102172924L250.06243617194042,158.80316494387472L250.8877247401646,153.58184544055774L251.71301330838884,154.0815820942446L252.53830187661308,151.2184296083377L253.36359044483729,157.49954314195585L254.18887901306152,157.2925065577841L255.01416758128576,151.1109296395626L255.83945614950997,158.52307970268072L256.6647447177342,151.1638914180898L257.4900332859584,152.33768546459743L258.3153218541826,154.48520711674414L259.1406104224069,155.60845348608163L259.9658989906311,153.38389973294576L260.7911875588553,153.34046358129598L261.6164761270795,155.66655450820053L262.4417646953038,151.20410758974504L263.267053263528,157.92195432655308L264.0923418317522,153.3092110422051L264.9176303999765,155.81557843413907L265.7429189682007,157.64076630406566L266.5682075364249,150.61552635082998L267.39349610464916,157.4362357196921L268.21878467287337,154.73057948908365L269.0440732410976,155.37282941761143L269.8693618093218,150.61110462199005L270.69465037754605,153.98546692850184L271.51993894577026,150.75842489221247L272.3452275139945,155.85545175391786L273.17051608221874,154.46314442176504L273.99580465044295,156.20493799093282L274.82109321866716,157.96872709852653L275.64638178689137,153.25229763070988L276.47167035511563,154.77800968836664L277.29695892333984,153.97171043877762L278.12224749156405,151.38778429709578" fill="none"></path></g><g><path style="fill: none;" stroke="rgb(51, 187, 238)" stroke-width="2px" d="M20.632214205605642,13.04823267999807L21.45750277382987,16.391455553192692L22.282791342054093,13.02176592895619L23.10807991027832,19.211154214672664L23.933368478502544,18.46959034774016L24.75865704672677,19.84525345838438L25.583945614950995,25.22471957519854L26.409234183175222,25.531165530771595L27.23452275139945,23.462277133222734L28.059811319623673,26.689580726613716L28.8850998878479,22.666054901157786L29.710388456072124,27.087543391318242L30.535677024296355,32.46121283723112L31.360965592520575,37.479871535995706L32.1862541607448,40.513792532831765L33.011542728969026,43.23663023737377L33.83683129719326,40.14313077425005L34.66211986541748,48.19514494098228L35.487408433641704,46.23513498882526L36.312697001865935,57.55189076003763L37.13798557009015,55.64897094714723L37.96327413831438,60.448176168522885L38.788562706538606,67.9911012479068L39.61385127476284,65.61573861834145L40.43913984298707,75.41326470655129L41.264428411211284,78.88780338299216L42.089716979435515,83.69177318508423L42.91500554765974,79.07475308866886L43.74029411588397,77.08194246214369L44.565582684108186,85.87414201919167L45.39087125233242,88.05449615670537L46.21615982055664,95.56361674797971L47.04144838878087,92.36830795031936L47.86673695700509,93.31574553268796L48.69202552522932,94.4059438087774L49.51731409345354,97.00969527185264L50.34260266167777,96.53622036499284L51.16789122990199,94.92351582915192L51.99317979812622,103.96823816416948L52.818468366350444,101.35012933694732L53.643756934574675,102.46163391315433L54.4690455027989,108.75208927676765L55.29433407102312,110.10038785929139L56.119622639247346,105.6124355888703L56.94491120747158,106.37073204119709L57.7701997756958,103.28055506017533L58.595488343920024,107.27603065375781L59.42077691214425,112.21254628438494L60.24606548036848,115.04110961087734L61.07135404859271,109.07434883332378L61.896642616816926,113.32049509783177L62.72193118504115,108.98417525525481L63.54721975326538,120.13500485647386L64.3725083214896,120.30672769736846L65.19779688971383,118.01772839512113L66.02308545793805,118.4165181457957L66.84837402616229,123.48294282660889L67.67366259438651,114.42581420204048L68.49895116261074,116.66998827235496L69.32423973083496,116.70082373390535L70.14952829905918,118.65079554864799L70.97481686728341,120.53587292573987L71.80010543550765,124.94373923928235L72.62539400373187,125.35808810294922L73.4506825719561,121.3507788177951L74.2759711401803,122.8108259047179L75.10125970840454,123.96195284726831L75.92654827662876,127.46384898271883L76.751836844853,123.75207094597734L77.57712541307721,124.48083265315107L78.40241398130144,126.39823000507293L79.22770254952567,123.26549697670286L80.0529911177499,127.96874608732999L80.87827968597414,130.82043954454065L81.70356825419834,122.04192578610831L82.52885682242257,115.24019697989245L83.3541453906468,117.17485003141185L84.17943395887103,134.1222056171249L85.00472252709524,130.13971951473886L85.83001109531948,133.3309671082129L86.6552996635437,132.4087450442648L87.48058823176794,125.80518815720824L88.30587679999215,129.04762671694024L89.13116536821637,122.8116459215771L89.95645393644061,126.45863555733065L90.78174250466483,135.38323602614116L91.60703107288904,133.32817127486962L92.43231964111328,125.5893540645772L93.2576082093375,131.28410606008885L94.08289677756174,127.79020155446013L94.90818534578595,128.03381725275216L95.73347391401018,135.1493827699402L96.55876248223441,126.73328465227699L97.38405105045864,131.17076347119195L98.20933961868286,136.19558643462224L99.03462818690709,136.38048963270637L99.85991675513131,124.90761608281225L100.68520532335555,134.22445677109L101.51049389157976,126.65452061912832L102.33578245980398,130.82558585724323L103.16107102802822,130.37034218727896L103.98635959625244,136.79481728904068L104.81164816447668,130.49597089084224L105.63693673270089,134.71229611120756L106.46222530092511,136.5692879108717L107.28751386914935,135.24778832760003L108.11280243737357,134.24899012031298L108.9380910055978,135.45835946719941L109.76337957382202,144.17112342556746L110.58866814204625,137.38614134296756L111.41395671027048,135.06920491462049L112.23924527849469,133.76430713819227L113.06453384671892,132.17197577983606L113.88982241494315,132.95680967431323L114.71511098316738,137.51991719679143L115.5403995513916,135.2342969295329L116.36568811961583,133.33762267608307L117.19097668784005,138.69075282040615L118.01626525606429,134.5383358967273L118.8415538242885,141.33619436474996L119.66684239251273,134.76862985561266L120.49213096073696,133.24285771051365L121.31741952896118,139.69463725295353L122.14270809718542,137.12999918024013L122.96799666540963,139.16599500497975L123.79328523363385,133.98239627718613L124.61857380185809,138.99624091145833L125.4438623700823,142.12017996592454L126.26915093830654,140.63177160625068L127.09443950653076,135.73983732323188L127.91972807475499,140.8633910234214L128.7450166429792,144.15608742677844L129.57030521120345,136.1290024794771L130.39559377942766,141.14799342645188L131.2208823476519,136.40829951481075L132.0461709158761,143.02832389560447L132.87145948410034,145.4035451429527L133.69674805232458,141.20649738788953L134.5220366205488,137.7366738083891L135.34732518877303,140.44969958706406L136.17261375699724,148.44955078479575L136.99790232522147,144.78169313379763L137.82319089344568,145.3905309098683L138.64847946166992,141.1356648971204L139.47376802989416,146.2844942031727L140.29905659811837,146.59597690023008L141.12434516634258,142.5040609618055L141.94963373456682,150.03764421119428L142.77492230279105,143.5904454525885L143.6002108710153,148.8145042363619L144.4254994392395,148.97534771565034L145.25078800746374,148.2538848654346L146.07607657568795,146.32048658109196L146.9013651439122,131.94620605189797L147.72665371213643,142.20268709327104L148.5519422803606,140.88396567056546L149.37723084858484,152.06207497057477L150.20251941680908,143.39971023804887L151.02780798503332,141.62899340181704L151.85309655325753,149.88811130927417L152.67838512148177,144.54859273790274L153.503673689706,141.79172786825924L154.32896225793021,138.42374189973884L155.15425082615442,151.72078536759642L155.97953939437866,145.9063038415302L156.80482796260287,148.56206275316717L157.6301165308271,149.87183821608548L158.45540509905135,150.92026865068692L159.28069366727556,147.7928940083451L160.1059822354998,146.19055278901791L160.93127080372403,139.90322550695802L161.75655937194827,143.32319771670757L162.58184794017245,148.19624333552125L163.4071365083967,150.94826232967353L164.23242507662093,145.38470242796816L165.05771364484514,150.3478297264097L165.88300221306937,144.87514677930344L166.7082907812936,152.13682374875768L167.53357934951782,150.6263491595493L168.35886791774206,150.62933939344106L169.18415648596627,152.01813337749883L170.00944505419048,153.31799441244272L170.83473362241472,146.43461737584923L171.66002219063895,144.55813603755726L172.4853107588632,150.11465510485084L173.3105993270874,148.64028246478L174.13588789531164,148.39798869021791L174.96117646353588,152.8920133268636L175.78646503176006,152.29791111237063L176.6117535999843,147.63550378970942L177.43704216820854,151.0082154588365L178.26233073643274,151.41837940887712L179.08761930465698,153.1046769232761L179.91290787288122,150.75059938649576L180.73819644110543,148.30273595599948L181.56348500932967,152.17356191787218L182.3887735775539,149.1122339782505L183.2140621457781,150.81719747986264L184.03935071400232,152.54990724158148L184.86463928222656,147.3989960823823L185.6899278504508,141.78144584652034L186.515216418675,143.15968211351586L187.34050498689925,155.68075988646407L188.16579355512349,156.26415239801142L188.99108212334767,154.35660231751086L189.8163706915719,156.54280260970182L190.64165925979614,149.70919211352896L191.46694782802035,150.1572641705306L192.2922363962446,146.89256144616013L193.11752496446883,148.56694397421268L193.94281353269304,153.26886055744362L194.76810210091728,156.8095908533772L195.5933906691415,148.42885596276716L196.41867923736572,152.14044313351553L197.24396780558993,149.76209027005845L198.06925637381417,148.3324757053673L198.8945449420384,155.22783488486036L199.71983351026262,148.88978319785895L200.54512207848686,151.38252841317495L201.3704106467111,152.60777851759758L202.1956992149353,155.38123459041827L203.0209877831595,145.832495255091L203.84627635138375,154.11168590282148L204.67156491960796,147.2774285830054L205.4968534878322,151.46987434690183L206.32214205605644,149.90419353646973L207.14743062428067,154.20325916483978L207.97271919250488,150.87688551736855L208.79800776072912,152.46152214855886L209.62329632895336,154.0279275428536L210.44858489717754,152.53196230367553L211.27387346540178,150.7106589101639L212.09916203362602,151.37018221106632L212.92445060185022,158.99371282697672L213.74973917007446,152.679158864458L214.5750277382987,153.4279155516857L215.4003163065229,150.43588610577757L216.22560487474715,150.2874453814846L217.05089344297136,151.32276261544962L217.8761820111956,152.52445844250275L218.7014705794198,151.34276819916985L219.52675914764404,150.18965837102456L220.35204771586828,154.70299935308208L221.1773362840925,150.18596829515815L222.00262485231673,156.7456542802473L222.82791342054097,151.16246699225246L223.65320198876515,148.38292794954089L224.47849055698939,153.21904806780242L225.30377912521362,152.07429392868798L226.12906769343783,153.74256874496163L226.95435626166207,154.97781457213352L227.7796448298863,149.83452037988087L228.60493339811055,156.46800434774292L229.43022196633476,152.95398468717573L230.255510534559,153.25816145816427L231.0807991027832,149.98262885596364L231.9060876710074,156.73740109332385L232.73137623923165,157.24684363621492L233.5566648074559,156.01411087795202L234.3819533756801,156.4520458299873L235.20724194390434,158.67022324513175L236.03253051212857,159.02017250890773L236.85781908035278,155.34517505594587L237.683107648577,155.98422621181166L238.50839621680123,156.0846005168447L239.33368478502547,155.60812477242686L240.15897335324968,153.92899180187962L240.98426192147392,155.01441842814177L241.80955048969815,161.01983487112932L242.63483905792236,147.8717004561589L243.4601276261466,154.5886494158883L244.28541619437084,152.3468894469309L245.11070476259502,151.15651126635697L245.93599333081926,153.8275818721063L246.7612818990435,156.44343565296566L247.5865704672677,158.5415937040105L248.41185903549194,153.29172206194934L249.23714760371618,149.94989887270407L250.06243617194042,154.72113515698112L250.8877247401646,157.7101107469998L251.71301330838884,154.9543627968714L252.53830187661308,150.2101022396178L253.36359044483729,158.51955928547483L254.18887901306152,158.84237023267767L255.01416758128576,155.98701144148862L255.83945614950997,157.13460029405599L256.6647447177342,156.49577181518214L257.4900332859584,150.5494619753327L258.3153218541826,155.96986884766474L259.1406104224069,150.29925433116819L259.9658989906311,152.98548464514653L260.7911875588553,152.56299216577446L261.6164761270795,157.54741162611185L262.4417646953038,155.32693321538403L263.267053263528,161.21152441563441L264.0923418317522,159.17030981980596L264.9176303999765,160.75935050705908L265.7429189682007,155.6917099391788L266.5682075364249,155.4273499350822L267.39349610464916,153.27648459350095L268.21878467287337,158.35430821556815L269.0440732410976,161.665981647016L269.8693618093218,156.34910897226925L270.69465037754605,159.78495133588874L271.51993894577026,154.31149785569923L272.3452275139945,154.34638391776966L273.17051608221874,159.64101363521053L273.99580465044295,155.65565747381726L274.82109321866716,161.26330035081565L275.64638178689137,153.0998876006717L276.47167035511563,158.86338316469477L277.29695892333984,154.0956425557356L278.12224749156405,158.33539127491963" fill="none"></path></g><g><path style="fill: none;" stroke="rgb(255, 112, 67)" stroke-width="2px" d="M20.632214205605642,13.11401782561659L21.45750277382987,16.403953741184687L22.282791342054093,13.005379729993823L23.10807991027832,13.759427646696626L23.933368478502544,15.790595268722134L24.75865704672677,20.410669221026957L25.583945614950995,25.40120699680954L26.409234183175222,27.69608073017753L27.23452275139945,27.09499423415962L28.059811319623673,27.991343352377662L28.8850998878479,26.663495707558017L29.710388456072124,29.886119549562867L30.535677024296355,34.680489499113584L31.360965592520575,34.811423570373655L32.1862541607448,41.25129873013339L33.011542728969026,40.82956971473369L33.83683129719326,40.85756339372029L34.66211986541748,48.82898969670321L35.487408433641704,53.88510054477866L36.312697001865935,58.40380344741987L37.13798557009015,65.1178470025878L37.96327413831438,64.28458262964159L38.788562706538606,72.30176021807938L39.61385127476284,76.59247015741857L40.43913984298707,80.41010812921672L41.264428411211284,76.05322424316196L42.089716979435515,87.51757597992014L42.91500554765974,87.96225132915583L43.74029411588397,93.14861761384925L44.565582684108186,96.4189155394616L45.39087125233242,87.84635325668478L46.21615982055664,96.30825567813424L47.04144838878087,100.77738997545877L47.86673695700509,100.39406037022452L48.69202552522932,98.42450711841296L49.51731409345354,101.9487769897202L50.34260266167777,110.4035890929819L51.16789122990199,106.64849861403057L51.99317979812622,108.66644699875685L52.818468366350444,109.307261897781L53.643756934574675,109.50830034139214L54.4690455027989,105.06720213771935L55.29433407102312,107.74843105576763L56.119622639247346,121.0793249609553L56.94491120747158,108.33024715559425L57.7701997756958,113.62416289283873L58.595488343920024,113.58565744601044L59.42077691214425,109.76133916445413L60.24606548036848,118.03847623548116L61.07135404859271,121.08321297192568L61.896642616816926,118.31920476576299L62.72193118504115,124.93903828056362L63.54721975326538,117.12635593094517L64.3725083214896,129.40996106293454L65.19779688971383,127.29081128720516L66.02308545793805,115.75810124847719L66.84837402616229,128.1574347942771L67.67366259438651,122.02766738951338L68.49895116261074,128.4981942139413L69.32423973083496,115.29296082331568L70.14952829905918,123.36156619322507L70.97481686728341,123.66951786941029L71.80010543550765,117.00381289427021L72.62539400373187,128.14253310859428L73.4506825719561,128.244144508027L74.2759711401803,123.46496607770412L75.10125970840454,125.36375752985508L75.92654827662876,127.13460514463775L76.751836844853,118.98172183511262L77.57712541307721,125.35301955046604L78.40241398130144,128.29725473788216L79.22770254952567,122.75069604778353L80.0529911177499,128.95647053246236L80.87827968597414,131.09539261125377L81.70356825419834,128.54557139489287L82.52885682242257,122.63886271405424L83.3541453906468,135.92066164435255L84.17943395887103,134.42363250399077L85.00472252709524,132.40987963655706L85.83001109531948,132.76353311442116L86.6552996635437,137.24073680178688L87.48058823176794,131.09888475201623L88.30587679999215,131.20611609457882L89.13116536821637,133.82960098060633L89.95645393644061,132.8487865913349L90.78174250466483,124.49932544714828L91.60703107288904,134.09570352052876L92.43231964111328,125.46657774724402L93.2576082093375,136.8887869796389L94.08289677756174,131.05136972340298L94.90818534578595,138.0745631690461L95.73347391401018,131.66668987412785L96.55876248223441,137.18387287406765L97.38405105045864,138.15326711475248L98.20933961868286,132.5593771929229L99.03462818690709,133.9325166309918L99.85991675513131,137.2587807072448L100.68520532335555,136.92061918581987L101.51049389157976,135.4763220778825L102.33578245980398,142.92093349804767L103.16107102802822,139.93698758040247L103.98635959625244,131.99131404826502L104.81164816447668,131.44884815401392L105.63693673270089,141.61118277701735L106.46222530092511,138.73200108224626L107.28751386914935,146.69622396126772L108.11280243737357,142.56231043525236L108.9380910055978,134.70218021357377L109.76337957382202,141.1064023127353L110.58866814204625,140.07273571615494L111.41395671027048,141.9162184449748L112.23924527849469,134.56615991705337L113.06453384671892,136.68263756887947L113.88982241494315,141.15475149642944L114.71511098316738,146.5376991503398L115.5403995513916,144.61640671833672L116.36568811961583,142.3712924562785L117.19097668784005,140.99565055296682L118.01626525606429,132.7987196137029L118.8415538242885,144.61829417093506L119.66684239251273,137.0053318757532L120.49213096073696,146.95493928034645L121.31741952896118,148.2571755365377L122.14270809718542,143.68090886420256L122.96799666540963,147.5715141982481L123.79328523363385,138.520571045678L124.61857380185809,143.12095752425105L125.4438623700823,145.07994598988952L126.26915093830654,144.57451516740878L127.09443950653076,146.81516175140652L127.91972807475499,148.9800946235896L128.7450166429792,147.4384346518435L129.57030521120345,145.83519918999312L130.39559377942766,143.68447876518442L131.2208823476519,146.4709207946461L132.0461709158761,141.984216222291L132.87145948410034,146.83192968235505L133.69674805232458,145.68917963616806L134.5220366205488,143.2250466470385L135.34732518877303,144.4378445126897L136.17261375699724,145.1200384521048L136.99790232522147,142.38830780610695L137.82319089344568,144.31853912878645L138.64847946166992,149.482075719973L139.47376802989416,149.88354112910628L140.29905659811837,151.2519690047902L141.12434516634258,144.92161911406552L141.94963373456682,145.79206347555467L142.77492230279105,148.33203035138342L143.6002108710153,146.93293667280963L144.4254994392395,145.23112246008347L145.25078800746374,148.27859494242895L146.07607657568795,148.31012317684315L146.9013651439122,150.3333946020434L147.72665371213643,152.6269888263466L148.5519422803606,149.5581923711064L149.37723084858484,144.57601381891007L150.20251941680908,150.23139440151368L151.02780798503332,145.48667435205448L151.85309655325753,143.37761573207092L152.67838512148177,150.2593916150557L153.503673689706,151.30417438845586L154.32896225793021,147.5108011396682L155.15425082615442,155.5153532961186L155.97953939437866,151.538020575546L156.80482796260287,148.61890547355387L157.6301165308271,146.24427803151744L158.45540509905135,148.52763618330232L159.28069366727556,157.53131172613914L160.1059822354998,147.32255425214956L160.93127080372403,150.99189641642727L161.75655937194827,149.0209081351121L162.58184794017245,148.07059342462546L163.4071365083967,150.17912186129487L164.23242507662093,153.90638478536468L165.05771364484514,151.89168465707638L165.88300221306937,154.04385778416582L166.7082907812936,149.54624203920568L167.53357934951782,159.24916928595118L168.35886791774206,158.6720081956227L169.18415648596627,151.03518411674912L170.00944505419048,158.58585340707492L170.83473362241472,152.0016376073182L171.66002219063895,156.467608477535L172.4853107588632,146.68851863043554L173.3105993270874,153.32106947566473L174.13588789531164,151.90022414298946L174.96117646353588,145.21593447541105L175.78646503176006,154.15587491477737L176.6117535999843,156.63321300298443L177.43704216820854,150.24474795191915L178.26233073643274,151.2553621780007L179.08761930465698,152.25565903678907L179.91290787288122,147.6737653522132L180.73819644110543,150.86120976404715L181.56348500932967,153.4509043001868L182.3887735775539,150.80947447625334L183.2140621457781,151.48283909621028L184.03935071400232,156.4864688652967L184.86463928222656,151.5165198748799L185.6899278504508,147.64733748128103L186.515216418675,157.0275350755985L187.34050498689925,153.75993755033286L188.16579355512349,152.60705393373493L188.99108212334767,153.34392037650417L189.8163706915719,158.03693341461297L190.64165925979614,153.42955205084866L191.46694782802035,153.06057980976135L192.2922363962446,157.37576301088126L193.11752496446883,155.0824550855677L193.94281353269304,148.5506320009143L194.76810210091728,156.7625317824141L195.5933906691415,147.0600534242079L196.41867923736572,155.97149827771688L197.24396780558993,151.99600706052203L198.06925637381417,156.01315654798657L198.8945449420384,151.15465209020203L199.71983351026262,156.38789011442088L200.54512207848686,158.41370995408442L201.3704106467111,152.45584565254214L202.1956992149353,153.98039837601866L203.0209877831595,153.887524397603L203.84627635138375,157.10151685525364L204.67156491960796,155.57210058350876L205.4968534878322,157.31724491122188L206.32214205605644,157.08076901489363L207.14743062428067,152.93759848821338L207.97271919250488,150.00227744958568L208.79800776072912,157.97292968492997L209.62329632895336,157.22312323474029L210.44858489717754,161.85067984088533L211.27387346540178,158.97923528794524L212.09916203362602,151.7533633649726L212.92445060185022,157.5358394916419L213.74973917007446,156.3913999279605L214.5750277382987,159.32724054623606L215.4003163065229,153.20593840172145L216.22560487474715,153.87266866114078L217.05089344297136,158.34573691865623L217.8761820111956,159.5039400411727L218.7014705794198,159.56086405633422L219.52675914764404,158.08879594640217L220.35204771586828,154.51859099275782L221.1773362840925,152.3699135409863L222.00262485231673,160.56959436437285L222.82791342054097,153.004525295235L223.65320198876515,161.1013540902338L224.47849055698939,161.30149829132174L225.30377912521362,157.46700402468934L226.12906769343783,160.98074798993318L226.95435626166207,160.98309140018168L227.7796448298863,158.817699035793L228.60493339811055,156.26324401726652L229.43022196633476,161.64041444033046L230.255510534559,155.19137594562466L231.0807991027832,162.35362763817818L231.9060876710074,157.73246327552394L232.73137623923165,157.02806525891265L233.5566648074559,156.3129893503546L234.3819533756801,161.77992687761332L235.20724194390434,161.32757977582202L236.03253051212857,158.72020185887806L236.85781908035278,152.96994673948677L237.683107648577,160.83526215397768L238.50839621680123,155.25582856384696L239.33368478502547,160.7821483895671L240.15897335324968,158.25127239029814L240.98426192147392,152.12001693769943L241.80955048969815,158.0688751920122L242.63483905792236,158.52521103960356L243.4601276261466,158.38592127931264L244.28541619437084,156.9794863291157L245.11070476259502,158.53056235652093L245.93599333081926,157.8282073129468L246.7612818990435,157.48098672596095L247.5865704672677,160.39823911724272L248.41185903549194,154.5726908981327L249.23714760371618,158.4529682612188L250.06243617194042,164.60412502815262L250.8877247401646,156.98901549054852L251.71301330838884,158.38350717795558L252.53830187661308,160.44394798803248L253.36359044483729,157.8453428376598L254.18887901306152,161.33125217891129L255.01416758128576,160.60578644467378L255.83945614950997,155.2772727116262L256.6647447177342,159.62382862672152L257.4900332859584,156.8704099486199L258.3153218541826,160.90951609440071L259.1406104224069,161.56635666773363L259.9658989906311,157.52347915131156L260.7911875588553,162.35348095412792L261.6164761270795,158.9586641753566L262.4417646953038,162.31296964709446L263.267053263528,162.61037774443915L264.0923418317522,157.594346987635L264.9176303999765,160.35997755473895L265.7429189682007,158.7971067158718L266.5682075364249,162.2159814461611L267.39349610464916,160.4845936081722L268.21878467287337,160.02150852699182L269.0440732410976,155.13604248040554L269.8693618093218,160.96571906025503L270.69465037754605,160.12899082298975L271.51993894577026,165.19754330617036L272.3452275139945,163.98707294526824L273.17051608221874,161.99353066576955L273.99580465044295,158.25809408227343L274.82109321866716,164.01897054072464L275.64638178689137,161.42687604144962L276.47167035511563,159.60057832111875L277.29695892333984,157.3133569002515L278.12224749156405,157.94362822043513" fill="none"></path></g></g></g></g></g></g><g transform="translate(41, 177)" clip-path="url(#clip_1)"><clipPath id="clip_1"><rect width="288" height="22"></rect></clipPath><g><g><line x1="0" y1="0" x2="0" y2="5" style="visibility: inherit;" fill="rgb(0, 0, 0)" stroke="rgb(204, 204, 204)" stroke-width="1px"></line><line x1="20.632214205605642" y1="0" x2="20.632214205605642" y2="5" style="visibility: inherit;" fill="rgb(0, 0, 0)" stroke="rgb(204, 204, 204)" stroke-width="1px"></line><line x1="41.264428411211284" y1="0" x2="41.264428411211284" y2="5" style="visibility: inherit;" fill="rgb(0, 0, 0)" stroke="rgb(204, 204, 204)" stroke-width="1px"></line><line x1="61.896642616816926" y1="0" x2="61.896642616816926" y2="5" style="visibility: inherit;" fill="rgb(0, 0, 0)" stroke="rgb(204, 204, 204)" stroke-width="1px"></line><line x1="82.52885682242257" y1="0" x2="82.52885682242257" y2="5" style="visibility: inherit;" fill="rgb(0, 0, 0)" stroke="rgb(204, 204, 204)" stroke-width="1px"></line><line x1="103.16107102802822" y1="0" x2="103.16107102802822" y2="5" style="visibility: inherit;" fill="rgb(0, 0, 0)" stroke="rgb(204, 204, 204)" stroke-width="1px"></line><line x1="123.79328523363385" y1="0" x2="123.79328523363385" y2="5" style="visibility: inherit;" fill="rgb(0, 0, 0)" stroke="rgb(204, 204, 204)" stroke-width="1px"></line><line x1="144.4254994392395" y1="0" x2="144.4254994392395" y2="5" style="visibility: inherit;" fill="rgb(0, 0, 0)" stroke="rgb(204, 204, 204)" stroke-width="1px"></line><line x1="165.05771364484514" y1="0" x2="165.05771364484514" y2="5" style="visibility: inherit;" fill="rgb(0, 0, 0)" stroke="rgb(204, 204, 204)" stroke-width="1px"></line><line x1="185.6899278504508" y1="0" x2="185.6899278504508" y2="5" style="visibility: inherit;" fill="rgb(0, 0, 0)" stroke="rgb(204, 204, 204)" stroke-width="1px"></line><line x1="206.32214205605644" y1="0" x2="206.32214205605644" y2="5" style="visibility: inherit;" fill="rgb(0, 0, 0)" stroke="rgb(204, 204, 204)" stroke-width="1px"></line><line x1="226.95435626166207" y1="0" x2="226.95435626166207" y2="5" style="visibility: inherit;" fill="rgb(0, 0, 0)" stroke="rgb(204, 204, 204)" stroke-width="1px"></line><line x1="247.5865704672677" y1="0" x2="247.5865704672677" y2="5" style="visibility: inherit;" fill="rgb(0, 0, 0)" stroke="rgb(204, 204, 204)" stroke-width="1px"></line><line x1="268.21878467287337" y1="0" x2="268.21878467287337" y2="5" style="visibility: inherit;" fill="rgb(0, 0, 0)" stroke="rgb(204, 204, 204)" stroke-width="1px"></line><line x1="288.850998878479" y1="0" x2="288.850998878479" y2="5" style="visibility: inherit;" fill="rgb(0, 0, 0)" stroke="rgb(204, 204, 204)" stroke-width="1px"></line></g><g transform="translate(0, 8)"><text style="text-anchor: middle; visibility: hidden; font-family: Roboto, sans-serif; font-size: 12px; font-weight: 200;" x="0" y="0" dx="0em" dy="0.95em" fill="rgb(50, 49, 63)" stroke="none" stroke-width="1px">-500</text><text style="text-anchor: middle; visibility: hidden; font-family: Roboto, sans-serif; font-size: 12px; font-weight: 200;" x="20.632214205605642" y="0" dx="0em" dy="0.95em" fill="rgb(50, 49, 63)" stroke="none" stroke-width="1px">0</text><text style="text-anchor: middle; visibility: hidden; font-family: Roboto, sans-serif; font-size: 12px; font-weight: 200;" x="41.264428411211284" y="0" dx="0em" dy="0.95em" fill="rgb(50, 49, 63)" stroke="none" stroke-width="1px">500</text><text style="text-anchor: middle; visibility: hidden; font-family: Roboto, sans-serif; font-size: 12px; font-weight: 200;" x="61.896642616816926" y="0" dx="0em" dy="0.95em" fill="rgb(50, 49, 63)" stroke="none" stroke-width="1px">1k</text><text style="text-anchor: middle; visibility: hidden; font-family: Roboto, sans-serif; font-size: 12px; font-weight: 200;" x="82.52885682242257" y="0" dx="0em" dy="0.95em" fill="rgb(50, 49, 63)" stroke="none" stroke-width="1px">1.5k</text><text style="text-anchor: middle; visibility: hidden; font-family: Roboto, sans-serif; font-size: 12px; font-weight: 200;" x="103.16107102802822" y="0" dx="0em" dy="0.95em" fill="rgb(50, 49, 63)" stroke="none" stroke-width="1px">2k</text><text style="text-anchor: middle; visibility: hidden; font-family: Roboto, sans-serif; font-size: 12px; font-weight: 200;" x="123.79328523363385" y="0" dx="0em" dy="0.95em" fill="rgb(50, 49, 63)" stroke="none" stroke-width="1px">2.5k</text><text style="text-anchor: middle; visibility: hidden; font-family: Roboto, sans-serif; font-size: 12px; font-weight: 200;" x="144.4254994392395" y="0" dx="0em" dy="0.95em" fill="rgb(50, 49, 63)" stroke="none" stroke-width="1px">3k</text><text style="text-anchor: middle; visibility: hidden; font-family: Roboto, sans-serif; font-size: 12px; font-weight: 200;" x="165.05771364484514" y="0" dx="0em" dy="0.95em" fill="rgb(50, 49, 63)" stroke="none" stroke-width="1px">3.5k</text><text style="text-anchor: middle; visibility: hidden; font-family: Roboto, sans-serif; font-size: 12px; font-weight: 200;" x="185.6899278504508" y="0" dx="0em" dy="0.95em" fill="rgb(50, 49, 63)" stroke="none" stroke-width="1px">4k</text><text style="text-anchor: middle; visibility: hidden; font-family: Roboto, sans-serif; font-size: 12px; font-weight: 200;" x="206.32214205605644" y="0" dx="0em" dy="0.95em" fill="rgb(50, 49, 63)" stroke="none" stroke-width="1px">4.5k</text><text style="text-anchor: middle; visibility: hidden; font-family: Roboto, sans-serif; font-size: 12px; font-weight: 200;" x="226.95435626166207" y="0" dx="0em" dy="0.95em" fill="rgb(50, 49, 63)" stroke="none" stroke-width="1px">5k</text><text style="text-anchor: middle; visibility: hidden; font-family: Roboto, sans-serif; font-size: 12px; font-weight: 200;" x="247.5865704672677" y="0" dx="0em" dy="0.95em" fill="rgb(50, 49, 63)" stroke="none" stroke-width="1px">5.5k</text><text style="text-anchor: middle; visibility: hidden; font-family: Roboto, sans-serif; font-size: 12px; font-weight: 200;" x="268.21878467287337" y="0" dx="0em" dy="0.95em" fill="rgb(50, 49, 63)" stroke="none" stroke-width="1px">6k</text><text style="text-anchor: middle; visibility: hidden; font-family: Roboto, sans-serif; font-size: 12px; font-weight: 200;" x="288.850998878479" y="0" dx="0em" dy="0.95em" fill="rgb(50, 49, 63)" stroke="none" stroke-width="1px">6.5k</text></g><line x1="0" y1="0" x2="288.850998878479" y2="0" fill="rgb(0, 0, 0)" stroke="rgb(204, 204, 204)" stroke-width="1px"></line></g></g></g></g></svg>