<svg viewBox="0 0 330 200" xmlns="http://www.w3.org/2000/svg"><g><g><g><g><g><line x1="30.766000747680664" y1="177.89999961853027" x2="25.766000747680664" y2="177.89999961853027" style="visibility: inherit;" fill="rgb(0, 0, 0)" stroke="rgb(204, 204, 204)" stroke-width="1px"></line><line x1="30.766000747680664" y1="163.0749996503194" x2="25.766000747680664" y2="163.0749996503194" style="visibility: inherit;" fill="rgb(0, 0, 0)" stroke="rgb(204, 204, 204)" stroke-width="1px"></line><line x1="30.766000747680664" y1="148.24999968210858" x2="25.766000747680664" y2="148.24999968210858" style="visibility: inherit;" fill="rgb(0, 0, 0)" stroke="rgb(204, 204, 204)" stroke-width="1px"></line><line x1="30.766000747680664" y1="133.4249997138977" x2="25.766000747680664" y2="133.4249997138977" style="visibility: inherit;" fill="rgb(0, 0, 0)" stroke="rgb(204, 204, 204)" stroke-width="1px"></line><line x1="30.766000747680664" y1="118.59999974568686" x2="25.766000747680664" y2="118.59999974568686" style="visibility: inherit;" fill="rgb(0, 0, 0)" stroke="rgb(204, 204, 204)" stroke-width="1px"></line><line x1="30.766000747680664" y1="103.77499977747598" x2="25.766000747680664" y2="103.77499977747598" style="visibility: inherit;" fill="rgb(0, 0, 0)" stroke="rgb(204, 204, 204)" stroke-width="1px"></line><line x1="30.766000747680664" y1="88.94999980926514" x2="25.766000747680664" y2="88.94999980926514" style="visibility: inherit;" fill="rgb(0, 0, 0)" stroke="rgb(204, 204, 204)" stroke-width="1px"></line><line x1="30.766000747680664" y1="74.12499984105428" x2="25.766000747680664" y2="74.12499984105428" style="visibility: inherit;" fill="rgb(0, 0, 0)" stroke="rgb(204, 204, 204)" stroke-width="1px"></line><line x1="30.766000747680664" y1="59.29999987284343" x2="25.766000747680664" y2="59.29999987284343" style="visibility: inherit;" fill="rgb(0, 0, 0)" stroke="rgb(204, 204, 204)" stroke-width="1px"></line><line x1="30.766000747680664" y1="44.47499990463257" x2="25.766000747680664" y2="44.47499990463257" style="visibility: inherit;" fill="rgb(0, 0, 0)" stroke="rgb(204, 204, 204)" stroke-width="1px"></line><line x1="30.766000747680664" y1="29.649999936421704" x2="25.766000747680664" y2="29.649999936421704" style="visibility: inherit;" fill="rgb(0, 0, 0)" stroke="rgb(204, 204, 204)" stroke-width="1px"></line><line x1="30.766000747680664" y1="14.824999968210863" x2="25.766000747680664" y2="14.824999968210863" style="visibility: inherit;" fill="rgb(0, 0, 0)" stroke="rgb(204, 204, 204)" stroke-width="1px"></line><line x1="30.766000747680664" y1="0" x2="25.766000747680664" y2="0" style="visibility: inherit;" fill="rgb(0, 0, 0)" stroke="rgb(204, 204, 204)" stroke-width="1px"></line></g><g transform="translate(20.766000747680664, 0)"><text style="text-anchor: end; visibility: hidden; font-family: Roboto, sans-serif; font-size: 12px; font-weight: 200;" x="0" y="177.89999961853027" dx="0em" dy="0.3em" fill="rgb(50, 49, 63)" stroke="none" stroke-width="1px">-1</text><text style="text-anchor: end; visibility: inherit; font-family: Roboto, sans-serif; font-size: 12px; font-weight: 200;" x="0" y="163.0749996503194" dx="0em" dy="0.3em" fill="rgb(50, 49, 63)" stroke="none" stroke-width="1px">0</text><text style="text-anchor: end; visibility: hidden; font-family: Roboto, sans-serif; font-size: 12px; font-weight: 200;" x="0" y="148.24999968210858" dx="0em" dy="0.3em" fill="rgb(50, 49, 63)" stroke="none" stroke-width="1px">1</text><text style="text-anchor: end; visibility: inherit; font-family: Roboto, sans-serif; font-size: 12px; font-weight: 200;" x="0" y="133.4249997138977" dx="0em" dy="0.3em" fill="rgb(50, 49, 63)" stroke="none" stroke-width="1px">2</text><text style="text-anchor: end; visibility: hidden; font-family: Roboto, sans-serif; font-size: 12px; font-weight: 200;" x="0" y="118.59999974568686" dx="0em" dy="0.3em" fill="rgb(50, 49, 63)" stroke="none" stroke-width="1px">3</text><text style="text-anchor: end; visibility: inherit; font-family: Roboto, sans-serif; font-size: 12px; font-weight: 200;" x="0" y="103.77499977747598" dx="0em" dy="0.3em" fill="rgb(50, 49, 63)" stroke="none" stroke-width="1px">4</text><text style="text-anchor: end; visibility: hidden; font-family: Roboto, sans-serif; font-size: 12px; font-weight: 200;" x="0" y="88.94999980926514" dx="0em" dy="0.3em" fill="rgb(50, 49, 63)" stroke="none" stroke-width="1px">5</text><text style="text-anchor: end; visibility: inherit; font-family: Roboto, sans-serif; font-size: 12px; font-weight: 200;" x="0" y="74.12499984105428" dx="0em" dy="0.3em" fill="rgb(50, 49, 63)" stroke="none" stroke-width="1px">6</text><text style="text-anchor: end; visibility: hidden; font-family: Roboto, sans-serif; font-size: 12px; font-weight: 200;" x="0" y="59.29999987284343" dx="0em" dy="0.3em" fill="rgb(50, 49, 63)" stroke="none" stroke-width="1px">7</text><text style="text-anchor: end; visibility: inherit; font-family: Roboto, sans-serif; font-size: 12px; font-weight: 200;" x="0" y="44.47499990463257" dx="0em" dy="0.3em" fill="rgb(50, 49, 63)" stroke="none" stroke-width="1px">8</text><text style="text-anchor: end; visibility: hidden; font-family: Roboto, sans-serif; font-size: 12px; font-weight: 200;" x="0" y="29.649999936421704" dx="0em" dy="0.3em" fill="rgb(50, 49, 63)" stroke="none" stroke-width="1px">9</text><text style="text-anchor: end; visibility: inherit; font-family: Roboto, sans-serif; font-size: 12px; font-weight: 200;" x="0" y="14.824999968210863" dx="0em" dy="0.3em" fill="rgb(50, 49, 63)" stroke="none" stroke-width="1px">10</text><text style="text-anchor: end; visibility: hidden; font-family: Roboto, sans-serif; font-size: 12px; font-weight: 200;" x="0" y="0" dx="0em" dy="0.3em" fill="rgb(50, 49, 63)" stroke="none" stroke-width="1px">11</text></g><line x1="30.766000747680664" y1="0" x2="30.766000747680664" y2="177.89999961853027" fill="rgb(0, 0, 0)" stroke="rgb(204, 204, 204)" stroke-width="1px"></line></g></g><g transform="translate(30, 0)" clip-path="url(#clip_0)"><clipPath id="clip_0"><rect width="299" height="177"></rect></clipPath><g><g><g><line x1="0" y1="0" x2="0" y2="177.89999961853027" fill="rgb(0, 0, 0)" stroke="rgb(60, 60, 60)" stroke-width="1px" opacity="0.25"></line><line x1="24.936166604359943" y1="0" x2="24.936166604359943" y2="177.89999961853027" fill="rgb(0, 0, 0)" stroke="rgb(60, 60, 60)" stroke-width="1px" opacity="0.25"></line><line x1="49.87233320871989" y1="0" x2="49.87233320871989" y2="177.89999961853027" fill="rgb(0, 0, 0)" stroke="rgb(60, 60, 60)" stroke-width="1px" opacity="0.25"></line><line x1="74.80849981307983" y1="0" x2="74.80849981307983" y2="177.89999961853027" fill="rgb(0, 0, 0)" stroke="rgb(60, 60, 60)" stroke-width="1px" opacity="0.25"></line><line x1="99.74466641743977" y1="0" x2="99.74466641743977" y2="177.89999961853027" fill="rgb(0, 0, 0)" stroke="rgb(60, 60, 60)" stroke-width="1px" opacity="0.25"></line><line x1="124.68083302179973" y1="0" x2="124.68083302179973" y2="177.89999961853027" fill="rgb(0, 0, 0)" stroke="rgb(60, 60, 60)" stroke-width="1px" opacity="0.25"></line><line x1="149.61699962615967" y1="0" x2="149.61699962615967" y2="177.89999961853027" fill="rgb(0, 0, 0)" stroke="rgb(60, 60, 60)" stroke-width="1px" opacity="0.25"></line><line x1="174.55316623051962" y1="0" x2="174.55316623051962" y2="177.89999961853027" fill="rgb(0, 0, 0)" stroke="rgb(60, 60, 60)" stroke-width="1px" opacity="0.25"></line><line x1="199.48933283487955" y1="0" x2="199.48933283487955" y2="177.89999961853027" fill="rgb(0, 0, 0)" stroke="rgb(60, 60, 60)" stroke-width="1px" opacity="0.25"></line><line x1="224.4254994392395" y1="0" x2="224.4254994392395" y2="177.89999961853027" fill="rgb(0, 0, 0)" stroke="rgb(60, 60, 60)" stroke-width="1px" opacity="0.25"></line><line x1="249.36166604359946" y1="0" x2="249.36166604359946" y2="177.89999961853027" fill="rgb(0, 0, 0)" stroke="rgb(60, 60, 60)" stroke-width="1px" opacity="0.25"></line><line x1="274.29783264795935" y1="0" x2="274.29783264795935" y2="177.89999961853027" fill="rgb(0, 0, 0)" stroke="rgb(60, 60, 60)" stroke-width="1px" opacity="0.25"></line><line x1="299.23399925231934" y1="0" x2="299.23399925231934" y2="177.89999961853027" fill="rgb(0, 0, 0)" stroke="rgb(60, 60, 60)" stroke-width="1px" opacity="0.25"></line></g><g><line x1="0" y1="177.89999961853027" x2="299.23399925231934" y2="177.89999961853027" fill="rgb(0, 0, 0)" stroke="rgb(60, 60, 60)" stroke-width="1px" opacity="0.25"></line><line x1="0" y1="163.0749996503194" x2="299.23399925231934" y2="163.0749996503194" fill="rgb(0, 0, 0)" stroke="rgb(60, 60, 60)" stroke-width="1px" opacity="0.25"></line><line x1="0" y1="148.24999968210858" x2="299.23399925231934" y2="148.24999968210858" fill="rgb(0, 0, 0)" stroke="rgb(60, 60, 60)" stroke-width="1px" opacity="0.25"></line><line x1="0" y1="133.4249997138977" x2="299.23399925231934" y2="133.4249997138977" fill="rgb(0, 0, 0)" stroke="rgb(60, 60, 60)" stroke-width="1px" opacity="0.25"></line><line x1="0" y1="118.59999974568686" x2="299.23399925231934" y2="118.59999974568686" fill="rgb(0, 0, 0)" stroke="rgb(60, 60, 60)" stroke-width="1px" opacity="0.25"></line><line x1="0" y1="103.77499977747598" x2="299.23399925231934" y2="103.77499977747598" fill="rgb(0, 0, 0)" stroke="rgb(60, 60, 60)" stroke-width="1px" opacity="0.25"></line><line x1="0" y1="88.94999980926514" x2="299.23399925231934" y2="88.94999980926514" fill="rgb(0, 0, 0)" stroke="rgb(60, 60, 60)" stroke-width="1px" opacity="0.25"></line><line x1="0" y1="74.12499984105428" x2="299.23399925231934" y2="74.12499984105428" fill="rgb(0, 0, 0)" stroke="rgb(60, 60, 60)" stroke-width="1px" opacity="0.25"></line><line x1="0" y1="59.29999987284343" x2="299.23399925231934" y2="59.29999987284343" fill="rgb(0, 0, 0)" stroke="rgb(60, 60, 60)" stroke-width="1px" opacity="0.25"></line><line x1="0" y1="44.47499990463257" x2="299.23399925231934" y2="44.47499990463257" fill="rgb(0, 0, 0)" stroke="rgb(60, 60, 60)" stroke-width="1px" opacity="0.25"></line><line x1="0" y1="29.649999936421704" x2="299.23399925231934" y2="29.649999936421704" fill="rgb(0, 0, 0)" stroke="rgb(60, 60, 60)" stroke-width="1px" opacity="0.25"></line><line x1="0" y1="14.824999968210863" x2="299.23399925231934" y2="14.824999968210863" fill="rgb(0, 0, 0)" stroke="rgb(60, 60, 60)" stroke-width="1px" opacity="0.25"></line><line x1="0" y1="0" x2="299.23399925231934" y2="0" fill="rgb(0, 0, 0)" stroke="rgb(60, 60, 60)" stroke-width="1px" opacity="0.25"></line></g></g></g><g><g><line x1="0" y1="163.0749996503194" x2="299.23399925231934" y2="163.0749996503194" fill="rgb(0, 0, 0)" stroke="rgb(153, 153, 153)" stroke-width="1.5px"></line></g></g><g><g><line x1="24.936166604359943" y1="0" x2="24.936166604359943" y2="177.89999961853027" fill="rgb(0, 0, 0)" stroke="rgb(153, 153, 153)" stroke-width="1.5px"></line></g></g><g><g><g><g><g><path style="fill: none;" stroke="rgb(187, 187, 187)" stroke-width="2px" d="M24.936166604359943,19.281169516226942L25.933613268534344,20.99975872901252L26.931059932708738,32.24493780520378L27.92850659688314,47.561072123270264L28.925953261057536,56.592430491137556L29.923399925231934,63.479131068000854L30.92084658940633,66.72853261768331L31.91829325358073,70.69833189633526L32.915739917755126,74.7722708298091L33.91318658192952,74.73010087553075L34.91063324610392,72.10455798559374L35.90807991027832,70.08729330618128L36.90552657445272,78.62418100950622L37.90297323862712,86.74120009405121L38.90041990280152,95.1997359899616L39.897866566975914,100.79709217493371L40.895313231150304,105.25695261921513L41.89275989532471,109.10621200745564L42.890206559499106,112.76354611380246L43.8876532236735,115.61500503125998L44.8850998878479,119.44522200021424L45.8825465520223,122.314618740713L46.8799932161967,124.90605964191607L47.87743988037109,127.62972341180279L48.87488654454549,129.2608143070167L49.87233320871989,130.05422940712245L50.86977987289429,131.68116113022847L51.86722653706869,134.05694240596245L52.864673201243086,134.8991659625527L53.862119865417476,137.57584351983422L54.85956652959187,139.2596989760175L55.85701319376628,140.60088328051378L56.854459857940675,141.46732622221083L57.85190652211507,142.62245197066457L58.84935318628946,143.64526820079826L59.84679985046387,144.32376400205888L60.844246514638265,144.18134343569525L61.84169317881266,144.86305787191773L62.83913984298706,145.36560521356515L63.83658650716146,145.70525521199684L64.83403317133586,146.28146364369323L65.83147983551025,147.61109194014836L66.82892649968466,148.1536588170771L67.82637316385905,149.16048308810014L68.82381982803345,149.57878798599765L69.82126649220784,150.5737722211101L70.81871315638224,150.74595196784495L71.81615982055663,150.23561751860456L72.81360648473104,151.2228870543603L73.81105314890544,151.4111518901529L74.80849981307983,151.3481772348511L75.80594647725424,151.09317457058862L76.80339314142863,151.55931079607493L77.80083980560303,151.90592393330994L78.79828646977742,151.83313712965855L79.79573313395183,152.04296088854665L80.79317979812623,151.97414673558356L81.79062646230061,151.94233438690713L82.78807312647501,153.01513689201843L83.78551979064942,153.20858354361735L84.78296645482381,154.11786055813963L85.78041311899821,154.16722961697133L86.7778597831726,154.58916408357936L87.775306447347,154.19840617139906L88.77275311152141,154.76653444210334L89.7701997756958,154.7526668094013L90.7676464398702,154.96864346192697L91.7650931040446,154.7028215654009L92.762539768219,154.99464485291392L93.7599864323934,155.25473321942263L94.75743309656778,155.72010508155248L95.75487976074218,155.9559528415339L96.75232642491657,156.24002920451727L97.74977308909098,156.61475571361214L98.74721975326538,156.27404331059796L99.74466641743977,156.6596402666856L100.74211308161418,156.44069077702864L101.73955974578858,156.10744212234263L102.73700640996297,156.75104126822163L103.73445307413738,156.64924353820794L104.73189973831177,156.65146419298603L105.72934640248617,156.71232733564224L106.72679306666058,156.81766513614463L107.72423973083495,156.95306181796593L108.72168639500936,157.20745115852935L109.71913305918375,157.135444678844L110.71657972335815,157.32858643899357L111.71402638753256,157.81656651589088L112.71147305170695,157.83057887362122L113.70891971588135,157.50552183754226L114.70636638005575,158.01185669523244L115.70381304423015,158.30181487696993L116.70125970840455,158.6208977779927L117.69870637257893,158.5934975665567L118.69615303675333,158.3272656359767L119.69359970092773,158.35100330587L120.69104636510212,158.7324558195571L121.68849302927653,158.8001392293267L122.68593969345092,158.7283953014447L123.68338635762532,158.94500816682114L124.68083302179973,158.86292182371798L125.67827968597412,158.52321969287067L126.67572635014852,158.25985723763438L127.67317301432293,158.23156431088537L128.6706196784973,158.56385971415315L129.66806634267172,159.07286401157168L130.6655130068461,159.02426283771584L131.6629596710205,159.13098175461673L132.66040633519492,159.11486847425854L133.6578529993693,159.0910564523168L134.6552996635437,159.06439564423854L135.6527463277181,159.01104261980507L136.6501929918925,159.1759046588235L137.6476396560669,159.3793279941986L138.6450863202413,159.36041234930187L139.64253298441568,159.5786183758926L140.63997964859007,159.72530549050697L141.6374263127645,159.68619137621377L142.63487297693888,159.63080516521552L143.63231964111327,159.5560051227825L144.6297663052877,159.80643684984324L145.62721296946208,159.62855200164768L146.62465963363647,159.57124813910215L147.6221062978109,159.88804263645082L148.61955296198528,159.9680334853341L149.61699962615967,160.16618934053923L150.61444629033406,160.21523544349083L151.61189295450848,160.2884182505389L152.60933961868287,160.42766108012222L153.60678628285726,160.09134188700497L154.60423294703168,160.24958610737048L155.60167961120607,159.80618052603694L156.59912627538046,159.78155968388597L157.59657293955485,159.9782979797552L158.59401960372927,159.97031435113624L159.59146626790366,160.20803064039978L160.58891293207802,160.26033007835574L161.58635959625246,160.29046593107435L162.58380626042683,160.46975462774745L163.58125292460122,160.58366848473287L164.57869958877563,160.48000562667053L165.57614625295002,160.38022966725737L166.57359291712442,160.55451946393563L167.57103958129883,160.74050298982883L168.56848624547322,160.77347213334698L169.56593290964761,160.89614823923856L170.563379573822,160.46643144260534L171.56082623799642,160.51035546295998L172.5582729021708,160.6355181070597L173.5557195663452,160.57927947821568L174.55316623051962,160.59850700418892L175.550612894694,160.38485080800837L176.5480595588684,160.48063833319173L177.54550622304282,160.6070541191948L178.5429528872172,160.5902526428285L179.5403995513916,160.856887948333L180.53784621556602,160.7453906212718L181.5352928797404,160.42434160756332L182.5327395439148,160.77387509382535L183.5301862080892,160.74165566183822L184.5276328722636,160.90287094952942L185.525079536438,160.88149710563346L186.52252620061236,160.87490978743955L187.5199728647868,160.979564564786L188.51741952896117,160.947133591966L189.51486619313556,161.11763244389186L190.51231285730998,160.99809881494457L191.50975952148437,160.8896998489929L192.50720618565876,161.0592904441781L193.50465284983315,160.98843514043784L194.50209951400757,160.91398733826918L195.49954617818196,160.94516818407493L196.49699284235635,160.91559227859244L197.49443950653077,160.97717815296164L198.49188617070516,160.7843641347342L199.48933283487955,160.92268955397444L200.48677949905397,160.6289057034944L201.48422616322836,160.7381733046947L202.48167282740275,160.71547769530147L203.47911949157717,160.73836601339679L204.47656615575156,160.9174730766895L205.47401281992595,161.07147411088184L206.47145948410034,161.1362775853477L207.46890614827475,161.25715145919236L208.46635281244914,161.346807552747L209.46379947662354,161.0467481611799L210.46124614079795,160.9410414876016L211.45869280497234,161.0525806280375" fill="none"></path></g><g><path style="fill: none;" stroke="rgb(204, 51, 17)" stroke-width="2px" d="M24.936166604359943,20.191840653037616L25.933613268534344,19.908475344406792L26.931059932708738,20.861351814106854L27.92850659688314,31.437425863649974L28.925953261057536,45.96057876070479L29.923399925231934,56.21444146047096L30.92084658940633,63.151749625989076L31.91829325358073,67.40474515858016L32.915739917755126,71.49892032355686L33.91318658192952,72.68292970577063L34.91063324610392,71.20995346737801L35.90807991027832,79.35019996384544L36.90552657445272,88.17753676695577L37.90297323862712,94.72808424264389L38.90041990280152,100.93694133842999L39.897866566975914,104.5372759308493L40.895313231150304,107.95383955551196L41.89275989532471,112.85535108770877L42.890206559499106,115.05627163587366L43.8876532236735,119.11494946668307L44.8850998878479,123.04053956637529L45.8825465520223,125.03696896167165L46.8799932161967,126.59828371069986L47.87743988037109,129.7765892538657L48.87488654454549,130.22161646942362L49.87233320871989,129.38415505260446L50.86977987289429,132.51376300824154L51.86722653706869,135.61966573584627L52.864673201243086,136.23292598582427L53.862119865417476,138.41933622813553L54.85956652959187,139.5305232051985L55.85701319376628,140.98992586447423L56.854459857940675,142.33541444730935L57.85190652211507,142.6845980552603L58.84935318628946,143.54958163218953L59.84679985046387,144.05726755354533L60.844246514638265,144.82581071308383L61.84169317881266,144.85074065337838L62.83913984298706,145.39598372801385L63.83658650716146,146.35996809703707L64.83403317133586,147.22788475659965L65.83147983551025,148.99604651944568L66.82892649968466,148.6964719847995L67.82637316385905,148.82654306483857L68.82381982803345,149.29851827749448L69.82126649220784,149.89339852891467L70.81871315638224,150.62420170267796L71.81615982055663,150.9166523890572L72.81360648473104,151.15043342213707L73.81105314890544,151.37669883590385L74.80849981307983,151.80405007055273L75.80594647725424,152.0763175339001L76.80339314142863,152.09454492458391L77.80083980560303,152.4476104188869L78.79828646977742,152.63204489341612L79.79573313395183,152.65441415082975L80.79317979812623,152.01892066558023L81.79062646230061,153.03474491070932L82.78807312647501,153.77780535901817L83.78551979064942,153.6981963854139L84.78296645482381,153.9437482041441L85.78041311899821,154.2264934156468L86.7778597831726,154.22510269849568L87.775306447347,154.15285964490116L88.77275311152141,153.96587054053336L89.7701997756958,154.31845662496502L90.7676464398702,154.7598491045036L91.7650931040446,154.7798105922025L92.762539768219,155.0611061167278L93.7599864323934,154.98865921335332L94.75743309656778,155.89615560983063L95.75487976074218,156.08795164890182L96.75232642491657,155.76316091849037L97.74977308909098,155.62626449983352L98.74721975326538,156.12027826993778L99.74466641743977,156.6576559086437L100.74211308161418,157.11613000446445L101.73955974578858,157.05716486558867L102.73700640996297,157.15133748889554L103.73445307413738,156.862542036952L104.73189973831177,157.01858583390305L105.72934640248617,156.96840448303521L106.72679306666058,157.23971407644734L107.72423973083495,157.53802935599387L108.72168639500936,157.40198218463752L109.71913305918375,157.74663540461415L110.71657972335815,158.06029921487573L111.71402638753256,158.26090944587222L112.71147305170695,158.0361046861767L113.70891971588135,157.99378653517516L114.70636638005575,158.1422607795135L115.70381304423015,158.44087854351454L116.70125970840455,157.88272326694036L117.69870637257893,157.88589530578537L118.69615303675333,158.054093176489L119.69359970092773,158.3291461902463L120.69104636510212,158.33655414575122L121.68849302927653,158.31649172554137L122.68593969345092,158.39513081872175L123.68338635762532,158.68822937795542L124.68083302179973,158.8716402678945L125.67827968597412,159.06772495007658L126.67572635014852,158.71161914845848L127.67317301432293,158.40693980486023L128.6706196784973,158.58849043113344L129.66806634267172,158.66695258565588L130.6655130068461,158.78300407662243L131.6629596710205,159.01541803778167L132.66040633519492,159.13719893917235L133.6578529993693,159.04162111615636L134.6552996635437,159.41323010140988L135.6527463277181,159.59127703672974L136.6501929918925,159.54547107706935L137.6476396560669,159.57464112294443L138.6450863202413,159.9163437965026L139.64253298441568,160.01340673493178L140.63997964859007,160.00782315136635L141.6374263127645,159.806784785978L142.63487297693888,159.9044977944355L143.63231964111327,160.16343486433644L144.6297663052877,160.15654104191188L145.62721296946208,160.2452350751133L146.62465963363647,160.14202020128596L147.6221062978109,159.95026299139505L148.61955296198528,159.99810421926628L149.61699962615967,159.80197491323656L150.61444629033406,159.9059637921609L151.61189295450848,160.22554453864672L152.60933961868287,160.34457684281782L153.60678628285726,160.0778661614389L154.60423294703168,160.51469618105756L155.60167961120607,160.10256122096717L156.59912627538046,160.16405617942385L157.59657293955485,160.23054480599328L158.59401960372927,159.9603103450646L159.59146626790366,160.14387384285095L160.58891293207802,160.12749624127494L161.58635959625246,160.19902436587867L162.58380626042683,160.37617411248158L163.58125292460122,160.47940975109833L164.57869958877563,160.55107893771623L165.57614625295002,160.37193028323455L166.57359291712442,160.72359075353086L167.57103958129883,160.63704042797315L168.56848624547322,160.77215024620642L169.56593290964761,160.84012043255933L170.563379573822,160.7641061646381L171.56082623799642,160.7162063283294L172.5582729021708,160.94240754733733L173.5557195663452,160.9013616272523L174.55316623051962,160.6822828941767L175.550612894694,160.6964963624166L176.5480595588684,160.8665997523503L177.54550622304282,160.67755226673782L178.5429528872172,160.84579346939864L179.5403995513916,160.99227855185487L180.53784621556602,161.0154859999091L181.5352928797404,161.18882254144577L182.5327395439148,161.16706100787886L183.5301862080892,161.0737111826398L184.5276328722636,161.15903136990792L185.525079536438,161.09317464691438L186.52252620061236,161.21609693981011L187.5199728647868,161.24394200746784L188.51741952896117,161.3447498180874L189.51486619313556,161.23292439718023L190.51231285730998,161.4316153860295L191.50975952148437,161.42601037969516L192.50720618565876,161.4229767964604L193.50465284983315,161.4376806931436L194.50209951400757,161.42914102980146L195.49954617818196,161.55767109927586L196.49699284235635,161.5886787004922L197.49443950653077,161.66965084519762L198.49188617070516,161.63788348112269L199.48933283487955,161.4223031505433L200.48677949905397,161.4297262091986L201.48422616322836,161.19950071840543L202.48167282740275,161.04730531589408L203.47911949157717,161.23291165575125L204.47656615575156,161.33284316104474L205.47401281992595,161.09973170584271L206.47145948410034,161.02196317193736L207.46890614827475,161.3106939837499L208.46635281244914,161.0989097251895L209.46379947662354,161.25976264136347L210.46124614079795,161.30042236238558L211.45869280497234,161.27313208170744L212.4561394691467,161.33543212455942L213.45358613332115,161.11967095764706L214.45103279749551,160.83548122927053L215.4484794616699,160.98364308632495L216.44592612584432,161.05828471997089L217.4433727900187,161.1356751787031L218.4408194541931,160.99572854659792L219.4382661183675,161.30602988670915L220.4357127825419,161.29095487200595L221.4331594467163,161.38150519638276L222.4306061108907,161.33570704685164L223.4280527750651,161.5253900938743L224.4254994392395,161.66485054428153L225.4229461034139,161.76919667375677L226.4203927675883,161.74301866074356L227.4178394317627,161.79557056880626L228.4152860959371,161.50527187066382L229.4127327601115,161.43110325105792L230.4101794242859,161.48713623459662L231.4076260884603,161.66684419310212L232.40507275263468,161.70789357270195L233.4025194168091,161.52563798362627L234.3999660809835,161.78957673863886L235.39741274515785,161.945608886069L236.3948594093323,161.9649700368195L237.39230607350666,161.8659763497184L238.38975273768105,161.79813148961915L239.38719940185547,161.82345435459567L240.38464606602986,161.91439766113382L241.38209273020425,161.646656592912L242.37953939437867,161.63540241131528L243.37698605855306,161.73444798269392L244.37443272272745,161.8361056635868L245.37187938690184,161.77947062094748L246.36932605107626,161.7714325252914L247.36677271525065,161.84758893947873L248.36421937942504,161.85819865827094L249.36166604359946,161.93167067525582L250.35911270777385,161.86441384310933L251.35655937194824,161.74885849836184L252.35400603612266,161.88383995873224L253.35145270029705,162.04479015457233L254.34889936447144,162.10605428273016L255.34634602864585,161.9954210251099L256.3437926928202,161.9648178405759L257.3412393569946,161.99917152659717L258.338686021169,161.7712003106283L259.33613268534344,161.965676734269L260.33357934951783,162.0867162550104L261.3310260136922,162.10142258758177L262.3284726778666,162.2476690626928L263.325919342041,162.34099591213734L264.3233660062154,162.3325130711438L265.32081267038984,162.30247269678355L266.31825933456423,162.21485661035337L267.3157059987386,162.19393470506486L268.313152662913,162.3085187253476L269.3105993270874,162.29804053123956L270.3080459912618,162.28960246225054L271.3054926554362,162.2107261081313L272.30293931961063,162.1674750195206L273.300385983785,162.19041208374966L274.29783264795935,162.08138271800172" fill="none"></path></g></g></g></g><g opacity="0.2"><g><g><g><path style="fill: none;" stroke="rgb(187, 187, 187)" stroke-width="2px" d="M24.936166604359943,19.281169516226942L25.933613268534344,22.030912256683838L26.931059932708738,43.04030971834739L27.92850659688314,65.57284608131643L28.925953261057536,68.3837719762251L29.923399925231934,73.0059171780105L30.92084658940633,71.37522882415396L31.91829325358073,76.4863373546829L32.915739917755126,80.78053943478456L33.91318658192952,74.66748340808256L34.91063324610392,68.19005713145998L35.90807991027832,67.07237415236553L36.90552657445272,91.40163814495813L37.90297323862712,98.90082663548091L38.90041990280152,107.8775971424028L39.897866566975914,109.18917876314461L40.895313231150304,111.94485602216446L41.89275989532471,114.87912376327472L42.890206559499106,118.2489901152826L43.8876532236735,119.89193277280663L44.8850998878479,125.19033739544417L45.8825465520223,126.61861943273911L46.8799932161967,128.79316983024069L47.87743988037109,131.7151868022389L48.87488654454549,131.70743905674158L49.87233320871989,131.24434867372807L50.86977987289429,134.12155455201514L51.86722653706869,137.62061067217957L52.864673201243086,136.1625005216311L53.862119865417476,141.59085837639753L54.85956652959187,141.78548160190758L55.85701319376628,142.61265947040744L56.854459857940675,142.76699053132052L57.85190652211507,144.3551405106059L58.84935318628946,145.1794925020414L59.84679985046387,145.34150768645407L60.844246514638265,143.96771258835332L61.84169317881266,145.88562951992304L62.83913984298706,146.1194262232372L63.83658650716146,146.2147302085093L64.83403317133586,147.14577629008244L65.83147983551025,149.60553438323146L66.82892649968466,148.96750913207853L67.82637316385905,150.67071949419858L68.82381982803345,150.2062453327352L69.82126649220784,152.06624857362368L70.81871315638224,151.00422158793108L71.81615982055663,149.47011584477264L72.81360648473104,152.70379135796074L73.81105314890544,151.6935491438379L74.80849981307983,151.2537152518992L75.80594647725424,150.7106705741968L76.80339314142863,152.2585151343023L77.80083980560303,152.42584363916154L78.79828646977742,151.7239569241816L79.79573313395183,152.35769652687853L80.79317979812623,151.87092550613897L81.79062646230061,151.89461586389245L82.78807312647501,154.62434064968517L83.78551979064942,153.49875352101574L84.78296645482381,155.481776079923L85.78041311899821,154.24128320521885L86.7778597831726,155.22206578349142L87.775306447347,153.61226930312856L88.77275311152141,155.6187268481597L89.7701997756958,154.7318653603482L90.7676464398702,155.29260844071547L91.7650931040446,154.3040887206119L92.762539768219,155.43237978418344L93.7599864323934,155.64486576918569L94.75743309656778,156.41816287474722L95.75487976074218,156.30972448150612L96.75232642491657,156.66614374899228L97.74977308909098,157.17684547725443L98.74721975326538,155.7629747060767L99.74466641743977,157.2380357008171L100.74211308161418,156.11226654254313L101.73955974578858,155.60756914031361L102.73700640996297,157.7164399870401L103.73445307413738,156.4965469431874L104.73189973831177,156.6547951751531L105.72934640248617,156.8036220496266L106.72679306666058,156.97567183689824L107.72423973083495,157.15615684069786L108.72168639500936,157.58903516937448L109.71913305918375,157.02743495931603L110.71657972335815,157.6182990792179L111.71402638753256,158.5485366312369L112.71147305170695,157.85159741021673L113.70891971588135,157.01793628342375L114.70636638005575,158.77135898176778L115.70381304423015,158.73675214957612L116.70125970840455,159.09952212952686L117.69870637257893,158.55239724940273L118.69615303675333,157.92791774010664L119.69359970092773,158.3866098107099L120.69104636510212,159.30463459008774L121.68849302927653,158.90166434398114L122.68593969345092,158.62077940962166L123.68338635762532,159.26992746488582L124.68083302179973,158.7397923090633L125.67827968597412,158.01366649659968L126.67572635014852,157.86481355477997L127.67317301432293,158.18912492076183L128.6706196784973,159.0623028190548L129.66806634267172,159.83637045769953L130.6655130068461,158.95136107693207L131.6629596710205,159.291060129968L132.66040633519492,159.09069855372127L133.6578529993693,159.05533841940414L134.6552996635437,159.02440443212117L135.6527463277181,158.93101308315482L136.6501929918925,159.42319771735117L137.6476396560669,159.68446299726122L138.6450863202413,159.33203888195678L139.64253298441568,159.90592741577873L140.63997964859007,159.94533616242848L141.6374263127645,159.627520204774L142.63487297693888,159.54772584871816L143.63231964111327,159.44380505913298L144.6297663052877,160.18208444043438L145.62721296946208,159.36172472935436L146.62465963363647,159.48529234528388L147.6221062978109,160.36323438247382L148.61955296198528,160.08801975865904L149.61699962615967,160.4634231233469L150.61444629033406,160.28880459791824L151.61189295450848,160.39819246111108L152.60933961868287,160.63652532449711L153.60678628285726,159.58686309732914L154.60423294703168,160.48695243791872L155.60167961120607,159.1410721540366L156.59912627538046,159.74462842065958L157.59657293955485,160.27340542355904L158.59401960372927,159.95833890820776L159.59146626790366,160.56460507429512L160.58891293207802,160.33877923528965L161.58635959625246,160.33566971015222L162.58380626042683,160.7386876727571L163.58125292460122,160.754539270211L164.57869958877563,160.32451133957701L165.57614625295002,160.23056572813766L166.57359291712442,160.81595415895302L167.57103958129883,161.0194782786686L168.56848624547322,160.82292584862427L169.56593290964761,161.08016239807594L170.563379573822,159.82185624765552L171.56082623799642,160.57624149349195L172.5582729021708,160.8232620732093L173.5557195663452,160.49492153494967L174.55316623051962,160.62734829314877L175.550612894694,160.06436651373753L176.5480595588684,160.62431962096673L177.54550622304282,160.79667779819945L178.5429528872172,160.565050428279L179.5403995513916,161.25684090658976L180.53784621556602,160.57814463068L181.5352928797404,159.94276808700062L182.5327395439148,161.2981753232184L183.5301862080892,160.69332651385753L184.5276328722636,161.14469388106625L185.525079536438,160.84943633978955L186.52252620061236,160.8650288101487L187.5199728647868,161.1365467308056L188.51741952896117,160.89848713273608L189.51486619313556,161.37338072178065L190.51231285730998,160.81879837152368L191.50975952148437,160.72710140006538L192.50720618565876,161.31367633695587L193.50465284983315,160.88215218482742L194.50209951400757,160.80231563501619L195.49954617818196,160.99193945278358L196.49699284235635,160.8712284203687L197.49443950653077,161.0695569645154L198.49188617070516,160.49514310739306L199.48933283487955,161.1301776828348L200.48677949905397,160.18822992777442L201.48422616322836,160.9020747064951L202.48167282740275,160.68143428121164L203.47911949157717,160.77269849053974L204.47656615575156,161.18613367162857L205.47401281992595,161.30247566217037L206.47145948410034,161.23348279704643L207.46890614827475,161.43846226995933L208.46635281244914,161.48129169307902L209.46379947662354,160.5966590738292L210.46124614079795,160.7824814772342L211.45869280497234,161.21988933869133" fill="none"></path></g><g><path style="fill: none;" stroke="rgb(204, 51, 17)" stroke-width="2px" d="M24.936166604359943,20.191840653037616L25.933613268534344,19.738456159228303L26.931059932708738,21.77611322501889L27.92850659688314,43.87488894591267L28.925953261057536,64.9220071830996L29.923399925231934,70.3992249648195L30.92084658940633,73.0722112996106L31.91829325358073,73.60565347385507L32.915739917755126,77.53703343931345L33.91318658192952,74.4410456491687L34.91063324610392,69.01384889586022L35.90807991027832,91.51627084658608L36.90552657445272,101.38971918538081L37.90297323862712,104.54107225174349L38.90041990280152,110.2429287036646L39.897866566975914,109.93523858458104L40.895313231150304,113.07723921728231L41.89275989532471,120.20637389275691L42.890206559499106,118.35731717002773L43.8876532236735,125.2025952336671L44.8850998878479,128.9287094272229L45.8825465520223,128.03154736125654L46.8799932161967,128.94022500880604L47.87743988037109,134.54400991855522L48.87488654454549,130.88915412969754L49.87233320871989,128.12796649876609L50.86977987289429,137.20816693388815L51.86722653706869,140.2785150589611L52.864673201243086,137.1528157958919L53.862119865417476,141.69895038320675L54.85956652959187,141.19730330231124L55.85701319376628,143.1790295630155L56.854459857940675,144.35364716093773L57.85190652211507,143.2083734421754L58.84935318628946,144.8470569604092L59.84679985046387,144.81879642248782L60.844246514638265,145.978625440501L61.84169317881266,144.88813556358878L62.83913984298706,146.21384833693014L63.83658650716146,147.80594464735043L64.83403317133586,148.5297597442032L65.83147983551025,151.6482891615875L66.82892649968466,148.24711018304652L67.82637316385905,149.02164968484084L68.82381982803345,150.00648109635574L69.82126649220784,150.78571890595217L70.81871315638224,151.72040646325456L71.81615982055663,151.35532841860962L72.81360648473104,151.50110497174904L73.81105314890544,151.71609695654948L74.80849981307983,152.44507692252085L75.80594647725424,152.48471872891912L76.80339314142863,152.12188601060956L77.80083980560303,152.97720866034055L78.79828646977742,152.90869660520966L79.79573313395183,152.68796803695022L80.79317979812623,151.06568043770622L81.79062646230061,154.55848127840267L82.78807312647501,154.89239603148133L83.78551979064942,153.57878292500746L84.78296645482381,154.31207593223942L85.78041311899821,154.65061123290081L86.7778597831726,154.22301662276897L87.775306447347,154.04449506450942L88.77275311152141,153.68538688398164L89.7701997756958,154.84733575161255L90.7676464398702,155.42193782381145L91.7650931040446,154.80975282375084L92.762539768219,155.48304940351582L93.7599864323934,154.87998885829157L94.75743309656778,157.25740020454663L95.75487976074218,156.37564570750857L96.75232642491657,155.2759748228732L97.74977308909098,155.4209198718483L98.74721975326538,156.86129892509416L99.74466641743977,157.46372236670257L100.74211308161418,157.80384114819554L101.73955974578858,156.968717157275L102.73700640996297,157.29259642385583L103.73445307413738,156.4293488590367L104.73189973831177,157.25265152932965L105.72934640248617,156.89313245673344L106.72679306666058,157.64667846656553L107.72423973083495,157.98550227531368L108.72168639500936,157.19791142760297L109.71913305918375,158.26361523457908L110.71657972335815,158.5307949302681L111.71402638753256,158.56182479236696L112.71147305170695,157.6988975466335L113.70891971588135,157.93030930867286L114.70636638005575,158.36497214602102L115.70381304423015,158.88880518951612L116.70125970840455,157.04549035207907L117.69870637257893,157.89065336405287L118.69615303675333,158.3063899825445L119.69359970092773,158.7417257108822L120.69104636510212,158.3476660790086L121.68849302927653,158.28639809522656L122.68593969345092,158.51308945849237L123.68338635762532,159.12787721680593L124.68083302179973,159.14675660280307L125.67827968597412,159.36185197334976L126.67572635014852,158.1774604460313L127.67317301432293,157.9499207894629L128.6706196784973,158.8608163705432L129.66806634267172,158.78464581743955L130.6655130068461,158.95708131307225L131.6629596710205,159.3640389795206L132.66040633519492,159.31987029125838L133.6578529993693,158.8982543816324L134.6552996635437,159.9706435792901L135.6527463277181,159.85834743970952L136.6501929918925,159.47676213757876L137.6476396560669,159.61839619175706L138.6450863202413,160.42889780683979L139.64253298441568,160.1590011425756L140.63997964859007,159.99944777601823L141.6374263127645,159.50522723789555L142.63487297693888,160.05106730712174L143.63231964111327,160.5518404691878L144.6297663052877,160.14620030827507L145.62721296946208,160.3782761249154L146.62465963363647,159.98719789054502L147.6221062978109,159.66262717655863L148.61955296198528,160.06986606107318L149.61699962615967,159.507780954192L150.61444629033406,160.06194711054735L151.61189295450848,160.70491565837548L152.60933961868287,160.5231252990745L153.60678628285726,159.67780013937048L154.60423294703168,161.1699412104856L155.60167961120607,159.48435878083157L156.59912627538046,160.25629861710885L157.59657293955485,160.3302777458474L158.59401960372927,159.5549586536716L159.59146626790366,160.41921908953046L160.58891293207802,160.10292983891094L161.58635959625246,160.3063165527843L162.58380626042683,160.64189873238593L163.58125292460122,160.63426320902346L164.57869958877563,160.65858271764307L165.57614625295002,160.10320730151204L166.57359291712442,161.25108145897534L167.57103958129883,160.5072149396366L168.56848624547322,160.97481497355628L169.56593290964761,160.9420757120887L170.563379573822,160.65008476275625L171.56082623799642,160.6443565738664L172.5582729021708,161.28170937584923L173.5557195663452,160.83979274712476L174.55316623051962,160.3536647945633L175.550612894694,160.7178165647765L176.5480595588684,161.12175483725082L177.54550622304282,160.3939810383191L178.5429528872172,161.09815527338986L179.5403995513916,161.21200617553922L180.53784621556602,161.05029717199042L181.5352928797404,161.44882735375077L182.5327395439148,161.13441870752848L183.5301862080892,160.9336864447813L184.5276328722636,161.28701165081003L185.525079536438,160.99438956242406L186.52252620061236,161.40048037915378L187.5199728647868,161.28570960895442L188.51741952896117,161.49596153401671L189.51486619313556,161.06518626581948L190.51231285730998,161.72965186930344L191.50975952148437,161.41760287019363L192.50720618565876,161.41842642160827L193.50465284983315,161.45973653816836L194.50209951400757,161.41633153478827L195.49954617818196,161.75046620348743L196.49699284235635,161.63519010231678L197.49443950653077,161.7911090622557L198.49188617070516,161.59023243501028L199.48933283487955,161.09893265467423L200.48677949905397,161.44086079718156L201.48422616322836,160.85416248221566L202.48167282740275,160.81901221212703L203.47911949157717,161.51132116553708L204.47656615575156,161.48274041898492L205.47401281992595,160.75006452303967L206.47145948410034,160.90531037107937L207.46890614827475,161.7437902014687L208.46635281244914,160.78123333734882L209.46379947662354,161.50104201562445L210.46124614079795,161.36141194391877L211.45869280497234,161.23219666069022L212.4561394691467,161.4288821888374L213.45358613332115,160.79602920727848L214.45103279749551,160.4091966367058L215.4484794616699,161.2058858719066L216.44592612584432,161.17024717043978L217.4433727900187,161.25176086680142L218.4408194541931,160.78580859844013L219.4382661183675,161.77148189687597L220.4357127825419,161.26834234995115L221.4331594467163,161.51733068294797L222.4306061108907,161.26700982255497L223.4280527750651,161.80991466440827L224.4254994392395,161.87404121989238L225.4229461034139,161.92571586796964L226.4203927675883,161.70375164122368L227.4178394317627,161.8743984309003L228.4152860959371,161.0698238234502L229.4127327601115,161.31985032164903L230.4101794242859,161.57118570990463L231.4076260884603,161.9364061308604L232.40507275263468,161.76946764210166L233.4025194168091,161.25225460001272L234.3999660809835,162.1854848711578L235.39741274515785,162.17965710721424L236.3948594093323,161.99401176294518L237.39230607350666,161.71748581906678L238.38975273768105,161.69636419947028L239.38719940185547,161.86143865206043L240.38464606602986,162.05081262094103L241.38209273020425,161.2450449905793L242.37953939437867,161.61852113892022L243.37698605855306,161.88301633976192L244.37443272272745,161.98859218492612L245.37187938690184,161.69451805698853L246.36932605107626,161.7593753818073L247.36677271525065,161.96182356075974L248.36421937942504,161.8741132364592L249.36166604359946,162.0418787007332L250.35911270777385,161.76352859488958L251.35655937194824,161.5755254812406L252.35400603612266,162.08631214928786L253.35145270029705,162.28621544833243L254.34889936447144,162.19795047496694L255.34634602864585,161.82947113867948L256.3437926928202,161.91891306377494L257.3412393569946,162.05070205562905L258.338686021169,161.42924348667503L259.33613268534344,162.25739136973004L260.33357934951783,162.2682755361225L261.3310260136922,162.1234820864388L262.3284726778666,162.46703877535938L263.325919342041,162.48098618630414L264.3233660062154,162.3197888096535L265.32081267038984,162.2574121352432L266.31825933456423,162.08343248070807L267.3157059987386,162.16255184713208L268.313152662913,162.48039475577173L269.3105993270874,162.2823232400775L270.3080459912618,162.27694535876697L271.3054926554362,162.09241157695246L272.30293931961063,162.1025983866045L273.300385983785,162.22481768009328L274.29783264795935,161.9178386693798" fill="none"></path></g></g></g></g></g></g><g transform="translate(30, 177)" clip-path="url(#clip_1)"><clipPath id="clip_1"><rect width="299" height="22"></rect></clipPath><g><g><line x1="0" y1="0" x2="0" y2="5" style="visibility: inherit;" fill="rgb(0, 0, 0)" stroke="rgb(204, 204, 204)" stroke-width="1px"></line><line x1="24.936166604359943" y1="0" x2="24.936166604359943" y2="5" style="visibility: inherit;" fill="rgb(0, 0, 0)" stroke="rgb(204, 204, 204)" stroke-width="1px"></line><line x1="49.87233320871989" y1="0" x2="49.87233320871989" y2="5" style="visibility: inherit;" fill="rgb(0, 0, 0)" stroke="rgb(204, 204, 204)" stroke-width="1px"></line><line x1="74.80849981307983" y1="0" x2="74.80849981307983" y2="5" style="visibility: inherit;" fill="rgb(0, 0, 0)" stroke="rgb(204, 204, 204)" stroke-width="1px"></line><line x1="99.74466641743977" y1="0" x2="99.74466641743977" y2="5" style="visibility: inherit;" fill="rgb(0, 0, 0)" stroke="rgb(204, 204, 204)" stroke-width="1px"></line><line x1="124.68083302179973" y1="0" x2="124.68083302179973" y2="5" style="visibility: inherit;" fill="rgb(0, 0, 0)" stroke="rgb(204, 204, 204)" stroke-width="1px"></line><line x1="149.61699962615967" y1="0" x2="149.61699962615967" y2="5" style="visibility: inherit;" fill="rgb(0, 0, 0)" stroke="rgb(204, 204, 204)" stroke-width="1px"></line><line x1="174.55316623051962" y1="0" x2="174.55316623051962" y2="5" style="visibility: inherit;" fill="rgb(0, 0, 0)" stroke="rgb(204, 204, 204)" stroke-width="1px"></line><line x1="199.48933283487955" y1="0" x2="199.48933283487955" y2="5" style="visibility: inherit;" fill="rgb(0, 0, 0)" stroke="rgb(204, 204, 204)" stroke-width="1px"></line><line x1="224.4254994392395" y1="0" x2="224.4254994392395" y2="5" style="visibility: inherit;" fill="rgb(0, 0, 0)" stroke="rgb(204, 204, 204)" stroke-width="1px"></line><line x1="249.36166604359946" y1="0" x2="249.36166604359946" y2="5" style="visibility: inherit;" fill="rgb(0, 0, 0)" stroke="rgb(204, 204, 204)" stroke-width="1px"></line><line x1="274.29783264795935" y1="0" x2="274.29783264795935" y2="5" style="visibility: inherit;" fill="rgb(0, 0, 0)" stroke="rgb(204, 204, 204)" stroke-width="1px"></line><line x1="299.23399925231934" y1="0" x2="299.23399925231934" y2="5" style="visibility: inherit;" fill="rgb(0, 0, 0)" stroke="rgb(204, 204, 204)" stroke-width="1px"></line></g><g transform="translate(0, 8)"><text style="text-anchor: middle; visibility: hidden; font-family: Roboto, sans-serif; font-size: 12px; font-weight: 200;" x="0" y="0" dx="0em" dy="0.95em" fill="rgb(50, 49, 63)" stroke="none" stroke-width="1px">-500</text><text style="text-anchor: middle; visibility: hidden; font-family: Roboto, sans-serif; font-size: 12px; font-weight: 200;" x="24.936166604359943" y="0" dx="0em" dy="0.95em" fill="rgb(50, 49, 63)" stroke="none" stroke-width="1px">0</text><text style="text-anchor: middle; visibility: hidden; font-family: Roboto, sans-serif; font-size: 12px; font-weight: 200;" x="49.87233320871989" y="0" dx="0em" dy="0.95em" fill="rgb(50, 49, 63)" stroke="none" stroke-width="1px">500</text><text style="text-anchor: middle; visibility: hidden; font-family: Roboto, sans-serif; font-size: 12px; font-weight: 200;" x="74.80849981307983" y="0" dx="0em" dy="0.95em" fill="rgb(50, 49, 63)" stroke="none" stroke-width="1px">1k</text><text style="text-anchor: middle; visibility: hidden; font-family: Roboto, sans-serif; font-size: 12px; font-weight: 200;" x="99.74466641743977" y="0" dx="0em" dy="0.95em" fill="rgb(50, 49, 63)" stroke="none" stroke-width="1px">1.5k</text><text style="text-anchor: middle; visibility: hidden; font-family: Roboto, sans-serif; font-size: 12px; font-weight: 200;" x="124.68083302179973" y="0" dx="0em" dy="0.95em" fill="rgb(50, 49, 63)" stroke="none" stroke-width="1px">2k</text><text style="text-anchor: middle; visibility: hidden; font-family: Roboto, sans-serif; font-size: 12px; font-weight: 200;" x="149.61699962615967" y="0" dx="0em" dy="0.95em" fill="rgb(50, 49, 63)" stroke="none" stroke-width="1px">2.5k</text><text style="text-anchor: middle; visibility: hidden; font-family: Roboto, sans-serif; font-size: 12px; font-weight: 200;" x="174.55316623051962" y="0" dx="0em" dy="0.95em" fill="rgb(50, 49, 63)" stroke="none" stroke-width="1px">3k</text><text style="text-anchor: middle; visibility: hidden; font-family: Roboto, sans-serif; font-size: 12px; font-weight: 200;" x="199.48933283487955" y="0" dx="0em" dy="0.95em" fill="rgb(50, 49, 63)" stroke="none" stroke-width="1px">3.5k</text><text style="text-anchor: middle; visibility: hidden; font-family: Roboto, sans-serif; font-size: 12px; font-weight: 200;" x="224.4254994392395" y="0" dx="0em" dy="0.95em" fill="rgb(50, 49, 63)" stroke="none" stroke-width="1px">4k</text><text style="text-anchor: middle; visibility: hidden; font-family: Roboto, sans-serif; font-size: 12px; font-weight: 200;" x="249.36166604359946" y="0" dx="0em" dy="0.95em" fill="rgb(50, 49, 63)" stroke="none" stroke-width="1px">4.5k</text><text style="text-anchor: middle; visibility: hidden; font-family: Roboto, sans-serif; font-size: 12px; font-weight: 200;" x="274.29783264795935" y="0" dx="0em" dy="0.95em" fill="rgb(50, 49, 63)" stroke="none" stroke-width="1px">5k</text><text style="text-anchor: middle; visibility: hidden; font-family: Roboto, sans-serif; font-size: 12px; font-weight: 200;" x="299.23399925231934" y="0" dx="0em" dy="0.95em" fill="rgb(50, 49, 63)" stroke="none" stroke-width="1px">5.5k</text></g><line x1="0" y1="0" x2="299.23399925231934" y2="0" fill="rgb(0, 0, 0)" stroke="rgb(204, 204, 204)" stroke-width="1px"></line></g></g></g></g></svg>