<svg viewBox="0 0 330 200" xmlns="http://www.w3.org/2000/svg"><g><g><g><g><g><line x1="30.766000747680664" y1="177.89999961853027" x2="25.766000747680664" y2="177.89999961853027" style="visibility: inherit;" fill="rgb(0, 0, 0)" stroke="rgb(204, 204, 204)" stroke-width="1px"></line><line x1="30.766000747680664" y1="158.13333299424912" x2="25.766000747680664" y2="158.13333299424912" style="visibility: inherit;" fill="rgb(0, 0, 0)" stroke="rgb(204, 204, 204)" stroke-width="1px"></line><line x1="30.766000747680664" y1="138.366666369968" x2="25.766000747680664" y2="138.366666369968" style="visibility: inherit;" fill="rgb(0, 0, 0)" stroke="rgb(204, 204, 204)" stroke-width="1px"></line><line x1="30.766000747680664" y1="118.59999974568686" x2="25.766000747680664" y2="118.59999974568686" style="visibility: inherit;" fill="rgb(0, 0, 0)" stroke="rgb(204, 204, 204)" stroke-width="1px"></line><line x1="30.766000747680664" y1="98.83333312140572" x2="25.766000747680664" y2="98.83333312140572" style="visibility: inherit;" fill="rgb(0, 0, 0)" stroke="rgb(204, 204, 204)" stroke-width="1px"></line><line x1="30.766000747680664" y1="79.06666649712456" x2="25.766000747680664" y2="79.06666649712456" style="visibility: inherit;" fill="rgb(0, 0, 0)" stroke="rgb(204, 204, 204)" stroke-width="1px"></line><line x1="30.766000747680664" y1="59.29999987284343" x2="25.766000747680664" y2="59.29999987284343" style="visibility: inherit;" fill="rgb(0, 0, 0)" stroke="rgb(204, 204, 204)" stroke-width="1px"></line><line x1="30.766000747680664" y1="39.53333324856228" x2="25.766000747680664" y2="39.53333324856228" style="visibility: inherit;" fill="rgb(0, 0, 0)" stroke="rgb(204, 204, 204)" stroke-width="1px"></line><line x1="30.766000747680664" y1="19.76666662428115" x2="25.766000747680664" y2="19.76666662428115" style="visibility: inherit;" fill="rgb(0, 0, 0)" stroke="rgb(204, 204, 204)" stroke-width="1px"></line><line x1="30.766000747680664" y1="0" x2="25.766000747680664" y2="0" style="visibility: inherit;" fill="rgb(0, 0, 0)" stroke="rgb(204, 204, 204)" stroke-width="1px"></line></g><g transform="translate(20.766000747680664, 0)"><text style="text-anchor: end; visibility: hidden; font-family: Roboto, sans-serif; font-size: 12px; font-weight: 200;" x="0" y="177.89999961853027" dx="0em" dy="0.3em" fill="rgb(50, 49, 63)" stroke="none" stroke-width="1px">-1</text><text style="text-anchor: end; visibility: inherit; font-family: Roboto, sans-serif; font-size: 12px; font-weight: 200;" x="0" y="158.13333299424912" dx="0em" dy="0.3em" fill="rgb(50, 49, 63)" stroke="none" stroke-width="1px">0</text><text style="text-anchor: end; visibility: hidden; font-family: Roboto, sans-serif; font-size: 12px; font-weight: 200;" x="0" y="138.366666369968" dx="0em" dy="0.3em" fill="rgb(50, 49, 63)" stroke="none" stroke-width="1px">1</text><text style="text-anchor: end; visibility: inherit; font-family: Roboto, sans-serif; font-size: 12px; font-weight: 200;" x="0" y="118.59999974568686" dx="0em" dy="0.3em" fill="rgb(50, 49, 63)" stroke="none" stroke-width="1px">2</text><text style="text-anchor: end; visibility: hidden; font-family: Roboto, sans-serif; font-size: 12px; font-weight: 200;" x="0" y="98.83333312140572" dx="0em" dy="0.3em" fill="rgb(50, 49, 63)" stroke="none" stroke-width="1px">3</text><text style="text-anchor: end; visibility: inherit; font-family: Roboto, sans-serif; font-size: 12px; font-weight: 200;" x="0" y="79.06666649712456" dx="0em" dy="0.3em" fill="rgb(50, 49, 63)" stroke="none" stroke-width="1px">4</text><text style="text-anchor: end; visibility: hidden; font-family: Roboto, sans-serif; font-size: 12px; font-weight: 200;" x="0" y="59.29999987284343" dx="0em" dy="0.3em" fill="rgb(50, 49, 63)" stroke="none" stroke-width="1px">5</text><text style="text-anchor: end; visibility: inherit; font-family: Roboto, sans-serif; font-size: 12px; font-weight: 200;" x="0" y="39.53333324856228" dx="0em" dy="0.3em" fill="rgb(50, 49, 63)" stroke="none" stroke-width="1px">6</text><text style="text-anchor: end; visibility: hidden; font-family: Roboto, sans-serif; font-size: 12px; font-weight: 200;" x="0" y="19.76666662428115" dx="0em" dy="0.3em" fill="rgb(50, 49, 63)" stroke="none" stroke-width="1px">7</text><text style="text-anchor: end; visibility: hidden; font-family: Roboto, sans-serif; font-size: 12px; font-weight: 200;" x="0" y="0" dx="0em" dy="0.3em" fill="rgb(50, 49, 63)" stroke="none" stroke-width="1px">8</text></g><line x1="30.766000747680664" y1="0" x2="30.766000747680664" y2="177.89999961853027" fill="rgb(0, 0, 0)" stroke="rgb(204, 204, 204)" stroke-width="1px"></line></g></g><g transform="translate(30, 0)" clip-path="url(#clip_0)"><clipPath id="clip_0"><rect width="299" height="177"></rect></clipPath><g><g><g><line x1="0" y1="0" x2="0" y2="177.89999961853027" fill="rgb(0, 0, 0)" stroke="rgb(60, 60, 60)" stroke-width="1px" opacity="0.25"></line><line x1="24.936166604359943" y1="0" x2="24.936166604359943" y2="177.89999961853027" fill="rgb(0, 0, 0)" stroke="rgb(60, 60, 60)" stroke-width="1px" opacity="0.25"></line><line x1="49.87233320871989" y1="0" x2="49.87233320871989" y2="177.89999961853027" fill="rgb(0, 0, 0)" stroke="rgb(60, 60, 60)" stroke-width="1px" opacity="0.25"></line><line x1="74.80849981307983" y1="0" x2="74.80849981307983" y2="177.89999961853027" fill="rgb(0, 0, 0)" stroke="rgb(60, 60, 60)" stroke-width="1px" opacity="0.25"></line><line x1="99.74466641743977" y1="0" x2="99.74466641743977" y2="177.89999961853027" fill="rgb(0, 0, 0)" stroke="rgb(60, 60, 60)" stroke-width="1px" opacity="0.25"></line><line x1="124.68083302179973" y1="0" x2="124.68083302179973" y2="177.89999961853027" fill="rgb(0, 0, 0)" stroke="rgb(60, 60, 60)" stroke-width="1px" opacity="0.25"></line><line x1="149.61699962615967" y1="0" x2="149.61699962615967" y2="177.89999961853027" fill="rgb(0, 0, 0)" stroke="rgb(60, 60, 60)" stroke-width="1px" opacity="0.25"></line><line x1="174.55316623051962" y1="0" x2="174.55316623051962" y2="177.89999961853027" fill="rgb(0, 0, 0)" stroke="rgb(60, 60, 60)" stroke-width="1px" opacity="0.25"></line><line x1="199.48933283487955" y1="0" x2="199.48933283487955" y2="177.89999961853027" fill="rgb(0, 0, 0)" stroke="rgb(60, 60, 60)" stroke-width="1px" opacity="0.25"></line><line x1="224.4254994392395" y1="0" x2="224.4254994392395" y2="177.89999961853027" fill="rgb(0, 0, 0)" stroke="rgb(60, 60, 60)" stroke-width="1px" opacity="0.25"></line><line x1="249.36166604359946" y1="0" x2="249.36166604359946" y2="177.89999961853027" fill="rgb(0, 0, 0)" stroke="rgb(60, 60, 60)" stroke-width="1px" opacity="0.25"></line><line x1="274.29783264795935" y1="0" x2="274.29783264795935" y2="177.89999961853027" fill="rgb(0, 0, 0)" stroke="rgb(60, 60, 60)" stroke-width="1px" opacity="0.25"></line><line x1="299.23399925231934" y1="0" x2="299.23399925231934" y2="177.89999961853027" fill="rgb(0, 0, 0)" stroke="rgb(60, 60, 60)" stroke-width="1px" opacity="0.25"></line></g><g><line x1="0" y1="177.89999961853027" x2="299.23399925231934" y2="177.89999961853027" fill="rgb(0, 0, 0)" stroke="rgb(60, 60, 60)" stroke-width="1px" opacity="0.25"></line><line x1="0" y1="158.13333299424912" x2="299.23399925231934" y2="158.13333299424912" fill="rgb(0, 0, 0)" stroke="rgb(60, 60, 60)" stroke-width="1px" opacity="0.25"></line><line x1="0" y1="138.366666369968" x2="299.23399925231934" y2="138.366666369968" fill="rgb(0, 0, 0)" stroke="rgb(60, 60, 60)" stroke-width="1px" opacity="0.25"></line><line x1="0" y1="118.59999974568686" x2="299.23399925231934" y2="118.59999974568686" fill="rgb(0, 0, 0)" stroke="rgb(60, 60, 60)" stroke-width="1px" opacity="0.25"></line><line x1="0" y1="98.83333312140572" x2="299.23399925231934" y2="98.83333312140572" fill="rgb(0, 0, 0)" stroke="rgb(60, 60, 60)" stroke-width="1px" opacity="0.25"></line><line x1="0" y1="79.06666649712456" x2="299.23399925231934" y2="79.06666649712456" fill="rgb(0, 0, 0)" stroke="rgb(60, 60, 60)" stroke-width="1px" opacity="0.25"></line><line x1="0" y1="59.29999987284343" x2="299.23399925231934" y2="59.29999987284343" fill="rgb(0, 0, 0)" stroke="rgb(60, 60, 60)" stroke-width="1px" opacity="0.25"></line><line x1="0" y1="39.53333324856228" x2="299.23399925231934" y2="39.53333324856228" fill="rgb(0, 0, 0)" stroke="rgb(60, 60, 60)" stroke-width="1px" opacity="0.25"></line><line x1="0" y1="19.76666662428115" x2="299.23399925231934" y2="19.76666662428115" fill="rgb(0, 0, 0)" stroke="rgb(60, 60, 60)" stroke-width="1px" opacity="0.25"></line><line x1="0" y1="0" x2="299.23399925231934" y2="0" fill="rgb(0, 0, 0)" stroke="rgb(60, 60, 60)" stroke-width="1px" opacity="0.25"></line></g></g></g><g><g><line x1="0" y1="158.13333299424912" x2="299.23399925231934" y2="158.13333299424912" fill="rgb(0, 0, 0)" stroke="rgb(153, 153, 153)" stroke-width="1.5px"></line></g></g><g><g><line x1="24.936166604359943" y1="0" x2="24.936166604359943" y2="177.89999961853027" fill="rgb(0, 0, 0)" stroke="rgb(153, 153, 153)" stroke-width="1.5px"></line></g></g><g><g><g><g><g><path style="fill: none;" stroke="rgb(187, 187, 187)" stroke-width="2px" d="M24.936166604359943,25.1532631175779L25.933613268534344,26.35146562568341L26.931059932708738,41.04246896260145L27.92850659688314,61.66129230356409L28.925953261057536,72.86557661720242L29.923399925231934,80.92610577077775L30.92084658940633,84.58990419063596L31.91829325358073,88.46299488964408L32.915739917755126,91.39100941816994L33.91318658192952,87.40273501419227L34.91063324610392,79.67512438686563L35.90807991027832,74.09381807848672L36.90552657445272,81.02206256247091L37.90297323862712,87.27349175334676L38.90041990280152,94.31770897415038L39.897866566975914,99.4754747552289L40.895313231150304,102.93954931035236L41.89275989532471,105.8987663894461L42.890206559499106,109.07253502663545L43.8876532236735,111.47261602341763L44.8850998878479,114.78057526632256L45.8825465520223,117.60522099095284L46.8799932161967,119.97378838028168L47.87743988037109,122.79705711818889L48.87488654454549,124.32551861590473L49.87233320871989,125.23549156383069L50.86977987289429,126.65100696838282L51.86722653706869,129.04588023905993L52.864673201243086,130.06470761376184L53.862119865417476,132.85221120524574L54.85956652959187,134.31163768317506L55.85701319376628,135.6366127655918L56.854459857940675,136.52547271654913L57.85190652211507,137.54802392785044L58.84935318628946,138.7284959223922L59.84679985046387,139.41551757682817L60.844246514638265,139.28248768494814L61.84169317881266,139.80531475190924L62.83913984298706,140.48812744261454L63.83658650716146,140.80107757279976L64.83403317133586,141.43536426797772L65.83147983551025,142.60817578014928L66.82892649968466,143.10256375174814L67.82637316385905,144.15425062156143L68.82381982803345,144.5403524551807L69.82126649220784,145.64676418356623L70.81871315638224,145.95278131198268L71.81615982055663,145.3839323371517L72.81360648473104,146.4823656677311L73.81105314890544,146.63094066495995L74.80849981307983,146.70103629463787L75.80594647725424,146.45479176806555L76.80339314142863,147.0062258292869L77.80083980560303,147.39427490156373L78.79828646977742,147.397793699364L79.79573313395183,147.59504731192806L80.79317979812623,147.54486386501938L81.79062646230061,147.55877409271767L82.78807312647501,148.58550764971466L83.78551979064942,148.80590425884282L84.78296645482381,149.69941288722032L85.78041311899821,149.84436955113264L86.7778597831726,150.1564942589442L87.775306447347,149.80151761907592L88.77275311152141,150.3411030502371L89.7701997756958,150.3385368471098L90.7676464398702,150.50114824149097L91.7650931040446,150.4042275795381L92.762539768219,150.61181177798352L93.7599864323934,150.92311123997914L94.75743309656778,151.5198974616821L95.75487976074218,151.70973307492008L96.75232642491657,152.0088013187819L97.74977308909098,152.31720876717102L98.74721975326538,152.2174085983087L99.74466641743977,152.4173527239262L100.74211308161418,152.1786704520653L101.73955974578858,151.81673125287435L102.73700640996297,152.32869467792773L103.73445307413738,152.16345442253578L104.73189973831177,152.2720224248331L105.72934640248617,152.38556778460736L106.72679306666058,152.5018891350013L107.72423973083495,152.63634734369674L108.72168639500936,152.83480096050957L109.71913305918375,152.80729982975518L110.71657972335815,153.02781206441878L111.71402638753256,153.48211245629386L112.71147305170695,153.5528312854857L113.70891971588135,153.1261246934692L114.70636638005575,153.6339510375295L115.70381304423015,153.99422831715725L116.70125970840455,154.24038927574807L117.69870637257893,154.19181952839278L118.69615303675333,153.9662121263622L119.69359970092773,154.08932418609416L120.69104636510212,154.52001987311957L121.68849302927653,154.55714890240486L122.68593969345092,154.3794802896291L123.68338635762532,154.6745509491339L124.68083302179973,154.54127858271116L125.67827968597412,154.29576530519873L126.67572635014852,154.0946657643682L127.67317301432293,154.11413348979715L128.6706196784973,154.4417191400444L129.66806634267172,154.80910643331205L130.6655130068461,154.7691560047617L131.6629596710205,154.9036139473777L132.66040633519492,154.74047896756232L133.6578529993693,154.81981976408346L134.6552996635437,154.7963140529889L135.6527463277181,154.88915189971266L136.6501929918925,155.05433805120944L137.6476396560669,155.15002911718318L138.6450863202413,155.0926311462682L139.64253298441568,155.30912235319457L140.63997964859007,155.40942483676238L141.6374263127645,155.3451194025615L142.63487297693888,155.25866624406277L143.63231964111327,155.2619589802517L144.6297663052877,155.48080752043631L145.62721296946208,155.3133463295406L146.62465963363647,155.2916250474003L147.6221062978109,155.60465212975876L148.61955296198528,155.69228458667834L149.61699962615967,155.8541877423873L150.61444629033406,155.9419345518491L151.61189295450848,156.02018012356987L152.60933961868287,156.15245092771355L153.60678628285726,155.8927930507152L154.60423294703168,155.96545272402926L155.60167961120607,155.57296491720618L156.59912627538046,155.51111421978558L157.59657293955485,155.72934314870454L158.59401960372927,155.71871761426024L159.59146626790366,155.87431429752087L160.58891293207802,155.8765114691681L161.58635959625246,155.92902816098078L162.58380626042683,156.10350864565385L163.58125292460122,156.24707380615214L164.57869958877563,156.1359141952102L165.57614625295002,156.01282601061982L166.57359291712442,156.15276374818544L167.57103958129883,156.3234028796537L168.56848624547322,156.3440878196515L169.56593290964761,156.45653648118795L170.563379573822,156.08482137854944L171.56082623799642,156.1732764278459L172.5582729021708,156.27615982633168L173.5557195663452,156.21244666711064L174.55316623051962,156.20078030761456L175.550612894694,156.0597879698454L176.5480595588684,156.22190895422474L177.54550622304282,156.2449119345669L178.5429528872172,156.17331214798602L179.5403995513916,156.47509726040187L180.53784621556602,156.38310465774208L181.5352928797404,156.13517803597512L182.5327395439148,156.3896609941432L183.5301862080892,156.33831201805825L184.5276328722636,156.4975334689595L185.525079536438,156.5437027973076L186.52252620061236,156.60032913411194L187.5199728647868,156.74480538907213L188.51741952896117,156.6966716518251L189.51486619313556,156.82166300763905L190.51231285730998,156.70608498995497L191.50975952148437,156.5544096059564L192.50720618565876,156.6795764895057L193.50465284983315,156.63289863748264L194.50209951400757,156.53909281915637L195.49954617818196,156.57008710387697L196.49699284235635,156.62519787082826L197.49443950653077,156.64162122876633L198.49188617070516,156.53627377302362L199.48933283487955,156.6681161473855L200.48677949905397,156.29775006668874L201.48422616322836,156.38805433644774L202.48167282740275,156.37202201218577L203.47911949157717,156.385080089615L204.47656615575156,156.5291500746537L205.47401281992595,156.63060220330206L206.47145948410034,156.68698235654625L207.46890614827475,156.8070028506012L208.46635281244914,156.89019479857856L209.46379947662354,156.54198506656633L210.46124614079795,156.4761962923236L211.45869280497234,156.63947066457536" fill="none"></path></g><g><path style="fill: none;" stroke="rgb(204, 51, 17)" stroke-width="2px" d="M24.936166604359943,25.571254929705493L25.933613268534344,25.33165330819411L26.931059932708738,26.32004785213746L27.92850659688314,40.60033846498588L28.925953261057536,60.196889893325796L29.923399925231934,72.43607351592571L30.92084658940633,80.19909023885931L31.91829325358073,85.26780343311805L32.915739917755126,89.07557401779397L33.91318658192952,87.83382776485234L34.91063324610392,83.06167863631858L35.90807991027832,89.97155428281434L36.90552657445272,96.20575013451834L37.90297323862712,100.36837485048623L38.90041990280152,104.31196401662453L39.897866566975914,106.72181031934821L40.895313231150304,108.40718694906694L41.89275989532471,112.49759609889173L42.890206559499106,114.25435205530665L43.8876532236735,117.46075930351063L44.8850998878479,120.5871860757928L45.8825465520223,122.11992223883894L46.8799932161967,123.17378601742014L47.87743988037109,126.11399738890914L48.87488654454549,126.61239588123006L49.87233320871989,125.6860006701028L50.86977987289429,128.33163335340814L51.86722653706869,131.243208257019L52.864673201243086,132.07276398218818L53.862119865417476,134.0270171442749L54.85956652959187,135.0126152643574L55.85701319376628,136.2546801034574L56.854459857940675,137.63928517675615L57.85190652211507,138.10446721497277L58.84935318628946,139.17493795441774L59.84679985046387,139.7519880444849L60.844246514638265,140.47750605598452L61.84169317881266,140.41176393602208L62.83913984298706,140.80401135667572L63.83658650716146,141.83868585258153L64.83403317133586,142.69897411679204L65.83147983551025,144.23662840993055L66.82892649968466,144.06295505545006L67.82637316385905,144.3046157743776L68.82381982803345,144.96224763038796L69.82126649220784,145.68164814630077L70.81871315638224,146.2474766744485L71.81615982055663,146.56936605000504L72.81360648473104,146.68494116122247L73.81105314890544,146.95037488014384L74.80849981307983,147.3144842771324L75.80594647725424,147.62593982715836L76.80339314142863,147.84530231938987L77.80083980560303,148.18547225190488L78.79828646977742,148.38479384301635L79.79573313395183,148.3459788627213L80.79317979812623,147.80994440742452L81.79062646230061,148.79616037569446L82.78807312647501,149.50764045890648L83.78551979064942,149.45268495290642L84.78296645482381,149.75566478050013L85.78041311899821,150.03048052645164L86.7778597831726,149.9432336407797L87.775306447347,149.9329257472695L88.77275311152141,149.63407133882492L89.7701997756958,150.06722787207514L90.7676464398702,150.64358090748772L91.7650931040446,150.6143879440811L92.762539768219,150.90275895494156L93.7599864323934,150.7846715706111L94.75743309656778,151.61106367893916L95.75487976074218,151.83530087723474L96.75232642491657,151.56156127911822L97.74977308909098,151.36870105259536L98.74721975326538,151.84401960833748L99.74466641743977,152.47829922349362L100.74211308161418,152.91937469349685L101.73955974578858,152.83597972510927L102.73700640996297,152.9192953937974L103.73445307413738,152.7269372952057L104.73189973831177,153.02160803677927L105.72934640248617,153.0347253376897L106.72679306666058,153.23672858308967L107.72423973083495,153.42492614336362L108.72168639500936,153.27099564149927L109.71913305918375,153.57111637797627L110.71657972335815,153.88917421138208L111.71402638753256,154.06393257515572L112.71147305170695,153.88793158350563L113.70891971588135,153.81513507962063L114.70636638005575,154.0750267116557L115.70381304423015,154.2464515265827L116.70125970840455,153.71280332068085L117.69870637257893,153.6875955509093L118.69615303675333,153.88260044485432L119.69359970092773,154.1421132393253L120.69104636510212,154.23090329883038L121.68849302927653,154.13157667413918L122.68593969345092,154.264223401754L123.68338635762532,154.50919375805444L124.68083302179973,154.67919346805328L125.67827968597412,154.82229911330896L126.67572635014852,154.48401796988344L127.67317301432293,154.12805675905548L128.6706196784973,154.26325417447353L129.66806634267172,154.37350867102518L130.6655130068461,154.55729926742717L131.6629596710205,154.83897552853014L132.66040633519492,155.0295405416596L133.6578529993693,155.00825806868764L134.6552996635437,155.2249952804776L135.6527463277181,155.30094594947272L136.6501929918925,155.3137318176381L137.6476396560669,155.2600729109427L138.6450863202413,155.5762341011165L139.64253298441568,155.72913562194543L140.63997964859007,155.70073328417539L141.6374263127645,155.4686835788487L142.63487297693888,155.48222808053694L143.63231964111327,155.80190522425298L144.6297663052877,155.84427580883673L145.62721296946208,155.96334549873023L146.62465963363647,155.92937084649728L147.6221062978109,155.71537760051075L148.61955296198528,155.74685460219612L149.61699962615967,155.5744696911556L150.61444629033406,155.74915517944285L151.61189295450848,156.0266505945676L152.60933961868287,156.0857350605679L153.60678628285726,155.89863793623007L154.60423294703168,156.17169928047662L155.60167961120607,155.87381328241526L156.59912627538046,155.84759527609063L157.59657293955485,155.9639963454811L158.59401960372927,155.73049666866876L159.59146626790366,155.89492750147747L160.58891293207802,155.83065524907576L161.58635959625246,155.86295655285824L162.58380626042683,156.05450276127112L163.58125292460122,156.1545064740276L164.57869958877563,156.24881922030983L165.57614625295002,156.09401577052984L166.57359291712442,156.36979142522537L167.57103958129883,156.34933714072687L168.56848624547322,156.4027394964262L169.56593290964761,156.49686643629823L170.563379573822,156.52061509115066L171.56082623799642,156.39904528047333L172.5582729021708,156.57634373286913L173.5557195663452,156.56892231375406L174.55316623051962,156.38415641460696L175.550612894694,156.30740833936719L176.5480595588684,156.4376042686042L177.54550622304282,156.26784156891247L178.5429528872172,156.42781998607245L179.5403995513916,156.54773326678747L180.53784621556602,156.5861239303498L181.5352928797404,156.77290152759383L182.5327395439148,156.75114825635592L183.5301862080892,156.6962274816585L184.5276328722636,156.78751396266378L185.525079536438,156.7890247253497L186.52252620061236,156.92488778448032L187.5199728647868,156.94030893273384L188.51741952896117,157.03799702321416L189.51486619313556,156.86722989574127L190.51231285730998,157.0132755222568L191.50975952148437,157.06309219766175L192.50720618565876,157.08936222905427L193.50465284983315,157.10460334278366L194.50209951400757,157.10580557042917L195.49954617818196,157.20375828536328L196.49699284235635,157.24251955895372L197.49443950653077,157.2653293491195L198.49188617070516,157.2128960032033L199.48933283487955,156.99355375643657L200.48677949905397,157.01133810189256L201.48422616322836,156.8040227202815L202.48167282740275,156.63728451000534L203.47911949157717,156.83977620037655L204.47656615575156,156.91345633786722L205.47401281992595,156.7482821873896L206.47145948410034,156.59829853754306L207.46890614827475,156.87101765105103L208.46635281244914,156.63451128904114L209.46379947662354,156.81879333037884L210.46124614079795,156.91341393418105L211.45869280497234,156.8781285058042L212.4561394691467,156.95774795389514L213.45358613332115,156.7028656855125L214.45103279749551,156.4421437534277L215.4484794616699,156.63261304171957L216.44592612584432,156.69939328248375L217.4433727900187,156.6978971758469L218.4408194541931,156.52944821219512L219.4382661183675,156.85962826281187L220.4357127825419,156.8592044679162L221.4331594467163,156.97037428209882L222.4306061108907,156.90522912368138L223.4280527750651,157.06822325445705L224.4254994392395,157.25081772346013L225.4229461034139,157.32829763690003L226.4203927675883,157.3065031286627L227.4178394317627,157.29488828639055L228.4152860959371,157.1325997638703L229.4127327601115,156.9978441906985L230.4101794242859,157.0562565721094L231.4076260884603,157.21214435391752L232.40507275263468,157.21212426267152L233.4025194168091,157.0640051456633L234.3999660809835,157.31794569982327L235.39741274515785,157.4870421906214L236.3948594093323,157.50572059080343L237.39230607350666,157.40778375513554L238.38975273768105,157.3260174415537L239.38719940185547,157.3591316194474L240.38464606602986,157.44361661523192L241.38209273020425,157.22813513276472L242.37953939437867,157.16551246520714L243.37698605855306,157.2828103885652L244.37443272272745,157.34715883756496L245.37187938690184,157.3077886629396L246.36932605107626,157.30857908450102L247.36677271525065,157.3523190646068L248.36421937942504,157.35649644022556L249.36166604359946,157.465762212464L250.35911270777385,157.37257202297198L251.35655937194824,157.28081843033436L252.35400603612266,157.39114478010896L253.35145270029705,157.51157672300567L254.34889936447144,157.60368782239402L255.34634602864585,157.4854158516454L256.3437926928202,157.46472615322907L257.3412393569946,157.5035105168212L258.338686021169,157.30568877259967L259.33613268534344,157.4475991899276L260.33357934951783,157.51124893694282L261.3310260136922,157.5653504405935L262.3284726778666,157.68530190610073L263.325919342041,157.75784770293635L264.3233660062154,157.78412693346118L265.32081267038984,157.72533417376133L266.31825933456423,157.6288181036917L267.3157059987386,157.58987054151675L268.313152662913,157.72877983554733L269.3105993270874,157.75126860007109L270.3080459912618,157.7316618075725L271.3054926554362,157.66425063396926L272.30293931961063,157.62376002768346L273.300385983785,157.66065394346916L274.29783264795935,157.59321303855415" fill="none"></path></g></g></g></g><g opacity="0.2"><g><g><g><path style="fill: none;" stroke="rgb(187, 187, 187)" stroke-width="2px" d="M24.936166604359943,25.1532631175779L25.933613268534344,27.070387130546713L26.931059932708738,55.14583216604276L27.92850659688314,85.90902855253617L28.925953261057536,87.49389021708869L29.923399925231934,92.07671938066774L30.92084658940633,89.82919455180789L31.91829325358073,94.10999831046865L32.915739917755126,95.70926211020353L33.91318658192952,81.4806123337376L34.91063324610392,68.15379730551335L35.90807991027832,65.75223183837807L36.90552657445272,91.39180736812882L37.90297323862712,96.63838833908684L38.90041990280152,104.87575459244252L39.897866566975914,107.20848577081043L40.895313231150304,108.1341952627804L41.89275989532471,110.33684066319083L42.890206559499106,113.83270449071156L43.8876532236735,115.07251814168107L44.8850998878479,119.7423327143334L45.8825465520223,121.84209663172751L46.8799932161967,123.52659270104354L47.87743988037109,127.03192678073997L48.87488654454549,126.61819999882837L49.87233320871989,126.60044710510064L50.86977987289429,128.77427645329502L51.86722653706869,132.63818646838104L52.864673201243086,131.59294773733072L53.862119865417476,137.03346505186067L54.85956652959187,136.50077691610744L55.85701319376628,137.6240751255912L56.854459857940675,137.85876253687306L57.85190652211507,139.08185067155915L58.84935318628946,140.49920386347196L59.84679985046387,140.44605004076655L60.844246514638265,139.08294284918628L61.84169317881266,140.58955534749745L62.83913984298706,141.5123464748694L63.83658650716146,141.27050276703173L64.83403317133586,142.38679430947286L65.83147983551025,144.3673930469957L66.82892649968466,143.84414570878954L67.82637316385905,145.73178092582583L68.82381982803345,145.11950520550928L69.82126649220784,147.30638177597206L70.81871315638224,146.41180700457866L71.81615982055663,144.53065887493716L72.81360648473104,148.1300156635632L73.81105314890544,146.85380316080025L74.80849981307983,146.8061797391539L75.80594647725424,146.0854249782088L76.80339314142863,147.83337692111658L77.80083980560303,147.97634850997795L78.79828646977742,147.4030718960644L79.79573313395183,147.89092773077397L80.79317979812623,147.46958869465644L81.79062646230061,147.57963943426506L82.78807312647501,150.1256079852099L83.78551979064942,149.13649917253503L84.78296645482381,151.03967582978652L85.78041311899821,150.06180454700112L86.7778597831726,150.62468132066152L87.775306447347,149.26905265927348L88.77275311152141,151.15048119697894L89.7701997756958,150.3346875424188L90.7676464398702,150.74506533306277L91.7650931040446,150.25884658660874L92.762539768219,150.9231880756516L93.7599864323934,151.39006043297263L94.75743309656778,152.4150767942365L95.75487976074218,151.99448649477705L96.75232642491657,152.45740368457461L97.74977308909098,152.77981993975473L98.74721975326538,152.06770834501526L99.74466641743977,152.71726891235247L100.74211308161418,151.8206470442739L101.73955974578858,151.27382245408796L102.73700640996297,153.09663981550779L103.73445307413738,151.91559403944785L104.73189973831177,152.4348744282791L105.72934640248617,152.55588582426873L106.72679306666058,152.67637116059223L107.72423973083495,152.83803465673986L108.72168639500936,153.1324813857288L109.71913305918375,152.76604813362366L110.71657972335815,153.35858041641418L111.71402638753256,154.16356304410644L112.71147305170695,153.65890952927347L113.70891971588135,152.48606480544447L114.70636638005575,154.3956905536199L115.70381304423015,154.53464423659892L116.70125970840455,154.60963071363435L117.69870637257893,154.11896490735984L118.69615303675333,153.6278010233163L119.69359970092773,154.27399227569214L120.69104636510212,155.16606340365766L121.68849302927653,154.61284244633288L122.68593969345092,154.11297737046547L123.68338635762532,155.11715693839108L124.68083302179973,154.34137003307708L125.67827968597412,153.92749538893008L126.67572635014852,153.7930164531224L127.67317301432293,154.14333507794055L128.6706196784973,154.93309761541528L129.66806634267172,155.36018737321353L130.6655130068461,154.70923036193614L131.6629596710205,155.10530086130174L132.66040633519492,154.4957764978393L133.6578529993693,154.93883095886514L134.6552996635437,154.76105548634706L135.6527463277181,155.02840866979827L136.6501929918925,155.30211727845457L137.6476396560669,155.2935657161438L138.6450863202413,155.00653418989572L139.64253298441568,155.63385916358413L140.63997964859007,155.55987856211416L141.6374263127645,155.2486612512601L142.63487297693888,155.12898650631467L143.63231964111327,155.26689808453511L144.6297663052877,155.80908033071321L145.62721296946208,155.062154543197L146.62465963363647,155.25904312418984L147.6221062978109,156.07419275329644L148.61955296198528,155.82373327205775L149.61699962615967,156.09704247595076L150.61444629033406,156.07355476604175L151.61189295450848,156.13754848115107L152.60933961868287,156.3508571339291L153.60678628285726,155.50330623521768L154.60423294703168,156.07444223400037L155.60167961120607,154.98423320697154L156.59912627538046,155.41833817365472L157.59657293955485,156.05668654208299L158.59401960372927,155.7027793125938L159.59146626790366,156.1077093224118L160.58891293207802,155.87980722663895L161.58635959625246,156.0078031986998L162.58380626042683,156.36522937266346L163.58125292460122,156.46242154689963L164.57869958877563,155.96917477879728L165.57614625295002,155.82819373373425L166.57359291712442,156.36267035453386L167.57103958129883,156.57936157685612L168.56848624547322,156.37511522964815L169.56593290964761,156.62520947349267L170.563379573822,155.52724872459166L171.56082623799642,156.30595900179057L172.5582729021708,156.43048492406038L173.5557195663452,156.11687692827903L174.55316623051962,156.1832807683705L175.550612894694,155.84829946319158L176.5480595588684,156.46509043079377L177.54550622304282,156.27941640508013L178.5429528872172,156.06591246811473L179.5403995513916,156.92777492902565L180.53784621556602,156.2451157537524L181.5352928797404,155.7632881033246L182.5327395439148,156.77138543139543L183.5301862080892,156.26128855393083L184.5276328722636,156.73636564531134L185.525079536438,156.61295678982975L186.52252620061236,156.68526863931848L187.5199728647868,156.9615197715124L188.51741952896117,156.62447104595458L189.51486619313556,157.0091500413599L190.51231285730998,156.53271796342892L191.50975952148437,156.32689652995853L192.50720618565876,156.86732681482965L193.50465284983315,156.56288185944805L194.50209951400757,156.3983840916669L195.49954617818196,156.6165785309579L196.49699284235635,156.70786402125515L197.49443950653077,156.6662562656734L198.49188617070516,156.37825258940958L199.48933283487955,156.86587970892833L200.48677949905397,155.74220094564353L201.48422616322836,156.52351074108628L202.48167282740275,156.34797352579275L203.47911949157717,156.4046672057589L204.47656615575156,156.74525505221172L205.47401281992595,156.78278039627457L206.47145948410034,156.77155258641253L207.46890614827475,156.98703359168366L208.46635281244914,157.0149827205446L209.46379947662354,156.019670468548L210.46124614079795,156.3775131309595L211.45869280497234,156.884382222953" fill="none"></path></g><g><path style="fill: none;" stroke="rgb(204, 51, 17)" stroke-width="2px" d="M24.936166604359943,25.571254929705493L25.933613268534344,25.187892335287255L26.931059932708738,27.26890661432308L27.92850659688314,57.39396022569558L28.925953261057536,85.7821474381664L29.923399925231934,89.3672705720855L30.92084658940633,91.30032836092191L31.91829325358073,92.65803592999393L32.915739917755126,94.69129600883257L33.91318658192952,85.98997929730938L34.91063324610392,75.94673798488354L35.90807991027832,100.29876451442988L36.90552657445272,105.53668818096057L37.90297323862712,106.60415690928025L38.90041990280152,110.22271222480387L39.897866566975914,110.33488016311367L40.895313231150304,110.93453869873883L41.89275989532471,118.63217126918889L42.890206559499106,116.88921836584086L43.8876532236735,122.2700770974935L44.8850998878479,125.27665477354162L45.8825465520223,124.41897604807181L46.8799932161967,124.75456087859001L47.87743988037109,130.52427961653595L48.87488654454549,127.35999007730825L49.87233320871989,124.29641180406432L50.86977987289429,132.30007560891724L51.86722653706869,135.61056614248199L52.864673201243086,133.31709680580389L53.862119865417476,136.958395807319L54.85956652959187,136.4910121176461L55.85701319376628,138.117777114978L56.854459857940675,139.71619262141024L57.85190652211507,138.80224023897762L58.84935318628946,140.78064401757987L59.84679985046387,140.61756316470579L60.844246514638265,141.565783062009L61.84169317881266,140.3131507566887L62.83913984298706,141.39238248547144L63.83658650716146,143.39069759298255L64.83403317133586,143.9894065113828L65.83147983551025,146.54310984778834L66.82892649968466,143.8024450238547L67.82637316385905,144.6671068526643L68.82381982803345,145.94869541423262L69.82126649220784,146.76074892005778L70.81871315638224,147.09621946661716L71.81615982055663,147.05220011332182L72.81360648473104,146.8583038280447L73.81105314890544,147.3485254585205L74.80849981307983,147.86064837261083L75.80594647725424,148.09312315219503L76.80339314142863,148.17434605773616L77.80083980560303,148.69572715067653L78.79828646977742,148.68377622968325L79.79573313395183,148.28775639227877L80.79317979812623,147.00589272447968L81.79062646230061,150.27548432809905L82.78807312647501,150.57486058372433L83.78551979064942,149.3702516939063L84.78296645482381,150.2101345218907L85.78041311899821,150.44270414537888L86.7778597831726,149.81236331227183L87.775306447347,149.91746390700413L88.77275311152141,149.18578972615805L89.7701997756958,150.71696267195048L90.7676464398702,151.50811046060653L91.7650931040446,150.5705984989712L92.762539768219,151.33531547123224L93.7599864323934,150.60754049411537L94.75743309656778,152.85065184143127L95.75487976074218,152.17165667467816L96.75232642491657,151.1509518819434L97.74977308909098,151.07941071281104L98.74721975326538,152.5569974419507L99.74466641743977,153.42971864622783L100.74211308161418,153.58098789850175L101.73955974578858,152.7108872725279L102.73700640996297,153.04426889682958L103.73445307413738,152.43840014731813L104.73189973831177,153.46361414913966L105.72934640248617,153.05440128905536L106.72679306666058,153.53973345118962L107.72423973083495,153.7072224837745L108.72168639500936,153.04009988870274L109.71913305918375,154.02129748269175L110.71657972335815,154.36626096149084L111.71402638753256,154.32607012081615L112.71147305170695,153.62393009603053L113.70891971588135,153.70594032379316L114.70636638005575,154.46486415970836L115.70381304423015,154.50358874897316L116.70125970840455,152.9123310118281L117.69870637257893,153.649783896252L118.69615303675333,154.17510778577184L119.69359970092773,154.5313824310318L120.69104636510212,154.364088388088L121.68849302927653,153.9825867371024L122.68593969345092,154.46319349317622L123.68338635762532,154.87664929250505L124.68083302179973,154.93419303305157L125.67827968597412,155.0369575811925L126.67572635014852,153.97659625474517L127.67317301432293,153.59411494281358L128.6706196784973,154.4660502976006L129.66806634267172,154.5388904158526L130.6655130068461,154.83298516203018L131.6629596710205,155.2614899201846L132.66040633519492,155.31538806135381L133.6578529993693,154.9763343592297L134.6552996635437,155.55010109816254L135.6527463277181,155.41487195296537L136.6501929918925,155.33291061988615L137.6476396560669,155.17958455089965L138.6450863202413,156.05047588637723L139.64253298441568,155.95848790318877L140.63997964859007,155.65812977752032L141.6374263127645,155.12060902085867L142.63487297693888,155.5025448330693L143.63231964111327,156.28142093982703L144.6297663052877,155.90783168571238L145.62721296946208,156.14195003357042L146.62465963363647,155.8784088681479L147.6221062978109,155.39438773153097L148.61955296198528,155.79407010472417L149.61699962615967,155.3158923245948L150.61444629033406,156.01118341187373L151.61189295450848,156.44289371725472L152.60933961868287,156.1743617595684L153.60678628285726,155.61799224972333L154.60423294703168,156.58129129684644L155.60167961120607,155.4269842853232L156.59912627538046,155.8082682666037L157.59657293955485,156.1385979495668L158.59401960372927,155.3802471534503L159.59146626790366,156.14157375069053L160.58891293207802,155.73424687047316L161.58635959625246,155.91140850853196L162.58380626042683,156.34182207389046L163.58125292460122,156.3045120431624L164.57869958877563,156.39028833973313L165.57614625295002,155.86181059585985L166.57359291712442,156.7834549072687L167.57103958129883,156.3186557139791L168.56848624547322,156.4828430299752L169.56593290964761,156.63805684610628L170.563379573822,156.5562380734293L171.56082623799642,156.21669056445737L172.5582729021708,156.84229141146284L173.5557195663452,156.55779018508144L174.55316623051962,156.1070075658863L175.550612894694,156.1922862265075L176.5480595588684,156.6328981624597L177.54550622304282,156.0131975193749L178.5429528872172,156.66778761181243L179.5403995513916,156.72760318786L180.53784621556602,156.64370992569332L181.5352928797404,157.05306792345982L182.5327395439148,156.71851834949908L183.5301862080892,156.61384631961238L184.5276328722636,156.9244436841717L185.525079536438,156.7912908693785L186.52252620061236,157.12868237317625L187.5199728647868,156.96344065511414L188.51741952896117,157.18452915893462L189.51486619313556,156.611079204532L190.51231285730998,157.2323439620301L191.50975952148437,157.13781721076916L192.50720618565876,157.12876727614307L193.50465284983315,157.12746501337773L194.50209951400757,157.10760891189747L195.49954617818196,157.35068735776449L196.49699284235635,157.30066146933933L197.49443950653077,157.2995440343682L198.49188617070516,157.134245984329L199.48933283487955,156.66454038628646L200.48677949905397,157.03801462007655L201.48422616322836,156.49304964786495L202.48167282740275,156.38717719459112L203.47911949157717,157.1435137359333L204.47656615575156,157.02397654410325L205.47401281992595,156.50052096167317L206.47145948410034,156.37332306277324L207.46890614827475,157.28009632131298L208.46635281244914,156.27975174602634L209.46379947662354,157.09521639238542L210.46124614079795,157.05534483988436L211.45869280497234,156.82520036323893L212.4561394691467,157.07717712603153L213.45358613332115,156.32054228293856L214.45103279749551,156.0510608553005L215.4484794616699,156.9183169741574L216.44592612584432,156.79956364362997L217.4433727900187,156.69565301589162L218.4408194541931,156.27677476671744L219.4382661183675,157.35489833873703L220.4357127825419,156.85856877557265L221.4331594467163,157.13712900337276L222.4306061108907,156.80751138605524L223.4280527750651,157.3127144506206L224.4254994392395,157.52470942696473L225.4229461034139,157.44451750705986L226.4203927675883,157.2738113663067L227.4178394317627,157.27746602298225L228.4152860959371,156.88916698008995L229.4127327601115,156.79571083094075L230.4101794242859,157.1438751442258L231.4076260884603,157.44597602662975L232.40507275263468,157.2120941258025L233.4025194168091,156.84182647015095L234.3999660809835,157.6988565310632L235.39741274515785,157.7406869268186L236.3948594093323,157.53373819107654L237.39230607350666,157.26087850163367L238.38975273768105,157.2033679711809L239.38719940185547,157.40880288628796L240.38464606602986,157.57034410890876L241.38209273020425,156.90491290906394L242.37953939437867,157.07157846387076L243.37698605855306,157.45875727360226L244.37443272272745,157.44368151106468L245.37187938690184,157.24873340100157L246.36932605107626,157.30976471684312L247.36677271525065,157.41792903476545L248.36421937942504,157.36276250365373L249.36166604359946,157.62966087082162L250.35911270777385,157.23278673873395L251.35655937194824,157.14318804137798L252.35400603612266,157.5566343047708L253.35145270029705,157.69222463735073L254.34889936447144,157.74185447147656L255.34634602864585,157.30800789552245L256.3437926928202,157.43369160560454L257.3412393569946,157.56168706220944L258.338686021169,157.00895615626737L259.33613268534344,157.66046481591945L260.33357934951783,157.60672355746564L261.3310260136922,157.64650269606958L262.3284726778666,157.86522910436156L263.325919342041,157.86666639818975L264.3233660062154,157.82354577924843L265.32081267038984,157.63714503421156L266.31825933456423,157.48404399858728L267.3157059987386,157.53144919825428L268.313152662913,157.93714377659325L269.3105993270874,157.78500174685672L270.3080459912618,157.70225161882456L271.3054926554362,157.56313387356445L272.30293931961063,157.5630241182548L273.300385983785,157.71599481714765L274.29783264795935,157.49205168118166" fill="none"></path></g></g></g></g></g></g><g transform="translate(30, 177)" clip-path="url(#clip_1)"><clipPath id="clip_1"><rect width="299" height="22"></rect></clipPath><g><g><line x1="0" y1="0" x2="0" y2="5" style="visibility: inherit;" fill="rgb(0, 0, 0)" stroke="rgb(204, 204, 204)" stroke-width="1px"></line><line x1="24.936166604359943" y1="0" x2="24.936166604359943" y2="5" style="visibility: inherit;" fill="rgb(0, 0, 0)" stroke="rgb(204, 204, 204)" stroke-width="1px"></line><line x1="49.87233320871989" y1="0" x2="49.87233320871989" y2="5" style="visibility: inherit;" fill="rgb(0, 0, 0)" stroke="rgb(204, 204, 204)" stroke-width="1px"></line><line x1="74.80849981307983" y1="0" x2="74.80849981307983" y2="5" style="visibility: inherit;" fill="rgb(0, 0, 0)" stroke="rgb(204, 204, 204)" stroke-width="1px"></line><line x1="99.74466641743977" y1="0" x2="99.74466641743977" y2="5" style="visibility: inherit;" fill="rgb(0, 0, 0)" stroke="rgb(204, 204, 204)" stroke-width="1px"></line><line x1="124.68083302179973" y1="0" x2="124.68083302179973" y2="5" style="visibility: inherit;" fill="rgb(0, 0, 0)" stroke="rgb(204, 204, 204)" stroke-width="1px"></line><line x1="149.61699962615967" y1="0" x2="149.61699962615967" y2="5" style="visibility: inherit;" fill="rgb(0, 0, 0)" stroke="rgb(204, 204, 204)" stroke-width="1px"></line><line x1="174.55316623051962" y1="0" x2="174.55316623051962" y2="5" style="visibility: inherit;" fill="rgb(0, 0, 0)" stroke="rgb(204, 204, 204)" stroke-width="1px"></line><line x1="199.48933283487955" y1="0" x2="199.48933283487955" y2="5" style="visibility: inherit;" fill="rgb(0, 0, 0)" stroke="rgb(204, 204, 204)" stroke-width="1px"></line><line x1="224.4254994392395" y1="0" x2="224.4254994392395" y2="5" style="visibility: inherit;" fill="rgb(0, 0, 0)" stroke="rgb(204, 204, 204)" stroke-width="1px"></line><line x1="249.36166604359946" y1="0" x2="249.36166604359946" y2="5" style="visibility: inherit;" fill="rgb(0, 0, 0)" stroke="rgb(204, 204, 204)" stroke-width="1px"></line><line x1="274.29783264795935" y1="0" x2="274.29783264795935" y2="5" style="visibility: inherit;" fill="rgb(0, 0, 0)" stroke="rgb(204, 204, 204)" stroke-width="1px"></line><line x1="299.23399925231934" y1="0" x2="299.23399925231934" y2="5" style="visibility: inherit;" fill="rgb(0, 0, 0)" stroke="rgb(204, 204, 204)" stroke-width="1px"></line></g><g transform="translate(0, 8)"><text style="text-anchor: middle; visibility: hidden; font-family: Roboto, sans-serif; font-size: 12px; font-weight: 200;" x="0" y="0" dx="0em" dy="0.95em" fill="rgb(50, 49, 63)" stroke="none" stroke-width="1px">-500</text><text style="text-anchor: middle; visibility: hidden; font-family: Roboto, sans-serif; font-size: 12px; font-weight: 200;" x="24.936166604359943" y="0" dx="0em" dy="0.95em" fill="rgb(50, 49, 63)" stroke="none" stroke-width="1px">0</text><text style="text-anchor: middle; visibility: hidden; font-family: Roboto, sans-serif; font-size: 12px; font-weight: 200;" x="49.87233320871989" y="0" dx="0em" dy="0.95em" fill="rgb(50, 49, 63)" stroke="none" stroke-width="1px">500</text><text style="text-anchor: middle; visibility: hidden; font-family: Roboto, sans-serif; font-size: 12px; font-weight: 200;" x="74.80849981307983" y="0" dx="0em" dy="0.95em" fill="rgb(50, 49, 63)" stroke="none" stroke-width="1px">1k</text><text style="text-anchor: middle; visibility: hidden; font-family: Roboto, sans-serif; font-size: 12px; font-weight: 200;" x="99.74466641743977" y="0" dx="0em" dy="0.95em" fill="rgb(50, 49, 63)" stroke="none" stroke-width="1px">1.5k</text><text style="text-anchor: middle; visibility: hidden; font-family: Roboto, sans-serif; font-size: 12px; font-weight: 200;" x="124.68083302179973" y="0" dx="0em" dy="0.95em" fill="rgb(50, 49, 63)" stroke="none" stroke-width="1px">2k</text><text style="text-anchor: middle; visibility: hidden; font-family: Roboto, sans-serif; font-size: 12px; font-weight: 200;" x="149.61699962615967" y="0" dx="0em" dy="0.95em" fill="rgb(50, 49, 63)" stroke="none" stroke-width="1px">2.5k</text><text style="text-anchor: middle; visibility: hidden; font-family: Roboto, sans-serif; font-size: 12px; font-weight: 200;" x="174.55316623051962" y="0" dx="0em" dy="0.95em" fill="rgb(50, 49, 63)" stroke="none" stroke-width="1px">3k</text><text style="text-anchor: middle; visibility: hidden; font-family: Roboto, sans-serif; font-size: 12px; font-weight: 200;" x="199.48933283487955" y="0" dx="0em" dy="0.95em" fill="rgb(50, 49, 63)" stroke="none" stroke-width="1px">3.5k</text><text style="text-anchor: middle; visibility: hidden; font-family: Roboto, sans-serif; font-size: 12px; font-weight: 200;" x="224.4254994392395" y="0" dx="0em" dy="0.95em" fill="rgb(50, 49, 63)" stroke="none" stroke-width="1px">4k</text><text style="text-anchor: middle; visibility: hidden; font-family: Roboto, sans-serif; font-size: 12px; font-weight: 200;" x="249.36166604359946" y="0" dx="0em" dy="0.95em" fill="rgb(50, 49, 63)" stroke="none" stroke-width="1px">4.5k</text><text style="text-anchor: middle; visibility: hidden; font-family: Roboto, sans-serif; font-size: 12px; font-weight: 200;" x="274.29783264795935" y="0" dx="0em" dy="0.95em" fill="rgb(50, 49, 63)" stroke="none" stroke-width="1px">5k</text><text style="text-anchor: middle; visibility: hidden; font-family: Roboto, sans-serif; font-size: 12px; font-weight: 200;" x="299.23399925231934" y="0" dx="0em" dy="0.95em" fill="rgb(50, 49, 63)" stroke="none" stroke-width="1px">5.5k</text></g><line x1="0" y1="0" x2="299.23399925231934" y2="0" fill="rgb(0, 0, 0)" stroke="rgb(204, 204, 204)" stroke-width="1px"></line></g></g></g></g></svg>