<svg viewBox="0 0 330 200" xmlns="http://www.w3.org/2000/svg"><g><g><g><g><g><line x1="49.98400115966797" y1="178.58999919891357" x2="44.98400115966797" y2="178.58999919891357" style="visibility: inherit;" fill="rgb(0, 0, 0)" stroke="rgb(204, 204, 204)" stroke-width="1px"></line><line x1="49.98400115966797" y1="166.68399925231932" x2="44.98400115966797" y2="166.68399925231932" style="visibility: inherit;" fill="rgb(0, 0, 0)" stroke="rgb(204, 204, 204)" stroke-width="1px"></line><line x1="49.98400115966797" y1="154.7779993057251" x2="44.98400115966797" y2="154.7779993057251" style="visibility: inherit;" fill="rgb(0, 0, 0)" stroke="rgb(204, 204, 204)" stroke-width="1px"></line><line x1="49.98400115966797" y1="142.87199935913085" x2="44.98400115966797" y2="142.87199935913085" style="visibility: inherit;" fill="rgb(0, 0, 0)" stroke="rgb(204, 204, 204)" stroke-width="1px"></line><line x1="49.98400115966797" y1="130.96599941253663" x2="44.98400115966797" y2="130.96599941253663" style="visibility: inherit;" fill="rgb(0, 0, 0)" stroke="rgb(204, 204, 204)" stroke-width="1px"></line><line x1="49.98400115966797" y1="119.0599994659424" x2="44.98400115966797" y2="119.0599994659424" style="visibility: inherit;" fill="rgb(0, 0, 0)" stroke="rgb(204, 204, 204)" stroke-width="1px"></line><line x1="49.98400115966797" y1="107.15399951934816" x2="44.98400115966797" y2="107.15399951934816" style="visibility: inherit;" fill="rgb(0, 0, 0)" stroke="rgb(204, 204, 204)" stroke-width="1px"></line><line x1="49.98400115966797" y1="95.24799957275393" x2="44.98400115966797" y2="95.24799957275393" style="visibility: inherit;" fill="rgb(0, 0, 0)" stroke="rgb(204, 204, 204)" stroke-width="1px"></line><line x1="49.98400115966797" y1="83.34199962615966" x2="44.98400115966797" y2="83.34199962615966" style="visibility: inherit;" fill="rgb(0, 0, 0)" stroke="rgb(204, 204, 204)" stroke-width="1px"></line><line x1="49.98400115966797" y1="71.43599967956543" x2="44.98400115966797" y2="71.43599967956543" style="visibility: inherit;" fill="rgb(0, 0, 0)" stroke="rgb(204, 204, 204)" stroke-width="1px"></line><line x1="49.98400115966797" y1="59.5299997329712" x2="44.98400115966797" y2="59.5299997329712" style="visibility: inherit;" fill="rgb(0, 0, 0)" stroke="rgb(204, 204, 204)" stroke-width="1px"></line><line x1="49.98400115966797" y1="47.62399978637694" x2="44.98400115966797" y2="47.62399978637694" style="visibility: inherit;" fill="rgb(0, 0, 0)" stroke="rgb(204, 204, 204)" stroke-width="1px"></line><line x1="49.98400115966797" y1="35.717999839782685" x2="44.98400115966797" y2="35.717999839782685" style="visibility: inherit;" fill="rgb(0, 0, 0)" stroke="rgb(204, 204, 204)" stroke-width="1px"></line><line x1="49.98400115966797" y1="23.81199989318847" x2="44.98400115966797" y2="23.81199989318847" style="visibility: inherit;" fill="rgb(0, 0, 0)" stroke="rgb(204, 204, 204)" stroke-width="1px"></line><line x1="49.98400115966797" y1="11.905999946594216" x2="44.98400115966797" y2="11.905999946594216" style="visibility: inherit;" fill="rgb(0, 0, 0)" stroke="rgb(204, 204, 204)" stroke-width="1px"></line><line x1="49.98400115966797" y1="0" x2="44.98400115966797" y2="0" style="visibility: inherit;" fill="rgb(0, 0, 0)" stroke="rgb(204, 204, 204)" stroke-width="1px"></line></g><g transform="translate(39.98400115966797, 0)"><text style="text-anchor: end; visibility: hidden; font-family: Roboto, sans-serif; font-size: 12px; font-weight: 200;" x="0" y="178.58999919891357" dx="0em" dy="0.3em" fill="rgb(50, 49, 63)" stroke="none" stroke-width="1px">-0.2</text><text style="text-anchor: end; visibility: inherit; font-family: Roboto, sans-serif; font-size: 12px; font-weight: 200;" x="0" y="166.68399925231932" dx="0em" dy="0.3em" fill="rgb(50, 49, 63)" stroke="none" stroke-width="1px">0</text><text style="text-anchor: end; visibility: hidden; font-family: Roboto, sans-serif; font-size: 12px; font-weight: 200;" x="0" y="154.7779993057251" dx="0em" dy="0.3em" fill="rgb(50, 49, 63)" stroke="none" stroke-width="1px">0.2</text><text style="text-anchor: end; visibility: hidden; font-family: Roboto, sans-serif; font-size: 12px; font-weight: 200;" x="0" y="142.87199935913085" dx="0em" dy="0.3em" fill="rgb(50, 49, 63)" stroke="none" stroke-width="1px">0.4</text><text style="text-anchor: end; visibility: inherit; font-family: Roboto, sans-serif; font-size: 12px; font-weight: 200;" x="0" y="130.96599941253663" dx="0em" dy="0.3em" fill="rgb(50, 49, 63)" stroke="none" stroke-width="1px">0.6</text><text style="text-anchor: end; visibility: hidden; font-family: Roboto, sans-serif; font-size: 12px; font-weight: 200;" x="0" y="119.0599994659424" dx="0em" dy="0.3em" fill="rgb(50, 49, 63)" stroke="none" stroke-width="1px">0.8</text><text style="text-anchor: end; visibility: hidden; font-family: Roboto, sans-serif; font-size: 12px; font-weight: 200;" x="0" y="107.15399951934816" dx="0em" dy="0.3em" fill="rgb(50, 49, 63)" stroke="none" stroke-width="1px">1</text><text style="text-anchor: end; visibility: inherit; font-family: Roboto, sans-serif; font-size: 12px; font-weight: 200;" x="0" y="95.24799957275393" dx="0em" dy="0.3em" fill="rgb(50, 49, 63)" stroke="none" stroke-width="1px">1.2</text><text style="text-anchor: end; visibility: hidden; font-family: Roboto, sans-serif; font-size: 12px; font-weight: 200;" x="0" y="83.34199962615966" dx="0em" dy="0.3em" fill="rgb(50, 49, 63)" stroke="none" stroke-width="1px">1.4</text><text style="text-anchor: end; visibility: hidden; font-family: Roboto, sans-serif; font-size: 12px; font-weight: 200;" x="0" y="71.43599967956543" dx="0em" dy="0.3em" fill="rgb(50, 49, 63)" stroke="none" stroke-width="1px">1.6</text><text style="text-anchor: end; visibility: inherit; font-family: Roboto, sans-serif; font-size: 12px; font-weight: 200;" x="0" y="59.5299997329712" dx="0em" dy="0.3em" fill="rgb(50, 49, 63)" stroke="none" stroke-width="1px">1.8</text><text style="text-anchor: end; visibility: hidden; font-family: Roboto, sans-serif; font-size: 12px; font-weight: 200;" x="0" y="47.62399978637694" dx="0em" dy="0.3em" fill="rgb(50, 49, 63)" stroke="none" stroke-width="1px">2</text><text style="text-anchor: end; visibility: hidden; font-family: Roboto, sans-serif; font-size: 12px; font-weight: 200;" x="0" y="35.717999839782685" dx="0em" dy="0.3em" fill="rgb(50, 49, 63)" stroke="none" stroke-width="1px">2.2</text><text style="text-anchor: end; visibility: inherit; font-family: Roboto, sans-serif; font-size: 12px; font-weight: 200;" x="0" y="23.81199989318847" dx="0em" dy="0.3em" fill="rgb(50, 49, 63)" stroke="none" stroke-width="1px">2.4</text><text style="text-anchor: end; visibility: hidden; font-family: Roboto, sans-serif; font-size: 12px; font-weight: 200;" x="0" y="11.905999946594216" dx="0em" dy="0.3em" fill="rgb(50, 49, 63)" stroke="none" stroke-width="1px">2.6</text><text style="text-anchor: end; visibility: hidden; font-family: Roboto, sans-serif; font-size: 12px; font-weight: 200;" x="0" y="0" dx="0em" dy="0.3em" fill="rgb(50, 49, 63)" stroke="none" stroke-width="1px">2.8</text></g><line x1="49.98400115966797" y1="0" x2="49.98400115966797" y2="178.58999919891357" fill="rgb(0, 0, 0)" stroke="rgb(204, 204, 204)" stroke-width="1px"></line></g></g><g transform="translate(49, 0)" clip-path="url(#clip_0)"><clipPath id="clip_0"><rect width="280" height="178"></rect></clipPath><g><g><g><line x1="0" y1="0" x2="0" y2="178.58999919891357" fill="rgb(0, 0, 0)" stroke="rgb(60, 60, 60)" stroke-width="1px" opacity="0.25"></line><line x1="23.334666570027668" y1="0" x2="23.334666570027668" y2="178.58999919891357" fill="rgb(0, 0, 0)" stroke="rgb(60, 60, 60)" stroke-width="1px" opacity="0.25"></line><line x1="46.669333140055336" y1="0" x2="46.669333140055336" y2="178.58999919891357" fill="rgb(0, 0, 0)" stroke="rgb(60, 60, 60)" stroke-width="1px" opacity="0.25"></line><line x1="70.00399971008301" y1="0" x2="70.00399971008301" y2="178.58999919891357" fill="rgb(0, 0, 0)" stroke="rgb(60, 60, 60)" stroke-width="1px" opacity="0.25"></line><line x1="93.33866628011067" y1="0" x2="93.33866628011067" y2="178.58999919891357" fill="rgb(0, 0, 0)" stroke="rgb(60, 60, 60)" stroke-width="1px" opacity="0.25"></line><line x1="116.67333285013835" y1="0" x2="116.67333285013835" y2="178.58999919891357" fill="rgb(0, 0, 0)" stroke="rgb(60, 60, 60)" stroke-width="1px" opacity="0.25"></line><line x1="140.00799942016602" y1="0" x2="140.00799942016602" y2="178.58999919891357" fill="rgb(0, 0, 0)" stroke="rgb(60, 60, 60)" stroke-width="1px" opacity="0.25"></line><line x1="163.3426659901937" y1="0" x2="163.3426659901937" y2="178.58999919891357" fill="rgb(0, 0, 0)" stroke="rgb(60, 60, 60)" stroke-width="1px" opacity="0.25"></line><line x1="186.67733256022134" y1="0" x2="186.67733256022134" y2="178.58999919891357" fill="rgb(0, 0, 0)" stroke="rgb(60, 60, 60)" stroke-width="1px" opacity="0.25"></line><line x1="210.01199913024902" y1="0" x2="210.01199913024902" y2="178.58999919891357" fill="rgb(0, 0, 0)" stroke="rgb(60, 60, 60)" stroke-width="1px" opacity="0.25"></line><line x1="233.3466657002767" y1="0" x2="233.3466657002767" y2="178.58999919891357" fill="rgb(0, 0, 0)" stroke="rgb(60, 60, 60)" stroke-width="1px" opacity="0.25"></line><line x1="256.6813322703043" y1="0" x2="256.6813322703043" y2="178.58999919891357" fill="rgb(0, 0, 0)" stroke="rgb(60, 60, 60)" stroke-width="1px" opacity="0.25"></line><line x1="280.01599884033203" y1="0" x2="280.01599884033203" y2="178.58999919891357" fill="rgb(0, 0, 0)" stroke="rgb(60, 60, 60)" stroke-width="1px" opacity="0.25"></line></g><g><line x1="0" y1="178.58999919891357" x2="280.01599884033203" y2="178.58999919891357" fill="rgb(0, 0, 0)" stroke="rgb(60, 60, 60)" stroke-width="1px" opacity="0.25"></line><line x1="0" y1="166.68399925231932" x2="280.01599884033203" y2="166.68399925231932" fill="rgb(0, 0, 0)" stroke="rgb(60, 60, 60)" stroke-width="1px" opacity="0.25"></line><line x1="0" y1="154.7779993057251" x2="280.01599884033203" y2="154.7779993057251" fill="rgb(0, 0, 0)" stroke="rgb(60, 60, 60)" stroke-width="1px" opacity="0.25"></line><line x1="0" y1="142.87199935913085" x2="280.01599884033203" y2="142.87199935913085" fill="rgb(0, 0, 0)" stroke="rgb(60, 60, 60)" stroke-width="1px" opacity="0.25"></line><line x1="0" y1="130.96599941253663" x2="280.01599884033203" y2="130.96599941253663" fill="rgb(0, 0, 0)" stroke="rgb(60, 60, 60)" stroke-width="1px" opacity="0.25"></line><line x1="0" y1="119.0599994659424" x2="280.01599884033203" y2="119.0599994659424" fill="rgb(0, 0, 0)" stroke="rgb(60, 60, 60)" stroke-width="1px" opacity="0.25"></line><line x1="0" y1="107.15399951934816" x2="280.01599884033203" y2="107.15399951934816" fill="rgb(0, 0, 0)" stroke="rgb(60, 60, 60)" stroke-width="1px" opacity="0.25"></line><line x1="0" y1="95.24799957275393" x2="280.01599884033203" y2="95.24799957275393" fill="rgb(0, 0, 0)" stroke="rgb(60, 60, 60)" stroke-width="1px" opacity="0.25"></line><line x1="0" y1="83.34199962615966" x2="280.01599884033203" y2="83.34199962615966" fill="rgb(0, 0, 0)" stroke="rgb(60, 60, 60)" stroke-width="1px" opacity="0.25"></line><line x1="0" y1="71.43599967956543" x2="280.01599884033203" y2="71.43599967956543" fill="rgb(0, 0, 0)" stroke="rgb(60, 60, 60)" stroke-width="1px" opacity="0.25"></line><line x1="0" y1="59.5299997329712" x2="280.01599884033203" y2="59.5299997329712" fill="rgb(0, 0, 0)" stroke="rgb(60, 60, 60)" stroke-width="1px" opacity="0.25"></line><line x1="0" y1="47.62399978637694" x2="280.01599884033203" y2="47.62399978637694" fill="rgb(0, 0, 0)" stroke="rgb(60, 60, 60)" stroke-width="1px" opacity="0.25"></line><line x1="0" y1="35.717999839782685" x2="280.01599884033203" y2="35.717999839782685" fill="rgb(0, 0, 0)" stroke="rgb(60, 60, 60)" stroke-width="1px" opacity="0.25"></line><line x1="0" y1="23.81199989318847" x2="280.01599884033203" y2="23.81199989318847" fill="rgb(0, 0, 0)" stroke="rgb(60, 60, 60)" stroke-width="1px" opacity="0.25"></line><line x1="0" y1="11.905999946594216" x2="280.01599884033203" y2="11.905999946594216" fill="rgb(0, 0, 0)" stroke="rgb(60, 60, 60)" stroke-width="1px" opacity="0.25"></line><line x1="0" y1="0" x2="280.01599884033203" y2="0" fill="rgb(0, 0, 0)" stroke="rgb(60, 60, 60)" stroke-width="1px" opacity="0.25"></line></g></g></g><g><g><line x1="0" y1="166.68399925231932" x2="280.01599884033203" y2="166.68399925231932" fill="rgb(0, 0, 0)" stroke="rgb(153, 153, 153)" stroke-width="1.5px"></line></g></g><g><g><line x1="23.334666570027668" y1="0" x2="23.334666570027668" y2="178.58999919891357" fill="rgb(0, 0, 0)" stroke="rgb(153, 153, 153)" stroke-width="1.5px"></line></g></g><g><g><g><g><g><path style="fill: none;" stroke="rgb(204, 51, 17)" stroke-width="2px" d="M29.86837320963542,-0.09156403033477513L30.801759872436524,0.328603674753557L31.73514653523763,1.9950655038138927L32.66853319803874,2.66520011534364L33.60191986083984,3.8419206131356756L34.535306523640955,6.156516321928624L35.46869318644206,10.063836733484155L36.402079849243165,13.528530230336944L37.33546651204427,16.48003045906466L38.268853174845376,24.641824325676136L39.20223983764649,35.279489886897885L40.13562650044759,41.69502315382999L41.0690131632487,50.98939906610083L42.0023998260498,59.644624280336046L42.93578648885091,66.77901829628973L43.86917315165202,73.06510372629731L44.802559814453126,80.49733174470865L45.73594647725423,87.25754879367531L46.669333140055336,96.14134284875954L47.60271980285645,102.02143217921865L48.536106465657554,106.03489616026926L49.46949312845866,110.1064013955026L50.402879791259764,112.27152833936702L51.33626645406087,115.59180094819263L52.26965311686198,118.1039042421171L53.20303977966309,120.60869257215067L54.13642644246419,123.99594378832681L55.0698131052653,124.12164017797585L56.00319976806641,127.7608014837037L56.936586430867514,130.48569669989772L57.86997309366862,130.8704510783836L58.803359756469725,134.29642362785293L59.73674641927084,135.66298244464082L60.67013308207194,136.6125585442718L61.60351974487305,136.63883640202258L62.53690640767415,137.67271445255716L63.47029307047526,139.65482403338137L64.40367973327638,140.97720718183828L65.33706639607747,141.94450486933744L66.27045305887857,142.65675260252485L67.20383972167969,142.0111181254564L68.1372263844808,144.23213975831564L69.07061304728191,145.388644565311L70.00399971008301,145.9087130046854L70.93738637288412,146.0472694823704L71.87077303568522,147.25588163971057L72.80415969848633,146.9926365722749L73.73754636128743,146.90478691607132L74.67093302408854,147.79398380085425L75.60431968688965,148.78660832550517L76.53770634969075,148.82420283726248L77.47109301249186,149.18847373648586L78.40447967529298,149.61330540651664L79.33786633809407,148.4084015612605L80.27125300089519,149.25205066939913L81.20463966369628,150.6448329176904L82.1380263264974,151.4361773466865L83.07141298929851,151.21434472140615L84.0047996520996,152.04209991193267L84.93818631490072,151.60634895486805L85.87157297770182,151.21019490623505L86.80495964050293,151.78670498769384L87.73834630330404,152.34710468932164L88.67173296610514,152.14316417606716L89.60511962890625,152.9860197087818L90.53850629170735,152.87637703378724L91.47189295450846,153.41090526577173L92.40527961730957,153.69289218842778L93.33866628011067,153.6353864335639L94.27205294291178,153.96418552360976L95.2054396057129,153.4111450660063L96.138826268514,154.38358936799744L97.07221293131511,154.47218092041751L98.0055995941162,154.24445949295148L98.93898625691732,154.62620785299723L99.87237291971843,154.8832977387905L100.80575958251953,155.0442383746933L101.73914624532064,154.7501111596913L102.67253290812174,155.26837011464409L103.60591957092285,154.75744524227892L104.53930623372396,155.50787360157227L105.47269289652506,155.90170966353153L106.40607955932617,155.54402934170395L107.33946622212729,156.07150660284208L108.27285288492838,156.86493931749678L109.2062395477295,156.42531145856287L110.1396262105306,156.49358807565116L111.0730128733317,157.15225863679183L112.00639953613282,156.98167104030608L112.93978619893392,156.45328759088062L113.87317286173503,156.26674068983812L114.80655952453613,156.53168578453588L115.73994618733724,156.54682039208672L116.67333285013835,156.88515952112903L117.60671951293945,156.96000855592484L118.54010617574056,157.38627834739663L119.47349283854167,157.58854339342716L120.40687950134277,157.3811202336279L121.34026616414388,157.3567752978682L122.27365282694498,158.31359338201557L123.2070394897461,158.870478875417L124.1404261525472,157.864289630992L125.0738128153483,158.22068819827447L126.00719947814942,158.1812855732079L126.94058614095051,158.59046981619565L127.87397280375163,158.9830348128241L128.80735946655275,158.71320035447397L129.74074612935382,158.79432599144025L130.67413279215495,159.1277760333174L131.60751945495605,159.1241091468984L132.54090611775715,158.78122169062075L133.47429278055827,158.30270077200908L134.40767944335937,158.36637461565277L135.3410661061605,158.60103852033347L136.2744527689616,159.06035374398374L137.2078394317627,159.10900173618577L138.14122609456382,159.1296523426706L139.0746127573649,159.07408953853368L140.00799942016602,159.4376685278122L140.9413860829671,159.40239656530568L141.87477274576824,159.5319599375557L142.80815940856934,159.642435845787L143.74154607137044,160.0379181928487L144.67493273417156,160.45727597105835L145.60831939697266,160.15889615900684L146.54170605977376,159.81969304851805L147.47509272257486,159.5043153376924L148.40847938537598,158.9352359981835L149.34186604817708,159.2216793430567L150.27525271097818,158.96546959362243L151.2086393737793,159.4091618422948L152.1420260365804,159.41775598061838L153.0754126993815,159.80985585096477L154.00879936218263,160.24282648972542L154.94218602498373,160.20725577236766L155.87557268778482,160.66120762797945L156.80895935058595,160.3844656512679L157.74234601338705,159.73553661888891L158.67573267618815,160.24477398749877L159.60911933898925,160.50370676118249L160.54250600179037,160.7503586579139L161.47589266459147,160.87393330094767L162.40927932739257,160.81348496339928L163.3426659901937,160.7686637563891L164.2760526529948,160.581497699412L165.2094393157959,160.81286664147444L166.14282597859702,160.91988384763053L167.07621264139812,160.45884014389966L168.0095993041992,160.3916252177749L168.94298596700034,160.51569179113943L169.87637262980144,160.70642273288675L170.80975929260254,160.15373364065312L171.74314595540363,159.9268640659197L172.67653261820476,160.59433800468557L173.60991928100586,160.79248506932697L174.54330594380696,160.63150909163878L175.47669260660808,160.82404514354693L176.41007926940918,160.83329483398353L177.34346593221028,161.10306048608865L178.2768525950114,160.55652359770744L179.2102392578125,160.13123549042098L180.1436259206136,160.39918308203727L181.0770125834147,161.20193167938635L182.01039924621583,161.40102277892385L182.94378590901692,161.2950354384042L183.87717257181802,161.1356061844156L184.81055923461915,161.31915127458174L185.74394589742025,161.22057970149L186.67733256022134,160.96130612470162L187.61071922302247,160.76881146442884L188.54410588582357,160.85120705595972L189.47749254862467,160.73839646891994L190.4108792114258,160.43600413011663L191.3442658742269,161.0360154338563L192.277652537028,160.87219902633018L193.2110391998291,160.97175260345912L194.14442586263021,161.25213889929233L195.0778125254313,161.45233610449458L196.0111991882324,161.31596298414894L196.94458585103354,161.54194360488222L197.87797251383464,161.9188549449313" fill="none"></path></g><g><path style="fill: none;" stroke="rgb(204, 51, 17)" stroke-width="2px" d="M28.001599884033205,-4.327175078068347L28.93498654683431,0.15030155633992084L29.86837320963542,1.963151053670614L30.801759872436524,6.935748020122228L31.73514653523763,15.429839644557049L32.66853319803874,23.88706160925172L33.60191986083984,35.76430924362391L34.535306523640955,52.43547938717401L35.46869318644206,66.20299280307081L36.402079849243165,79.2580938221846L37.33546651204427,86.45770999084823L38.268853174845376,95.10122984775614L39.20223983764649,102.46449874415241L40.13562650044759,106.01162003764216L41.0690131632487,112.65276689205099L42.0023998260498,119.00037069072316L42.93578648885091,122.40101799422354L43.86917315165202,125.49664701867269L44.802559814453126,129.40433204145555L45.73594647725423,129.69035145332828L46.669333140055336,129.11747439042705L47.60271980285645,133.71677864542232L48.536106465657554,137.4199735782155L49.46949312845866,137.38420916725013L50.402879791259764,140.27827281577453L51.33626645406087,141.7719986274787L52.26965311686198,143.89160471508112L53.20303977966309,145.12450553619723L54.13642644246419,145.1256995547929L55.0698131052653,145.37518550308084L56.00319976806641,145.6759394638546L56.936586430867514,146.57703868299416L57.86997309366862,146.87513601102683L58.803359756469725,147.88326143133253L59.73674641927084,148.63809272639946L60.67013308207194,149.5323501876152L61.60351974487305,152.00157407555432L62.53690640767415,151.32166819162344L63.47029307047526,151.11617727863958L64.40367973327638,151.03085199950453L65.33706639607747,151.25303003087893L66.27045305887857,152.4835106146459L67.20383972167969,152.6884369756728L68.1372263844808,153.27911827534027L69.07061304728191,153.38830081917507L70.00399971008301,154.0077707196731L70.93738637288412,154.16307416912105L71.87077303568522,153.5756263706518L72.80415969848633,153.968898213055L73.73754636128743,154.10921359131697L74.67093302408854,154.31593361651736L75.60431968688965,153.37844128003368L76.53770634969075,154.48737538046498L77.47109301249186,155.32842709234603L78.40447967529298,155.1742621420358L79.33786633809407,155.24781414368573L80.27125300089519,155.5555359783162L81.20463966369628,155.8127076693195L82.1380263264974,155.55365845105442L83.07141298929851,155.70284139430302L84.0047996520996,155.8141467296935L84.93818631490072,155.8507987785523L85.87157297770182,156.01887241164698L86.80495964050293,156.27994982888606L87.73834630330404,156.3446749394147L88.67173296610514,157.49994765337146L89.60511962890625,157.5947869566625L90.53850629170735,157.1149885680831L91.47189295450846,157.14610383476412L92.40527961730957,157.69833652538748L93.33866628011067,157.9459651291444L94.27205294291178,158.45861551740947L95.2054396057129,158.47299562409165L96.138826268514,158.60023081547385L97.07221293131511,158.01988078335836L98.0055995941162,157.75903613230187L98.93898625691732,157.51802777772312L99.87237291971843,157.99911520887792L100.80575958251953,158.63022202771185L101.73914624532064,158.54750528769443L102.67253290812174,159.02761126139595L103.60591957092285,159.3292584891414L104.53930623372396,159.6085034144328L105.47269289652506,159.23584732648374L106.40607955932617,159.28515477595695L107.33946622212729,159.0986557929847L108.27285288492838,159.7814904736628L109.2062395477295,159.14736407701102L110.1396262105306,159.23601830256536L111.0730128733317,159.32413569559614L112.00639953613282,159.6470570902076L112.93978619893392,159.40940004389054L113.87317286173503,159.6279747876281L114.80655952453613,159.54426796123133L115.73994618733724,159.9834476477413L116.67333285013835,160.20795932327601L117.60671951293945,160.56435816810207L118.54010617574056,160.15318984614177L119.47349283854167,160.0017712863162L120.40687950134277,160.3236253572586L121.34026616414388,160.30664470468903L122.27365282694498,160.21914069444261L123.2070394897461,160.30409610299748L124.1404261525472,160.21919672058752L125.0738128153483,159.89949734579557L126.00719947814942,160.73896500445358L126.94058614095051,161.22517944512157L127.87397280375163,161.00273868294374L128.80735946655275,161.2814723854795L129.74074612935382,161.70142195535067L130.67413279215495,161.63069584793132L131.60751945495605,161.6938121813235L132.54090611775715,161.58538898808203L133.47429278055827,161.93696572397747L134.40767944335937,162.01398003864657L135.3410661061605,161.85869333199275L136.2744527689616,161.8562507857739L137.2078394317627,161.54410915465218L138.14122609456382,161.41857533250908L139.0746127573649,161.51588520307214L140.00799942016602,161.247485901246L140.9413860829671,161.13896577954975L141.87477274576824,161.58653162013326L142.80815940856934,161.88656658455434L143.74154607137044,161.37905436909665L144.67493273417156,162.31079015245854L145.60831939697266,161.5529804565165L146.54170605977376,161.8788734404793L147.47509272257486,161.79530185919918L148.40847938537598,161.41338748759597L149.34186604817708,161.6552833942837L150.27525271097818,161.78308340835724L151.2086393737793,161.97302597078982L152.1420260365804,162.10750615421068L153.0754126993815,162.22087537691266L154.00879936218263,162.2246284377632L154.94218602498373,161.97146590649172L155.87557268778482,162.55302783358104L156.80895935058595,162.2670848472817L157.74234601338705,162.64879177603945L158.67573267618815,162.63825113073858L159.60911933898925,162.26149254380033L160.54250600179037,162.43527393024485L161.47589266459147,162.80962982449572L162.40927932739257,162.66715987615072L163.3426659901937,162.34389362370806L164.2760526529948,162.63210522708548L165.2094393157959,162.92305527215012L166.14282597859702,162.67519554128336L167.07621264139812,162.8689738034666L168.0095993041992,163.09605155271072L168.94298596700034,163.0736228303982L169.87637262980144,163.2071520098749L170.80975929260254,163.18528121915526L171.74314595540363,162.97583504475884L172.67653261820476,163.04351794927146L173.60991928100586,162.77451943878614L174.54330594380696,162.8589455154991L175.47669260660808,162.92431501599728L176.41007926940918,163.03490925810402L177.34346593221028,163.10016096251323L178.2768525950114,163.45817127352367L179.2102392578125,163.28563462690298L180.1436259206136,163.19433747456958L181.0770125834147,163.2074804168169L182.01039924621583,163.16956864371772L182.94378590901692,163.3906851048404L183.87717257181802,163.398461748775L184.81055923461915,163.65491169610706L185.74394589742025,163.6852595698719L186.67733256022134,163.48017281649044L187.61071922302247,163.45642018803858L188.54410588582357,163.15630481148563L189.47749254862467,163.04731690355388L190.4108792114258,163.18279043566304L191.3442658742269,163.36216907659215L192.277652537028,162.92355123325638L193.2110391998291,163.06296652730714L194.14442586263021,163.4010386864216L195.0778125254313,163.26288693422632L196.0111991882324,163.3538038044481L196.94458585103354,163.2321106537112L197.87797251383464,163.22879287906517L198.81135917663573,163.23917483513247L199.74474583943686,163.1403951615155L200.67813250223796,162.78442680329206L201.61151916503906,162.80574870361653L202.54490582784018,162.90435555596358L203.47829249064128,163.21962372906336L204.41167915344238,163.16497291260254L205.34506581624348,163.41661041698296L206.2784524790446,163.35735274891314L207.2118391418457,163.38615594840041L208.1452258046468,163.39844634702487L209.07861246744793,163.66924232245043L210.01199913024902,163.6793396892874L210.94538579305012,163.86500185484908L211.87877245585125,163.82552073871207L212.81215911865235,164.07152341121704L213.74554578145344,163.39457895827374L214.67893244425457,163.5025885434955L215.61231910705567,163.5516729104569L216.54570576985677,163.80381553719138L217.47909243265786,163.9687103042609L218.412479095459,163.6829412240296L219.3458657582601,163.97801463879006L220.2792524210612,164.0953068894485L221.2126390838623,164.1167993080108L222.1460257466634,164.01423884546674L223.0794124094645,163.98805729788114L224.01279907226564,163.99001375890757L224.94618573506673,164.10075981703162L225.87957239786783,163.67459346596954L226.81295906066896,163.81799880792224L227.74634572347006,163.8624591032046L228.67973238627116,164.07687280122505L229.61311904907225,163.96802272671934L230.54650571187338,163.93336525185782L231.47989237467448,164.10744349284997L232.41327903747558,164.1374661220583L233.3466657002767,164.10342532895154L234.2800523630778,164.11400949127076L235.2134390258789,163.9263238548128L236.14682568868002,164.13608099488115L237.08021235148112,164.4196817151383L238.01359901428222,164.38828360402286L238.94698567708335,164.30022616950293L239.88037233988445,164.23964859731961L240.81375900268554,164.26079201100984L241.74714566548664,163.94113722864526L242.68053232828777,164.29467761620637L243.61391899108887,164.58902369710796L244.54730565388996,164.48514316686575L245.4806923166911,164.71114788545913L246.4140789794922,164.86742166362714L247.3474656422933,164.75421521943534L248.2808523050944,164.81065008396754L249.2142389678955,164.74949774955093L250.1476256306966,164.78278140674033L251.0810122934977,164.82455098487958L252.01439895629883,164.7147476339215L252.94778561909993,164.73991293691157L253.88117228190103,164.6262017793855L254.81455894470216,164.57446936975353L255.74794560750325,164.55546244367812L256.6813322703043,164.32076085884705" fill="none"></path></g></g></g></g><g opacity="0.2"><g><g><g><path style="fill: none;" stroke="rgb(204, 51, 17)" stroke-width="2px" d="M26.13482655843099,-3.8692802336700662L27.068213221232096,1.3613583780258482L28.001599884033205,-1.4039886468852512L28.93498654683431,-0.266102804897697L29.86837320963542,0.8019248058587265L30.801759872436524,0.9482694263837685L31.73514653523763,4.469567103841137L32.66853319803874,3.664323961033632L33.60191986083984,5.60059769883872L34.535306523640955,9.620852328537183L35.46869318644206,15.917162503369752L36.402079849243165,18.721497858470165L37.33546651204427,20.905199175522007L38.268853174845376,36.88106132796241L39.20223983764649,51.233287326596894L40.13562650044759,51.31734571230725L41.0690131632487,64.93011339173366L42.0023998260498,72.62698742856806L42.93578648885091,77.48037455994627L43.86917315165202,82.49410776351745L44.802559814453126,91.64558573049925L45.73594647725423,97.39782631839587L46.669333140055336,109.46699604606229L47.60271980285645,110.84155112937027L48.536106465657554,112.05508597023268L49.46949312845866,116.21365549792083L50.402879791259764,115.5192175585309L51.33626645406087,120.5722087603925L52.26965311686198,121.87205868317933L53.20303977966309,124.36587476817968L54.13642644246419,129.07682036996914L55.0698131052653,124.31018475704737L56.00319976806641,133.21954334845586L56.936586430867514,134.57303948203014L57.86997309366862,131.4475826425408L58.803359756469725,139.43538243297496L59.73674641927084,137.71282066525578L60.67013308207194,138.03692269181425L61.60351974487305,136.67825318861708L62.53690640767415,139.22353152761278L63.47029307047526,142.62798840375922L64.40367973327638,142.96078190417998L65.33706639607747,143.3954514004354L66.27045305887857,143.72512420223933L67.20383972167969,141.04266640988996L68.1372263844808,147.5636722075297L69.07061304728191,147.12340177578068L70.00399971008301,146.68881566374068L70.93738637288412,146.2551041988969L71.87077303568522,149.0687998757155L72.80415969848633,146.59776897112206L73.73754636128743,146.7730124317661L74.67093302408854,149.12777912802778L75.60431968688965,150.27554511248096L76.53770634969075,148.88059460489845L77.47109301249186,149.7348800853208L78.40447967529298,150.2505529115628L79.33786633809407,146.60104579337636L80.27125300089519,150.51752433160704L81.20463966369628,152.7340062901272L82.1380263264974,152.62319399018062L83.07141298929851,150.88159578348566L84.0047996520996,153.28373269772248L84.93818631490072,150.9527225192711L85.87157297770182,150.6159638332855L86.80495964050293,152.651470109882L87.73834630330404,153.18770424176333L88.67173296610514,151.83725340618545L89.60511962890625,154.25030300785377L90.53850629170735,152.7119130212954L91.47189295450846,154.21269761374845L92.40527961730957,154.11587257241183L93.33866628011067,153.5491278012681L94.27205294291178,154.45738415867854L95.2054396057129,152.5815843796011L96.138826268514,155.84225582098412L97.07221293131511,154.60506824904763L98.0055995941162,153.9028773517524L98.93898625691732,155.1988303930658L99.87237291971843,155.26893256748045L100.80575958251953,155.2856493285475L101.73914624532064,154.3089203371883L102.67253290812174,156.0457585470732L103.60591957092285,153.9910579337312L104.53930623372396,156.63351614051228L105.47269289652506,156.49246375647044L106.40607955932617,155.00750885896252L107.33946622212729,156.86272249454925L108.27285288492838,158.05508838947884L109.2062395477295,155.765869670162L110.1396262105306,156.59600300128363L111.0730128733317,158.1402644785028L112.00639953613282,156.72578964557746L112.93978619893392,155.66071241674246L113.87317286173503,155.9869203382743L114.80655952453613,156.92910342658257L115.73994618733724,156.56952230341295L116.67333285013835,157.39266821469246L117.60671951293945,157.0722821081186L118.54010617574056,158.0256830346043L119.47349283854167,157.89194096247294L120.40687950134277,157.069985493929L121.34026616414388,157.32025789422866L122.27365282694498,159.74882050823658L123.2070394897461,159.70580711551915L124.1404261525472,156.3550057643545L125.0738128153483,158.7552860491982L126.00719947814942,158.12218163560806L126.94058614095051,159.20424618067727L127.87397280375163,159.5718823077667L128.80735946655275,158.30844866694878L129.74074612935382,158.91601444688968L130.67413279215495,159.62795109613305L131.60751945495605,159.11860881726994L132.54090611775715,158.26689050620433L133.47429278055827,157.5849193940915L134.40767944335937,158.46188538111835L135.3410661061605,158.95303437735456L136.2744527689616,159.74932657945914L137.2078394317627,159.18197372448884L138.14122609456382,159.16062825239777L139.0746127573649,158.99074533232837L140.00799942016602,159.98303701173L140.9413860829671,159.34948862154585L141.87477274576824,159.72630499593075L142.80815940856934,159.80814970813395L143.74154607137044,160.6311417134413L144.67493273417156,161.08631263837282L145.60831939697266,159.71132644092955L146.54170605977376,159.31088838278484L147.47509272257486,159.0312487714539L148.40847938537598,158.0816169889201L149.34186604817708,159.6513443603665L150.27525271097818,158.58115496947104L151.2086393737793,160.07470021530332L152.1420260365804,159.43064718810376L153.0754126993815,160.39800565648434L154.00879936218263,160.89228244786634L154.94218602498373,160.15389969633102L155.87557268778482,161.3421354113971L156.80895935058595,159.96935268620066L157.74234601338705,158.7621430703204L158.67573267618815,161.00863004041352L159.60911933898925,160.8921059217081L160.54250600179037,161.12033650301098L161.47589266459147,161.05929526549838L162.40927932739257,160.72281245707669L163.3426659901937,160.7014319458738L164.2760526529948,160.30074861394638L165.2094393157959,161.15992005456812L166.14282597859702,161.08040965686467L167.07621264139812,159.76727458830334L168.0095993041992,160.29080282858774L168.94298596700034,160.70179165118623L169.87637262980144,160.99251914550774L170.80975929260254,159.32470000230268L171.74314595540363,159.58655970381952L172.67653261820476,161.59554891283437L173.60991928100586,161.08970566628903L174.54330594380696,160.3900451251065L175.47669260660808,161.11284922140916L176.41007926940918,160.8471693696384L177.34346593221028,161.50770896424638L178.2768525950114,159.73671826513564L179.2102392578125,159.49330332949128L180.1436259206136,160.80110446946168L181.0770125834147,162.40605457541L182.01039924621583,161.69965942823006L182.94378590901692,161.13605442762477L183.87717257181802,160.89646230343268L184.81055923461915,161.59446890983097L185.74394589742025,161.07272234185237L186.67733256022134,160.57239575951908L187.61071922302247,160.48006947401964L188.54410588582357,160.97480044325604L189.47749254862467,160.5691805883603L190.4108792114258,159.98241562191163L191.3442658742269,161.9360323894658L192.277652537028,160.62647441504097L193.2110391998291,161.12108296915255L194.14442586263021,161.67271834304213L195.0778125254313,161.75263191229794L196.0111991882324,161.11140330363048L196.94458585103354,161.88091453598213L197.87797251383464,162.48422195500487" fill="none"></path></g><g><path style="fill: none;" stroke="rgb(204, 51, 17)" stroke-width="2px" d="M27.068213221232096,-9.555317302757715L28.001599884033205,1.6414299905581524L28.93498654683431,6.553164783169855L29.86837320963542,4.606303024133866L30.801759872436524,14.269362668403524L31.73514653523763,28.042575771428524L32.66853319803874,36.49618817552545L33.60191986083984,53.515545238055275L34.535306523640955,77.38780033946576L35.46869318644206,86.82729093490305L36.402079849243165,98.82539956967703L37.33546651204427,97.25205651671781L38.268853174845376,108.06285198519251L39.20223983764649,113.50753255557163L40.13562650044759,111.33176160964953L41.0690131632487,122.61388014653616L42.0023998260498,128.52142827105337L42.93578648885091,127.50187704972605L43.86917315165202,130.14002943755145L44.802559814453126,135.26581328537537L45.73594647725423,130.11937853823383L46.669333140055336,128.25816123913415L47.60271980285645,140.61572325955623L48.536106465657554,142.9747602921287L49.46949312845866,137.33056258374614L50.402879791259764,144.61936668905614L51.33626645406087,144.01258684969923L52.26965311686198,147.07101342475406L53.20303977966309,146.97385662068783L54.13642644246419,145.12749058260084L55.0698131052653,145.7494144147907L56.00319976806641,146.12707039725996L56.936586430867514,147.928687497762L57.86997309366862,147.32228200030855L58.803359756469725,149.39544955617606L59.73674641927084,149.77033966647727L60.67013308207194,150.8737363776457L61.60351974487305,155.70540990449229L62.53690640767415,150.3018093662179L63.47029307047526,150.80794090925284L64.40367973327638,150.90286408082412L65.33706639607747,151.58629707790584L66.27045305887857,154.32923149018123L67.20383972167969,152.99582651720164L68.1372263844808,154.16514022482164L69.07061304728191,153.55207463492502L70.00399971008301,154.93697557041264L70.93738637288412,154.39602934329184L71.87077303568522,152.69445467295049L72.80415969848633,154.5588059766588L73.73754636128743,154.31968665870968L74.67093302408854,154.62601365431772L75.60431968688965,151.9722027753087L76.53770634969075,156.1507765311116L77.47109301249186,156.5900046601674L78.40447967529298,154.94301471657047L79.33786633809407,155.35814214616065L80.27125300089519,156.01711873026184L81.20463966369628,156.19846520582445L82.1380263264974,155.16508462365684L83.07141298929851,155.92661580917593L84.0047996520996,155.9811047327792L84.93818631490072,155.90577685184047L85.87157297770182,156.270982861289L86.80495964050293,156.67156595474466L87.73834630330404,156.44176260520766L88.67173296610514,159.2328567243066L89.60511962890625,157.737045911599L90.53850629170735,156.39529098521405L91.47189295450846,157.1927767347856L92.40527961730957,158.52668556132247L93.33866628011067,158.31740803477987L94.27205294291178,159.22759109980706L95.2054396057129,158.4945657841149L96.138826268514,158.79108360254708L97.07221293131511,157.1493557351852L98.0055995941162,157.36776915571713L98.93898625691732,157.15651524585496L99.87237291971843,158.72074635561012L100.80575958251953,159.57688225596274L101.73914624532064,158.42343017766825L102.67253290812174,159.74777022194826L103.60591957092285,159.78172933075956L104.53930623372396,160.02737080236986L105.47269289652506,158.67686319456018L106.40607955932617,159.35911595016674L107.33946622212729,158.8189073185263L108.27285288492838,160.80574249468L109.2062395477295,158.1961744820333L110.1396262105306,159.36899964089685L111.0730128733317,159.4563117851423L112.00639953613282,160.13143918212475L112.93978619893392,159.05291447441496L113.87317286173503,159.95583690323446L114.80655952453613,159.41870772163617L115.73994618733724,160.64221717750618L116.67333285013835,160.54472683657815L117.60671951293945,161.09895643534117L118.54010617574056,159.53643736320126L119.47349283854167,159.7746434465779L120.40687950134277,160.80640646367223L121.34026616414388,160.2811737258346L122.27365282694498,160.087884679073L123.2070394897461,160.43152921582978L124.1404261525472,160.09184764697255L125.0738128153483,159.41994828360765L126.00719947814942,161.99816649244056L126.94058614095051,161.95450110612356L127.87397280375163,160.66907753967703L128.80735946655275,161.69957293928317L129.74074612935382,162.33134631015741L130.67413279215495,161.5246066868023L131.60751945495605,161.7884866814117L132.54090611775715,161.42275419821985L133.47429278055827,162.46433082782065L134.40767944335937,162.12950151065016L135.3410661061605,161.62576327201208L136.2744527689616,161.85258696644567L137.2078394317627,161.07589670796958L138.14122609456382,161.23027459929443L139.0746127573649,161.66185000891673L140.00799942016602,160.8448869485068L140.9413860829671,160.97618559700538L141.87477274576824,162.25788038100853L142.80815940856934,162.33661903118593L143.74154607137044,160.61778604591012L144.67493273417156,163.7083938275014L145.60831939697266,160.41626591260348L146.54170605977376,162.3677129164235L147.47509272257486,161.66994448727897L148.40847938537598,160.84051593019117L149.34186604817708,162.01812725431535L150.27525271097818,161.97478342946752L151.2086393737793,162.2579398144387L152.1420260365804,162.30922642934195L153.0754126993815,162.39092921096562L154.00879936218263,162.230258029039L154.94218602498373,161.59172210958454L155.87557268778482,163.425370724215L156.80895935058595,161.8381703678327L157.74234601338705,163.22135216917607L158.67573267618815,162.62244016278729L159.60911933898925,161.69635466339295L160.54250600179037,162.69594600991164L161.47589266459147,163.371163665872L162.40927932739257,162.4534549536332L163.3426659901937,161.85899424504407L164.2760526529948,163.06442263215158L165.2094393157959,163.3594803397471L166.14282597859702,162.30340594498315L167.07621264139812,163.15964119674143L168.0095993041992,163.4366681765769L168.94298596700034,163.03997974692942L169.87637262980144,163.40744577908998L170.80975929260254,163.15247503307575L171.74314595540363,162.66166578316424L172.67653261820476,163.14504230604044L173.60991928100586,162.37102167305815L174.54330594380696,162.98558463056852L175.47669260660808,163.02236926674456L176.41007926940918,163.2008006212641L177.34346593221028,163.19803851912707L178.2768525950114,163.99518674003926L179.2102392578125,163.02682965697196L180.1436259206136,163.05739174606947L181.0770125834147,163.2271948301879L182.01039924621583,163.11270098406894L182.94378590901692,163.72235979652444L183.87717257181802,163.41012671467686L184.81055923461915,164.0395866171052L185.74394589742025,163.73078138051915L186.67733256022134,163.1725426864182L187.61071922302247,163.42079124536076L188.54410588582357,162.70613174665624L189.47749254862467,162.88383504165625L190.4108792114258,163.38600073382673L191.3442658742269,163.63123703798587L192.277652537028,162.26562446825264L193.2110391998291,163.27208946838334L194.14442586263021,163.90814692509323L195.0778125254313,163.0556593059334L196.0111991882324,163.49017910978077L196.94458585103354,163.0495709276058L197.87797251383464,163.22381621709616L198.81135917663573,163.25474776923343L199.74474583943686,162.99222565109008L200.67813250223796,162.25047426595688L201.61151916503906,162.83773155410321L202.54490582784018,163.05226583448413L203.47829249064128,163.69252598871302L204.41167915344238,163.0829966879113L205.34506581624348,163.7940666735536L206.2784524790446,163.26846624680846L207.2118391418457,163.42936074763128L208.1452258046468,163.4168819449616L209.07861246744793,164.07543628558875L210.01199913024902,163.69448573954278L210.94538579305012,164.14349510319164L211.87877245585125,163.7662990645066L212.81215911865235,164.4405274199745L213.74554578145344,162.37916227885876L214.67893244425457,163.66460292132814L215.61231910705567,163.625299460899L216.54570576985677,164.1820294772931L217.47909243265786,164.21605245486518L218.412479095459,163.25428760368268L219.3458657582601,164.4206247609307L220.2792524210612,164.27124526543614L221.2126390838623,164.1490379358543L222.1460257466634,163.86039815165063L223.0794124094645,163.94878497650276L224.01279907226564,163.99294845044722L224.94618573506673,164.26687890421766L225.87957239786783,163.03534393937642L226.81295906066896,164.03310682085132L227.74634572347006,163.92914954612817L228.67973238627116,164.39849334825567L229.61311904907225,163.80474761496075L230.54650571187338,163.8813790395656L231.47989237467448,164.36856085433817L232.41327903747558,164.18250006587078L233.3466657002767,164.05236413929146L234.2800523630778,164.1298857347496L235.2134390258789,163.6447954001259L236.14682568868002,164.45071670498362L237.08021235148112,164.84508279552398L238.01359901428222,164.34118643734968L238.94698567708335,164.1681400177231L239.88037233988445,164.14878223904464L240.81375900268554,164.29250713154522L241.74714566548664,163.4616550550983L242.68053232828777,164.82498819754807L243.61391899108887,165.03054281846033L244.54730565388996,164.32932237150246L245.4806923166911,165.0501549633492L246.4140789794922,165.10183233087915L247.3474656422933,164.58440555314763L248.2808523050944,164.89530238076586L249.2142389678955,164.65776924792596L250.1476256306966,164.8327068925244L251.0810122934977,164.8872053520885L252.01439895629883,164.55004260748436L252.94778561909993,164.77766089139664L253.88117228190103,164.45563504309644L254.81455894470216,164.4968707553056L255.74794560750325,164.52695205456502L256.6813322703043,163.96870848160043" fill="none"></path></g></g></g></g></g></g><g transform="translate(49, 178)" clip-path="url(#clip_1)"><clipPath id="clip_1"><rect width="280" height="21"></rect></clipPath><g><g><line x1="0" y1="0" x2="0" y2="5" style="visibility: inherit;" fill="rgb(0, 0, 0)" stroke="rgb(204, 204, 204)" stroke-width="1px"></line><line x1="23.334666570027668" y1="0" x2="23.334666570027668" y2="5" style="visibility: inherit;" fill="rgb(0, 0, 0)" stroke="rgb(204, 204, 204)" stroke-width="1px"></line><line x1="46.669333140055336" y1="0" x2="46.669333140055336" y2="5" style="visibility: inherit;" fill="rgb(0, 0, 0)" stroke="rgb(204, 204, 204)" stroke-width="1px"></line><line x1="70.00399971008301" y1="0" x2="70.00399971008301" y2="5" style="visibility: inherit;" fill="rgb(0, 0, 0)" stroke="rgb(204, 204, 204)" stroke-width="1px"></line><line x1="93.33866628011067" y1="0" x2="93.33866628011067" y2="5" style="visibility: inherit;" fill="rgb(0, 0, 0)" stroke="rgb(204, 204, 204)" stroke-width="1px"></line><line x1="116.67333285013835" y1="0" x2="116.67333285013835" y2="5" style="visibility: inherit;" fill="rgb(0, 0, 0)" stroke="rgb(204, 204, 204)" stroke-width="1px"></line><line x1="140.00799942016602" y1="0" x2="140.00799942016602" y2="5" style="visibility: inherit;" fill="rgb(0, 0, 0)" stroke="rgb(204, 204, 204)" stroke-width="1px"></line><line x1="163.3426659901937" y1="0" x2="163.3426659901937" y2="5" style="visibility: inherit;" fill="rgb(0, 0, 0)" stroke="rgb(204, 204, 204)" stroke-width="1px"></line><line x1="186.67733256022134" y1="0" x2="186.67733256022134" y2="5" style="visibility: inherit;" fill="rgb(0, 0, 0)" stroke="rgb(204, 204, 204)" stroke-width="1px"></line><line x1="210.01199913024902" y1="0" x2="210.01199913024902" y2="5" style="visibility: inherit;" fill="rgb(0, 0, 0)" stroke="rgb(204, 204, 204)" stroke-width="1px"></line><line x1="233.3466657002767" y1="0" x2="233.3466657002767" y2="5" style="visibility: inherit;" fill="rgb(0, 0, 0)" stroke="rgb(204, 204, 204)" stroke-width="1px"></line><line x1="256.6813322703043" y1="0" x2="256.6813322703043" y2="5" style="visibility: inherit;" fill="rgb(0, 0, 0)" stroke="rgb(204, 204, 204)" stroke-width="1px"></line><line x1="280.01599884033203" y1="0" x2="280.01599884033203" y2="5" style="visibility: inherit;" fill="rgb(0, 0, 0)" stroke="rgb(204, 204, 204)" stroke-width="1px"></line></g><g transform="translate(0, 8)"><text style="text-anchor: middle; visibility: hidden; font-family: Roboto, sans-serif; font-size: 12px; font-weight: 200;" x="0" y="0" dx="0em" dy="0.95em" fill="rgb(50, 49, 63)" stroke="none" stroke-width="1px">-500</text><text style="text-anchor: middle; visibility: inherit; font-family: Roboto, sans-serif; font-size: 12px; font-weight: 200;" x="23.334666570027668" y="0" dx="0em" dy="0.95em" fill="rgb(50, 49, 63)" stroke="none" stroke-width="1px">0</text><text style="text-anchor: middle; visibility: inherit; font-family: Roboto, sans-serif; font-size: 12px; font-weight: 200;" x="46.669333140055336" y="0" dx="0em" dy="0.95em" fill="rgb(50, 49, 63)" stroke="none" stroke-width="1px">500</text><text style="text-anchor: middle; visibility: inherit; font-family: Roboto, sans-serif; font-size: 12px; font-weight: 200;" x="70.00399971008301" y="0" dx="0em" dy="0.95em" fill="rgb(50, 49, 63)" stroke="none" stroke-width="1px">1k</text><text style="text-anchor: middle; visibility: inherit; font-family: Roboto, sans-serif; font-size: 12px; font-weight: 200;" x="93.33866628011067" y="0" dx="0em" dy="0.95em" fill="rgb(50, 49, 63)" stroke="none" stroke-width="1px">1.5k</text><text style="text-anchor: middle; visibility: inherit; font-family: Roboto, sans-serif; font-size: 12px; font-weight: 200;" x="116.67333285013835" y="0" dx="0em" dy="0.95em" fill="rgb(50, 49, 63)" stroke="none" stroke-width="1px">2k</text><text style="text-anchor: middle; visibility: inherit; font-family: Roboto, sans-serif; font-size: 12px; font-weight: 200;" x="140.00799942016602" y="0" dx="0em" dy="0.95em" fill="rgb(50, 49, 63)" stroke="none" stroke-width="1px">2.5k</text><text style="text-anchor: middle; visibility: inherit; font-family: Roboto, sans-serif; font-size: 12px; font-weight: 200;" x="163.3426659901937" y="0" dx="0em" dy="0.95em" fill="rgb(50, 49, 63)" stroke="none" stroke-width="1px">3k</text><text style="text-anchor: middle; visibility: inherit; font-family: Roboto, sans-serif; font-size: 12px; font-weight: 200;" x="186.67733256022134" y="0" dx="0em" dy="0.95em" fill="rgb(50, 49, 63)" stroke="none" stroke-width="1px">3.5k</text><text style="text-anchor: middle; visibility: inherit; font-family: Roboto, sans-serif; font-size: 12px; font-weight: 200;" x="210.01199913024902" y="0" dx="0em" dy="0.95em" fill="rgb(50, 49, 63)" stroke="none" stroke-width="1px">4k</text><text style="text-anchor: middle; visibility: inherit; font-family: Roboto, sans-serif; font-size: 12px; font-weight: 200;" x="233.3466657002767" y="0" dx="0em" dy="0.95em" fill="rgb(50, 49, 63)" stroke="none" stroke-width="1px">4.5k</text><text style="text-anchor: middle; visibility: inherit; font-family: Roboto, sans-serif; font-size: 12px; font-weight: 200;" x="256.6813322703043" y="0" dx="0em" dy="0.95em" fill="rgb(50, 49, 63)" stroke="none" stroke-width="1px">5k</text><text style="text-anchor: middle; visibility: hidden; font-family: Roboto, sans-serif; font-size: 12px; font-weight: 200;" x="280.01599884033203" y="0" dx="0em" dy="0.95em" fill="rgb(50, 49, 63)" stroke="none" stroke-width="1px">5.5k</text></g><line x1="0" y1="0" x2="280.01599884033203" y2="0" fill="rgb(0, 0, 0)" stroke="rgb(204, 204, 204)" stroke-width="1px"></line></g></g></g></g></svg>