<svg viewBox="0 0 330 200" xmlns="http://www.w3.org/2000/svg"><g><g><g><g><g><line x1="30.766000747680664" y1="177.5999994277954" x2="25.766000747680664" y2="177.5999994277954" style="visibility: inherit;" fill="rgb(0, 0, 0)" stroke="rgb(204, 204, 204)" stroke-width="1px"></line><line x1="30.766000747680664" y1="155.39999949932098" x2="25.766000747680664" y2="155.39999949932098" style="visibility: inherit;" fill="rgb(0, 0, 0)" stroke="rgb(204, 204, 204)" stroke-width="1px"></line><line x1="30.766000747680664" y1="133.19999957084656" x2="25.766000747680664" y2="133.19999957084656" style="visibility: inherit;" fill="rgb(0, 0, 0)" stroke="rgb(204, 204, 204)" stroke-width="1px"></line><line x1="30.766000747680664" y1="110.99999964237213" x2="25.766000747680664" y2="110.99999964237213" style="visibility: inherit;" fill="rgb(0, 0, 0)" stroke="rgb(204, 204, 204)" stroke-width="1px"></line><line x1="30.766000747680664" y1="88.7999997138977" x2="25.766000747680664" y2="88.7999997138977" style="visibility: inherit;" fill="rgb(0, 0, 0)" stroke="rgb(204, 204, 204)" stroke-width="1px"></line><line x1="30.766000747680664" y1="66.59999978542328" x2="25.766000747680664" y2="66.59999978542328" style="visibility: inherit;" fill="rgb(0, 0, 0)" stroke="rgb(204, 204, 204)" stroke-width="1px"></line><line x1="30.766000747680664" y1="44.39999985694885" x2="25.766000747680664" y2="44.39999985694885" style="visibility: inherit;" fill="rgb(0, 0, 0)" stroke="rgb(204, 204, 204)" stroke-width="1px"></line><line x1="30.766000747680664" y1="22.199999928474426" x2="25.766000747680664" y2="22.199999928474426" style="visibility: inherit;" fill="rgb(0, 0, 0)" stroke="rgb(204, 204, 204)" stroke-width="1px"></line><line x1="30.766000747680664" y1="0" x2="25.766000747680664" y2="0" style="visibility: inherit;" fill="rgb(0, 0, 0)" stroke="rgb(204, 204, 204)" stroke-width="1px"></line></g><g transform="translate(20.766000747680664, 0)"><text style="text-anchor: end; visibility: hidden; font-family: Roboto, sans-serif; font-size: 12px; font-weight: 200;" x="0" y="177.5999994277954" dx="0em" dy="0.3em" fill="rgb(50, 49, 63)" stroke="none" stroke-width="1px">-1</text><text style="text-anchor: end; visibility: inherit; font-family: Roboto, sans-serif; font-size: 12px; font-weight: 200;" x="0" y="155.39999949932098" dx="0em" dy="0.3em" fill="rgb(50, 49, 63)" stroke="none" stroke-width="1px">0</text><text style="text-anchor: end; visibility: hidden; font-family: Roboto, sans-serif; font-size: 12px; font-weight: 200;" x="0" y="133.19999957084656" dx="0em" dy="0.3em" fill="rgb(50, 49, 63)" stroke="none" stroke-width="1px">1</text><text style="text-anchor: end; visibility: inherit; font-family: Roboto, sans-serif; font-size: 12px; font-weight: 200;" x="0" y="110.99999964237213" dx="0em" dy="0.3em" fill="rgb(50, 49, 63)" stroke="none" stroke-width="1px">2</text><text style="text-anchor: end; visibility: hidden; font-family: Roboto, sans-serif; font-size: 12px; font-weight: 200;" x="0" y="88.7999997138977" dx="0em" dy="0.3em" fill="rgb(50, 49, 63)" stroke="none" stroke-width="1px">3</text><text style="text-anchor: end; visibility: inherit; font-family: Roboto, sans-serif; font-size: 12px; font-weight: 200;" x="0" y="66.59999978542328" dx="0em" dy="0.3em" fill="rgb(50, 49, 63)" stroke="none" stroke-width="1px">4</text><text style="text-anchor: end; visibility: hidden; font-family: Roboto, sans-serif; font-size: 12px; font-weight: 200;" x="0" y="44.39999985694885" dx="0em" dy="0.3em" fill="rgb(50, 49, 63)" stroke="none" stroke-width="1px">5</text><text style="text-anchor: end; visibility: inherit; font-family: Roboto, sans-serif; font-size: 12px; font-weight: 200;" x="0" y="22.199999928474426" dx="0em" dy="0.3em" fill="rgb(50, 49, 63)" stroke="none" stroke-width="1px">6</text><text style="text-anchor: end; visibility: hidden; font-family: Roboto, sans-serif; font-size: 12px; font-weight: 200;" x="0" y="0" dx="0em" dy="0.3em" fill="rgb(50, 49, 63)" stroke="none" stroke-width="1px">7</text></g><line x1="30.766000747680664" y1="0" x2="30.766000747680664" y2="177.5999994277954" fill="rgb(0, 0, 0)" stroke="rgb(204, 204, 204)" stroke-width="1px"></line></g></g><g transform="translate(30, 0)" clip-path="url(#clip_0)"><clipPath id="clip_0"><rect width="299" height="177"></rect></clipPath><g><g><g><line x1="0" y1="0" x2="0" y2="177.5999994277954" fill="rgb(0, 0, 0)" stroke="rgb(60, 60, 60)" stroke-width="1px" opacity="0.25"></line><line x1="24.936166604359943" y1="0" x2="24.936166604359943" y2="177.5999994277954" fill="rgb(0, 0, 0)" stroke="rgb(60, 60, 60)" stroke-width="1px" opacity="0.25"></line><line x1="49.87233320871989" y1="0" x2="49.87233320871989" y2="177.5999994277954" fill="rgb(0, 0, 0)" stroke="rgb(60, 60, 60)" stroke-width="1px" opacity="0.25"></line><line x1="74.80849981307983" y1="0" x2="74.80849981307983" y2="177.5999994277954" fill="rgb(0, 0, 0)" stroke="rgb(60, 60, 60)" stroke-width="1px" opacity="0.25"></line><line x1="99.74466641743977" y1="0" x2="99.74466641743977" y2="177.5999994277954" fill="rgb(0, 0, 0)" stroke="rgb(60, 60, 60)" stroke-width="1px" opacity="0.25"></line><line x1="124.68083302179973" y1="0" x2="124.68083302179973" y2="177.5999994277954" fill="rgb(0, 0, 0)" stroke="rgb(60, 60, 60)" stroke-width="1px" opacity="0.25"></line><line x1="149.61699962615967" y1="0" x2="149.61699962615967" y2="177.5999994277954" fill="rgb(0, 0, 0)" stroke="rgb(60, 60, 60)" stroke-width="1px" opacity="0.25"></line><line x1="174.55316623051962" y1="0" x2="174.55316623051962" y2="177.5999994277954" fill="rgb(0, 0, 0)" stroke="rgb(60, 60, 60)" stroke-width="1px" opacity="0.25"></line><line x1="199.48933283487955" y1="0" x2="199.48933283487955" y2="177.5999994277954" fill="rgb(0, 0, 0)" stroke="rgb(60, 60, 60)" stroke-width="1px" opacity="0.25"></line><line x1="224.4254994392395" y1="0" x2="224.4254994392395" y2="177.5999994277954" fill="rgb(0, 0, 0)" stroke="rgb(60, 60, 60)" stroke-width="1px" opacity="0.25"></line><line x1="249.36166604359946" y1="0" x2="249.36166604359946" y2="177.5999994277954" fill="rgb(0, 0, 0)" stroke="rgb(60, 60, 60)" stroke-width="1px" opacity="0.25"></line><line x1="274.29783264795935" y1="0" x2="274.29783264795935" y2="177.5999994277954" fill="rgb(0, 0, 0)" stroke="rgb(60, 60, 60)" stroke-width="1px" opacity="0.25"></line><line x1="299.23399925231934" y1="0" x2="299.23399925231934" y2="177.5999994277954" fill="rgb(0, 0, 0)" stroke="rgb(60, 60, 60)" stroke-width="1px" opacity="0.25"></line></g><g><line x1="0" y1="177.5999994277954" x2="299.23399925231934" y2="177.5999994277954" fill="rgb(0, 0, 0)" stroke="rgb(60, 60, 60)" stroke-width="1px" opacity="0.25"></line><line x1="0" y1="155.39999949932098" x2="299.23399925231934" y2="155.39999949932098" fill="rgb(0, 0, 0)" stroke="rgb(60, 60, 60)" stroke-width="1px" opacity="0.25"></line><line x1="0" y1="133.19999957084656" x2="299.23399925231934" y2="133.19999957084656" fill="rgb(0, 0, 0)" stroke="rgb(60, 60, 60)" stroke-width="1px" opacity="0.25"></line><line x1="0" y1="110.99999964237213" x2="299.23399925231934" y2="110.99999964237213" fill="rgb(0, 0, 0)" stroke="rgb(60, 60, 60)" stroke-width="1px" opacity="0.25"></line><line x1="0" y1="88.7999997138977" x2="299.23399925231934" y2="88.7999997138977" fill="rgb(0, 0, 0)" stroke="rgb(60, 60, 60)" stroke-width="1px" opacity="0.25"></line><line x1="0" y1="66.59999978542328" x2="299.23399925231934" y2="66.59999978542328" fill="rgb(0, 0, 0)" stroke="rgb(60, 60, 60)" stroke-width="1px" opacity="0.25"></line><line x1="0" y1="44.39999985694885" x2="299.23399925231934" y2="44.39999985694885" fill="rgb(0, 0, 0)" stroke="rgb(60, 60, 60)" stroke-width="1px" opacity="0.25"></line><line x1="0" y1="22.199999928474426" x2="299.23399925231934" y2="22.199999928474426" fill="rgb(0, 0, 0)" stroke="rgb(60, 60, 60)" stroke-width="1px" opacity="0.25"></line><line x1="0" y1="0" x2="299.23399925231934" y2="0" fill="rgb(0, 0, 0)" stroke="rgb(60, 60, 60)" stroke-width="1px" opacity="0.25"></line></g></g></g><g><g><line x1="0" y1="155.39999949932098" x2="299.23399925231934" y2="155.39999949932098" fill="rgb(0, 0, 0)" stroke="rgb(153, 153, 153)" stroke-width="1.5px"></line></g></g><g><g><line x1="24.936166604359943" y1="0" x2="24.936166604359943" y2="177.5999994277954" fill="rgb(0, 0, 0)" stroke="rgb(153, 153, 153)" stroke-width="1.5px"></line></g></g><g><g><g><g><g><path style="fill: none;" stroke="rgb(204, 51, 17)" stroke-width="2px" d="M30.92084658940633,-7.00152078886114L31.91829325358073,2.757603693369906L32.915739917755126,9.228623852016364L33.91318658192952,9.49177703605112L34.91063324610392,-10.83136338699654L35.90807991027832,-4.566817074221541L36.90552657445272,5.444266599337398L37.90297323862712,14.33665596454682L38.90041990280152,20.091851342601615L39.897866566975914,24.401570572985197L40.895313231150304,17.170618645584188L41.89275989532471,26.555214035115505L42.890206559499106,32.83175172406569L43.8876532236735,38.742336188102854L44.8850998878479,43.76976100994862L45.8825465520223,47.605631352668844L46.8799932161967,52.0854558547618L47.87743988037109,56.80393243092713L48.87488654454549,62.81981425158081L49.87233320871989,68.67954170769042L50.86977987289429,72.42112022919575L51.86722653706869,76.05061442018643L52.864673201243086,79.24172305975411L53.862119865417476,82.20771071425736L54.85956652959187,85.60239112047778L55.85701319376628,88.51120740906713L56.854459857940675,91.67350814833657L57.85190652211507,89.34901060316587L58.84935318628946,89.39874884159259L59.84679985046387,94.57579000176051L60.844246514638265,98.17471943809737L61.84169317881266,99.78512792003112L62.83913984298706,104.06374343587933L63.83658650716146,106.10063054805697L64.83403317133586,109.01448874069489L65.83147983551025,109.90936179882925L66.82892649968466,111.5076016055105L67.82637316385905,113.91490316226812L68.82381982803345,115.33827131307073L69.82126649220784,117.42270126863144L70.81871315638224,117.82850245784715L71.81615982055663,118.11963296483928L72.81360648473104,120.75886300558417L73.81105314890544,121.74786524242931L74.80849981307983,122.47287435502771L75.80594647725424,123.5763573175335L76.80339314142863,125.2514558960942L77.80083980560303,125.66862289424336L78.79828646977742,125.45850919996232L79.79573313395183,127.20358855274434L80.79317979812623,126.56030015225014L81.79062646230061,127.48568143969909L82.78807312647501,128.29331554964253L83.78551979064942,129.1283701813495L84.78296645482381,127.9289956324781L85.78041311899821,129.3609390896589L86.7778597831726,130.93855603216653L87.775306447347,131.92582007189912L88.77275311152141,131.97794355027466L89.7701997756958,133.001963128944L90.7676464398702,132.59027675208642L91.7650931040446,132.53669473873373L92.762539768219,133.97354971834145L93.7599864323934,134.77555450241178L94.75743309656778,135.17750477720784L95.75487976074218,136.01815058617302L96.75232642491657,135.5300720446289L97.74977308909098,136.4619965250627L98.74721975326538,137.0920701498239L99.74466641743977,137.33105045660602L100.74211308161418,137.64040998604204L101.73955974578858,137.25420489332066L102.73700640996297,138.2353656066301L103.73445307413738,138.03266981571474L104.73189973831177,138.3607677108485L105.72934640248617,139.47491540638387L106.72679306666058,139.2411140638436L107.72423973083495,139.3156759967325L108.72168639500936,139.92792766956046L109.71913305918375,140.17506544160412L110.71657972335815,139.7679469053716L111.71402638753256,140.57653159612735L112.71147305170695,141.33557477420032L113.70891971588135,141.0657817912832L114.70636638005575,141.44889131796094L115.70381304423015,141.91129444109345L116.70125970840455,141.96246039960243L117.69870637257893,142.01505402428177L118.69615303675333,142.4943068595961L119.69359970092773,142.688857147739L120.69104636510212,142.39276394053084L121.68849302927653,142.11565509656637L122.68593969345092,142.78983177261017L123.68338635762532,142.82302972927715L124.68083302179973,143.28482880428282L125.67827968597412,143.31310313724913L126.67572635014852,143.80105047782104L127.67317301432293,144.0295597275746L128.6706196784973,143.809005216266L129.66806634267172,144.2865026390468L130.6655130068461,145.18315197156303L131.6629596710205,145.47992699608247L132.66040633519492,144.67564017203253L133.6578529993693,144.84209101710087L134.6552996635437,144.71281950751563L135.6527463277181,145.16017868011323L136.6501929918925,145.81450876325042L137.6476396560669,145.89012898183663L138.6450863202413,145.7435488111509L139.64253298441568,146.11252976152755L140.63997964859007,146.10064283077708L141.6374263127645,146.28434167490104L142.63487297693888,146.38103234830135L143.63231964111327,146.26424527451877L144.6297663052877,146.48635551298096L145.62721296946208,146.76448229993204L146.62465963363647,146.46009140298662L147.6221062978109,146.15330333939005L148.61955296198528,146.53994694960772L149.61699962615967,146.92264161182337L150.61444629033406,146.83689146967046L151.61189295450848,147.01111338072192L152.60933961868287,147.09139264168496L153.60678628285726,147.58349943442707L154.60423294703168,147.5984926817746L155.60167961120607,147.57697113560292L156.59912627538046,147.38623157740366L157.59657293955485,147.09948037557862L158.59401960372927,146.90235801693396L159.59146626790366,147.17468127397728L160.58891293207802,147.09946555022677L161.58635959625246,147.4135446128203L162.58380626042683,147.26254271494125L163.58125292460122,147.87151693139703L164.57869958877563,148.24817532216557L165.57614625295002,148.15911702102142L166.57359291712442,148.20018054800698L167.57103958129883,148.07490939487158L168.56848624547322,147.8213820499777L169.56593290964761,148.31154464363848L170.563379573822,148.4078992090246L171.56082623799642,148.81051319188109L172.5582729021708,149.07984518423916L173.5557195663452,149.0594046067763L174.55316623051962,149.20707717899563L175.550612894694,149.07746667607515L176.5480595588684,149.11296642000516L177.54550622304282,149.2069884913181L178.5429528872172,148.8709956865954L179.5403995513916,149.08046667285515L180.53784621556602,148.9520814296218L181.5352928797404,148.83273837223516L182.5327395439148,148.5980788993934L183.5301862080892,148.5181742381744L184.5276328722636,149.2180062569773L185.525079536438,149.29502660316808L186.52252620061236,149.4027104636691L187.5199728647868,149.61459074848176L188.51741952896117,149.47443499660457L189.51486619313556,149.9158124967729L190.51231285730998,149.52700621270588L191.50975952148437,148.93676051361763L192.50720618565876,149.2538084893792L193.50465284983315,149.85023673236492L194.50209951400757,149.97441631432145L195.49954617818196,149.813578512286L196.49699284235635,149.6169983501173L197.49443950653077,149.62314238069314L198.49188617070516,149.64460233184877L199.48933283487955,149.75456172655916L200.48677949905397,149.7829534604322L201.48422616322836,149.77669157004112L202.48167282740275,149.56140928237423L203.47911949157717,149.3842762477811L204.47656615575156,149.99163288026188L205.47401281992595,149.8479548561345L206.47145948410034,149.9179087462445L207.46890614827475,150.1393188672652L208.46635281244914,150.34993301151692L209.46379947662354,150.23350897951923L210.46124614079795,150.42644111238L211.45869280497234,150.69076844247914" fill="none"></path></g><g><path style="fill: none;" stroke="rgb(204, 51, 17)" stroke-width="2px" d="M29.923399925231934,-4.620532659754148L30.92084658940633,5.767881580282676L31.91829325358073,12.136616873488805L32.915739917755126,18.26752335339039L33.91318658192952,20.040542460090002L34.91063324610392,17.834804014418534L35.90807991027832,30.02458290324441L36.90552657445272,43.243259248463914L37.90297323862712,53.05251076978415L38.90041990280152,62.35009103136402L39.897866566975914,67.74148582836774L40.895313231150304,72.85768902471035L41.89275989532471,80.19755788794907L42.890206559499106,83.49337145399356L43.8876532236735,89.57112172359739L44.8850998878479,95.44957704361475L45.8825465520223,98.43917114329908L46.8799932161967,100.77719390155042L47.87743988037109,105.53661265246097L48.87488654454549,106.20302777385997L49.87233320871989,104.94895401781602L50.86977987289429,109.6354495685935L51.86722653706869,114.28644723999484L52.864673201243086,115.2047863654479L53.862119865417476,118.47887117671306L54.85956652959187,120.14284088087601L55.85701319376628,122.32825329241113L56.854459857940675,124.34308273637421L57.85190652211507,124.86597488397341L58.84935318628946,126.16126226253238L59.84679985046387,126.92150694664392L60.844246514638265,128.0723776463653L61.84169317881266,128.10970949620966L62.83913984298706,128.9261949089492L63.83658650716146,130.36973305190065L64.83403317133586,131.66941263514022L65.83147983551025,134.31718269199575L66.82892649968466,133.86857866757902L67.82637316385905,134.06335627120498L68.82381982803345,134.77012522295345L69.82126649220784,135.6609408430072L70.81871315638224,136.75529702783442L71.81615982055663,137.1932332997145L72.81360648473104,137.54331349727138L73.81105314890544,137.88213927671217L74.80849981307983,138.52208513836356L75.80594647725424,138.92979762941232L76.80339314142863,138.9570926090241L77.80083980560303,139.48579776687106L78.79828646977742,139.76198294934233L79.79573313395183,139.79548025214484L80.79317979812623,138.8438475130327L81.79062646230061,140.36501434052445L82.78807312647501,141.47772543223985L83.78551979064942,141.35851334373325L84.78296645482381,141.7262199454153L85.78041311899821,142.14962255510136L86.7778597831726,142.1475399972112L87.775306447347,142.03935815653193L88.77275311152141,141.7593474912711L89.7701997756958,142.28733474698433L90.7676464398702,142.9483069584647L91.7650931040446,142.97819869717893L92.762539768219,143.39943044340038L93.7599864323934,143.2909433436917L94.75743309656778,144.6498924148612L95.75487976074218,144.9371013229753L96.75232642491657,144.4507367895949L97.74977308909098,144.2457384428221L98.74721975326538,144.98550948393486L99.74466641743977,145.79021663849917L100.74211308161418,146.47676806623966L101.73955974578858,146.38846951098625L102.73700640996297,146.5294902351117L103.73445307413738,146.09702756892364L104.73189973831177,146.3306985496036L105.72934640248617,146.2555534576599L106.72679306666058,146.66183156674984L107.72423973083495,147.1085498938188L108.72168639500936,146.90482326981495L109.71913305918375,147.420931295126L110.71657972335815,147.89063359396602L111.71402638753256,148.19104149435884L112.71147305170695,147.85440300128212L113.70891971588135,147.7910328190749L114.70636638005575,148.0133686181143L115.70381304423015,148.46053990672675L116.70125970840455,147.6247188526563L117.69870637257893,147.62946888721163L118.69615303675333,147.88134023463812L119.69359970092773,148.29322400521698L120.69104636510212,148.30431719995775L121.68849302927653,148.27427431778716L122.68593969345092,148.3920340389827L123.68338635762532,148.83094048134197L124.68083302179973,149.10559287609806L125.67827968597412,149.39922390070188L126.67572635014852,148.86596597237792L127.67317301432293,148.4097176472115L128.6706196784973,148.68158435202918L129.66806634267172,148.7990791128063L130.6655130068461,148.9728627955504L131.6629596710205,149.32089584325195L132.66040633519492,149.50325914901654L133.6578529993693,149.36013417979774L134.6552996635437,149.91660766807686L135.6527463277181,150.18322769909483L136.6501929918925,150.1146346263552L137.6476396560669,150.15831590917L138.6450863202413,150.6700055782976L139.64253298441568,150.8153544640181L140.63997964859007,150.80699321241477L141.6374263127645,150.50594419340558L142.63487297693888,150.6522665398082L143.63231964111327,151.04001716008514L144.6297663052877,151.02969386445886L145.62721296946208,151.16251056158868L146.62465963363647,151.00794933416896L147.6221062978109,150.72079857160628L148.61955296198528,150.79243939842567L149.61699962615967,150.49874155092698L150.61444629033406,150.65446182813656L151.61189295450848,151.1330245643484L152.60933961868287,151.31127192689488L153.60678628285726,150.91188055284883L154.60423294703168,151.5660206152492L155.60167961120607,150.94886067567765L156.59912627538046,151.04094756109197L157.59657293955485,151.14051231712912L158.59401960372927,150.7358441872032L159.59146626790366,151.01072510770675L160.58891293207802,150.9862001326919L161.58635959625246,151.09331138830686L162.58380626042683,151.35858790569955L163.58125292460122,151.5131802277786L164.57869958877563,151.62050271959666L165.57614625295002,151.35223289664842L166.57359291712442,151.8788340725112L167.57103958129883,151.74922751431149L168.56848624547322,151.95155047967717L169.56593290964761,152.05333382776544L170.563379573822,151.9395047049302L171.56082623799642,151.86777611370545L172.5582729021708,152.2065057633894L173.5557195663452,152.14504070943283L174.55316623051962,151.81697677222965L175.550612894694,151.8382610214429L176.5480595588684,152.09298582767954L177.54550622304282,151.80989279725293L178.5429528872172,152.0618290330064L179.5403995513916,152.28118612083264L180.53784621556602,152.31593858938228L181.5352928797404,152.57550494472582L182.5327395439148,152.54291769044826L183.5301862080892,152.4031290821465L184.5276328722636,152.53089354456205L185.525079536438,152.4322750454807L186.52252620061236,152.61634755133872L187.5199728647868,152.6580447183765L188.51741952896117,152.8090014396812L189.51486619313556,152.64154617212884L190.51231285730998,152.93908006404797L191.50975952148437,152.93068673248044L192.50720618565876,152.92614403111526L193.50465284983315,152.94816268244847L194.50209951400757,152.9353747886211L195.49954617818196,153.1278447744057L196.49699284235635,153.17427774211305L197.49443950653077,153.2955311391129L198.49188617070516,153.2479604489474L199.48933283487955,152.9251352662354L200.48677949905397,152.93625107749816L201.48422616322836,152.5914951995824L202.48167282740275,152.36358707599987L203.47911949157717,152.641527092215L204.47656615575156,152.79117157215592L205.47401281992595,152.44209404771016L206.47145948410034,152.32563796333662L207.46890614827475,152.75800383283618L208.46635281244914,152.44086315594072L209.46379947662354,152.68173565072757L210.46124614079795,152.7426223829851L211.45869280497234,152.70175599307606L212.4561394691467,152.7950484686122L213.45358613332115,152.47195248882852L214.45103279749551,152.04638675775533L215.4484794616699,152.26825476605643L216.44592612584432,152.3800284095744L217.4433727900187,152.49591833753422L218.4408194541931,152.28635238614214L219.4382661183675,152.75101948516718L220.4357127825419,152.72844509555165L221.4331594467163,152.8640415339327L222.4306061108907,152.79546015663115L223.4280527750651,153.07950492151244L224.4254994392395,153.2883428301603L225.4229461034139,153.44459807952654L226.4203927675883,153.40539727761978L227.4178394317627,153.48409220900155L228.4152860959371,153.04937847599535L229.4127327601115,152.93831315704242L230.4101794242859,153.02222089621398L231.4076260884603,153.29132826043144L232.40507275263468,153.35279849490925L233.4025194168091,153.07987612910014L234.3999660809835,153.47511662521927L235.39741274515785,153.70877016108548L236.3948594093323,153.7377629129369L237.39230607350666,153.58952278806163L238.38975273768105,153.48792711233952L239.38719940185547,153.52584735529888L240.38464606602986,153.6620322728686L241.38209273020425,153.26109792493477L242.37953939437867,153.24424512013357L243.37698605855306,153.3925629401833L244.37443272272745,153.54479231714043L245.37187938690184,153.45998301223398L246.36932605107626,153.4479462012139L247.36677271525065,153.56198818388756L248.36421937942504,153.57787592465874L249.36166604359946,153.68789810174525L250.35911270777385,153.58718298052815L251.35655937194824,153.41414226210452L252.35400603612266,153.61627301535876L253.35145270029705,153.85729118357457L254.34889936447144,153.94903240742877L255.34634602864585,153.78336236921473L256.3437926928202,153.73753500355386L257.3412393569946,153.78897863450496L258.338686021169,153.44759846660915L259.33613268534344,153.7388211715111L260.33357934951783,153.92007428163342L261.3310260136922,153.9420965806373L262.3284726778666,154.16109636100603L263.325919342041,154.30085056373358L264.3233660062154,154.28814775969627L265.32081267038984,154.2431631856606L266.31825933456423,154.11196068200766L267.3157059987386,154.08063074629743L268.313152662913,154.25221693500137L269.3105993270874,154.23652614856306L270.3080459912618,154.2238903892811L271.3054926554362,154.1057753768319L272.30293931961063,154.04100814808837L273.300385983785,154.07535572483957L274.29783264795935,153.91208746736933" fill="none"></path></g></g></g></g><g opacity="0.2"><g><g><g><path style="fill: none;" stroke="rgb(204, 51, 17)" stroke-width="2px" d="M29.923399925231934,-4.230852399546222L30.92084658940633,13.968938210303918L31.91829325358073,16.98650087605779L32.915739917755126,18.772121655064268L33.91318658192952,9.88252884541805L34.91063324610392,-41.131744633714106L35.90807991027832,4.795911010549162L36.90552657445272,20.42820418451862L37.90297323862712,27.65781889587538L38.90041990280152,28.717879393558633L39.897866566975914,30.863109870655762L40.895313231150304,6.327250651001123L41.89275989532471,40.62972437165968L42.890206559499106,42.24560209014737L43.8876532236735,47.607672633326786L44.8850998878479,51.31062252679186L45.8825465520223,53.3593106458016L46.8799932161967,58.80510416158114L47.87743988037109,63.88159140032178L48.87488654454549,71.84359422424808L49.87233320871989,77.46910790279392L50.86977987289429,78.03347843777979L51.86722653706869,81.49485013454395L52.864673201243086,84.02838307964356L53.862119865417476,86.65669055675593L54.85956652959187,90.69441060409542L55.85701319376628,92.87443126319411L56.854459857940675,96.41695887972548L57.85190652211507,85.86226445190886L58.84935318628946,89.47335619709506L59.84679985046387,102.34135160851687L60.844246514638265,103.57311353692134L61.84169317881266,102.20074062798236L62.83913984298706,110.4816666858207L63.83658650716146,109.15596120951639L64.83403317133586,113.38527602380908L65.83147983551025,111.25167138495422L66.82892649968466,113.90496131437868L67.82637316385905,117.52585549636191L68.82381982803345,117.47332353890482L69.82126649220784,120.54934620164747L70.81871315638224,118.43720424163276L71.81615982055663,118.55632872531115L72.81360648473104,124.71770806661262L73.81105314890544,123.23136859767705L74.80849981307983,123.56038802391649L75.80594647725424,125.23158176128419L76.80339314142863,127.76410376392795L77.80083980560303,126.29437339146597L78.79828646977742,125.14333865854115L79.79573313395183,129.8212075819157L80.79317979812623,125.59536755150921L81.79062646230061,128.8737533708722L82.78807312647501,129.50476671455755L83.78551979064942,130.38095212890988L84.78296645482381,126.12993380917106L85.78041311899821,131.50885427543005L86.7778597831726,133.30498144592792L87.775306447347,133.406716131498L88.77275311152141,132.05612876783795L89.7701997756958,134.537992496948L90.7676464398702,131.97274718680012L91.7650931040446,132.45632171870463L92.762539768219,136.128832187753L93.7599864323934,135.9785616785173L94.75743309656778,135.78043018940195L95.75487976074218,137.27911929962082L96.75232642491657,134.7979542323127L97.74977308909098,137.85988324571338L98.74721975326538,138.03718058696572L99.74466641743977,137.68952091677923L100.74211308161418,138.1044492801961L101.73955974578858,136.6748972542386L102.73700640996297,139.7071066765943L103.73445307413738,137.72862612934168L104.73189973831177,138.8529145535491L105.72934640248617,141.14613694968693L106.72679306666058,138.8904120500332L107.72423973083495,139.4275188960658L108.72168639500936,140.84630517880237L109.71913305918375,140.54577209966965L110.71657972335815,139.1572691010228L111.71402638753256,141.78940863226103L112.71147305170695,142.4741395413098L113.70891971588135,140.6610923169075L114.70636638005575,142.02355560797758L115.70381304423015,142.6048991257922L116.70125970840455,142.03920933736592L117.69870637257893,142.09394446130074L118.69615303675333,143.2131861125676L119.69359970092773,142.98068257995334L120.69104636510212,141.9486241297186L121.68849302927653,141.69999183061964L122.68593969345092,143.8010967866759L123.68338635762532,142.87282666427757L124.68083302179973,143.97752741679136L125.67827968597412,143.35551463669856L126.67572635014852,144.53297148867887L127.67317301432293,144.37232360220494L128.6706196784973,143.47817344930309L129.66806634267172,145.002748773218L130.6655130068461,146.52812597033744L131.6629596710205,145.92508953286153L132.66040633519492,143.46920993595765L133.6578529993693,145.09176728470337L134.6552996635437,144.51891224313778L135.6527463277181,145.83121743900963L136.6501929918925,146.7960038879562L137.6476396560669,146.00355930971597L138.6450863202413,145.52367855512233L139.64253298441568,146.66600118709255L140.63997964859007,146.08281243465137L141.6374263127645,146.559889941087L142.63487297693888,146.52606835840177L143.63231964111327,146.08906466384494L144.6297663052877,146.81952087067424L145.62721296946208,147.1816724803587L146.62465963363647,146.00350505756847L147.6221062978109,145.6931212439952L148.61955296198528,147.11991236493424L149.61699962615967,147.49668360514679L150.61444629033406,146.70826625644108L151.61189295450848,147.27244624729914L152.60933961868287,147.2118115331295L153.60678628285726,148.32165962354023L154.60423294703168,147.62098255279585L155.60167961120607,147.54468881634543L156.59912627538046,147.10012224010478L157.59657293955485,146.6693535728411L158.59401960372927,146.60667447896688L159.59146626790366,147.5831661595423L160.58891293207802,146.98664196460103L161.58635959625246,147.88466320671048L162.58380626042683,147.03603986812269L163.58125292460122,148.78497825608068L164.57869958877563,148.81316290831836L165.57614625295002,148.02552956930518L166.57359291712442,148.26177583848536L167.57103958129883,147.88700266516852L168.56848624547322,147.44109103263685L169.56593290964761,149.04678853412966L170.563379573822,148.5524310571038L171.56082623799642,149.41443416616585L172.5582729021708,149.48384317277623L173.5557195663452,149.028743740582L174.55316623051962,149.4285860373246L175.550612894694,148.8830509216945L176.5480595588684,149.1662160359002L177.54550622304282,149.34802159828746L178.5429528872172,148.36700647951136L179.5403995513916,149.39467315224482L180.53784621556602,148.75950356477176L181.5352928797404,148.65372378615518L182.5327395439148,148.24608969013082L183.5301862080892,148.39831724634584L184.5276328722636,150.2677542851817L185.525079536438,149.41055712245426L186.52252620061236,149.56423625442068L187.5199728647868,149.93241117570074L188.51741952896117,149.26420136878878L189.51486619313556,150.57787874702544L190.51231285730998,148.94379678660536L191.50975952148437,148.05139196498524L192.50720618565876,149.72938045302152L193.50465284983315,150.74487909684348L194.50209951400757,150.16068568725623L195.49954617818196,149.57232180923282L196.49699284235635,149.3221281068643L197.49443950653077,149.63235842655683L198.49188617070516,149.67679225858228L199.48933283487955,149.9195008186247L200.48677949905397,149.82554106124175L201.48422616322836,149.76729873445453L202.48167282740275,149.23848585087387L203.47911949157717,149.1185766958914L204.47656615575156,150.902667828983L205.47401281992595,149.63243781994345L206.47145948410034,150.02283958140953L207.46890614827475,150.47143404879623L208.46635281244914,150.66585422789453L209.46379947662354,150.0588729315227L210.46124614079795,150.71583931167112L211.45869280497234,151.08725943762786" fill="none"></path></g><g><path style="fill: none;" stroke="rgb(204, 51, 17)" stroke-width="2px" d="M27.92850659688314,-23.098648378337884L28.925953261057536,8.41879002719702L29.923399925231934,16.620762008522775L30.92084658940633,20.623480158163147L31.91829325358073,21.422294070842156L32.915739917755126,27.309419543970535L33.91318658192952,22.6732691988002L34.91063324610392,14.546202231271195L35.90807991027832,48.24291499807089L36.90552657445272,63.02811249453276L37.90297323862712,67.74717070686762L38.90041990280152,76.28553246715413L39.897866566975914,75.82477559455415L40.895313231150304,80.52982881349541L41.89275989532471,91.20549759089786L42.890206559499106,88.43658971903585L43.8876532236735,98.68719159755452L44.8850998878479,104.26693763518031L45.8825465520223,102.92346391895828L46.8799932161967,104.28418187874658L47.87743988037109,112.67568439897433L48.87488654454549,107.20264571936502L49.87233320871989,103.0678487318018L50.86977987289429,116.66518090330207L51.86722653706869,121.26293660671989L52.864673201243086,116.5822942077073L53.862119865417476,123.38999658407393L54.85956652959187,122.63879488532996L55.85701319376628,125.6063714748899L56.854459857940675,127.36532666178869L57.85190652211507,125.65031306791849L58.84935318628946,128.10419327470356L59.84679985046387,128.0618739532075L60.844246514638265,129.79868367814151L61.84169317881266,128.16570727062964L62.83913984298706,130.15092302351087L63.83658650716146,132.5350402615037L64.83403317133586,133.61893200739354L65.83147983551025,138.28883777409362L66.82892649968466,133.19567263127766L67.82637316385905,134.35552267655964L68.82381982803345,135.83027865039247L69.82126649220784,136.99716427294896L70.81871315638224,138.39683130497278L71.81615982055663,137.85013770751007L72.81360648473104,138.06843379359492L73.81105314890544,138.39037794586653L74.80849981307983,139.4820039308329L75.80594647725424,139.5413663659825L76.80339314142863,138.99803507844166L77.80083980560303,140.27885550364013L78.79828646977742,140.17626072304873L79.79573313395183,139.84572620634862L80.79317979812623,137.41639840436497L81.79062646230061,142.6467645817616L82.78807312647501,143.14679206981276L83.78551979064942,141.17969521097334L84.78296645482381,142.27777984793838L85.78041311899821,142.7847264696304L86.7778597831726,142.14441616037595L87.775306447347,141.87708539551306L88.77275311152141,141.33933149337983L89.7701997756958,143.07931563055413L90.7676464398702,143.93976527568532L91.7650931040446,143.02303630525023L92.762539768219,144.03127806273255L93.7599864323934,143.12821269412873L94.75743309656778,146.68831602161538L95.75487976074218,145.3679146851465L96.75232642491657,143.7211899895243L97.74977308909098,143.93824092266289L98.74721975326538,146.095166045604L99.74466641743977,146.99727737034567L100.74211308161418,147.50659520785035L101.73955974578858,146.25602167810612L102.73700640996297,146.74102132129985L103.73445307413738,145.4483335696416L104.73189973831177,146.68120502062357L105.72934640248617,146.1428358197443L106.72679306666058,147.27124873038483L107.72423973083495,147.77862738442218L108.72168639500936,146.5992333338092L109.71913305918375,148.1950933330926L110.71657972335815,148.59518704222606L111.71402638753256,148.64165334494805L112.71147305170695,147.34944526166709L113.70891971588135,147.69597754576407L114.70636638005575,148.3468723166734L115.70381304423015,149.13129683964544L116.70125970840455,146.37098727155058L117.69870637257893,147.6365939390447L118.69615303675333,148.25914725577783L119.69359970092773,148.91104966108526L120.69104636510212,148.32095699206894L121.68849302927653,148.2292099945313L122.68593969345092,148.568673620776L123.68338635762532,149.48930014488084L124.68083302179973,149.51757146823223L125.67827968597412,149.83967043760765L126.67572635014852,148.06607907989192L127.67317301432293,147.72534515946188L128.6706196784973,149.08938440925564L129.66806634267172,148.97532125397206L130.6655130068461,149.2335383196665L131.6629596710205,149.8429454148043L132.66040633519492,149.77680410766342L133.6578529993693,149.14544672596955L134.6552996635437,150.75131790049554L135.6527463277181,150.5831577456218L136.6501929918925,150.01174501724583L137.6476396560669,150.22383783339217L138.6450863202413,151.437540081989L139.64253298441568,151.03337779259883L140.63997964859007,150.79445133500985L141.6374263127645,150.05437066489176L142.63487297693888,150.87175005941214L143.63231964111327,151.62164309050056L144.6297663052877,151.01420892101942L145.62721296946208,151.36173560728338L146.62465963363647,150.77610749303938L147.6221062978109,150.29007242776228L148.61955296198528,150.89990063865474L149.61699962615967,150.05819477967896L150.61444629033406,150.88804224395093L151.61189295450848,151.85086866866618L152.60933961868287,151.57864297071455L153.60678628285726,150.31279349177981L154.60423294703168,152.54723070884964L155.60167961120607,150.02312076632035L156.59912627538046,151.17907788921343L157.59657293955485,151.28985945118484L158.59401960372927,150.1288419923143L159.59146626790366,151.42304648846212L160.58891293207802,150.9494126701696L161.58635959625246,151.2539782717293L162.58380626042683,151.75650268178856L163.58125292460122,151.7450687108972L164.57869958877563,151.78148645732375L165.57614625295002,150.94982816222608L166.57359291712442,152.66873583630536L167.57103958129883,151.55481767701195L168.56848624547322,152.2550349277257L169.56593290964761,152.20600884989787L170.563379573822,151.7687610206773L171.56082623799642,151.76018322686832L172.5582729021708,152.7146002379153L173.5557195663452,152.05284312849804L174.55316623051962,151.32488086642485L175.550612894694,151.87018739526275L176.5480595588684,152.47507303703452L177.54550622304282,151.385253251613L178.5429528872172,152.43973338663665L179.5403995513916,152.610221752572L180.53784621556602,152.36806729220677L181.5352928797404,152.96485447774108L182.5327395439148,152.4940368090319L183.5301862080892,152.1934461696939L184.5276328722636,152.7225402381854L185.525079536438,152.28434729685864L186.52252620061236,152.89245631012577L187.5199728647868,152.72059046893315L188.51741952896117,153.03543652163827L189.51486619313556,152.3903632708003L190.51231285730998,153.38538090192665L191.50975952148437,152.91809673512918L192.50720618565876,152.91932997906747L193.50465284983315,152.9811906594483L194.50209951400757,152.91619294788L195.49954617818196,153.4165497530826L196.49699284235635,153.24392719367412L197.49443950653077,153.47741123461267L198.49188617070516,153.17660441369912L199.48933283487955,152.44089749216744L200.48677949905397,152.95292479439226L201.48422616322836,152.0743613827088L202.48167282740275,152.02172489062605L203.47911949157717,153.05843711653773L204.47656615575156,153.0156382920673L205.47401281992595,151.91847776104154L206.47145948410034,152.15095383677627L207.46890614827475,153.40655263708555L208.46635281244914,151.96515214059755L209.46379947662354,153.0430443929078L210.46124614079795,152.83395248137148L211.45869280497234,152.64045640821246L212.4561394691467,152.93498718191648L213.45358613332115,151.98730851915298L214.45103279749551,151.40803816114556L215.4484794616699,152.60105677850808L216.44592612584432,152.54768887485142L217.4433727900187,152.66975322947388L218.4408194541931,151.97200345905406L219.4382661183675,153.4480201337047L220.4357127825419,152.69458351112834L221.4331594467163,153.06743619150427L222.4306061108907,152.69258809067884L223.4280527750651,153.5055720688344L224.4254994392395,153.6015996931321L225.4229461034139,153.67898095357586L226.4203927675883,153.34659607475965L227.4178394317627,153.6021346060742L228.4152860959371,152.39730787648605L229.4127327601115,152.77171517861302L230.4101794242859,153.14808250497134L231.4076260884603,153.6949893067576L232.40507275263468,153.445003846626L233.4025194168091,152.67049258038645L234.3999660809835,154.06797736939794L235.39741274515785,154.05925046488483L236.3948594093323,153.781252040714L237.39230607350666,153.3671626007487L238.38975273768105,153.33553359875637L239.38719940185547,153.58272771973793L240.38464606602986,153.8663096492232L241.38209273020425,152.659696403034L242.37953939437867,153.2189659129318L243.37698605855306,153.61503967025783L244.37443272272745,153.77313638257613L245.37187938690184,153.33276905487432L246.36932605107626,153.42989098468377L247.36677271525065,153.73305115789802L248.36421937942504,153.60170753581554L249.36166604359946,153.85293136737496L250.35911270777385,153.4361102987025L251.35655937194824,153.1545811844691L252.35400603612266,153.9194691452401L253.35145270029705,154.21881843589827L254.34889936447144,154.0866442432101L255.34634602864585,153.5348573118936L256.3437926928202,153.66879395506254L257.3412393569946,153.8661440809316L258.338686021169,152.93552821476547L259.33613268534344,154.175655228864L260.33357934951783,154.1919539468169L261.3310260136922,153.9751300291431L262.3284726778666,154.48959603155916L263.325919342041,154.51048186782492L264.3233660062154,154.26909355364026L265.32081267038984,154.17568632460708L266.31825933456423,153.9151569265283L267.3157059987386,154.03363584273205L268.313152662913,154.50959621805728L269.3105993270874,154.21298996890562L270.3080459912618,154.20493675035823L271.3054926554362,153.92860285815806L272.30293931961063,153.94385730497302L273.300385983785,154.12687708996637L274.29783264795935,153.66718508116398" fill="none"></path></g></g></g></g></g></g><g transform="translate(30, 177)" clip-path="url(#clip_1)"><clipPath id="clip_1"><rect width="299" height="22"></rect></clipPath><g><g><line x1="0" y1="0" x2="0" y2="5" style="visibility: inherit;" fill="rgb(0, 0, 0)" stroke="rgb(204, 204, 204)" stroke-width="1px"></line><line x1="24.936166604359943" y1="0" x2="24.936166604359943" y2="5" style="visibility: inherit;" fill="rgb(0, 0, 0)" stroke="rgb(204, 204, 204)" stroke-width="1px"></line><line x1="49.87233320871989" y1="0" x2="49.87233320871989" y2="5" style="visibility: inherit;" fill="rgb(0, 0, 0)" stroke="rgb(204, 204, 204)" stroke-width="1px"></line><line x1="74.80849981307983" y1="0" x2="74.80849981307983" y2="5" style="visibility: inherit;" fill="rgb(0, 0, 0)" stroke="rgb(204, 204, 204)" stroke-width="1px"></line><line x1="99.74466641743977" y1="0" x2="99.74466641743977" y2="5" style="visibility: inherit;" fill="rgb(0, 0, 0)" stroke="rgb(204, 204, 204)" stroke-width="1px"></line><line x1="124.68083302179973" y1="0" x2="124.68083302179973" y2="5" style="visibility: inherit;" fill="rgb(0, 0, 0)" stroke="rgb(204, 204, 204)" stroke-width="1px"></line><line x1="149.61699962615967" y1="0" x2="149.61699962615967" y2="5" style="visibility: inherit;" fill="rgb(0, 0, 0)" stroke="rgb(204, 204, 204)" stroke-width="1px"></line><line x1="174.55316623051962" y1="0" x2="174.55316623051962" y2="5" style="visibility: inherit;" fill="rgb(0, 0, 0)" stroke="rgb(204, 204, 204)" stroke-width="1px"></line><line x1="199.48933283487955" y1="0" x2="199.48933283487955" y2="5" style="visibility: inherit;" fill="rgb(0, 0, 0)" stroke="rgb(204, 204, 204)" stroke-width="1px"></line><line x1="224.4254994392395" y1="0" x2="224.4254994392395" y2="5" style="visibility: inherit;" fill="rgb(0, 0, 0)" stroke="rgb(204, 204, 204)" stroke-width="1px"></line><line x1="249.36166604359946" y1="0" x2="249.36166604359946" y2="5" style="visibility: inherit;" fill="rgb(0, 0, 0)" stroke="rgb(204, 204, 204)" stroke-width="1px"></line><line x1="274.29783264795935" y1="0" x2="274.29783264795935" y2="5" style="visibility: inherit;" fill="rgb(0, 0, 0)" stroke="rgb(204, 204, 204)" stroke-width="1px"></line><line x1="299.23399925231934" y1="0" x2="299.23399925231934" y2="5" style="visibility: inherit;" fill="rgb(0, 0, 0)" stroke="rgb(204, 204, 204)" stroke-width="1px"></line></g><g transform="translate(0, 8)"><text style="text-anchor: middle; visibility: hidden; font-family: Roboto, sans-serif; font-size: 12px; font-weight: 200;" x="0" y="0" dx="0em" dy="0.95em" fill="rgb(50, 49, 63)" stroke="none" stroke-width="1px">-500</text><text style="text-anchor: middle; visibility: inherit; font-family: Roboto, sans-serif; font-size: 12px; font-weight: 200;" x="24.936166604359943" y="0" dx="0em" dy="0.95em" fill="rgb(50, 49, 63)" stroke="none" stroke-width="1px">0</text><text style="text-anchor: middle; visibility: inherit; font-family: Roboto, sans-serif; font-size: 12px; font-weight: 200;" x="49.87233320871989" y="0" dx="0em" dy="0.95em" fill="rgb(50, 49, 63)" stroke="none" stroke-width="1px">500</text><text style="text-anchor: middle; visibility: inherit; font-family: Roboto, sans-serif; font-size: 12px; font-weight: 200;" x="74.80849981307983" y="0" dx="0em" dy="0.95em" fill="rgb(50, 49, 63)" stroke="none" stroke-width="1px">1k</text><text style="text-anchor: middle; visibility: inherit; font-family: Roboto, sans-serif; font-size: 12px; font-weight: 200;" x="99.74466641743977" y="0" dx="0em" dy="0.95em" fill="rgb(50, 49, 63)" stroke="none" stroke-width="1px">1.5k</text><text style="text-anchor: middle; visibility: inherit; font-family: Roboto, sans-serif; font-size: 12px; font-weight: 200;" x="124.68083302179973" y="0" dx="0em" dy="0.95em" fill="rgb(50, 49, 63)" stroke="none" stroke-width="1px">2k</text><text style="text-anchor: middle; visibility: inherit; font-family: Roboto, sans-serif; font-size: 12px; font-weight: 200;" x="149.61699962615967" y="0" dx="0em" dy="0.95em" fill="rgb(50, 49, 63)" stroke="none" stroke-width="1px">2.5k</text><text style="text-anchor: middle; visibility: inherit; font-family: Roboto, sans-serif; font-size: 12px; font-weight: 200;" x="174.55316623051962" y="0" dx="0em" dy="0.95em" fill="rgb(50, 49, 63)" stroke="none" stroke-width="1px">3k</text><text style="text-anchor: middle; visibility: inherit; font-family: Roboto, sans-serif; font-size: 12px; font-weight: 200;" x="199.48933283487955" y="0" dx="0em" dy="0.95em" fill="rgb(50, 49, 63)" stroke="none" stroke-width="1px">3.5k</text><text style="text-anchor: middle; visibility: inherit; font-family: Roboto, sans-serif; font-size: 12px; font-weight: 200;" x="224.4254994392395" y="0" dx="0em" dy="0.95em" fill="rgb(50, 49, 63)" stroke="none" stroke-width="1px">4k</text><text style="text-anchor: middle; visibility: inherit; font-family: Roboto, sans-serif; font-size: 12px; font-weight: 200;" x="249.36166604359946" y="0" dx="0em" dy="0.95em" fill="rgb(50, 49, 63)" stroke="none" stroke-width="1px">4.5k</text><text style="text-anchor: middle; visibility: inherit; font-family: Roboto, sans-serif; font-size: 12px; font-weight: 200;" x="274.29783264795935" y="0" dx="0em" dy="0.95em" fill="rgb(50, 49, 63)" stroke="none" stroke-width="1px">5k</text><text style="text-anchor: middle; visibility: hidden; font-family: Roboto, sans-serif; font-size: 12px; font-weight: 200;" x="299.23399925231934" y="0" dx="0em" dy="0.95em" fill="rgb(50, 49, 63)" stroke="none" stroke-width="1px">5.5k</text></g><line x1="0" y1="0" x2="299.23399925231934" y2="0" fill="rgb(0, 0, 0)" stroke="rgb(204, 204, 204)" stroke-width="1px"></line></g></g></g></g></svg>