<svg viewBox="0 0 330 200" xmlns="http://www.w3.org/2000/svg"><g><g><g><g><g><line x1="49.98400115966797" y1="178.58999919891357" x2="44.98400115966797" y2="178.58999919891357" style="visibility: inherit;" fill="rgb(0, 0, 0)" stroke="rgb(204, 204, 204)" stroke-width="1px"></line><line x1="49.98400115966797" y1="158.74666595458984" x2="44.98400115966797" y2="158.74666595458984" style="visibility: inherit;" fill="rgb(0, 0, 0)" stroke="rgb(204, 204, 204)" stroke-width="1px"></line><line x1="49.98400115966797" y1="138.9033327102661" x2="44.98400115966797" y2="138.9033327102661" style="visibility: inherit;" fill="rgb(0, 0, 0)" stroke="rgb(204, 204, 204)" stroke-width="1px"></line><line x1="49.98400115966797" y1="119.0599994659424" x2="44.98400115966797" y2="119.0599994659424" style="visibility: inherit;" fill="rgb(0, 0, 0)" stroke="rgb(204, 204, 204)" stroke-width="1px"></line><line x1="49.98400115966797" y1="99.21666622161865" x2="44.98400115966797" y2="99.21666622161865" style="visibility: inherit;" fill="rgb(0, 0, 0)" stroke="rgb(204, 204, 204)" stroke-width="1px"></line><line x1="49.98400115966797" y1="79.37333297729492" x2="44.98400115966797" y2="79.37333297729492" style="visibility: inherit;" fill="rgb(0, 0, 0)" stroke="rgb(204, 204, 204)" stroke-width="1px"></line><line x1="49.98400115966797" y1="59.5299997329712" x2="44.98400115966797" y2="59.5299997329712" style="visibility: inherit;" fill="rgb(0, 0, 0)" stroke="rgb(204, 204, 204)" stroke-width="1px"></line><line x1="49.98400115966797" y1="39.68666648864746" x2="44.98400115966797" y2="39.68666648864746" style="visibility: inherit;" fill="rgb(0, 0, 0)" stroke="rgb(204, 204, 204)" stroke-width="1px"></line><line x1="49.98400115966797" y1="19.843333244323738" x2="44.98400115966797" y2="19.843333244323738" style="visibility: inherit;" fill="rgb(0, 0, 0)" stroke="rgb(204, 204, 204)" stroke-width="1px"></line><line x1="49.98400115966797" y1="0" x2="44.98400115966797" y2="0" style="visibility: inherit;" fill="rgb(0, 0, 0)" stroke="rgb(204, 204, 204)" stroke-width="1px"></line></g><g transform="translate(39.98400115966797, 0)"><text style="text-anchor: end; visibility: hidden; font-family: Roboto, sans-serif; font-size: 12px; font-weight: 200;" x="0" y="178.58999919891357" dx="0em" dy="0.3em" fill="rgb(50, 49, 63)" stroke="none" stroke-width="1px">-0.5</text><text style="text-anchor: end; visibility: inherit; font-family: Roboto, sans-serif; font-size: 12px; font-weight: 200;" x="0" y="158.74666595458984" dx="0em" dy="0.3em" fill="rgb(50, 49, 63)" stroke="none" stroke-width="1px">0</text><text style="text-anchor: end; visibility: hidden; font-family: Roboto, sans-serif; font-size: 12px; font-weight: 200;" x="0" y="138.9033327102661" dx="0em" dy="0.3em" fill="rgb(50, 49, 63)" stroke="none" stroke-width="1px">0.5</text><text style="text-anchor: end; visibility: inherit; font-family: Roboto, sans-serif; font-size: 12px; font-weight: 200;" x="0" y="119.0599994659424" dx="0em" dy="0.3em" fill="rgb(50, 49, 63)" stroke="none" stroke-width="1px">1</text><text style="text-anchor: end; visibility: hidden; font-family: Roboto, sans-serif; font-size: 12px; font-weight: 200;" x="0" y="99.21666622161865" dx="0em" dy="0.3em" fill="rgb(50, 49, 63)" stroke="none" stroke-width="1px">1.5</text><text style="text-anchor: end; visibility: inherit; font-family: Roboto, sans-serif; font-size: 12px; font-weight: 200;" x="0" y="79.37333297729492" dx="0em" dy="0.3em" fill="rgb(50, 49, 63)" stroke="none" stroke-width="1px">2</text><text style="text-anchor: end; visibility: hidden; font-family: Roboto, sans-serif; font-size: 12px; font-weight: 200;" x="0" y="59.5299997329712" dx="0em" dy="0.3em" fill="rgb(50, 49, 63)" stroke="none" stroke-width="1px">2.5</text><text style="text-anchor: end; visibility: inherit; font-family: Roboto, sans-serif; font-size: 12px; font-weight: 200;" x="0" y="39.68666648864746" dx="0em" dy="0.3em" fill="rgb(50, 49, 63)" stroke="none" stroke-width="1px">3</text><text style="text-anchor: end; visibility: hidden; font-family: Roboto, sans-serif; font-size: 12px; font-weight: 200;" x="0" y="19.843333244323738" dx="0em" dy="0.3em" fill="rgb(50, 49, 63)" stroke="none" stroke-width="1px">3.5</text><text style="text-anchor: end; visibility: hidden; font-family: Roboto, sans-serif; font-size: 12px; font-weight: 200;" x="0" y="0" dx="0em" dy="0.3em" fill="rgb(50, 49, 63)" stroke="none" stroke-width="1px">4</text></g><line x1="49.98400115966797" y1="0" x2="49.98400115966797" y2="178.58999919891357" fill="rgb(0, 0, 0)" stroke="rgb(204, 204, 204)" stroke-width="1px"></line></g></g><g transform="translate(49, 0)" clip-path="url(#clip_0)"><clipPath id="clip_0"><rect width="280" height="178"></rect></clipPath><g><g><g><line x1="0" y1="0" x2="0" y2="178.58999919891357" fill="rgb(0, 0, 0)" stroke="rgb(60, 60, 60)" stroke-width="1px" opacity="0.25"></line><line x1="23.334666570027668" y1="0" x2="23.334666570027668" y2="178.58999919891357" fill="rgb(0, 0, 0)" stroke="rgb(60, 60, 60)" stroke-width="1px" opacity="0.25"></line><line x1="46.669333140055336" y1="0" x2="46.669333140055336" y2="178.58999919891357" fill="rgb(0, 0, 0)" stroke="rgb(60, 60, 60)" stroke-width="1px" opacity="0.25"></line><line x1="70.00399971008301" y1="0" x2="70.00399971008301" y2="178.58999919891357" fill="rgb(0, 0, 0)" stroke="rgb(60, 60, 60)" stroke-width="1px" opacity="0.25"></line><line x1="93.33866628011067" y1="0" x2="93.33866628011067" y2="178.58999919891357" fill="rgb(0, 0, 0)" stroke="rgb(60, 60, 60)" stroke-width="1px" opacity="0.25"></line><line x1="116.67333285013835" y1="0" x2="116.67333285013835" y2="178.58999919891357" fill="rgb(0, 0, 0)" stroke="rgb(60, 60, 60)" stroke-width="1px" opacity="0.25"></line><line x1="140.00799942016602" y1="0" x2="140.00799942016602" y2="178.58999919891357" fill="rgb(0, 0, 0)" stroke="rgb(60, 60, 60)" stroke-width="1px" opacity="0.25"></line><line x1="163.3426659901937" y1="0" x2="163.3426659901937" y2="178.58999919891357" fill="rgb(0, 0, 0)" stroke="rgb(60, 60, 60)" stroke-width="1px" opacity="0.25"></line><line x1="186.67733256022134" y1="0" x2="186.67733256022134" y2="178.58999919891357" fill="rgb(0, 0, 0)" stroke="rgb(60, 60, 60)" stroke-width="1px" opacity="0.25"></line><line x1="210.01199913024902" y1="0" x2="210.01199913024902" y2="178.58999919891357" fill="rgb(0, 0, 0)" stroke="rgb(60, 60, 60)" stroke-width="1px" opacity="0.25"></line><line x1="233.3466657002767" y1="0" x2="233.3466657002767" y2="178.58999919891357" fill="rgb(0, 0, 0)" stroke="rgb(60, 60, 60)" stroke-width="1px" opacity="0.25"></line><line x1="256.6813322703043" y1="0" x2="256.6813322703043" y2="178.58999919891357" fill="rgb(0, 0, 0)" stroke="rgb(60, 60, 60)" stroke-width="1px" opacity="0.25"></line><line x1="280.01599884033203" y1="0" x2="280.01599884033203" y2="178.58999919891357" fill="rgb(0, 0, 0)" stroke="rgb(60, 60, 60)" stroke-width="1px" opacity="0.25"></line></g><g><line x1="0" y1="178.58999919891357" x2="280.01599884033203" y2="178.58999919891357" fill="rgb(0, 0, 0)" stroke="rgb(60, 60, 60)" stroke-width="1px" opacity="0.25"></line><line x1="0" y1="158.74666595458984" x2="280.01599884033203" y2="158.74666595458984" fill="rgb(0, 0, 0)" stroke="rgb(60, 60, 60)" stroke-width="1px" opacity="0.25"></line><line x1="0" y1="138.9033327102661" x2="280.01599884033203" y2="138.9033327102661" fill="rgb(0, 0, 0)" stroke="rgb(60, 60, 60)" stroke-width="1px" opacity="0.25"></line><line x1="0" y1="119.0599994659424" x2="280.01599884033203" y2="119.0599994659424" fill="rgb(0, 0, 0)" stroke="rgb(60, 60, 60)" stroke-width="1px" opacity="0.25"></line><line x1="0" y1="99.21666622161865" x2="280.01599884033203" y2="99.21666622161865" fill="rgb(0, 0, 0)" stroke="rgb(60, 60, 60)" stroke-width="1px" opacity="0.25"></line><line x1="0" y1="79.37333297729492" x2="280.01599884033203" y2="79.37333297729492" fill="rgb(0, 0, 0)" stroke="rgb(60, 60, 60)" stroke-width="1px" opacity="0.25"></line><line x1="0" y1="59.5299997329712" x2="280.01599884033203" y2="59.5299997329712" fill="rgb(0, 0, 0)" stroke="rgb(60, 60, 60)" stroke-width="1px" opacity="0.25"></line><line x1="0" y1="39.68666648864746" x2="280.01599884033203" y2="39.68666648864746" fill="rgb(0, 0, 0)" stroke="rgb(60, 60, 60)" stroke-width="1px" opacity="0.25"></line><line x1="0" y1="19.843333244323738" x2="280.01599884033203" y2="19.843333244323738" fill="rgb(0, 0, 0)" stroke="rgb(60, 60, 60)" stroke-width="1px" opacity="0.25"></line><line x1="0" y1="0" x2="280.01599884033203" y2="0" fill="rgb(0, 0, 0)" stroke="rgb(60, 60, 60)" stroke-width="1px" opacity="0.25"></line></g></g></g><g><g><line x1="0" y1="158.74666595458984" x2="280.01599884033203" y2="158.74666595458984" fill="rgb(0, 0, 0)" stroke="rgb(153, 153, 153)" stroke-width="1.5px"></line></g></g><g><g><line x1="23.334666570027668" y1="0" x2="23.334666570027668" y2="178.58999919891357" fill="rgb(0, 0, 0)" stroke="rgb(153, 153, 153)" stroke-width="1.5px"></line></g></g><g><g><g><g><g><path style="fill: none;" stroke="rgb(204, 51, 17)" stroke-width="2px" d="M29.86837320963542,-2.9465536419324625L30.801759872436524,8.341496471033954L31.73514653523763,7.70095314427399L32.66853319803874,-29.077222402057L34.535306523640955,-2.3090270317497175L35.46869318644206,10.982910593307915L36.402079849243165,18.961601020982144L37.33546651204427,24.69836649786994L38.268853174845376,6.330483266882042L39.20223983764649,16.015431566428354L40.13562650044759,22.958900252538307L41.0690131632487,27.328927850098005L42.0023998260498,30.546244530592627L42.93578648885091,32.64732085578417L43.86917315165202,36.46512672021491L44.802559814453126,39.9454738363703L45.73594647725423,46.19318042128667L46.669333140055336,50.74601088773937L47.60271980285645,53.514723515014516L48.536106465657554,57.32748193092363L49.46949312845866,60.31785107168372L50.402879791259764,64.17669292205335L51.33626645406087,68.0318044399751L52.26965311686198,71.55712480076913L53.20303977966309,75.54047344857248L54.13642644246419,69.12682930957091L55.0698131052653,69.13194848386154L56.00319976806641,75.96077387433411L56.936586430867514,80.57793807058127L57.86997309366862,83.20034301324368L58.803359756469725,88.56518890575306L59.73674641927084,91.29546918829107L60.67013308207194,95.8714868090728L61.60351974487305,97.45372269697462L62.53690640767415,99.62162341295699L63.47029307047526,102.60372079741705L64.40367973327638,104.26666858162298L65.33706639607747,107.34811441261908L66.27045305887857,107.59872814896431L67.20383972167969,108.54960189084716L68.1372263844808,111.78703957300587L69.07061304728191,112.78406285163706L70.00399971008301,113.73344145861743L70.93738637288412,115.61375399913452L71.87077303568522,117.80256508896883L72.80415969848633,118.72382528922267L73.73754636128743,118.4067740459506L74.67093302408854,120.93363392786873L75.60431968688965,119.12188463534554L76.53770634969075,120.75111384479773L77.47109301249186,121.95206334945993L78.40447967529298,123.16165864874861L79.33786633809407,121.82082048621356L80.27125300089519,123.81825620940715L81.20463966369628,125.71002108428104L82.1380263264974,126.94737789368757L83.07141298929851,127.18844680853931L84.0047996520996,128.46723744038155L84.93818631490072,128.0217717898697L85.87157297770182,128.19008681009444L86.80495964050293,130.37439437141833L87.73834630330404,131.43452915382633L88.67173296610514,132.28905159336804L89.60511962890625,133.22996015341351L90.53850629170735,132.43052308810186L91.47189295450846,133.7401607406258L92.40527961730957,134.6785442526097L93.33866628011067,135.14410306122474L94.27205294291178,135.4779425275343L95.2054396057129,135.15622175109436L96.138826268514,136.26193451500677L97.07221293131511,135.84051673513062L98.0055995941162,136.5788676014805L98.93898625691732,138.3161170551676L99.87237291971843,137.72675945461955L100.80575958251953,137.7527590456552L101.73914624532064,139.0433590441022L102.67253290812174,139.1396584733493L103.60591957092285,138.75247393660888L104.53930623372396,139.69768553638792L105.47269289652506,140.79205999780675L106.40607955932617,140.54820800541205L107.33946622212729,140.8814362396346L108.27285288492838,141.17911367374253L109.2062395477295,141.5636680284925L110.1396262105306,141.61217123929984L111.0730128733317,142.02981191198785L112.00639953613282,142.4913321235515L112.93978619893392,142.31426509889295L113.87317286173503,141.943245818405L114.80655952453613,142.97183273575524L115.73994618733724,143.0210903590522L116.67333285013835,143.62108427543407L117.60671951293945,143.6217303758362L118.54010617574056,144.2098478347781L119.47349283854167,144.4835077999267L120.40687950134277,144.22750741705428L121.34026616414388,145.09735392996356L122.27365282694498,146.06240411645894L123.2070394897461,146.22168825943348L124.1404261525472,145.45466760555885L125.0738128153483,145.51463078711078L126.00719947814942,145.30980170522707L126.94058614095051,145.83675044601864L127.87397280375163,146.7447782497519L128.80735946655275,147.05985332225694L129.74074612935382,146.7437300582579L130.67413279215495,147.1810528857862L131.60751945495605,147.16224756786764L132.54090611775715,147.7192350202654L133.47429278055827,148.2111014841869L134.40767944335937,147.9598733167009L135.3410661061605,148.20049437682374L136.2744527689616,148.39148836965245L137.2078394317627,147.81490082104582L138.14122609456382,147.2526924527093L139.0746127573649,147.98093207380754L140.00799942016602,148.42268469105096L140.9413860829671,148.2929050229512L141.87477274576824,148.51798378612207L142.80815940856934,148.58784753298033L143.74154607137044,149.20392559708966L144.67493273417156,148.95115716873389L145.60831939697266,149.1116033484542L146.54170605977376,148.99675594270343L147.47509272257486,148.6943858890293L148.40847938537598,148.72137897768368L149.34186604817708,149.01724572607247L150.27525271097818,149.05359002973523L151.2086393737793,149.31927048601986L152.1420260365804,149.0435967186508L153.0754126993815,149.87085280231125L154.00879936218263,150.2555529773264L154.94218602498373,150.12005829937235L155.87557268778482,149.89083269025667L156.80895935058595,149.85138152691502L157.74234601338705,149.83077321771376L158.67573267618815,150.36753953669597L159.60911933898925,150.36716924375332L160.54250600179037,150.92248298989077L161.47589266459147,151.32158143318452L162.40927932739257,151.32533875129064L163.3426659901937,151.619211753533L164.2760526529948,151.51228611667102L165.2094393157959,151.4215024288805L166.14282597859702,151.51824008803786L167.07621264139812,151.22495222150013L168.0095993041992,151.6442309113388L168.94298596700034,151.33200728428417L169.87637262980144,150.99150517491677L170.80975929260254,150.94046669936824L171.74314595540363,150.9488686096282L172.67653261820476,151.7549668927002L173.60991928100586,151.7605570702387L174.54330594380696,152.06037955604205L175.47669260660808,152.31079811592795L176.41007926940918,152.054077035092L177.34346593221028,152.66327820682392L178.2768525950114,152.33257169896757L179.2102392578125,151.56092235457447L180.1436259206136,151.94907340154563L181.0770125834147,152.48013510286074L182.01039924621583,152.56940189893123L182.94378590901692,152.35253241795974L183.87717257181802,152.10739468221635L184.81055923461915,151.9960146780442L185.74394589742025,152.1000930925017L186.67733256022134,152.4695151681552L187.61071922302247,152.6486003575919L188.54410588582357,152.58247557664362L189.47749254862467,152.2728250907643L190.4108792114258,152.15776164561436L191.3442658742269,152.84351820650065L192.277652537028,152.69587754839938L193.2110391998291,152.75456434419684L194.14442586263021,152.9634521407932L195.0778125254313,153.20649967588076L196.0111991882324,153.0892854153297L196.94458585103354,153.28353391016708L197.87797251383464,153.50479430278068" fill="none"></path></g><g><path style="fill: none;" stroke="rgb(204, 51, 17)" stroke-width="2px" d="M28.001599884033205,-13.312620547946093L28.93498654683431,2.2736318781664018L29.86837320963542,12.450377097314794L30.801759872436524,20.09545576089096L31.73514653523763,17.602330827854185L32.66853319803874,8.021014235730123L33.60191986083984,21.89436655521753L34.535306523640955,34.4111179273262L35.46869318644206,42.76865751455674L36.402079849243165,50.686426907830274L37.33546651204427,55.52481308203794L38.268853174845376,58.908640081439295L39.20223983764649,67.12118834852032L40.13562650044759,70.64832770233232L41.0690131632487,77.08601481999425L42.0023998260498,83.3631205642843L42.93578648885091,86.44048257347502L43.86917315165202,88.55638512295404L44.802559814453126,94.45961556258094L45.73594647725423,95.46027870519129L46.669333140055336,93.60030208497929L47.60271980285645,98.9120900535601L48.536106465657554,104.75782541970318L49.46949312845866,106.42337186839453L50.402879791259764,110.34703765141785L51.33626645406087,112.32587933611056L52.26965311686198,114.81964391278859L53.20303977966309,117.59959466558759L54.13642644246419,118.5335672345656L55.0698131052653,120.68281252866205L56.00319976806641,121.8413889799696L56.936586430867514,123.2980529638971L57.86997309366862,123.16605875168123L58.803359756469725,123.95359631987144L59.73674641927084,126.03097144962058L60.67013308207194,127.75822137368617L61.60351974487305,130.8454577937947L62.53690640767415,130.49676387244503L63.47029307047526,130.9819599117056L64.40367973327638,132.30232498073212L65.33706639607747,133.74670651908016L66.27045305887857,134.8827527990724L67.20383972167969,135.52902849829727L68.1372263844808,135.76107525562153L69.07061304728191,136.2940017058877L70.00399971008301,137.0250449555329L70.93738637288412,137.65037206681907L71.87077303568522,138.0907986817252L72.80415969848633,138.7737773001133L73.73754636128743,139.1739666522578L74.67093302408854,139.09603559756795L75.60431968688965,138.01980858073472L76.53770634969075,139.99989075455096L77.47109301249186,141.4283699874159L78.40447967529298,141.31803267663935L79.33786633809407,141.92634259550698L80.27125300089519,142.47810587773935L81.20463966369628,142.3029353181478L82.1380263264974,142.282239571125L83.07141298929851,141.68221249210134L84.0047996520996,142.5518856241085L84.93818631490072,143.70906255894081L85.87157297770182,143.65045017757402L86.80495964050293,144.22942914001348L87.73834630330404,143.99233834835294L88.67173296610514,145.65153302267296L89.60511962890625,146.10174686359315L90.53850629170735,145.55214422488407L91.47189295450846,145.1649277237702L92.40527961730957,146.11925195841036L93.33866628011067,147.3927313986073L94.27205294291178,148.27830383259774L95.2054396057129,148.1108669875222L96.138826268514,148.27814461805818L97.07221293131511,147.89193626789447L98.0055995941162,148.48356355979345L98.93898625691732,148.50989991464573L99.87237291971843,148.91547337739462L100.80575958251953,149.29332837695202L101.73914624532064,148.98427330934558L102.67253290812174,149.58684286754612L103.60591957092285,150.22542576057538L104.53930623372396,150.57629811710444L105.47269289652506,150.22293086555644L106.40607955932617,150.0767731634948L107.33946622212729,150.59857244912126L108.27285288492838,150.94275184907775L109.2062395477295,149.8713158415581L110.1396262105306,149.820704761255L111.0730128733317,150.21222723374632L112.00639953613282,150.73326590554018L112.93978619893392,150.91153478344782L113.87317286173503,150.71211104132226L114.80655952453613,150.97843345873952L115.73994618733724,151.47027444613985L116.67333285013835,151.81159258146997L117.60671951293945,152.09891396569003L118.54010617574056,151.41972757712438L119.47349283854167,150.70504390660247L120.40687950134277,150.9764874857253L121.34026616414388,151.19785174084677L122.27365282694498,151.56685862712652L123.2070394897461,152.13239615779094L124.1404261525472,152.5150044277753L125.0738128153483,152.47227439023553L126.00719947814942,152.90743007953225L126.94058614095051,153.05992057918462L127.87397280375163,153.0855914975692L128.80735946655275,152.97785744333322L129.74074612935382,153.6126323373292L130.67413279215495,153.91962146089188L131.60751945495605,153.86259646380952L132.54090611775715,153.39669700594257L133.47429278055827,153.42389107621622L134.40767944335937,154.0657251511187L135.3410661061605,154.15079499578533L136.2744527689616,154.3898580184755L137.2078394317627,154.32164516711998L138.14122609456382,153.89199869481808L139.0746127573649,153.95519687039794L140.00799942016602,153.60908983059304L140.9413860829671,153.95981587084236L141.87477274576824,154.51695927804974L142.80815940856934,154.6355865378394L143.74154607137044,154.25994094641433L144.67493273417156,154.8081818160581L145.60831939697266,154.2100990699173L146.54170605977376,154.1574596799392L147.47509272257486,154.3911647607011L148.40847938537598,153.92235411219883L149.34186604817708,154.25249129446473L150.27525271097818,154.12344821937143L151.2086393737793,154.18830139339062L152.1420260365804,154.57287966523282L153.0754126993815,154.77366283577098L154.00879936218263,154.96301992761028L154.94218602498373,154.65221219257396L155.87557268778482,155.20590273846227L156.80895935058595,155.16483550226172L157.74234601338705,155.27205446439788L158.67573267618815,155.46103850208635L159.60911933898925,155.5087200339601L160.54250600179037,155.26463737585965L161.47589266459147,155.6206096135126L162.40927932739257,155.6057092061303L163.3426659901937,155.2347441487787L164.2760526529948,155.08065265102735L165.2094393157959,155.34205446044837L166.14282597859702,155.00121218425997L167.07621264139812,155.32240999711783L168.0095993041992,155.56316674532195L168.94298596700034,155.64024587505264L169.87637262980144,156.01524993366658L170.80975929260254,155.97157464753639L171.74314595540363,155.86130706878149L172.67653261820476,156.04458815483616L173.60991928100586,156.04762139943924L174.54330594380696,156.3204014294935L175.47669260660808,156.35136335034963L176.41007926940918,156.5474973136777L177.34346593221028,156.2046383904177L178.2768525950114,156.4978625430691L179.2102392578125,156.5978823299127L180.1436259206136,156.65062617359348L181.0770125834147,156.68122662884426L182.01039924621583,156.68364041001018L182.94378590901692,156.8803056749807L183.87717257181802,156.9581288996497L184.81055923461915,157.00392541922443L185.74394589742025,156.89865199342057L186.67733256022134,156.45826602649132L187.61071922302247,156.49397267345648L188.54410588582357,156.07773373118295L189.47749254862467,155.74296389528078L190.4108792114258,156.149518036919L191.3442658742269,156.29744986068124L192.277652537028,155.9658202770418L193.2110391998291,155.66468952984243L194.14442586263021,156.2122432832697L195.0778125254313,155.7373959410274L196.0111991882324,156.10738952939664L196.94458585103354,156.29736472437665L197.87797251383464,156.2265201528301L198.81135917663573,156.38637666998878L199.74474583943686,155.87463497011382L200.67813250223796,155.35116864361572L201.61151916503906,155.73358472137178L202.54490582784018,155.8676632280626L203.47829249064128,155.864659409247L204.41167915344238,155.52645479600207L205.34506581624348,156.18937615745892L206.2784524790446,156.18852528022177L207.2118391418457,156.4117272708726L208.1452258046468,156.2809316124743L209.07861246744793,156.6081842459434L210.01199913024902,156.97478959887096L210.94538579305012,157.13035045001016L211.87877245585125,157.086592369999L212.81215911865235,157.06327258723869L213.74554578145344,156.73743664379825L214.67893244425457,156.46688017660983L215.61231910705567,156.5841580537515L216.54570576985677,156.8971428641836L217.47909243265786,156.8971025258405L218.412479095459,156.59971530780155L219.3458657582601,157.10956627420117L220.2792524210612,157.44907096471195L221.2126390838623,157.48657265645676L222.1460257466634,157.28993927319672L223.0794124094645,157.1257723714722L224.01279907226564,157.19225759931024L224.94618573506673,157.36188295469907L225.87957239786783,156.92924846494395L226.81295906066896,156.8035173556362L227.74634572347006,157.03902310137497L228.67973238627116,157.1682191607338L229.61311904907225,157.08917341065083L230.54650571187338,157.09076038520192L231.47989237467448,157.1785796435358L232.41327903747558,157.1869667993538L233.3466657002767,157.40634593615394L234.2800523630778,157.21924266575022L235.2134390258789,157.0350237329702L236.14682568868002,157.25653225191465L237.08021235148112,157.49833034782884L238.01359901428222,157.68326706734825L238.94698567708335,157.44580567098464L239.88037233988445,157.4042657808045L240.81375900268554,157.48213536458982L241.74714566548664,157.08495734078087L242.68053232828777,157.36987899756843L243.61391899108887,157.49767223301345L244.54730565388996,157.60629491445647L245.4806923166911,157.8471283284506L246.4140789794922,157.99278267163822L247.3474656422933,158.04554498494278L248.2808523050944,157.92750340056716L249.2142389678955,157.73372256961298L250.1476256306966,157.65552532270414L251.0810122934977,157.9344214526967L252.01439895629883,157.97957343073935L252.94778561909993,157.9402077526716L253.88117228190103,157.80486248605428L254.81455894470216,157.72356718128023L255.74794560750325,157.79764120494224L256.6813322703043,157.66223624507077" fill="none"></path></g></g></g></g><g opacity="0.2"><g><g><g><path style="fill: none;" stroke="rgb(204, 51, 17)" stroke-width="2px" d="M28.001599884033205,-14.564783600007122L28.93498654683431,17.212157927235697L29.86837320963542,21.894618061719026L30.801759872436524,24.989177796805514L31.73514653523763,6.749820955516952L32.66853319803874,-83.91091037622209L33.60191986083984,-3.0974740429855867L34.535306523640955,22.16801420599541L35.46869318644206,30.894776741364232L36.402079849243165,30.92025801140425L37.33546651204427,33.2994687017208L38.268853174845376,-21.213568906995548L39.20223983764649,30.540395008423737L40.13562650044759,33.3730455141349L41.0690131632487,33.88356980860544L42.0023998260498,35.37204310604148L42.93578648885091,35.79886620676007L43.86917315165202,42.191760140944105L44.802559814453126,45.1659532825738L45.73594647725423,55.56469589263679L46.669333140055336,57.575237171676235L47.60271980285645,57.66778537155051L48.536106465657554,63.046613701304985L49.46949312845866,64.8034020282712L50.402879791259764,69.96495356488458L51.33626645406087,73.81447043846083L52.26965311686198,76.84510464053938L53.20303977966309,81.51549594474567L54.13642644246419,59.5063635604647L55.0698131052653,69.13962724507748L56.00319976806641,86.20401178395446L56.936586430867514,87.50368429351694L57.86997309366862,87.13395040289356L58.803359756469725,96.61245771463608L59.73674641927084,95.39088960297386L60.67013308207194,102.73551323106993L61.60351974487305,99.82707652692376L62.53690640767415,102.8734744853657L63.47029307047526,107.07686687281557L64.40367973327638,106.76109025749976L65.33706639607747,111.97028315863281L66.27045305887857,107.97464875345872L67.20383972167969,109.97591250361802L68.1372263844808,116.64319609613494L69.07061304728191,114.2795977695637L70.00399971008301,115.15750936907648L70.93738637288412,118.43422280989648L71.87077303568522,121.08578172371074L72.80415969848633,120.105715589601L73.73754636128743,117.93119718104299L74.67093302408854,124.72392375074357L75.60431968688965,116.40426069656178L76.53770634969075,123.19495765897545L77.47109301249186,123.75348760645305L78.40447967529298,124.97605159768148L79.33786633809407,119.80956324241107L80.27125300089519,126.81440979419745L81.20463966369628,128.5476683965918L82.1380263264974,128.80341310779738L83.07141298929851,127.55005018081692L84.0047996520996,130.3854233881449L84.93818631490072,127.35357331410192L85.87157297770182,128.44255934043156L86.80495964050293,133.6508557134041L87.73834630330404,133.02473132743842L88.67173296610514,133.57083525268058L89.60511962890625,134.6413229934817L90.53850629170735,131.2313674901344L91.47189295450846,135.70461721941172L92.40527961730957,136.0861195205855L93.33866628011067,135.8424412741473L94.27205294291178,135.97870172699868L95.2054396057129,134.67364058643443L96.138826268514,137.9205036608754L97.07221293131511,135.2083900653164L98.0055995941162,137.68639390100532L98.93898625691732,140.92199123569827L99.87237291971843,136.8427230537975L100.80575958251953,137.79175843220867L101.73914624532064,140.9792590417727L102.67253290812174,139.28410761721995L103.60591957092285,138.17169713149826L104.53930623372396,141.1155029360565L105.47269289652506,142.43362168993497L106.40607955932617,140.18243001682004L107.33946622212729,141.3812785909684L108.27285288492838,141.62562982490442L109.2062395477295,142.1404995606174L110.1396262105306,141.6849260555109L111.0730128733317,142.65627292101988L112.00639953613282,143.18361244089698L112.93978619893392,142.04866456190513L113.87317286173503,141.386716897673L114.80655952453613,144.51471311178062L115.73994618733724,143.09497679399766L116.67333285013835,144.52107515000682L117.60671951293945,143.62269952643942L118.54010617574056,145.0920240231909L119.47349283854167,144.89399774764968L120.40687950134277,143.84350684274563L121.34026616414388,146.4021236993275L122.27365282694498,147.50997939620197L123.2070394897461,146.4606144738953L124.1404261525472,144.3041366247469L125.0738128153483,145.60457555943867L126.00719947814942,145.0025580824015L126.94058614095051,146.627173557206L127.87397280375163,148.1068199553518L128.80735946655275,147.53246593101449L129.74074612935382,146.26954516225936L130.67413279215495,147.8370371270786L131.60751945495605,147.13403959098986L132.54090611775715,148.55471619886202L133.47429278055827,148.94890118006919L134.40767944335937,147.5830310654719L135.3410661061605,148.561425967008L136.2744527689616,148.67797935889547L137.2078394317627,146.95001949813587L138.14122609456382,146.40937990020456L139.0746127573649,149.07329150545485L140.00799942016602,149.08531361691612L140.9413860829671,148.09823552080155L141.87477274576824,148.85560193087838L142.80815940856934,148.69264315326774L143.74154607137044,150.12804269325363L144.67493273417156,148.57200452620026L145.60831939697266,149.35227261803465L146.54170605977376,148.82448483407728L147.47509272257486,148.24083080851807L148.40847938537598,148.76186861066526L149.34186604817708,149.46104584865571L150.27525271097818,149.1081064852294L151.2086393737793,149.7177911704468L152.1420260365804,148.63008606759718L153.0754126993815,151.1117369278019L154.00879936218263,150.83260323984913L154.94218602498373,149.91681628244126L155.87557268778482,149.54699427658312L156.80895935058595,149.79220478190254L157.74234601338705,149.79986075391187L158.67573267618815,151.17268901516925L159.60911933898925,150.3666138043394L160.54250600179037,151.75545360909692L161.47589266459147,151.9202290981252L162.40927932739257,151.33097472844977L163.3426659901937,152.06002125689653L164.2760526529948,151.3518976613781L165.2094393157959,151.2853268971947L166.14282597859702,151.66334657677393L167.07621264139812,150.7850204216935L168.0095993041992,152.27314894609682L168.94298596700034,150.86367184370224L169.87637262980144,150.48075201086567L170.80975929260254,150.8639089860455L171.74314595540363,150.9614714750181L172.67653261820476,152.96411431730823L173.60991928100586,151.7689423365464L174.54330594380696,152.51011328474715L175.47669260660808,152.68642595575673L176.41007926940918,151.66899541383813L177.34346593221028,153.57707996442178L178.2768525950114,151.83651193718305L179.2102392578125,150.4034483379848L180.1436259206136,152.5312999720024L181.0770125834147,153.2767276548334L182.01039924621583,152.703302093037L182.94378590901692,152.02722819650248L183.87717257181802,151.73968807860126L184.81055923461915,151.8289446717859L185.74394589742025,152.25621071418803L186.67733256022134,153.0236482816354L187.61071922302247,152.917228141747L188.54410588582357,152.48328840522117L189.47749254862467,151.80834936194526L190.4108792114258,151.9851664778895L191.3442658742269,153.8721530478301L192.277652537028,152.47441656124744L193.2110391998291,152.842594537893L194.14442586263021,153.27678383568778L195.0778125254313,153.5710709785121L196.0111991882324,152.9134640245031L196.94458585103354,153.57490665242315L197.87797251383464,153.83668489170114" fill="none"></path></g><g><path style="fill: none;" stroke="rgb(204, 51, 17)" stroke-width="2px" d="M26.13482655843099,-43.51353124173511L27.068213221232096,13.48305495730938L28.001599884033205,20.681111606972532L28.93498654683431,24.562222227546044L29.86837320963542,27.28816932358722L30.801759872436524,31.37046180958623L31.73514653523763,13.90033086104677L32.66853319803874,-6.2640588161503L33.60191986083984,42.628896863773214L34.535306523640955,53.145375620552834L35.46869318644206,55.28859360531123L36.402079849243165,62.55377395704044L37.33546651204427,62.77897993855641L38.268853174845376,63.982948658360336L39.20223983764649,79.43792558402652L40.13562650044759,75.9384994088705L41.0690131632487,86.74195706638488L42.0023998260498,92.77843492932222L42.93578648885091,91.0564243253534L43.86917315165202,91.73019717236774L44.802559814453126,103.31439129262891L45.73594647725423,96.96126630682146L46.669333140055336,90.81034508661196L47.60271980285645,106.87975841502181L48.536106465657554,113.526419494337L49.46949312845866,108.9216900072279L50.402879791259764,116.23253415740238L51.33626645406087,115.29414120694423L52.26965311686198,118.56029028162995L53.20303977966309,121.7695204629158L54.13642644246419,119.93452602113405L55.0698131052653,123.90668037743912L56.00319976806641,123.57925362705576L56.936586430867514,125.48304891725137L57.86997309366862,122.96806743458272L58.803359756469725,125.13490266777036L59.73674641927084,129.14703413730194L60.67013308207194,130.34909625632122L61.60351974487305,135.4763124202433L62.53690640767415,129.9737229906723L63.47029307047526,131.70975397038626L64.40367973327638,134.2828725839288L65.33706639607747,135.913278826377L66.27045305887857,136.58682221895447L67.20383972167969,136.49844204709825L68.1372263844808,136.10914539160012L69.07061304728191,137.0933913812762L70.00399971008301,138.12160982999183L70.93738637288412,138.5883627337438L71.87077303568522,138.75143860408252L72.80415969848633,139.79824522769366L73.73754636128743,139.77425068047393L74.67093302408854,138.97913901553324L75.60431968688965,136.40546805548547L76.53770634969075,142.97001401527467L77.47109301249186,143.571088836713L78.40447967529298,141.15252671047455L79.33786633809407,142.8388074738084L80.27125300089519,143.30575080108787L81.20463966369628,142.04017947876054L82.1380263264974,142.25119595059073L83.07141298929851,140.78217187356586L84.0047996520996,143.85639532211928L84.93818631490072,145.44482796118928L85.87157297770182,143.56253160552382L86.80495964050293,145.09789758367265L87.73834630330404,143.63670216086217L88.67173296610514,148.14032503415302L89.60511962890625,146.77706762497343L90.53850629170735,144.72774026682043L91.47189295450846,144.5841029720994L92.40527961730957,147.5507383103706L93.33866628011067,149.3029505589027L94.27205294291178,149.6066624835834L95.2054396057129,147.85971171990894L96.138826268514,148.52906106386212L97.07221293131511,147.3126237426489L98.0055995941162,149.3710044976419L98.93898625691732,148.54940444692414L99.87237291971843,149.52383357151797L100.80575958251953,149.8601108762881L101.73914624532064,148.52069070793596L102.67253290812174,150.4906972048469L103.60591957092285,151.1833001001193L104.53930623372396,151.102606651898L105.47269289652506,149.69287998823444L106.40607955932617,149.85753661040238L107.33946622212729,151.38127137756098L108.27285288492838,151.45902094901246L109.2062395477295,148.26416183027862L110.1396262105306,149.7447881408004L111.0730128733317,150.7995109424833L112.00639953613282,151.51482391323094L112.93978619893392,151.17893810030927L113.87317286173503,150.4129754281339L114.80655952453613,151.3779170848654L115.73994618733724,152.2080359272404L116.67333285013835,152.3235697844651L117.60671951293945,152.52989604202014L118.54010617574056,150.4009479942759L119.47349283854167,149.6330184008196L120.40687950134277,151.38365285440955L121.34026616414388,151.52989812352894L122.27365282694498,152.12036895654617L123.2070394897461,152.9807024537876L124.1404261525472,153.08891683275186L125.0738128153483,152.40817933392586L126.00719947814942,153.56016361347733L126.94058614095051,153.28865632866317L127.87397280375163,153.12409787514605L128.80735946655275,152.81625636197924L129.74074612935382,154.56479467832318L130.67413279215495,154.38010514623585L131.60751945495605,153.777058968186L132.54090611775715,152.6978478191422L133.47429278055827,153.46468218162667L134.40767944335937,155.02847626347244L135.3410661061605,154.2783997627853L136.2744527689616,154.7484525525107L137.2078394317627,154.2193258900867L138.14122609456382,153.24752898636524L139.0746127573649,154.04999413376768L140.00799942016602,153.08992927088565L140.9413860829671,154.48590493121634L141.87477274576824,155.3526743888608L142.80815940856934,154.8135274275239L143.74154607137044,153.6964725592767L144.67493273417156,155.63054312052375L145.60831939697266,153.3129749507061L146.54170605977376,154.07850059497207L147.47509272257486,154.7417223818439L148.40847938537598,153.21913813944542L149.34186604817708,154.74769706786356L150.27525271097818,153.92988360673144L151.2086393737793,154.28558115441945L152.1420260365804,155.14974707299612L153.0754126993815,155.07483759157822L154.00879936218263,155.24705556536918L154.94218602498373,154.18600059001952L155.87557268778482,156.03643855729467L156.80895935058595,155.1032346479609L157.74234601338705,155.43288290760216L158.67573267618815,155.7445145586191L159.60911933898925,155.58024233177062L160.54250600179037,154.89851338870906L161.47589266459147,156.15456796999206L162.40927932739257,155.58335859505684L163.3426659901937,154.67829656275134L164.2760526529948,154.8495154044003L165.2094393157959,155.7341571745799L166.14282597859702,154.48994876997733L167.07621264139812,155.80420671640465L168.0095993041992,155.92430186762812L168.94298596700034,155.75586456964868L169.87637262980144,156.57775602158748L170.80975929260254,155.9060617183411L171.74314595540363,155.69590570064912L172.67653261820476,156.31950978391816L173.60991928100586,156.05217126634383L174.54330594380696,156.72957147457493L175.47669260660808,156.3978062316338L176.41007926940918,156.8416982586698L177.34346593221028,155.69035000552773L178.2768525950114,156.93769877204613L179.2102392578125,156.74791201017808L180.1436259206136,156.7297419391147L181.0770125834147,156.7271273117204L182.01039924621583,156.68726108175912L182.94378590901692,157.17530357243646L183.87717257181802,157.07486373665313L184.81055923461915,157.07262019858652L185.74394589742025,156.74074185471486L186.67733256022134,155.79768707609747L187.61071922302247,156.5475326439042L188.54410588582357,155.45337531777264L189.47749254862467,155.24080914142752L190.4108792114258,156.75934924937633L191.3442658742269,156.51934759632465L192.277652537028,155.46837590158253L193.2110391998291,155.2129934090434L194.14442586263021,157.03357391341055L195.0778125254313,155.02512492766394L196.0111991882324,156.66237991195055L196.94458585103354,156.58232751684665L197.87797251383464,156.12025329551022L198.81135917663573,156.6261614457268L199.74474583943686,155.10702242030138L200.67813250223796,154.56596915386854L201.61151916503906,156.30720883800592L202.54490582784018,156.06878098809884L203.47829249064128,155.8601536810236L204.41167915344238,155.01914787613464L205.34506581624348,157.1837581996442L206.2784524790446,156.18724896436603L207.2118391418457,156.7465302568489L208.1452258046468,156.08473812487682L209.07861246744793,157.09906319614703L210.01199913024902,157.5246976282623L210.94538579305012,157.36369172671897L211.87877245585125,157.0209552499823L212.81215911865235,157.02829291309823L213.74554578145344,156.24868272863756L214.67893244425457,156.06104547582723L215.61231910705567,156.76007486946403L216.54570576985677,157.3666200798317L217.47909243265786,156.89704201832586L218.412479095459,156.1536344807431L219.3458657582601,157.8743427238006L220.2792524210612,157.95832800047808L221.2126390838623,157.542825194074L222.1460257466634,156.99498919830665L223.0794124094645,156.87952201888547L224.01279907226564,157.29198544106725L224.94618573506673,157.6163209877823L225.87957239786783,156.28029673031128L226.81295906066896,156.61492069167457L227.74634572347006,157.39228171998317L228.67973238627116,157.36201324977202L229.61311904907225,156.97060478552635L230.54650571187338,157.09314084702856L231.47989237467448,157.31030853103667L232.41327903747558,157.1995475330808L233.3466657002767,157.73541464135417L234.2800523630778,156.93858776014463L235.2134390258789,156.75869533380015L236.14682568868002,157.58879503033134L237.08021235148112,157.86102749170016L238.01359901428222,157.96067214662736L238.94698567708335,157.0896135764392L239.88037233988445,157.3419559455343L240.81375900268554,157.5989397402678L241.74714566548664,156.48919030506744L242.68053232828777,157.79726148274978L243.61391899108887,157.68936208618095L244.54730565388996,157.76922893662103L245.4806923166911,158.20837844944182L246.4140789794922,158.21126418641958L247.3474656422933,158.12468845489965L248.2808523050944,157.75044102400375L249.2142389678955,157.4430513231817L250.1476256306966,157.53822945234086L251.0810122934977,158.35276564768563L252.01439895629883,158.04730139780332L252.94778561909993,157.88115923556992L253.88117228190103,157.6018445861283L254.81455894470216,157.60162422411918L255.74794560750325,157.90875224043526L256.6813322703043,157.45912880526356" fill="none"></path></g></g></g></g></g></g><g transform="translate(49, 178)" clip-path="url(#clip_1)"><clipPath id="clip_1"><rect width="280" height="21"></rect></clipPath><g><g><line x1="0" y1="0" x2="0" y2="5" style="visibility: inherit;" fill="rgb(0, 0, 0)" stroke="rgb(204, 204, 204)" stroke-width="1px"></line><line x1="23.334666570027668" y1="0" x2="23.334666570027668" y2="5" style="visibility: inherit;" fill="rgb(0, 0, 0)" stroke="rgb(204, 204, 204)" stroke-width="1px"></line><line x1="46.669333140055336" y1="0" x2="46.669333140055336" y2="5" style="visibility: inherit;" fill="rgb(0, 0, 0)" stroke="rgb(204, 204, 204)" stroke-width="1px"></line><line x1="70.00399971008301" y1="0" x2="70.00399971008301" y2="5" style="visibility: inherit;" fill="rgb(0, 0, 0)" stroke="rgb(204, 204, 204)" stroke-width="1px"></line><line x1="93.33866628011067" y1="0" x2="93.33866628011067" y2="5" style="visibility: inherit;" fill="rgb(0, 0, 0)" stroke="rgb(204, 204, 204)" stroke-width="1px"></line><line x1="116.67333285013835" y1="0" x2="116.67333285013835" y2="5" style="visibility: inherit;" fill="rgb(0, 0, 0)" stroke="rgb(204, 204, 204)" stroke-width="1px"></line><line x1="140.00799942016602" y1="0" x2="140.00799942016602" y2="5" style="visibility: inherit;" fill="rgb(0, 0, 0)" stroke="rgb(204, 204, 204)" stroke-width="1px"></line><line x1="163.3426659901937" y1="0" x2="163.3426659901937" y2="5" style="visibility: inherit;" fill="rgb(0, 0, 0)" stroke="rgb(204, 204, 204)" stroke-width="1px"></line><line x1="186.67733256022134" y1="0" x2="186.67733256022134" y2="5" style="visibility: inherit;" fill="rgb(0, 0, 0)" stroke="rgb(204, 204, 204)" stroke-width="1px"></line><line x1="210.01199913024902" y1="0" x2="210.01199913024902" y2="5" style="visibility: inherit;" fill="rgb(0, 0, 0)" stroke="rgb(204, 204, 204)" stroke-width="1px"></line><line x1="233.3466657002767" y1="0" x2="233.3466657002767" y2="5" style="visibility: inherit;" fill="rgb(0, 0, 0)" stroke="rgb(204, 204, 204)" stroke-width="1px"></line><line x1="256.6813322703043" y1="0" x2="256.6813322703043" y2="5" style="visibility: inherit;" fill="rgb(0, 0, 0)" stroke="rgb(204, 204, 204)" stroke-width="1px"></line><line x1="280.01599884033203" y1="0" x2="280.01599884033203" y2="5" style="visibility: inherit;" fill="rgb(0, 0, 0)" stroke="rgb(204, 204, 204)" stroke-width="1px"></line></g><g transform="translate(0, 8)"><text style="text-anchor: middle; visibility: hidden; font-family: Roboto, sans-serif; font-size: 12px; font-weight: 200;" x="0" y="0" dx="0em" dy="0.95em" fill="rgb(50, 49, 63)" stroke="none" stroke-width="1px">-500</text><text style="text-anchor: middle; visibility: inherit; font-family: Roboto, sans-serif; font-size: 12px; font-weight: 200;" x="23.334666570027668" y="0" dx="0em" dy="0.95em" fill="rgb(50, 49, 63)" stroke="none" stroke-width="1px">0</text><text style="text-anchor: middle; visibility: inherit; font-family: Roboto, sans-serif; font-size: 12px; font-weight: 200;" x="46.669333140055336" y="0" dx="0em" dy="0.95em" fill="rgb(50, 49, 63)" stroke="none" stroke-width="1px">500</text><text style="text-anchor: middle; visibility: inherit; font-family: Roboto, sans-serif; font-size: 12px; font-weight: 200;" x="70.00399971008301" y="0" dx="0em" dy="0.95em" fill="rgb(50, 49, 63)" stroke="none" stroke-width="1px">1k</text><text style="text-anchor: middle; visibility: inherit; font-family: Roboto, sans-serif; font-size: 12px; font-weight: 200;" x="93.33866628011067" y="0" dx="0em" dy="0.95em" fill="rgb(50, 49, 63)" stroke="none" stroke-width="1px">1.5k</text><text style="text-anchor: middle; visibility: inherit; font-family: Roboto, sans-serif; font-size: 12px; font-weight: 200;" x="116.67333285013835" y="0" dx="0em" dy="0.95em" fill="rgb(50, 49, 63)" stroke="none" stroke-width="1px">2k</text><text style="text-anchor: middle; visibility: inherit; font-family: Roboto, sans-serif; font-size: 12px; font-weight: 200;" x="140.00799942016602" y="0" dx="0em" dy="0.95em" fill="rgb(50, 49, 63)" stroke="none" stroke-width="1px">2.5k</text><text style="text-anchor: middle; visibility: inherit; font-family: Roboto, sans-serif; font-size: 12px; font-weight: 200;" x="163.3426659901937" y="0" dx="0em" dy="0.95em" fill="rgb(50, 49, 63)" stroke="none" stroke-width="1px">3k</text><text style="text-anchor: middle; visibility: inherit; font-family: Roboto, sans-serif; font-size: 12px; font-weight: 200;" x="186.67733256022134" y="0" dx="0em" dy="0.95em" fill="rgb(50, 49, 63)" stroke="none" stroke-width="1px">3.5k</text><text style="text-anchor: middle; visibility: inherit; font-family: Roboto, sans-serif; font-size: 12px; font-weight: 200;" x="210.01199913024902" y="0" dx="0em" dy="0.95em" fill="rgb(50, 49, 63)" stroke="none" stroke-width="1px">4k</text><text style="text-anchor: middle; visibility: inherit; font-family: Roboto, sans-serif; font-size: 12px; font-weight: 200;" x="233.3466657002767" y="0" dx="0em" dy="0.95em" fill="rgb(50, 49, 63)" stroke="none" stroke-width="1px">4.5k</text><text style="text-anchor: middle; visibility: inherit; font-family: Roboto, sans-serif; font-size: 12px; font-weight: 200;" x="256.6813322703043" y="0" dx="0em" dy="0.95em" fill="rgb(50, 49, 63)" stroke="none" stroke-width="1px">5k</text><text style="text-anchor: middle; visibility: hidden; font-family: Roboto, sans-serif; font-size: 12px; font-weight: 200;" x="280.01599884033203" y="0" dx="0em" dy="0.95em" fill="rgb(50, 49, 63)" stroke="none" stroke-width="1px">5.5k</text></g><line x1="0" y1="0" x2="280.01599884033203" y2="0" fill="rgb(0, 0, 0)" stroke="rgb(204, 204, 204)" stroke-width="1px"></line></g></g></g></g></svg>