<svg viewBox="0 0 330 200" xmlns="http://www.w3.org/2000/svg"><g><g><g><g><g><line x1="49.98400115966797" y1="178.58999919891357" x2="44.98400115966797" y2="178.58999919891357" style="visibility: inherit;" fill="rgb(0, 0, 0)" stroke="rgb(204, 204, 204)" stroke-width="1px"></line><line x1="49.98400115966797" y1="158.74666595458984" x2="44.98400115966797" y2="158.74666595458984" style="visibility: inherit;" fill="rgb(0, 0, 0)" stroke="rgb(204, 204, 204)" stroke-width="1px"></line><line x1="49.98400115966797" y1="138.9033327102661" x2="44.98400115966797" y2="138.9033327102661" style="visibility: inherit;" fill="rgb(0, 0, 0)" stroke="rgb(204, 204, 204)" stroke-width="1px"></line><line x1="49.98400115966797" y1="119.0599994659424" x2="44.98400115966797" y2="119.0599994659424" style="visibility: inherit;" fill="rgb(0, 0, 0)" stroke="rgb(204, 204, 204)" stroke-width="1px"></line><line x1="49.98400115966797" y1="99.21666622161865" x2="44.98400115966797" y2="99.21666622161865" style="visibility: inherit;" fill="rgb(0, 0, 0)" stroke="rgb(204, 204, 204)" stroke-width="1px"></line><line x1="49.98400115966797" y1="79.37333297729492" x2="44.98400115966797" y2="79.37333297729492" style="visibility: inherit;" fill="rgb(0, 0, 0)" stroke="rgb(204, 204, 204)" stroke-width="1px"></line><line x1="49.98400115966797" y1="59.5299997329712" x2="44.98400115966797" y2="59.5299997329712" style="visibility: inherit;" fill="rgb(0, 0, 0)" stroke="rgb(204, 204, 204)" stroke-width="1px"></line><line x1="49.98400115966797" y1="39.68666648864746" x2="44.98400115966797" y2="39.68666648864746" style="visibility: inherit;" fill="rgb(0, 0, 0)" stroke="rgb(204, 204, 204)" stroke-width="1px"></line><line x1="49.98400115966797" y1="19.843333244323738" x2="44.98400115966797" y2="19.843333244323738" style="visibility: inherit;" fill="rgb(0, 0, 0)" stroke="rgb(204, 204, 204)" stroke-width="1px"></line><line x1="49.98400115966797" y1="0" x2="44.98400115966797" y2="0" style="visibility: inherit;" fill="rgb(0, 0, 0)" stroke="rgb(204, 204, 204)" stroke-width="1px"></line></g><g transform="translate(39.98400115966797, 0)"><text style="text-anchor: end; visibility: hidden; font-family: Roboto, sans-serif; font-size: 12px; font-weight: 200;" x="0" y="178.58999919891357" dx="0em" dy="0.3em" fill="rgb(50, 49, 63)" stroke="none" stroke-width="1px">-0.5</text><text style="text-anchor: end; visibility: inherit; font-family: Roboto, sans-serif; font-size: 12px; font-weight: 200;" x="0" y="158.74666595458984" dx="0em" dy="0.3em" fill="rgb(50, 49, 63)" stroke="none" stroke-width="1px">0</text><text style="text-anchor: end; visibility: hidden; font-family: Roboto, sans-serif; font-size: 12px; font-weight: 200;" x="0" y="138.9033327102661" dx="0em" dy="0.3em" fill="rgb(50, 49, 63)" stroke="none" stroke-width="1px">0.5</text><text style="text-anchor: end; visibility: inherit; font-family: Roboto, sans-serif; font-size: 12px; font-weight: 200;" x="0" y="119.0599994659424" dx="0em" dy="0.3em" fill="rgb(50, 49, 63)" stroke="none" stroke-width="1px">1</text><text style="text-anchor: end; visibility: hidden; font-family: Roboto, sans-serif; font-size: 12px; font-weight: 200;" x="0" y="99.21666622161865" dx="0em" dy="0.3em" fill="rgb(50, 49, 63)" stroke="none" stroke-width="1px">1.5</text><text style="text-anchor: end; visibility: inherit; font-family: Roboto, sans-serif; font-size: 12px; font-weight: 200;" x="0" y="79.37333297729492" dx="0em" dy="0.3em" fill="rgb(50, 49, 63)" stroke="none" stroke-width="1px">2</text><text style="text-anchor: end; visibility: hidden; font-family: Roboto, sans-serif; font-size: 12px; font-weight: 200;" x="0" y="59.5299997329712" dx="0em" dy="0.3em" fill="rgb(50, 49, 63)" stroke="none" stroke-width="1px">2.5</text><text style="text-anchor: end; visibility: inherit; font-family: Roboto, sans-serif; font-size: 12px; font-weight: 200;" x="0" y="39.68666648864746" dx="0em" dy="0.3em" fill="rgb(50, 49, 63)" stroke="none" stroke-width="1px">3</text><text style="text-anchor: end; visibility: hidden; font-family: Roboto, sans-serif; font-size: 12px; font-weight: 200;" x="0" y="19.843333244323738" dx="0em" dy="0.3em" fill="rgb(50, 49, 63)" stroke="none" stroke-width="1px">3.5</text><text style="text-anchor: end; visibility: hidden; font-family: Roboto, sans-serif; font-size: 12px; font-weight: 200;" x="0" y="0" dx="0em" dy="0.3em" fill="rgb(50, 49, 63)" stroke="none" stroke-width="1px">4</text></g><line x1="49.98400115966797" y1="0" x2="49.98400115966797" y2="178.58999919891357" fill="rgb(0, 0, 0)" stroke="rgb(204, 204, 204)" stroke-width="1px"></line></g></g><g transform="translate(49, 0)" clip-path="url(#clip_0)"><clipPath id="clip_0"><rect width="280" height="178"></rect></clipPath><g><g><g><line x1="0" y1="0" x2="0" y2="178.58999919891357" fill="rgb(0, 0, 0)" stroke="rgb(60, 60, 60)" stroke-width="1px" opacity="0.25"></line><line x1="23.334666570027668" y1="0" x2="23.334666570027668" y2="178.58999919891357" fill="rgb(0, 0, 0)" stroke="rgb(60, 60, 60)" stroke-width="1px" opacity="0.25"></line><line x1="46.669333140055336" y1="0" x2="46.669333140055336" y2="178.58999919891357" fill="rgb(0, 0, 0)" stroke="rgb(60, 60, 60)" stroke-width="1px" opacity="0.25"></line><line x1="70.00399971008301" y1="0" x2="70.00399971008301" y2="178.58999919891357" fill="rgb(0, 0, 0)" stroke="rgb(60, 60, 60)" stroke-width="1px" opacity="0.25"></line><line x1="93.33866628011067" y1="0" x2="93.33866628011067" y2="178.58999919891357" fill="rgb(0, 0, 0)" stroke="rgb(60, 60, 60)" stroke-width="1px" opacity="0.25"></line><line x1="116.67333285013835" y1="0" x2="116.67333285013835" y2="178.58999919891357" fill="rgb(0, 0, 0)" stroke="rgb(60, 60, 60)" stroke-width="1px" opacity="0.25"></line><line x1="140.00799942016602" y1="0" x2="140.00799942016602" y2="178.58999919891357" fill="rgb(0, 0, 0)" stroke="rgb(60, 60, 60)" stroke-width="1px" opacity="0.25"></line><line x1="163.3426659901937" y1="0" x2="163.3426659901937" y2="178.58999919891357" fill="rgb(0, 0, 0)" stroke="rgb(60, 60, 60)" stroke-width="1px" opacity="0.25"></line><line x1="186.67733256022134" y1="0" x2="186.67733256022134" y2="178.58999919891357" fill="rgb(0, 0, 0)" stroke="rgb(60, 60, 60)" stroke-width="1px" opacity="0.25"></line><line x1="210.01199913024902" y1="0" x2="210.01199913024902" y2="178.58999919891357" fill="rgb(0, 0, 0)" stroke="rgb(60, 60, 60)" stroke-width="1px" opacity="0.25"></line><line x1="233.3466657002767" y1="0" x2="233.3466657002767" y2="178.58999919891357" fill="rgb(0, 0, 0)" stroke="rgb(60, 60, 60)" stroke-width="1px" opacity="0.25"></line><line x1="256.6813322703043" y1="0" x2="256.6813322703043" y2="178.58999919891357" fill="rgb(0, 0, 0)" stroke="rgb(60, 60, 60)" stroke-width="1px" opacity="0.25"></line><line x1="280.01599884033203" y1="0" x2="280.01599884033203" y2="178.58999919891357" fill="rgb(0, 0, 0)" stroke="rgb(60, 60, 60)" stroke-width="1px" opacity="0.25"></line></g><g><line x1="0" y1="178.58999919891357" x2="280.01599884033203" y2="178.58999919891357" fill="rgb(0, 0, 0)" stroke="rgb(60, 60, 60)" stroke-width="1px" opacity="0.25"></line><line x1="0" y1="158.74666595458984" x2="280.01599884033203" y2="158.74666595458984" fill="rgb(0, 0, 0)" stroke="rgb(60, 60, 60)" stroke-width="1px" opacity="0.25"></line><line x1="0" y1="138.9033327102661" x2="280.01599884033203" y2="138.9033327102661" fill="rgb(0, 0, 0)" stroke="rgb(60, 60, 60)" stroke-width="1px" opacity="0.25"></line><line x1="0" y1="119.0599994659424" x2="280.01599884033203" y2="119.0599994659424" fill="rgb(0, 0, 0)" stroke="rgb(60, 60, 60)" stroke-width="1px" opacity="0.25"></line><line x1="0" y1="99.21666622161865" x2="280.01599884033203" y2="99.21666622161865" fill="rgb(0, 0, 0)" stroke="rgb(60, 60, 60)" stroke-width="1px" opacity="0.25"></line><line x1="0" y1="79.37333297729492" x2="280.01599884033203" y2="79.37333297729492" fill="rgb(0, 0, 0)" stroke="rgb(60, 60, 60)" stroke-width="1px" opacity="0.25"></line><line x1="0" y1="59.5299997329712" x2="280.01599884033203" y2="59.5299997329712" fill="rgb(0, 0, 0)" stroke="rgb(60, 60, 60)" stroke-width="1px" opacity="0.25"></line><line x1="0" y1="39.68666648864746" x2="280.01599884033203" y2="39.68666648864746" fill="rgb(0, 0, 0)" stroke="rgb(60, 60, 60)" stroke-width="1px" opacity="0.25"></line><line x1="0" y1="19.843333244323738" x2="280.01599884033203" y2="19.843333244323738" fill="rgb(0, 0, 0)" stroke="rgb(60, 60, 60)" stroke-width="1px" opacity="0.25"></line><line x1="0" y1="0" x2="280.01599884033203" y2="0" fill="rgb(0, 0, 0)" stroke="rgb(60, 60, 60)" stroke-width="1px" opacity="0.25"></line></g></g></g><g><g><line x1="0" y1="158.74666595458984" x2="280.01599884033203" y2="158.74666595458984" fill="rgb(0, 0, 0)" stroke="rgb(153, 153, 153)" stroke-width="1.5px"></line></g></g><g><g><line x1="23.334666570027668" y1="0" x2="23.334666570027668" y2="178.58999919891357" fill="rgb(0, 0, 0)" stroke="rgb(153, 153, 153)" stroke-width="1.5px"></line></g></g><g><g><g><g><g><path style="fill: none;" stroke="rgb(255, 112, 67)" stroke-width="2px" d="M30.801759872436524,-0.4975252477693873L31.73514653523763,4.76129291435598L32.66853319803874,0.4836420237771757L33.60191986083984,10.984485613401244L34.535306523640955,-21.85818204726L35.46869318644206,-9.414099522117034L36.402079849243165,4.739542715025921L37.33546651204427,15.492667862645842L38.268853174845376,22.545949857307377L39.20223983764649,27.810245707620965L40.13562650044759,30.33631776704686L41.0690131632487,33.789323579768364L42.0023998260498,36.25469841889033L42.93578648885091,43.0660939538118L43.86917315165202,45.35976178178577L44.802559814453126,47.32658549029231L45.73594647725423,49.39214141322441L46.669333140055336,56.065025884034625L47.60271980285645,59.96918582435202L48.536106465657554,64.54151597933108L49.46949312845866,68.83644495467676L50.402879791259764,69.6405025412021L51.33626645406087,72.49083895518393L52.26965311686198,76.08620430155732L53.20303977966309,79.09107063567023L54.13642644246419,82.78930864839243L55.0698131052653,86.1037378539151L56.00319976806641,90.65234045742258L56.936586430867514,92.78918593700878L57.86997309366862,91.4508440564737L58.803359756469725,91.77863960131127L59.73674641927084,94.38018299282852L60.67013308207194,98.28019878149206L61.60351974487305,102.79437088963988L62.53690640767415,106.13338277488687L63.47029307047526,107.52197312861477L64.40367973327638,109.1720684019526L65.33706639607747,110.25255994629472L66.27045305887857,111.43440409215815L67.20383972167969,112.73809751775951L68.1372263844808,112.69250441434592L69.07061304728191,115.39305145174691L70.00399971008301,117.97431877029226L70.93738637288412,119.34522122121702L71.87077303568522,121.00990021561803L72.80415969848633,122.04921649205458L73.73754636128743,123.61056335937838L74.67093302408854,124.52622003861069L75.60431968688965,123.79380775793486L76.53770634969075,122.7101157264786L77.47109301249186,124.62294063069722L78.40447967529298,124.438659663771L79.33786633809407,125.84058471232635L80.27125300089519,125.92024528047787L81.20463966369628,127.53335802695518L82.1380263264974,128.77701382248452L83.07141298929851,130.335365300443L84.0047996520996,130.24707374067447L84.93818631490072,130.38482227893726L85.87157297770182,130.14944755240364L86.80495964050293,130.6290828972554L87.73834630330404,132.87475765404523L88.67173296610514,134.56395310625004L89.60511962890625,134.44332961047652L90.53850629170735,133.35378446750335L91.47189295450846,136.00638936897192L92.40527961730957,135.30463185592637L93.33866628011067,136.74874481177721L94.27205294291178,136.61213051530396L95.2054396057129,136.69212649132123L96.138826268514,136.42545452013587L97.07221293131511,136.62179738958545L98.0055995941162,137.13330245332952L98.93898625691732,137.0580611910809L99.87237291971843,137.57117198208897L100.80575958251953,139.22502433365375L101.73914624532064,139.86654485531352L102.67253290812174,141.0815424204472L103.60591957092285,140.91537627877028L104.53930623372396,140.17038306373087L105.47269289652506,140.67569779779137L106.40607955932617,141.2861469456714L107.33946622212729,141.6157032513995L108.27285288492838,141.85938327513486L109.2062395477295,142.4589833214756L110.1396262105306,143.2144060643708L111.0730128733317,143.21913920859885L112.00639953613282,144.1782609758343L112.93978619893392,144.21784722024987L113.87317286173503,143.99921228873447L114.80655952453613,143.9436703935595L115.73994618733724,144.05618507721846L116.67333285013835,143.79759560725466L117.60671951293945,143.81639677453398L118.54010617574056,144.02451910320588L119.47349283854167,144.13419883187328L120.40687950134277,144.10898091121558L121.34026616414388,145.0952404162971L122.27365282694498,145.30793549724157L123.2070394897461,145.60684193878282L124.1404261525472,145.15465764747827L125.0738128153483,145.6403333453703L126.00719947814942,145.55589949305386L126.94058614095051,146.5939545936887L127.87397280375163,146.426217767673L128.80735946655275,146.85129600057954L129.74074612935382,146.40917189107424L130.67413279215495,146.96844596560254L131.60751945495605,147.00555831463967L132.54090611775715,146.77794700370725L133.47429278055827,147.11282865757158L134.40767944335937,146.72288219644594L135.3410661061605,146.984662694711L136.2744527689616,147.93493700402993L137.2078394317627,148.17362650600862L138.14122609456382,148.49261011201432L139.0746127573649,148.42454810112457L140.00799942016602,148.3305664084018L140.9413860829671,148.749233471972L141.87477274576824,147.69768107042543L142.80815940856934,147.96089004457255L143.74154607137044,148.8250823360484L144.67493273417156,148.70502743245166L145.60831939697266,148.72594246130015L146.54170605977376,148.6586574200468L147.47509272257486,149.3192649688901L148.40847938537598,149.40499053330728L149.34186604817708,149.74709827947294L150.27525271097818,150.10128287806245L151.2086393737793,149.87888877274975L152.1420260365804,149.27871241611325L153.0754126993815,149.849898765697L154.00879936218263,149.90201670285253L154.94218602498373,149.06292988417613L155.87557268778482,149.33655765088713L156.80895935058595,149.9480247474004L157.74234601338705,150.1222678338709L158.67573267618815,150.2700398264955L159.60911933898925,150.47009865669858L160.54250600179037,150.42731876364607L161.47589266459147,150.57352970579598L162.40927932739257,151.07139614183689L163.3426659901937,151.5063045448192L164.2760526529948,151.22800374696797L165.2094393157959,151.07299132782285L166.14282597859702,151.56797695626133L167.07621264139812,151.682266775554L168.0095993041992,151.7282779629061L168.94298596700034,151.7178957729587L169.87637262980144,151.39296489098183L170.80975929260254,151.45827298126426L171.74314595540363,151.78066989858846L172.67653261820476,151.73032406426307L173.60991928100586,151.80978064522623L174.54330594380696,151.18474977440056L175.47669260660808,151.56526912301604L176.41007926940918,151.7927681796177L177.34346593221028,152.10848595837712L178.2768525950114,152.13042127359932L179.2102392578125,151.81061450597457L180.1436259206136,151.8127237635244L181.0770125834147,151.85507964012604L182.01039924621583,152.12429441902748L182.94378590901692,152.2875657207827L183.87717257181802,152.15198504497795L184.81055923461915,152.43924620337785L185.74394589742025,152.32684852296578L186.67733256022134,152.80642408807722L187.61071922302247,152.4041533349586L188.54410588582357,153.11266057675508L189.47749254862467,153.23446021963997L190.4108792114258,153.19978394390296L191.3442658742269,153.40392963113746L192.277652537028,153.00183239614918L193.2110391998291,152.62534188935334L194.14442586263021,152.89625783750193L195.0778125254313,153.09134759380268L196.0111991882324,153.3398677220099L196.94458585103354,153.55495126124566L197.87797251383464,153.86493720787303" fill="none"></path></g><g><path style="fill: none;" stroke="rgb(204, 51, 17)" stroke-width="2px" d="M28.001599884033205,-13.312620547946093L28.93498654683431,2.2736318781664018L29.86837320963542,12.450377097314794L30.801759872436524,20.09545576089096L31.73514653523763,17.602330827854185L32.66853319803874,8.021014235730123L33.60191986083984,21.89436655521753L34.535306523640955,34.4111179273262L35.46869318644206,42.76865751455674L36.402079849243165,50.686426907830274L37.33546651204427,55.52481308203794L38.268853174845376,58.908640081439295L39.20223983764649,67.12118834852032L40.13562650044759,70.64832770233232L41.0690131632487,77.08601481999425L42.0023998260498,83.3631205642843L42.93578648885091,86.44048257347502L43.86917315165202,88.55638512295404L44.802559814453126,94.45961556258094L45.73594647725423,95.46027870519129L46.669333140055336,93.60030208497929L47.60271980285645,98.9120900535601L48.536106465657554,104.75782541970318L49.46949312845866,106.42337186839453L50.402879791259764,110.34703765141785L51.33626645406087,112.32587933611056L52.26965311686198,114.81964391278859L53.20303977966309,117.59959466558759L54.13642644246419,118.5335672345656L55.0698131052653,120.68281252866205L56.00319976806641,121.8413889799696L56.936586430867514,123.2980529638971L57.86997309366862,123.16605875168123L58.803359756469725,123.95359631987144L59.73674641927084,126.03097144962058L60.67013308207194,127.75822137368617L61.60351974487305,130.8454577937947L62.53690640767415,130.49676387244503L63.47029307047526,130.9819599117056L64.40367973327638,132.30232498073212L65.33706639607747,133.74670651908016L66.27045305887857,134.8827527990724L67.20383972167969,135.52902849829727L68.1372263844808,135.76107525562153L69.07061304728191,136.2940017058877L70.00399971008301,137.0250449555329L70.93738637288412,137.65037206681907L71.87077303568522,138.0907986817252L72.80415969848633,138.7737773001133L73.73754636128743,139.1739666522578L74.67093302408854,139.09603559756795L75.60431968688965,138.01980858073472L76.53770634969075,139.99989075455096L77.47109301249186,141.4283699874159L78.40447967529298,141.31803267663935L79.33786633809407,141.92634259550698L80.27125300089519,142.47810587773935L81.20463966369628,142.3029353181478L82.1380263264974,142.282239571125L83.07141298929851,141.68221249210134L84.0047996520996,142.5518856241085L84.93818631490072,143.70906255894081L85.87157297770182,143.65045017757402L86.80495964050293,144.22942914001348L87.73834630330404,143.99233834835294L88.67173296610514,145.65153302267296L89.60511962890625,146.10174686359315L90.53850629170735,145.55214422488407L91.47189295450846,145.1649277237702L92.40527961730957,146.11925195841036L93.33866628011067,147.3927313986073L94.27205294291178,148.27830383259774L95.2054396057129,148.1108669875222L96.138826268514,148.27814461805818L97.07221293131511,147.89193626789447L98.0055995941162,148.48356355979345L98.93898625691732,148.50989991464573L99.87237291971843,148.91547337739462L100.80575958251953,149.29332837695202L101.73914624532064,148.98427330934558L102.67253290812174,149.58684286754612L103.60591957092285,150.22542576057538L104.53930623372396,150.57629811710444L105.47269289652506,150.22293086555644L106.40607955932617,150.0767731634948L107.33946622212729,150.59857244912126L108.27285288492838,150.94275184907775L109.2062395477295,149.8713158415581L110.1396262105306,149.820704761255L111.0730128733317,150.21222723374632L112.00639953613282,150.73326590554018L112.93978619893392,150.91153478344782L113.87317286173503,150.71211104132226L114.80655952453613,150.97843345873952L115.73994618733724,151.47027444613985L116.67333285013835,151.81159258146997L117.60671951293945,152.09891396569003L118.54010617574056,151.41972757712438L119.47349283854167,150.70504390660247L120.40687950134277,150.9764874857253L121.34026616414388,151.19785174084677L122.27365282694498,151.56685862712652L123.2070394897461,152.13239615779094L124.1404261525472,152.5150044277753L125.0738128153483,152.47227439023553L126.00719947814942,152.90743007953225L126.94058614095051,153.05992057918462L127.87397280375163,153.0855914975692L128.80735946655275,152.97785744333322L129.74074612935382,153.6126323373292L130.67413279215495,153.91962146089188L131.60751945495605,153.86259646380952L132.54090611775715,153.39669700594257L133.47429278055827,153.42389107621622L134.40767944335937,154.0657251511187L135.3410661061605,154.15079499578533L136.2744527689616,154.3898580184755L137.2078394317627,154.32164516711998L138.14122609456382,153.89199869481808L139.0746127573649,153.95519687039794L140.00799942016602,153.60908983059304L140.9413860829671,153.95981587084236L141.87477274576824,154.51695927804974L142.80815940856934,154.6355865378394L143.74154607137044,154.25994094641433L144.67493273417156,154.8081818160581L145.60831939697266,154.2100990699173L146.54170605977376,154.1574596799392L147.47509272257486,154.3911647607011L148.40847938537598,153.92235411219883L149.34186604817708,154.25249129446473L150.27525271097818,154.12344821937143L151.2086393737793,154.18830139339062L152.1420260365804,154.57287966523282L153.0754126993815,154.77366283577098L154.00879936218263,154.96301992761028L154.94218602498373,154.65221219257396L155.87557268778482,155.20590273846227L156.80895935058595,155.16483550226172L157.74234601338705,155.27205446439788L158.67573267618815,155.46103850208635L159.60911933898925,155.5087200339601L160.54250600179037,155.26463737585965L161.47589266459147,155.6206096135126L162.40927932739257,155.6057092061303L163.3426659901937,155.2347441487787L164.2760526529948,155.08065265102735L165.2094393157959,155.34205446044837L166.14282597859702,155.00121218425997L167.07621264139812,155.32240999711783L168.0095993041992,155.56316674532195L168.94298596700034,155.64024587505264L169.87637262980144,156.01524993366658L170.80975929260254,155.97157464753639L171.74314595540363,155.86130706878149L172.67653261820476,156.04458815483616L173.60991928100586,156.04762139943924L174.54330594380696,156.3204014294935L175.47669260660808,156.35136335034963L176.41007926940918,156.5474973136777L177.34346593221028,156.2046383904177L178.2768525950114,156.4978625430691L179.2102392578125,156.5978823299127L180.1436259206136,156.65062617359348L181.0770125834147,156.68122662884426L182.01039924621583,156.68364041001018L182.94378590901692,156.8803056749807L183.87717257181802,156.9581288996497L184.81055923461915,157.00392541922443L185.74394589742025,156.89865199342057L186.67733256022134,156.45826602649132L187.61071922302247,156.49397267345648L188.54410588582357,156.07773373118295L189.47749254862467,155.74296389528078L190.4108792114258,156.149518036919L191.3442658742269,156.29744986068124L192.277652537028,155.9658202770418L193.2110391998291,155.66468952984243L194.14442586263021,156.2122432832697L195.0778125254313,155.7373959410274L196.0111991882324,156.10738952939664L196.94458585103354,156.29736472437665L197.87797251383464,156.2265201528301L198.81135917663573,156.38637666998878L199.74474583943686,155.87463497011382L200.67813250223796,155.35116864361572L201.61151916503906,155.73358472137178L202.54490582784018,155.8676632280626L203.47829249064128,155.864659409247L204.41167915344238,155.52645479600207L205.34506581624348,156.18937615745892L206.2784524790446,156.18852528022177L207.2118391418457,156.4117272708726L208.1452258046468,156.2809316124743L209.07861246744793,156.6081842459434L210.01199913024902,156.97478959887096L210.94538579305012,157.13035045001016L211.87877245585125,157.086592369999L212.81215911865235,157.06327258723869L213.74554578145344,156.73743664379825L214.67893244425457,156.46688017660983L215.61231910705567,156.5841580537515L216.54570576985677,156.8971428641836L217.47909243265786,156.8971025258405L218.412479095459,156.59971530780155L219.3458657582601,157.10956627420117L220.2792524210612,157.44907096471195L221.2126390838623,157.48657265645676L222.1460257466634,157.28993927319672L223.0794124094645,157.1257723714722L224.01279907226564,157.19225759931024L224.94618573506673,157.36188295469907L225.87957239786783,156.92924846494395L226.81295906066896,156.8035173556362L227.74634572347006,157.03902310137497L228.67973238627116,157.1682191607338L229.61311904907225,157.08917341065083L230.54650571187338,157.09076038520192L231.47989237467448,157.1785796435358L232.41327903747558,157.1869667993538L233.3466657002767,157.40634593615394L234.2800523630778,157.21924266575022L235.2134390258789,157.0350237329702L236.14682568868002,157.25653225191465L237.08021235148112,157.49833034782884L238.01359901428222,157.68326706734825L238.94698567708335,157.44580567098464L239.88037233988445,157.4042657808045L240.81375900268554,157.48213536458982L241.74714566548664,157.08495734078087L242.68053232828777,157.36987899756843L243.61391899108887,157.49767223301345L244.54730565388996,157.60629491445647L245.4806923166911,157.8471283284506L246.4140789794922,157.99278267163822L247.3474656422933,158.04554498494278L248.2808523050944,157.92750340056716L249.2142389678955,157.73372256961298L250.1476256306966,157.65552532270414L251.0810122934977,157.9344214526967L252.01439895629883,157.97957343073935L252.94778561909993,157.9402077526716L253.88117228190103,157.80486248605428L254.81455894470216,157.72356718128023L255.74794560750325,157.79764120494224L256.6813322703043,157.66223624507077" fill="none"></path></g></g></g></g><g opacity="0.2"><g><g><g><path style="fill: none;" stroke="rgb(255, 112, 67)" stroke-width="2px" d="M28.001599884033205,-7.0239740628840215L28.93498654683431,13.847636767896805L29.86837320963542,16.66859219385697L30.801759872436524,12.224348344010654L31.73514653523763,12.570025001408347L32.66853319803874,-5.8940363333485815L33.60191986083984,26.678605870739823L34.535306523640955,-71.01494653000555L35.46869318644206,9.227645012471847L36.402079849243165,25.953368995597884L37.33546651204427,31.614771647103233L38.268853174845376,33.12288813674241L39.20223983764649,35.705352878945185L40.13562650044759,34.12504103453238L41.0690131632487,38.968516680442015L42.0023998260498,39.95262547055791L42.93578648885091,53.28296312432258L43.86917315165202,48.80021823927655L44.802559814453126,50.27679775415027L45.73594647725423,52.49046061653507L46.669333140055336,66.07432413344577L47.60271980285645,65.8254157451529L48.536106465657554,71.40000419219585L49.46949312845866,75.2788344614587L50.402879791259764,70.84658847659966L51.33626645406087,76.7663426309541L52.26965311686198,81.47925160576006L53.20303977966309,83.59836977811892L54.13642644246419,88.33666540257855L55.0698131052653,91.07538151975564L56.00319976806641,97.47524424539324L56.936586430867514,95.99445412332761L57.86997309366862,89.44333124809488L58.803359756469725,92.27033291674185L59.73674641927084,98.28249807141036L60.67013308207194,104.1302224566673L61.60351974487305,109.56562904643079L62.53690640767415,111.14190060034707L63.47029307047526,109.60485865860528L64.40367973327638,111.64721131153055L65.33706639607747,111.87329726263941L66.27045305887857,113.20717031084268L67.20383972167969,114.69363765608843L68.1372263844808,112.62411475922706L69.07061304728191,119.44387200779387L70.00399971008301,121.84621974807897L70.93738637288412,121.40157489759417L71.87077303568522,123.50691870721232L72.80415969848633,123.60819090670668L73.73754636128743,125.9525836603616L74.67093302408854,125.89970505745829L75.60431968688965,122.69518933692154L76.53770634969075,121.08457767929461L77.47109301249186,127.49217798702477L78.40447967529298,124.16223821338167L79.33786633809407,127.94347228515926L80.27125300089519,126.03973613270512L81.20463966369628,129.95302714667116L82.1380263264974,130.64249751577847L83.07141298929851,132.67289251738066L84.0047996520996,130.1146364010217L84.93818631490072,130.59144508633142L85.87157297770182,129.7963854626032L86.80495964050293,131.34853591453304L87.73834630330404,136.24326978923L88.67173296610514,137.09774628455727L89.60511962890625,134.26239436681624L90.53850629170735,131.71946675304355L91.47189295450846,139.98529672117485L92.40527961730957,134.25199558635802L93.33866628011067,138.91491424555352L94.27205294291178,136.40720907059404L95.2054396057129,136.8121204553471L96.138826268514,136.02544656335783L97.07221293131511,136.9163116937599L98.0055995941162,137.90056004894564L98.93898625691732,136.94519929770797L99.87237291971843,138.34083816860107L100.80575958251953,141.7058028610009L101.73914624532064,140.82882563780316L102.67253290812174,142.90403876814776L103.60591957092285,140.66612706625494L104.53930623372396,139.05289324117172L105.47269289652506,141.4336698988821L106.40607955932617,142.20182066749146L107.33946622212729,142.11003770999167L108.27285288492838,142.2249033107379L109.2062395477295,143.35838339098672L110.1396262105306,144.3475401787136L111.0730128733317,143.2262389249409L112.00639953613282,145.6169436266875L112.93978619893392,144.2772265868732L113.87317286173503,143.67125989146137L114.80655952453613,143.86035755079706L115.73994618733724,144.22495710270692L116.67333285013835,143.40971140230897L117.60671951293945,143.84459852545297L118.54010617574056,144.33670259621374L119.47349283854167,144.29871842487438L120.40687950134277,144.07115403022902L121.34026616414388,146.57462967391933L122.27365282694498,145.62697811865831L123.2070394897461,146.05520160109467L124.1404261525472,144.47638121052148L125.0738128153483,146.3688468922083L126.00719947814942,145.42924871457922L126.94058614095051,148.15103724464097L127.87397280375163,146.17461252864945L128.80735946655275,147.4889133499393L129.74074612935382,145.74598572681634L130.67413279215495,147.80735707739495L131.60751945495605,147.0612268381954L132.54090611775715,146.43653003730856L133.47429278055827,147.61515113836816L134.40767944335937,146.1379625047574L135.3410661061605,147.37733344210858L136.2744527689616,149.36034846800834L137.2078394317627,148.53166075897667L138.14122609456382,148.97108552102284L139.0746127573649,148.32245508478996L140.00799942016602,148.18959386931766L140.9413860829671,149.37723406732724L141.87477274576824,146.12035246810564L142.80815940856934,148.35570350579326L143.74154607137044,150.12137077326219L144.67493273417156,148.52494507705654L145.60831939697266,148.7573150045729L146.54170605977376,148.5577298581668L147.47509272257486,150.31017629215506L148.40847938537598,149.53357887993306L149.34186604817708,150.26025989872144L150.27525271097818,150.63255977594673L151.2086393737793,149.54529761478065L152.1420260365804,148.37844788115854L153.0754126993815,150.7066782900726L154.00879936218263,149.98019360858586L154.94218602498373,147.8042996561615L155.87557268778482,149.74699930095358L156.80895935058595,150.86522539217037L157.74234601338705,150.3836324635766L158.67573267618815,150.4916978154324L159.60911933898925,150.77018690200325L160.54250600179037,150.3631489240673L161.47589266459147,150.79284611902082L162.40927932739257,151.81819579589825L163.3426659901937,152.15866714929268L164.2760526529948,150.81055255019118L165.2094393157959,150.84047269910513L166.14282597859702,152.31045539891906L167.07621264139812,151.85370150449305L168.0095993041992,151.79729474393426L168.94298596700034,151.70232248803757L169.87637262980144,150.90556856801655L170.80975929260254,151.55623511668787L171.74314595540363,152.2642652745748L172.67653261820476,151.65480531277495L173.60991928100586,151.92896551667098L174.54330594380696,150.24720346816204L175.47669260660808,152.1360481459393L176.41007926940918,152.13401676452017L177.34346593221028,152.5820626265163L178.2768525950114,152.1633242464326L179.2102392578125,151.33090435453744L180.1436259206136,151.8158876498491L181.0770125834147,151.91861345502852L182.01039924621583,152.52811658737963L182.94378590901692,152.53247267341553L183.87717257181802,151.94861403127086L184.81055923461915,152.8701379409777L185.74394589742025,152.15825200234764L186.67733256022134,153.5257874357444L187.61071922302247,151.80074720528066L188.54410588582357,154.17542143944985L189.47749254862467,153.41715968396733L190.4108792114258,153.1477695302974L191.3442658742269,153.7101481619892L192.277652537028,152.3986865436668L193.2110391998291,152.06060612915957L194.14442586263021,153.30263175972485L195.0778125254313,153.38398222825379L196.0111991882324,153.71264791432068L196.94458585103354,153.87757657009934L197.87797251383464,154.3299161278141" fill="none"></path></g><g><path style="fill: none;" stroke="rgb(204, 51, 17)" stroke-width="2px" d="M26.13482655843099,-43.51353124173511L27.068213221232096,13.48305495730938L28.001599884033205,20.681111606972532L28.93498654683431,24.562222227546044L29.86837320963542,27.28816932358722L30.801759872436524,31.37046180958623L31.73514653523763,13.90033086104677L32.66853319803874,-6.2640588161503L33.60191986083984,42.628896863773214L34.535306523640955,53.145375620552834L35.46869318644206,55.28859360531123L36.402079849243165,62.55377395704044L37.33546651204427,62.77897993855641L38.268853174845376,63.982948658360336L39.20223983764649,79.43792558402652L40.13562650044759,75.9384994088705L41.0690131632487,86.74195706638488L42.0023998260498,92.77843492932222L42.93578648885091,91.0564243253534L43.86917315165202,91.73019717236774L44.802559814453126,103.31439129262891L45.73594647725423,96.96126630682146L46.669333140055336,90.81034508661196L47.60271980285645,106.87975841502181L48.536106465657554,113.526419494337L49.46949312845866,108.9216900072279L50.402879791259764,116.23253415740238L51.33626645406087,115.29414120694423L52.26965311686198,118.56029028162995L53.20303977966309,121.7695204629158L54.13642644246419,119.93452602113405L55.0698131052653,123.90668037743912L56.00319976806641,123.57925362705576L56.936586430867514,125.48304891725137L57.86997309366862,122.96806743458272L58.803359756469725,125.13490266777036L59.73674641927084,129.14703413730194L60.67013308207194,130.34909625632122L61.60351974487305,135.4763124202433L62.53690640767415,129.9737229906723L63.47029307047526,131.70975397038626L64.40367973327638,134.2828725839288L65.33706639607747,135.913278826377L66.27045305887857,136.58682221895447L67.20383972167969,136.49844204709825L68.1372263844808,136.10914539160012L69.07061304728191,137.0933913812762L70.00399971008301,138.12160982999183L70.93738637288412,138.5883627337438L71.87077303568522,138.75143860408252L72.80415969848633,139.79824522769366L73.73754636128743,139.77425068047393L74.67093302408854,138.97913901553324L75.60431968688965,136.40546805548547L76.53770634969075,142.97001401527467L77.47109301249186,143.571088836713L78.40447967529298,141.15252671047455L79.33786633809407,142.8388074738084L80.27125300089519,143.30575080108787L81.20463966369628,142.04017947876054L82.1380263264974,142.25119595059073L83.07141298929851,140.78217187356586L84.0047996520996,143.85639532211928L84.93818631490072,145.44482796118928L85.87157297770182,143.56253160552382L86.80495964050293,145.09789758367265L87.73834630330404,143.63670216086217L88.67173296610514,148.14032503415302L89.60511962890625,146.77706762497343L90.53850629170735,144.72774026682043L91.47189295450846,144.5841029720994L92.40527961730957,147.5507383103706L93.33866628011067,149.3029505589027L94.27205294291178,149.6066624835834L95.2054396057129,147.85971171990894L96.138826268514,148.52906106386212L97.07221293131511,147.3126237426489L98.0055995941162,149.3710044976419L98.93898625691732,148.54940444692414L99.87237291971843,149.52383357151797L100.80575958251953,149.8601108762881L101.73914624532064,148.52069070793596L102.67253290812174,150.4906972048469L103.60591957092285,151.1833001001193L104.53930623372396,151.102606651898L105.47269289652506,149.69287998823444L106.40607955932617,149.85753661040238L107.33946622212729,151.38127137756098L108.27285288492838,151.45902094901246L109.2062395477295,148.26416183027862L110.1396262105306,149.7447881408004L111.0730128733317,150.7995109424833L112.00639953613282,151.51482391323094L112.93978619893392,151.17893810030927L113.87317286173503,150.4129754281339L114.80655952453613,151.3779170848654L115.73994618733724,152.2080359272404L116.67333285013835,152.3235697844651L117.60671951293945,152.52989604202014L118.54010617574056,150.4009479942759L119.47349283854167,149.6330184008196L120.40687950134277,151.38365285440955L121.34026616414388,151.52989812352894L122.27365282694498,152.12036895654617L123.2070394897461,152.9807024537876L124.1404261525472,153.08891683275186L125.0738128153483,152.40817933392586L126.00719947814942,153.56016361347733L126.94058614095051,153.28865632866317L127.87397280375163,153.12409787514605L128.80735946655275,152.81625636197924L129.74074612935382,154.56479467832318L130.67413279215495,154.38010514623585L131.60751945495605,153.777058968186L132.54090611775715,152.6978478191422L133.47429278055827,153.46468218162667L134.40767944335937,155.02847626347244L135.3410661061605,154.2783997627853L136.2744527689616,154.7484525525107L137.2078394317627,154.2193258900867L138.14122609456382,153.24752898636524L139.0746127573649,154.04999413376768L140.00799942016602,153.08992927088565L140.9413860829671,154.48590493121634L141.87477274576824,155.3526743888608L142.80815940856934,154.8135274275239L143.74154607137044,153.6964725592767L144.67493273417156,155.63054312052375L145.60831939697266,153.3129749507061L146.54170605977376,154.07850059497207L147.47509272257486,154.7417223818439L148.40847938537598,153.21913813944542L149.34186604817708,154.74769706786356L150.27525271097818,153.92988360673144L151.2086393737793,154.28558115441945L152.1420260365804,155.14974707299612L153.0754126993815,155.07483759157822L154.00879936218263,155.24705556536918L154.94218602498373,154.18600059001952L155.87557268778482,156.03643855729467L156.80895935058595,155.1032346479609L157.74234601338705,155.43288290760216L158.67573267618815,155.7445145586191L159.60911933898925,155.58024233177062L160.54250600179037,154.89851338870906L161.47589266459147,156.15456796999206L162.40927932739257,155.58335859505684L163.3426659901937,154.67829656275134L164.2760526529948,154.8495154044003L165.2094393157959,155.7341571745799L166.14282597859702,154.48994876997733L167.07621264139812,155.80420671640465L168.0095993041992,155.92430186762812L168.94298596700034,155.75586456964868L169.87637262980144,156.57775602158748L170.80975929260254,155.9060617183411L171.74314595540363,155.69590570064912L172.67653261820476,156.31950978391816L173.60991928100586,156.05217126634383L174.54330594380696,156.72957147457493L175.47669260660808,156.3978062316338L176.41007926940918,156.8416982586698L177.34346593221028,155.69035000552773L178.2768525950114,156.93769877204613L179.2102392578125,156.74791201017808L180.1436259206136,156.7297419391147L181.0770125834147,156.7271273117204L182.01039924621583,156.68726108175912L182.94378590901692,157.17530357243646L183.87717257181802,157.07486373665313L184.81055923461915,157.07262019858652L185.74394589742025,156.74074185471486L186.67733256022134,155.79768707609747L187.61071922302247,156.5475326439042L188.54410588582357,155.45337531777264L189.47749254862467,155.24080914142752L190.4108792114258,156.75934924937633L191.3442658742269,156.51934759632465L192.277652537028,155.46837590158253L193.2110391998291,155.2129934090434L194.14442586263021,157.03357391341055L195.0778125254313,155.02512492766394L196.0111991882324,156.66237991195055L196.94458585103354,156.58232751684665L197.87797251383464,156.12025329551022L198.81135917663573,156.6261614457268L199.74474583943686,155.10702242030138L200.67813250223796,154.56596915386854L201.61151916503906,156.30720883800592L202.54490582784018,156.06878098809884L203.47829249064128,155.8601536810236L204.41167915344238,155.01914787613464L205.34506581624348,157.1837581996442L206.2784524790446,156.18724896436603L207.2118391418457,156.7465302568489L208.1452258046468,156.08473812487682L209.07861246744793,157.09906319614703L210.01199913024902,157.5246976282623L210.94538579305012,157.36369172671897L211.87877245585125,157.0209552499823L212.81215911865235,157.02829291309823L213.74554578145344,156.24868272863756L214.67893244425457,156.06104547582723L215.61231910705567,156.76007486946403L216.54570576985677,157.3666200798317L217.47909243265786,156.89704201832586L218.412479095459,156.1536344807431L219.3458657582601,157.8743427238006L220.2792524210612,157.95832800047808L221.2126390838623,157.542825194074L222.1460257466634,156.99498919830665L223.0794124094645,156.87952201888547L224.01279907226564,157.29198544106725L224.94618573506673,157.6163209877823L225.87957239786783,156.28029673031128L226.81295906066896,156.61492069167457L227.74634572347006,157.39228171998317L228.67973238627116,157.36201324977202L229.61311904907225,156.97060478552635L230.54650571187338,157.09314084702856L231.47989237467448,157.31030853103667L232.41327903747558,157.1995475330808L233.3466657002767,157.73541464135417L234.2800523630778,156.93858776014463L235.2134390258789,156.75869533380015L236.14682568868002,157.58879503033134L237.08021235148112,157.86102749170016L238.01359901428222,157.96067214662736L238.94698567708335,157.0896135764392L239.88037233988445,157.3419559455343L240.81375900268554,157.5989397402678L241.74714566548664,156.48919030506744L242.68053232828777,157.79726148274978L243.61391899108887,157.68936208618095L244.54730565388996,157.76922893662103L245.4806923166911,158.20837844944182L246.4140789794922,158.21126418641958L247.3474656422933,158.12468845489965L248.2808523050944,157.75044102400375L249.2142389678955,157.4430513231817L250.1476256306966,157.53822945234086L251.0810122934977,158.35276564768563L252.01439895629883,158.04730139780332L252.94778561909993,157.88115923556992L253.88117228190103,157.6018445861283L254.81455894470216,157.60162422411918L255.74794560750325,157.90875224043526L256.6813322703043,157.45912880526356" fill="none"></path></g></g></g></g></g></g><g transform="translate(49, 178)" clip-path="url(#clip_1)"><clipPath id="clip_1"><rect width="280" height="21"></rect></clipPath><g><g><line x1="0" y1="0" x2="0" y2="5" style="visibility: inherit;" fill="rgb(0, 0, 0)" stroke="rgb(204, 204, 204)" stroke-width="1px"></line><line x1="23.334666570027668" y1="0" x2="23.334666570027668" y2="5" style="visibility: inherit;" fill="rgb(0, 0, 0)" stroke="rgb(204, 204, 204)" stroke-width="1px"></line><line x1="46.669333140055336" y1="0" x2="46.669333140055336" y2="5" style="visibility: inherit;" fill="rgb(0, 0, 0)" stroke="rgb(204, 204, 204)" stroke-width="1px"></line><line x1="70.00399971008301" y1="0" x2="70.00399971008301" y2="5" style="visibility: inherit;" fill="rgb(0, 0, 0)" stroke="rgb(204, 204, 204)" stroke-width="1px"></line><line x1="93.33866628011067" y1="0" x2="93.33866628011067" y2="5" style="visibility: inherit;" fill="rgb(0, 0, 0)" stroke="rgb(204, 204, 204)" stroke-width="1px"></line><line x1="116.67333285013835" y1="0" x2="116.67333285013835" y2="5" style="visibility: inherit;" fill="rgb(0, 0, 0)" stroke="rgb(204, 204, 204)" stroke-width="1px"></line><line x1="140.00799942016602" y1="0" x2="140.00799942016602" y2="5" style="visibility: inherit;" fill="rgb(0, 0, 0)" stroke="rgb(204, 204, 204)" stroke-width="1px"></line><line x1="163.3426659901937" y1="0" x2="163.3426659901937" y2="5" style="visibility: inherit;" fill="rgb(0, 0, 0)" stroke="rgb(204, 204, 204)" stroke-width="1px"></line><line x1="186.67733256022134" y1="0" x2="186.67733256022134" y2="5" style="visibility: inherit;" fill="rgb(0, 0, 0)" stroke="rgb(204, 204, 204)" stroke-width="1px"></line><line x1="210.01199913024902" y1="0" x2="210.01199913024902" y2="5" style="visibility: inherit;" fill="rgb(0, 0, 0)" stroke="rgb(204, 204, 204)" stroke-width="1px"></line><line x1="233.3466657002767" y1="0" x2="233.3466657002767" y2="5" style="visibility: inherit;" fill="rgb(0, 0, 0)" stroke="rgb(204, 204, 204)" stroke-width="1px"></line><line x1="256.6813322703043" y1="0" x2="256.6813322703043" y2="5" style="visibility: inherit;" fill="rgb(0, 0, 0)" stroke="rgb(204, 204, 204)" stroke-width="1px"></line><line x1="280.01599884033203" y1="0" x2="280.01599884033203" y2="5" style="visibility: inherit;" fill="rgb(0, 0, 0)" stroke="rgb(204, 204, 204)" stroke-width="1px"></line></g><g transform="translate(0, 8)"><text style="text-anchor: middle; visibility: hidden; font-family: Roboto, sans-serif; font-size: 12px; font-weight: 200;" x="0" y="0" dx="0em" dy="0.95em" fill="rgb(50, 49, 63)" stroke="none" stroke-width="1px">-500</text><text style="text-anchor: middle; visibility: inherit; font-family: Roboto, sans-serif; font-size: 12px; font-weight: 200;" x="23.334666570027668" y="0" dx="0em" dy="0.95em" fill="rgb(50, 49, 63)" stroke="none" stroke-width="1px">0</text><text style="text-anchor: middle; visibility: inherit; font-family: Roboto, sans-serif; font-size: 12px; font-weight: 200;" x="46.669333140055336" y="0" dx="0em" dy="0.95em" fill="rgb(50, 49, 63)" stroke="none" stroke-width="1px">500</text><text style="text-anchor: middle; visibility: inherit; font-family: Roboto, sans-serif; font-size: 12px; font-weight: 200;" x="70.00399971008301" y="0" dx="0em" dy="0.95em" fill="rgb(50, 49, 63)" stroke="none" stroke-width="1px">1k</text><text style="text-anchor: middle; visibility: inherit; font-family: Roboto, sans-serif; font-size: 12px; font-weight: 200;" x="93.33866628011067" y="0" dx="0em" dy="0.95em" fill="rgb(50, 49, 63)" stroke="none" stroke-width="1px">1.5k</text><text style="text-anchor: middle; visibility: inherit; font-family: Roboto, sans-serif; font-size: 12px; font-weight: 200;" x="116.67333285013835" y="0" dx="0em" dy="0.95em" fill="rgb(50, 49, 63)" stroke="none" stroke-width="1px">2k</text><text style="text-anchor: middle; visibility: inherit; font-family: Roboto, sans-serif; font-size: 12px; font-weight: 200;" x="140.00799942016602" y="0" dx="0em" dy="0.95em" fill="rgb(50, 49, 63)" stroke="none" stroke-width="1px">2.5k</text><text style="text-anchor: middle; visibility: inherit; font-family: Roboto, sans-serif; font-size: 12px; font-weight: 200;" x="163.3426659901937" y="0" dx="0em" dy="0.95em" fill="rgb(50, 49, 63)" stroke="none" stroke-width="1px">3k</text><text style="text-anchor: middle; visibility: inherit; font-family: Roboto, sans-serif; font-size: 12px; font-weight: 200;" x="186.67733256022134" y="0" dx="0em" dy="0.95em" fill="rgb(50, 49, 63)" stroke="none" stroke-width="1px">3.5k</text><text style="text-anchor: middle; visibility: inherit; font-family: Roboto, sans-serif; font-size: 12px; font-weight: 200;" x="210.01199913024902" y="0" dx="0em" dy="0.95em" fill="rgb(50, 49, 63)" stroke="none" stroke-width="1px">4k</text><text style="text-anchor: middle; visibility: inherit; font-family: Roboto, sans-serif; font-size: 12px; font-weight: 200;" x="233.3466657002767" y="0" dx="0em" dy="0.95em" fill="rgb(50, 49, 63)" stroke="none" stroke-width="1px">4.5k</text><text style="text-anchor: middle; visibility: inherit; font-family: Roboto, sans-serif; font-size: 12px; font-weight: 200;" x="256.6813322703043" y="0" dx="0em" dy="0.95em" fill="rgb(50, 49, 63)" stroke="none" stroke-width="1px">5k</text><text style="text-anchor: middle; visibility: hidden; font-family: Roboto, sans-serif; font-size: 12px; font-weight: 200;" x="280.01599884033203" y="0" dx="0em" dy="0.95em" fill="rgb(50, 49, 63)" stroke="none" stroke-width="1px">5.5k</text></g><line x1="0" y1="0" x2="280.01599884033203" y2="0" fill="rgb(0, 0, 0)" stroke="rgb(204, 204, 204)" stroke-width="1px"></line></g></g></g></g></svg>