<svg viewBox="0 0 330 200" xmlns="http://www.w3.org/2000/svg"><g><g><g><g><g><line x1="30.766000747680664" y1="177.5999994277954" x2="25.766000747680664" y2="177.5999994277954" style="visibility: inherit;" fill="rgb(0, 0, 0)" stroke="rgb(204, 204, 204)" stroke-width="1px"></line><line x1="30.766000747680664" y1="155.39999949932098" x2="25.766000747680664" y2="155.39999949932098" style="visibility: inherit;" fill="rgb(0, 0, 0)" stroke="rgb(204, 204, 204)" stroke-width="1px"></line><line x1="30.766000747680664" y1="133.19999957084656" x2="25.766000747680664" y2="133.19999957084656" style="visibility: inherit;" fill="rgb(0, 0, 0)" stroke="rgb(204, 204, 204)" stroke-width="1px"></line><line x1="30.766000747680664" y1="110.99999964237213" x2="25.766000747680664" y2="110.99999964237213" style="visibility: inherit;" fill="rgb(0, 0, 0)" stroke="rgb(204, 204, 204)" stroke-width="1px"></line><line x1="30.766000747680664" y1="88.7999997138977" x2="25.766000747680664" y2="88.7999997138977" style="visibility: inherit;" fill="rgb(0, 0, 0)" stroke="rgb(204, 204, 204)" stroke-width="1px"></line><line x1="30.766000747680664" y1="66.59999978542328" x2="25.766000747680664" y2="66.59999978542328" style="visibility: inherit;" fill="rgb(0, 0, 0)" stroke="rgb(204, 204, 204)" stroke-width="1px"></line><line x1="30.766000747680664" y1="44.39999985694885" x2="25.766000747680664" y2="44.39999985694885" style="visibility: inherit;" fill="rgb(0, 0, 0)" stroke="rgb(204, 204, 204)" stroke-width="1px"></line><line x1="30.766000747680664" y1="22.199999928474426" x2="25.766000747680664" y2="22.199999928474426" style="visibility: inherit;" fill="rgb(0, 0, 0)" stroke="rgb(204, 204, 204)" stroke-width="1px"></line><line x1="30.766000747680664" y1="0" x2="25.766000747680664" y2="0" style="visibility: inherit;" fill="rgb(0, 0, 0)" stroke="rgb(204, 204, 204)" stroke-width="1px"></line></g><g transform="translate(20.766000747680664, 0)"><text style="text-anchor: end; visibility: hidden; font-family: Roboto, sans-serif; font-size: 12px; font-weight: 200;" x="0" y="177.5999994277954" dx="0em" dy="0.3em" fill="rgb(50, 49, 63)" stroke="none" stroke-width="1px">-1</text><text style="text-anchor: end; visibility: inherit; font-family: Roboto, sans-serif; font-size: 12px; font-weight: 200;" x="0" y="155.39999949932098" dx="0em" dy="0.3em" fill="rgb(50, 49, 63)" stroke="none" stroke-width="1px">0</text><text style="text-anchor: end; visibility: hidden; font-family: Roboto, sans-serif; font-size: 12px; font-weight: 200;" x="0" y="133.19999957084656" dx="0em" dy="0.3em" fill="rgb(50, 49, 63)" stroke="none" stroke-width="1px">1</text><text style="text-anchor: end; visibility: inherit; font-family: Roboto, sans-serif; font-size: 12px; font-weight: 200;" x="0" y="110.99999964237213" dx="0em" dy="0.3em" fill="rgb(50, 49, 63)" stroke="none" stroke-width="1px">2</text><text style="text-anchor: end; visibility: hidden; font-family: Roboto, sans-serif; font-size: 12px; font-weight: 200;" x="0" y="88.7999997138977" dx="0em" dy="0.3em" fill="rgb(50, 49, 63)" stroke="none" stroke-width="1px">3</text><text style="text-anchor: end; visibility: inherit; font-family: Roboto, sans-serif; font-size: 12px; font-weight: 200;" x="0" y="66.59999978542328" dx="0em" dy="0.3em" fill="rgb(50, 49, 63)" stroke="none" stroke-width="1px">4</text><text style="text-anchor: end; visibility: hidden; font-family: Roboto, sans-serif; font-size: 12px; font-weight: 200;" x="0" y="44.39999985694885" dx="0em" dy="0.3em" fill="rgb(50, 49, 63)" stroke="none" stroke-width="1px">5</text><text style="text-anchor: end; visibility: inherit; font-family: Roboto, sans-serif; font-size: 12px; font-weight: 200;" x="0" y="22.199999928474426" dx="0em" dy="0.3em" fill="rgb(50, 49, 63)" stroke="none" stroke-width="1px">6</text><text style="text-anchor: end; visibility: hidden; font-family: Roboto, sans-serif; font-size: 12px; font-weight: 200;" x="0" y="0" dx="0em" dy="0.3em" fill="rgb(50, 49, 63)" stroke="none" stroke-width="1px">7</text></g><line x1="30.766000747680664" y1="0" x2="30.766000747680664" y2="177.5999994277954" fill="rgb(0, 0, 0)" stroke="rgb(204, 204, 204)" stroke-width="1px"></line></g></g><g transform="translate(30, 0)" clip-path="url(#clip_0)"><clipPath id="clip_0"><rect width="299" height="177"></rect></clipPath><g><g><g><line x1="0" y1="0" x2="0" y2="177.5999994277954" fill="rgb(0, 0, 0)" stroke="rgb(60, 60, 60)" stroke-width="1px" opacity="0.25"></line><line x1="24.936166604359943" y1="0" x2="24.936166604359943" y2="177.5999994277954" fill="rgb(0, 0, 0)" stroke="rgb(60, 60, 60)" stroke-width="1px" opacity="0.25"></line><line x1="49.87233320871989" y1="0" x2="49.87233320871989" y2="177.5999994277954" fill="rgb(0, 0, 0)" stroke="rgb(60, 60, 60)" stroke-width="1px" opacity="0.25"></line><line x1="74.80849981307983" y1="0" x2="74.80849981307983" y2="177.5999994277954" fill="rgb(0, 0, 0)" stroke="rgb(60, 60, 60)" stroke-width="1px" opacity="0.25"></line><line x1="99.74466641743977" y1="0" x2="99.74466641743977" y2="177.5999994277954" fill="rgb(0, 0, 0)" stroke="rgb(60, 60, 60)" stroke-width="1px" opacity="0.25"></line><line x1="124.68083302179973" y1="0" x2="124.68083302179973" y2="177.5999994277954" fill="rgb(0, 0, 0)" stroke="rgb(60, 60, 60)" stroke-width="1px" opacity="0.25"></line><line x1="149.61699962615967" y1="0" x2="149.61699962615967" y2="177.5999994277954" fill="rgb(0, 0, 0)" stroke="rgb(60, 60, 60)" stroke-width="1px" opacity="0.25"></line><line x1="174.55316623051962" y1="0" x2="174.55316623051962" y2="177.5999994277954" fill="rgb(0, 0, 0)" stroke="rgb(60, 60, 60)" stroke-width="1px" opacity="0.25"></line><line x1="199.48933283487955" y1="0" x2="199.48933283487955" y2="177.5999994277954" fill="rgb(0, 0, 0)" stroke="rgb(60, 60, 60)" stroke-width="1px" opacity="0.25"></line><line x1="224.4254994392395" y1="0" x2="224.4254994392395" y2="177.5999994277954" fill="rgb(0, 0, 0)" stroke="rgb(60, 60, 60)" stroke-width="1px" opacity="0.25"></line><line x1="249.36166604359946" y1="0" x2="249.36166604359946" y2="177.5999994277954" fill="rgb(0, 0, 0)" stroke="rgb(60, 60, 60)" stroke-width="1px" opacity="0.25"></line><line x1="274.29783264795935" y1="0" x2="274.29783264795935" y2="177.5999994277954" fill="rgb(0, 0, 0)" stroke="rgb(60, 60, 60)" stroke-width="1px" opacity="0.25"></line><line x1="299.23399925231934" y1="0" x2="299.23399925231934" y2="177.5999994277954" fill="rgb(0, 0, 0)" stroke="rgb(60, 60, 60)" stroke-width="1px" opacity="0.25"></line></g><g><line x1="0" y1="177.5999994277954" x2="299.23399925231934" y2="177.5999994277954" fill="rgb(0, 0, 0)" stroke="rgb(60, 60, 60)" stroke-width="1px" opacity="0.25"></line><line x1="0" y1="155.39999949932098" x2="299.23399925231934" y2="155.39999949932098" fill="rgb(0, 0, 0)" stroke="rgb(60, 60, 60)" stroke-width="1px" opacity="0.25"></line><line x1="0" y1="133.19999957084656" x2="299.23399925231934" y2="133.19999957084656" fill="rgb(0, 0, 0)" stroke="rgb(60, 60, 60)" stroke-width="1px" opacity="0.25"></line><line x1="0" y1="110.99999964237213" x2="299.23399925231934" y2="110.99999964237213" fill="rgb(0, 0, 0)" stroke="rgb(60, 60, 60)" stroke-width="1px" opacity="0.25"></line><line x1="0" y1="88.7999997138977" x2="299.23399925231934" y2="88.7999997138977" fill="rgb(0, 0, 0)" stroke="rgb(60, 60, 60)" stroke-width="1px" opacity="0.25"></line><line x1="0" y1="66.59999978542328" x2="299.23399925231934" y2="66.59999978542328" fill="rgb(0, 0, 0)" stroke="rgb(60, 60, 60)" stroke-width="1px" opacity="0.25"></line><line x1="0" y1="44.39999985694885" x2="299.23399925231934" y2="44.39999985694885" fill="rgb(0, 0, 0)" stroke="rgb(60, 60, 60)" stroke-width="1px" opacity="0.25"></line><line x1="0" y1="22.199999928474426" x2="299.23399925231934" y2="22.199999928474426" fill="rgb(0, 0, 0)" stroke="rgb(60, 60, 60)" stroke-width="1px" opacity="0.25"></line><line x1="0" y1="0" x2="299.23399925231934" y2="0" fill="rgb(0, 0, 0)" stroke="rgb(60, 60, 60)" stroke-width="1px" opacity="0.25"></line></g></g></g><g><g><line x1="0" y1="155.39999949932098" x2="299.23399925231934" y2="155.39999949932098" fill="rgb(0, 0, 0)" stroke="rgb(153, 153, 153)" stroke-width="1.5px"></line></g></g><g><g><line x1="24.936166604359943" y1="0" x2="24.936166604359943" y2="177.5999994277954" fill="rgb(0, 0, 0)" stroke="rgb(153, 153, 153)" stroke-width="1.5px"></line></g></g><g><g><g><g><g><path style="fill: none;" stroke="rgb(255, 112, 67)" stroke-width="2px" d="M31.91829325358073,-1.066764905575128L32.915739917755126,4.4085187137171L33.91318658192952,7.510182084380833L34.91063324610392,5.478286846740453L35.90807991027832,12.521607901831203L36.90552657445272,-5.807193996162957L37.90297323862712,2.4454647666697475L38.90041990280152,11.573424294660152L39.897866566975914,20.428769291501716L40.895313231150304,27.285794971715855L41.89275989532471,34.998554290273596L42.890206559499106,38.26555977662758L43.8876532236735,42.12591279689828L44.8850998878479,47.42544489872627L45.8825465520223,54.68253369945802L46.8799932161967,58.80019520196107L47.87743988037109,62.65020298667529L48.87488654454549,66.96876545250439L49.87233320871989,73.94287267900015L50.86977987289429,77.82815575982963L51.86722653706869,82.49342654758378L52.864673201243086,87.06126501010114L53.862119865417476,87.62628498359561L54.85956652959187,90.47702874205953L55.85701319376628,93.63528208233711L56.854459857940675,96.21525280074513L57.85190652211507,98.67697260675101L58.84935318628946,101.05063949420803L59.84679985046387,104.7343436487277L60.844246514638265,106.2830159557055L61.84169317881266,105.3573442260354L62.83913984298706,105.9639131588827L63.83658650716146,107.52126414911297L64.83403317133586,110.70855630156117L65.83147983551025,113.99639872591477L66.82892649968466,116.58916229460846L67.82637316385905,117.39713374634078L68.82381982803345,118.71553341499967L69.82126649220784,119.47071386983082L70.81871315638224,119.92388248167317L71.81615982055663,120.83476597132359L72.81360648473104,120.79352141832018L73.81105314890544,122.85706528535219L74.80849981307983,124.85546267550261L75.80594647725424,125.92664917556525L76.80339314142863,127.0544864249908L77.80083980560303,127.85648424161802L78.79828646977742,128.95609813269624L79.79573313395183,129.72595333718158L80.79317979812623,129.63053970614442L81.79062646230061,128.8466567890337L82.78807312647501,130.16196157929429L83.78551979064942,130.10966347624225L84.78296645482381,130.89633819110583L85.78041311899821,130.9382828064132L86.7778597831726,132.11003351527052L87.775306447347,133.120332112355L88.77275311152141,134.12918870518322L89.7701997756958,134.09560290746072L90.7676464398702,133.7997309001593L91.7650931040446,133.52816040718676L92.762539768219,134.0899394692749L93.7599864323934,135.88085277949108L94.75743309656778,137.2289819071649L95.75487976074218,137.11782764845213L96.75232642491657,136.28300725374982L97.74977308909098,137.97172322139113L98.74721975326538,137.4916605895325L99.74466641743977,138.43220761549063L100.74211308161418,138.4810160468454L101.73955974578858,138.3941972756948L102.73700640996297,138.09607225944842L103.73445307413738,138.24946915834377L104.73189973831177,138.7153686379529L105.72934640248617,138.61931779748664L106.72679306666058,138.99697423810116L107.72423973083495,140.18366491639313L108.72168639500936,140.77787912137816L109.71913305918375,141.78597752370914L110.71657972335815,141.5271963644143L111.71402638753256,140.89613898171066L112.71147305170695,141.3403185562429L113.70891971588135,141.8491994901075L114.70636638005575,142.19846805558709L115.70381304423015,142.3508061468491L116.70125970840455,142.93748029651175L117.69870637257893,143.4689223086194L118.69615303675333,143.44329061357442L119.69359970092773,143.9859068425905L120.69104636510212,144.08024969304222L121.68849302927653,143.71926471499955L122.68593969345092,143.67879578266022L123.68338635762532,143.64192898361514L124.68083302179973,143.35664470425323L125.67827968597412,143.4213301873212L126.67572635014852,143.69737473845967L127.67317301432293,143.86330633974728L128.6706196784973,143.93903934520569L129.66806634267172,144.50591426929063L130.6655130068461,144.68081364691952L131.6629596710205,144.74947261298445L132.66040633519492,144.60180806319346L133.6578529993693,144.9620489939478L134.6552996635437,144.86790858359342L135.6527463277181,145.66521076022053L136.6501929918925,145.47596355119694L137.6476396560669,145.69013207119298L138.6450863202413,145.51915021391775L139.64253298441568,145.95702258081306L140.63997964859007,146.09973178205283L141.6374263127645,145.82718568358172L142.63487297693888,146.02096610831262L143.63231964111327,145.75737749896896L144.6297663052877,145.94211801855255L145.62721296946208,146.57995340030587L146.62465963363647,146.6489044038711L147.6221062978109,146.96064098004223L148.61955296198528,146.87702346082713L149.61699962615967,146.75195164052604L150.61444629033406,147.16938757784467L151.61189295450848,146.65020832745748L152.60933961868287,146.87530426918678L153.60678628285726,147.41578204566383L154.60423294703168,147.08367436075198L155.60167961120607,147.13676983304867L156.59912627538046,146.90808739720765L157.59657293955485,147.58814975218456L158.59401960372927,147.64591015967315L159.59146626790366,147.8626090881348L160.58891293207802,148.16393211506625L161.58635959625246,147.94980681838464L162.58380626042683,147.5479714770909L163.58125292460122,147.99595749648535L164.57869958877563,148.08738295926798L165.57614625295002,147.37595841085798L166.57359291712442,147.548819093927L167.57103958129883,148.10604005514847L168.56848624547322,148.27999216879792L169.56593290964761,148.30437671716015L170.563379573822,148.50994854091448L171.56082623799642,148.35286440189773L172.5582729021708,148.54407601568963L173.5557195663452,148.8679540104935L174.55316623051962,149.2301599758222L175.550612894694,148.89108490998058L176.5480595588684,148.8075204438389L177.54550622304282,149.11468773081046L178.5429528872172,149.20761716546355L179.5403995513916,149.21098895262963L180.53784621556602,149.37823707246213L181.5352928797404,149.15422108773302L182.5327395439148,149.14413651203992L183.5301862080892,149.37438430311704L184.5276328722636,149.39708678968543L185.525079536438,149.33497969376617L186.52252620061236,148.89478314886614L187.5199728647868,149.13922008898572L188.51741952896117,149.18069289659252L189.51486619313556,149.56211110874014L190.51231285730998,149.66997180776562L191.50975952148437,149.5715112643773L192.50720618565876,149.49738724514026L193.50465284983315,149.4825194213894L194.50209951400757,149.79106376918403L195.49954617818196,149.86487582162079L196.49699284235635,149.69805894924409L197.49443950653077,149.77514125480886L198.49188617070516,149.80359143480922L199.48933283487955,150.1494740169545L200.48677949905397,149.78381269065085L201.48422616322836,150.32995273117209L202.48167282740275,150.43713366557523L203.47911949157717,150.37014991211072L204.47656615575156,150.54074645496902L205.47401281992595,150.2282408551995L206.47145948410034,149.9575297858166L207.46890614827475,150.164832058687L208.46635281244914,150.36215689026812L209.46379947662354,150.5610442449168L210.46124614079795,150.7528000988827L211.45869280497234,150.92314422425855" fill="none"></path></g><g><path style="fill: none;" stroke="rgb(204, 51, 17)" stroke-width="2px" d="M29.923399925231934,-4.620532659754148L30.92084658940633,5.767881580282676L31.91829325358073,12.136616873488805L32.915739917755126,18.26752335339039L33.91318658192952,20.040542460090002L34.91063324610392,17.834804014418534L35.90807991027832,30.02458290324441L36.90552657445272,43.243259248463914L37.90297323862712,53.05251076978415L38.90041990280152,62.35009103136402L39.897866566975914,67.74148582836774L40.895313231150304,72.85768902471035L41.89275989532471,80.19755788794907L42.890206559499106,83.49337145399356L43.8876532236735,89.57112172359739L44.8850998878479,95.44957704361475L45.8825465520223,98.43917114329908L46.8799932161967,100.77719390155042L47.87743988037109,105.53661265246097L48.87488654454549,106.20302777385997L49.87233320871989,104.94895401781602L50.86977987289429,109.6354495685935L51.86722653706869,114.28644723999484L52.864673201243086,115.2047863654479L53.862119865417476,118.47887117671306L54.85956652959187,120.14284088087601L55.85701319376628,122.32825329241113L56.854459857940675,124.34308273637421L57.85190652211507,124.86597488397341L58.84935318628946,126.16126226253238L59.84679985046387,126.92150694664392L60.844246514638265,128.0723776463653L61.84169317881266,128.10970949620966L62.83913984298706,128.9261949089492L63.83658650716146,130.36973305190065L64.83403317133586,131.66941263514022L65.83147983551025,134.31718269199575L66.82892649968466,133.86857866757902L67.82637316385905,134.06335627120498L68.82381982803345,134.77012522295345L69.82126649220784,135.6609408430072L70.81871315638224,136.75529702783442L71.81615982055663,137.1932332997145L72.81360648473104,137.54331349727138L73.81105314890544,137.88213927671217L74.80849981307983,138.52208513836356L75.80594647725424,138.92979762941232L76.80339314142863,138.9570926090241L77.80083980560303,139.48579776687106L78.79828646977742,139.76198294934233L79.79573313395183,139.79548025214484L80.79317979812623,138.8438475130327L81.79062646230061,140.36501434052445L82.78807312647501,141.47772543223985L83.78551979064942,141.35851334373325L84.78296645482381,141.7262199454153L85.78041311899821,142.14962255510136L86.7778597831726,142.1475399972112L87.775306447347,142.03935815653193L88.77275311152141,141.7593474912711L89.7701997756958,142.28733474698433L90.7676464398702,142.9483069584647L91.7650931040446,142.97819869717893L92.762539768219,143.39943044340038L93.7599864323934,143.2909433436917L94.75743309656778,144.6498924148612L95.75487976074218,144.9371013229753L96.75232642491657,144.4507367895949L97.74977308909098,144.2457384428221L98.74721975326538,144.98550948393486L99.74466641743977,145.79021663849917L100.74211308161418,146.47676806623966L101.73955974578858,146.38846951098625L102.73700640996297,146.5294902351117L103.73445307413738,146.09702756892364L104.73189973831177,146.3306985496036L105.72934640248617,146.2555534576599L106.72679306666058,146.66183156674984L107.72423973083495,147.1085498938188L108.72168639500936,146.90482326981495L109.71913305918375,147.420931295126L110.71657972335815,147.89063359396602L111.71402638753256,148.19104149435884L112.71147305170695,147.85440300128212L113.70891971588135,147.7910328190749L114.70636638005575,148.0133686181143L115.70381304423015,148.46053990672675L116.70125970840455,147.6247188526563L117.69870637257893,147.62946888721163L118.69615303675333,147.88134023463812L119.69359970092773,148.29322400521698L120.69104636510212,148.30431719995775L121.68849302927653,148.27427431778716L122.68593969345092,148.3920340389827L123.68338635762532,148.83094048134197L124.68083302179973,149.10559287609806L125.67827968597412,149.39922390070188L126.67572635014852,148.86596597237792L127.67317301432293,148.4097176472115L128.6706196784973,148.68158435202918L129.66806634267172,148.7990791128063L130.6655130068461,148.9728627955504L131.6629596710205,149.32089584325195L132.66040633519492,149.50325914901654L133.6578529993693,149.36013417979774L134.6552996635437,149.91660766807686L135.6527463277181,150.18322769909483L136.6501929918925,150.1146346263552L137.6476396560669,150.15831590917L138.6450863202413,150.6700055782976L139.64253298441568,150.8153544640181L140.63997964859007,150.80699321241477L141.6374263127645,150.50594419340558L142.63487297693888,150.6522665398082L143.63231964111327,151.04001716008514L144.6297663052877,151.02969386445886L145.62721296946208,151.16251056158868L146.62465963363647,151.00794933416896L147.6221062978109,150.72079857160628L148.61955296198528,150.79243939842567L149.61699962615967,150.49874155092698L150.61444629033406,150.65446182813656L151.61189295450848,151.1330245643484L152.60933961868287,151.31127192689488L153.60678628285726,150.91188055284883L154.60423294703168,151.5660206152492L155.60167961120607,150.94886067567765L156.59912627538046,151.04094756109197L157.59657293955485,151.14051231712912L158.59401960372927,150.7358441872032L159.59146626790366,151.01072510770675L160.58891293207802,150.9862001326919L161.58635959625246,151.09331138830686L162.58380626042683,151.35858790569955L163.58125292460122,151.5131802277786L164.57869958877563,151.62050271959666L165.57614625295002,151.35223289664842L166.57359291712442,151.8788340725112L167.57103958129883,151.74922751431149L168.56848624547322,151.95155047967717L169.56593290964761,152.05333382776544L170.563379573822,151.9395047049302L171.56082623799642,151.86777611370545L172.5582729021708,152.2065057633894L173.5557195663452,152.14504070943283L174.55316623051962,151.81697677222965L175.550612894694,151.8382610214429L176.5480595588684,152.09298582767954L177.54550622304282,151.80989279725293L178.5429528872172,152.0618290330064L179.5403995513916,152.28118612083264L180.53784621556602,152.31593858938228L181.5352928797404,152.57550494472582L182.5327395439148,152.54291769044826L183.5301862080892,152.4031290821465L184.5276328722636,152.53089354456205L185.525079536438,152.4322750454807L186.52252620061236,152.61634755133872L187.5199728647868,152.6580447183765L188.51741952896117,152.8090014396812L189.51486619313556,152.64154617212884L190.51231285730998,152.93908006404797L191.50975952148437,152.93068673248044L192.50720618565876,152.92614403111526L193.50465284983315,152.94816268244847L194.50209951400757,152.9353747886211L195.49954617818196,153.1278447744057L196.49699284235635,153.17427774211305L197.49443950653077,153.2955311391129L198.49188617070516,153.2479604489474L199.48933283487955,152.9251352662354L200.48677949905397,152.93625107749816L201.48422616322836,152.5914951995824L202.48167282740275,152.36358707599987L203.47911949157717,152.641527092215L204.47656615575156,152.79117157215592L205.47401281992595,152.44209404771016L206.47145948410034,152.32563796333662L207.46890614827475,152.75800383283618L208.46635281244914,152.44086315594072L209.46379947662354,152.68173565072757L210.46124614079795,152.7426223829851L211.45869280497234,152.70175599307606L212.4561394691467,152.7950484686122L213.45358613332115,152.47195248882852L214.45103279749551,152.04638675775533L215.4484794616699,152.26825476605643L216.44592612584432,152.3800284095744L217.4433727900187,152.49591833753422L218.4408194541931,152.28635238614214L219.4382661183675,152.75101948516718L220.4357127825419,152.72844509555165L221.4331594467163,152.8640415339327L222.4306061108907,152.79546015663115L223.4280527750651,153.07950492151244L224.4254994392395,153.2883428301603L225.4229461034139,153.44459807952654L226.4203927675883,153.40539727761978L227.4178394317627,153.48409220900155L228.4152860959371,153.04937847599535L229.4127327601115,152.93831315704242L230.4101794242859,153.02222089621398L231.4076260884603,153.29132826043144L232.40507275263468,153.35279849490925L233.4025194168091,153.07987612910014L234.3999660809835,153.47511662521927L235.39741274515785,153.70877016108548L236.3948594093323,153.7377629129369L237.39230607350666,153.58952278806163L238.38975273768105,153.48792711233952L239.38719940185547,153.52584735529888L240.38464606602986,153.6620322728686L241.38209273020425,153.26109792493477L242.37953939437867,153.24424512013357L243.37698605855306,153.3925629401833L244.37443272272745,153.54479231714043L245.37187938690184,153.45998301223398L246.36932605107626,153.4479462012139L247.36677271525065,153.56198818388756L248.36421937942504,153.57787592465874L249.36166604359946,153.68789810174525L250.35911270777385,153.58718298052815L251.35655937194824,153.41414226210452L252.35400603612266,153.61627301535876L253.35145270029705,153.85729118357457L254.34889936447144,153.94903240742877L255.34634602864585,153.78336236921473L256.3437926928202,153.73753500355386L257.3412393569946,153.78897863450496L258.338686021169,153.44759846660915L259.33613268534344,153.7388211715111L260.33357934951783,153.92007428163342L261.3310260136922,153.9420965806373L262.3284726778666,154.16109636100603L263.325919342041,154.30085056373358L264.3233660062154,154.28814775969627L265.32081267038984,154.2431631856606L266.31825933456423,154.11196068200766L267.3157059987386,154.08063074629743L268.313152662913,154.25221693500137L269.3105993270874,154.23652614856306L270.3080459912618,154.2238903892811L271.3054926554362,154.1057753768319L272.30293931961063,154.04100814808837L273.300385983785,154.07535572483957L274.29783264795935,153.91208746736933" fill="none"></path></g></g></g></g><g opacity="0.2"><g><g><g><path style="fill: none;" stroke="rgb(255, 112, 67)" stroke-width="2px" d="M28.925953261057536,-36.92880694889118L29.923399925231934,0.3672208774179353L30.92084658940633,11.88705306991676L31.91829325358073,13.326635127046188L32.915739917755126,12.48349853308298L33.91318658192952,12.115790709560656L34.91063324610392,2.448873130537777L35.90807991027832,23.04826004231859L36.90552657445272,-33.24055012483677L37.90297323862712,14.808285093280801L38.90041990280152,25.254634012871065L39.897866566975914,33.70554131138795L40.895313231150304,37.568431828574774L41.89275989532471,46.565734999354675L42.890206559499106,43.16557031075513L43.8876532236735,47.91608947574741L44.8850998878479,55.374452412532946L45.8825465520223,65.56792810295747L46.8799932161967,64.9766061596722L47.87743988037109,68.42516905673398L48.87488654454549,73.44657845675437L49.87233320871989,84.40400377736219L50.86977987289429,83.6560704396993L51.86722653706869,89.49132556692547L52.864673201243086,93.91301849625233L53.862119865417476,88.47381463155935L54.85956652959187,94.75314343441775L55.85701319376628,98.37266146436684L56.854459857940675,100.08520857036046L57.85190652211507,102.36955213943187L58.84935318628946,104.61113972338103L59.84679985046387,110.25989978551897L60.844246514638265,108.60602439221168L61.84169317881266,103.9688366401233L62.83913984298706,106.87376655477522L63.83658650716146,109.85729062925387L64.83403317133586,115.48949452384261L65.83147983551025,118.92816235848967L66.82892649968466,120.4783076457774L67.82637316385905,118.60909092358933L68.82381982803345,120.69313291764539L69.82126649220784,120.6034845519598L70.81871315638224,120.6036353993943L71.81615982055663,122.20109120574806L72.81360648473104,120.73165458881644L73.81105314890544,125.95238108585853L74.80849981307983,127.85305876070403L75.80594647725424,127.53342892565138L76.80339314142863,128.74624229912422L77.80083980560303,129.05948096655678L78.79828646977742,130.60551896931185L79.79573313395183,130.88073614390885L80.79317979812623,129.4874192595887L81.79062646230061,127.67083241336786L82.78807312647501,132.13491876468493L83.78551979064942,130.0312163216642L84.78296645482381,132.07635026340114L85.78041311899821,131.0011997293743L86.7778597831726,133.86765957855644L87.775306447347,134.63578000798168L88.77275311152141,135.64247359442558L89.7701997756958,134.04522421087694L90.7676464398702,133.3559228892071L91.7650931040446,133.120804667728L92.762539768219,134.9326080624071L93.7599864323934,138.56722274481535L94.75743309656778,139.25117559867556L95.75487976074218,136.951096260383L96.75232642491657,135.0307766616964L97.74977308909098,140.5047971728531L98.74721975326538,136.77156664174453L99.74466641743977,139.84302815442786L100.74211308161418,138.55422869387758L101.73955974578858,138.26396911896896L102.73700640996297,137.6488847350788L103.73445307413738,138.4795645066868L104.73189973831177,139.41421785736657L105.72934640248617,138.47524153678725L106.72679306666058,139.5634588990229L107.72423973083495,141.96370093383112L108.72168639500936,141.66920042885573L109.71913305918375,143.29812512720557L110.71657972335815,141.13902462547205L111.71402638753256,139.9495529076552L112.71147305170695,142.00658791804125L113.70891971588135,142.61252089090436L114.70636638005575,142.7223709038065L115.70381304423015,142.57931328374207L116.70125970840455,143.8174915210057L117.69870637257893,144.26608532678085L118.69615303675333,143.40484307100695L119.69359970092773,144.79983118611466L120.69104636510212,144.22176396871978L121.68849302927653,143.17778724793556L122.68593969345092,143.61809238415123L123.68338635762532,143.58662878504757L124.68083302179973,142.92871828521032L125.67827968597412,143.5183584119231L126.67572635014852,144.11144156516744L127.67317301432293,144.11220374167866L128.6706196784973,144.05263885339326L129.66806634267172,145.35622665541808L130.6655130068461,144.94316271336282L131.6629596710205,144.8524610620819L132.66040633519492,144.38031123850698L133.6578529993693,145.50241039007932L134.6552996635437,144.72669796806187L135.6527463277181,146.8611640251612L136.6501929918925,145.19209273766154L137.6476396560669,146.01138485118702L138.6450863202413,145.26267742800493L139.64253298441568,146.61383113115596L140.63997964859007,146.3137955839125L141.6374263127645,145.41836653587507L142.63487297693888,146.31163674540895L143.63231964111327,145.3619945849535L144.6297663052877,146.21922879792797L145.62721296946208,147.53670647293586L146.62465963363647,146.75233090921887L147.6221062978109,147.42824584429894L148.61955296198528,146.75159718200453L149.61699962615967,146.5643439100744L150.61444629033406,147.79554148382257L151.61189295450848,145.8714394518767L152.60933961868287,147.21294818178077L153.60678628285726,148.22649871037942L154.60423294703168,146.5855128333842L155.60167961120607,147.21641304149367L156.59912627538046,146.5650637434461L157.59657293955485,148.60824328464997L158.59401960372927,147.73255077090602L159.59146626790366,148.18765748082734L160.58891293207802,148.61591665546342L161.58635959625246,147.62861887336223L162.58380626042683,146.9452184651503L163.58125292460122,148.66793652557703L164.57869958877563,148.22452115344188L165.57614625295002,146.30882158824295L166.57359291712442,147.80811011853052L167.57103958129883,148.94187149698067L168.56848624547322,148.54092033927208L169.56593290964761,148.3409535397035L170.563379573822,148.81830627654597L171.56082623799642,148.11723819337266L172.5582729021708,148.83089343637747L173.5557195663452,149.35377100269932L174.55316623051962,149.7734689238153L175.550612894694,148.38247231121812L176.5480595588684,148.6821737446264L177.54550622304282,149.5754386612678L178.5429528872172,149.34701131744316L179.5403995513916,149.21604663337874L180.53784621556602,149.62910925221087L181.5352928797404,148.8181971106394L182.5327395439148,149.12900964850024L183.5301862080892,149.71975598973276L184.5276328722636,149.431140519538L185.525079536438,149.24181904988734L186.52252620061236,148.23448833151608L187.5199728647868,149.50587549916514L188.51741952896117,149.24290210800268L189.51486619313556,150.13423842696164L190.51231285730998,149.83176285630378L191.50975952148437,149.42382044929485L192.50720618565876,149.38620121628463L193.50465284983315,149.4602176857632L194.50209951400757,150.25388029087594L195.49954617818196,149.9755939002759L196.49699284235635,149.44783364067905L197.49443950653077,149.89076471315602L198.49188617070516,149.84626670480978L199.48933283487955,150.66829789017245L200.48677949905397,149.23532070119535L201.48422616322836,151.14916279195398L202.48167282740275,150.59790506717997L203.47911949157717,150.26967428191392L204.47656615575156,150.7966412692565L205.47401281992595,149.75948245554522L206.47145948410034,149.55146318174226L207.46890614827475,150.47578546799264L208.46635281244914,150.6581441376398L209.46379947662354,150.85937527688975L210.46124614079795,151.04043387983157L211.45869280497234,151.1786604123223" fill="none"></path></g><g><path style="fill: none;" stroke="rgb(204, 51, 17)" stroke-width="2px" d="M27.92850659688314,-23.098648378337884L28.925953261057536,8.41879002719702L29.923399925231934,16.620762008522775L30.92084658940633,20.623480158163147L31.91829325358073,21.422294070842156L32.915739917755126,27.309419543970535L33.91318658192952,22.6732691988002L34.91063324610392,14.546202231271195L35.90807991027832,48.24291499807089L36.90552657445272,63.02811249453276L37.90297323862712,67.74717070686762L38.90041990280152,76.28553246715413L39.897866566975914,75.82477559455415L40.895313231150304,80.52982881349541L41.89275989532471,91.20549759089786L42.890206559499106,88.43658971903585L43.8876532236735,98.68719159755452L44.8850998878479,104.26693763518031L45.8825465520223,102.92346391895828L46.8799932161967,104.28418187874658L47.87743988037109,112.67568439897433L48.87488654454549,107.20264571936502L49.87233320871989,103.0678487318018L50.86977987289429,116.66518090330207L51.86722653706869,121.26293660671989L52.864673201243086,116.5822942077073L53.862119865417476,123.38999658407393L54.85956652959187,122.63879488532996L55.85701319376628,125.6063714748899L56.854459857940675,127.36532666178869L57.85190652211507,125.65031306791849L58.84935318628946,128.10419327470356L59.84679985046387,128.0618739532075L60.844246514638265,129.79868367814151L61.84169317881266,128.16570727062964L62.83913984298706,130.15092302351087L63.83658650716146,132.5350402615037L64.83403317133586,133.61893200739354L65.83147983551025,138.28883777409362L66.82892649968466,133.19567263127766L67.82637316385905,134.35552267655964L68.82381982803345,135.83027865039247L69.82126649220784,136.99716427294896L70.81871315638224,138.39683130497278L71.81615982055663,137.85013770751007L72.81360648473104,138.06843379359492L73.81105314890544,138.39037794586653L74.80849981307983,139.4820039308329L75.80594647725424,139.5413663659825L76.80339314142863,138.99803507844166L77.80083980560303,140.27885550364013L78.79828646977742,140.17626072304873L79.79573313395183,139.84572620634862L80.79317979812623,137.41639840436497L81.79062646230061,142.6467645817616L82.78807312647501,143.14679206981276L83.78551979064942,141.17969521097334L84.78296645482381,142.27777984793838L85.78041311899821,142.7847264696304L86.7778597831726,142.14441616037595L87.775306447347,141.87708539551306L88.77275311152141,141.33933149337983L89.7701997756958,143.07931563055413L90.7676464398702,143.93976527568532L91.7650931040446,143.02303630525023L92.762539768219,144.03127806273255L93.7599864323934,143.12821269412873L94.75743309656778,146.68831602161538L95.75487976074218,145.3679146851465L96.75232642491657,143.7211899895243L97.74977308909098,143.93824092266289L98.74721975326538,146.095166045604L99.74466641743977,146.99727737034567L100.74211308161418,147.50659520785035L101.73955974578858,146.25602167810612L102.73700640996297,146.74102132129985L103.73445307413738,145.4483335696416L104.73189973831177,146.68120502062357L105.72934640248617,146.1428358197443L106.72679306666058,147.27124873038483L107.72423973083495,147.77862738442218L108.72168639500936,146.5992333338092L109.71913305918375,148.1950933330926L110.71657972335815,148.59518704222606L111.71402638753256,148.64165334494805L112.71147305170695,147.34944526166709L113.70891971588135,147.69597754576407L114.70636638005575,148.3468723166734L115.70381304423015,149.13129683964544L116.70125970840455,146.37098727155058L117.69870637257893,147.6365939390447L118.69615303675333,148.25914725577783L119.69359970092773,148.91104966108526L120.69104636510212,148.32095699206894L121.68849302927653,148.2292099945313L122.68593969345092,148.568673620776L123.68338635762532,149.48930014488084L124.68083302179973,149.51757146823223L125.67827968597412,149.83967043760765L126.67572635014852,148.06607907989192L127.67317301432293,147.72534515946188L128.6706196784973,149.08938440925564L129.66806634267172,148.97532125397206L130.6655130068461,149.2335383196665L131.6629596710205,149.8429454148043L132.66040633519492,149.77680410766342L133.6578529993693,149.14544672596955L134.6552996635437,150.75131790049554L135.6527463277181,150.5831577456218L136.6501929918925,150.01174501724583L137.6476396560669,150.22383783339217L138.6450863202413,151.437540081989L139.64253298441568,151.03337779259883L140.63997964859007,150.79445133500985L141.6374263127645,150.05437066489176L142.63487297693888,150.87175005941214L143.63231964111327,151.62164309050056L144.6297663052877,151.01420892101942L145.62721296946208,151.36173560728338L146.62465963363647,150.77610749303938L147.6221062978109,150.29007242776228L148.61955296198528,150.89990063865474L149.61699962615967,150.05819477967896L150.61444629033406,150.88804224395093L151.61189295450848,151.85086866866618L152.60933961868287,151.57864297071455L153.60678628285726,150.31279349177981L154.60423294703168,152.54723070884964L155.60167961120607,150.02312076632035L156.59912627538046,151.17907788921343L157.59657293955485,151.28985945118484L158.59401960372927,150.1288419923143L159.59146626790366,151.42304648846212L160.58891293207802,150.9494126701696L161.58635959625246,151.2539782717293L162.58380626042683,151.75650268178856L163.58125292460122,151.7450687108972L164.57869958877563,151.78148645732375L165.57614625295002,150.94982816222608L166.57359291712442,152.66873583630536L167.57103958129883,151.55481767701195L168.56848624547322,152.2550349277257L169.56593290964761,152.20600884989787L170.563379573822,151.7687610206773L171.56082623799642,151.76018322686832L172.5582729021708,152.7146002379153L173.5557195663452,152.05284312849804L174.55316623051962,151.32488086642485L175.550612894694,151.87018739526275L176.5480595588684,152.47507303703452L177.54550622304282,151.385253251613L178.5429528872172,152.43973338663665L179.5403995513916,152.610221752572L180.53784621556602,152.36806729220677L181.5352928797404,152.96485447774108L182.5327395439148,152.4940368090319L183.5301862080892,152.1934461696939L184.5276328722636,152.7225402381854L185.525079536438,152.28434729685864L186.52252620061236,152.89245631012577L187.5199728647868,152.72059046893315L188.51741952896117,153.03543652163827L189.51486619313556,152.3903632708003L190.51231285730998,153.38538090192665L191.50975952148437,152.91809673512918L192.50720618565876,152.91932997906747L193.50465284983315,152.9811906594483L194.50209951400757,152.91619294788L195.49954617818196,153.4165497530826L196.49699284235635,153.24392719367412L197.49443950653077,153.47741123461267L198.49188617070516,153.17660441369912L199.48933283487955,152.44089749216744L200.48677949905397,152.95292479439226L201.48422616322836,152.0743613827088L202.48167282740275,152.02172489062605L203.47911949157717,153.05843711653773L204.47656615575156,153.0156382920673L205.47401281992595,151.91847776104154L206.47145948410034,152.15095383677627L207.46890614827475,153.40655263708555L208.46635281244914,151.96515214059755L209.46379947662354,153.0430443929078L210.46124614079795,152.83395248137148L211.45869280497234,152.64045640821246L212.4561394691467,152.93498718191648L213.45358613332115,151.98730851915298L214.45103279749551,151.40803816114556L215.4484794616699,152.60105677850808L216.44592612584432,152.54768887485142L217.4433727900187,152.66975322947388L218.4408194541931,151.97200345905406L219.4382661183675,153.4480201337047L220.4357127825419,152.69458351112834L221.4331594467163,153.06743619150427L222.4306061108907,152.69258809067884L223.4280527750651,153.5055720688344L224.4254994392395,153.6015996931321L225.4229461034139,153.67898095357586L226.4203927675883,153.34659607475965L227.4178394317627,153.6021346060742L228.4152860959371,152.39730787648605L229.4127327601115,152.77171517861302L230.4101794242859,153.14808250497134L231.4076260884603,153.6949893067576L232.40507275263468,153.445003846626L233.4025194168091,152.67049258038645L234.3999660809835,154.06797736939794L235.39741274515785,154.05925046488483L236.3948594093323,153.781252040714L237.39230607350666,153.3671626007487L238.38975273768105,153.33553359875637L239.38719940185547,153.58272771973793L240.38464606602986,153.8663096492232L241.38209273020425,152.659696403034L242.37953939437867,153.2189659129318L243.37698605855306,153.61503967025783L244.37443272272745,153.77313638257613L245.37187938690184,153.33276905487432L246.36932605107626,153.42989098468377L247.36677271525065,153.73305115789802L248.36421937942504,153.60170753581554L249.36166604359946,153.85293136737496L250.35911270777385,153.4361102987025L251.35655937194824,153.1545811844691L252.35400603612266,153.9194691452401L253.35145270029705,154.21881843589827L254.34889936447144,154.0866442432101L255.34634602864585,153.5348573118936L256.3437926928202,153.66879395506254L257.3412393569946,153.8661440809316L258.338686021169,152.93552821476547L259.33613268534344,154.175655228864L260.33357934951783,154.1919539468169L261.3310260136922,153.9751300291431L262.3284726778666,154.48959603155916L263.325919342041,154.51048186782492L264.3233660062154,154.26909355364026L265.32081267038984,154.17568632460708L266.31825933456423,153.9151569265283L267.3157059987386,154.03363584273205L268.313152662913,154.50959621805728L269.3105993270874,154.21298996890562L270.3080459912618,154.20493675035823L271.3054926554362,153.92860285815806L272.30293931961063,153.94385730497302L273.300385983785,154.12687708996637L274.29783264795935,153.66718508116398" fill="none"></path></g></g></g></g></g></g><g transform="translate(30, 177)" clip-path="url(#clip_1)"><clipPath id="clip_1"><rect width="299" height="22"></rect></clipPath><g><g><line x1="0" y1="0" x2="0" y2="5" style="visibility: inherit;" fill="rgb(0, 0, 0)" stroke="rgb(204, 204, 204)" stroke-width="1px"></line><line x1="24.936166604359943" y1="0" x2="24.936166604359943" y2="5" style="visibility: inherit;" fill="rgb(0, 0, 0)" stroke="rgb(204, 204, 204)" stroke-width="1px"></line><line x1="49.87233320871989" y1="0" x2="49.87233320871989" y2="5" style="visibility: inherit;" fill="rgb(0, 0, 0)" stroke="rgb(204, 204, 204)" stroke-width="1px"></line><line x1="74.80849981307983" y1="0" x2="74.80849981307983" y2="5" style="visibility: inherit;" fill="rgb(0, 0, 0)" stroke="rgb(204, 204, 204)" stroke-width="1px"></line><line x1="99.74466641743977" y1="0" x2="99.74466641743977" y2="5" style="visibility: inherit;" fill="rgb(0, 0, 0)" stroke="rgb(204, 204, 204)" stroke-width="1px"></line><line x1="124.68083302179973" y1="0" x2="124.68083302179973" y2="5" style="visibility: inherit;" fill="rgb(0, 0, 0)" stroke="rgb(204, 204, 204)" stroke-width="1px"></line><line x1="149.61699962615967" y1="0" x2="149.61699962615967" y2="5" style="visibility: inherit;" fill="rgb(0, 0, 0)" stroke="rgb(204, 204, 204)" stroke-width="1px"></line><line x1="174.55316623051962" y1="0" x2="174.55316623051962" y2="5" style="visibility: inherit;" fill="rgb(0, 0, 0)" stroke="rgb(204, 204, 204)" stroke-width="1px"></line><line x1="199.48933283487955" y1="0" x2="199.48933283487955" y2="5" style="visibility: inherit;" fill="rgb(0, 0, 0)" stroke="rgb(204, 204, 204)" stroke-width="1px"></line><line x1="224.4254994392395" y1="0" x2="224.4254994392395" y2="5" style="visibility: inherit;" fill="rgb(0, 0, 0)" stroke="rgb(204, 204, 204)" stroke-width="1px"></line><line x1="249.36166604359946" y1="0" x2="249.36166604359946" y2="5" style="visibility: inherit;" fill="rgb(0, 0, 0)" stroke="rgb(204, 204, 204)" stroke-width="1px"></line><line x1="274.29783264795935" y1="0" x2="274.29783264795935" y2="5" style="visibility: inherit;" fill="rgb(0, 0, 0)" stroke="rgb(204, 204, 204)" stroke-width="1px"></line><line x1="299.23399925231934" y1="0" x2="299.23399925231934" y2="5" style="visibility: inherit;" fill="rgb(0, 0, 0)" stroke="rgb(204, 204, 204)" stroke-width="1px"></line></g><g transform="translate(0, 8)"><text style="text-anchor: middle; visibility: hidden; font-family: Roboto, sans-serif; font-size: 12px; font-weight: 200;" x="0" y="0" dx="0em" dy="0.95em" fill="rgb(50, 49, 63)" stroke="none" stroke-width="1px">-500</text><text style="text-anchor: middle; visibility: inherit; font-family: Roboto, sans-serif; font-size: 12px; font-weight: 200;" x="24.936166604359943" y="0" dx="0em" dy="0.95em" fill="rgb(50, 49, 63)" stroke="none" stroke-width="1px">0</text><text style="text-anchor: middle; visibility: inherit; font-family: Roboto, sans-serif; font-size: 12px; font-weight: 200;" x="49.87233320871989" y="0" dx="0em" dy="0.95em" fill="rgb(50, 49, 63)" stroke="none" stroke-width="1px">500</text><text style="text-anchor: middle; visibility: inherit; font-family: Roboto, sans-serif; font-size: 12px; font-weight: 200;" x="74.80849981307983" y="0" dx="0em" dy="0.95em" fill="rgb(50, 49, 63)" stroke="none" stroke-width="1px">1k</text><text style="text-anchor: middle; visibility: inherit; font-family: Roboto, sans-serif; font-size: 12px; font-weight: 200;" x="99.74466641743977" y="0" dx="0em" dy="0.95em" fill="rgb(50, 49, 63)" stroke="none" stroke-width="1px">1.5k</text><text style="text-anchor: middle; visibility: inherit; font-family: Roboto, sans-serif; font-size: 12px; font-weight: 200;" x="124.68083302179973" y="0" dx="0em" dy="0.95em" fill="rgb(50, 49, 63)" stroke="none" stroke-width="1px">2k</text><text style="text-anchor: middle; visibility: inherit; font-family: Roboto, sans-serif; font-size: 12px; font-weight: 200;" x="149.61699962615967" y="0" dx="0em" dy="0.95em" fill="rgb(50, 49, 63)" stroke="none" stroke-width="1px">2.5k</text><text style="text-anchor: middle; visibility: inherit; font-family: Roboto, sans-serif; font-size: 12px; font-weight: 200;" x="174.55316623051962" y="0" dx="0em" dy="0.95em" fill="rgb(50, 49, 63)" stroke="none" stroke-width="1px">3k</text><text style="text-anchor: middle; visibility: inherit; font-family: Roboto, sans-serif; font-size: 12px; font-weight: 200;" x="199.48933283487955" y="0" dx="0em" dy="0.95em" fill="rgb(50, 49, 63)" stroke="none" stroke-width="1px">3.5k</text><text style="text-anchor: middle; visibility: inherit; font-family: Roboto, sans-serif; font-size: 12px; font-weight: 200;" x="224.4254994392395" y="0" dx="0em" dy="0.95em" fill="rgb(50, 49, 63)" stroke="none" stroke-width="1px">4k</text><text style="text-anchor: middle; visibility: inherit; font-family: Roboto, sans-serif; font-size: 12px; font-weight: 200;" x="249.36166604359946" y="0" dx="0em" dy="0.95em" fill="rgb(50, 49, 63)" stroke="none" stroke-width="1px">4.5k</text><text style="text-anchor: middle; visibility: inherit; font-family: Roboto, sans-serif; font-size: 12px; font-weight: 200;" x="274.29783264795935" y="0" dx="0em" dy="0.95em" fill="rgb(50, 49, 63)" stroke="none" stroke-width="1px">5k</text><text style="text-anchor: middle; visibility: hidden; font-family: Roboto, sans-serif; font-size: 12px; font-weight: 200;" x="299.23399925231934" y="0" dx="0em" dy="0.95em" fill="rgb(50, 49, 63)" stroke="none" stroke-width="1px">5.5k</text></g><line x1="0" y1="0" x2="299.23399925231934" y2="0" fill="rgb(0, 0, 0)" stroke="rgb(204, 204, 204)" stroke-width="1px"></line></g></g></g></g></svg>