<svg viewBox="0 0 330 200" xmlns="http://www.w3.org/2000/svg"><g><g><g><g><g><line x1="49.98400115966797" y1="178.58999919891357" x2="44.98400115966797" y2="178.58999919891357" style="visibility: inherit;" fill="rgb(0, 0, 0)" stroke="rgb(204, 204, 204)" stroke-width="1px"></line><line x1="49.98400115966797" y1="166.68399925231932" x2="44.98400115966797" y2="166.68399925231932" style="visibility: inherit;" fill="rgb(0, 0, 0)" stroke="rgb(204, 204, 204)" stroke-width="1px"></line><line x1="49.98400115966797" y1="154.7779993057251" x2="44.98400115966797" y2="154.7779993057251" style="visibility: inherit;" fill="rgb(0, 0, 0)" stroke="rgb(204, 204, 204)" stroke-width="1px"></line><line x1="49.98400115966797" y1="142.87199935913085" x2="44.98400115966797" y2="142.87199935913085" style="visibility: inherit;" fill="rgb(0, 0, 0)" stroke="rgb(204, 204, 204)" stroke-width="1px"></line><line x1="49.98400115966797" y1="130.96599941253663" x2="44.98400115966797" y2="130.96599941253663" style="visibility: inherit;" fill="rgb(0, 0, 0)" stroke="rgb(204, 204, 204)" stroke-width="1px"></line><line x1="49.98400115966797" y1="119.0599994659424" x2="44.98400115966797" y2="119.0599994659424" style="visibility: inherit;" fill="rgb(0, 0, 0)" stroke="rgb(204, 204, 204)" stroke-width="1px"></line><line x1="49.98400115966797" y1="107.15399951934816" x2="44.98400115966797" y2="107.15399951934816" style="visibility: inherit;" fill="rgb(0, 0, 0)" stroke="rgb(204, 204, 204)" stroke-width="1px"></line><line x1="49.98400115966797" y1="95.24799957275393" x2="44.98400115966797" y2="95.24799957275393" style="visibility: inherit;" fill="rgb(0, 0, 0)" stroke="rgb(204, 204, 204)" stroke-width="1px"></line><line x1="49.98400115966797" y1="83.34199962615966" x2="44.98400115966797" y2="83.34199962615966" style="visibility: inherit;" fill="rgb(0, 0, 0)" stroke="rgb(204, 204, 204)" stroke-width="1px"></line><line x1="49.98400115966797" y1="71.43599967956543" x2="44.98400115966797" y2="71.43599967956543" style="visibility: inherit;" fill="rgb(0, 0, 0)" stroke="rgb(204, 204, 204)" stroke-width="1px"></line><line x1="49.98400115966797" y1="59.5299997329712" x2="44.98400115966797" y2="59.5299997329712" style="visibility: inherit;" fill="rgb(0, 0, 0)" stroke="rgb(204, 204, 204)" stroke-width="1px"></line><line x1="49.98400115966797" y1="47.62399978637694" x2="44.98400115966797" y2="47.62399978637694" style="visibility: inherit;" fill="rgb(0, 0, 0)" stroke="rgb(204, 204, 204)" stroke-width="1px"></line><line x1="49.98400115966797" y1="35.717999839782685" x2="44.98400115966797" y2="35.717999839782685" style="visibility: inherit;" fill="rgb(0, 0, 0)" stroke="rgb(204, 204, 204)" stroke-width="1px"></line><line x1="49.98400115966797" y1="23.81199989318847" x2="44.98400115966797" y2="23.81199989318847" style="visibility: inherit;" fill="rgb(0, 0, 0)" stroke="rgb(204, 204, 204)" stroke-width="1px"></line><line x1="49.98400115966797" y1="11.905999946594216" x2="44.98400115966797" y2="11.905999946594216" style="visibility: inherit;" fill="rgb(0, 0, 0)" stroke="rgb(204, 204, 204)" stroke-width="1px"></line><line x1="49.98400115966797" y1="0" x2="44.98400115966797" y2="0" style="visibility: inherit;" fill="rgb(0, 0, 0)" stroke="rgb(204, 204, 204)" stroke-width="1px"></line></g><g transform="translate(39.98400115966797, 0)"><text style="text-anchor: end; visibility: hidden; font-family: Roboto, sans-serif; font-size: 12px; font-weight: 200;" x="0" y="178.58999919891357" dx="0em" dy="0.3em" fill="rgb(50, 49, 63)" stroke="none" stroke-width="1px">-0.2</text><text style="text-anchor: end; visibility: inherit; font-family: Roboto, sans-serif; font-size: 12px; font-weight: 200;" x="0" y="166.68399925231932" dx="0em" dy="0.3em" fill="rgb(50, 49, 63)" stroke="none" stroke-width="1px">0</text><text style="text-anchor: end; visibility: hidden; font-family: Roboto, sans-serif; font-size: 12px; font-weight: 200;" x="0" y="154.7779993057251" dx="0em" dy="0.3em" fill="rgb(50, 49, 63)" stroke="none" stroke-width="1px">0.2</text><text style="text-anchor: end; visibility: hidden; font-family: Roboto, sans-serif; font-size: 12px; font-weight: 200;" x="0" y="142.87199935913085" dx="0em" dy="0.3em" fill="rgb(50, 49, 63)" stroke="none" stroke-width="1px">0.4</text><text style="text-anchor: end; visibility: inherit; font-family: Roboto, sans-serif; font-size: 12px; font-weight: 200;" x="0" y="130.96599941253663" dx="0em" dy="0.3em" fill="rgb(50, 49, 63)" stroke="none" stroke-width="1px">0.6</text><text style="text-anchor: end; visibility: hidden; font-family: Roboto, sans-serif; font-size: 12px; font-weight: 200;" x="0" y="119.0599994659424" dx="0em" dy="0.3em" fill="rgb(50, 49, 63)" stroke="none" stroke-width="1px">0.8</text><text style="text-anchor: end; visibility: hidden; font-family: Roboto, sans-serif; font-size: 12px; font-weight: 200;" x="0" y="107.15399951934816" dx="0em" dy="0.3em" fill="rgb(50, 49, 63)" stroke="none" stroke-width="1px">1</text><text style="text-anchor: end; visibility: inherit; font-family: Roboto, sans-serif; font-size: 12px; font-weight: 200;" x="0" y="95.24799957275393" dx="0em" dy="0.3em" fill="rgb(50, 49, 63)" stroke="none" stroke-width="1px">1.2</text><text style="text-anchor: end; visibility: hidden; font-family: Roboto, sans-serif; font-size: 12px; font-weight: 200;" x="0" y="83.34199962615966" dx="0em" dy="0.3em" fill="rgb(50, 49, 63)" stroke="none" stroke-width="1px">1.4</text><text style="text-anchor: end; visibility: hidden; font-family: Roboto, sans-serif; font-size: 12px; font-weight: 200;" x="0" y="71.43599967956543" dx="0em" dy="0.3em" fill="rgb(50, 49, 63)" stroke="none" stroke-width="1px">1.6</text><text style="text-anchor: end; visibility: inherit; font-family: Roboto, sans-serif; font-size: 12px; font-weight: 200;" x="0" y="59.5299997329712" dx="0em" dy="0.3em" fill="rgb(50, 49, 63)" stroke="none" stroke-width="1px">1.8</text><text style="text-anchor: end; visibility: hidden; font-family: Roboto, sans-serif; font-size: 12px; font-weight: 200;" x="0" y="47.62399978637694" dx="0em" dy="0.3em" fill="rgb(50, 49, 63)" stroke="none" stroke-width="1px">2</text><text style="text-anchor: end; visibility: hidden; font-family: Roboto, sans-serif; font-size: 12px; font-weight: 200;" x="0" y="35.717999839782685" dx="0em" dy="0.3em" fill="rgb(50, 49, 63)" stroke="none" stroke-width="1px">2.2</text><text style="text-anchor: end; visibility: inherit; font-family: Roboto, sans-serif; font-size: 12px; font-weight: 200;" x="0" y="23.81199989318847" dx="0em" dy="0.3em" fill="rgb(50, 49, 63)" stroke="none" stroke-width="1px">2.4</text><text style="text-anchor: end; visibility: hidden; font-family: Roboto, sans-serif; font-size: 12px; font-weight: 200;" x="0" y="11.905999946594216" dx="0em" dy="0.3em" fill="rgb(50, 49, 63)" stroke="none" stroke-width="1px">2.6</text><text style="text-anchor: end; visibility: hidden; font-family: Roboto, sans-serif; font-size: 12px; font-weight: 200;" x="0" y="0" dx="0em" dy="0.3em" fill="rgb(50, 49, 63)" stroke="none" stroke-width="1px">2.8</text></g><line x1="49.98400115966797" y1="0" x2="49.98400115966797" y2="178.58999919891357" fill="rgb(0, 0, 0)" stroke="rgb(204, 204, 204)" stroke-width="1px"></line></g></g><g transform="translate(49, 0)" clip-path="url(#clip_0)"><clipPath id="clip_0"><rect width="280" height="178"></rect></clipPath><g><g><g><line x1="0" y1="0" x2="0" y2="178.58999919891357" fill="rgb(0, 0, 0)" stroke="rgb(60, 60, 60)" stroke-width="1px" opacity="0.25"></line><line x1="23.334666570027668" y1="0" x2="23.334666570027668" y2="178.58999919891357" fill="rgb(0, 0, 0)" stroke="rgb(60, 60, 60)" stroke-width="1px" opacity="0.25"></line><line x1="46.669333140055336" y1="0" x2="46.669333140055336" y2="178.58999919891357" fill="rgb(0, 0, 0)" stroke="rgb(60, 60, 60)" stroke-width="1px" opacity="0.25"></line><line x1="70.00399971008301" y1="0" x2="70.00399971008301" y2="178.58999919891357" fill="rgb(0, 0, 0)" stroke="rgb(60, 60, 60)" stroke-width="1px" opacity="0.25"></line><line x1="93.33866628011067" y1="0" x2="93.33866628011067" y2="178.58999919891357" fill="rgb(0, 0, 0)" stroke="rgb(60, 60, 60)" stroke-width="1px" opacity="0.25"></line><line x1="116.67333285013835" y1="0" x2="116.67333285013835" y2="178.58999919891357" fill="rgb(0, 0, 0)" stroke="rgb(60, 60, 60)" stroke-width="1px" opacity="0.25"></line><line x1="140.00799942016602" y1="0" x2="140.00799942016602" y2="178.58999919891357" fill="rgb(0, 0, 0)" stroke="rgb(60, 60, 60)" stroke-width="1px" opacity="0.25"></line><line x1="163.3426659901937" y1="0" x2="163.3426659901937" y2="178.58999919891357" fill="rgb(0, 0, 0)" stroke="rgb(60, 60, 60)" stroke-width="1px" opacity="0.25"></line><line x1="186.67733256022134" y1="0" x2="186.67733256022134" y2="178.58999919891357" fill="rgb(0, 0, 0)" stroke="rgb(60, 60, 60)" stroke-width="1px" opacity="0.25"></line><line x1="210.01199913024902" y1="0" x2="210.01199913024902" y2="178.58999919891357" fill="rgb(0, 0, 0)" stroke="rgb(60, 60, 60)" stroke-width="1px" opacity="0.25"></line><line x1="233.3466657002767" y1="0" x2="233.3466657002767" y2="178.58999919891357" fill="rgb(0, 0, 0)" stroke="rgb(60, 60, 60)" stroke-width="1px" opacity="0.25"></line><line x1="256.6813322703043" y1="0" x2="256.6813322703043" y2="178.58999919891357" fill="rgb(0, 0, 0)" stroke="rgb(60, 60, 60)" stroke-width="1px" opacity="0.25"></line><line x1="280.01599884033203" y1="0" x2="280.01599884033203" y2="178.58999919891357" fill="rgb(0, 0, 0)" stroke="rgb(60, 60, 60)" stroke-width="1px" opacity="0.25"></line></g><g><line x1="0" y1="178.58999919891357" x2="280.01599884033203" y2="178.58999919891357" fill="rgb(0, 0, 0)" stroke="rgb(60, 60, 60)" stroke-width="1px" opacity="0.25"></line><line x1="0" y1="166.68399925231932" x2="280.01599884033203" y2="166.68399925231932" fill="rgb(0, 0, 0)" stroke="rgb(60, 60, 60)" stroke-width="1px" opacity="0.25"></line><line x1="0" y1="154.7779993057251" x2="280.01599884033203" y2="154.7779993057251" fill="rgb(0, 0, 0)" stroke="rgb(60, 60, 60)" stroke-width="1px" opacity="0.25"></line><line x1="0" y1="142.87199935913085" x2="280.01599884033203" y2="142.87199935913085" fill="rgb(0, 0, 0)" stroke="rgb(60, 60, 60)" stroke-width="1px" opacity="0.25"></line><line x1="0" y1="130.96599941253663" x2="280.01599884033203" y2="130.96599941253663" fill="rgb(0, 0, 0)" stroke="rgb(60, 60, 60)" stroke-width="1px" opacity="0.25"></line><line x1="0" y1="119.0599994659424" x2="280.01599884033203" y2="119.0599994659424" fill="rgb(0, 0, 0)" stroke="rgb(60, 60, 60)" stroke-width="1px" opacity="0.25"></line><line x1="0" y1="107.15399951934816" x2="280.01599884033203" y2="107.15399951934816" fill="rgb(0, 0, 0)" stroke="rgb(60, 60, 60)" stroke-width="1px" opacity="0.25"></line><line x1="0" y1="95.24799957275393" x2="280.01599884033203" y2="95.24799957275393" fill="rgb(0, 0, 0)" stroke="rgb(60, 60, 60)" stroke-width="1px" opacity="0.25"></line><line x1="0" y1="83.34199962615966" x2="280.01599884033203" y2="83.34199962615966" fill="rgb(0, 0, 0)" stroke="rgb(60, 60, 60)" stroke-width="1px" opacity="0.25"></line><line x1="0" y1="71.43599967956543" x2="280.01599884033203" y2="71.43599967956543" fill="rgb(0, 0, 0)" stroke="rgb(60, 60, 60)" stroke-width="1px" opacity="0.25"></line><line x1="0" y1="59.5299997329712" x2="280.01599884033203" y2="59.5299997329712" fill="rgb(0, 0, 0)" stroke="rgb(60, 60, 60)" stroke-width="1px" opacity="0.25"></line><line x1="0" y1="47.62399978637694" x2="280.01599884033203" y2="47.62399978637694" fill="rgb(0, 0, 0)" stroke="rgb(60, 60, 60)" stroke-width="1px" opacity="0.25"></line><line x1="0" y1="35.717999839782685" x2="280.01599884033203" y2="35.717999839782685" fill="rgb(0, 0, 0)" stroke="rgb(60, 60, 60)" stroke-width="1px" opacity="0.25"></line><line x1="0" y1="23.81199989318847" x2="280.01599884033203" y2="23.81199989318847" fill="rgb(0, 0, 0)" stroke="rgb(60, 60, 60)" stroke-width="1px" opacity="0.25"></line><line x1="0" y1="11.905999946594216" x2="280.01599884033203" y2="11.905999946594216" fill="rgb(0, 0, 0)" stroke="rgb(60, 60, 60)" stroke-width="1px" opacity="0.25"></line><line x1="0" y1="0" x2="280.01599884033203" y2="0" fill="rgb(0, 0, 0)" stroke="rgb(60, 60, 60)" stroke-width="1px" opacity="0.25"></line></g></g></g><g><g><line x1="0" y1="166.68399925231932" x2="280.01599884033203" y2="166.68399925231932" fill="rgb(0, 0, 0)" stroke="rgb(153, 153, 153)" stroke-width="1.5px"></line></g></g><g><g><line x1="23.334666570027668" y1="0" x2="23.334666570027668" y2="178.58999919891357" fill="rgb(0, 0, 0)" stroke="rgb(153, 153, 153)" stroke-width="1.5px"></line></g></g><g><g><g><g><g><path style="fill: none;" stroke="rgb(255, 112, 67)" stroke-width="2px" d="M29.86837320963542,-1.0810802993533426L30.801759872436524,0.6618714092231681L31.73514653523763,1.0908573677477582L32.66853319803874,2.0587341966213097L33.60191986083984,5.194356974089657L34.535306523640955,5.309087346177638L35.46869318644206,8.772727339033873L36.402079849243165,12.019186075686198L37.33546651204427,19.63538029322735L38.268853174845376,27.442790613491717L39.20223983764649,40.2283586151982L40.13562650044759,45.1998314373332L41.0690131632487,50.371982669962904L42.0023998260498,60.88478095888167L42.93578648885091,70.12780179615577L43.86917315165202,77.72893454887132L44.802559814453126,85.10261629516314L45.73594647725423,93.58464384958685L46.669333140055336,102.27660698944462L47.60271980285645,106.83887701851667L48.536106465657554,112.4904487503403L49.46949312845866,118.29685589579023L50.402879791259764,118.60588846172374L51.33626645406087,121.97474315138757L52.26965311686198,125.0506496445338L53.20303977966309,127.46162780781799L54.13642644246419,128.51545012819548L55.0698131052653,129.9088703749634L56.00319976806641,132.96393546616065L56.936586430867514,133.91147883520324L57.86997309366862,133.4367767684022L58.803359756469725,134.57161615408646L59.73674641927084,134.84538481950267L60.67013308207194,137.54218644486124L61.60351974487305,139.58738124075322L62.53690640767415,141.53144127959425L63.47029307047526,141.61515561869973L64.40367973327638,142.67534235571748L65.33706639607747,143.07964556921775L66.27045305887857,142.5220654692105L67.20383972167969,143.00908895556435L68.1372263844808,142.96688124837104L69.07061304728191,144.44951864592608L70.00399971008301,145.9363825746045L70.93738637288412,146.7524481404332L71.87077303568522,147.27976153295208L72.80415969848633,147.87136999378805L73.73754636128743,148.47799998698716L74.67093302408854,149.16890513764997L75.60431968688965,150.01166839877044L76.53770634969075,149.53519797001255L77.47109301249186,150.19299155593612L78.40447967529298,150.32917380095967L79.33786633809407,150.33578058183005L80.27125300089519,150.32876419106904L81.20463966369628,151.05118215143355L82.1380263264974,151.89484601092713L83.07141298929851,152.26259956215333L84.0047996520996,152.304975885414L84.93818631490072,151.3049624679524L85.87157297770182,150.9297994222175L86.80495964050293,151.7167755583493L87.73834630330404,153.15065410579504L88.67173296610514,154.2319125032748L89.60511962890625,154.11478458726276L90.53850629170735,153.5105039674179L91.47189295450846,154.05994175883188L92.40527961730957,153.82527496617323L93.33866628011067,154.1812120485557L94.27205294291178,154.51701520301975L95.2054396057129,154.16421382943477L96.138826268514,153.764789718503L97.07221293131511,153.8816141274721L98.0055995941162,154.36368144048782L98.93898625691732,154.21897937143532L99.87237291971843,154.4620108288173L100.80575958251953,155.16338111923778L101.73914624532064,155.79450431692408L102.67253290812174,156.6752555315673L103.60591957092285,156.230574854358L104.53930623372396,155.6558640229919L105.47269289652506,156.08897322348346L106.40607955932617,156.53787998570874L107.33946622212729,156.98012032672938L108.27285288492838,157.02309940865004L109.2062395477295,157.69688475675264L110.1396262105306,157.98882997603724L111.0730128733317,157.91299784532808L112.00639953613282,157.9293572358465L112.93978619893392,158.12296161616698L113.87317286173503,157.482920600555L114.80655952453613,157.45771459231904L115.73994618733724,157.1900840675168L116.67333285013835,156.81296936401745L117.60671951293945,156.9582229943939L118.54010617574056,157.3862619095102L119.47349283854167,157.6666929266951L120.40687950134277,157.90760012343017L121.34026616414388,157.9483044812427L122.27365282694498,158.09826008075638L123.2070394897461,157.8340119708034L124.1404261525472,158.11632077435337L125.0738128153483,158.3538047033551L126.00719947814942,158.2280150407689L126.94058614095051,158.80892315891182L127.87397280375163,158.55305647957292L128.80735946655275,158.4897390324666L129.74074612935382,158.69443211382966L130.67413279215495,159.02968965404688L131.60751945495605,159.3567000550717L132.54090611775715,158.96727624163427L133.47429278055827,158.9845818301159L134.40767944335937,158.8626805607118L135.3410661061605,158.96539675464325L136.2744527689616,159.2503606247254L137.2078394317627,159.07722080541544L138.14122609456382,159.4346767626924L139.0746127573649,159.31254688764432L140.00799942016602,159.11813511610097L140.9413860829671,159.60950233374712L141.87477274576824,159.79463516423078L142.80815940856934,160.00342377654144L143.74154607137044,160.15644383998088L144.67493273417156,159.44596897179488L145.60831939697266,159.55697379144962L146.54170605977376,159.04468212225362L147.47509272257486,159.8773790484744L148.40847938537598,159.90367717254128L149.34186604817708,159.97160045482454L150.27525271097818,160.2483306894605L151.2086393737793,160.0077386070335L152.1420260365804,159.83046894653776L153.0754126993815,160.17497766731952L154.00879936218263,160.34196096591643L154.94218602498373,159.69288362610385L155.87557268778482,159.74597322084063L156.80895935058595,160.32297878528735L157.74234601338705,160.52807225802886L158.67573267618815,160.37180257433675L159.60911933898925,160.62296134549462L160.54250600179037,160.2659051050026L161.47589266459147,160.55932865747198L162.40927932739257,160.6810180546074L163.3426659901937,160.99992198654616L164.2760526529948,160.5081327736959L165.2094393157959,160.51657051630968L166.14282597859702,160.5977712890124L167.07621264139812,160.67552968472089L168.0095993041992,160.61555440672444L168.94298596700034,161.07960876766282L169.87637262980144,160.9662991465674L170.80975929260254,160.8412947151405L171.74314595540363,160.9751159372122L172.67653261820476,161.11151223181352L173.60991928100586,160.82578546772092L174.54330594380696,160.5829308287258L175.47669260660808,160.66761750329965L176.41007926940918,160.43757976110953L177.34346593221028,160.98678799777144L178.2768525950114,161.24311667872078L179.2102392578125,161.45880182941636L180.1436259206136,161.2568720788941L181.0770125834147,161.15346921183686L182.01039924621583,161.57701866375865L182.94378590901692,161.53004083636486L183.87717257181802,161.2860870150515L184.81055923461915,161.06189418552225L185.74394589742025,161.30678039381507L186.67733256022134,161.51491205243258L187.61071922302247,161.13778578134074L188.54410588582357,161.53951681809968L189.47749254862467,161.6442266832123L190.4108792114258,161.51662221480265L191.3442658742269,161.66786379108157L192.277652537028,161.43301572955278L193.2110391998291,161.2718315771139L194.14442586263021,161.4213449161699L195.0778125254313,161.65784320214814L196.0111991882324,161.81838581983212L196.94458585103354,162.00995958304085L197.87797251383464,162.00176380571037" fill="none"></path></g><g><path style="fill: none;" stroke="rgb(204, 51, 17)" stroke-width="2px" d="M28.001599884033205,-4.327175078068347L28.93498654683431,0.15030155633992084L29.86837320963542,1.963151053670614L30.801759872436524,6.935748020122228L31.73514653523763,15.429839644557049L32.66853319803874,23.88706160925172L33.60191986083984,35.76430924362391L34.535306523640955,52.43547938717401L35.46869318644206,66.20299280307081L36.402079849243165,79.2580938221846L37.33546651204427,86.45770999084823L38.268853174845376,95.10122984775614L39.20223983764649,102.46449874415241L40.13562650044759,106.01162003764216L41.0690131632487,112.65276689205099L42.0023998260498,119.00037069072316L42.93578648885091,122.40101799422354L43.86917315165202,125.49664701867269L44.802559814453126,129.40433204145555L45.73594647725423,129.69035145332828L46.669333140055336,129.11747439042705L47.60271980285645,133.71677864542232L48.536106465657554,137.4199735782155L49.46949312845866,137.38420916725013L50.402879791259764,140.27827281577453L51.33626645406087,141.7719986274787L52.26965311686198,143.89160471508112L53.20303977966309,145.12450553619723L54.13642644246419,145.1256995547929L55.0698131052653,145.37518550308084L56.00319976806641,145.6759394638546L56.936586430867514,146.57703868299416L57.86997309366862,146.87513601102683L58.803359756469725,147.88326143133253L59.73674641927084,148.63809272639946L60.67013308207194,149.5323501876152L61.60351974487305,152.00157407555432L62.53690640767415,151.32166819162344L63.47029307047526,151.11617727863958L64.40367973327638,151.03085199950453L65.33706639607747,151.25303003087893L66.27045305887857,152.4835106146459L67.20383972167969,152.6884369756728L68.1372263844808,153.27911827534027L69.07061304728191,153.38830081917507L70.00399971008301,154.0077707196731L70.93738637288412,154.16307416912105L71.87077303568522,153.5756263706518L72.80415969848633,153.968898213055L73.73754636128743,154.10921359131697L74.67093302408854,154.31593361651736L75.60431968688965,153.37844128003368L76.53770634969075,154.48737538046498L77.47109301249186,155.32842709234603L78.40447967529298,155.1742621420358L79.33786633809407,155.24781414368573L80.27125300089519,155.5555359783162L81.20463966369628,155.8127076693195L82.1380263264974,155.55365845105442L83.07141298929851,155.70284139430302L84.0047996520996,155.8141467296935L84.93818631490072,155.8507987785523L85.87157297770182,156.01887241164698L86.80495964050293,156.27994982888606L87.73834630330404,156.3446749394147L88.67173296610514,157.49994765337146L89.60511962890625,157.5947869566625L90.53850629170735,157.1149885680831L91.47189295450846,157.14610383476412L92.40527961730957,157.69833652538748L93.33866628011067,157.9459651291444L94.27205294291178,158.45861551740947L95.2054396057129,158.47299562409165L96.138826268514,158.60023081547385L97.07221293131511,158.01988078335836L98.0055995941162,157.75903613230187L98.93898625691732,157.51802777772312L99.87237291971843,157.99911520887792L100.80575958251953,158.63022202771185L101.73914624532064,158.54750528769443L102.67253290812174,159.02761126139595L103.60591957092285,159.3292584891414L104.53930623372396,159.6085034144328L105.47269289652506,159.23584732648374L106.40607955932617,159.28515477595695L107.33946622212729,159.0986557929847L108.27285288492838,159.7814904736628L109.2062395477295,159.14736407701102L110.1396262105306,159.23601830256536L111.0730128733317,159.32413569559614L112.00639953613282,159.6470570902076L112.93978619893392,159.40940004389054L113.87317286173503,159.6279747876281L114.80655952453613,159.54426796123133L115.73994618733724,159.9834476477413L116.67333285013835,160.20795932327601L117.60671951293945,160.56435816810207L118.54010617574056,160.15318984614177L119.47349283854167,160.0017712863162L120.40687950134277,160.3236253572586L121.34026616414388,160.30664470468903L122.27365282694498,160.21914069444261L123.2070394897461,160.30409610299748L124.1404261525472,160.21919672058752L125.0738128153483,159.89949734579557L126.00719947814942,160.73896500445358L126.94058614095051,161.22517944512157L127.87397280375163,161.00273868294374L128.80735946655275,161.2814723854795L129.74074612935382,161.70142195535067L130.67413279215495,161.63069584793132L131.60751945495605,161.6938121813235L132.54090611775715,161.58538898808203L133.47429278055827,161.93696572397747L134.40767944335937,162.01398003864657L135.3410661061605,161.85869333199275L136.2744527689616,161.8562507857739L137.2078394317627,161.54410915465218L138.14122609456382,161.41857533250908L139.0746127573649,161.51588520307214L140.00799942016602,161.247485901246L140.9413860829671,161.13896577954975L141.87477274576824,161.58653162013326L142.80815940856934,161.88656658455434L143.74154607137044,161.37905436909665L144.67493273417156,162.31079015245854L145.60831939697266,161.5529804565165L146.54170605977376,161.8788734404793L147.47509272257486,161.79530185919918L148.40847938537598,161.41338748759597L149.34186604817708,161.6552833942837L150.27525271097818,161.78308340835724L151.2086393737793,161.97302597078982L152.1420260365804,162.10750615421068L153.0754126993815,162.22087537691266L154.00879936218263,162.2246284377632L154.94218602498373,161.97146590649172L155.87557268778482,162.55302783358104L156.80895935058595,162.2670848472817L157.74234601338705,162.64879177603945L158.67573267618815,162.63825113073858L159.60911933898925,162.26149254380033L160.54250600179037,162.43527393024485L161.47589266459147,162.80962982449572L162.40927932739257,162.66715987615072L163.3426659901937,162.34389362370806L164.2760526529948,162.63210522708548L165.2094393157959,162.92305527215012L166.14282597859702,162.67519554128336L167.07621264139812,162.8689738034666L168.0095993041992,163.09605155271072L168.94298596700034,163.0736228303982L169.87637262980144,163.2071520098749L170.80975929260254,163.18528121915526L171.74314595540363,162.97583504475884L172.67653261820476,163.04351794927146L173.60991928100586,162.77451943878614L174.54330594380696,162.8589455154991L175.47669260660808,162.92431501599728L176.41007926940918,163.03490925810402L177.34346593221028,163.10016096251323L178.2768525950114,163.45817127352367L179.2102392578125,163.28563462690298L180.1436259206136,163.19433747456958L181.0770125834147,163.2074804168169L182.01039924621583,163.16956864371772L182.94378590901692,163.3906851048404L183.87717257181802,163.398461748775L184.81055923461915,163.65491169610706L185.74394589742025,163.6852595698719L186.67733256022134,163.48017281649044L187.61071922302247,163.45642018803858L188.54410588582357,163.15630481148563L189.47749254862467,163.04731690355388L190.4108792114258,163.18279043566304L191.3442658742269,163.36216907659215L192.277652537028,162.92355123325638L193.2110391998291,163.06296652730714L194.14442586263021,163.4010386864216L195.0778125254313,163.26288693422632L196.0111991882324,163.3538038044481L196.94458585103354,163.2321106537112L197.87797251383464,163.22879287906517L198.81135917663573,163.23917483513247L199.74474583943686,163.1403951615155L200.67813250223796,162.78442680329206L201.61151916503906,162.80574870361653L202.54490582784018,162.90435555596358L203.47829249064128,163.21962372906336L204.41167915344238,163.16497291260254L205.34506581624348,163.41661041698296L206.2784524790446,163.35735274891314L207.2118391418457,163.38615594840041L208.1452258046468,163.39844634702487L209.07861246744793,163.66924232245043L210.01199913024902,163.6793396892874L210.94538579305012,163.86500185484908L211.87877245585125,163.82552073871207L212.81215911865235,164.07152341121704L213.74554578145344,163.39457895827374L214.67893244425457,163.5025885434955L215.61231910705567,163.5516729104569L216.54570576985677,163.80381553719138L217.47909243265786,163.9687103042609L218.412479095459,163.6829412240296L219.3458657582601,163.97801463879006L220.2792524210612,164.0953068894485L221.2126390838623,164.1167993080108L222.1460257466634,164.01423884546674L223.0794124094645,163.98805729788114L224.01279907226564,163.99001375890757L224.94618573506673,164.10075981703162L225.87957239786783,163.67459346596954L226.81295906066896,163.81799880792224L227.74634572347006,163.8624591032046L228.67973238627116,164.07687280122505L229.61311904907225,163.96802272671934L230.54650571187338,163.93336525185782L231.47989237467448,164.10744349284997L232.41327903747558,164.1374661220583L233.3466657002767,164.10342532895154L234.2800523630778,164.11400949127076L235.2134390258789,163.9263238548128L236.14682568868002,164.13608099488115L237.08021235148112,164.4196817151383L238.01359901428222,164.38828360402286L238.94698567708335,164.30022616950293L239.88037233988445,164.23964859731961L240.81375900268554,164.26079201100984L241.74714566548664,163.94113722864526L242.68053232828777,164.29467761620637L243.61391899108887,164.58902369710796L244.54730565388996,164.48514316686575L245.4806923166911,164.71114788545913L246.4140789794922,164.86742166362714L247.3474656422933,164.75421521943534L248.2808523050944,164.81065008396754L249.2142389678955,164.74949774955093L250.1476256306966,164.78278140674033L251.0810122934977,164.82455098487958L252.01439895629883,164.7147476339215L252.94778561909993,164.73991293691157L253.88117228190103,164.6262017793855L254.81455894470216,164.57446936975353L255.74794560750325,164.55546244367812L256.6813322703043,164.32076085884705" fill="none"></path></g></g></g></g><g opacity="0.2"><g><g><g><path style="fill: none;" stroke="rgb(255, 112, 67)" stroke-width="2px" d="M29.86837320963542,-1.1731101732084854L30.801759872436524,3.2323866284336247L31.73514653523763,1.7278515204172264L32.66853319803874,3.5017708683294093L33.60191986083984,9.880727219606293L34.535306523640955,5.4808082897386114L35.46869318644206,13.961401696998957L36.402079849243165,16.88505809028714L37.33546651204427,31.054300089298003L38.268853174845376,39.150602259497354L39.20223983764649,59.403464363427304L40.13562650044759,52.6562833166891L41.0690131632487,58.12973676379789L42.0023998260498,76.65340184541692L42.93578648885091,83.99202890652903L43.86917315165202,89.13048360683804L44.802559814453126,96.16305156631093L45.73594647725423,106.3076248946008L46.669333140055336,115.31451463197892L47.60271980285645,113.68227038852618L48.536106465657554,120.96779767158188L49.46949312845866,127.00646126544353L50.402879791259764,119.06943713982639L51.33626645406087,127.02802406873447L52.26965311686198,129.6645087722507L53.20303977966309,131.0780947649219L54.13642644246419,130.09618353327863L55.0698131052653,131.99900068523053L56.00319976806641,137.5465330241784L56.936586430867514,135.3327938741071L57.86997309366862,132.72472367260724L58.803359756469725,136.27387522629198L59.73674641927084,135.25603781671217L60.67013308207194,141.58738887749163L61.60351974487305,142.65517343213065L62.53690640767415,144.44753133645244L63.47029307047526,141.74072712732166L64.40367973327638,144.26562246096856L65.33706639607747,143.6861003894051L66.27045305887857,141.68569531925183L67.20383972167969,143.73962418506778L68.1372263844808,142.9035696875825L69.07061304728191,146.6734747422287L70.00399971008301,148.16667846760407L70.93738637288412,147.97654648917026L71.87077303568522,148.07073162172813L72.80415969848633,148.75878268504044L73.73754636128743,149.38794497678487L74.67093302408854,150.20526286364355L75.60431968688965,151.27581329045063L76.53770634969075,148.82049232687586L77.47109301249186,151.17968193482133L78.40447967529298,150.53344716849497L79.33786633809407,150.34569075313559L80.27125300089519,150.31823960492756L81.20463966369628,152.13480909198023L82.1380263264974,153.1603418001675L83.07141298929851,152.81422988899266L84.0047996520996,152.36854037030497L84.93818631490072,149.80494234175998L85.87157297770182,150.3670548536152L86.80495964050293,152.89723976254695L87.73834630330404,155.30147192696364L88.67173296610514,155.8538000994944L89.60511962890625,153.93909271324472L90.53850629170735,152.6040830376506L91.47189295450846,154.88409844595284L92.40527961730957,153.47327477718522L93.33866628011067,154.7151176721294L94.27205294291178,155.02071993471586L95.2054396057129,153.63501176905731L96.138826268514,153.16565355210537L97.07221293131511,154.0568507409257L98.0055995941162,155.0867824100114L98.93898625691732,154.00192626785662L99.87237291971843,154.82655801489028L100.80575958251953,156.21543655486846L101.73914624532064,156.7411891134535L102.67253290812174,157.9963823535321L103.60591957092285,155.563553838544L104.53930623372396,154.79379777594275L105.47269289652506,156.73863702422082L106.40607955932617,157.21124012904664L107.33946622212729,157.64348083826033L108.27285288492838,157.08756803153102L109.2062395477295,158.70756277890658L110.1396262105306,158.42674780496412L111.0730128733317,157.79924964926434L112.00639953613282,157.95389632162417L112.93978619893392,158.41336818664766L113.87317286173503,156.522859077137L114.80655952453613,157.41990557996513L115.73994618733724,156.78863828031342L116.67333285013835,156.2472973087684L117.60671951293945,157.17610343995855L118.54010617574056,158.02832028218467L119.47349283854167,158.08733945247243L120.40687950134277,158.26896091853283L121.34026616414388,158.0093610179615L122.27365282694498,158.32319348002684L123.2070394897461,157.43763980587397L124.1404261525472,158.5397839796783L125.0738128153483,158.71003059685768L126.00719947814942,158.03933054688957L126.94058614095051,159.68028533612625L127.87397280375163,158.16925646056455L128.80735946655275,158.39476286180712L129.74074612935382,159.00147173587428L130.67413279215495,159.53257596437268L131.60751945495605,159.84721565660894L132.54090611775715,158.3831405214781L133.47429278055827,159.01054021283835L134.40767944335937,158.67982865660568L135.3410661061605,159.11947104554042L136.2744527689616,159.67780642984863L137.2078394317627,158.81751107645044L138.14122609456382,159.97086069860788L139.0746127573649,159.12935207507215L140.00799942016602,158.82651745878601L140.9413860829671,160.34655316021633L141.87477274576824,160.07233440995626L142.80815940856934,160.3166066950074L143.74154607137044,160.3859739351401L144.67493273417156,158.38025666951583L145.60831939697266,159.72348102093173L146.54170605977376,158.27624461845966L147.47509272257486,161.12642443780553L148.40847938537598,159.94312435864165L149.34186604817708,160.07348537824942L150.27525271097818,160.66342604141445L151.2086393737793,159.646850483393L152.1420260365804,159.56456445579417L153.0754126993815,160.69174074849215L154.00879936218263,160.59243591381178L154.94218602498373,158.71926761638494L155.87557268778482,159.82560761294582L156.80895935058595,161.1884871319575L157.74234601338705,160.83571246714112L158.67573267618815,160.13739804879856L159.60911933898925,160.9996995022314L160.54250600179037,159.73032074426456L161.47589266459147,160.99946398617604L162.40927932739257,160.86355215031054L163.3426659901937,161.4782778844543L164.2760526529948,159.77044895442052L165.2094393157959,160.52922713023034L166.14282597859702,160.71957244806646L167.07621264139812,160.79216727828364L168.0095993041992,160.52559148972978L168.94298596700034,161.77569030907037L169.87637262980144,160.79633471492428L170.80975929260254,160.65378806800013L171.74314595540363,161.1758477703197L172.67653261820476,161.31610667371552L173.60991928100586,160.39719532158202L174.54330594380696,160.21864887023315L175.47669260660808,160.79464751516045L176.41007926940918,160.09252314782435L177.34346593221028,161.81060035276434L178.2768525950114,161.6276097001448L179.2102392578125,161.78232955545965L180.1436259206136,160.95397745311078L181.0770125834147,160.998364911251L182.01039924621583,162.2123428416413L182.94378590901692,161.4595740952742L183.87717257181802,160.92015628308147L184.81055923461915,160.72560494122837L185.74394589742025,161.6741097062543L186.67733256022134,161.82710954035883L187.61071922302247,160.57209637470294L188.54410588582357,162.14211337323815L189.47749254862467,161.80129148088122L190.4108792114258,161.32521551218815L191.3442658742269,161.89472615549997L192.277652537028,161.0807436372596L193.2110391998291,161.03005534845556L194.14442586263021,161.6456149247539L195.0778125254313,162.0125906311156L196.0111991882324,162.05919974635808L196.94458585103354,162.29732022785393L197.87797251383464,161.98947013971463" fill="none"></path></g><g><path style="fill: none;" stroke="rgb(204, 51, 17)" stroke-width="2px" d="M27.068213221232096,-9.555317302757715L28.001599884033205,1.6414299905581524L28.93498654683431,6.553164783169855L29.86837320963542,4.606303024133866L30.801759872436524,14.269362668403524L31.73514653523763,28.042575771428524L32.66853319803874,36.49618817552545L33.60191986083984,53.515545238055275L34.535306523640955,77.38780033946576L35.46869318644206,86.82729093490305L36.402079849243165,98.82539956967703L37.33546651204427,97.25205651671781L38.268853174845376,108.06285198519251L39.20223983764649,113.50753255557163L40.13562650044759,111.33176160964953L41.0690131632487,122.61388014653616L42.0023998260498,128.52142827105337L42.93578648885091,127.50187704972605L43.86917315165202,130.14002943755145L44.802559814453126,135.26581328537537L45.73594647725423,130.11937853823383L46.669333140055336,128.25816123913415L47.60271980285645,140.61572325955623L48.536106465657554,142.9747602921287L49.46949312845866,137.33056258374614L50.402879791259764,144.61936668905614L51.33626645406087,144.01258684969923L52.26965311686198,147.07101342475406L53.20303977966309,146.97385662068783L54.13642644246419,145.12749058260084L55.0698131052653,145.7494144147907L56.00319976806641,146.12707039725996L56.936586430867514,147.928687497762L57.86997309366862,147.32228200030855L58.803359756469725,149.39544955617606L59.73674641927084,149.77033966647727L60.67013308207194,150.8737363776457L61.60351974487305,155.70540990449229L62.53690640767415,150.3018093662179L63.47029307047526,150.80794090925284L64.40367973327638,150.90286408082412L65.33706639607747,151.58629707790584L66.27045305887857,154.32923149018123L67.20383972167969,152.99582651720164L68.1372263844808,154.16514022482164L69.07061304728191,153.55207463492502L70.00399971008301,154.93697557041264L70.93738637288412,154.39602934329184L71.87077303568522,152.69445467295049L72.80415969848633,154.5588059766588L73.73754636128743,154.31968665870968L74.67093302408854,154.62601365431772L75.60431968688965,151.9722027753087L76.53770634969075,156.1507765311116L77.47109301249186,156.5900046601674L78.40447967529298,154.94301471657047L79.33786633809407,155.35814214616065L80.27125300089519,156.01711873026184L81.20463966369628,156.19846520582445L82.1380263264974,155.16508462365684L83.07141298929851,155.92661580917593L84.0047996520996,155.9811047327792L84.93818631490072,155.90577685184047L85.87157297770182,156.270982861289L86.80495964050293,156.67156595474466L87.73834630330404,156.44176260520766L88.67173296610514,159.2328567243066L89.60511962890625,157.737045911599L90.53850629170735,156.39529098521405L91.47189295450846,157.1927767347856L92.40527961730957,158.52668556132247L93.33866628011067,158.31740803477987L94.27205294291178,159.22759109980706L95.2054396057129,158.4945657841149L96.138826268514,158.79108360254708L97.07221293131511,157.1493557351852L98.0055995941162,157.36776915571713L98.93898625691732,157.15651524585496L99.87237291971843,158.72074635561012L100.80575958251953,159.57688225596274L101.73914624532064,158.42343017766825L102.67253290812174,159.74777022194826L103.60591957092285,159.78172933075956L104.53930623372396,160.02737080236986L105.47269289652506,158.67686319456018L106.40607955932617,159.35911595016674L107.33946622212729,158.8189073185263L108.27285288492838,160.80574249468L109.2062395477295,158.1961744820333L110.1396262105306,159.36899964089685L111.0730128733317,159.4563117851423L112.00639953613282,160.13143918212475L112.93978619893392,159.05291447441496L113.87317286173503,159.95583690323446L114.80655952453613,159.41870772163617L115.73994618733724,160.64221717750618L116.67333285013835,160.54472683657815L117.60671951293945,161.09895643534117L118.54010617574056,159.53643736320126L119.47349283854167,159.7746434465779L120.40687950134277,160.80640646367223L121.34026616414388,160.2811737258346L122.27365282694498,160.087884679073L123.2070394897461,160.43152921582978L124.1404261525472,160.09184764697255L125.0738128153483,159.41994828360765L126.00719947814942,161.99816649244056L126.94058614095051,161.95450110612356L127.87397280375163,160.66907753967703L128.80735946655275,161.69957293928317L129.74074612935382,162.33134631015741L130.67413279215495,161.5246066868023L131.60751945495605,161.7884866814117L132.54090611775715,161.42275419821985L133.47429278055827,162.46433082782065L134.40767944335937,162.12950151065016L135.3410661061605,161.62576327201208L136.2744527689616,161.85258696644567L137.2078394317627,161.07589670796958L138.14122609456382,161.23027459929443L139.0746127573649,161.66185000891673L140.00799942016602,160.8448869485068L140.9413860829671,160.97618559700538L141.87477274576824,162.25788038100853L142.80815940856934,162.33661903118593L143.74154607137044,160.61778604591012L144.67493273417156,163.7083938275014L145.60831939697266,160.41626591260348L146.54170605977376,162.3677129164235L147.47509272257486,161.66994448727897L148.40847938537598,160.84051593019117L149.34186604817708,162.01812725431535L150.27525271097818,161.97478342946752L151.2086393737793,162.2579398144387L152.1420260365804,162.30922642934195L153.0754126993815,162.39092921096562L154.00879936218263,162.230258029039L154.94218602498373,161.59172210958454L155.87557268778482,163.425370724215L156.80895935058595,161.8381703678327L157.74234601338705,163.22135216917607L158.67573267618815,162.62244016278729L159.60911933898925,161.69635466339295L160.54250600179037,162.69594600991164L161.47589266459147,163.371163665872L162.40927932739257,162.4534549536332L163.3426659901937,161.85899424504407L164.2760526529948,163.06442263215158L165.2094393157959,163.3594803397471L166.14282597859702,162.30340594498315L167.07621264139812,163.15964119674143L168.0095993041992,163.4366681765769L168.94298596700034,163.03997974692942L169.87637262980144,163.40744577908998L170.80975929260254,163.15247503307575L171.74314595540363,162.66166578316424L172.67653261820476,163.14504230604044L173.60991928100586,162.37102167305815L174.54330594380696,162.98558463056852L175.47669260660808,163.02236926674456L176.41007926940918,163.2008006212641L177.34346593221028,163.19803851912707L178.2768525950114,163.99518674003926L179.2102392578125,163.02682965697196L180.1436259206136,163.05739174606947L181.0770125834147,163.2271948301879L182.01039924621583,163.11270098406894L182.94378590901692,163.72235979652444L183.87717257181802,163.41012671467686L184.81055923461915,164.0395866171052L185.74394589742025,163.73078138051915L186.67733256022134,163.1725426864182L187.61071922302247,163.42079124536076L188.54410588582357,162.70613174665624L189.47749254862467,162.88383504165625L190.4108792114258,163.38600073382673L191.3442658742269,163.63123703798587L192.277652537028,162.26562446825264L193.2110391998291,163.27208946838334L194.14442586263021,163.90814692509323L195.0778125254313,163.0556593059334L196.0111991882324,163.49017910978077L196.94458585103354,163.0495709276058L197.87797251383464,163.22381621709616L198.81135917663573,163.25474776923343L199.74474583943686,162.99222565109008L200.67813250223796,162.25047426595688L201.61151916503906,162.83773155410321L202.54490582784018,163.05226583448413L203.47829249064128,163.69252598871302L204.41167915344238,163.0829966879113L205.34506581624348,163.7940666735536L206.2784524790446,163.26846624680846L207.2118391418457,163.42936074763128L208.1452258046468,163.4168819449616L209.07861246744793,164.07543628558875L210.01199913024902,163.69448573954278L210.94538579305012,164.14349510319164L211.87877245585125,163.7662990645066L212.81215911865235,164.4405274199745L213.74554578145344,162.37916227885876L214.67893244425457,163.66460292132814L215.61231910705567,163.625299460899L216.54570576985677,164.1820294772931L217.47909243265786,164.21605245486518L218.412479095459,163.25428760368268L219.3458657582601,164.4206247609307L220.2792524210612,164.27124526543614L221.2126390838623,164.1490379358543L222.1460257466634,163.86039815165063L223.0794124094645,163.94878497650276L224.01279907226564,163.99294845044722L224.94618573506673,164.26687890421766L225.87957239786783,163.03534393937642L226.81295906066896,164.03310682085132L227.74634572347006,163.92914954612817L228.67973238627116,164.39849334825567L229.61311904907225,163.80474761496075L230.54650571187338,163.8813790395656L231.47989237467448,164.36856085433817L232.41327903747558,164.18250006587078L233.3466657002767,164.05236413929146L234.2800523630778,164.1298857347496L235.2134390258789,163.6447954001259L236.14682568868002,164.45071670498362L237.08021235148112,164.84508279552398L238.01359901428222,164.34118643734968L238.94698567708335,164.1681400177231L239.88037233988445,164.14878223904464L240.81375900268554,164.29250713154522L241.74714566548664,163.4616550550983L242.68053232828777,164.82498819754807L243.61391899108887,165.03054281846033L244.54730565388996,164.32932237150246L245.4806923166911,165.0501549633492L246.4140789794922,165.10183233087915L247.3474656422933,164.58440555314763L248.2808523050944,164.89530238076586L249.2142389678955,164.65776924792596L250.1476256306966,164.8327068925244L251.0810122934977,164.8872053520885L252.01439895629883,164.55004260748436L252.94778561909993,164.77766089139664L253.88117228190103,164.45563504309644L254.81455894470216,164.4968707553056L255.74794560750325,164.52695205456502L256.6813322703043,163.96870848160043" fill="none"></path></g></g></g></g></g></g><g transform="translate(49, 178)" clip-path="url(#clip_1)"><clipPath id="clip_1"><rect width="280" height="21"></rect></clipPath><g><g><line x1="0" y1="0" x2="0" y2="5" style="visibility: inherit;" fill="rgb(0, 0, 0)" stroke="rgb(204, 204, 204)" stroke-width="1px"></line><line x1="23.334666570027668" y1="0" x2="23.334666570027668" y2="5" style="visibility: inherit;" fill="rgb(0, 0, 0)" stroke="rgb(204, 204, 204)" stroke-width="1px"></line><line x1="46.669333140055336" y1="0" x2="46.669333140055336" y2="5" style="visibility: inherit;" fill="rgb(0, 0, 0)" stroke="rgb(204, 204, 204)" stroke-width="1px"></line><line x1="70.00399971008301" y1="0" x2="70.00399971008301" y2="5" style="visibility: inherit;" fill="rgb(0, 0, 0)" stroke="rgb(204, 204, 204)" stroke-width="1px"></line><line x1="93.33866628011067" y1="0" x2="93.33866628011067" y2="5" style="visibility: inherit;" fill="rgb(0, 0, 0)" stroke="rgb(204, 204, 204)" stroke-width="1px"></line><line x1="116.67333285013835" y1="0" x2="116.67333285013835" y2="5" style="visibility: inherit;" fill="rgb(0, 0, 0)" stroke="rgb(204, 204, 204)" stroke-width="1px"></line><line x1="140.00799942016602" y1="0" x2="140.00799942016602" y2="5" style="visibility: inherit;" fill="rgb(0, 0, 0)" stroke="rgb(204, 204, 204)" stroke-width="1px"></line><line x1="163.3426659901937" y1="0" x2="163.3426659901937" y2="5" style="visibility: inherit;" fill="rgb(0, 0, 0)" stroke="rgb(204, 204, 204)" stroke-width="1px"></line><line x1="186.67733256022134" y1="0" x2="186.67733256022134" y2="5" style="visibility: inherit;" fill="rgb(0, 0, 0)" stroke="rgb(204, 204, 204)" stroke-width="1px"></line><line x1="210.01199913024902" y1="0" x2="210.01199913024902" y2="5" style="visibility: inherit;" fill="rgb(0, 0, 0)" stroke="rgb(204, 204, 204)" stroke-width="1px"></line><line x1="233.3466657002767" y1="0" x2="233.3466657002767" y2="5" style="visibility: inherit;" fill="rgb(0, 0, 0)" stroke="rgb(204, 204, 204)" stroke-width="1px"></line><line x1="256.6813322703043" y1="0" x2="256.6813322703043" y2="5" style="visibility: inherit;" fill="rgb(0, 0, 0)" stroke="rgb(204, 204, 204)" stroke-width="1px"></line><line x1="280.01599884033203" y1="0" x2="280.01599884033203" y2="5" style="visibility: inherit;" fill="rgb(0, 0, 0)" stroke="rgb(204, 204, 204)" stroke-width="1px"></line></g><g transform="translate(0, 8)"><text style="text-anchor: middle; visibility: hidden; font-family: Roboto, sans-serif; font-size: 12px; font-weight: 200;" x="0" y="0" dx="0em" dy="0.95em" fill="rgb(50, 49, 63)" stroke="none" stroke-width="1px">-500</text><text style="text-anchor: middle; visibility: inherit; font-family: Roboto, sans-serif; font-size: 12px; font-weight: 200;" x="23.334666570027668" y="0" dx="0em" dy="0.95em" fill="rgb(50, 49, 63)" stroke="none" stroke-width="1px">0</text><text style="text-anchor: middle; visibility: inherit; font-family: Roboto, sans-serif; font-size: 12px; font-weight: 200;" x="46.669333140055336" y="0" dx="0em" dy="0.95em" fill="rgb(50, 49, 63)" stroke="none" stroke-width="1px">500</text><text style="text-anchor: middle; visibility: inherit; font-family: Roboto, sans-serif; font-size: 12px; font-weight: 200;" x="70.00399971008301" y="0" dx="0em" dy="0.95em" fill="rgb(50, 49, 63)" stroke="none" stroke-width="1px">1k</text><text style="text-anchor: middle; visibility: inherit; font-family: Roboto, sans-serif; font-size: 12px; font-weight: 200;" x="93.33866628011067" y="0" dx="0em" dy="0.95em" fill="rgb(50, 49, 63)" stroke="none" stroke-width="1px">1.5k</text><text style="text-anchor: middle; visibility: inherit; font-family: Roboto, sans-serif; font-size: 12px; font-weight: 200;" x="116.67333285013835" y="0" dx="0em" dy="0.95em" fill="rgb(50, 49, 63)" stroke="none" stroke-width="1px">2k</text><text style="text-anchor: middle; visibility: inherit; font-family: Roboto, sans-serif; font-size: 12px; font-weight: 200;" x="140.00799942016602" y="0" dx="0em" dy="0.95em" fill="rgb(50, 49, 63)" stroke="none" stroke-width="1px">2.5k</text><text style="text-anchor: middle; visibility: inherit; font-family: Roboto, sans-serif; font-size: 12px; font-weight: 200;" x="163.3426659901937" y="0" dx="0em" dy="0.95em" fill="rgb(50, 49, 63)" stroke="none" stroke-width="1px">3k</text><text style="text-anchor: middle; visibility: inherit; font-family: Roboto, sans-serif; font-size: 12px; font-weight: 200;" x="186.67733256022134" y="0" dx="0em" dy="0.95em" fill="rgb(50, 49, 63)" stroke="none" stroke-width="1px">3.5k</text><text style="text-anchor: middle; visibility: inherit; font-family: Roboto, sans-serif; font-size: 12px; font-weight: 200;" x="210.01199913024902" y="0" dx="0em" dy="0.95em" fill="rgb(50, 49, 63)" stroke="none" stroke-width="1px">4k</text><text style="text-anchor: middle; visibility: inherit; font-family: Roboto, sans-serif; font-size: 12px; font-weight: 200;" x="233.3466657002767" y="0" dx="0em" dy="0.95em" fill="rgb(50, 49, 63)" stroke="none" stroke-width="1px">4.5k</text><text style="text-anchor: middle; visibility: inherit; font-family: Roboto, sans-serif; font-size: 12px; font-weight: 200;" x="256.6813322703043" y="0" dx="0em" dy="0.95em" fill="rgb(50, 49, 63)" stroke="none" stroke-width="1px">5k</text><text style="text-anchor: middle; visibility: hidden; font-family: Roboto, sans-serif; font-size: 12px; font-weight: 200;" x="280.01599884033203" y="0" dx="0em" dy="0.95em" fill="rgb(50, 49, 63)" stroke="none" stroke-width="1px">5.5k</text></g><line x1="0" y1="0" x2="280.01599884033203" y2="0" fill="rgb(0, 0, 0)" stroke="rgb(204, 204, 204)" stroke-width="1px"></line></g></g></g></g></svg>