<svg viewBox="0 0 330 200" xmlns="http://www.w3.org/2000/svg"><g><g><g><g><g><line x1="51.53200149536133" y1="177.5999994277954" x2="46.53200149536133" y2="177.5999994277954" style="visibility: inherit;" fill="rgb(0, 0, 0)" stroke="rgb(204, 204, 204)" stroke-width="1px"></line><line x1="51.53200149536133" y1="157.86666615804035" x2="46.53200149536133" y2="157.86666615804035" style="visibility: inherit;" fill="rgb(0, 0, 0)" stroke="rgb(204, 204, 204)" stroke-width="1px"></line><line x1="51.53200149536133" y1="138.1333328882853" x2="46.53200149536133" y2="138.1333328882853" style="visibility: inherit;" fill="rgb(0, 0, 0)" stroke="rgb(204, 204, 204)" stroke-width="1px"></line><line x1="51.53200149536133" y1="118.39999961853029" x2="46.53200149536133" y2="118.39999961853029" style="visibility: inherit;" fill="rgb(0, 0, 0)" stroke="rgb(204, 204, 204)" stroke-width="1px"></line><line x1="51.53200149536133" y1="98.66666634877524" x2="46.53200149536133" y2="98.66666634877524" style="visibility: inherit;" fill="rgb(0, 0, 0)" stroke="rgb(204, 204, 204)" stroke-width="1px"></line><line x1="51.53200149536133" y1="78.93333307902017" x2="46.53200149536133" y2="78.93333307902017" style="visibility: inherit;" fill="rgb(0, 0, 0)" stroke="rgb(204, 204, 204)" stroke-width="1px"></line><line x1="51.53200149536133" y1="59.199999809265144" x2="46.53200149536133" y2="59.199999809265144" style="visibility: inherit;" fill="rgb(0, 0, 0)" stroke="rgb(204, 204, 204)" stroke-width="1px"></line><line x1="51.53200149536133" y1="39.466666539510086" x2="46.53200149536133" y2="39.466666539510086" style="visibility: inherit;" fill="rgb(0, 0, 0)" stroke="rgb(204, 204, 204)" stroke-width="1px"></line><line x1="51.53200149536133" y1="19.733333269755054" x2="46.53200149536133" y2="19.733333269755054" style="visibility: inherit;" fill="rgb(0, 0, 0)" stroke="rgb(204, 204, 204)" stroke-width="1px"></line><line x1="51.53200149536133" y1="0" x2="46.53200149536133" y2="0" style="visibility: inherit;" fill="rgb(0, 0, 0)" stroke="rgb(204, 204, 204)" stroke-width="1px"></line></g><g transform="translate(41.53200149536133, 0)"><text style="text-anchor: end; visibility: hidden; font-family: Roboto, sans-serif; font-size: 12px; font-weight: 200;" x="0" y="177.5999994277954" dx="0em" dy="0.3em" fill="rgb(50, 49, 63)" stroke="none" stroke-width="1px">-0.5</text><text style="text-anchor: end; visibility: inherit; font-family: Roboto, sans-serif; font-size: 12px; font-weight: 200;" x="0" y="157.86666615804035" dx="0em" dy="0.3em" fill="rgb(50, 49, 63)" stroke="none" stroke-width="1px">0</text><text style="text-anchor: end; visibility: hidden; font-family: Roboto, sans-serif; font-size: 12px; font-weight: 200;" x="0" y="138.1333328882853" dx="0em" dy="0.3em" fill="rgb(50, 49, 63)" stroke="none" stroke-width="1px">0.5</text><text style="text-anchor: end; visibility: inherit; font-family: Roboto, sans-serif; font-size: 12px; font-weight: 200;" x="0" y="118.39999961853029" dx="0em" dy="0.3em" fill="rgb(50, 49, 63)" stroke="none" stroke-width="1px">1</text><text style="text-anchor: end; visibility: hidden; font-family: Roboto, sans-serif; font-size: 12px; font-weight: 200;" x="0" y="98.66666634877524" dx="0em" dy="0.3em" fill="rgb(50, 49, 63)" stroke="none" stroke-width="1px">1.5</text><text style="text-anchor: end; visibility: inherit; font-family: Roboto, sans-serif; font-size: 12px; font-weight: 200;" x="0" y="78.93333307902017" dx="0em" dy="0.3em" fill="rgb(50, 49, 63)" stroke="none" stroke-width="1px">2</text><text style="text-anchor: end; visibility: hidden; font-family: Roboto, sans-serif; font-size: 12px; font-weight: 200;" x="0" y="59.199999809265144" dx="0em" dy="0.3em" fill="rgb(50, 49, 63)" stroke="none" stroke-width="1px">2.5</text><text style="text-anchor: end; visibility: inherit; font-family: Roboto, sans-serif; font-size: 12px; font-weight: 200;" x="0" y="39.466666539510086" dx="0em" dy="0.3em" fill="rgb(50, 49, 63)" stroke="none" stroke-width="1px">3</text><text style="text-anchor: end; visibility: hidden; font-family: Roboto, sans-serif; font-size: 12px; font-weight: 200;" x="0" y="19.733333269755054" dx="0em" dy="0.3em" fill="rgb(50, 49, 63)" stroke="none" stroke-width="1px">3.5</text><text style="text-anchor: end; visibility: hidden; font-family: Roboto, sans-serif; font-size: 12px; font-weight: 200;" x="0" y="0" dx="0em" dy="0.3em" fill="rgb(50, 49, 63)" stroke="none" stroke-width="1px">4</text></g><line x1="51.53200149536133" y1="0" x2="51.53200149536133" y2="177.5999994277954" fill="rgb(0, 0, 0)" stroke="rgb(204, 204, 204)" stroke-width="1px"></line></g></g><g transform="translate(51, 0)" clip-path="url(#clip_0)"><clipPath id="clip_0"><rect width="278" height="177"></rect></clipPath><g><g><g><line x1="0" y1="0" x2="0" y2="177.5999994277954" fill="rgb(0, 0, 0)" stroke="rgb(60, 60, 60)" stroke-width="1px" opacity="0.25"></line><line x1="23.205666542053223" y1="0" x2="23.205666542053223" y2="177.5999994277954" fill="rgb(0, 0, 0)" stroke="rgb(60, 60, 60)" stroke-width="1px" opacity="0.25"></line><line x1="46.411333084106445" y1="0" x2="46.411333084106445" y2="177.5999994277954" fill="rgb(0, 0, 0)" stroke="rgb(60, 60, 60)" stroke-width="1px" opacity="0.25"></line><line x1="69.61699962615967" y1="0" x2="69.61699962615967" y2="177.5999994277954" fill="rgb(0, 0, 0)" stroke="rgb(60, 60, 60)" stroke-width="1px" opacity="0.25"></line><line x1="92.82266616821289" y1="0" x2="92.82266616821289" y2="177.5999994277954" fill="rgb(0, 0, 0)" stroke="rgb(60, 60, 60)" stroke-width="1px" opacity="0.25"></line><line x1="116.02833271026611" y1="0" x2="116.02833271026611" y2="177.5999994277954" fill="rgb(0, 0, 0)" stroke="rgb(60, 60, 60)" stroke-width="1px" opacity="0.25"></line><line x1="139.23399925231934" y1="0" x2="139.23399925231934" y2="177.5999994277954" fill="rgb(0, 0, 0)" stroke="rgb(60, 60, 60)" stroke-width="1px" opacity="0.25"></line><line x1="162.43966579437256" y1="0" x2="162.43966579437256" y2="177.5999994277954" fill="rgb(0, 0, 0)" stroke="rgb(60, 60, 60)" stroke-width="1px" opacity="0.25"></line><line x1="185.64533233642578" y1="0" x2="185.64533233642578" y2="177.5999994277954" fill="rgb(0, 0, 0)" stroke="rgb(60, 60, 60)" stroke-width="1px" opacity="0.25"></line><line x1="208.850998878479" y1="0" x2="208.850998878479" y2="177.5999994277954" fill="rgb(0, 0, 0)" stroke="rgb(60, 60, 60)" stroke-width="1px" opacity="0.25"></line><line x1="232.05666542053223" y1="0" x2="232.05666542053223" y2="177.5999994277954" fill="rgb(0, 0, 0)" stroke="rgb(60, 60, 60)" stroke-width="1px" opacity="0.25"></line><line x1="255.26233196258545" y1="0" x2="255.26233196258545" y2="177.5999994277954" fill="rgb(0, 0, 0)" stroke="rgb(60, 60, 60)" stroke-width="1px" opacity="0.25"></line><line x1="278.4679985046387" y1="0" x2="278.4679985046387" y2="177.5999994277954" fill="rgb(0, 0, 0)" stroke="rgb(60, 60, 60)" stroke-width="1px" opacity="0.25"></line></g><g><line x1="0" y1="177.5999994277954" x2="278.4679985046387" y2="177.5999994277954" fill="rgb(0, 0, 0)" stroke="rgb(60, 60, 60)" stroke-width="1px" opacity="0.25"></line><line x1="0" y1="157.86666615804035" x2="278.4679985046387" y2="157.86666615804035" fill="rgb(0, 0, 0)" stroke="rgb(60, 60, 60)" stroke-width="1px" opacity="0.25"></line><line x1="0" y1="138.1333328882853" x2="278.4679985046387" y2="138.1333328882853" fill="rgb(0, 0, 0)" stroke="rgb(60, 60, 60)" stroke-width="1px" opacity="0.25"></line><line x1="0" y1="118.39999961853029" x2="278.4679985046387" y2="118.39999961853029" fill="rgb(0, 0, 0)" stroke="rgb(60, 60, 60)" stroke-width="1px" opacity="0.25"></line><line x1="0" y1="98.66666634877524" x2="278.4679985046387" y2="98.66666634877524" fill="rgb(0, 0, 0)" stroke="rgb(60, 60, 60)" stroke-width="1px" opacity="0.25"></line><line x1="0" y1="78.93333307902017" x2="278.4679985046387" y2="78.93333307902017" fill="rgb(0, 0, 0)" stroke="rgb(60, 60, 60)" stroke-width="1px" opacity="0.25"></line><line x1="0" y1="59.199999809265144" x2="278.4679985046387" y2="59.199999809265144" fill="rgb(0, 0, 0)" stroke="rgb(60, 60, 60)" stroke-width="1px" opacity="0.25"></line><line x1="0" y1="39.466666539510086" x2="278.4679985046387" y2="39.466666539510086" fill="rgb(0, 0, 0)" stroke="rgb(60, 60, 60)" stroke-width="1px" opacity="0.25"></line><line x1="0" y1="19.733333269755054" x2="278.4679985046387" y2="19.733333269755054" fill="rgb(0, 0, 0)" stroke="rgb(60, 60, 60)" stroke-width="1px" opacity="0.25"></line><line x1="0" y1="0" x2="278.4679985046387" y2="0" fill="rgb(0, 0, 0)" stroke="rgb(60, 60, 60)" stroke-width="1px" opacity="0.25"></line></g></g></g><g><g><line x1="0" y1="157.86666615804035" x2="278.4679985046387" y2="157.86666615804035" fill="rgb(0, 0, 0)" stroke="rgb(153, 153, 153)" stroke-width="1.5px"></line></g></g><g><g><line x1="23.205666542053223" y1="0" x2="23.205666542053223" y2="177.5999994277954" fill="rgb(0, 0, 0)" stroke="rgb(153, 153, 153)" stroke-width="1.5px"></line></g></g><g><g><g><g><g><path style="fill: none;" stroke="rgb(255, 112, 67)" stroke-width="2px" d="M30.631479835510255,-0.49476725525230014L31.55970649719238,4.734899057384243L32.48793315887451,0.4809609918325524L33.416159820556636,10.923593971697356L34.34438648223877,-21.737012915052638L35.2726131439209,-9.361913193576886L36.20083980560303,4.7132694285925965L37.129066467285156,15.40678546325714L38.05729312896728,22.42096813773463L38.98551979064942,27.656081773420937L39.913746452331544,30.168150748845054L40.84197311401367,33.6020150923936L41.7701997756958,36.053723317833956L42.698426437377925,42.827360411348764L43.626653099060064,45.10831347010329L44.55487976074219,47.06423424434708L45.483106422424314,49.11833991866443L46.411333084106445,55.7542337733795L47.33955974578858,59.63675130670512L48.2677864074707,64.18373510507288L49.19601306915283,68.45485547567232L50.12423973083496,69.25445583150054L51.05246639251708,72.08899162725007L51.98069305419922,75.66442634544738L52.908919715881346,78.65263543673396L53.83714637756348,82.3303725546549L54.7653730392456,85.62642847964914L55.693599700927734,90.14981625838155L56.621826362609866,92.27481630124007L57.55005302429199,90.94389341483316L58.478279685974115,91.26987185056149L59.406506347656254,93.85699378861715L60.33473300933838,97.7353901430713L61.26295967102051,102.22453828921732L62.191186332702635,105.54504062176268L63.11941299438476,106.92593343285924L64.04763965606689,108.56688153138182L64.97586631774902,109.64138345488071L65.90409297943116,110.81667613963684L66.83231964111327,112.11314264212525L67.76054630279542,112.06780228053454L68.68877296447754,114.75337904546275L69.61699962615967,117.32033730938008L70.5452262878418,118.68364026918704L71.47345294952392,120.3390912450493L72.40167961120606,121.37264615253794L73.32990627288818,122.92533781493302L74.25813293457031,123.83591862257718L75.18635959625244,123.10756641241753L76.11458625793456,122.0298817434559L77.04281291961671,123.9321030515837L77.97103958129884,123.7488436318656L78.89926624298096,125.14299721794588L79.82749290466309,125.22221619393328L80.7557195663452,126.82638677535677L81.68394622802734,128.06314846170616L82.61217288970948,129.6128613394439L83.5403995513916,129.52505921707026L84.46862621307373,129.6620441570243L85.39685287475585,129.42797421198148L86.32507953643798,129.9049507356016L87.25330619812013,132.13817676902954L88.18153285980225,133.8180082976185L89.10975952148438,133.69805346881256L90.0379861831665,132.6145481346025L90.96621284484863,135.25244852710026L91.89443950653077,134.55458115225062L92.82266616821289,135.9906887802434L93.75089282989502,135.85483179449776L94.67911949157715,135.9343843190435L95.60734615325927,135.6691906231906L96.5355728149414,135.86444508121352L97.46379947662354,136.3731146564179L98.39202613830567,136.29829048825482L99.3202527999878,136.808556889499L100.24847946166992,138.45324123917757L101.17670612335205,139.09120554171832L102.10493278503417,140.29946786234345L103.03315944671631,140.13422284974973L103.96138610839844,139.39335944665768L104.88961277008056,139.89587300778965L105.81783943176269,140.50293817829473L106.74606609344484,140.83066761427256L107.67429275512696,141.07299681674797L108.60251941680909,141.6692730268644L109.5307460784912,142.42050814253568L110.45897274017334,142.42521504894682L111.38719940185547,143.37901999925916L112.3154260635376,143.41838680040755L113.24365272521973,143.20096385463117L114.17187938690185,143.14572985163244L115.10010604858398,143.25762081889314L116.02833271026611,143.00046481954485L116.95655937194823,143.0191617640156L117.88478603363038,143.22613038274474L118.81301269531251,143.33520211036637L119.74123935699463,143.31012398329057L120.66946601867676,144.2909162355098L121.59769268035888,144.50243225781495L122.52591934204102,144.7996817347443L123.45414600372315,144.35000409189098L124.38237266540527,144.83298748432406L125.3105993270874,144.74902168450132L126.23882598876952,145.7813224074182L127.16705265045167,145.61451541745217L128.09527931213378,146.0372372622341L129.0235059738159,145.59756403334464L129.95173263549805,146.15373781553708L130.87995929718016,146.19064443515367L131.8081859588623,145.96429486982143L132.73641262054443,146.29732013328226L133.66463928222655,145.90953531003663L134.5928659439087,146.16986464846894L135.52109260559084,147.11487118605964L136.44931926727295,147.35223753134767L137.37754592895507,147.6694528765417L138.3057725906372,147.60176816211595L139.23399925231934,147.5083074495976L140.16222591400145,147.92465366486175L141.0904525756836,146.87893046227103L142.01867923736572,147.14068035794048L142.94690589904783,148.00008206665916L143.87513256073,147.8806926780835L144.80335922241213,147.90149176609617L145.73158588409424,147.8345797142361L146.65981254577636,148.49152523650966L147.5880392074585,148.5767755879276L148.51626586914062,148.91698688640906L149.44449253082274,149.2692080902222L150.3727191925049,149.04804680933609L151.300945854187,148.45119748365525L152.22917251586912,149.0192175061328L153.15739917755127,149.0710465315571L154.08562583923342,148.23661112540188L155.01385250091553,148.5087220578689L155.94207916259768,149.1167995340882L156.8703058242798,149.29007671756017L157.7985324859619,149.4370295476363L158.72675914764403,149.6359793672733L159.65498580932618,149.5934366212308L160.5832124710083,149.73883705439414L161.5114391326904,150.23394360656732L162.43966579437256,150.66644112864174L163.36789245605468,150.3896830696192L164.2961191177368,150.23552994976382L165.22434577941897,150.72777166386746L166.15257244110109,150.84142792643556L167.0807991027832,150.88718405434898L168.00902576446535,150.8768594172641L168.93725242614747,150.55372976436067L169.86547908782958,150.61867582432382L170.7937057495117,150.93928555941054L171.72193241119385,150.8892188133022L172.65015907287597,150.96823493288835L173.57838573455808,150.3466688720847L174.50661239624026,150.72507884128518L175.43483905792237,150.95131677455979L176.3630657196045,151.26528439636692L177.29129238128664,151.28709811487516L178.21951904296876,150.96906417119447L179.14774570465087,150.9711617362391L180.075972366333,151.01328281633295L181.00419902801514,151.28100522404512L181.93242568969725,151.44337144403715L182.86065235137937,151.30854234916424L183.78887901306155,151.59421109767365L184.71710567474366,151.48243648506144L185.64533233642578,151.9593535603256L186.57355899810793,151.5593127638412L187.50178565979004,152.26389245084536L188.43001232147216,152.3850169068826L189.3582389831543,152.35053285638327L190.28646564483643,152.55354687787758L191.21469230651854,152.15367863763925L192.14291896820066,151.7792751766871L193.0711456298828,152.04868932334702L193.99937229156492,152.2426976147564L194.92759895324707,152.48984009096097L195.85582561492922,152.70373133132463L196.78405227661133,153.01199889496536" fill="none"></path></g><g><path style="fill: none;" stroke="rgb(204, 51, 17)" stroke-width="2px" d="M27.846799850463867,-13.238823071298086L28.775026512145995,2.261028176676462L29.703253173828127,12.381359400176288L30.631479835510255,19.984058164759954L31.55970649719238,17.504753675892207L32.48793315887451,7.976550367130941L33.416159820556636,21.77299683700447L34.34438648223877,34.22036257134443L35.2726131439209,42.53157278786227L36.20083980560303,50.40545064229113L37.129066467285156,55.21701559903683L38.05729312896728,58.58208461663664L38.98551979064942,66.74910726111182L39.913746452331544,70.25669419223141L40.84197311401367,76.6586944920334L41.7701997756958,82.90100358881796L42.698426437377925,85.96130648104575L43.626653099060064,88.06547968930136L44.55487976074219,93.93598603009683L45.483106422424314,94.93110207440047L46.411333084106445,93.08143608992707L47.33955974578858,98.36377857501658L48.2677864074707,104.17710856179654L49.19601306915283,105.83342218328374L50.12423973083496,109.73533743019327L51.05246639251708,111.70320955990692L51.98069305419922,114.18315014660115L52.908919715881346,116.9476904586065L53.83714637756348,117.87648562328602L54.7653730392456,120.01381674324745L55.693599700927734,121.16597071610288L56.621826362609866,122.61455979652429L57.55005302429199,122.48329728395828L58.478279685974115,123.2664691988882L59.406506347656254,125.33232856116884L60.33473300933838,127.0500036096134L61.26295967102051,130.12012617473002L62.191186332702635,129.77336521101446L63.11941299438476,130.2558716037664L64.04763965606689,131.56891733172128L64.97586631774902,133.00529205334504L65.90409297943116,134.13504074913763L66.83231964111327,134.7777338692865L67.76054630279542,135.00849429345845L68.68877296447754,135.53846650739473L69.61699962615967,136.2654572756408L70.5452262878418,136.887317934719L71.47345294952392,137.32530307893862L72.40167961120606,138.00449565847282L73.32990627288818,138.40246659206755L74.25813293457031,138.32496754211843L75.18635959625244,137.25470650605183L76.11458625793456,139.22381224833404L77.04281291961671,140.6443728176684L77.97103958129884,140.5346471531929L78.89926624298096,141.13958495333526L79.82749290466309,141.68828957872472L80.7557195663452,141.51409006350679L81.68394622802734,141.493509041748L82.61217288970948,140.89680816617116L83.5403995513916,141.76166033280793L84.46862621307373,142.9124225472989L85.39685287475585,142.85413507910974L86.32507953643798,143.4299045166997L87.25330619812013,143.19412801940354L88.18153285980225,144.84412507708666L89.10975952148438,145.2918431925941L90.0379861831665,144.74528723336857L90.96621284484863,144.36021723681372L91.89443950653077,145.30925124927958L92.82266616821289,146.57567125524184L93.75089282989502,147.45633458731788L94.67911949157715,147.289825915371L95.60734615325927,147.45617625537173L96.5355728149414,147.07210882116064L97.46379947662354,147.6604564731795L98.39202613830567,147.6866468344969L99.3202527999878,148.08997203229762L100.24847946166992,148.46573242205181L101.17670612335205,148.1583905771766L102.10493278503417,148.75761983789474L103.03315944671631,149.39266279632088L103.96138610839844,149.7415901192298L104.88961277008056,149.3901817315584L105.81783943176269,149.24483424335108L106.74606609344484,149.76374097521946L107.67429275512696,150.10601244344005L108.60251941680909,149.04051585809955L109.5307460784912,148.99018533638395L110.45897274017334,149.37953743449881L111.38719940185547,149.8976877689382L112.3154260635376,150.0749684271856L113.24365272521973,149.87665017506478L114.17187938690185,150.14149625487374L115.10010604858398,150.63061076001225L116.02833271026611,150.97003682480442L116.95655937194823,151.25576546527685L117.88478603363038,150.58034409363398L118.81301269531251,149.8696222164567L119.74123935699463,150.13956106920958L120.66946601867676,150.35969820879887L121.59769268035888,150.72665953410325L122.52591934204102,151.28906205144986L123.45414600372315,151.66954936224607L124.38237266540527,151.62705619534617L125.3105993270874,152.05979963292253L126.23882598876952,152.2114448133497L127.16705265045167,152.2369734269947L128.09527931213378,152.12983658810958L129.0235059738159,152.76109265684892L129.95173263549805,153.0663800100805L130.87995929718016,153.00967112663452L131.8081859588623,152.54635434617796L132.73641262054443,152.573397668238L133.66463928222655,153.21167378586347L134.5928659439087,153.29627205246234L135.52109260559084,153.5340098478788L136.44931926727295,153.46617512915967L137.37754592895507,153.0389103686622L138.3057725906372,153.10175821007078L139.23399925231934,152.75756978772333L140.16222591400145,153.1063516054455L141.0904525756836,153.6604065315056L142.01867923736572,153.7783761903066L142.94690589904783,153.4048129610026L143.87513256073,153.9500147000237L144.80335922241213,153.35524737907156L145.73158588409424,153.30289979145792L146.65981254577636,153.53530934628048L147.5880392074585,153.06909751314748L148.51626586914062,153.3974046056192L149.44449253082274,153.26907687077662L150.3727191925049,153.33357053626946L151.300945854187,153.71601692837143L152.22917251586912,153.91568707301917L153.15739917755127,154.10399447854667L154.08562583923342,153.79490968201716L155.01385250091553,154.34553088742638L155.94207916259768,154.3046913042558L156.8703058242798,154.4113159064141L157.7985324859619,154.59925232578746L158.72675914764403,154.64666953879754L159.65498580932618,154.40393993392934L160.5832124710083,154.7579388671678L161.5114391326904,154.743121059035L162.43966579437256,154.3742124176278L163.36789245605468,154.22097511411013L164.2961191177368,154.48092786293054L165.22434577941897,154.14197501939194L166.15257244110109,154.4613922971547L167.0807991027832,154.70081442904944L168.00902576446535,154.77746627661915L168.93725242614747,155.1503915293993L169.86547908782958,155.10695835382097L170.7937057495117,154.9973020348131L171.72193241119385,155.1795671164215L172.65015907287597,155.18258354646903L173.57838573455808,155.45385144164155L174.50661239624026,155.4846417274974L175.43483905792237,155.67968843745365L176.3630657196045,155.33873012596965L177.29129238128664,155.63032881333567L178.21951904296876,155.72979414826972L179.14774570465087,155.7822456105551L180.075972366333,155.8126764345621L181.00419902801514,155.81507683511987L181.93242568969725,156.0106519014892L182.86065235137937,156.08804371916477L183.78887901306155,156.13358636929496L184.71710567474366,156.02889651853965L185.64533233642578,155.59095179696803L186.57355899810793,155.62646050691274L187.50178565979004,155.21252895284363L188.43001232147216,154.87961488749082L189.3582389831543,155.28391532786372L190.28646564483643,155.43102710306601L191.21469230651854,155.1012358822317L192.14291896820066,154.80177442990964L193.0711456298828,155.34629286168956L193.99937229156492,154.87407779875878L194.92759895324707,155.24202035644635L195.85582561492922,155.4309424387079L196.78405227661133,155.3604905885339L197.71227893829345,155.5194609535222L198.6405055999756,155.01055605396093L199.56873226165771,154.48999152233236L200.49695892333983,154.87028770630295L201.42518558502198,155.00362295921957L202.3534122467041,155.00063579183998L203.2816389083862,154.66430598956543L204.20986557006833,155.32355249801228L205.1380922317505,155.32270633754692L206.06631889343262,155.54467102532163L206.99454555511474,155.41460042248332L207.9227722167969,155.7400389564301L208.850998878479,156.10461206109565L209.77922554016112,156.25931057275497L210.70745220184327,156.21579506225717L211.63567886352538,156.19260455089895L212.5639055252075,155.8685748536698L213.49213218688968,155.59951819521532L214.4203588485718,155.71614595156606L215.3485855102539,156.02739575504324L216.27681217193603,156.0273556403126L217.20503883361818,155.7316169651882L218.1332654953003,156.23864161240814L219.0614921569824,156.5762642850713L219.98971881866456,156.61355808910452L220.91794548034667,156.41801472771186L221.8461721420288,156.25475787243934L222.77439880371094,156.32087454458758L223.70262546539308,156.48955959501106L224.6308521270752,156.05932338090273L225.55907878875735,155.93428925222094L226.48730545043946,156.16848949017415L227.41553211212158,156.29696936122585L228.3437587738037,156.21836179511087L229.27198543548585,156.21993997239196L230.20021209716796,156.30727241149725L231.12843875885008,156.31561307376924L232.05666542053223,156.53377609938624L232.98489208221434,156.34771002141045L233.91311874389646,156.16451229195707L234.84134540557864,156.3847928956541L235.76957206726075,156.6252506026289L236.69779872894287,156.80916213982673L237.62602539062502,156.5730170922458L238.55425205230713,156.5317074752162L239.48247871398925,156.60914539501994L240.41070537567137,156.21416909669634L241.33893203735352,156.49751131243866L242.26715869903563,156.6245961360218L243.19538536071775,156.73261667607815L244.12361202239993,156.97211504877208L245.05183868408204,157.1169619684362L245.98006534576416,157.1694317979604L246.9082920074463,157.05204456792737L247.83651866912842,156.85933794593868L248.76474533081054,156.78157417938647L249.69297199249266,157.05892427037298L250.6211986541748,157.10382595193693L251.54942531585692,157.06467849444394L252.47765197753904,156.93008350378594L253.4058786392212,156.84923885321135L254.33410530090333,156.92290225328415L255.26233196258545,156.7882479002769" fill="none"></path></g></g></g></g><g opacity="0.2"><g><g><g><path style="fill: none;" stroke="rgb(255, 112, 67)" stroke-width="2px" d="M27.846799850463867,-6.985037208940425L28.775026512145995,13.7708734704432L29.703253173828127,16.576191149393107L30.631479835510255,12.156583619687206L31.55970649719238,12.50034404541885L32.48793315887451,-5.861363201330264L33.416159820556636,26.530715093964766L34.34438648223877,-70.6212806969464L35.2726131439209,9.17649228000483L36.20083980560303,25.809498513036488L37.129066467285156,31.43951761924625L38.05729312896728,32.93927398241552L38.98551979064942,35.50742303216537L39.913746452331544,33.93587152355682L40.84197311401367,38.752497738913924L41.7701997756958,39.731151198488696L42.698426437377925,52.98759316220715L43.626653099060064,48.52969802479584L44.55487976074219,49.99809223596656L45.483106422424314,52.19948383043644L46.411333084106445,65.70804625639599L47.33955974578858,65.46051767239533L48.2677864074707,71.00420382193336L49.19601306915283,74.86153209726595L50.12423973083496,70.4538559233159L51.05246639251708,76.34079438091142L51.98069305419922,81.02757771135157L52.908919715881346,83.13494871693169L53.83714637756348,87.84697796810755L54.7653730392456,90.57051222548664L55.693599700927734,96.9348978098398L56.621826362609866,95.46231633265066L57.55005302429199,88.94750909757774L58.478279685974115,91.75883950233835L59.406506347656254,97.73767668705476L60.33473300933838,103.55298466697582L61.26295967102051,108.95826050303563L62.191186332702635,110.52579411818382L63.11941299438476,108.99727264890605L64.04763965606689,111.02830367873928L64.97586631774902,111.2531363399615L65.90409297943116,112.57961516666106L66.83231964111327,114.05784239578513L67.76054630279542,111.99979173814997L68.68877296447754,118.78174419280084L69.61699962615967,121.17077470522494L70.5452262878418,120.72859470888753L71.47345294952392,122.82226770883551L72.40167961120606,122.9229785137682L73.32990627288818,125.25437530852317L74.25813293457031,125.20178983404254L75.18635959625244,122.01503809717849L76.11458625793456,120.41335474001387L77.04281291961671,126.78543501377503L77.97103958129884,123.47395450228842L78.89926624298096,127.23422759706622L79.82749290466309,125.34104465791435L80.7557195663452,129.23264264749199L81.68394622802734,129.9182909912302L82.61217288970948,131.93743065605045L83.5403995513916,129.39335603350983L84.46862621307373,129.8675215669553L85.39685287475585,129.07686929441724L86.32507953643798,130.62041552103184L87.25330619812013,135.48801581917147L88.18153285980225,136.33775559050193L89.10975952148438,133.51812122560366L90.0379861831665,130.98929013328737L90.96621284484863,139.20929911584693L91.89443950653077,133.50778008997617L92.82266616821289,138.14485022223258L93.75089282989502,135.65104631587928L94.67911949157715,136.05371310586204L95.60734615325927,135.27140007941122L96.5355728149414,136.15732676824794L97.46379947662354,137.13611901922445L98.39202613830567,136.18605423601022L99.3202527999878,137.57395649136524L100.24847946166992,140.92026776369542L101.17670612335205,140.0481519955295L102.10493278503417,142.11186134328113L103.03315944671631,139.88635533085915L103.96138610839844,138.28206434201957L104.88961277008056,140.64964334948758L105.81783943176269,141.41353593405236L106.74606609344484,141.3222617682393L107.67429275512696,141.43649062046114L108.60251941680909,142.56368734203903L109.5307460784912,143.5473608160426L110.45897274017334,142.4322754085635L111.38719940185547,144.80972742472773L112.3154260635376,143.47743700213013L113.24365272521973,142.87482943596657L114.17187938690185,143.06287884713439L115.10010604858398,143.42545726978418L116.02833271026611,142.61473082052242L116.95655937194823,143.04720718072167L117.88478603363038,143.53658331083847L118.81301269531251,143.49880970179882L119.74123935699463,143.27250679267686L120.66946601867676,145.76210461383863L121.59769268035888,144.8197062912727L122.52591934204102,145.2455559501383L123.45414600372315,143.675487627611L124.38237266540527,145.5574625729737L125.3105993270874,144.62307298476716L126.23882598876952,147.3297734917936L127.16705265045167,145.3643049325031L128.09527931213378,146.67132002940696L129.0235059738159,144.93805419001046L129.95173263549805,146.98799848882572L130.87995929718016,146.24600436457854L131.8081859588623,145.62477052182302L132.73641262054443,146.79685802847354L133.66463928222655,145.32785807516814L134.5928659439087,146.56035865611742L135.52109260559084,148.5323809924457L136.44931926727295,147.7082870492797L137.37754592895507,148.14527589433277L138.3057725906372,147.50024109047735L139.23399925231934,147.36811638082003L140.16222591400145,148.54917298775803L141.0904525756836,145.31034565838496L142.01867923736572,147.53330520144462L142.94690589904783,149.28918462973718L143.87513256073,147.70160859522L144.80335922241213,147.9326903981152L145.73158588409424,147.73421163644593L146.65981254577636,149.47694351992L147.5880392074585,148.70465111505453L148.51626586914062,149.42730383413127L149.44449253082274,149.79753989594195L150.3727191925049,148.7163048880069L151.300945854187,147.55592349513398L152.22917251586912,149.87124753984918L153.15739917755127,149.14879006969352L154.08562583923342,146.98495801616912L155.01385250091553,148.9168884565694L155.94207916259768,150.02891574841712L156.8703058242798,149.54999249276815L157.7985324859619,149.65745879275048L158.72675914764403,149.9344040967288L159.65498580932618,149.5296225021671L160.5832124710083,149.95693770413914L161.5114391326904,150.9766034348271L162.43966579437256,151.31518741175336L163.36789245605468,149.97454598108536L164.2961191177368,150.0043002699808L165.22434577941897,151.46613423502293L166.15257244110109,151.01191232028768L167.0807991027832,150.95581824621914L168.00902576446535,150.86137246163673L168.93725242614747,150.06903528500558L169.86547908782958,150.7160949142685L170.7937057495117,151.42020016204066L171.72193241119385,150.81411869413964L172.65015907287597,151.0867591122676L173.57838573455808,149.41431978087923L174.50661239624026,151.29269379508594L175.43483905792237,151.29067367447172L176.3630657196045,151.73623582907763L177.29129238128664,151.31981869263748L178.21951904296876,150.49201325567344L179.14774570465087,150.97430808380602L180.075972366333,151.07646443647374L181.00419902801514,151.6825888356134L181.93242568969725,151.68692077402514L182.86065235137937,151.1062987068549L183.78887901306155,152.02271422043776L184.71710567474366,151.31477456614311L185.64533233642578,152.6747291732219L186.57355899810793,150.95925156911454L187.50178565979004,153.32076198135167L188.43001232147216,152.56670359093852L189.3582389831543,152.29880678063424L190.28646564483643,152.85806791011902L191.21469230651854,151.55387627728174L192.14291896820066,151.21766998525888L193.0711456298828,152.4528105433369L193.99937229156492,152.53371005187043L194.92759895324707,152.86055380526784L195.85582561492922,153.02456819187015L196.78405227661133,153.47440024042646" fill="none"></path></g><g><path style="fill: none;" stroke="rgb(204, 51, 17)" stroke-width="2px" d="M25.99034652709961,-43.272317365464914L26.91857318878174,13.408312690768225L27.846799850463867,20.56646747320686L28.775026512145995,24.42606345889999L29.703253173828127,27.136899479218748L30.631479835510255,31.196562094312867L31.55970649719238,13.823275457985956L32.48793315887451,-6.229334493276249L33.416159820556636,42.39258688937678L34.34438648223877,52.85076836406399L35.2726131439209,54.98210558660791L36.20083980560303,62.20701197609059L37.129066467285156,62.43096954576293L38.05729312896728,63.628264158604615L38.98551979064942,78.9975676216599L39.913746452331544,75.51754024334575L40.84197311401367,86.26110977355066L41.7701997756958,92.26412489092847L42.698426437377925,90.55166011881722L43.626653099060064,91.22169795845532L44.55487976074219,102.74167599954582L45.483106422424314,96.42376906799699L46.411333084106445,90.30694500119748L47.33955974578858,106.28727878658425L48.2677864074707,112.8970946171356L49.19601306915283,108.31789108981563L50.12423973083496,115.58820814402831L51.05246639251708,114.6550171019096L51.98069305419922,117.9030605332173L52.908919715881346,121.09450059658396L53.83714637756348,119.2696783037776L54.7653730392456,123.21981333133398L55.693599700927734,122.89420164567649L56.621826362609866,124.78744339474436L57.55005302429199,122.28640351632778L58.478279685974115,124.44122706692103L59.406506347656254,128.4311175976859L60.33473300933838,129.6265161788361L61.26295967102051,134.72531001871133L62.191186332702635,129.25322376569147L63.11941299438476,130.97963119268536L64.04763965606689,133.53848592331232L64.97586631774902,135.15985413555674L65.90409297943116,135.8296637927208L66.83231964111327,135.7417735494737L67.76054630279542,135.35463492970862L68.68877296447754,136.3334248282885L69.61699962615967,137.35594342800107L70.5452262878418,137.82010892333176L71.47345294952392,137.98228079526612L72.40167961120606,139.02328452777235L73.32990627288818,138.99942299245902L74.25813293457031,138.20871896719487L75.18635959625244,135.64931495195256L76.11458625793456,142.1774708617567L77.04281291961671,142.77521367166963L77.97103958129884,140.37005865647967L78.89926624298096,142.04699165354873L79.82749290466309,142.5113465168089L80.7557195663452,141.25279079067988L81.68394622802734,141.4626375091098L82.61217288970948,140.00175685280584L83.5403995513916,143.05893858276315L84.46862621307373,144.6385658690353L85.39685287475585,142.76670387682603L86.32507953643798,144.29355867308468L87.25330619812013,142.8404632734593L88.18153285980225,147.31912066361136L89.10975952148438,145.96342036585523L90.0379861831665,143.92545329453026L90.96621284484863,143.78261224198144L91.89443950653077,146.7328022679784L92.82266616821289,148.4753012641852L93.75089282989502,148.77732958543194L94.67911949157715,147.0400629074507L95.60734615325927,147.70570176537285L96.5355728149414,146.49600766984403L97.46379947662354,148.54297795120775L98.39202613830567,147.72593237647303L99.3202527999878,148.69495982899872L100.24847946166992,149.02937300668307L101.17670612335205,147.69737780986375L102.10493278503417,149.65646372897194L103.03315944671631,150.3452272339601L103.96138610839844,150.26498110359321L104.88961277008056,148.86306915005133L105.81783943176269,149.0268130110401L106.74606609344484,150.54210107302202L107.67429275512696,150.61941964577096L108.60251941680909,147.44227098008875L109.5307460784912,148.9146895538106L110.45897274017334,149.96356558167108L111.38719940185547,150.67491327059727L112.3154260635376,150.34088941455676L113.24365272521973,149.57917279688354L114.17187938690185,150.53876537458714L115.10010604858398,151.36428251772008L116.02833271026611,151.47917592199263L116.95655937194823,151.68435842598552L117.88478603363038,149.56721203616974L118.81301269531251,148.8035394006907L119.74123935699463,150.5444693483389L120.66946601867676,150.68990391818284L121.59769268035888,151.2771015220598L122.52591934204102,152.1326658274698L123.45414600372315,152.2402803284404L124.38237266540527,151.5633164449963L125.3105993270874,152.7089147892871L126.23882598876952,152.43891258399043L127.16705265045167,152.2752663474622L128.09527931213378,151.96913132978196L129.0235059738159,153.70797675995792L129.95173263549805,153.5243110399279L130.87995929718016,152.92460780146547L131.8081859588623,151.85137917549315L132.73641262054443,152.61396265132802L133.66463928222655,154.16908796230172L134.5928659439087,153.4231694523606L135.52109260559084,153.89061654100348L136.44931926727295,153.364423051081L137.37754592895507,152.39801322791592L138.3057725906372,153.1960299721837L139.23399925231934,152.24128715420215L140.16222591400145,153.62952433202872L141.0904525756836,154.49148892059577L142.01867923736572,153.9553306785081L142.94690589904783,152.84446811704655L143.87513256073,154.76781730855538L144.80335922241213,152.4630963976434L145.73158588409424,153.22437841003745L146.65981254577636,153.88392367851435L147.5880392074585,152.36977976344798L148.51626586914062,153.88986524432673L149.44449253082274,153.07658526851276L150.3727191925049,153.43031103450872L151.300945854187,154.28968651652437L152.22917251586912,154.2151922899908L153.15739917755127,154.38645558683788L154.08562583923342,153.3312824872229L155.01385250091553,155.17146269554019L155.94207916259768,154.24343192949993L156.8703058242798,154.57125280965153L157.7985324859619,154.8811569548475L158.72675914764403,154.71779535831269L159.65498580932618,154.039845526627L160.5832124710083,155.28893726702552L161.5114391326904,154.7208943468357L162.43966579437256,153.8208494555171L163.36789245605468,153.99111915883356L164.2961191177368,154.87085698616121L165.22434577941897,153.63354575408403L166.15257244110109,154.9405182137988L167.0807991027832,155.0599476268916L168.00902576446535,154.8924440479737L168.93725242614747,155.70977940856943L169.86547908782958,155.04180859045357L170.7937057495117,154.83281755630125L171.72193241119385,155.45296473883414L172.65015907287597,155.1871081915403L173.57838573455808,155.86075328440037L174.50661239624026,155.53082715628116L175.43483905792237,155.97225850238803L176.3630657196045,154.8272926587437L177.29129238128664,156.06772684438468L178.21951904296876,155.8789921506708L179.14774570465087,155.86092280398321L180.075972366333,155.85832267057253L181.00419902801514,155.81867743595652L181.93242568969725,156.3040145010432L182.86065235137937,156.2041314456781L183.78887901306155,156.20190034449027L184.71710567474366,155.87186174240674L185.64533233642578,154.93403471461062L186.57355899810793,155.67972357182978L187.50178565979004,154.59163162174L188.43001232147216,154.38024378946156L189.3582389831543,155.89036598842307L190.28646564483643,155.65169476586948L191.21469230651854,154.60654905098016L192.14291896820066,154.3525822514266L193.0711456298828,156.16307050935941L193.99937229156492,154.16575520436263L194.92759895324707,155.79393419297773L195.85582561492922,155.71432556210019L196.78405227661133,155.25481281327296L197.71227893829345,155.75791650100467L198.6405055999756,154.24719870461902L199.56873226165771,153.70914472488946L200.49695892333983,155.44073198225885L201.42518558502198,155.20362583859452L202.3534122467041,154.99615504077053L203.2816389083862,154.15981128615363L204.20986557006833,156.31242226068258L205.1380922317505,155.32143709684888L206.06631889343262,155.87761805698372L206.99454555511474,155.21949451822582L207.9227722167969,156.22819675735033L208.850998878479,156.65147171809392L209.77922554016112,156.49135834024395L210.70745220184327,156.15052179651047L211.63567886352538,156.1578187838616L212.5639055252075,155.38253030782607L213.49213218688968,155.1959332075336L214.4203588485718,155.89108758609223L215.3485855102539,156.49427046025895L216.27681217193603,156.02729546821666L217.20503883361818,155.28800895250163L218.1332654953003,156.999178583238L219.0614921569824,157.082698294066L219.98971881866456,156.6694987951544L220.91794548034667,156.1246996856229L221.8461721420288,156.00987258953057L222.77439880371094,156.42004955280993L223.70262546539308,156.74258717064626L224.6308521270752,155.4139690597402L225.55907878875735,155.74673805919832L226.48730545043946,156.519789847104L227.41553211212158,156.4896891678034L228.3437587738037,156.10045044593838L229.27198543548585,156.22230723831362L230.20021209716796,156.43827107015514L231.12843875885008,156.32812406717724L232.05666542053223,156.86102063781178L232.98489208221434,156.06861090444676L233.91311874389646,155.889715697777L234.84134540557864,156.71521380119964L235.76957206726075,156.98593716309114L236.69779872894287,157.0850294456234L237.62602539062502,156.21879952087446L238.55425205230713,156.46974304967182L239.48247871398925,156.72530227472555L240.41070537567137,155.62170464921093L241.33893203735352,156.92252463605212L242.26715869903563,156.81522337139654L243.19538536071775,156.89464748616268L244.12361202239993,157.33136260781302L245.05183868408204,157.33423234793227L245.98006534576416,157.24813654224678L246.9082920074463,156.87596372287777L247.83651866912842,156.57027801295567L248.76474533081054,156.66492852955813L249.69297199249266,157.47494940685274L250.6211986541748,157.17117847428287L251.54942531585692,157.00595730820447L252.47765197753904,156.72819101779893L253.4058786392212,156.7279718773495L254.33410530090333,157.03339735339333L255.26233196258545,156.586266370766" fill="none"></path></g></g></g></g></g></g><g transform="translate(51, 177)" clip-path="url(#clip_1)"><clipPath id="clip_1"><rect width="278" height="22"></rect></clipPath><g><g><line x1="0" y1="0" x2="0" y2="5" style="visibility: inherit;" fill="rgb(0, 0, 0)" stroke="rgb(204, 204, 204)" stroke-width="1px"></line><line x1="23.205666542053223" y1="0" x2="23.205666542053223" y2="5" style="visibility: inherit;" fill="rgb(0, 0, 0)" stroke="rgb(204, 204, 204)" stroke-width="1px"></line><line x1="46.411333084106445" y1="0" x2="46.411333084106445" y2="5" style="visibility: inherit;" fill="rgb(0, 0, 0)" stroke="rgb(204, 204, 204)" stroke-width="1px"></line><line x1="69.61699962615967" y1="0" x2="69.61699962615967" y2="5" style="visibility: inherit;" fill="rgb(0, 0, 0)" stroke="rgb(204, 204, 204)" stroke-width="1px"></line><line x1="92.82266616821289" y1="0" x2="92.82266616821289" y2="5" style="visibility: inherit;" fill="rgb(0, 0, 0)" stroke="rgb(204, 204, 204)" stroke-width="1px"></line><line x1="116.02833271026611" y1="0" x2="116.02833271026611" y2="5" style="visibility: inherit;" fill="rgb(0, 0, 0)" stroke="rgb(204, 204, 204)" stroke-width="1px"></line><line x1="139.23399925231934" y1="0" x2="139.23399925231934" y2="5" style="visibility: inherit;" fill="rgb(0, 0, 0)" stroke="rgb(204, 204, 204)" stroke-width="1px"></line><line x1="162.43966579437256" y1="0" x2="162.43966579437256" y2="5" style="visibility: inherit;" fill="rgb(0, 0, 0)" stroke="rgb(204, 204, 204)" stroke-width="1px"></line><line x1="185.64533233642578" y1="0" x2="185.64533233642578" y2="5" style="visibility: inherit;" fill="rgb(0, 0, 0)" stroke="rgb(204, 204, 204)" stroke-width="1px"></line><line x1="208.850998878479" y1="0" x2="208.850998878479" y2="5" style="visibility: inherit;" fill="rgb(0, 0, 0)" stroke="rgb(204, 204, 204)" stroke-width="1px"></line><line x1="232.05666542053223" y1="0" x2="232.05666542053223" y2="5" style="visibility: inherit;" fill="rgb(0, 0, 0)" stroke="rgb(204, 204, 204)" stroke-width="1px"></line><line x1="255.26233196258545" y1="0" x2="255.26233196258545" y2="5" style="visibility: inherit;" fill="rgb(0, 0, 0)" stroke="rgb(204, 204, 204)" stroke-width="1px"></line><line x1="278.4679985046387" y1="0" x2="278.4679985046387" y2="5" style="visibility: inherit;" fill="rgb(0, 0, 0)" stroke="rgb(204, 204, 204)" stroke-width="1px"></line></g><g transform="translate(0, 8)"><text style="text-anchor: middle; visibility: hidden; font-family: Roboto, sans-serif; font-size: 12px; font-weight: 200;" x="0" y="0" dx="0em" dy="0.95em" fill="rgb(50, 49, 63)" stroke="none" stroke-width="1px">-500</text><text style="text-anchor: middle; visibility: inherit; font-family: Roboto, sans-serif; font-size: 12px; font-weight: 200;" x="23.205666542053223" y="0" dx="0em" dy="0.95em" fill="rgb(50, 49, 63)" stroke="none" stroke-width="1px">0</text><text style="text-anchor: middle; visibility: inherit; font-family: Roboto, sans-serif; font-size: 12px; font-weight: 200;" x="46.411333084106445" y="0" dx="0em" dy="0.95em" fill="rgb(50, 49, 63)" stroke="none" stroke-width="1px">500</text><text style="text-anchor: middle; visibility: inherit; font-family: Roboto, sans-serif; font-size: 12px; font-weight: 200;" x="69.61699962615967" y="0" dx="0em" dy="0.95em" fill="rgb(50, 49, 63)" stroke="none" stroke-width="1px">1k</text><text style="text-anchor: middle; visibility: inherit; font-family: Roboto, sans-serif; font-size: 12px; font-weight: 200;" x="92.82266616821289" y="0" dx="0em" dy="0.95em" fill="rgb(50, 49, 63)" stroke="none" stroke-width="1px">1.5k</text><text style="text-anchor: middle; visibility: inherit; font-family: Roboto, sans-serif; font-size: 12px; font-weight: 200;" x="116.02833271026611" y="0" dx="0em" dy="0.95em" fill="rgb(50, 49, 63)" stroke="none" stroke-width="1px">2k</text><text style="text-anchor: middle; visibility: inherit; font-family: Roboto, sans-serif; font-size: 12px; font-weight: 200;" x="139.23399925231934" y="0" dx="0em" dy="0.95em" fill="rgb(50, 49, 63)" stroke="none" stroke-width="1px">2.5k</text><text style="text-anchor: middle; visibility: inherit; font-family: Roboto, sans-serif; font-size: 12px; font-weight: 200;" x="162.43966579437256" y="0" dx="0em" dy="0.95em" fill="rgb(50, 49, 63)" stroke="none" stroke-width="1px">3k</text><text style="text-anchor: middle; visibility: inherit; font-family: Roboto, sans-serif; font-size: 12px; font-weight: 200;" x="185.64533233642578" y="0" dx="0em" dy="0.95em" fill="rgb(50, 49, 63)" stroke="none" stroke-width="1px">3.5k</text><text style="text-anchor: middle; visibility: inherit; font-family: Roboto, sans-serif; font-size: 12px; font-weight: 200;" x="208.850998878479" y="0" dx="0em" dy="0.95em" fill="rgb(50, 49, 63)" stroke="none" stroke-width="1px">4k</text><text style="text-anchor: middle; visibility: inherit; font-family: Roboto, sans-serif; font-size: 12px; font-weight: 200;" x="232.05666542053223" y="0" dx="0em" dy="0.95em" fill="rgb(50, 49, 63)" stroke="none" stroke-width="1px">4.5k</text><text style="text-anchor: middle; visibility: inherit; font-family: Roboto, sans-serif; font-size: 12px; font-weight: 200;" x="255.26233196258545" y="0" dx="0em" dy="0.95em" fill="rgb(50, 49, 63)" stroke="none" stroke-width="1px">5k</text><text style="text-anchor: middle; visibility: hidden; font-family: Roboto, sans-serif; font-size: 12px; font-weight: 200;" x="278.4679985046387" y="0" dx="0em" dy="0.95em" fill="rgb(50, 49, 63)" stroke="none" stroke-width="1px">5.5k</text></g><line x1="0" y1="0" x2="278.4679985046387" y2="0" fill="rgb(0, 0, 0)" stroke="rgb(204, 204, 204)" stroke-width="1px"></line></g></g></g></g></svg>