<svg viewBox="0 0 330 200" xmlns="http://www.w3.org/2000/svg"><g><g><g><g><g><line x1="51.53200149536133" y1="177.5999994277954" x2="46.53200149536133" y2="177.5999994277954" style="visibility: inherit;" fill="rgb(0, 0, 0)" stroke="rgb(204, 204, 204)" stroke-width="1px"></line><line x1="51.53200149536133" y1="164.91428518295288" x2="46.53200149536133" y2="164.91428518295288" style="visibility: inherit;" fill="rgb(0, 0, 0)" stroke="rgb(204, 204, 204)" stroke-width="1px"></line><line x1="51.53200149536133" y1="152.22857093811035" x2="46.53200149536133" y2="152.22857093811035" style="visibility: inherit;" fill="rgb(0, 0, 0)" stroke="rgb(204, 204, 204)" stroke-width="1px"></line><line x1="51.53200149536133" y1="139.54285669326782" x2="46.53200149536133" y2="139.54285669326782" style="visibility: inherit;" fill="rgb(0, 0, 0)" stroke="rgb(204, 204, 204)" stroke-width="1px"></line><line x1="51.53200149536133" y1="126.8571424484253" x2="46.53200149536133" y2="126.8571424484253" style="visibility: inherit;" fill="rgb(0, 0, 0)" stroke="rgb(204, 204, 204)" stroke-width="1px"></line><line x1="51.53200149536133" y1="114.17142820358275" x2="46.53200149536133" y2="114.17142820358275" style="visibility: inherit;" fill="rgb(0, 0, 0)" stroke="rgb(204, 204, 204)" stroke-width="1px"></line><line x1="51.53200149536133" y1="101.48571395874023" x2="46.53200149536133" y2="101.48571395874023" style="visibility: inherit;" fill="rgb(0, 0, 0)" stroke="rgb(204, 204, 204)" stroke-width="1px"></line><line x1="51.53200149536133" y1="88.7999997138977" x2="46.53200149536133" y2="88.7999997138977" style="visibility: inherit;" fill="rgb(0, 0, 0)" stroke="rgb(204, 204, 204)" stroke-width="1px"></line><line x1="51.53200149536133" y1="76.11428546905518" x2="46.53200149536133" y2="76.11428546905518" style="visibility: inherit;" fill="rgb(0, 0, 0)" stroke="rgb(204, 204, 204)" stroke-width="1px"></line><line x1="51.53200149536133" y1="63.42857122421264" x2="46.53200149536133" y2="63.42857122421264" style="visibility: inherit;" fill="rgb(0, 0, 0)" stroke="rgb(204, 204, 204)" stroke-width="1px"></line><line x1="51.53200149536133" y1="50.74285697937012" x2="46.53200149536133" y2="50.74285697937012" style="visibility: inherit;" fill="rgb(0, 0, 0)" stroke="rgb(204, 204, 204)" stroke-width="1px"></line><line x1="51.53200149536133" y1="38.05714273452759" x2="46.53200149536133" y2="38.05714273452759" style="visibility: inherit;" fill="rgb(0, 0, 0)" stroke="rgb(204, 204, 204)" stroke-width="1px"></line><line x1="51.53200149536133" y1="25.371428489685066" x2="46.53200149536133" y2="25.371428489685066" style="visibility: inherit;" fill="rgb(0, 0, 0)" stroke="rgb(204, 204, 204)" stroke-width="1px"></line><line x1="51.53200149536133" y1="12.685714244842524" x2="46.53200149536133" y2="12.685714244842524" style="visibility: inherit;" fill="rgb(0, 0, 0)" stroke="rgb(204, 204, 204)" stroke-width="1px"></line><line x1="51.53200149536133" y1="0" x2="46.53200149536133" y2="0" style="visibility: inherit;" fill="rgb(0, 0, 0)" stroke="rgb(204, 204, 204)" stroke-width="1px"></line></g><g transform="translate(41.53200149536133, 0)"><text style="text-anchor: end; visibility: hidden; font-family: Roboto, sans-serif; font-size: 12px; font-weight: 200;" x="0" y="177.5999994277954" dx="0em" dy="0.3em" fill="rgb(50, 49, 63)" stroke="none" stroke-width="1px">-0.5</text><text style="text-anchor: end; visibility: inherit; font-family: Roboto, sans-serif; font-size: 12px; font-weight: 200;" x="0" y="164.91428518295288" dx="0em" dy="0.3em" fill="rgb(50, 49, 63)" stroke="none" stroke-width="1px">0</text><text style="text-anchor: end; visibility: hidden; font-family: Roboto, sans-serif; font-size: 12px; font-weight: 200;" x="0" y="152.22857093811035" dx="0em" dy="0.3em" fill="rgb(50, 49, 63)" stroke="none" stroke-width="1px">0.5</text><text style="text-anchor: end; visibility: inherit; font-family: Roboto, sans-serif; font-size: 12px; font-weight: 200;" x="0" y="139.54285669326782" dx="0em" dy="0.3em" fill="rgb(50, 49, 63)" stroke="none" stroke-width="1px">1</text><text style="text-anchor: end; visibility: hidden; font-family: Roboto, sans-serif; font-size: 12px; font-weight: 200;" x="0" y="126.8571424484253" dx="0em" dy="0.3em" fill="rgb(50, 49, 63)" stroke="none" stroke-width="1px">1.5</text><text style="text-anchor: end; visibility: inherit; font-family: Roboto, sans-serif; font-size: 12px; font-weight: 200;" x="0" y="114.17142820358275" dx="0em" dy="0.3em" fill="rgb(50, 49, 63)" stroke="none" stroke-width="1px">2</text><text style="text-anchor: end; visibility: hidden; font-family: Roboto, sans-serif; font-size: 12px; font-weight: 200;" x="0" y="101.48571395874023" dx="0em" dy="0.3em" fill="rgb(50, 49, 63)" stroke="none" stroke-width="1px">2.5</text><text style="text-anchor: end; visibility: inherit; font-family: Roboto, sans-serif; font-size: 12px; font-weight: 200;" x="0" y="88.7999997138977" dx="0em" dy="0.3em" fill="rgb(50, 49, 63)" stroke="none" stroke-width="1px">3</text><text style="text-anchor: end; visibility: hidden; font-family: Roboto, sans-serif; font-size: 12px; font-weight: 200;" x="0" y="76.11428546905518" dx="0em" dy="0.3em" fill="rgb(50, 49, 63)" stroke="none" stroke-width="1px">3.5</text><text style="text-anchor: end; visibility: inherit; font-family: Roboto, sans-serif; font-size: 12px; font-weight: 200;" x="0" y="63.42857122421264" dx="0em" dy="0.3em" fill="rgb(50, 49, 63)" stroke="none" stroke-width="1px">4</text><text style="text-anchor: end; visibility: hidden; font-family: Roboto, sans-serif; font-size: 12px; font-weight: 200;" x="0" y="50.74285697937012" dx="0em" dy="0.3em" fill="rgb(50, 49, 63)" stroke="none" stroke-width="1px">4.5</text><text style="text-anchor: end; visibility: inherit; font-family: Roboto, sans-serif; font-size: 12px; font-weight: 200;" x="0" y="38.05714273452759" dx="0em" dy="0.3em" fill="rgb(50, 49, 63)" stroke="none" stroke-width="1px">5</text><text style="text-anchor: end; visibility: hidden; font-family: Roboto, sans-serif; font-size: 12px; font-weight: 200;" x="0" y="25.371428489685066" dx="0em" dy="0.3em" fill="rgb(50, 49, 63)" stroke="none" stroke-width="1px">5.5</text><text style="text-anchor: end; visibility: inherit; font-family: Roboto, sans-serif; font-size: 12px; font-weight: 200;" x="0" y="12.685714244842524" dx="0em" dy="0.3em" fill="rgb(50, 49, 63)" stroke="none" stroke-width="1px">6</text><text style="text-anchor: end; visibility: hidden; font-family: Roboto, sans-serif; font-size: 12px; font-weight: 200;" x="0" y="0" dx="0em" dy="0.3em" fill="rgb(50, 49, 63)" stroke="none" stroke-width="1px">6.5</text></g><line x1="51.53200149536133" y1="0" x2="51.53200149536133" y2="177.5999994277954" fill="rgb(0, 0, 0)" stroke="rgb(204, 204, 204)" stroke-width="1px"></line></g></g><g transform="translate(51, 0)" clip-path="url(#clip_0)"><clipPath id="clip_0"><rect width="278" height="177"></rect></clipPath><g><g><g><line x1="0" y1="0" x2="0" y2="177.5999994277954" fill="rgb(0, 0, 0)" stroke="rgb(60, 60, 60)" stroke-width="1px" opacity="0.25"></line><line x1="23.205666542053223" y1="0" x2="23.205666542053223" y2="177.5999994277954" fill="rgb(0, 0, 0)" stroke="rgb(60, 60, 60)" stroke-width="1px" opacity="0.25"></line><line x1="46.411333084106445" y1="0" x2="46.411333084106445" y2="177.5999994277954" fill="rgb(0, 0, 0)" stroke="rgb(60, 60, 60)" stroke-width="1px" opacity="0.25"></line><line x1="69.61699962615967" y1="0" x2="69.61699962615967" y2="177.5999994277954" fill="rgb(0, 0, 0)" stroke="rgb(60, 60, 60)" stroke-width="1px" opacity="0.25"></line><line x1="92.82266616821289" y1="0" x2="92.82266616821289" y2="177.5999994277954" fill="rgb(0, 0, 0)" stroke="rgb(60, 60, 60)" stroke-width="1px" opacity="0.25"></line><line x1="116.02833271026611" y1="0" x2="116.02833271026611" y2="177.5999994277954" fill="rgb(0, 0, 0)" stroke="rgb(60, 60, 60)" stroke-width="1px" opacity="0.25"></line><line x1="139.23399925231934" y1="0" x2="139.23399925231934" y2="177.5999994277954" fill="rgb(0, 0, 0)" stroke="rgb(60, 60, 60)" stroke-width="1px" opacity="0.25"></line><line x1="162.43966579437256" y1="0" x2="162.43966579437256" y2="177.5999994277954" fill="rgb(0, 0, 0)" stroke="rgb(60, 60, 60)" stroke-width="1px" opacity="0.25"></line><line x1="185.64533233642578" y1="0" x2="185.64533233642578" y2="177.5999994277954" fill="rgb(0, 0, 0)" stroke="rgb(60, 60, 60)" stroke-width="1px" opacity="0.25"></line><line x1="208.850998878479" y1="0" x2="208.850998878479" y2="177.5999994277954" fill="rgb(0, 0, 0)" stroke="rgb(60, 60, 60)" stroke-width="1px" opacity="0.25"></line><line x1="232.05666542053223" y1="0" x2="232.05666542053223" y2="177.5999994277954" fill="rgb(0, 0, 0)" stroke="rgb(60, 60, 60)" stroke-width="1px" opacity="0.25"></line><line x1="255.26233196258545" y1="0" x2="255.26233196258545" y2="177.5999994277954" fill="rgb(0, 0, 0)" stroke="rgb(60, 60, 60)" stroke-width="1px" opacity="0.25"></line><line x1="278.4679985046387" y1="0" x2="278.4679985046387" y2="177.5999994277954" fill="rgb(0, 0, 0)" stroke="rgb(60, 60, 60)" stroke-width="1px" opacity="0.25"></line></g><g><line x1="0" y1="177.5999994277954" x2="278.4679985046387" y2="177.5999994277954" fill="rgb(0, 0, 0)" stroke="rgb(60, 60, 60)" stroke-width="1px" opacity="0.25"></line><line x1="0" y1="164.91428518295288" x2="278.4679985046387" y2="164.91428518295288" fill="rgb(0, 0, 0)" stroke="rgb(60, 60, 60)" stroke-width="1px" opacity="0.25"></line><line x1="0" y1="152.22857093811035" x2="278.4679985046387" y2="152.22857093811035" fill="rgb(0, 0, 0)" stroke="rgb(60, 60, 60)" stroke-width="1px" opacity="0.25"></line><line x1="0" y1="139.54285669326782" x2="278.4679985046387" y2="139.54285669326782" fill="rgb(0, 0, 0)" stroke="rgb(60, 60, 60)" stroke-width="1px" opacity="0.25"></line><line x1="0" y1="126.8571424484253" x2="278.4679985046387" y2="126.8571424484253" fill="rgb(0, 0, 0)" stroke="rgb(60, 60, 60)" stroke-width="1px" opacity="0.25"></line><line x1="0" y1="114.17142820358275" x2="278.4679985046387" y2="114.17142820358275" fill="rgb(0, 0, 0)" stroke="rgb(60, 60, 60)" stroke-width="1px" opacity="0.25"></line><line x1="0" y1="101.48571395874023" x2="278.4679985046387" y2="101.48571395874023" fill="rgb(0, 0, 0)" stroke="rgb(60, 60, 60)" stroke-width="1px" opacity="0.25"></line><line x1="0" y1="88.7999997138977" x2="278.4679985046387" y2="88.7999997138977" fill="rgb(0, 0, 0)" stroke="rgb(60, 60, 60)" stroke-width="1px" opacity="0.25"></line><line x1="0" y1="76.11428546905518" x2="278.4679985046387" y2="76.11428546905518" fill="rgb(0, 0, 0)" stroke="rgb(60, 60, 60)" stroke-width="1px" opacity="0.25"></line><line x1="0" y1="63.42857122421264" x2="278.4679985046387" y2="63.42857122421264" fill="rgb(0, 0, 0)" stroke="rgb(60, 60, 60)" stroke-width="1px" opacity="0.25"></line><line x1="0" y1="50.74285697937012" x2="278.4679985046387" y2="50.74285697937012" fill="rgb(0, 0, 0)" stroke="rgb(60, 60, 60)" stroke-width="1px" opacity="0.25"></line><line x1="0" y1="38.05714273452759" x2="278.4679985046387" y2="38.05714273452759" fill="rgb(0, 0, 0)" stroke="rgb(60, 60, 60)" stroke-width="1px" opacity="0.25"></line><line x1="0" y1="25.371428489685066" x2="278.4679985046387" y2="25.371428489685066" fill="rgb(0, 0, 0)" stroke="rgb(60, 60, 60)" stroke-width="1px" opacity="0.25"></line><line x1="0" y1="12.685714244842524" x2="278.4679985046387" y2="12.685714244842524" fill="rgb(0, 0, 0)" stroke="rgb(60, 60, 60)" stroke-width="1px" opacity="0.25"></line><line x1="0" y1="0" x2="278.4679985046387" y2="0" fill="rgb(0, 0, 0)" stroke="rgb(60, 60, 60)" stroke-width="1px" opacity="0.25"></line></g></g></g><g><g><line x1="0" y1="164.91428518295288" x2="278.4679985046387" y2="164.91428518295288" fill="rgb(0, 0, 0)" stroke="rgb(153, 153, 153)" stroke-width="1.5px"></line></g></g><g><g><line x1="23.205666542053223" y1="0" x2="23.205666542053223" y2="177.5999994277954" fill="rgb(0, 0, 0)" stroke="rgb(153, 153, 153)" stroke-width="1.5px"></line></g></g><g><g><g><g><g><path style="fill: none;" stroke="rgb(0, 119, 187)" stroke-width="2px" d="M28.775026512145995,-3.648216929374592L29.703253173828127,2.7662902564523857L30.631479835510255,-5.684465549687281L31.55970649719238,-1.7632185306461163L32.48793315887451,0.4868087964217214L33.416159820556636,9.933338681056023L34.34438648223877,16.31173690839425L35.2726131439209,22.85790987170243L36.20083980560303,30.024889445497188L37.129066467285156,42.95824627411585L38.05729312896728,52.700907981354305L38.98551979064942,61.49795656612345L39.913746452331544,67.25792921808952L40.84197311401367,74.07203325082298L41.7701997756958,73.8526499447858L42.698426437377925,80.55155978848698L43.626653099060064,86.78733413351773L44.55487976074219,94.11477388845034L45.483106422424314,98.08151853861544L46.411333084106445,98.76563989243596L47.33955974578858,103.80811983577803L48.2677864074707,103.57650529754913L49.19601306915283,107.3591540255116L50.12423973083496,111.29968771111976L51.05246639251708,113.22380560858393L51.98069305419922,116.7446795844697L52.908919715881346,119.32598592039068L53.83714637756348,122.809580178096L54.7653730392456,125.84797862980628L55.693599700927734,126.64358920203914L56.621826362609866,127.49837688218895L57.55005302429199,128.84981060529495L58.478279685974115,129.42745813083903L59.406506347656254,130.18231435784645L60.33473300933838,131.55861340611213L61.26295967102051,131.26664162326475L62.191186332702635,131.67052881213192L63.11941299438476,133.64855601623913L64.04763965606689,135.57633735648986L64.97586631774902,135.2221920543933L65.90409297943116,138.06201250459517L66.83231964111327,139.6007266070162L67.76054630279542,139.46684286306325L68.68877296447754,139.8593197418995L69.61699962615967,139.67718274301416L70.5452262878418,140.93379344002614L71.47345294952392,141.3935167768595L72.40167961120606,143.01466672420224L73.32990627288818,144.29695158165904L74.25813293457031,144.78045730736497L75.18635959625244,145.1249426417657L76.11458625793456,145.72867880768834L77.04281291961671,145.59708698876108L77.97103958129884,145.8811831853847L78.89926624298096,146.7756674556788L79.82749290466309,147.19774360782415L80.7557195663452,147.86641179184377L81.68394622802734,149.02029588159323L82.61217288970948,148.16708722560654L83.5403995513916,147.965067840691L84.46862621307373,149.05455182133693L85.39685287475585,149.41075201445494L86.32507953643798,150.6344461380842L87.25330619812013,151.04218127917235L88.18153285980225,150.89652084596128L89.10975952148438,150.35845384926643L90.0379861831665,149.56194212109838L90.96621284484863,149.95923208869328L91.89443950653077,150.82672833807985L92.82266616821289,150.6480392308336L93.75089282989502,151.85486706888412L94.67911949157715,152.15583664229678L95.60734615325927,151.9945822210639L96.5355728149414,152.86430930807788L97.46379947662354,152.63586898352793L98.39202613830567,153.3859634277548L99.3202527999878,153.51900547739237L100.24847946166992,153.32057458057773L101.17670612335205,154.40736064255108L102.10493278503417,154.18010833139192L103.03315944671631,154.00202899051132L103.96138610839844,154.44531766971988L104.88961277008056,154.54329900799607L105.81783943176269,154.1032463088807L106.74606609344484,153.93503600432317L107.67429275512696,154.3457946027857L108.60251941680909,154.739608121679L109.5307460784912,155.13772475585696L110.45897274017334,154.73157413090232L111.38719940185547,155.45230955096594L112.3154260635376,156.01206845733984L113.24365272521973,156.42486733467743L114.17187938690185,155.44340698281528L115.10010604858398,155.86927564147553L116.02833271026611,155.55646116912146L116.95655937194823,155.5373393143024L117.88478603363038,155.63188858353308L118.81301269531251,155.69351361690107L119.74123935699463,156.40473477972546L120.66946601867676,156.3726998250242L121.59769268035888,156.71012211092028L122.52591934204102,157.14005190144636L123.45414600372315,156.85886062937547L124.38237266540527,156.58939580978205L125.3105993270874,156.65896490094096L126.23882598876952,156.5938649362156L127.16705265045167,157.14265839263763L128.09527931213378,157.2183831421909L129.0235059738159,157.67333422159538L129.95173263549805,158.1942428542682L130.87995929718016,157.35327849566806L131.8081859588623,157.7182434709769L132.73641262054443,157.73608951897015L133.66463928222655,158.01929914415462L134.5928659439087,157.8380711461352L135.52109260559084,158.2747681229667L136.44931926727295,158.48169032328553L137.37754592895507,158.91284728361623L138.3057725906372,157.9841250477446L139.23399925231934,158.4190301787157L140.16222591400145,158.33952413228786L141.0904525756836,158.63601442645498L142.01867923736572,158.3797956972167L142.94690589904783,158.77347460135357L143.87513256073,158.38157848118783L144.80335922241213,157.89440839369294L145.73158588409424,158.6640384056457L146.65981254577636,159.12853030560908L147.5880392074585,159.38246922662043L148.51626586914062,159.02261427447232L149.44449253082274,158.92328678635886L150.3727191925049,158.84753305880596L151.300945854187,159.74192702972593L152.22917251586912,159.48767991595298L153.15739917755127,159.56227975612094L154.08562583923342,160.10672288342607L155.01385250091553,160.02807508673322L155.94207916259768,159.99935875455512L156.8703058242798,160.1382276951868L157.7985324859619,159.8645805148022L158.72675914764403,159.6191355706224L159.65498580932618,159.78785428272292L160.5832124710083,159.82982900829515L161.5114391326904,159.97371073722053L162.43966579437256,159.58041736984273L163.36789245605468,159.84487782682723L164.2961191177368,159.93269981341749L165.22434577941897,160.39145161525198L166.15257244110109,160.68227499081024L167.0807991027832,160.67182446609056L168.00902576446535,160.6126832974601L168.93725242614747,160.55752264670355L169.86547908782958,160.401875229619L170.7937057495117,160.6359305115286L171.72193241119385,160.83247076013578L172.65015907287597,160.33028704119604L173.57838573455808,160.48969058316516L174.50661239624026,160.75097786031367L175.43483905792237,160.71538897321165L176.3630657196045,161.16281283346322L177.29129238128664,161.06932139563918L178.21951904296876,160.7673489953284L179.14774570465087,159.94028054473247L180.075972366333,160.038241053598L181.00419902801514,160.39533294295634L181.93242568969725,160.6122653727925L182.86065235137937,160.15460950426254L183.78887901306155,160.229448053977L184.71710567474366,160.13129821392528L185.64533233642578,160.97620961738534L186.57355899810793,161.02160232603458L187.50178565979004,160.98003624731155L188.43001232147216,161.50430609834856L189.3582389831543,161.85817537221803L190.28646564483643,161.64403921674844L191.21469230651854,161.38782536004024L192.14291896820066,161.29915425536558L193.0711456298828,161.33741156410275L193.99937229156492,161.57124726021848L194.92759895324707,161.49581151626543L195.85582561492922,161.371207797527L196.78405227661133,161.3290343587074" fill="none"></path></g><g><path style="fill: none;" stroke="rgb(204, 51, 17)" stroke-width="2px" d="M28.775026512145995,-6.093849581662339L29.703253173828127,1.1847050391446847L30.631479835510255,8.191455301889349L31.55970649719238,10.217762852403183L32.48793315887451,7.696918914492945L33.416159820556636,21.628094787436797L34.34438648223877,36.73515346768766L35.2726131439209,47.945726634910784L36.20083980560303,58.571532648144924L37.129066467285156,64.73312670186347L38.05729312896728,70.58021606911215L38.98551979064942,78.96863762709927L39.913746452331544,82.73528170257867L40.84197311401367,89.68128201069734L41.7701997756958,96.39951666214577L42.698426437377925,99.81619563321355L43.626653099060064,102.48822164264367L44.55487976074219,107.92755735797002L45.483106422424314,108.68917463956886L46.411333084106445,107.25594748980436L47.33955974578858,112.6119424049786L48.2677864074707,117.9273683151516L49.19601306915283,118.97689874424077L50.12423973083496,122.71870995711525L51.05246639251708,124.62038961901577L51.98069305419922,127.11800380362733L52.908919715881346,129.42066602529943L53.83714637756348,130.01825705112708L54.7653730392456,131.4985854837659L55.693599700927734,132.36743655132193L56.621826362609866,133.68271735100353L57.55005302429199,133.72538232225423L58.478279685974115,134.65850850824228L59.406506347656254,136.30826638590105L60.33473300933838,137.79361448103202L61.26295967102051,140.81963740315263L62.191186332702635,140.30694708953345L63.11941299438476,140.52955006510604L64.04763965606689,141.33728600996142L64.97586631774902,142.35536100430858L65.90409297943116,143.6060537869682L66.83231964111327,144.10655238340263L67.76054630279542,144.50664403775332L68.68877296447754,144.8938734999714L69.61699962615967,145.62524019900155L70.5452262878418,146.0911973316287L71.47345294952392,146.12239159404217L72.40167961120606,146.72662606015297L73.32990627288818,147.04226626869155L74.25813293457031,147.08054890046589L75.18635959625244,145.99296862719484L76.11458625793456,147.73144500147114L77.04281291961671,149.00311482057447L77.97103958129884,148.86687243370974L78.89926624298096,149.28710854991783L79.82749290466309,149.77099724670188L80.7557195663452,149.76861718054167L81.68394622802734,149.64498079119397L82.61217288970948,149.32496860232445L83.5403995513916,149.92838260885384L84.46862621307373,150.68377942197426L85.39685287475585,150.71794140907625L86.32507953643798,151.1993491190436L87.25330619812013,151.07536386223373L88.18153285980225,152.6284485149988L89.10975952148438,152.95668726712924L90.0379861831665,152.40084208612308L90.96621284484863,152.16655826123986L91.89443950653077,153.01201087965444L92.82266616821289,153.93167619915653L93.75089282989502,154.7163064022885L94.67911949157715,154.61539376771316L95.60734615325927,154.77656030957084L96.5355728149414,154.2823172624988L97.46379947662354,154.54936981184733L98.39202613830567,154.46348970676877L99.3202527999878,154.92780754572874L100.24847946166992,155.43834277666468L101.17670612335205,155.2055123492317L102.10493278503417,155.79535009244432L103.03315944671631,156.33215271969007L103.96138610839844,156.67547603442472L104.88961277008056,156.29074632805134L105.81783943176269,156.21832326267165L106.74606609344484,156.4724213187167L107.67429275512696,156.98347421998807L108.60251941680909,156.02825015819323L109.5307460784912,156.03367876911364L110.45897274017334,156.32153173760105L111.38719940185547,156.792256046834L112.3154260635376,156.80493398368063L113.24365272521973,156.77059926119995L114.17187938690185,156.90518179970914L115.10010604858398,157.40678916240543L116.02833271026611,157.72067761355527L116.95655937194823,158.05625592738824L117.88478603363038,157.44681829501795L118.81301269531251,156.9253916376849L119.74123935699463,157.2360964431908L120.66946601867676,157.37037616979325L121.59769268035888,157.56898609292935L122.52591934204102,157.96673814744543L123.45414600372315,158.17515335403354L124.38237266540527,158.0115819606406L125.3105993270874,158.64755166153103L126.23882598876952,158.9522602684087L127.16705265045167,158.87386818527773L128.09527931213378,158.92378965135177L129.0235059738159,159.50857784464043L129.95173263549805,159.67469085689243L130.87995929718016,159.66513514077437L131.8081859588623,159.32107911904956L132.73641262054443,159.48830465779542L133.66463928222655,159.9314482238262L134.5928659439087,159.9196501716819L135.52109260559084,160.07144068268738L136.44931926727295,159.89479927992198L137.37754592895507,159.56662697985035L138.3057725906372,159.64850221050108L139.23399925231934,159.31284752764546L140.16222591400145,159.4908135587421L141.0904525756836,160.0377424001271L142.01867923736572,160.24145367160875L142.94690589904783,159.78500638698472L143.87513256073,160.53259502972796L144.80335922241213,159.82726938450335L145.73158588409424,159.93251153926258L146.65981254577636,160.04629983187647L147.5880392074585,159.58382196910398L148.51626586914062,159.89797159253663L149.44449253082274,159.8699430496625L150.3727191925049,159.99235591322247L151.300945854187,160.29552907595695L152.22917251586912,160.47220601547588L153.15739917755127,160.59486029183938L154.08562583923342,160.28826620846993L155.01385250091553,160.8900961237417L155.94207916259768,160.74197434294206L156.8703058242798,160.97320058907422L157.7985324859619,161.08952441546083L158.72675914764403,160.9594339893634L159.65498580932618,160.87745845653512L160.5832124710083,161.26457805617392L161.5114391326904,161.1943322802236L162.43966579437256,160.81940206627706L163.36789245605468,160.84372692252077L164.2961191177368,161.13484098679123L165.22434577941897,160.81130609487508L166.15257244110109,161.0992332214505L167.0807991027832,161.34992703610905L168.00902576446535,161.38964414302296L168.93725242614747,161.6862914062727L169.86547908782958,161.64904882995546L170.7937057495117,161.48929042046777L171.72193241119385,161.63530694894266L172.65015907287597,161.52260009284967L173.57838573455808,161.73296867097315L174.50661239624026,161.78062257615917L175.43483905792237,161.95314454336457L176.3630657196045,161.7617670947333L177.29129238128664,162.10180582835514L178.21951904296876,162.09221344942085L179.14774570465087,162.08702179071776L180.075972366333,162.11218596367L181.00419902801514,162.0975712278673L181.93242568969725,162.31753692590684L182.86065235137937,162.37060317471526L183.78887901306155,162.50917848557222L184.71710567474366,162.45481198252594L185.64533233642578,162.08586891656938L186.57355899810793,162.09857270086962L187.50178565979004,161.70456598325165L188.43001232147216,161.44409955630016L189.3582389831543,161.76174528911747L190.28646564483643,161.93276755190712L191.21469230651854,161.5338218096834L192.14291896820066,161.4007291418279L193.0711456298828,161.8948615641131L193.99937229156492,161.5324150762326L194.92759895324707,161.80769792741754L195.85582561492922,161.8772827642833L196.78405227661133,161.83057831867296L197.71227893829345,161.9371982907143L198.6405055999756,161.56794574239007L199.56873226165771,161.08158490687785L200.49695892333983,161.33514834493627L201.42518558502198,161.46288965181395L202.3534122467041,161.595335283768L203.2816389083862,161.35583133931993L204.20986557006833,161.88687945249137L205.1380922317505,161.86108015007363L206.06631889343262,162.0160475082234L206.99454555511474,161.93766879130737L207.9227722167969,162.26229137974312L208.850998878479,162.50096327534067L209.77922554016112,162.67954070318777L210.70745220184327,162.63473978672292L211.63567886352538,162.72467685115924L212.5639055252075,162.227861156295L213.49213218688968,162.10092936320595L214.4203588485718,162.19682392225917L215.3485855102539,162.50437519565054L216.27681217193603,162.57462689219662L217.20503883361818,162.2627156169862L218.1332654953003,162.71441904112237L219.0614921569824,162.9814516535409L219.98971881866456,163.01458622708535L220.91794548034667,162.84516894151363L221.8461721420288,162.7290595978312L222.77439880371094,162.7723970183562L223.70262546539308,162.92803692415018L224.6308521270752,162.4698262407972L225.55907878875735,162.45056589245297L226.48730545043946,162.62007197250978L227.41553211212158,162.79404840331796L228.3437587738037,162.69712348342486L229.27198543548585,162.68336712797336L230.20021209716796,162.81370082245752L231.12843875885008,162.83185824048175L232.05666542053223,162.95759787143774L232.98489208221434,162.84249487576108L233.91311874389646,162.6447340547055L234.84134540557864,162.8757406298532L235.76957206726075,163.15118996495698L236.69779872894287,163.2560370779332L237.62602539062502,163.06669989140286L238.55425205230713,163.01432575921902L239.48247871398925,163.073118480306L240.41070537567137,162.6829697169965L241.33893203735352,163.01579566545587L242.26715869903563,163.22294207702424L243.19538536071775,163.24811041874293L244.12361202239993,163.49839588202153L245.05183868408204,163.658114970853L245.98006534576416,163.64359748052462L246.9082920074463,163.59218653876957L247.83651866912842,163.4422408203091L248.76474533081054,163.40643517949738L249.69297199249266,163.6025336808733L250.6211986541748,163.58460135351524L251.54942531585692,163.5701604857645L252.47765197753904,163.4351719001082L253.4058786392212,163.3611522101156L254.33410530090333,163.40040658354556L255.26233196258545,163.21381428929385" fill="none"></path></g></g></g></g><g opacity="0.2"><g><g><g><path style="fill: none;" stroke="rgb(0, 119, 187)" stroke-width="2px" d="M25.99034652709961,-14.023261433787848L26.91857318878174,2.203960411600292L27.846799850463867,5.797271818828895L28.775026512145995,7.182775637781558L29.703253173828127,12.118703312657098L30.631479835510255,-18.14768888893558L31.55970649719238,4.059376294817409L32.48793315887451,3.841442204769001L33.416159820556636,24.051725909534074L34.34438648223877,25.85850767251168L35.2726131439209,32.664344682357296L36.20083980560303,40.76693429073839L37.129066467285156,62.3491599117724L38.05729312896728,67.31077777429186L38.98551979064942,74.69129587359451L39.913746452331544,75.89701072217917L40.84197311401367,84.29256646382396L41.7701997756958,73.52358701723188L42.698426437377925,90.59970412355688L43.626653099060064,96.14087253657725L44.55487976074219,105.10584672033973L45.483106422424314,104.0316073199399L46.411333084106445,99.79181900570165L47.33955974578858,111.37182684846697L48.2677864074707,103.22908384578864L49.19601306915283,113.03312363310124L50.12423973083496,117.21048606165891L51.05246639251708,116.10998181672174L51.98069305419922,122.02598984776228L52.908919715881346,123.197945116116L53.83714637756348,128.03497131513132L54.7653730392456,130.4055761767911L55.693599700927734,127.83700503987279L56.621826362609866,128.78055838918874L57.55005302429199,130.8769611774086L58.478279685974115,130.29392941593778L59.406506347656254,131.314598695835L60.33473300933838,133.62306197575094L61.26295967102051,130.82868394934496L62.191186332702635,132.27635959514112L63.11941299438476,136.61559682154325L64.04763965606689,138.46800936636498L64.97586631774902,134.6909741013037L65.90409297943116,142.32174317963234L66.83231964111327,141.90879776056136L67.76054630279542,139.26601724713828L68.68877296447754,140.44803506014603L69.61699962615967,139.40397724468835L70.5452262878418,142.818709485535L71.47345294952392,142.08310178210758L72.40167961120606,145.4463916452121L73.32990627288818,146.22037886784221L74.25813293457031,145.5057158959234L75.18635959625244,145.64167064336658L76.11458625793456,146.63428305657214L77.04281291961671,145.3996992603702L77.97103958129884,146.30732748032017L78.89926624298096,148.11739386111992L79.82749290466309,147.83085783604213L80.7557195663452,148.8694140678732L81.68394622802734,150.75112201621732L82.61217288970948,146.88727424162653L83.5403995513916,147.6620387633177L84.46862621307373,150.6887777923058L85.39685287475585,149.94505230413193L86.32507953643798,152.46998732352813L87.25330619812013,151.65378399080453L88.18153285980225,150.67803019614468L89.10975952148438,149.55135335422415L90.0379861831665,148.3671745288463L90.96621284484863,150.55516704008562L91.89443950653077,152.1279727121597L92.82266616821289,150.38000556996428L93.75089282989502,153.66510882595986L94.67911949157715,152.60729100241576L95.60734615325927,151.75270058921456L96.5355728149414,154.16889993859888L97.46379947662354,152.29320849670293L98.39202613830567,154.51110509409511L99.3202527999878,153.71856855184876L100.24847946166992,153.02292823535572L101.17670612335205,156.0375397355111L102.10493278503417,153.8392298646532L103.03315944671631,153.73490997919043L103.96138610839844,155.11025068853272L104.88961277008056,154.6902710154103L105.81783943176269,153.44316726020764L106.74606609344484,153.6827205474869L107.67429275512696,154.96193250047952L108.60251941680909,155.3303284000189L109.5307460784912,155.7348997071239L110.45897274017334,154.12234819347037L111.38719940185547,156.53341268106138L112.3154260635376,156.85170681690067L113.24365272521973,157.04406565068382L114.17187938690185,153.9712164550221L115.10010604858398,156.50807862946584L116.02833271026611,155.0872394605904L116.95655937194823,155.50865653207376L117.88478603363038,155.7737124873791L118.81301269531251,155.78595116695305L119.74123935699463,157.47156652396205L120.66946601867676,156.3246473929723L121.59769268035888,157.2162555397644L122.52591934204102,157.78494658723548L123.45414600372315,156.43707372126914L124.38237266540527,156.1851985803919L125.3105993270874,156.7633185376793L126.23882598876952,156.49621498912757L127.16705265045167,157.96584857727066L128.09527931213378,157.33197026652084L129.0235059738159,158.3557608407021L129.95173263549805,158.97560580327738L130.87995929718016,156.0918319577679L131.8081859588623,158.2656909339401L132.73641262054443,157.76285859096004L133.66463928222655,158.44411358193136L134.5928659439087,157.5662291491061L135.52109260559084,158.92981358821388L136.44931926727295,158.79207362376377L137.37754592895507,159.55958272411232L138.3057725906372,156.59104169393723L139.23399925231934,159.0713878751723L140.16222591400145,158.22026506264612L141.0904525756836,159.08074986770566L142.01867923736572,157.99546760335932L142.94690589904783,159.36399295755888L143.87513256073,157.7937343009392L144.80335922241213,157.16365326245062L145.73158588409424,159.81848342357483L146.65981254577636,159.82526815555414L147.5880392074585,159.7633776081374L148.51626586914062,158.48283184625015L149.44449253082274,158.77429555418865L150.3727191925049,158.73390246747667L151.300945854187,161.08351798610585L152.22917251586912,159.1063092452936L153.15739917755127,159.67417951637287L154.08562583923342,160.92338757438378L155.01385250091553,159.91010339169395L155.94207916259768,159.956284256288L156.8703058242798,160.3465311061343L157.7985324859619,159.45410974422532L158.72675914764403,159.2509681543527L159.65498580932618,160.0409323508737L160.5832124710083,159.89279109665347L161.5114391326904,160.18953333060864L162.43966579437256,158.99047731877602L163.36789245605468,160.24156851230396L164.2961191177368,160.06443279330287L165.22434577941897,161.07957931800374L166.15257244110109,161.11851005414758L167.0807991027832,160.6561486790111L168.00902576446535,160.52397154451438L168.93725242614747,160.47478167056877L169.86547908782958,160.16840410399215L170.7937057495117,160.98701343439302L171.72193241119385,161.1272811330465L172.65015907287597,159.57701146278646L173.57838573455808,160.72879589611887L174.50661239624026,161.1429087760364L175.43483905792237,160.6620056425586L176.3630657196045,161.83394862384057L177.29129238128664,160.92908423890313L178.21951904296876,160.31439039486222L179.14774570465087,158.6996778688386L180.075972366333,160.1851818168963L181.00419902801514,160.9309707769939L181.93242568969725,160.93766401754675L182.86065235137937,159.46812570146756L183.78887901306155,160.34170587854868L184.71710567474366,159.9840734538477L185.64533233642578,162.24357672257543L186.57355899810793,161.08969138900846L187.50178565979004,160.91768712922698L188.43001232147216,162.29071087490408L189.3582389831543,162.3889792830222L190.28646564483643,161.32283498354408L191.21469230651854,161.00350457497797L192.14291896820066,161.16614759835358L193.0711456298828,161.39479752720848L193.99937229156492,161.92200080439207L194.92759895324707,161.3826579003359L195.85582561492922,161.18430221941935L196.78405227661133,161.26577420047792" fill="none"></path></g><g><path style="fill: none;" stroke="rgb(204, 51, 17)" stroke-width="2px" d="M26.91857318878174,-3.0642399280459416L27.846799850463867,6.3094423363263585L28.775026512145995,10.88397736448679L29.703253173828127,11.796907550405646L30.631479835510255,18.52505094826666L31.55970649719238,13.226593410929132L32.48793315887451,3.9385168766102736L33.416159820556636,42.44904575295276L34.34438648223877,59.346414320337765L35.2726131439209,64.73962370586334L36.20083980560303,74.49775143190504L37.129066467285156,73.97117214893365L38.05729312896728,79.34837582772366L38.98551979064942,91.54914014475501L39.913746452331544,88.38467400548416L40.84197311401367,100.09964758093406L41.7701997756958,106.47650019536354L42.698426437377925,104.94110166253836L43.626653099060064,106.49620790229642L44.55487976074219,116.08649649684241L45.483106422424314,109.83159514871748L46.411333084106445,105.10611287721667L47.33955974578858,120.64592107321698L48.2677864074707,125.90049901998019L49.19601306915283,120.55119342110868L50.12423973083496,128.33142470838482L51.05246639251708,127.47290848124887L51.98069305419922,130.86442458360307L52.908919715881346,132.87465908291597L53.83714637756348,130.91464354706432L54.7653730392456,133.7190780691044L55.693599700927734,133.67071313025178L56.621826362609866,135.65563853017636L57.55005302429199,133.7893797787342L58.478279685974115,136.05819778202704L59.406506347656254,138.78290319687596L60.33473300933838,140.0216366207501L61.26295967102051,145.35867178269302L62.191186332702635,139.5379116194748L63.11941299438476,140.8634545283685L64.04763965606689,142.54888992703457L64.97586631774902,143.88247349567058L65.90409297943116,145.48209296084065L66.83231964111327,144.85730027802612L67.76054630279542,145.10678151926595L68.68877296447754,145.47471769329064L69.61699962615967,146.7222902475379L70.5452262878418,146.79013303056604L71.47345294952392,146.16918298766223L72.40167961120606,147.6329777593176L73.32990627288818,147.51572658149888L74.25813293457031,147.13797284812733L75.18635959625244,144.36159821728887L76.11458625793456,150.33915956288502L77.04281291961671,150.91061954922918L77.97103958129884,148.6625088534127L78.89926624298096,149.9174627242299L79.82749290466309,150.49683029187793L80.7557195663452,149.76504708130142L81.68394622802734,149.45952620717242L82.61217288970948,148.84495031902014L83.5403995513916,150.8335036186479L84.46862621307373,151.81687464165498L85.39685287475585,150.76918438972916L86.32507953643798,151.92146068399467L87.25330619812013,150.8893859770189L88.18153285980225,154.95807549414647L89.10975952148438,153.4490453953249L90.0379861831665,151.56707431461382L90.96621284484863,151.81513252391505L91.89443950653077,154.28018980727632L92.82266616821289,155.31117417840966L93.75089282989502,155.89325170698646L94.67911949157715,154.4640248158502L95.60734615325927,155.0183101223573L96.5355728149414,153.5409526918907L97.46379947662354,154.94994863587013L98.39202613830567,154.33466954915096L99.3202527999878,155.6242843041687L100.24847946166992,156.20414562306854L101.17670612335205,154.85626670808227L102.10493278503417,156.6801067072633L103.03315944671631,157.13735666055868L103.96138610839844,157.19046100652668L104.88961277008056,155.71365176849127L105.81783943176269,156.10968866460212L106.74606609344484,156.85356840278422L107.67429275512696,157.7500535718951L108.60251941680909,154.595414065501L109.5307460784912,156.04182168549426L110.45897274017334,156.75331119033214L111.38719940185547,157.49834251068347L112.3154260635376,156.82395088895055L113.24365272521973,156.71909717747894L114.17187938690185,157.1070556074729L115.10010604858398,158.15920020644987L116.02833271026611,158.19151029028L116.95655937194823,158.55962339813766L117.88478603363038,156.53266184646253L118.81301269531251,156.14325165168532L119.74123935699463,157.70215365144963L120.66946601867676,157.57179575969695L121.59769268035888,157.8669009776335L122.52591934204102,158.56336622921953L123.45414600372315,158.48777616391567L124.38237266540527,157.76622487055124L125.3105993270874,159.60150621286664L126.23882598876952,159.40932317872523L127.16705265045167,158.75628006058128L128.09527931213378,158.9986718504628L129.0235059738159,160.38576013457347L129.95173263549805,159.9238603752704L130.87995929718016,159.6508015665973L131.8081859588623,158.80499508646236L132.73641262054443,159.7391429659142L133.66463928222655,160.5961635728724L134.5928659439087,159.90195309346538L135.52109260559084,160.29912644919563L136.44931926727295,159.6298371757739L137.37754592895507,159.07436852974294L138.3057725906372,159.77131505647716L139.23399925231934,158.809365503362L140.16222591400145,159.75776260538711L141.0904525756836,160.85813566220455L142.01867923736572,160.54702057883125L142.94690589904783,159.10033546004868L143.87513256073,161.65397799384277L144.80335922241213,158.76928091666645L145.73158588409424,160.0903747714014L146.65981254577636,160.2169822707973L147.5880392074585,158.89010517494526L148.51626586914062,160.3691960276856L149.44449253082274,159.8279002353513L150.3727191925049,160.1759752085624L151.300945854187,160.75028882005867L152.22917251586912,160.73722142475427L153.15739917755127,160.7788417063846L154.08562583923342,159.82837508341584L155.01385250091553,161.79284099664932L155.94207916259768,160.51979167174255L156.8703058242798,161.32003995827253L157.7985324859619,161.26401015504075L158.72675914764403,160.76429835021722L159.65498580932618,160.7544951572927L160.5832124710083,161.84525745563212L161.5114391326904,161.0889636162981L162.43966579437256,160.25700674535727L163.36789245605468,160.88021420688634L164.2961191177368,161.57151208319692L165.22434577941897,160.32600375700088L166.15257244110109,161.53112391131364L167.0807991027832,161.72596775809689L168.00902576446535,161.4492198033938L168.93725242614747,162.13126230114727L169.86547908782958,161.59318496547965L170.7937057495117,161.2496528062362L171.72193241119385,161.85433174165505L172.65015907287597,161.35353980871022L173.57838573455808,162.04852153815833L174.50661239624026,161.85210343393823L175.43483905792237,162.21192749417267L176.3630657196045,161.47470092178636L177.29129238128664,162.61186392878793L178.21951904296876,162.07782488101938L179.14774570465087,162.07923430266314L180.075972366333,162.14993222309838L181.00419902801514,162.07564912416322L181.93242568969725,162.64748547296614L182.86065235137937,162.4502025479279L183.78887901306155,162.71704145185768L184.71710567474366,162.37326222795647L185.64533233642578,161.53245431763455L186.57355899810793,162.11762837732005L187.50178565979004,161.11355590682467L188.43001232147216,161.05339991587294L189.3582389831543,162.23821388834347L190.28646564483643,162.18930094609152L191.21469230651854,160.9354031963478L192.14291896820066,161.2010901400446L193.0711456298828,162.63606019754096L193.99937229156492,160.98874534441183L194.92759895324707,162.22062220419494L195.85582561492922,161.98166001958202L196.78405227661133,161.7605216502574L197.71227893829345,162.0971282487763L198.6405055999756,161.01406691990374L199.56873226165771,160.3520436536095L200.49695892333983,161.71549350202386L201.42518558502198,161.6545016121305L202.3534122467041,161.79400373169906L203.2816389083862,160.99657542264782L204.20986557006833,162.68345162224853L205.1380922317505,161.82238119644703L206.06631889343262,162.24849854544806L206.99454555511474,161.82010071593328L207.9227722167969,162.74922526239678L208.850998878479,162.858971118737L209.77922554016112,162.94740684495844L210.70745220184327,162.56753841202564L211.63567886352538,162.8595824478137L212.5639055252075,161.48263761399866L213.49213218688968,161.91053167357236L214.4203588485718,162.340665760839L215.3485855102539,162.9657021057376L216.27681217193603,162.68000443701578L217.20503883361818,161.79484870417056L218.1332654953003,163.39197417732657L219.0614921569824,163.3820005721687L219.98971881866456,163.06428808740205L220.91794548034667,162.591043013156L221.8461721420288,162.55489558230758L222.77439880371094,162.83740314914368L223.70262546539308,163.16149678284114L224.6308521270752,161.78251021576776L225.55907878875735,162.42167536993665L226.48730545043946,162.87433109259499L227.41553211212158,163.0550130495302L228.3437587738037,162.55173610358526L229.27198543548585,162.66273259479607L230.20021209716796,163.00920136418378L231.12843875885008,162.85909436751808L232.05666542053223,163.14620731787173L232.98489208221434,162.66984038224604L233.91311874389646,162.34809282312216L234.84134540557864,163.22225049257474L235.76957206726075,163.56436396761265L236.69779872894287,163.41330774739757L237.62602539062502,162.78269411160733L238.55425205230713,162.93576456094326L239.48247871398925,163.16130756193644L240.41070537567137,162.0977465720323L241.33893203735352,163.5150345881449L242.26715869903563,163.5336616943768L243.19538536071775,163.28586293132102L244.12361202239993,163.87382407693937L245.05183868408204,163.89769360410023L245.98006534576416,163.62182124503204L246.9082920074463,163.515070126137L247.83651866912842,163.2173222426184L248.76474533081054,163.35272671827983L249.69297199249266,163.8966814329372L250.6211986541748,163.55770286247815L251.54942531585692,163.54849918413828L252.47765197753904,163.2326890216238L253.4058786392212,163.25012267512665L254.33410530090333,163.45928814369046L255.26233196258545,162.9339258479163" fill="none"></path></g></g></g></g></g></g><g transform="translate(51, 177)" clip-path="url(#clip_1)"><clipPath id="clip_1"><rect width="278" height="22"></rect></clipPath><g><g><line x1="0" y1="0" x2="0" y2="5" style="visibility: inherit;" fill="rgb(0, 0, 0)" stroke="rgb(204, 204, 204)" stroke-width="1px"></line><line x1="23.205666542053223" y1="0" x2="23.205666542053223" y2="5" style="visibility: inherit;" fill="rgb(0, 0, 0)" stroke="rgb(204, 204, 204)" stroke-width="1px"></line><line x1="46.411333084106445" y1="0" x2="46.411333084106445" y2="5" style="visibility: inherit;" fill="rgb(0, 0, 0)" stroke="rgb(204, 204, 204)" stroke-width="1px"></line><line x1="69.61699962615967" y1="0" x2="69.61699962615967" y2="5" style="visibility: inherit;" fill="rgb(0, 0, 0)" stroke="rgb(204, 204, 204)" stroke-width="1px"></line><line x1="92.82266616821289" y1="0" x2="92.82266616821289" y2="5" style="visibility: inherit;" fill="rgb(0, 0, 0)" stroke="rgb(204, 204, 204)" stroke-width="1px"></line><line x1="116.02833271026611" y1="0" x2="116.02833271026611" y2="5" style="visibility: inherit;" fill="rgb(0, 0, 0)" stroke="rgb(204, 204, 204)" stroke-width="1px"></line><line x1="139.23399925231934" y1="0" x2="139.23399925231934" y2="5" style="visibility: inherit;" fill="rgb(0, 0, 0)" stroke="rgb(204, 204, 204)" stroke-width="1px"></line><line x1="162.43966579437256" y1="0" x2="162.43966579437256" y2="5" style="visibility: inherit;" fill="rgb(0, 0, 0)" stroke="rgb(204, 204, 204)" stroke-width="1px"></line><line x1="185.64533233642578" y1="0" x2="185.64533233642578" y2="5" style="visibility: inherit;" fill="rgb(0, 0, 0)" stroke="rgb(204, 204, 204)" stroke-width="1px"></line><line x1="208.850998878479" y1="0" x2="208.850998878479" y2="5" style="visibility: inherit;" fill="rgb(0, 0, 0)" stroke="rgb(204, 204, 204)" stroke-width="1px"></line><line x1="232.05666542053223" y1="0" x2="232.05666542053223" y2="5" style="visibility: inherit;" fill="rgb(0, 0, 0)" stroke="rgb(204, 204, 204)" stroke-width="1px"></line><line x1="255.26233196258545" y1="0" x2="255.26233196258545" y2="5" style="visibility: inherit;" fill="rgb(0, 0, 0)" stroke="rgb(204, 204, 204)" stroke-width="1px"></line><line x1="278.4679985046387" y1="0" x2="278.4679985046387" y2="5" style="visibility: inherit;" fill="rgb(0, 0, 0)" stroke="rgb(204, 204, 204)" stroke-width="1px"></line></g><g transform="translate(0, 8)"><text style="text-anchor: middle; visibility: hidden; font-family: Roboto, sans-serif; font-size: 12px; font-weight: 200;" x="0" y="0" dx="0em" dy="0.95em" fill="rgb(50, 49, 63)" stroke="none" stroke-width="1px">-500</text><text style="text-anchor: middle; visibility: inherit; font-family: Roboto, sans-serif; font-size: 12px; font-weight: 200;" x="23.205666542053223" y="0" dx="0em" dy="0.95em" fill="rgb(50, 49, 63)" stroke="none" stroke-width="1px">0</text><text style="text-anchor: middle; visibility: inherit; font-family: Roboto, sans-serif; font-size: 12px; font-weight: 200;" x="46.411333084106445" y="0" dx="0em" dy="0.95em" fill="rgb(50, 49, 63)" stroke="none" stroke-width="1px">500</text><text style="text-anchor: middle; visibility: inherit; font-family: Roboto, sans-serif; font-size: 12px; font-weight: 200;" x="69.61699962615967" y="0" dx="0em" dy="0.95em" fill="rgb(50, 49, 63)" stroke="none" stroke-width="1px">1k</text><text style="text-anchor: middle; visibility: inherit; font-family: Roboto, sans-serif; font-size: 12px; font-weight: 200;" x="92.82266616821289" y="0" dx="0em" dy="0.95em" fill="rgb(50, 49, 63)" stroke="none" stroke-width="1px">1.5k</text><text style="text-anchor: middle; visibility: inherit; font-family: Roboto, sans-serif; font-size: 12px; font-weight: 200;" x="116.02833271026611" y="0" dx="0em" dy="0.95em" fill="rgb(50, 49, 63)" stroke="none" stroke-width="1px">2k</text><text style="text-anchor: middle; visibility: inherit; font-family: Roboto, sans-serif; font-size: 12px; font-weight: 200;" x="139.23399925231934" y="0" dx="0em" dy="0.95em" fill="rgb(50, 49, 63)" stroke="none" stroke-width="1px">2.5k</text><text style="text-anchor: middle; visibility: inherit; font-family: Roboto, sans-serif; font-size: 12px; font-weight: 200;" x="162.43966579437256" y="0" dx="0em" dy="0.95em" fill="rgb(50, 49, 63)" stroke="none" stroke-width="1px">3k</text><text style="text-anchor: middle; visibility: inherit; font-family: Roboto, sans-serif; font-size: 12px; font-weight: 200;" x="185.64533233642578" y="0" dx="0em" dy="0.95em" fill="rgb(50, 49, 63)" stroke="none" stroke-width="1px">3.5k</text><text style="text-anchor: middle; visibility: inherit; font-family: Roboto, sans-serif; font-size: 12px; font-weight: 200;" x="208.850998878479" y="0" dx="0em" dy="0.95em" fill="rgb(50, 49, 63)" stroke="none" stroke-width="1px">4k</text><text style="text-anchor: middle; visibility: inherit; font-family: Roboto, sans-serif; font-size: 12px; font-weight: 200;" x="232.05666542053223" y="0" dx="0em" dy="0.95em" fill="rgb(50, 49, 63)" stroke="none" stroke-width="1px">4.5k</text><text style="text-anchor: middle; visibility: inherit; font-family: Roboto, sans-serif; font-size: 12px; font-weight: 200;" x="255.26233196258545" y="0" dx="0em" dy="0.95em" fill="rgb(50, 49, 63)" stroke="none" stroke-width="1px">5k</text><text style="text-anchor: middle; visibility: hidden; font-family: Roboto, sans-serif; font-size: 12px; font-weight: 200;" x="278.4679985046387" y="0" dx="0em" dy="0.95em" fill="rgb(50, 49, 63)" stroke="none" stroke-width="1px">5.5k</text></g><line x1="0" y1="0" x2="278.4679985046387" y2="0" fill="rgb(0, 0, 0)" stroke="rgb(204, 204, 204)" stroke-width="1px"></line></g></g></g></g></svg>