<svg viewBox="0 0 330 200" xmlns="http://www.w3.org/2000/svg"><g><g><g><g><g><line x1="49.98400115966797" y1="178.58999919891357" x2="44.98400115966797" y2="178.58999919891357" style="visibility: inherit;" fill="rgb(0, 0, 0)" stroke="rgb(204, 204, 204)" stroke-width="1px"></line><line x1="49.98400115966797" y1="165.83357068470548" x2="44.98400115966797" y2="165.83357068470548" style="visibility: inherit;" fill="rgb(0, 0, 0)" stroke="rgb(204, 204, 204)" stroke-width="1px"></line><line x1="49.98400115966797" y1="153.07714217049735" x2="44.98400115966797" y2="153.07714217049735" style="visibility: inherit;" fill="rgb(0, 0, 0)" stroke="rgb(204, 204, 204)" stroke-width="1px"></line><line x1="49.98400115966797" y1="140.32071365628923" x2="44.98400115966797" y2="140.32071365628923" style="visibility: inherit;" fill="rgb(0, 0, 0)" stroke="rgb(204, 204, 204)" stroke-width="1px"></line><line x1="49.98400115966797" y1="127.56428514208113" x2="44.98400115966797" y2="127.56428514208113" style="visibility: inherit;" fill="rgb(0, 0, 0)" stroke="rgb(204, 204, 204)" stroke-width="1px"></line><line x1="49.98400115966797" y1="114.80785662787302" x2="44.98400115966797" y2="114.80785662787302" style="visibility: inherit;" fill="rgb(0, 0, 0)" stroke="rgb(204, 204, 204)" stroke-width="1px"></line><line x1="49.98400115966797" y1="102.05142811366491" x2="44.98400115966797" y2="102.05142811366491" style="visibility: inherit;" fill="rgb(0, 0, 0)" stroke="rgb(204, 204, 204)" stroke-width="1px"></line><line x1="49.98400115966797" y1="89.29499959945679" x2="44.98400115966797" y2="89.29499959945679" style="visibility: inherit;" fill="rgb(0, 0, 0)" stroke="rgb(204, 204, 204)" stroke-width="1px"></line><line x1="49.98400115966797" y1="76.5385710852487" x2="44.98400115966797" y2="76.5385710852487" style="visibility: inherit;" fill="rgb(0, 0, 0)" stroke="rgb(204, 204, 204)" stroke-width="1px"></line><line x1="49.98400115966797" y1="63.78214257104057" x2="44.98400115966797" y2="63.78214257104057" style="visibility: inherit;" fill="rgb(0, 0, 0)" stroke="rgb(204, 204, 204)" stroke-width="1px"></line><line x1="49.98400115966797" y1="51.02571405683247" x2="44.98400115966797" y2="51.02571405683247" style="visibility: inherit;" fill="rgb(0, 0, 0)" stroke="rgb(204, 204, 204)" stroke-width="1px"></line><line x1="49.98400115966797" y1="38.26928554262434" x2="44.98400115966797" y2="38.26928554262434" style="visibility: inherit;" fill="rgb(0, 0, 0)" stroke="rgb(204, 204, 204)" stroke-width="1px"></line><line x1="49.98400115966797" y1="25.512857028416214" x2="44.98400115966797" y2="25.512857028416214" style="visibility: inherit;" fill="rgb(0, 0, 0)" stroke="rgb(204, 204, 204)" stroke-width="1px"></line><line x1="49.98400115966797" y1="12.756428514208126" x2="44.98400115966797" y2="12.756428514208126" style="visibility: inherit;" fill="rgb(0, 0, 0)" stroke="rgb(204, 204, 204)" stroke-width="1px"></line><line x1="49.98400115966797" y1="0" x2="44.98400115966797" y2="0" style="visibility: inherit;" fill="rgb(0, 0, 0)" stroke="rgb(204, 204, 204)" stroke-width="1px"></line></g><g transform="translate(39.98400115966797, 0)"><text style="text-anchor: end; visibility: hidden; font-family: Roboto, sans-serif; font-size: 12px; font-weight: 200;" x="0" y="178.58999919891357" dx="0em" dy="0.3em" fill="rgb(50, 49, 63)" stroke="none" stroke-width="1px">-0.2</text><text style="text-anchor: end; visibility: inherit; font-family: Roboto, sans-serif; font-size: 12px; font-weight: 200;" x="0" y="165.83357068470548" dx="0em" dy="0.3em" fill="rgb(50, 49, 63)" stroke="none" stroke-width="1px">0</text><text style="text-anchor: end; visibility: hidden; font-family: Roboto, sans-serif; font-size: 12px; font-weight: 200;" x="0" y="153.07714217049735" dx="0em" dy="0.3em" fill="rgb(50, 49, 63)" stroke="none" stroke-width="1px">0.2</text><text style="text-anchor: end; visibility: inherit; font-family: Roboto, sans-serif; font-size: 12px; font-weight: 200;" x="0" y="140.32071365628923" dx="0em" dy="0.3em" fill="rgb(50, 49, 63)" stroke="none" stroke-width="1px">0.4</text><text style="text-anchor: end; visibility: hidden; font-family: Roboto, sans-serif; font-size: 12px; font-weight: 200;" x="0" y="127.56428514208113" dx="0em" dy="0.3em" fill="rgb(50, 49, 63)" stroke="none" stroke-width="1px">0.6</text><text style="text-anchor: end; visibility: inherit; font-family: Roboto, sans-serif; font-size: 12px; font-weight: 200;" x="0" y="114.80785662787302" dx="0em" dy="0.3em" fill="rgb(50, 49, 63)" stroke="none" stroke-width="1px">0.8</text><text style="text-anchor: end; visibility: hidden; font-family: Roboto, sans-serif; font-size: 12px; font-weight: 200;" x="0" y="102.05142811366491" dx="0em" dy="0.3em" fill="rgb(50, 49, 63)" stroke="none" stroke-width="1px">1</text><text style="text-anchor: end; visibility: inherit; font-family: Roboto, sans-serif; font-size: 12px; font-weight: 200;" x="0" y="89.29499959945679" dx="0em" dy="0.3em" fill="rgb(50, 49, 63)" stroke="none" stroke-width="1px">1.2</text><text style="text-anchor: end; visibility: hidden; font-family: Roboto, sans-serif; font-size: 12px; font-weight: 200;" x="0" y="76.5385710852487" dx="0em" dy="0.3em" fill="rgb(50, 49, 63)" stroke="none" stroke-width="1px">1.4</text><text style="text-anchor: end; visibility: inherit; font-family: Roboto, sans-serif; font-size: 12px; font-weight: 200;" x="0" y="63.78214257104057" dx="0em" dy="0.3em" fill="rgb(50, 49, 63)" stroke="none" stroke-width="1px">1.6</text><text style="text-anchor: end; visibility: hidden; font-family: Roboto, sans-serif; font-size: 12px; font-weight: 200;" x="0" y="51.02571405683247" dx="0em" dy="0.3em" fill="rgb(50, 49, 63)" stroke="none" stroke-width="1px">1.8</text><text style="text-anchor: end; visibility: inherit; font-family: Roboto, sans-serif; font-size: 12px; font-weight: 200;" x="0" y="38.26928554262434" dx="0em" dy="0.3em" fill="rgb(50, 49, 63)" stroke="none" stroke-width="1px">2</text><text style="text-anchor: end; visibility: hidden; font-family: Roboto, sans-serif; font-size: 12px; font-weight: 200;" x="0" y="25.512857028416214" dx="0em" dy="0.3em" fill="rgb(50, 49, 63)" stroke="none" stroke-width="1px">2.2</text><text style="text-anchor: end; visibility: inherit; font-family: Roboto, sans-serif; font-size: 12px; font-weight: 200;" x="0" y="12.756428514208126" dx="0em" dy="0.3em" fill="rgb(50, 49, 63)" stroke="none" stroke-width="1px">2.4</text><text style="text-anchor: end; visibility: hidden; font-family: Roboto, sans-serif; font-size: 12px; font-weight: 200;" x="0" y="0" dx="0em" dy="0.3em" fill="rgb(50, 49, 63)" stroke="none" stroke-width="1px">2.6</text></g><line x1="49.98400115966797" y1="0" x2="49.98400115966797" y2="178.58999919891357" fill="rgb(0, 0, 0)" stroke="rgb(204, 204, 204)" stroke-width="1px"></line></g></g><g transform="translate(49, 0)" clip-path="url(#clip_0)"><clipPath id="clip_0"><rect width="280" height="178"></rect></clipPath><g><g><g><line x1="0" y1="0" x2="0" y2="178.58999919891357" fill="rgb(0, 0, 0)" stroke="rgb(60, 60, 60)" stroke-width="1px" opacity="0.25"></line><line x1="23.334666570027668" y1="0" x2="23.334666570027668" y2="178.58999919891357" fill="rgb(0, 0, 0)" stroke="rgb(60, 60, 60)" stroke-width="1px" opacity="0.25"></line><line x1="46.669333140055336" y1="0" x2="46.669333140055336" y2="178.58999919891357" fill="rgb(0, 0, 0)" stroke="rgb(60, 60, 60)" stroke-width="1px" opacity="0.25"></line><line x1="70.00399971008301" y1="0" x2="70.00399971008301" y2="178.58999919891357" fill="rgb(0, 0, 0)" stroke="rgb(60, 60, 60)" stroke-width="1px" opacity="0.25"></line><line x1="93.33866628011067" y1="0" x2="93.33866628011067" y2="178.58999919891357" fill="rgb(0, 0, 0)" stroke="rgb(60, 60, 60)" stroke-width="1px" opacity="0.25"></line><line x1="116.67333285013835" y1="0" x2="116.67333285013835" y2="178.58999919891357" fill="rgb(0, 0, 0)" stroke="rgb(60, 60, 60)" stroke-width="1px" opacity="0.25"></line><line x1="140.00799942016602" y1="0" x2="140.00799942016602" y2="178.58999919891357" fill="rgb(0, 0, 0)" stroke="rgb(60, 60, 60)" stroke-width="1px" opacity="0.25"></line><line x1="163.3426659901937" y1="0" x2="163.3426659901937" y2="178.58999919891357" fill="rgb(0, 0, 0)" stroke="rgb(60, 60, 60)" stroke-width="1px" opacity="0.25"></line><line x1="186.67733256022134" y1="0" x2="186.67733256022134" y2="178.58999919891357" fill="rgb(0, 0, 0)" stroke="rgb(60, 60, 60)" stroke-width="1px" opacity="0.25"></line><line x1="210.01199913024902" y1="0" x2="210.01199913024902" y2="178.58999919891357" fill="rgb(0, 0, 0)" stroke="rgb(60, 60, 60)" stroke-width="1px" opacity="0.25"></line><line x1="233.3466657002767" y1="0" x2="233.3466657002767" y2="178.58999919891357" fill="rgb(0, 0, 0)" stroke="rgb(60, 60, 60)" stroke-width="1px" opacity="0.25"></line><line x1="256.6813322703043" y1="0" x2="256.6813322703043" y2="178.58999919891357" fill="rgb(0, 0, 0)" stroke="rgb(60, 60, 60)" stroke-width="1px" opacity="0.25"></line><line x1="280.01599884033203" y1="0" x2="280.01599884033203" y2="178.58999919891357" fill="rgb(0, 0, 0)" stroke="rgb(60, 60, 60)" stroke-width="1px" opacity="0.25"></line></g><g><line x1="0" y1="178.58999919891357" x2="280.01599884033203" y2="178.58999919891357" fill="rgb(0, 0, 0)" stroke="rgb(60, 60, 60)" stroke-width="1px" opacity="0.25"></line><line x1="0" y1="165.83357068470548" x2="280.01599884033203" y2="165.83357068470548" fill="rgb(0, 0, 0)" stroke="rgb(60, 60, 60)" stroke-width="1px" opacity="0.25"></line><line x1="0" y1="153.07714217049735" x2="280.01599884033203" y2="153.07714217049735" fill="rgb(0, 0, 0)" stroke="rgb(60, 60, 60)" stroke-width="1px" opacity="0.25"></line><line x1="0" y1="140.32071365628923" x2="280.01599884033203" y2="140.32071365628923" fill="rgb(0, 0, 0)" stroke="rgb(60, 60, 60)" stroke-width="1px" opacity="0.25"></line><line x1="0" y1="127.56428514208113" x2="280.01599884033203" y2="127.56428514208113" fill="rgb(0, 0, 0)" stroke="rgb(60, 60, 60)" stroke-width="1px" opacity="0.25"></line><line x1="0" y1="114.80785662787302" x2="280.01599884033203" y2="114.80785662787302" fill="rgb(0, 0, 0)" stroke="rgb(60, 60, 60)" stroke-width="1px" opacity="0.25"></line><line x1="0" y1="102.05142811366491" x2="280.01599884033203" y2="102.05142811366491" fill="rgb(0, 0, 0)" stroke="rgb(60, 60, 60)" stroke-width="1px" opacity="0.25"></line><line x1="0" y1="89.29499959945679" x2="280.01599884033203" y2="89.29499959945679" fill="rgb(0, 0, 0)" stroke="rgb(60, 60, 60)" stroke-width="1px" opacity="0.25"></line><line x1="0" y1="76.5385710852487" x2="280.01599884033203" y2="76.5385710852487" fill="rgb(0, 0, 0)" stroke="rgb(60, 60, 60)" stroke-width="1px" opacity="0.25"></line><line x1="0" y1="63.78214257104057" x2="280.01599884033203" y2="63.78214257104057" fill="rgb(0, 0, 0)" stroke="rgb(60, 60, 60)" stroke-width="1px" opacity="0.25"></line><line x1="0" y1="51.02571405683247" x2="280.01599884033203" y2="51.02571405683247" fill="rgb(0, 0, 0)" stroke="rgb(60, 60, 60)" stroke-width="1px" opacity="0.25"></line><line x1="0" y1="38.26928554262434" x2="280.01599884033203" y2="38.26928554262434" fill="rgb(0, 0, 0)" stroke="rgb(60, 60, 60)" stroke-width="1px" opacity="0.25"></line><line x1="0" y1="25.512857028416214" x2="280.01599884033203" y2="25.512857028416214" fill="rgb(0, 0, 0)" stroke="rgb(60, 60, 60)" stroke-width="1px" opacity="0.25"></line><line x1="0" y1="12.756428514208126" x2="280.01599884033203" y2="12.756428514208126" fill="rgb(0, 0, 0)" stroke="rgb(60, 60, 60)" stroke-width="1px" opacity="0.25"></line><line x1="0" y1="0" x2="280.01599884033203" y2="0" fill="rgb(0, 0, 0)" stroke="rgb(60, 60, 60)" stroke-width="1px" opacity="0.25"></line></g></g></g><g><g><line x1="0" y1="165.83357068470548" x2="280.01599884033203" y2="165.83357068470548" fill="rgb(0, 0, 0)" stroke="rgb(153, 153, 153)" stroke-width="1.5px"></line></g></g><g><g><line x1="23.334666570027668" y1="0" x2="23.334666570027668" y2="178.58999919891357" fill="rgb(0, 0, 0)" stroke="rgb(153, 153, 153)" stroke-width="1.5px"></line></g></g><g><g><g><g><g><path style="fill: none;" stroke="rgb(0, 119, 187)" stroke-width="2px" d="M31.73514653523763,-0.927920875898889L32.66853319803874,1.601500886055146L33.60191986083984,8.498805331162092L34.535306523640955,18.7203374336374L35.46869318644206,30.232002780579876L36.402079849243165,37.28625737232887L37.33546651204427,52.70644481160896L38.268853174845376,66.81663710299438L39.20223983764649,80.14971607129988L40.13562650044759,87.34854275704714L41.0690131632487,93.18340160805533L42.0023998260498,94.54322214238032L42.93578648885091,102.51562642574675L43.86917315165202,108.44491529984384L44.802559814453126,115.35417936565358L45.73594647725423,118.4719347905009L46.669333140055336,119.92790461171158L47.60271980285645,123.48806321789476L48.536106465657554,122.84637267939789L49.46949312845866,125.61713044805848L50.402879791259764,129.01448164173203L51.33626645406087,129.2337352106416L52.26965311686198,131.41720373618855L53.20303977966309,134.25494345403644L54.13642644246419,136.44081217315832L55.0698131052653,138.22968392874216L56.00319976806641,139.58984157001535L56.936586430867514,139.71947470073042L57.86997309366862,141.13711017471542L58.803359756469725,141.92376566913967L59.73674641927084,141.2150483566639L60.67013308207194,141.9318666872746L61.60351974487305,142.0801823987562L62.53690640767415,142.73983312055987L63.47029307047526,144.43027374837223L64.40367973327638,145.29194957262308L65.33706639607747,144.6044069663359L66.27045305887857,146.33420007134694L67.20383972167969,147.37756560636947L68.1372263844808,146.9284022412579L69.07061304728191,146.7830848620468L70.00399971008301,146.49909425332413L70.93738637288412,146.9726216928687L71.87077303568522,147.92089875511323L72.80415969848633,149.24037235383457L73.73754636128743,149.9907433092954L74.67093302408854,150.14258737958676L75.60431968688965,150.94317690947383L76.53770634969075,151.5747684313831L77.47109301249186,151.0839927756867L78.40447967529298,150.75755992698686L79.33786633809407,151.54958875438706L80.27125300089519,151.9477499116355L81.20463966369628,152.69909000464796L82.1380263264974,153.47192947639738L83.07141298929851,152.97463032974417L84.0047996520996,152.9125530911457L84.93818631490072,153.9947942049875L85.87157297770182,153.7938806730636L86.80495964050293,154.60447559743568L87.73834630330404,154.5539585920563L88.67173296610514,154.67393310361965L89.60511962890625,153.9670732486427L90.53850629170735,153.3061179043644L91.47189295450846,153.04655839651005L92.40527961730957,153.67239840357797L93.33866628011067,153.89892662245242L94.27205294291178,154.63599876030256L95.2054396057129,155.06700152128724L96.138826268514,154.88040408003204L97.07221293131511,155.54448147240453L98.0055995941162,155.6172489311523L98.93898625691732,156.05758345290485L99.87237291971843,156.45295235237325L100.80575958251953,156.13709531503181L101.73914624532064,156.81482039962734L102.67253290812174,156.53438991753376L103.60591957092285,155.82278335282248L104.53930623372396,156.43837010556024L105.47269289652506,156.47287991421177L106.40607955932617,156.55362965778494L107.33946622212729,155.87948925392342L108.27285288492838,156.35864034190894L109.2062395477295,156.62469124015283L110.1396262105306,157.2391911015492L111.0730128733317,157.31321177121623L112.00639953613282,157.81371365491717L112.93978619893392,158.47968967239353L113.87317286173503,158.5812965299063L114.80655952453613,157.88056009262746L115.73994618733724,157.9334127397661L116.67333285013835,157.5529434786686L117.60671951293945,157.53365799514458L118.54010617574056,157.77654612078697L119.47349283854167,157.51570662234738L120.40687950134277,158.0328852895535L121.34026616414388,157.80389721953296L122.27365282694498,158.00450888451257L123.2070394897461,158.433026687055L124.1404261525472,158.649102069953L125.0738128153483,158.4064625659524L126.00719947814942,157.97009370993263L126.94058614095051,157.9769401402375L127.87397280375163,158.2929811251951L128.80735946655275,158.59480278969434L129.74074612935382,159.19460360693762L130.67413279215495,159.43448153886675L131.60751945495605,158.83848262169363L132.54090611775715,159.10568683702056L133.47429278055827,159.05907287053168L134.40767944335937,159.31553698358775L135.3410661061605,158.86447126868L136.2744527689616,159.16098909662577L137.2078394317627,159.18487704532643L138.14122609456382,159.86158037699224L139.0746127573649,158.9291317485612L140.00799942016602,159.31508598563036L140.9413860829671,159.04710882537577L141.87477274576824,159.32869372363427L142.80815940856934,159.3083811852508L143.74154607137044,159.7661200450237L144.67493273417156,159.3846374904927L145.60831939697266,158.86128959006763L146.54170605977376,159.4261030226995L147.47509272257486,159.94460809571288L148.40847938537598,160.34530361395645L149.34186604817708,160.08755523564218L150.27525271097818,160.1787880118211L151.2086393737793,159.95210366933148L152.1420260365804,160.69274084757424L153.0754126993815,160.3729092909626L154.00879936218263,160.186983606813L154.94218602498373,160.59650946471038L155.87557268778482,160.56003929826244L156.80895935058595,160.7554594418842L157.74234601338705,160.78482412143177L158.67573267618815,160.56575233489107L159.60911933898925,160.67371694076724L160.54250600179037,160.59548727609044L161.47589266459147,160.5261051203539L162.40927932739257,160.88252552288535L163.3426659901937,160.5343011153651L164.2760526529948,160.60460772613328L165.2094393157959,160.69514870826802L166.14282597859702,161.03925384878528L167.07621264139812,161.51158005906336L168.0095993041992,161.26536604138064L168.94298596700034,161.08128547101035L169.87637262980144,160.9241823296404L170.80975929260254,160.73660362327016L171.74314595540363,161.05108673570916L172.67653261820476,161.18360231729957L173.60991928100586,160.97342140567625L174.54330594380696,160.93818612989406L175.47669260660808,161.0350687317711L176.41007926940918,161.28784062238975L177.34346593221028,161.8007884270558L178.2768525950114,161.53999550057034L179.2102392578125,161.56555578742768L180.1436259206136,161.0381863634923L181.0770125834147,161.00859285086634L182.01039924621583,161.25334647418933L182.94378590901692,161.0285894786575L183.87717257181802,160.7108803498355L184.81055923461915,160.66059906100952L185.74394589742025,160.4599839539334L186.67733256022134,161.18383245475505L187.61071922302247,161.48932985998403L188.54410588582357,161.3991646045357L189.47749254862467,161.9020234753351L190.4108792114258,162.0759778006912L191.3442658742269,162.0749607628423L192.277652537028,161.86812458441156L193.2110391998291,161.73601704224117L194.14442586263021,161.95456475492855L195.0778125254313,162.0522711071381L196.0111991882324,161.86949828001332L196.94458585103354,161.6988176771823L197.87797251383464,161.69637989328854" fill="none"></path></g><g><path style="fill: none;" stroke="rgb(204, 51, 17)" stroke-width="2px" d="M30.801759872436524,-5.325269921220001L31.73514653523763,3.7755425335315964L32.66853319803874,12.836851781418755L33.60191986083984,25.56247424681752L34.535306523640955,43.424442257764056L35.46869318644206,58.17534948908205L36.402079849243165,72.16295772384683L37.33546651204427,79.87683219027213L38.268853174845376,89.13774632267348L39.20223983764649,97.02696299738375L40.13562650044759,100.82745009755136L41.0690131632487,107.94296458441795L42.0023998260498,114.74396865442385L42.93578648885091,118.38751933674568L43.86917315165202,121.7042647200841L44.802559814453126,125.89107010163715L45.73594647725423,126.19751947150078L46.669333140055336,125.58372261839231L47.60271980285645,130.51154860588724L48.536106465657554,134.47925746245136L49.46949312845866,134.44093845070273L50.402879791259764,137.5417209312646L51.33626645406087,139.1421414438048L52.26965311686198,141.41314796623593L53.20303977966309,142.73411313171752L54.13642644246419,142.7353924373557L55.0698131052653,143.00269881052137L56.00319976806641,143.32493519706466L56.936586430867514,144.29039864614276L57.86997309366862,144.60978864046348L58.803359756469725,145.68992301936245L59.73674641927084,146.49867083550558L60.67013308207194,147.45680382966532L61.60351974487305,150.1024008524572L62.53690640767415,149.37393026253127L63.47029307047526,149.15376142719145L64.40367973327638,149.06234148526104L65.33706639607747,149.3003893760193L66.27045305887857,150.61876143005534L67.20383972167969,150.83832538829844L68.1372263844808,151.47119820937078L69.07061304728191,151.58817950633662L70.00399971008301,152.25189725687022L70.93738637288412,152.41829380985016L71.87077303568522,151.7888854543474L72.80415969848633,152.21024814263654L73.73754636128743,152.36058604791722L74.67093302408854,152.58207178920333L75.60431968688965,151.5776157143994L76.53770634969075,152.76575939343297L77.47109301249186,153.66688622759122L78.40447967529298,153.50170949511596L79.33786633809407,153.58051521116946L80.27125300089519,153.91021717684495L81.20463966369628,154.18575827434847L82.1380263264974,153.90820554049307L83.07141298929851,154.06804440825942L84.0047996520996,154.1873001247492L84.93818631490072,154.22657017709793L85.87157297770182,154.40664906969937L86.80495964050293,154.6863748738841L87.73834630330404,154.75572320659336L88.67173296610514,155.99351540011847L89.60511962890625,156.09512893935883L90.53850629170735,155.5810592373095L91.47189295450846,155.61439702303915L92.40527961730957,156.20607490584987L93.33866628011067,156.47139126701805L94.27205294291178,157.0206595401592L95.2054396057129,157.03606679731868L96.138826268514,157.1723902166567L97.07221293131511,156.55058661081873L98.0055995941162,156.27111019897245L98.93898625691732,156.01288696192378L99.87237291971843,156.52833778101822L100.80575958251953,157.2045236583403L101.73914624532064,157.1158985797502L102.67253290812174,157.63029783728757L103.60591957092285,157.95349129558625L104.53930623372396,158.25268228696987L105.47269289652506,157.85340790702446L106.40607955932617,157.90623731717432L107.33946622212729,157.70641697827548L108.27285288492838,158.43802556471633L109.2062395477295,157.75860442544655L110.1396262105306,157.85359109568333L111.0730128733317,157.94800258821633L112.00639953613282,158.2939897967286L112.93978619893392,158.03935724710317L113.87317286173503,158.2735444725363L114.80655952453613,158.1838585871112L115.73994618733724,158.65440825122897L116.67333285013835,158.8949564750162L117.60671951293945,159.27681238018698L118.54010617574056,158.83627489237233L119.47349283854167,158.6740407211307L120.40687950134277,159.01888436856896L121.34026616414388,159.00069081224441L122.27365282694498,158.90693651555182L123.2070394897461,158.99796016757492L124.1404261525472,158.90699654356422L125.0738128153483,158.56446149914427L126.00719947814942,159.4638911334207L126.94058614095051,159.98483517699356L127.87397280375163,159.7465057889459L128.80735946655275,160.0451490416628L129.74074612935382,160.4950950093819L130.67413279215495,160.41931703714687L131.60751945495605,160.48694168006702L132.54090611775715,160.37077397302264L133.47429278055827,160.74746333291063L134.40767944335937,160.82997867005605L135.3410661061605,160.66360005578412L136.2744527689616,160.66098304197823L137.2078394317627,160.3265455800621L138.14122609456382,160.19204505633735L139.0746127573649,160.2963056319406L140.00799942016602,160.0087349514126L140.9413860829671,159.89246339245233L141.87477274576824,160.37199822164897L142.80815940856934,160.69346425495723L143.74154607137044,160.14970116696688L144.67493273417156,161.14798950628318L145.60831939697266,160.3360505463453L146.54170605977376,160.68522160059118L147.47509272257486,160.59568062064815L148.40847938537598,160.1864866510733L149.34186604817708,160.44566083681016L150.27525271097818,160.58258942331753L151.2086393737793,160.78609931163814L152.1420260365804,160.9301852224462L153.0754126993815,161.05165224676975L154.00879936218263,161.05567338339532L154.94218602498373,160.78442781417587L155.87557268778482,161.40752987891443L156.80895935058595,161.1011623935937L157.74234601338705,161.51013410297702L158.67573267618815,161.49884055444036L159.60911933898925,161.09517063986368L160.54250600179037,161.28136498248278L161.47589266459147,161.68246058346585L162.40927932739257,161.5298142102391L163.3426659901937,161.18345751119338L164.2760526529948,161.49225565766918L165.2094393157959,161.80398784880987L166.14282597859702,161.5384238514526L167.07621264139812,161.7460434180775L168.0095993041992,161.98934100655336L168.94298596700034,161.96531023264708L169.87637262980144,162.10837721065786L170.80975929260254,162.08494422060107L171.74314595540363,161.86053760517635L172.67653261820476,161.93305500286846L173.60991928100586,161.64484231306278L174.54330594380696,161.73529882382664L175.47669260660808,161.8053375743604L176.41007926940918,161.92383140518905L177.34346593221028,161.9937439456275L178.2768525950114,162.37732642171008L179.2102392578125,162.19246572890222L180.1436259206136,162.09464735140216L181.0770125834147,162.10872907523859L182.01039924621583,162.0681093183466L182.94378590901692,162.3050198124066L183.87717257181802,162.31335193090794L184.81055923461915,162.5881197316209L185.74394589742025,162.62063531065465L186.67733256022134,162.4008995034602L187.61071922302247,162.37545025869034L188.54410588582357,162.0538980695265L189.47749254862467,161.93712531102818L190.4108792114258,162.08227552400226L191.3442658742269,162.2744669249978L192.277652537028,161.80451923570942L193.2110391998291,161.95389276504955L194.14442586263021,162.3161129355293L195.0778125254313,162.16809320103437L196.0111991882324,162.26550413341485L196.94458585103354,162.13511861476815L197.87797251383464,162.13156385621886L198.81135917663573,162.1426873805767L199.74474583943686,162.03685201598708L200.67813250223796,161.65545734646196L201.61151916503906,161.67830223966675L202.54490582784018,161.78395243861L203.47829249064128,162.12173976693117L204.41167915344238,162.0631853207232L205.34506581624348,162.33279693255935L206.2784524790446,162.26930657391313L207.2118391418457,162.3001671447923L208.1452258046468,162.31333542903283L209.07861246744793,162.60347397413165L210.01199913024902,162.61429258145694L210.94538579305012,162.81321633027306L211.87877245585125,162.77091513441198L212.81215911865235,163.03448942638158L213.74554578145344,162.30919179822803L214.67893244425457,162.42491635382277L215.61231910705567,162.4775067469957L216.54570576985677,162.74765956135408L217.47909243265786,162.92433252607142L218.412479095459,162.61815136868077L219.3458657582601,162.9343014559241L220.2792524210612,163.0599717244867L221.2126390838623,163.08299931580348L222.1460257466634,162.97311310593483L223.0794124094645,162.9450614478074L224.01279907226564,162.94715765605L224.94618573506673,163.0658141468972L225.87957239786783,162.6092073421878L226.81295906066896,162.76285592285143L227.74634572347006,162.81049195351113L228.67973238627116,163.04022091567586L229.61311904907225,162.9235958358483L230.54650571187338,162.88646282706813L231.47989237467448,163.07297522813113L232.41327903747558,163.10514233085436L233.3466657002767,163.0686700525257L234.2800523630778,163.08001022643916L235.2134390258789,162.87891847309135L236.14682568868002,163.10365826602168L237.08021235148112,163.40751618058292L238.01359901428222,163.37387534724493L238.94698567708335,163.2795280959736L239.88037233988445,163.21462355434863L240.81375900268554,163.23727721187387L241.74714566548664,162.89478994505464L242.68053232828777,163.27358321744157L243.61391899108887,163.58895401840755L244.54730565388996,163.47765345029092L245.4806923166911,163.71980136306954L246.4140789794922,163.8872375539638L247.3474656422933,163.7659449351869L248.2808523050944,163.8264108614714L249.2142389678955,163.76089050316787L250.1476256306966,163.79655156444224L251.0810122934977,163.84130468387715L252.01439895629883,163.72365823642207L252.94778561909993,163.75062106105426L253.88117228190103,163.62878767799063L254.81455894470216,163.5733600962421L255.74794560750325,163.55299553258988L256.6813322703043,163.3015295488423" fill="none"></path></g></g></g></g><g opacity="0.2"><g><g><g><path style="fill: none;" stroke="rgb(0, 119, 187)" stroke-width="2px" d="M29.86837320963542,-0.36425874955408594L30.801759872436524,0.6244600809560447L31.73514653523763,1.090626000382775L32.66853319803874,5.372691859770704L33.60191986083984,18.807227172617228L34.535306523640955,34.019260511559125L35.46869318644206,47.47694825018699L36.402079849243165,47.859347248486294L37.33546651204427,75.82585045963916L38.268853174845376,87.97595457958208L39.20223983764649,100.14594925645245L40.13562650044759,98.14568611687865L41.0690131632487,101.93515655535676L42.0023998260498,96.58287836807793L42.93578648885091,114.47397051543754L43.86917315165202,117.33873154752386L44.802559814453126,125.7179936175484L45.73594647725423,123.14854576810072L46.669333140055336,122.11185313448145L47.60271980285645,128.8282920176994L48.536106465657554,121.88383785679869L49.46949312845866,129.7732645487898L50.402879791259764,134.110506554578L51.33626645406087,129.56261549129906L52.26965311686198,134.69240609007184L53.20303977966309,138.51155269203915L54.13642644246419,139.71961509527185L55.0698131052653,140.91299148523802L56.00319976806641,141.63007799685204L56.936586430867514,139.9139243947974L57.86997309366862,143.26356337253304L58.803359756469725,143.10374890639454L59.73674641927084,140.15197239031872L60.67013308207194,143.00709418175333L61.60351974487305,142.30265596580017L62.53690640767415,143.72930920278918L63.47029307047526,146.96593468935868L64.40367973327638,146.5844633087754L65.33706639607747,143.5730930570123L66.27045305887857,148.9288897287017L67.20383972167969,148.9426139088447L68.1372263844808,146.25465719360574L69.07061304728191,146.5651087932331L70.00399971008301,146.0731083402436L70.93738637288412,147.68291285218208L71.87077303568522,149.3433143484759L72.80415969848633,151.21958275191315L73.73754636128743,151.11629974248544L74.67093302408854,150.3703534850237L75.60431968688965,152.14406120430394L76.53770634969075,152.52215571424674L77.47109301249186,150.34782929214225L78.40447967529298,150.26791065393718L79.33786633809407,152.73763199548722L80.27125300089519,152.5449916475082L81.20463966369628,153.82610014416665L82.1380263264974,154.63118868402148L83.07141298929851,152.2286816097644L84.0047996520996,152.81943723324798L84.93818631490072,155.6181558757502L85.87157297770182,153.49251037517774L86.80495964050293,155.8203679839938L87.73834630330404,154.47818308398718L88.67173296610514,154.8538948709647L89.60511962890625,152.90678346617727L90.53850629170735,152.314684887947L91.47189295450846,152.6572191347285L92.40527961730957,154.61115841417987L93.33866628011067,154.2387189507641L94.27205294291178,155.74160696707776L95.2054396057129,155.71350566276425L96.138826268514,154.60050791814925L97.07221293131511,156.54059756096325L98.0055995941162,155.7264001192739L98.93898625691732,156.71808523553375L99.87237291971843,157.04600570157578L100.80575958251953,155.66330975901974L101.73914624532064,157.83140802652056L102.67253290812174,156.1137441943934L103.60591957092285,154.75537350575559L104.53930623372396,157.36175023466689L105.47269289652506,156.52464462718905L106.40607955932617,156.6747542731447L107.33946622212729,154.86827864813117L108.27285288492838,157.07736697388725L109.2062395477295,157.02376758751865L110.1396262105306,158.1609408936438L111.0730128733317,157.42424277571675L112.00639953613282,158.56446648046855L112.93978619893392,159.47865369860807L113.87317286173503,158.73370681617544L114.80655952453613,156.82945543670914L115.73994618733724,158.01269171047412L116.67333285013835,156.98223958702235L117.60671951293945,157.50472976985853L118.54010617574056,158.14087830925058L119.47349283854167,157.12444737468795L120.40687950134277,158.80865329036268L121.34026616414388,157.46041511450215L122.27365282694498,158.30542638198202L123.2070394897461,159.07580339086863L124.1404261525472,158.97321514429996L125.0738128153483,158.04250330995157L126.00719947814942,157.31554042590295L126.94058614095051,157.9872097856948L127.87397280375163,158.76704260263145L128.80735946655275,159.04753528644326L129.74074612935382,160.09430483280255L130.67413279215495,159.79429843676047L131.60751945495605,157.94448424593395L132.54090611775715,159.50649316001096L133.47429278055827,158.98915192079835L134.40767944335937,159.70023315317184L135.3410661061605,158.18787269631838L136.2744527689616,159.60576583854441L137.2078394317627,159.22070896837744L138.14122609456382,160.87663537449097L139.0746127573649,157.53045880591463L140.00799942016602,159.89401734123416L140.9413860829671,158.64514308499386L141.87477274576824,159.75107107102207L142.80815940856934,159.27791237767553L143.74154607137044,160.45272833468312L144.67493273417156,158.8124136586962L145.60831939697266,158.07626773943002L146.54170605977376,160.27332317164732L147.47509272257486,160.72236570523296L148.40847938537598,160.94634689132172L149.34186604817708,159.70093266817082L150.27525271097818,160.3156371760895L151.2086393737793,159.612077155597L152.1420260365804,161.80369661493845L153.0754126993815,159.89316195604516L154.00879936218263,159.90809508058857L154.94218602498373,161.21079825155647L155.87557268778482,160.50533404859053L156.80895935058595,161.04858965731685L157.74234601338705,160.8288711407531L158.67573267618815,160.23714465508002L159.60911933898925,160.83566384958147L160.54250600179037,160.47814277907528L161.47589266459147,160.42203188674907L162.40927932739257,161.41715612668256L163.3426659901937,160.0119645040847L164.2760526529948,160.7100676422856L165.2094393157959,160.83096018147015L166.14282597859702,161.55541155956115L167.07621264139812,162.2200693744805L168.0095993041992,160.8960450148566L168.94298596700034,160.80516461545488L169.87637262980144,160.68852761758544L170.80975929260254,160.45523556371478L171.74314595540363,161.52281140436767L172.67653261820476,161.38237568968523L173.60991928100586,160.65815003824127L174.54330594380696,160.88533321622077L175.47669260660808,161.18039263458667L176.41007926940918,161.66699845831775L177.34346593221028,162.57021013405486L178.2768525950114,161.14880611084212L179.2102392578125,161.60389621771373L180.1436259206136,160.24713222758916L181.0770125834147,160.9642025819274L182.01039924621583,161.62047690917385L182.94378590901692,160.6914539853597L183.87717257181802,160.2343166566025L184.81055923461915,160.5851771277706L185.74394589742025,160.15906129331924L186.67733256022134,162.2696052059875L187.61071922302247,161.94757596782748L188.54410588582357,161.26391672136324L189.47749254862467,162.6563117815342L190.4108792114258,162.3369092887253L191.3442658742269,162.07343520606895L192.277652537028,161.55787031676545L193.2110391998291,161.53785572898562L194.14442586263021,162.28238632395963L195.0778125254313,162.19883063545242L196.0111991882324,161.5953390393261L196.94458585103354,161.44279677293582L197.87797251383464,161.6927232174479" fill="none"></path></g><g><path style="fill: none;" stroke="rgb(204, 51, 17)" stroke-width="2px" d="M29.86837320963542,-7.821103845493234L30.801759872436524,2.532174344795676L31.73514653523763,17.289188383751025L32.66853319803874,26.34663024528345L33.60191986083984,44.58165566942255L34.535306523640955,70.1590718495052L35.46869318644206,80.27281177318802L36.402079849243165,93.1279281675887L37.33546651204427,91.44220346798954L38.268853174845376,103.02519861278385L39.20223983764649,108.85878493819008L40.13562650044759,106.52760178184495L41.0690131632487,118.6155859285092L42.0023998260498,124.94510177620624L42.93578648885091,123.85272546764122L43.86917315165202,126.67931731173988L44.802559814453126,132.1712285772655L45.73594647725423,126.6571913481853L46.669333140055336,124.66302995629279L47.60271980285645,137.90327497817356L48.536106465657554,140.4308146559298L49.46949312845866,134.38345996837705L50.402879791259764,142.19289293835203L51.33626645406087,141.54277168189822L52.26965311686198,144.81965729802837L53.20303977966309,144.71556072224314L54.13642644246419,142.73731139572138L55.0698131052653,143.4036583587819L56.00319976806641,143.8082897685704L56.936586430867514,145.73859380482264L57.86997309366862,145.08887362897963L58.803359756469725,147.31012458169482L59.73674641927084,147.71179255701753L60.67013308207194,148.89400331898372L61.60351974487305,154.0707963834622L62.53690640767415,148.28122437816822L63.47029307047526,148.8235081742771L64.40367973327638,148.92521157238917L65.33706639607747,149.65746121211959L66.27045305887857,152.5963195109861L67.20383972167969,151.1676713256508L68.1372263844808,152.42050744095795L69.07061304728191,151.76365145178298L70.00399971008301,153.24747388266258L70.93738637288412,152.66788863931887L71.87077303568522,150.84477292109597L72.80415969848633,152.8422921750692L73.73754636128743,152.586092905838L74.67093302408854,152.9143004011323L75.60431968688965,150.07093160219407L76.53770634969075,154.5479749119829L77.47109301249186,155.0185764788284L78.40447967529298,153.2539443964031L79.33786633809407,153.6987237852497L80.27125300089519,154.40477012535817L81.20463966369628,154.5990699206038L82.1380263264974,153.49187643970993L83.07141298929851,154.30780270990897L84.0047996520996,154.36618369948388L84.93818631490072,154.28547525562098L85.87157297770182,154.67676740860153L86.80495964050293,155.10596358016116L87.73834630330404,154.85974570565725L88.67173296610514,157.85020369040612L89.60511962890625,156.2475492482194L90.53850629170735,154.80995468423552L91.47189295450846,155.66440370163363L92.40527961730957,157.09359173006598L93.33866628011067,156.86936580877034L94.27205294291178,157.8445619498709L95.2054396057129,157.05917768305787L96.138826268514,157.37687534566376L97.07221293131511,155.61788120206174L98.0055995941162,155.8518955812031L98.93898625691732,155.6255521063508L99.87237291971843,157.30151400965988L100.80575958251953,158.2188024743234L101.73914624532064,156.98296096186502L102.67253290812174,158.4018967235936L103.60591957092285,158.43828148303427L104.53930623372396,158.7014687740453L105.47269289652506,157.2544963371064L106.40607955932617,157.98548143239913L107.33946622212729,157.40668646992722L108.27285288492838,159.53543844437758L109.2062395477295,156.73947271654188L110.1396262105306,157.99607110103852L111.0730128733317,158.0896198270158L112.00639953613282,158.812970609497L112.93978619893392,157.65740842266504L113.87317286173503,158.62482531068596L114.80655952453613,158.0493297589735L115.73994618733724,159.36023274740563L116.67333285013835,159.25577881069705L117.60671951293945,159.84959623794313L118.54010617574056,158.1754686606504L119.47349283854167,158.4306894642682L120.40687950134277,159.53614983972642L121.34026616414388,158.97340047775756L122.27365282694498,158.76630507051297L123.2070394897461,159.13449564560952L124.1404261525472,158.7705511075482L125.0738128153483,158.05065893251435L126.00719947814942,160.81303558483538L126.94058614095051,160.76625124235284L127.87397280375163,159.3890117068744L128.80735946655275,160.49311392073815L129.74074612935382,161.17001396096055L130.67413279215495,160.30565007879432L131.60751945495605,160.58837864444732L132.54090611775715,160.19652241245603L133.47429278055827,161.3124973727426L134.40767944335937,160.9537516757742L135.3410661061605,160.41403213437627L136.2744527689616,160.6570575212694L137.2078394317627,159.82488938718785L138.14122609456382,159.99029427075024L139.0746127573649,160.45269649534552L140.00799942016602,159.57737893062057L140.9413860829671,159.71805605401195L141.87477274576824,161.0913004654439L142.80815940856934,161.17566330491968L143.74154607137044,159.3340565349813L144.67493273417156,162.64542201525768L145.60831939697266,159.11814210643848L146.54170605977376,161.20897818195994L147.47509272257486,160.46136915073365L148.40847938537598,159.572695696711L149.34186604817708,160.8344221154155L150.27525271097818,160.78798230307854L151.2086393737793,161.0913641441191L152.1420260365804,161.14631408865827L153.0754126993815,161.23385278325506L154.00879936218263,161.06170508833367L154.94218602498373,160.37755946034676L155.87557268778482,162.3421829760223L156.80895935058595,160.64161116561263L157.74234601338705,162.12359166705198L158.67573267618815,161.48190023163542L159.60911933898925,160.48966576799864L160.54250600179037,161.5606564964115L161.47589266459147,162.28410398494046L162.40927932739257,161.30084465039891L163.3426659901937,160.66392246262484L164.2760526529948,161.95545287738287L165.2094393157959,162.27158613552092L166.14282597859702,161.1400778554167L167.07621264139812,162.05747276801486L168.0095993041992,162.35428738926714L168.94298596700034,161.92926407178768L169.87637262980144,162.322977677674L170.80975929260254,162.04979473551592L171.74314595540363,161.52392768203927L172.67653261820476,162.04183109940664L173.60991928100586,161.2125232783542L174.54330594380696,161.87098358997247L175.47669260660808,161.91039570016108L176.41007926940918,162.101572151432L177.34346593221028,162.09861275628518L178.2768525950114,162.95270013583396L179.2102392578125,161.91517468969042L180.1436259206136,161.94791978515204L181.0770125834147,162.1298516609932L182.01039924621583,162.00717968300862L182.94378590901692,162.66038555349664L183.87717257181802,162.32585010865995L184.81055923461915,163.0002714326903L185.74394589742025,162.66940867920525L186.67733256022134,162.07129579266856L187.61071922302247,162.33727639153557L188.54410588582357,161.57156978578072L189.47749254862467,161.7619661732807L190.4108792114258,162.3000008434634L191.3442658742269,162.56275402649104L192.277652537028,161.09959770177687L193.2110391998291,162.17795305905975L194.14442586263021,162.85944319124891L195.0778125254313,161.94606359929196L196.0111991882324,162.41162053198556L196.94458585103354,161.93954033679813L197.87797251383464,162.1262317183949L198.81135917663573,162.15937266711342L199.74474583943686,161.87809896910267L200.67813250223796,161.08336534217426L201.61151916503906,161.71256957947392L202.54490582784018,161.94242773702487L203.47829249064128,162.628420759413L204.41167915344238,161.97535365141115L205.34506581624348,162.7372143503136L206.2784524790446,162.17407103594383L207.2118391418457,162.34645800111113L208.1452258046468,162.33308785539361L209.07861246744793,163.03868179177985L210.01199913024902,162.6305204924449L210.94538579305012,163.11160195349723L211.87877245585125,162.70746334062036L212.81215911865235,163.429850864336L213.74554578145344,161.2212453559977L214.67893244425457,162.5985031872149L215.61231910705567,162.5563923367551L216.54570576985677,163.15288878289167L217.47909243265786,163.18934197314744L218.412479095459,162.1588796325948L219.3458657582601,163.40852658678907L220.2792524210612,163.2484771273306L221.2126390838623,163.11754070277863L222.1460257466634,162.80828379113186L223.0794124094645,162.90298396061627L224.01279907226564,162.9503019684139L224.94618573506673,163.24379888316798L225.87957239786783,161.92429713512377L226.81295906066896,162.9933287938469L227.74634572347006,162.88194599950066L228.67973238627116,163.38481435892297L229.61311904907225,162.748658216107L230.54650571187338,162.83076331389788L231.47989237467448,163.35274382972563L232.41327903747558,163.15339298493916L233.3466657002767,163.01396163503273L234.2800523630778,163.09702048730932L235.2134390258789,162.57728084306964L236.14682568868002,163.4407679554172L237.08021235148112,163.86330305242473L238.01359901428222,163.323414097238L238.94698567708335,163.13800721906662L239.88037233988445,163.11726674191115L240.81375900268554,163.27125769816178L241.74714566548664,162.3810590448258L242.68053232828777,163.84177312602196L243.61391899108887,164.06201021985655L244.54730565388996,163.31070259811594L245.4806923166911,164.08302323223748L246.4140789794922,164.13839184030525L247.3474656422933,163.5840060070215L248.2808523050944,163.91710975089816L249.2142389678955,163.66260996571256L250.1476256306966,163.8500431563538L251.0810122934977,163.90843436302956L252.01439895629883,163.54718856523942L252.94778561909993,163.79106529800256L253.88117228190103,163.4460376033952L254.81455894470216,163.49021872361928L255.74794560750325,163.52244868711156L256.6813322703043,162.92433057322094" fill="none"></path></g></g></g></g></g></g><g transform="translate(49, 178)" clip-path="url(#clip_1)"><clipPath id="clip_1"><rect width="280" height="21"></rect></clipPath><g><g><line x1="0" y1="0" x2="0" y2="5" style="visibility: inherit;" fill="rgb(0, 0, 0)" stroke="rgb(204, 204, 204)" stroke-width="1px"></line><line x1="23.334666570027668" y1="0" x2="23.334666570027668" y2="5" style="visibility: inherit;" fill="rgb(0, 0, 0)" stroke="rgb(204, 204, 204)" stroke-width="1px"></line><line x1="46.669333140055336" y1="0" x2="46.669333140055336" y2="5" style="visibility: inherit;" fill="rgb(0, 0, 0)" stroke="rgb(204, 204, 204)" stroke-width="1px"></line><line x1="70.00399971008301" y1="0" x2="70.00399971008301" y2="5" style="visibility: inherit;" fill="rgb(0, 0, 0)" stroke="rgb(204, 204, 204)" stroke-width="1px"></line><line x1="93.33866628011067" y1="0" x2="93.33866628011067" y2="5" style="visibility: inherit;" fill="rgb(0, 0, 0)" stroke="rgb(204, 204, 204)" stroke-width="1px"></line><line x1="116.67333285013835" y1="0" x2="116.67333285013835" y2="5" style="visibility: inherit;" fill="rgb(0, 0, 0)" stroke="rgb(204, 204, 204)" stroke-width="1px"></line><line x1="140.00799942016602" y1="0" x2="140.00799942016602" y2="5" style="visibility: inherit;" fill="rgb(0, 0, 0)" stroke="rgb(204, 204, 204)" stroke-width="1px"></line><line x1="163.3426659901937" y1="0" x2="163.3426659901937" y2="5" style="visibility: inherit;" fill="rgb(0, 0, 0)" stroke="rgb(204, 204, 204)" stroke-width="1px"></line><line x1="186.67733256022134" y1="0" x2="186.67733256022134" y2="5" style="visibility: inherit;" fill="rgb(0, 0, 0)" stroke="rgb(204, 204, 204)" stroke-width="1px"></line><line x1="210.01199913024902" y1="0" x2="210.01199913024902" y2="5" style="visibility: inherit;" fill="rgb(0, 0, 0)" stroke="rgb(204, 204, 204)" stroke-width="1px"></line><line x1="233.3466657002767" y1="0" x2="233.3466657002767" y2="5" style="visibility: inherit;" fill="rgb(0, 0, 0)" stroke="rgb(204, 204, 204)" stroke-width="1px"></line><line x1="256.6813322703043" y1="0" x2="256.6813322703043" y2="5" style="visibility: inherit;" fill="rgb(0, 0, 0)" stroke="rgb(204, 204, 204)" stroke-width="1px"></line><line x1="280.01599884033203" y1="0" x2="280.01599884033203" y2="5" style="visibility: inherit;" fill="rgb(0, 0, 0)" stroke="rgb(204, 204, 204)" stroke-width="1px"></line></g><g transform="translate(0, 8)"><text style="text-anchor: middle; visibility: hidden; font-family: Roboto, sans-serif; font-size: 12px; font-weight: 200;" x="0" y="0" dx="0em" dy="0.95em" fill="rgb(50, 49, 63)" stroke="none" stroke-width="1px">-500</text><text style="text-anchor: middle; visibility: hidden; font-family: Roboto, sans-serif; font-size: 12px; font-weight: 200;" x="23.334666570027668" y="0" dx="0em" dy="0.95em" fill="rgb(50, 49, 63)" stroke="none" stroke-width="1px">0</text><text style="text-anchor: middle; visibility: hidden; font-family: Roboto, sans-serif; font-size: 12px; font-weight: 200;" x="46.669333140055336" y="0" dx="0em" dy="0.95em" fill="rgb(50, 49, 63)" stroke="none" stroke-width="1px">500</text><text style="text-anchor: middle; visibility: hidden; font-family: Roboto, sans-serif; font-size: 12px; font-weight: 200;" x="70.00399971008301" y="0" dx="0em" dy="0.95em" fill="rgb(50, 49, 63)" stroke="none" stroke-width="1px">1k</text><text style="text-anchor: middle; visibility: hidden; font-family: Roboto, sans-serif; font-size: 12px; font-weight: 200;" x="93.33866628011067" y="0" dx="0em" dy="0.95em" fill="rgb(50, 49, 63)" stroke="none" stroke-width="1px">1.5k</text><text style="text-anchor: middle; visibility: hidden; font-family: Roboto, sans-serif; font-size: 12px; font-weight: 200;" x="116.67333285013835" y="0" dx="0em" dy="0.95em" fill="rgb(50, 49, 63)" stroke="none" stroke-width="1px">2k</text><text style="text-anchor: middle; visibility: hidden; font-family: Roboto, sans-serif; font-size: 12px; font-weight: 200;" x="140.00799942016602" y="0" dx="0em" dy="0.95em" fill="rgb(50, 49, 63)" stroke="none" stroke-width="1px">2.5k</text><text style="text-anchor: middle; visibility: hidden; font-family: Roboto, sans-serif; font-size: 12px; font-weight: 200;" x="163.3426659901937" y="0" dx="0em" dy="0.95em" fill="rgb(50, 49, 63)" stroke="none" stroke-width="1px">3k</text><text style="text-anchor: middle; visibility: hidden; font-family: Roboto, sans-serif; font-size: 12px; font-weight: 200;" x="186.67733256022134" y="0" dx="0em" dy="0.95em" fill="rgb(50, 49, 63)" stroke="none" stroke-width="1px">3.5k</text><text style="text-anchor: middle; visibility: hidden; font-family: Roboto, sans-serif; font-size: 12px; font-weight: 200;" x="210.01199913024902" y="0" dx="0em" dy="0.95em" fill="rgb(50, 49, 63)" stroke="none" stroke-width="1px">4k</text><text style="text-anchor: middle; visibility: hidden; font-family: Roboto, sans-serif; font-size: 12px; font-weight: 200;" x="233.3466657002767" y="0" dx="0em" dy="0.95em" fill="rgb(50, 49, 63)" stroke="none" stroke-width="1px">4.5k</text><text style="text-anchor: middle; visibility: hidden; font-family: Roboto, sans-serif; font-size: 12px; font-weight: 200;" x="256.6813322703043" y="0" dx="0em" dy="0.95em" fill="rgb(50, 49, 63)" stroke="none" stroke-width="1px">5k</text><text style="text-anchor: middle; visibility: hidden; font-family: Roboto, sans-serif; font-size: 12px; font-weight: 200;" x="280.01599884033203" y="0" dx="0em" dy="0.95em" fill="rgb(50, 49, 63)" stroke="none" stroke-width="1px">5.5k</text></g><line x1="0" y1="0" x2="280.01599884033203" y2="0" fill="rgb(0, 0, 0)" stroke="rgb(204, 204, 204)" stroke-width="1px"></line></g></g></g></g></svg>