<svg viewBox="0 0 330 200" xmlns="http://www.w3.org/2000/svg"><g><g><g><g><g><line x1="49.98400115966797" y1="178.58999919891357" x2="44.98400115966797" y2="178.58999919891357" style="visibility: inherit;" fill="rgb(0, 0, 0)" stroke="rgb(204, 204, 204)" stroke-width="1px"></line><line x1="49.98400115966797" y1="158.74666595458984" x2="44.98400115966797" y2="158.74666595458984" style="visibility: inherit;" fill="rgb(0, 0, 0)" stroke="rgb(204, 204, 204)" stroke-width="1px"></line><line x1="49.98400115966797" y1="138.9033327102661" x2="44.98400115966797" y2="138.9033327102661" style="visibility: inherit;" fill="rgb(0, 0, 0)" stroke="rgb(204, 204, 204)" stroke-width="1px"></line><line x1="49.98400115966797" y1="119.0599994659424" x2="44.98400115966797" y2="119.0599994659424" style="visibility: inherit;" fill="rgb(0, 0, 0)" stroke="rgb(204, 204, 204)" stroke-width="1px"></line><line x1="49.98400115966797" y1="99.21666622161865" x2="44.98400115966797" y2="99.21666622161865" style="visibility: inherit;" fill="rgb(0, 0, 0)" stroke="rgb(204, 204, 204)" stroke-width="1px"></line><line x1="49.98400115966797" y1="79.37333297729492" x2="44.98400115966797" y2="79.37333297729492" style="visibility: inherit;" fill="rgb(0, 0, 0)" stroke="rgb(204, 204, 204)" stroke-width="1px"></line><line x1="49.98400115966797" y1="59.5299997329712" x2="44.98400115966797" y2="59.5299997329712" style="visibility: inherit;" fill="rgb(0, 0, 0)" stroke="rgb(204, 204, 204)" stroke-width="1px"></line><line x1="49.98400115966797" y1="39.68666648864746" x2="44.98400115966797" y2="39.68666648864746" style="visibility: inherit;" fill="rgb(0, 0, 0)" stroke="rgb(204, 204, 204)" stroke-width="1px"></line><line x1="49.98400115966797" y1="19.843333244323738" x2="44.98400115966797" y2="19.843333244323738" style="visibility: inherit;" fill="rgb(0, 0, 0)" stroke="rgb(204, 204, 204)" stroke-width="1px"></line><line x1="49.98400115966797" y1="0" x2="44.98400115966797" y2="0" style="visibility: inherit;" fill="rgb(0, 0, 0)" stroke="rgb(204, 204, 204)" stroke-width="1px"></line></g><g transform="translate(39.98400115966797, 0)"><text style="text-anchor: end; visibility: hidden; font-family: Roboto, sans-serif; font-size: 12px; font-weight: 200;" x="0" y="178.58999919891357" dx="0em" dy="0.3em" fill="rgb(50, 49, 63)" stroke="none" stroke-width="1px">-0.5</text><text style="text-anchor: end; visibility: inherit; font-family: Roboto, sans-serif; font-size: 12px; font-weight: 200;" x="0" y="158.74666595458984" dx="0em" dy="0.3em" fill="rgb(50, 49, 63)" stroke="none" stroke-width="1px">0</text><text style="text-anchor: end; visibility: hidden; font-family: Roboto, sans-serif; font-size: 12px; font-weight: 200;" x="0" y="138.9033327102661" dx="0em" dy="0.3em" fill="rgb(50, 49, 63)" stroke="none" stroke-width="1px">0.5</text><text style="text-anchor: end; visibility: inherit; font-family: Roboto, sans-serif; font-size: 12px; font-weight: 200;" x="0" y="119.0599994659424" dx="0em" dy="0.3em" fill="rgb(50, 49, 63)" stroke="none" stroke-width="1px">1</text><text style="text-anchor: end; visibility: hidden; font-family: Roboto, sans-serif; font-size: 12px; font-weight: 200;" x="0" y="99.21666622161865" dx="0em" dy="0.3em" fill="rgb(50, 49, 63)" stroke="none" stroke-width="1px">1.5</text><text style="text-anchor: end; visibility: inherit; font-family: Roboto, sans-serif; font-size: 12px; font-weight: 200;" x="0" y="79.37333297729492" dx="0em" dy="0.3em" fill="rgb(50, 49, 63)" stroke="none" stroke-width="1px">2</text><text style="text-anchor: end; visibility: hidden; font-family: Roboto, sans-serif; font-size: 12px; font-weight: 200;" x="0" y="59.5299997329712" dx="0em" dy="0.3em" fill="rgb(50, 49, 63)" stroke="none" stroke-width="1px">2.5</text><text style="text-anchor: end; visibility: inherit; font-family: Roboto, sans-serif; font-size: 12px; font-weight: 200;" x="0" y="39.68666648864746" dx="0em" dy="0.3em" fill="rgb(50, 49, 63)" stroke="none" stroke-width="1px">3</text><text style="text-anchor: end; visibility: hidden; font-family: Roboto, sans-serif; font-size: 12px; font-weight: 200;" x="0" y="19.843333244323738" dx="0em" dy="0.3em" fill="rgb(50, 49, 63)" stroke="none" stroke-width="1px">3.5</text><text style="text-anchor: end; visibility: hidden; font-family: Roboto, sans-serif; font-size: 12px; font-weight: 200;" x="0" y="0" dx="0em" dy="0.3em" fill="rgb(50, 49, 63)" stroke="none" stroke-width="1px">4</text></g><line x1="49.98400115966797" y1="0" x2="49.98400115966797" y2="178.58999919891357" fill="rgb(0, 0, 0)" stroke="rgb(204, 204, 204)" stroke-width="1px"></line></g></g><g transform="translate(49, 0)" clip-path="url(#clip_0)"><clipPath id="clip_0"><rect width="280" height="178"></rect></clipPath><g><g><g><line x1="0" y1="0" x2="0" y2="178.58999919891357" fill="rgb(0, 0, 0)" stroke="rgb(60, 60, 60)" stroke-width="1px" opacity="0.25"></line><line x1="23.334666570027668" y1="0" x2="23.334666570027668" y2="178.58999919891357" fill="rgb(0, 0, 0)" stroke="rgb(60, 60, 60)" stroke-width="1px" opacity="0.25"></line><line x1="46.669333140055336" y1="0" x2="46.669333140055336" y2="178.58999919891357" fill="rgb(0, 0, 0)" stroke="rgb(60, 60, 60)" stroke-width="1px" opacity="0.25"></line><line x1="70.00399971008301" y1="0" x2="70.00399971008301" y2="178.58999919891357" fill="rgb(0, 0, 0)" stroke="rgb(60, 60, 60)" stroke-width="1px" opacity="0.25"></line><line x1="93.33866628011067" y1="0" x2="93.33866628011067" y2="178.58999919891357" fill="rgb(0, 0, 0)" stroke="rgb(60, 60, 60)" stroke-width="1px" opacity="0.25"></line><line x1="116.67333285013835" y1="0" x2="116.67333285013835" y2="178.58999919891357" fill="rgb(0, 0, 0)" stroke="rgb(60, 60, 60)" stroke-width="1px" opacity="0.25"></line><line x1="140.00799942016602" y1="0" x2="140.00799942016602" y2="178.58999919891357" fill="rgb(0, 0, 0)" stroke="rgb(60, 60, 60)" stroke-width="1px" opacity="0.25"></line><line x1="163.3426659901937" y1="0" x2="163.3426659901937" y2="178.58999919891357" fill="rgb(0, 0, 0)" stroke="rgb(60, 60, 60)" stroke-width="1px" opacity="0.25"></line><line x1="186.67733256022134" y1="0" x2="186.67733256022134" y2="178.58999919891357" fill="rgb(0, 0, 0)" stroke="rgb(60, 60, 60)" stroke-width="1px" opacity="0.25"></line><line x1="210.01199913024902" y1="0" x2="210.01199913024902" y2="178.58999919891357" fill="rgb(0, 0, 0)" stroke="rgb(60, 60, 60)" stroke-width="1px" opacity="0.25"></line><line x1="233.3466657002767" y1="0" x2="233.3466657002767" y2="178.58999919891357" fill="rgb(0, 0, 0)" stroke="rgb(60, 60, 60)" stroke-width="1px" opacity="0.25"></line><line x1="256.6813322703043" y1="0" x2="256.6813322703043" y2="178.58999919891357" fill="rgb(0, 0, 0)" stroke="rgb(60, 60, 60)" stroke-width="1px" opacity="0.25"></line><line x1="280.01599884033203" y1="0" x2="280.01599884033203" y2="178.58999919891357" fill="rgb(0, 0, 0)" stroke="rgb(60, 60, 60)" stroke-width="1px" opacity="0.25"></line></g><g><line x1="0" y1="178.58999919891357" x2="280.01599884033203" y2="178.58999919891357" fill="rgb(0, 0, 0)" stroke="rgb(60, 60, 60)" stroke-width="1px" opacity="0.25"></line><line x1="0" y1="158.74666595458984" x2="280.01599884033203" y2="158.74666595458984" fill="rgb(0, 0, 0)" stroke="rgb(60, 60, 60)" stroke-width="1px" opacity="0.25"></line><line x1="0" y1="138.9033327102661" x2="280.01599884033203" y2="138.9033327102661" fill="rgb(0, 0, 0)" stroke="rgb(60, 60, 60)" stroke-width="1px" opacity="0.25"></line><line x1="0" y1="119.0599994659424" x2="280.01599884033203" y2="119.0599994659424" fill="rgb(0, 0, 0)" stroke="rgb(60, 60, 60)" stroke-width="1px" opacity="0.25"></line><line x1="0" y1="99.21666622161865" x2="280.01599884033203" y2="99.21666622161865" fill="rgb(0, 0, 0)" stroke="rgb(60, 60, 60)" stroke-width="1px" opacity="0.25"></line><line x1="0" y1="79.37333297729492" x2="280.01599884033203" y2="79.37333297729492" fill="rgb(0, 0, 0)" stroke="rgb(60, 60, 60)" stroke-width="1px" opacity="0.25"></line><line x1="0" y1="59.5299997329712" x2="280.01599884033203" y2="59.5299997329712" fill="rgb(0, 0, 0)" stroke="rgb(60, 60, 60)" stroke-width="1px" opacity="0.25"></line><line x1="0" y1="39.68666648864746" x2="280.01599884033203" y2="39.68666648864746" fill="rgb(0, 0, 0)" stroke="rgb(60, 60, 60)" stroke-width="1px" opacity="0.25"></line><line x1="0" y1="19.843333244323738" x2="280.01599884033203" y2="19.843333244323738" fill="rgb(0, 0, 0)" stroke="rgb(60, 60, 60)" stroke-width="1px" opacity="0.25"></line><line x1="0" y1="0" x2="280.01599884033203" y2="0" fill="rgb(0, 0, 0)" stroke="rgb(60, 60, 60)" stroke-width="1px" opacity="0.25"></line></g></g></g><g><g><line x1="0" y1="158.74666595458984" x2="280.01599884033203" y2="158.74666595458984" fill="rgb(0, 0, 0)" stroke="rgb(153, 153, 153)" stroke-width="1.5px"></line></g></g><g><g><line x1="23.334666570027668" y1="0" x2="23.334666570027668" y2="178.58999919891357" fill="rgb(0, 0, 0)" stroke="rgb(153, 153, 153)" stroke-width="1.5px"></line></g></g><g><g><g><g><g><path style="fill: none;" stroke="rgb(0, 119, 187)" stroke-width="2px" d="M28.001599884033205,-7.939253598143547L28.93498654683431,2.5769883943971914L29.86837320963542,10.947475310352068L30.801759872436524,-3.4999056240083712L31.73514653523763,1.787966285534972L32.66853319803874,3.733656654235516L33.60191986083984,14.218518803171728L34.535306523640955,17.835713805014553L35.46869318644206,20.91259947230618L36.402079849243165,27.734061388936112L37.33546651204427,38.36998499859627L38.268853174845376,44.83004052935249L39.20223983764649,50.2944803529403L40.13562650044759,54.82511318307312L41.0690131632487,61.85333774282723L42.0023998260498,60.6640618181662L42.93578648885091,66.18206653647164L43.86917315165202,72.24689587751729L44.802559814453126,79.40957707393366L45.73594647725423,83.67452940640392L46.669333140055336,83.83871510911365L47.60271980285645,89.51108624913093L48.536106465657554,89.54806308945757L49.46949312845866,93.74095459842727L50.402879791259764,97.79093570978546L51.33626645406087,100.66426768255914L52.26965311686198,104.81310913311476L53.20303977966309,107.08515212787117L54.13642644246419,111.17418877607106L55.0698131052653,114.81385703184714L56.00319976806641,115.21205201502306L56.936586430867514,116.46847311786598L57.86997309366862,117.7003375598923L58.803359756469725,118.11443424819188L59.73674641927084,119.73617943254804L60.67013308207194,121.44300385357538L61.60351974487305,120.89400903423478L62.53690640767415,121.11533023134034L63.47029307047526,123.15758410882287L64.40367973327638,125.63691676021763L65.33706639607747,125.51075714601053L66.27045305887857,128.8765647370773L67.20383972167969,130.6342573915346L68.1372263844808,130.70431285481177L69.07061304728191,131.40865477378878L70.00399971008301,131.30045564329507L70.93738637288412,132.97144082650243L71.87077303568522,133.10051356144697L72.80415969848633,134.8153544721078L73.73754636128743,136.35424113816032L74.67093302408854,137.01607266848478L75.60431968688965,137.0567810629368L76.53770634969075,137.60817163240822L77.47109301249186,137.70770360108344L78.40447967529298,138.35520793391524L79.33786633809407,139.26156648872L80.27125300089519,139.6740447405544L81.20463966369628,140.2524929865699L82.1380263264974,141.57655148642723L83.07141298929851,140.551370322849L84.0047996520996,140.27399158895338L84.93818631490072,141.30479704311676L85.87157297770182,141.9869877486322L86.80495964050293,143.3967528489813L87.73834630330404,144.06597599128636L88.67173296610514,143.76347932251284L89.60511962890625,143.36164403171165L90.53850629170735,142.52698018481473L91.47189295450846,143.30993592554395L92.40527961730957,144.27748545980114L93.33866628011067,143.85702422090964L94.27205294291178,145.28615363515559L95.2054396057129,145.4887583857573L96.138826268514,145.35262450634266L97.07221293131511,146.29987133410316L98.0055995941162,145.89726145503832L98.93898625691732,146.79659360958595L99.87237291971843,146.75869393288642L100.80575958251953,146.6448365872338L101.73914624532064,147.9231207238037L102.67253290812174,147.7421368652483L103.60591957092285,147.90635794040392L104.53930623372396,148.21673001813764L105.47269289652506,148.34852194133478L106.40607955932617,147.60993549984101L107.33946622212729,147.76628137109384L108.27285288492838,148.1106626009379L109.2062395477295,148.5611332785509L110.1396262105306,148.80152250301487L111.0730128733317,148.120153662909L112.00639953613282,148.93612395051915L112.93978619893392,149.39732899612144L113.87317286173503,149.9798180384754L114.80655952453613,148.8806052224206L115.73994618733724,149.51387397887524L116.67333285013835,149.26129747699653L117.60671951293945,149.24338678610187L118.54010617574056,149.2401527571381L119.47349283854167,149.498848451837L120.40687950134277,150.28955956527696L121.34026616414388,150.38193111255995L122.27365282694498,150.78491127850586L123.2070394897461,151.1907857941382L124.1404261525472,150.61649160171325L125.0738128153483,150.34596310819634L126.00719947814942,150.7263033897561L126.94058614095051,150.62021207791364L127.87397280375163,151.28200209424904L128.80735946655275,151.2126524792428L129.74074612935382,151.55108951332002L130.67413279215495,152.21665145115256L131.60751945495605,151.27203636554543L132.54090611775715,151.67666409194393L133.47429278055827,151.73358334357738L134.40767944335937,152.0170097002964L135.3410661061605,152.01419122988216L136.2744527689616,152.51278438734403L137.2078394317627,152.821593926737L138.14122609456382,153.07496138385045L139.0746127573649,152.2024195411309L140.00799942016602,152.64256049114738L140.9413860829671,152.68493624912026L141.87477274576824,152.97350596587194L142.80815940856934,152.58536084693847L143.74154607137044,152.91634859212914L144.67493273417156,152.54070099592076L145.60831939697266,152.1042950201617L146.54170605977376,152.95673150098645L147.47509272257486,153.36067671759074L148.40847938537598,153.50857331625517L149.34186604817708,153.10605523990557L150.27525271097818,152.8939174006258L151.2086393737793,152.91646939053297L152.1420260365804,153.85466340722525L153.0754126993815,153.65596968283668L154.00879936218263,153.8883477828381L154.94218602498373,154.48516414971022L155.87557268778482,154.38483369212858L156.80895935058595,154.21832018804457L157.74234601338705,154.41727128548618L158.67573267618815,154.12553647215765L159.60911933898925,153.6744268870721L160.54250600179037,153.98701740113094L161.47589266459147,154.09584660193164L162.40927932739257,154.09913760911448L163.3426659901937,153.70061061177628L164.2760526529948,154.070540410983L165.2094393157959,154.15157742880217L166.14282597859702,154.65505923378527L167.07621264139812,154.8160811482979L168.0095993041992,154.95293398180414L168.94298596700034,154.97496291933996L169.87637262980144,154.9864320519484L170.80975929260254,154.85967985886225L171.74314595540363,155.03011713319842L172.67653261820476,155.25509646165344L173.60991928100586,154.60034647690313L174.54330594380696,154.87161403229467L175.47669260660808,155.22004389171744L176.41007926940918,155.00709464776594L177.34346593221028,155.38779944519567L178.2768525950114,155.4038287703757L179.2102392578125,154.91557139736034L180.1436259206136,153.94998986113984L181.0770125834147,154.12163596749502L182.01039924621583,154.52791733388125L182.94378590901692,155.0070977718235L183.87717257181802,154.48890599359086L184.81055923461915,154.63725651923252L185.74394589742025,154.6085550526504L186.67733256022134,155.47979340236736L187.61071922302247,155.3607105419102L188.54410588582357,155.35179461103633L189.47749254862467,155.85898156777347L190.4108792114258,156.30427510143008L191.3442658742269,155.969950431034L192.277652537028,155.69787205587895L193.2110391998291,155.64137054652784L194.14442586263021,155.56522849839658L195.0778125254313,155.87020541593378L196.0111991882324,155.86593196726272L196.94458585103354,155.7772246704123L197.87797251383464,155.712772755535" fill="none"></path></g><g><path style="fill: none;" stroke="rgb(204, 51, 17)" stroke-width="2px" d="M28.001599884033205,-13.312620547946093L28.93498654683431,2.2736318781664018L29.86837320963542,12.450377097314794L30.801759872436524,20.09545576089096L31.73514653523763,17.602330827854185L32.66853319803874,8.021014235730123L33.60191986083984,21.89436655521753L34.535306523640955,34.4111179273262L35.46869318644206,42.76865751455674L36.402079849243165,50.686426907830274L37.33546651204427,55.52481308203794L38.268853174845376,58.908640081439295L39.20223983764649,67.12118834852032L40.13562650044759,70.64832770233232L41.0690131632487,77.08601481999425L42.0023998260498,83.3631205642843L42.93578648885091,86.44048257347502L43.86917315165202,88.55638512295404L44.802559814453126,94.45961556258094L45.73594647725423,95.46027870519129L46.669333140055336,93.60030208497929L47.60271980285645,98.9120900535601L48.536106465657554,104.75782541970318L49.46949312845866,106.42337186839453L50.402879791259764,110.34703765141785L51.33626645406087,112.32587933611056L52.26965311686198,114.81964391278859L53.20303977966309,117.59959466558759L54.13642644246419,118.5335672345656L55.0698131052653,120.68281252866205L56.00319976806641,121.8413889799696L56.936586430867514,123.2980529638971L57.86997309366862,123.16605875168123L58.803359756469725,123.95359631987144L59.73674641927084,126.03097144962058L60.67013308207194,127.75822137368617L61.60351974487305,130.8454577937947L62.53690640767415,130.49676387244503L63.47029307047526,130.9819599117056L64.40367973327638,132.30232498073212L65.33706639607747,133.74670651908016L66.27045305887857,134.8827527990724L67.20383972167969,135.52902849829727L68.1372263844808,135.76107525562153L69.07061304728191,136.2940017058877L70.00399971008301,137.0250449555329L70.93738637288412,137.65037206681907L71.87077303568522,138.0907986817252L72.80415969848633,138.7737773001133L73.73754636128743,139.1739666522578L74.67093302408854,139.09603559756795L75.60431968688965,138.01980858073472L76.53770634969075,139.99989075455096L77.47109301249186,141.4283699874159L78.40447967529298,141.31803267663935L79.33786633809407,141.92634259550698L80.27125300089519,142.47810587773935L81.20463966369628,142.3029353181478L82.1380263264974,142.282239571125L83.07141298929851,141.68221249210134L84.0047996520996,142.5518856241085L84.93818631490072,143.70906255894081L85.87157297770182,143.65045017757402L86.80495964050293,144.22942914001348L87.73834630330404,143.99233834835294L88.67173296610514,145.65153302267296L89.60511962890625,146.10174686359315L90.53850629170735,145.55214422488407L91.47189295450846,145.1649277237702L92.40527961730957,146.11925195841036L93.33866628011067,147.3927313986073L94.27205294291178,148.27830383259774L95.2054396057129,148.1108669875222L96.138826268514,148.27814461805818L97.07221293131511,147.89193626789447L98.0055995941162,148.48356355979345L98.93898625691732,148.50989991464573L99.87237291971843,148.91547337739462L100.80575958251953,149.29332837695202L101.73914624532064,148.98427330934558L102.67253290812174,149.58684286754612L103.60591957092285,150.22542576057538L104.53930623372396,150.57629811710444L105.47269289652506,150.22293086555644L106.40607955932617,150.0767731634948L107.33946622212729,150.59857244912126L108.27285288492838,150.94275184907775L109.2062395477295,149.8713158415581L110.1396262105306,149.820704761255L111.0730128733317,150.21222723374632L112.00639953613282,150.73326590554018L112.93978619893392,150.91153478344782L113.87317286173503,150.71211104132226L114.80655952453613,150.97843345873952L115.73994618733724,151.47027444613985L116.67333285013835,151.81159258146997L117.60671951293945,152.09891396569003L118.54010617574056,151.41972757712438L119.47349283854167,150.70504390660247L120.40687950134277,150.9764874857253L121.34026616414388,151.19785174084677L122.27365282694498,151.56685862712652L123.2070394897461,152.13239615779094L124.1404261525472,152.5150044277753L125.0738128153483,152.47227439023553L126.00719947814942,152.90743007953225L126.94058614095051,153.05992057918462L127.87397280375163,153.0855914975692L128.80735946655275,152.97785744333322L129.74074612935382,153.6126323373292L130.67413279215495,153.91962146089188L131.60751945495605,153.86259646380952L132.54090611775715,153.39669700594257L133.47429278055827,153.42389107621622L134.40767944335937,154.0657251511187L135.3410661061605,154.15079499578533L136.2744527689616,154.3898580184755L137.2078394317627,154.32164516711998L138.14122609456382,153.89199869481808L139.0746127573649,153.95519687039794L140.00799942016602,153.60908983059304L140.9413860829671,153.95981587084236L141.87477274576824,154.51695927804974L142.80815940856934,154.6355865378394L143.74154607137044,154.25994094641433L144.67493273417156,154.8081818160581L145.60831939697266,154.2100990699173L146.54170605977376,154.1574596799392L147.47509272257486,154.3911647607011L148.40847938537598,153.92235411219883L149.34186604817708,154.25249129446473L150.27525271097818,154.12344821937143L151.2086393737793,154.18830139339062L152.1420260365804,154.57287966523282L153.0754126993815,154.77366283577098L154.00879936218263,154.96301992761028L154.94218602498373,154.65221219257396L155.87557268778482,155.20590273846227L156.80895935058595,155.16483550226172L157.74234601338705,155.27205446439788L158.67573267618815,155.46103850208635L159.60911933898925,155.5087200339601L160.54250600179037,155.26463737585965L161.47589266459147,155.6206096135126L162.40927932739257,155.6057092061303L163.3426659901937,155.2347441487787L164.2760526529948,155.08065265102735L165.2094393157959,155.34205446044837L166.14282597859702,155.00121218425997L167.07621264139812,155.32240999711783L168.0095993041992,155.56316674532195L168.94298596700034,155.64024587505264L169.87637262980144,156.01524993366658L170.80975929260254,155.97157464753639L171.74314595540363,155.86130706878149L172.67653261820476,156.04458815483616L173.60991928100586,156.04762139943924L174.54330594380696,156.3204014294935L175.47669260660808,156.35136335034963L176.41007926940918,156.5474973136777L177.34346593221028,156.2046383904177L178.2768525950114,156.4978625430691L179.2102392578125,156.5978823299127L180.1436259206136,156.65062617359348L181.0770125834147,156.68122662884426L182.01039924621583,156.68364041001018L182.94378590901692,156.8803056749807L183.87717257181802,156.9581288996497L184.81055923461915,157.00392541922443L185.74394589742025,156.89865199342057L186.67733256022134,156.45826602649132L187.61071922302247,156.49397267345648L188.54410588582357,156.07773373118295L189.47749254862467,155.74296389528078L190.4108792114258,156.149518036919L191.3442658742269,156.29744986068124L192.277652537028,155.9658202770418L193.2110391998291,155.66468952984243L194.14442586263021,156.2122432832697L195.0778125254313,155.7373959410274L196.0111991882324,156.10738952939664L196.94458585103354,156.29736472437665L197.87797251383464,156.2265201528301L198.81135917663573,156.38637666998878L199.74474583943686,155.87463497011382L200.67813250223796,155.35116864361572L201.61151916503906,155.73358472137178L202.54490582784018,155.8676632280626L203.47829249064128,155.864659409247L204.41167915344238,155.52645479600207L205.34506581624348,156.18937615745892L206.2784524790446,156.18852528022177L207.2118391418457,156.4117272708726L208.1452258046468,156.2809316124743L209.07861246744793,156.6081842459434L210.01199913024902,156.97478959887096L210.94538579305012,157.13035045001016L211.87877245585125,157.086592369999L212.81215911865235,157.06327258723869L213.74554578145344,156.73743664379825L214.67893244425457,156.46688017660983L215.61231910705567,156.5841580537515L216.54570576985677,156.8971428641836L217.47909243265786,156.8971025258405L218.412479095459,156.59971530780155L219.3458657582601,157.10956627420117L220.2792524210612,157.44907096471195L221.2126390838623,157.48657265645676L222.1460257466634,157.28993927319672L223.0794124094645,157.1257723714722L224.01279907226564,157.19225759931024L224.94618573506673,157.36188295469907L225.87957239786783,156.92924846494395L226.81295906066896,156.8035173556362L227.74634572347006,157.03902310137497L228.67973238627116,157.1682191607338L229.61311904907225,157.08917341065083L230.54650571187338,157.09076038520192L231.47989237467448,157.1785796435358L232.41327903747558,157.1869667993538L233.3466657002767,157.40634593615394L234.2800523630778,157.21924266575022L235.2134390258789,157.0350237329702L236.14682568868002,157.25653225191465L237.08021235148112,157.49833034782884L238.01359901428222,157.68326706734825L238.94698567708335,157.44580567098464L239.88037233988445,157.4042657808045L240.81375900268554,157.48213536458982L241.74714566548664,157.08495734078087L242.68053232828777,157.36987899756843L243.61391899108887,157.49767223301345L244.54730565388996,157.60629491445647L245.4806923166911,157.8471283284506L246.4140789794922,157.99278267163822L247.3474656422933,158.04554498494278L248.2808523050944,157.92750340056716L249.2142389678955,157.73372256961298L250.1476256306966,157.65552532270414L251.0810122934977,157.9344214526967L252.01439895629883,157.97957343073935L252.94778561909993,157.9402077526716L253.88117228190103,157.80486248605428L254.81455894470216,157.72356718128023L255.74794560750325,157.79764120494224L256.6813322703043,157.66223624507077" fill="none"></path></g></g></g></g><g opacity="0.2"><g><g><g><path style="fill: none;" stroke="rgb(0, 119, 187)" stroke-width="2px" d="M26.13482655843099,-10.098285035294797L27.068213221232096,13.247809752803276L28.001599884033205,16.856612363543256L28.93498654683431,17.61538270360234L29.86837320963542,23.15172559048869L30.801759872436524,-24.80698624291743L31.73514653523763,9.63983980146304L32.66853319803874,6.634544938845004L33.60191986083984,29.88875386977315L34.535306523640955,23.249695538499967L35.46869318644206,25.521900033910235L36.402079849243165,37.95823589146584L37.33546651204427,54.31636913571902L38.268853174845376,54.51739014648775L39.20223983764649,58.48975266764273L40.13562650044759,61.620372231961476L41.0690131632487,72.39503217489482L42.0023998260498,58.880213153892775L42.93578648885091,74.45889204163403L43.86917315165202,81.34402014961006L44.802559814453126,90.15351401977092L45.73594647725423,90.07192759165356L46.669333140055336,84.08499296300124L47.60271980285645,98.01962844511378L48.536106465657554,89.60352829317935L49.46949312845866,100.03028799963612L50.402879791259764,103.86590513845975L51.33626645406087,104.97426468889148L52.26965311686198,111.03637048346764L53.20303977966309,110.49321634876947L54.13642644246419,117.30774345548163L55.0698131052653,120.27335925909004L56.00319976806641,115.80934447951904L56.936586430867514,118.3531047526915L57.86997309366862,119.54813421149639L58.803359756469725,118.73557927833485L59.73674641927084,122.1687972036626L60.67013308207194,124.00324048169398L61.60351974487305,120.07051680588437L62.53690640767415,121.44731202683887L63.47029307047526,126.22096492416223L64.40367973327638,129.35591573666545L65.33706639607747,125.32151772471957L66.27045305887857,133.92527612336255L67.20383972167969,133.27079637312193L68.1372263844808,130.80939604972514L69.07061304728191,132.4651676522401L70.00399971008301,131.13815694755579L70.93738637288412,135.47791860130133L71.87077303568522,133.29412266386316L72.80415969848633,137.38761583809458L73.73754636128743,138.66257113723668L74.67093302408854,138.00881996397084L75.60431968688965,137.11784365461483L76.53770634969075,138.43525748661511L77.47109301249186,137.8570015540963L78.40447967529298,139.3264644331628L79.33786633809407,140.6211043209271L80.27125300089519,140.29276211830597L81.20463966369628,141.12016535559314L82.1380263264974,143.56263923621327L83.07141298929851,139.01359857748162L84.0047996520996,139.85792348810998L84.93818631490072,142.8510052243618L85.87157297770182,143.0102738069054L86.80495964050293,145.51140049950493L87.73834630330404,145.06981070474393L88.67173296610514,143.30973431935257L89.60511962890625,142.75889109550985L90.53850629170735,141.27498441446932L91.47189295450846,144.48436953663781L92.40527961730957,145.72880976118688L93.33866628011067,143.2263323625724L94.27205294291178,147.4298477565245L95.2054396057129,145.7926655116599L96.138826268514,145.1484236872207L97.07221293131511,147.7207415757439L98.0055995941162,145.29334663644107L98.93898625691732,148.1455918414074L99.87237291971843,146.7018444178371L100.80575958251953,146.47405056875488L101.73914624532064,149.8405469286585L102.67253290812174,147.4706610774153L103.60591957092285,148.15268955313735L104.53930623372396,148.6822881347382L105.47269289652506,148.5462098261305L106.40607955932617,146.50205583760038L107.33946622212729,148.00080017797308L108.27285288492838,148.627234445704L109.2062395477295,149.23683929497042L110.1396262105306,149.1621063397108L111.0730128733317,147.09810040275016L112.00639953613282,150.16007938193442L112.93978619893392,150.08913656452492L113.87317286173503,150.8535516020063L114.80655952453613,147.2317859983384L115.73994618733724,150.46377711355717L116.67333285013835,148.8824327241785L117.60671951293945,149.2165207497598L118.54010617574056,149.23530171369248L119.47349283854167,149.8868919938854L120.40687950134277,151.47562623543683L121.34026616414388,150.52048843348447L122.27365282694498,151.38938152742472L123.2070394897461,151.7995975675867L124.1404261525472,149.75505031307586L125.0738128153483,149.94017036792098L126.00719947814942,151.29681381209576L126.94058614095051,150.4610751101499L127.87397280375163,152.27468711875218L128.80735946655275,151.10862805673338L129.74074612935382,152.05874506443584L130.67413279215495,153.21499435790136L131.60751945495605,149.8551137371348L132.54090611775715,152.28360568154167L133.47429278055827,151.81896222102756L134.40767944335937,152.44214923537496L135.3410661061605,152.00996352426083L136.2744527689616,153.26067412353683L137.2078394317627,153.2848082358264L138.14122609456382,153.45501256952065L139.0746127573649,150.89360677705156L140.00799942016602,153.3027719161721L140.9413860829671,152.74849988607957L141.87477274576824,153.40636054099943L142.80815940856934,152.00314316853832L143.74154607137044,153.41283020991509L144.67493273417156,151.97722960160823L145.60831939697266,151.4496860565231L146.54170605977376,154.23538622222355L147.47509272257486,153.9665945424972L148.40847938537598,153.7304182142518L149.34186604817708,152.5022781253812L150.27525271097818,152.57571064170614L151.2086393737793,152.95029737539366L152.1420260365804,155.26195443226374L153.0754126993815,153.35792909625386L154.00879936218263,154.23691493284025L154.94218602498373,155.3803887000183L155.87557268778482,154.23433800575617L156.80895935058595,153.96854993191855L157.74234601338705,154.7156979316486L158.67573267618815,153.6879342521648L159.60911933898925,152.9977625094438L160.54250600179037,154.4559031722192L161.47589266459147,154.2590904031327L162.40927932739257,154.10407411988876L163.3426659901937,153.10282011576896L164.2760526529948,154.62543510979305L165.2094393157959,154.27313295553094L166.14282597859702,155.4102819412599L167.07621264139812,155.0576140200669L168.0095993041992,155.15821323206345L168.94298596700034,155.0080063256437L169.87637262980144,155.00363575086112L170.80975929260254,154.66955156923302L171.74314595540363,155.2857730447026L172.67653261820476,155.59256545433595L173.60991928100586,153.61822149977766L174.54330594380696,155.27851536538202L175.47669260660808,155.74268868085153L176.41007926940918,154.68767078183876L177.34346593221028,155.95885664134025L178.2768525950114,155.4278727581457L179.2102392578125,154.18318533783733L180.1436259206136,152.5016175568091L181.0770125834147,154.37910512702777L182.01039924621583,155.13733938346053L182.94378590901692,155.72586842873693L183.87717257181802,153.71161832624188L184.81055923461915,154.85978230769507L185.74394589742025,154.56550285277714L186.67733256022134,156.78665092694283L187.61071922302247,155.1820862512245L188.54410588582357,155.33842071472554L189.47749254862467,156.61976200287913L190.4108792114258,156.972215401915L191.3442658742269,155.4684634254399L192.277652537028,155.28975449314638L193.2110391998291,155.55661828250115L194.14442586263021,155.45101542619972L195.0778125254313,156.32767079223956L196.0111991882324,155.8595217942561L196.94458585103354,155.64416372513665L197.87797251383464,155.6160948832191" fill="none"></path></g><g><path style="fill: none;" stroke="rgb(204, 51, 17)" stroke-width="2px" d="M26.13482655843099,-43.51353124173511L27.068213221232096,13.48305495730938L28.001599884033205,20.681111606972532L28.93498654683431,24.562222227546044L29.86837320963542,27.28816932358722L30.801759872436524,31.37046180958623L31.73514653523763,13.90033086104677L32.66853319803874,-6.2640588161503L33.60191986083984,42.628896863773214L34.535306523640955,53.145375620552834L35.46869318644206,55.28859360531123L36.402079849243165,62.55377395704044L37.33546651204427,62.77897993855641L38.268853174845376,63.982948658360336L39.20223983764649,79.43792558402652L40.13562650044759,75.9384994088705L41.0690131632487,86.74195706638488L42.0023998260498,92.77843492932222L42.93578648885091,91.0564243253534L43.86917315165202,91.73019717236774L44.802559814453126,103.31439129262891L45.73594647725423,96.96126630682146L46.669333140055336,90.81034508661196L47.60271980285645,106.87975841502181L48.536106465657554,113.526419494337L49.46949312845866,108.9216900072279L50.402879791259764,116.23253415740238L51.33626645406087,115.29414120694423L52.26965311686198,118.56029028162995L53.20303977966309,121.7695204629158L54.13642644246419,119.93452602113405L55.0698131052653,123.90668037743912L56.00319976806641,123.57925362705576L56.936586430867514,125.48304891725137L57.86997309366862,122.96806743458272L58.803359756469725,125.13490266777036L59.73674641927084,129.14703413730194L60.67013308207194,130.34909625632122L61.60351974487305,135.4763124202433L62.53690640767415,129.9737229906723L63.47029307047526,131.70975397038626L64.40367973327638,134.2828725839288L65.33706639607747,135.913278826377L66.27045305887857,136.58682221895447L67.20383972167969,136.49844204709825L68.1372263844808,136.10914539160012L69.07061304728191,137.0933913812762L70.00399971008301,138.12160982999183L70.93738637288412,138.5883627337438L71.87077303568522,138.75143860408252L72.80415969848633,139.79824522769366L73.73754636128743,139.77425068047393L74.67093302408854,138.97913901553324L75.60431968688965,136.40546805548547L76.53770634969075,142.97001401527467L77.47109301249186,143.571088836713L78.40447967529298,141.15252671047455L79.33786633809407,142.8388074738084L80.27125300089519,143.30575080108787L81.20463966369628,142.04017947876054L82.1380263264974,142.25119595059073L83.07141298929851,140.78217187356586L84.0047996520996,143.85639532211928L84.93818631490072,145.44482796118928L85.87157297770182,143.56253160552382L86.80495964050293,145.09789758367265L87.73834630330404,143.63670216086217L88.67173296610514,148.14032503415302L89.60511962890625,146.77706762497343L90.53850629170735,144.72774026682043L91.47189295450846,144.5841029720994L92.40527961730957,147.5507383103706L93.33866628011067,149.3029505589027L94.27205294291178,149.6066624835834L95.2054396057129,147.85971171990894L96.138826268514,148.52906106386212L97.07221293131511,147.3126237426489L98.0055995941162,149.3710044976419L98.93898625691732,148.54940444692414L99.87237291971843,149.52383357151797L100.80575958251953,149.8601108762881L101.73914624532064,148.52069070793596L102.67253290812174,150.4906972048469L103.60591957092285,151.1833001001193L104.53930623372396,151.102606651898L105.47269289652506,149.69287998823444L106.40607955932617,149.85753661040238L107.33946622212729,151.38127137756098L108.27285288492838,151.45902094901246L109.2062395477295,148.26416183027862L110.1396262105306,149.7447881408004L111.0730128733317,150.7995109424833L112.00639953613282,151.51482391323094L112.93978619893392,151.17893810030927L113.87317286173503,150.4129754281339L114.80655952453613,151.3779170848654L115.73994618733724,152.2080359272404L116.67333285013835,152.3235697844651L117.60671951293945,152.52989604202014L118.54010617574056,150.4009479942759L119.47349283854167,149.6330184008196L120.40687950134277,151.38365285440955L121.34026616414388,151.52989812352894L122.27365282694498,152.12036895654617L123.2070394897461,152.9807024537876L124.1404261525472,153.08891683275186L125.0738128153483,152.40817933392586L126.00719947814942,153.56016361347733L126.94058614095051,153.28865632866317L127.87397280375163,153.12409787514605L128.80735946655275,152.81625636197924L129.74074612935382,154.56479467832318L130.67413279215495,154.38010514623585L131.60751945495605,153.777058968186L132.54090611775715,152.6978478191422L133.47429278055827,153.46468218162667L134.40767944335937,155.02847626347244L135.3410661061605,154.2783997627853L136.2744527689616,154.7484525525107L137.2078394317627,154.2193258900867L138.14122609456382,153.24752898636524L139.0746127573649,154.04999413376768L140.00799942016602,153.08992927088565L140.9413860829671,154.48590493121634L141.87477274576824,155.3526743888608L142.80815940856934,154.8135274275239L143.74154607137044,153.6964725592767L144.67493273417156,155.63054312052375L145.60831939697266,153.3129749507061L146.54170605977376,154.07850059497207L147.47509272257486,154.7417223818439L148.40847938537598,153.21913813944542L149.34186604817708,154.74769706786356L150.27525271097818,153.92988360673144L151.2086393737793,154.28558115441945L152.1420260365804,155.14974707299612L153.0754126993815,155.07483759157822L154.00879936218263,155.24705556536918L154.94218602498373,154.18600059001952L155.87557268778482,156.03643855729467L156.80895935058595,155.1032346479609L157.74234601338705,155.43288290760216L158.67573267618815,155.7445145586191L159.60911933898925,155.58024233177062L160.54250600179037,154.89851338870906L161.47589266459147,156.15456796999206L162.40927932739257,155.58335859505684L163.3426659901937,154.67829656275134L164.2760526529948,154.8495154044003L165.2094393157959,155.7341571745799L166.14282597859702,154.48994876997733L167.07621264139812,155.80420671640465L168.0095993041992,155.92430186762812L168.94298596700034,155.75586456964868L169.87637262980144,156.57775602158748L170.80975929260254,155.9060617183411L171.74314595540363,155.69590570064912L172.67653261820476,156.31950978391816L173.60991928100586,156.05217126634383L174.54330594380696,156.72957147457493L175.47669260660808,156.3978062316338L176.41007926940918,156.8416982586698L177.34346593221028,155.69035000552773L178.2768525950114,156.93769877204613L179.2102392578125,156.74791201017808L180.1436259206136,156.7297419391147L181.0770125834147,156.7271273117204L182.01039924621583,156.68726108175912L182.94378590901692,157.17530357243646L183.87717257181802,157.07486373665313L184.81055923461915,157.07262019858652L185.74394589742025,156.74074185471486L186.67733256022134,155.79768707609747L187.61071922302247,156.5475326439042L188.54410588582357,155.45337531777264L189.47749254862467,155.24080914142752L190.4108792114258,156.75934924937633L191.3442658742269,156.51934759632465L192.277652537028,155.46837590158253L193.2110391998291,155.2129934090434L194.14442586263021,157.03357391341055L195.0778125254313,155.02512492766394L196.0111991882324,156.66237991195055L196.94458585103354,156.58232751684665L197.87797251383464,156.12025329551022L198.81135917663573,156.6261614457268L199.74474583943686,155.10702242030138L200.67813250223796,154.56596915386854L201.61151916503906,156.30720883800592L202.54490582784018,156.06878098809884L203.47829249064128,155.8601536810236L204.41167915344238,155.01914787613464L205.34506581624348,157.1837581996442L206.2784524790446,156.18724896436603L207.2118391418457,156.7465302568489L208.1452258046468,156.08473812487682L209.07861246744793,157.09906319614703L210.01199913024902,157.5246976282623L210.94538579305012,157.36369172671897L211.87877245585125,157.0209552499823L212.81215911865235,157.02829291309823L213.74554578145344,156.24868272863756L214.67893244425457,156.06104547582723L215.61231910705567,156.76007486946403L216.54570576985677,157.3666200798317L217.47909243265786,156.89704201832586L218.412479095459,156.1536344807431L219.3458657582601,157.8743427238006L220.2792524210612,157.95832800047808L221.2126390838623,157.542825194074L222.1460257466634,156.99498919830665L223.0794124094645,156.87952201888547L224.01279907226564,157.29198544106725L224.94618573506673,157.6163209877823L225.87957239786783,156.28029673031128L226.81295906066896,156.61492069167457L227.74634572347006,157.39228171998317L228.67973238627116,157.36201324977202L229.61311904907225,156.97060478552635L230.54650571187338,157.09314084702856L231.47989237467448,157.31030853103667L232.41327903747558,157.1995475330808L233.3466657002767,157.73541464135417L234.2800523630778,156.93858776014463L235.2134390258789,156.75869533380015L236.14682568868002,157.58879503033134L237.08021235148112,157.86102749170016L238.01359901428222,157.96067214662736L238.94698567708335,157.0896135764392L239.88037233988445,157.3419559455343L240.81375900268554,157.5989397402678L241.74714566548664,156.48919030506744L242.68053232828777,157.79726148274978L243.61391899108887,157.68936208618095L244.54730565388996,157.76922893662103L245.4806923166911,158.20837844944182L246.4140789794922,158.21126418641958L247.3474656422933,158.12468845489965L248.2808523050944,157.75044102400375L249.2142389678955,157.4430513231817L250.1476256306966,157.53822945234086L251.0810122934977,158.35276564768563L252.01439895629883,158.04730139780332L252.94778561909993,157.88115923556992L253.88117228190103,157.6018445861283L254.81455894470216,157.60162422411918L255.74794560750325,157.90875224043526L256.6813322703043,157.45912880526356" fill="none"></path></g></g></g></g></g></g><g transform="translate(49, 178)" clip-path="url(#clip_1)"><clipPath id="clip_1"><rect width="280" height="21"></rect></clipPath><g><g><line x1="0" y1="0" x2="0" y2="5" style="visibility: inherit;" fill="rgb(0, 0, 0)" stroke="rgb(204, 204, 204)" stroke-width="1px"></line><line x1="23.334666570027668" y1="0" x2="23.334666570027668" y2="5" style="visibility: inherit;" fill="rgb(0, 0, 0)" stroke="rgb(204, 204, 204)" stroke-width="1px"></line><line x1="46.669333140055336" y1="0" x2="46.669333140055336" y2="5" style="visibility: inherit;" fill="rgb(0, 0, 0)" stroke="rgb(204, 204, 204)" stroke-width="1px"></line><line x1="70.00399971008301" y1="0" x2="70.00399971008301" y2="5" style="visibility: inherit;" fill="rgb(0, 0, 0)" stroke="rgb(204, 204, 204)" stroke-width="1px"></line><line x1="93.33866628011067" y1="0" x2="93.33866628011067" y2="5" style="visibility: inherit;" fill="rgb(0, 0, 0)" stroke="rgb(204, 204, 204)" stroke-width="1px"></line><line x1="116.67333285013835" y1="0" x2="116.67333285013835" y2="5" style="visibility: inherit;" fill="rgb(0, 0, 0)" stroke="rgb(204, 204, 204)" stroke-width="1px"></line><line x1="140.00799942016602" y1="0" x2="140.00799942016602" y2="5" style="visibility: inherit;" fill="rgb(0, 0, 0)" stroke="rgb(204, 204, 204)" stroke-width="1px"></line><line x1="163.3426659901937" y1="0" x2="163.3426659901937" y2="5" style="visibility: inherit;" fill="rgb(0, 0, 0)" stroke="rgb(204, 204, 204)" stroke-width="1px"></line><line x1="186.67733256022134" y1="0" x2="186.67733256022134" y2="5" style="visibility: inherit;" fill="rgb(0, 0, 0)" stroke="rgb(204, 204, 204)" stroke-width="1px"></line><line x1="210.01199913024902" y1="0" x2="210.01199913024902" y2="5" style="visibility: inherit;" fill="rgb(0, 0, 0)" stroke="rgb(204, 204, 204)" stroke-width="1px"></line><line x1="233.3466657002767" y1="0" x2="233.3466657002767" y2="5" style="visibility: inherit;" fill="rgb(0, 0, 0)" stroke="rgb(204, 204, 204)" stroke-width="1px"></line><line x1="256.6813322703043" y1="0" x2="256.6813322703043" y2="5" style="visibility: inherit;" fill="rgb(0, 0, 0)" stroke="rgb(204, 204, 204)" stroke-width="1px"></line><line x1="280.01599884033203" y1="0" x2="280.01599884033203" y2="5" style="visibility: inherit;" fill="rgb(0, 0, 0)" stroke="rgb(204, 204, 204)" stroke-width="1px"></line></g><g transform="translate(0, 8)"><text style="text-anchor: middle; visibility: hidden; font-family: Roboto, sans-serif; font-size: 12px; font-weight: 200;" x="0" y="0" dx="0em" dy="0.95em" fill="rgb(50, 49, 63)" stroke="none" stroke-width="1px">-500</text><text style="text-anchor: middle; visibility: inherit; font-family: Roboto, sans-serif; font-size: 12px; font-weight: 200;" x="23.334666570027668" y="0" dx="0em" dy="0.95em" fill="rgb(50, 49, 63)" stroke="none" stroke-width="1px">0</text><text style="text-anchor: middle; visibility: inherit; font-family: Roboto, sans-serif; font-size: 12px; font-weight: 200;" x="46.669333140055336" y="0" dx="0em" dy="0.95em" fill="rgb(50, 49, 63)" stroke="none" stroke-width="1px">500</text><text style="text-anchor: middle; visibility: inherit; font-family: Roboto, sans-serif; font-size: 12px; font-weight: 200;" x="70.00399971008301" y="0" dx="0em" dy="0.95em" fill="rgb(50, 49, 63)" stroke="none" stroke-width="1px">1k</text><text style="text-anchor: middle; visibility: inherit; font-family: Roboto, sans-serif; font-size: 12px; font-weight: 200;" x="93.33866628011067" y="0" dx="0em" dy="0.95em" fill="rgb(50, 49, 63)" stroke="none" stroke-width="1px">1.5k</text><text style="text-anchor: middle; visibility: inherit; font-family: Roboto, sans-serif; font-size: 12px; font-weight: 200;" x="116.67333285013835" y="0" dx="0em" dy="0.95em" fill="rgb(50, 49, 63)" stroke="none" stroke-width="1px">2k</text><text style="text-anchor: middle; visibility: inherit; font-family: Roboto, sans-serif; font-size: 12px; font-weight: 200;" x="140.00799942016602" y="0" dx="0em" dy="0.95em" fill="rgb(50, 49, 63)" stroke="none" stroke-width="1px">2.5k</text><text style="text-anchor: middle; visibility: inherit; font-family: Roboto, sans-serif; font-size: 12px; font-weight: 200;" x="163.3426659901937" y="0" dx="0em" dy="0.95em" fill="rgb(50, 49, 63)" stroke="none" stroke-width="1px">3k</text><text style="text-anchor: middle; visibility: inherit; font-family: Roboto, sans-serif; font-size: 12px; font-weight: 200;" x="186.67733256022134" y="0" dx="0em" dy="0.95em" fill="rgb(50, 49, 63)" stroke="none" stroke-width="1px">3.5k</text><text style="text-anchor: middle; visibility: inherit; font-family: Roboto, sans-serif; font-size: 12px; font-weight: 200;" x="210.01199913024902" y="0" dx="0em" dy="0.95em" fill="rgb(50, 49, 63)" stroke="none" stroke-width="1px">4k</text><text style="text-anchor: middle; visibility: inherit; font-family: Roboto, sans-serif; font-size: 12px; font-weight: 200;" x="233.3466657002767" y="0" dx="0em" dy="0.95em" fill="rgb(50, 49, 63)" stroke="none" stroke-width="1px">4.5k</text><text style="text-anchor: middle; visibility: inherit; font-family: Roboto, sans-serif; font-size: 12px; font-weight: 200;" x="256.6813322703043" y="0" dx="0em" dy="0.95em" fill="rgb(50, 49, 63)" stroke="none" stroke-width="1px">5k</text><text style="text-anchor: middle; visibility: hidden; font-family: Roboto, sans-serif; font-size: 12px; font-weight: 200;" x="280.01599884033203" y="0" dx="0em" dy="0.95em" fill="rgb(50, 49, 63)" stroke="none" stroke-width="1px">5.5k</text></g><line x1="0" y1="0" x2="280.01599884033203" y2="0" fill="rgb(0, 0, 0)" stroke="rgb(204, 204, 204)" stroke-width="1px"></line></g></g></g></g></svg>