<svg viewBox="0 0 330 200" xmlns="http://www.w3.org/2000/svg"><g><g><g><g><g><line x1="49.98400115966797" y1="178.58999919891357" x2="44.98400115966797" y2="178.58999919891357" style="visibility: inherit;" fill="rgb(0, 0, 0)" stroke="rgb(204, 204, 204)" stroke-width="1px"></line><line x1="49.98400115966797" y1="158.74666595458984" x2="44.98400115966797" y2="158.74666595458984" style="visibility: inherit;" fill="rgb(0, 0, 0)" stroke="rgb(204, 204, 204)" stroke-width="1px"></line><line x1="49.98400115966797" y1="138.9033327102661" x2="44.98400115966797" y2="138.9033327102661" style="visibility: inherit;" fill="rgb(0, 0, 0)" stroke="rgb(204, 204, 204)" stroke-width="1px"></line><line x1="49.98400115966797" y1="119.05999946594238" x2="44.98400115966797" y2="119.05999946594238" style="visibility: inherit;" fill="rgb(0, 0, 0)" stroke="rgb(204, 204, 204)" stroke-width="1px"></line><line x1="49.98400115966797" y1="99.21666622161865" x2="44.98400115966797" y2="99.21666622161865" style="visibility: inherit;" fill="rgb(0, 0, 0)" stroke="rgb(204, 204, 204)" stroke-width="1px"></line><line x1="49.98400115966797" y1="79.37333297729492" x2="44.98400115966797" y2="79.37333297729492" style="visibility: inherit;" fill="rgb(0, 0, 0)" stroke="rgb(204, 204, 204)" stroke-width="1px"></line><line x1="49.98400115966797" y1="59.5299997329712" x2="44.98400115966797" y2="59.5299997329712" style="visibility: inherit;" fill="rgb(0, 0, 0)" stroke="rgb(204, 204, 204)" stroke-width="1px"></line><line x1="49.98400115966797" y1="39.686666488647475" x2="44.98400115966797" y2="39.686666488647475" style="visibility: inherit;" fill="rgb(0, 0, 0)" stroke="rgb(204, 204, 204)" stroke-width="1px"></line><line x1="49.98400115966797" y1="19.843333244323738" x2="44.98400115966797" y2="19.843333244323738" style="visibility: inherit;" fill="rgb(0, 0, 0)" stroke="rgb(204, 204, 204)" stroke-width="1px"></line><line x1="49.98400115966797" y1="0" x2="44.98400115966797" y2="0" style="visibility: inherit;" fill="rgb(0, 0, 0)" stroke="rgb(204, 204, 204)" stroke-width="1px"></line></g><g transform="translate(39.98400115966797, 0)"><text style="text-anchor: end; visibility: hidden; font-family: Roboto, sans-serif; font-size: 12px; font-weight: 200;" x="0" y="178.58999919891357" dx="0em" dy="0.3em" fill="rgb(50, 49, 63)" stroke="none" stroke-width="1px">-0.2</text><text style="text-anchor: end; visibility: inherit; font-family: Roboto, sans-serif; font-size: 12px; font-weight: 200;" x="0" y="158.74666595458984" dx="0em" dy="0.3em" fill="rgb(50, 49, 63)" stroke="none" stroke-width="1px">0</text><text style="text-anchor: end; visibility: hidden; font-family: Roboto, sans-serif; font-size: 12px; font-weight: 200;" x="0" y="138.9033327102661" dx="0em" dy="0.3em" fill="rgb(50, 49, 63)" stroke="none" stroke-width="1px">0.2</text><text style="text-anchor: end; visibility: inherit; font-family: Roboto, sans-serif; font-size: 12px; font-weight: 200;" x="0" y="119.05999946594238" dx="0em" dy="0.3em" fill="rgb(50, 49, 63)" stroke="none" stroke-width="1px">0.4</text><text style="text-anchor: end; visibility: hidden; font-family: Roboto, sans-serif; font-size: 12px; font-weight: 200;" x="0" y="99.21666622161865" dx="0em" dy="0.3em" fill="rgb(50, 49, 63)" stroke="none" stroke-width="1px">0.6</text><text style="text-anchor: end; visibility: inherit; font-family: Roboto, sans-serif; font-size: 12px; font-weight: 200;" x="0" y="79.37333297729492" dx="0em" dy="0.3em" fill="rgb(50, 49, 63)" stroke="none" stroke-width="1px">0.8</text><text style="text-anchor: end; visibility: hidden; font-family: Roboto, sans-serif; font-size: 12px; font-weight: 200;" x="0" y="59.5299997329712" dx="0em" dy="0.3em" fill="rgb(50, 49, 63)" stroke="none" stroke-width="1px">1</text><text style="text-anchor: end; visibility: inherit; font-family: Roboto, sans-serif; font-size: 12px; font-weight: 200;" x="0" y="39.686666488647475" dx="0em" dy="0.3em" fill="rgb(50, 49, 63)" stroke="none" stroke-width="1px">1.2</text><text style="text-anchor: end; visibility: hidden; font-family: Roboto, sans-serif; font-size: 12px; font-weight: 200;" x="0" y="19.843333244323738" dx="0em" dy="0.3em" fill="rgb(50, 49, 63)" stroke="none" stroke-width="1px">1.4</text><text style="text-anchor: end; visibility: hidden; font-family: Roboto, sans-serif; font-size: 12px; font-weight: 200;" x="0" y="0" dx="0em" dy="0.3em" fill="rgb(50, 49, 63)" stroke="none" stroke-width="1px">1.6</text></g><line x1="49.98400115966797" y1="0" x2="49.98400115966797" y2="178.58999919891357" fill="rgb(0, 0, 0)" stroke="rgb(204, 204, 204)" stroke-width="1px"></line></g></g><g transform="translate(49, 0)" clip-path="url(#clip_0)"><clipPath id="clip_0"><rect width="280" height="178"></rect></clipPath><g><g><g><line x1="0" y1="0" x2="0" y2="178.58999919891357" fill="rgb(0, 0, 0)" stroke="rgb(60, 60, 60)" stroke-width="1px" opacity="0.25"></line><line x1="23.334666570027668" y1="0" x2="23.334666570027668" y2="178.58999919891357" fill="rgb(0, 0, 0)" stroke="rgb(60, 60, 60)" stroke-width="1px" opacity="0.25"></line><line x1="46.669333140055336" y1="0" x2="46.669333140055336" y2="178.58999919891357" fill="rgb(0, 0, 0)" stroke="rgb(60, 60, 60)" stroke-width="1px" opacity="0.25"></line><line x1="70.00399971008301" y1="0" x2="70.00399971008301" y2="178.58999919891357" fill="rgb(0, 0, 0)" stroke="rgb(60, 60, 60)" stroke-width="1px" opacity="0.25"></line><line x1="93.33866628011067" y1="0" x2="93.33866628011067" y2="178.58999919891357" fill="rgb(0, 0, 0)" stroke="rgb(60, 60, 60)" stroke-width="1px" opacity="0.25"></line><line x1="116.67333285013835" y1="0" x2="116.67333285013835" y2="178.58999919891357" fill="rgb(0, 0, 0)" stroke="rgb(60, 60, 60)" stroke-width="1px" opacity="0.25"></line><line x1="140.00799942016602" y1="0" x2="140.00799942016602" y2="178.58999919891357" fill="rgb(0, 0, 0)" stroke="rgb(60, 60, 60)" stroke-width="1px" opacity="0.25"></line><line x1="163.3426659901937" y1="0" x2="163.3426659901937" y2="178.58999919891357" fill="rgb(0, 0, 0)" stroke="rgb(60, 60, 60)" stroke-width="1px" opacity="0.25"></line><line x1="186.67733256022134" y1="0" x2="186.67733256022134" y2="178.58999919891357" fill="rgb(0, 0, 0)" stroke="rgb(60, 60, 60)" stroke-width="1px" opacity="0.25"></line><line x1="210.01199913024902" y1="0" x2="210.01199913024902" y2="178.58999919891357" fill="rgb(0, 0, 0)" stroke="rgb(60, 60, 60)" stroke-width="1px" opacity="0.25"></line><line x1="233.3466657002767" y1="0" x2="233.3466657002767" y2="178.58999919891357" fill="rgb(0, 0, 0)" stroke="rgb(60, 60, 60)" stroke-width="1px" opacity="0.25"></line><line x1="256.6813322703043" y1="0" x2="256.6813322703043" y2="178.58999919891357" fill="rgb(0, 0, 0)" stroke="rgb(60, 60, 60)" stroke-width="1px" opacity="0.25"></line><line x1="280.01599884033203" y1="0" x2="280.01599884033203" y2="178.58999919891357" fill="rgb(0, 0, 0)" stroke="rgb(60, 60, 60)" stroke-width="1px" opacity="0.25"></line></g><g><line x1="0" y1="178.58999919891357" x2="280.01599884033203" y2="178.58999919891357" fill="rgb(0, 0, 0)" stroke="rgb(60, 60, 60)" stroke-width="1px" opacity="0.25"></line><line x1="0" y1="158.74666595458984" x2="280.01599884033203" y2="158.74666595458984" fill="rgb(0, 0, 0)" stroke="rgb(60, 60, 60)" stroke-width="1px" opacity="0.25"></line><line x1="0" y1="138.9033327102661" x2="280.01599884033203" y2="138.9033327102661" fill="rgb(0, 0, 0)" stroke="rgb(60, 60, 60)" stroke-width="1px" opacity="0.25"></line><line x1="0" y1="119.05999946594238" x2="280.01599884033203" y2="119.05999946594238" fill="rgb(0, 0, 0)" stroke="rgb(60, 60, 60)" stroke-width="1px" opacity="0.25"></line><line x1="0" y1="99.21666622161865" x2="280.01599884033203" y2="99.21666622161865" fill="rgb(0, 0, 0)" stroke="rgb(60, 60, 60)" stroke-width="1px" opacity="0.25"></line><line x1="0" y1="79.37333297729492" x2="280.01599884033203" y2="79.37333297729492" fill="rgb(0, 0, 0)" stroke="rgb(60, 60, 60)" stroke-width="1px" opacity="0.25"></line><line x1="0" y1="59.5299997329712" x2="280.01599884033203" y2="59.5299997329712" fill="rgb(0, 0, 0)" stroke="rgb(60, 60, 60)" stroke-width="1px" opacity="0.25"></line><line x1="0" y1="39.686666488647475" x2="280.01599884033203" y2="39.686666488647475" fill="rgb(0, 0, 0)" stroke="rgb(60, 60, 60)" stroke-width="1px" opacity="0.25"></line><line x1="0" y1="19.843333244323738" x2="280.01599884033203" y2="19.843333244323738" fill="rgb(0, 0, 0)" stroke="rgb(60, 60, 60)" stroke-width="1px" opacity="0.25"></line><line x1="0" y1="0" x2="280.01599884033203" y2="0" fill="rgb(0, 0, 0)" stroke="rgb(60, 60, 60)" stroke-width="1px" opacity="0.25"></line></g></g></g><g><g><line x1="0" y1="158.74666595458984" x2="280.01599884033203" y2="158.74666595458984" fill="rgb(0, 0, 0)" stroke="rgb(153, 153, 153)" stroke-width="1.5px"></line></g></g><g><g><line x1="23.334666570027668" y1="0" x2="23.334666570027668" y2="178.58999919891357" fill="rgb(0, 0, 0)" stroke="rgb(153, 153, 153)" stroke-width="1.5px"></line></g></g><g><g><g><g><g><path style="fill: none;" stroke="rgb(187, 187, 187)" stroke-width="2px" d="M47.60271980285645,-0.9879137582644182L48.536106465657554,9.664206687048187L54.13642644246419,24.91142156220374L56.936586430867514,32.97776483613157L57.86997309366862,41.99860794601811L58.803359756469725,47.28977185453623L59.73674641927084,50.1720389855052L60.67013308207194,47.75557960444539L67.20383972167969,54.187508818776834L68.1372263844808,57.87734762129849L69.07061304728191,64.79398951159153L70.93738637288412,67.66383333872128L71.87077303568522,66.91707093750831L73.73754636128743,75.47107420225707L76.53770634969075,70.63445141785763L79.33786633809407,75.91684420857405L80.27125300089519,75.27499326165493L81.20463966369628,82.2612667478321L82.1380263264974,82.06951751474392L84.0047996520996,81.57405615967207L84.93818631490072,80.18039397896993L85.87157297770182,80.70649376443045L86.80495964050293,82.21543735925025L88.67173296610514,80.92523439788671L89.60511962890625,83.84585186357008L95.2054396057129,79.83909808902507L97.07221293131511,78.33357285200728L98.0055995941162,83.3115392250757L99.87237291971843,85.8406591596658L100.80575958251953,89.05651028242053L102.67253290812174,87.64066751953992L103.60591957092285,86.888559356764L106.40607955932617,89.23581775734255L107.33946622212729,89.87067242878351L112.00639953613282,91.15930461837468L115.73994618733724,91.69427710949478L116.67333285013835,94.04729017296268L119.47349283854167,97.6924892239768L122.27365282694498,88.60186867600277L123.2070394897461,93.27751232912829L125.0738128153483,90.52731694404726L129.74074612935382,95.0176062427862L131.60751945495605,99.15062709234041L136.2744527689616,101.13619474506949L140.00799942016602,99.83902154160481L140.9413860829671,100.11753508001173L142.80815940856934,101.1595435087736L144.67493273417156,102.45574193919644L145.60831939697266,102.76316219472024L146.54170605977376,103.4908749306673L148.40847938537598,101.53982572285163L150.27525271097818,98.91049283977686L151.2086393737793,100.91829136811207L156.80895935058595,104.61126428781601L157.74234601338705,104.96256515445533L159.60911933898925,107.23603816216172L160.54250600179037,107.1075054791829L163.3426659901937,107.35412242471185L169.87637262980144,107.25990225116615L171.74314595540363,108.19602670630513L172.67653261820476,108.37340186304371L174.54330594380696,106.40925377393721L176.41007926940918,110.37797555478276L178.2768525950114,112.26912469777758L182.01039924621583,111.2908676259143L182.94378590901692,111.91716436249972L183.87717257181802,112.30389826243375L186.67733256022134,112.78462581553399L187.61071922302247,112.76151881161195L188.54410588582357,109.4334809574887L189.47749254862467,108.6859359368152L191.3442658742269,108.06644171385203L192.277652537028,109.05962887714385L195.0778125254313,112.08234828527164L196.0111991882324,111.71245839183052L196.94458585103354,111.09038666950343L199.74474583943686,113.42985807111937L200.67813250223796,114.47620584033994L201.61151916503906,112.7497552074323L202.54490582784018,113.45130317881632L205.34506581624348,113.52119032834383L209.07861246744793,115.10802160013243L210.01199913024902,116.14472872991153L211.87877245585125,117.5301798536006L212.81215911865235,113.11730249045911L213.74554578145344,115.14550740040049L214.67893244425457,113.85511074948012L216.54570576985677,112.7064043007233L218.412479095459,114.1772881551884L220.2792524210612,115.02467172536333L222.1460257466634,113.40443649812822L224.01279907226564,115.20090560727196L224.94618573506673,117.69533468352166L226.81295906066896,116.62108881552403L227.74634572347006,116.14151430381021L228.67973238627116,113.85877326446247L229.61311904907225,116.71811347729766L230.54650571187338,117.15947314150901L232.41327903747558,114.534572879326L233.3466657002767,116.46786805514002L237.08021235148112,118.28339530398948L242.68053232828777,119.58617642762574L244.54730565388996,121.60273694662057L245.4806923166911,122.33634950218769L246.4140789794922,120.69459650254706L248.2808523050944,116.26447557404646L249.2142389678955,116.93026816178647L251.0810122934977,116.57304201256765L252.01439895629883,117.80656973341225L252.94778561909993,117.64933145976921L253.88117228190103,119.73122899517267L258.5481055959066,118.01017799988186L259.48149225870765,120.38935983113647L260.41487892150883,121.11889337080524L263.2150389099121,119.61398363234939L264.1484255727132,117.09822029389248L265.0818122355143,119.60686430672772L266.0151988983154,116.28605855040423L267.8819722239176,119.2003068362944L275.34906552632646,121.89211934267324L276.28245218912764,124.09460902211346L279.08261217753096,123.76112722126264L280.01599884033203,122.44430113786532L280.94938550313316,119.84507552864986" fill="none"></path></g><g><path style="fill: none;" stroke="rgb(204, 51, 17)" stroke-width="2px" d="M35.46869318644206,-8.721678127491055L36.402079849243165,13.036823571031961L37.33546651204427,25.03618385213799L38.268853174845376,39.44205028031788L39.20223983764649,51.71416510764496L40.13562650044759,57.62603393012789L41.0690131632487,68.69461202080926L42.0023998260498,79.27395168526289L42.93578648885091,84.94169719109684L43.86917315165202,90.10107889851213L44.802559814453126,96.6138872698169L45.73594647725423,97.09058628960479L46.669333140055336,96.13579118476936L47.60271980285645,103.80129827642816L48.536106465657554,109.97328983108342L49.46949312845866,109.9136824794745L50.402879791259764,114.73712189368183L51.33626645406087,117.22666491318878L52.26965311686198,120.75934172585944L53.20303977966309,122.81417642771969L54.13642644246419,122.81616645871243L55.0698131052653,123.23197637252568L56.00319976806641,123.73323297381526L56.936586430867514,125.23506500571453L57.86997309366862,125.73189388576895L58.803359756469725,127.41210291961184L59.73674641927084,128.6701550780567L60.67013308207194,130.16058418008296L61.60351974487305,134.27595732664813L62.53690640767415,133.14278085343L63.47029307047526,132.80029599845693L64.40367973327638,132.65808719989852L65.33706639607747,133.0283839188558L66.27045305887857,135.07918489180076L67.20383972167969,135.4207288268456L68.1372263844808,136.40519765962478L69.07061304728191,136.58716856601606L70.00399971008301,137.61961840017946L70.93738637288412,137.87845748259272L71.87077303568522,136.8993778184773L72.80415969848633,137.55483088914931L73.73754636128743,137.78868985291925L74.67093302408854,138.1332232282532L75.60431968688965,136.57073600078044L76.53770634969075,138.41895950149927L77.47109301249186,139.82071235463434L78.40447967529298,139.56377077078395L79.33786633809407,139.68635744020054L80.27125300089519,140.19922716458458L81.20463966369628,140.6278466495901L82.1380263264974,140.19609795248167L83.07141298929851,140.44473619122934L84.0047996520996,140.63024508354678L84.93818631490072,140.69133183164476L85.87157297770182,140.97145455346924L86.80495964050293,141.40658358220102L87.73834630330404,141.51445876641543L88.67173296610514,143.43991328967672L89.60511962890625,143.59797879516174L90.53850629170735,142.79831481419615L91.47189295450846,142.85017359199782L92.40527961730957,143.77056140970336L93.33866628011067,144.18327574929833L94.27205294291178,145.03769306307342L95.2054396057129,145.0616599075437L96.138826268514,145.27371855984734L97.07221293131511,144.30646850632158L98.0055995941162,143.8717274212274L98.93898625691732,143.47004683026282L99.87237291971843,144.2718592155208L100.80575958251953,145.3237039135774L101.73914624532064,145.185842680215L102.67253290812174,145.98601930305088L103.60591957092285,146.4887646826266L104.53930623372396,146.95417289144558L105.47269289652506,146.33307941153052L106.40607955932617,146.41525849398587L107.33946622212729,146.10442685569876L108.27285288492838,147.24248465682896L109.2062395477295,146.185607329076L110.1396262105306,146.33336437166653L111.0730128733317,146.48022669338448L112.00639953613282,147.01842901773693L112.93978619893392,146.62233394054186L113.87317286173503,146.98662518010445L114.80655952453613,146.8471138027765L115.73994618733724,147.57907994695975L116.67333285013835,147.95326607285097L117.60671951293945,148.54726414756107L118.54010617574056,147.86198361096055L119.47349283854167,147.60961934458464L120.40687950134277,148.1460427961553L121.34026616414388,148.1177417085393L122.27365282694498,147.97190169146197L123.2070394897461,148.11349403905342L124.1404261525472,147.97199506837012L125.0738128153483,147.43916277705023L126.00719947814942,148.83827554148021L126.94058614095051,149.64863294259357L127.87397280375163,149.27789833896387L128.80735946655275,149.7424545098568L129.74074612935382,150.4423704596421L130.67413279215495,150.32449361394313L131.60751945495605,150.42968750293008L132.54090611775715,150.248982180861L133.47429278055827,150.83494340735342L134.40767944335937,150.96330059846855L135.3410661061605,150.70448942071224L136.2744527689616,150.7004185103475L137.2078394317627,150.1801824584779L138.14122609456382,149.97095942157276L139.0746127573649,150.13314253917784L140.00799942016602,149.68581036946762L140.9413860829671,149.50494349997388L141.87477274576824,150.25088656761307L142.80815940856934,150.7509448416482L143.74154607137044,149.9050911492187L144.67493273417156,151.45798412148852L145.60831939697266,150.19496796158515L146.54170605977376,150.73812293485648L147.47509272257486,150.59883696605627L148.40847938537598,149.96231301338426L149.34186604817708,150.36547285786384L150.27525271097818,150.5784728813197L151.2086393737793,150.89504381870734L152.1420260365804,151.11917745774207L153.0754126993815,151.3081261622454L154.00879936218263,151.31438126366297L154.94218602498373,150.89244371154382L155.87557268778482,151.86171359002603L156.80895935058595,151.38514194619378L157.74234601338705,152.02132016079003L158.67573267618815,152.00375241862193L159.60911933898925,151.37582144039152L160.54250600179037,151.6654570844657L161.47589266459147,152.2893835748838L162.40927932739257,152.05193366097546L163.3426659901937,151.51315657357105L164.2760526529948,151.99350924586673L165.2094393157959,152.47842598764117L166.14282597859702,152.06532643619653L167.07621264139812,152.38829020650192L168.0095993041992,152.7667531219088L168.94298596700034,152.7293719180546L169.87637262980144,152.95192055051578L170.80975929260254,152.91546923264968L171.74314595540363,152.56639227532233L172.67653261820476,152.67919711617674L173.60991928100586,152.23086626536787L174.54330594380696,152.37157639322277L175.47669260660808,152.48052556071977L176.41007926940918,152.66484929756433L177.34346593221028,152.77360213824633L178.2768525950114,153.37028598993038L179.2102392578125,153.08272491222925L180.1436259206136,152.93056299167358L181.0770125834147,152.95246789541912L182.01039924621583,152.8892816069205L182.94378590901692,153.25780904212496L183.87717257181802,153.27077011534928L184.81055923461915,153.69818669423609L185.74394589742025,153.74876648384412L186.67733256022134,153.40695522820832L187.61071922302247,153.3673675141219L188.54410588582357,152.86717521986702L189.47749254862467,152.68552870664743L190.4108792114258,152.91131792682933L191.3442658742269,153.2102823283779L192.277652537028,152.4792525894849L193.2110391998291,152.71161141290287L194.14442586263021,153.2750650114269L195.0778125254313,153.04481209110148L196.0111991882324,153.19634020813777L196.94458585103354,152.99351829024292L197.87797251383464,152.98798866583292L198.81135917663573,153.00529192594507L199.74474583943686,152.84065913658347L200.67813250223796,152.24737853954437L201.61151916503906,152.28291504008516L202.54490582784018,152.4472597939969L203.47829249064128,152.9727067491632L204.41167915344238,152.88162205506183L205.34506581624348,153.30101789569588L206.2784524790446,153.20225511557956L207.2118391418457,153.2502604480583L208.1452258046468,153.27074444576576L209.07861246744793,153.72207107147503L210.01199913024902,153.73890001620327L210.94538579305012,154.0483369588061L211.87877245585125,153.98253509857778L212.81215911865235,154.39253955275274L213.74554578145344,153.26429879784718L214.67893244425457,153.44431477321677L215.61231910705567,153.52612205148577L216.54570576985677,153.94635976270993L217.47909243265786,154.22118437449245L218.412479095459,153.744902574107L219.3458657582601,154.2366915987077L220.2792524210612,154.43217868313846L221.2126390838623,154.4679993807423L222.1460257466634,154.2970652765022L223.0794124094645,154.25342936385954L224.01279907226564,154.25669013223688L224.94618573506673,154.44126689577698L225.87957239786783,153.73098964400685L226.81295906066896,153.96999854726138L227.74634572347006,154.04409903939865L228.67973238627116,154.40145520276602L229.61311904907225,154.22003841192316L230.54650571187338,154.16227595382068L231.47989237467448,154.4524063554742L232.41327903747558,154.50244407082144L233.3466657002767,154.44570941564353L234.2800523630778,154.46334968617558L235.2134390258789,154.150540292079L236.14682568868002,154.5001355255262L237.08021235148112,154.97280339262142L238.01359901428222,154.92047320742904L238.94698567708335,154.7737108165625L239.88037233988445,154.67274819625698L240.81375900268554,154.70798721907406L241.74714566548664,154.17522924846637L242.68053232828777,154.7644632277349L243.61391899108887,155.25504002923753L244.54730565388996,155.0819058121672L245.4806923166911,155.4585803431562L246.4140789794922,155.71903664010284L247.3474656422933,155.5303592331165L248.2808523050944,155.6244173406702L249.2142389678955,155.52249678330912L250.1476256306966,155.57796954529147L251.0810122934977,155.64758550885693L252.01439895629883,155.46457992392678L252.94778561909993,155.50652209557688L253.88117228190103,155.31700349970012L254.81455894470216,155.23078281698017L255.74794560750325,155.1991046068545L256.6813322703043,154.8079352988027" fill="none"></path></g></g></g></g><g opacity="0.2"><g><g><g><path style="fill: none;" stroke="rgb(187, 187, 187)" stroke-width="2px" d="M42.0023998260498,-38.78065263439319L43.86917315165202,3.9691454280196012L44.802559814453126,13.697280242991168L47.60271980285645,13.265409144661593L48.536106465657554,25.621518742153405L54.13642644246419,47.764321346209854L56.936586430867514,45.07159073679156L57.86997309366862,55.52605529236723L58.803359756469725,55.22517429137021L59.73674641927084,54.49500059757122L60.67013308207194,44.131111406814746L67.20383972167969,63.83504989798974L68.1372263844808,63.41198440936347L69.07061304728191,75.1688157900025L70.93738637288412,71.96856508337981L71.87077303568522,65.7969326433564L73.73754636128743,88.30204262046374L76.53770634969075,63.37952961685057L79.33786633809407,83.8404252849315L80.27125300089519,74.31221743251167L81.20463966369628,92.74067311589074L82.1380263264974,81.78189372869775L84.0047996520996,80.83086422564458L84.93818631490072,78.08990087429204L85.87157297770182,81.49564340493778L86.80495964050293,84.47885268663039L88.67173296610514,78.98992998911064L89.60511962890625,88.2267780169084L95.2054396057129,73.8289674644022L97.07221293131511,76.07528500486605L98.0055995941162,90.77848876804264L99.87237291971843,89.63433905647969L100.80575958251953,93.88028696268373L102.67253290812174,85.51690337624105L103.60591957092285,85.7603971129259L106.40607955932617,92.75670535760037L107.33946622212729,90.82295443584594L112.00639953613282,93.0922529026409L115.73994618733724,92.49673584614493L116.67333285013835,97.57680976808525L119.47349283854167,103.16028780042438L122.27365282694498,74.96593785415196L123.2070394897461,100.29097780878256L125.0738128153483,86.40202386643773L129.74074612935382,101.75304019088283L131.60751945495605,105.35015836666526L136.2744527689616,104.11454622416124L140.00799942016602,97.89326173640853L140.9413860829671,100.53530538762197L142.80815940856934,102.72255615191621L144.67493273417156,104.40003958483055L145.60831939697266,103.22429257800587L146.54170605977376,104.58244403458788L148.40847938537598,98.61325191112822L150.27525271097818,94.96649351516477L151.2086393737793,103.92998916061481L156.80895935058595,110.15072366737195L157.74234601338705,105.4895164544143L159.60911933898925,110.64624767372133L160.54250600179037,106.91470645471463L163.3426659901937,107.72404784300528L169.87637262980144,107.11857199084756L171.74314595540363,109.60021338901366L172.67653261820476,108.63946459815163L174.54330594380696,103.46303164027739L176.41007926940918,116.33105822605113L178.2768525950114,115.10584841226981L182.01039924621583,109.82348201811939L182.94378590901692,112.85660946737787L183.87717257181802,112.88399911233476L186.67733256022134,113.50571714518433L187.61071922302247,112.72685830572892L188.54410588582357,104.44142417630384L189.47749254862467,107.56461840580495L191.3442658742269,107.13720037940726L192.277652537028,110.5494096220816L195.0778125254313,116.61642739746335L196.0111991882324,111.15762355166889L196.94458585103354,110.15727908601274L199.74474583943686,116.9390651735433L200.67813250223796,116.04572749417082L201.61151916503906,110.16007925807084L202.54490582784018,114.50362513589235L205.34506581624348,113.62602105263512L209.07861246744793,117.48826850781536L210.01199913024902,117.69978942458019L211.87877245585125,119.60835653913415L212.81215911865235,106.49798644574696L213.74554578145344,118.18781476531251L214.67893244425457,111.91951577309959L216.54570576985677,110.9833446275881L218.412479095459,116.38361393688606L220.2792524210612,116.29574708062572L222.1460257466634,110.97408365727556L224.01279907226564,117.89560927098756L224.94618573506673,121.43697829789625L226.81295906066896,115.0097200135276L227.74634572347006,115.42215253623947L228.67973238627116,110.43466170544089L229.61311904907225,121.00712379655046L230.54650571187338,117.82151263782603L232.41327903747558,110.59722248605149L233.3466657002767,119.36781081886105L237.08021235148112,121.00668617726365L242.68053232828777,121.54034811308019L244.54730565388996,124.62757772511277L245.4806923166911,123.43676833553836L246.4140789794922,118.2319670030861L248.2808523050944,109.61929418129553L249.2142389678955,117.92895704339651L251.0810122934977,116.03720278873946L252.01439895629883,119.65686131467913L252.94778561909993,117.41347404930461L253.88117228190103,122.85407529827789L258.5481055959066,115.4286015069456L259.48149225870765,123.95813257801844L260.41487892150883,122.21319368030842L263.2150389099121,117.35661902466556L264.1484255727132,113.32457528620716L265.0818122355143,123.3698303259805L266.0151988983154,111.30484991591908L267.8819722239176,123.57167926512966L275.34906552632646,125.92983810224149L276.28245218912764,127.39834354127377L279.08261217753096,123.26090451998647L280.01599884033203,120.46906201276936L280.94938550313316,115.94623711482664" fill="none"></path></g><g><path style="fill: none;" stroke="rgb(204, 51, 17)" stroke-width="2px" d="M33.60191986083984,-29.8674240691836L34.535306523640955,9.91966776650054L35.46869318644206,25.652152092229368L36.402079849243165,45.64899981685267L37.33546651204427,43.02676139525398L38.268853174845376,61.04475384271178L39.20223983764649,70.11922146001035L40.13562650044759,66.49293655014014L41.0690131632487,85.29646744495119L42.0023998260498,95.14238098581325L42.93578648885091,93.4431289502677L43.86917315165202,97.84004959664338L44.802559814453126,106.38302267634992L45.73594647725423,97.80563143111404L46.669333140055336,94.70360259928123L47.60271980285645,115.29953929998466L48.536106465657554,119.23126768760548L49.46949312845866,109.82427150696788L50.402879791259764,121.9722783491512L51.33626645406087,120.9609786168897L52.26965311686198,126.05835624198102L53.20303977966309,125.89642823520401L54.13642644246419,122.81915150505904L55.0698131052653,123.85569122537542L56.00319976806641,124.4851178628242L56.936586430867514,127.48781303032767L57.86997309366862,126.47713720123856L58.803359756469725,129.93241646101774L59.73674641927084,130.55723331151975L60.67013308207194,132.39622783013382L61.60351974487305,140.44901704154478L62.53690640767415,131.4430161444208L63.47029307047526,132.2865687161457L64.40367973327638,132.44477400209783L65.33706639607747,133.58382899723404L66.27045305887857,138.15538635102635L67.20383972167969,135.93304472939369L68.1372263844808,137.88190090876037L69.07061304728191,136.86012492559934L70.00399971008301,139.16829315141203L70.93738637288412,138.2667161062107L71.87077303568522,135.4307583223084L72.80415969848633,138.53801049515562L73.73754636128743,138.13947829857378L74.67093302408854,138.65002329125383L75.60431968688965,134.22700515957212L76.53770634969075,141.19129475257694L77.47109301249186,141.92334163433665L78.40447967529298,139.1783583950084L79.33786633809407,139.87023744432537L80.27125300089519,140.9685317511607L81.20463966369628,141.27077587709834L82.1380263264974,139.548474906819L83.07141298929851,140.81769354935085L84.0047996520996,140.90850842202295L84.93818631490072,140.78296195379176L85.87157297770182,141.39163863620598L86.80495964050293,142.05927712529873L87.73834630330404,141.67627154273703L88.67173296610514,146.32809507456864L89.60511962890625,143.8350770533893L90.53850629170735,141.5988188427477L91.47189295450846,142.92796175870032L92.40527961730957,145.15114313626174L93.33866628011067,144.80234725869076L94.27205294291178,146.31931903373606L95.2054396057129,145.09761017424916L96.138826268514,145.59180653830276L97.07221293131511,142.85559342603295L98.0055995941162,143.21961579358617L98.93898625691732,142.8675259438159L99.87237291971843,145.47457779340783L100.80575958251953,146.9014709606622L101.73914624532064,144.9790508301714L102.67253290812174,147.18628423730473L103.60591957092285,147.2428827519902L104.53930623372396,147.65228520467403L105.47269289652506,145.40143919165794L106.40607955932617,146.53852711766885L107.33946622212729,145.63817939826814L108.27285288492838,148.94957135852428L109.2062395477295,144.6002913374465L110.1396262105306,146.55499993555236L111.0730128733317,146.70052017596146L112.00639953613282,147.82573250426557L112.93978619893392,146.02819132474923L113.87317286173503,147.5330620394484L114.80655952453613,146.63784673678458L115.73994618733724,148.67702916323458L116.67333285013835,148.51454526168786L117.60671951293945,149.43826125962624L118.54010617574056,146.83406280605973L119.47349283854167,147.23107294502077L120.40687950134277,148.95067797351132L121.34026616414388,148.0752900771153L122.27365282694498,147.75314166584593L123.2070394897461,148.32588256044062L124.1404261525472,147.7597466123452L125.0738128153483,146.63991434007036L126.00719947814942,150.93694468812524L126.94058614095051,150.86416904426355L127.87397280375163,148.72179643351933L128.80735946655275,150.43928876619626L129.74074612935382,151.49224438431997L130.67413279215495,150.14767834539475L131.60751945495605,150.58747833641047L132.54090611775715,149.97792419775735L133.47429278055827,151.71388524709207L134.40767944335937,151.1558363851412L135.3410661061605,150.31627265407778L136.2744527689616,150.69431214480036L137.2078394317627,149.39982838067357L138.14122609456382,149.65712486621504L139.0746127573649,150.3764172155855L140.00799942016602,149.01481211490227L140.9413860829671,149.23364319573324L141.87477274576824,151.36980116907188L142.80815940856934,151.50103225270084L143.74154607137044,148.63631061057447L144.67493273417156,153.7873235798933L145.60831939697266,148.30044372173006L146.54170605977376,151.55285539476347L147.47509272257486,150.38990801285593L148.40847938537598,149.00752708437622L149.34186604817708,150.9702126245832L150.27525271097818,150.8979729165035L151.2086393737793,151.3699002247888L152.1420260365804,151.4553779162942L153.0754126993815,151.59154921900034L154.00879936218263,151.32376391578927L154.94218602498373,150.25953738336517L155.87557268778482,153.31561840774933L156.80895935058595,150.67028448044545L157.74234601338705,152.9755874826844L158.67573267618815,151.97740080536977L159.60911933898925,150.4339249730459L160.54250600179037,152.099910550577L161.47589266459147,153.22527331051094L162.40927932739257,151.695758790113L163.3426659901937,150.7049909424644L164.2760526529948,152.71403825431022L165.2094393157959,153.20580110030278L166.14282597859702,151.44567710902956L167.07621264139812,152.87273586196002L168.0095993041992,153.3344474950191L168.94298596700034,152.6733001122733L169.87637262980144,153.28574349920757L170.80975929260254,152.86079225585053L171.74314595540363,152.04277683933134L172.67653261820476,152.84840437745834L173.60991928100586,151.55836998915456L174.54330594380696,152.58264158500518L175.47669260660808,152.64394931196523L176.41007926940918,152.94133490283113L177.34346593221028,152.9367313992694L178.2768525950114,154.2653117674564L179.2102392578125,152.65138329567756L180.1436259206136,152.70232011084008L181.0770125834147,152.98532525103747L182.01039924621583,152.79450217417252L182.94378590901692,153.81060019493168L183.87717257181802,153.29021172518574L184.81055923461915,154.33931156256628L185.74394589742025,153.82463616825618L186.67733256022134,152.89423834475465L187.61071922302247,153.30798594299222L188.54410588582357,152.11688677848468L189.47749254862467,152.41305893681803L190.4108792114258,153.25000175710218L191.3442658742269,153.65872893070073L192.277652537028,151.3827079811454L193.2110391998291,153.06014964802984L194.14442586263021,154.120245409213L195.0778125254313,152.6994327106133L196.0111991882324,153.42363238369222L196.94458585103354,152.68928541340065L197.87797251383464,152.97969422921787L198.81135917663573,153.0312468161133L199.74474583943686,152.59370995254108L200.67813250223796,151.35745764398575L201.61151916503906,152.3362197908963L202.54490582784018,152.69377692486447L203.47829249064128,153.76087718191263L204.41167915344238,152.7449950139098L205.34506581624348,153.93011165664694L206.2784524790446,153.05411094540506L207.2118391418457,153.32226844677643L208.1452258046468,153.30147044232694L209.07861246744793,154.3990610100389L210.01199913024902,153.76414343329563L210.94538579305012,154.51249237271037L211.87877245585125,153.88383230823527L212.81215911865235,155.00754623401514L213.74554578145344,151.57193766548886L214.67893244425457,153.71433873627117L215.61231910705567,153.64883296888928L216.54570576985677,154.57671632954614L217.47909243265786,154.63342129216622L218.412479095459,153.03047987352878L219.3458657582601,154.9743751356088L220.2792524210612,154.72540930978454L221.2126390838623,154.5217304271481L222.1460257466634,154.040664120142L223.0794124094645,154.18797549489554L224.01279907226564,154.26158128480296L224.94618573506673,154.71813204108707L225.87957239786783,152.66557376635163L226.81295906066896,154.32851190214316L227.74634572347006,154.15524977760458L228.67973238627116,154.93748944781706L229.61311904907225,153.94791322565888L230.54650571187338,154.07563226666693L231.47989237467448,154.88760195795456L232.41327903747558,154.57750064384226L233.3466657002767,154.3606074328767L234.2800523630778,154.48981009197362L235.2134390258789,153.68132620093414L236.14682568868002,155.02452837569697L237.08021235148112,155.68180519326427L238.01359901428222,154.84197792964042L238.94698567708335,154.55356723026276L239.88037233988445,154.5213042657987L240.81375900268554,154.76084575329963L241.74714566548664,153.3760922925548L242.68053232828777,155.64831419663773L243.61391899108887,155.9909052314915L244.54730565388996,154.82220448656173L245.4806923166911,156.02359213963965L246.4140789794922,156.10972108552284L247.3474656422933,155.247343122637L248.2808523050944,155.7655045020007L249.2142389678955,155.36961594726756L250.1476256306966,155.661178688265L251.0810122934977,155.7520094542051L252.01439895629883,155.19007154653156L252.94778561909993,155.569435353052L253.88117228190103,155.03272560588502L254.81455894470216,155.10145179290026L255.74794560750325,155.15158729166598L256.6813322703043,154.22118133672498" fill="none"></path></g></g></g></g></g><g><g><circle r="4" cx="42.0023998260498" cy="79.27395168526289" style="stroke: none;" fill="rgb(204, 51, 17)" stroke="none" stroke-width="1px"></circle></g></g></g><g transform="translate(49, 178)" clip-path="url(#clip_1)"><clipPath id="clip_1"><rect width="280" height="21"></rect></clipPath><g><g><line x1="0" y1="0" x2="0" y2="5" style="visibility: inherit;" fill="rgb(0, 0, 0)" stroke="rgb(204, 204, 204)" stroke-width="1px"></line><line x1="23.334666570027668" y1="0" x2="23.334666570027668" y2="5" style="visibility: inherit;" fill="rgb(0, 0, 0)" stroke="rgb(204, 204, 204)" stroke-width="1px"></line><line x1="46.669333140055336" y1="0" x2="46.669333140055336" y2="5" style="visibility: inherit;" fill="rgb(0, 0, 0)" stroke="rgb(204, 204, 204)" stroke-width="1px"></line><line x1="70.00399971008301" y1="0" x2="70.00399971008301" y2="5" style="visibility: inherit;" fill="rgb(0, 0, 0)" stroke="rgb(204, 204, 204)" stroke-width="1px"></line><line x1="93.33866628011067" y1="0" x2="93.33866628011067" y2="5" style="visibility: inherit;" fill="rgb(0, 0, 0)" stroke="rgb(204, 204, 204)" stroke-width="1px"></line><line x1="116.67333285013835" y1="0" x2="116.67333285013835" y2="5" style="visibility: inherit;" fill="rgb(0, 0, 0)" stroke="rgb(204, 204, 204)" stroke-width="1px"></line><line x1="140.00799942016602" y1="0" x2="140.00799942016602" y2="5" style="visibility: inherit;" fill="rgb(0, 0, 0)" stroke="rgb(204, 204, 204)" stroke-width="1px"></line><line x1="163.3426659901937" y1="0" x2="163.3426659901937" y2="5" style="visibility: inherit;" fill="rgb(0, 0, 0)" stroke="rgb(204, 204, 204)" stroke-width="1px"></line><line x1="186.67733256022134" y1="0" x2="186.67733256022134" y2="5" style="visibility: inherit;" fill="rgb(0, 0, 0)" stroke="rgb(204, 204, 204)" stroke-width="1px"></line><line x1="210.01199913024902" y1="0" x2="210.01199913024902" y2="5" style="visibility: inherit;" fill="rgb(0, 0, 0)" stroke="rgb(204, 204, 204)" stroke-width="1px"></line><line x1="233.3466657002767" y1="0" x2="233.3466657002767" y2="5" style="visibility: inherit;" fill="rgb(0, 0, 0)" stroke="rgb(204, 204, 204)" stroke-width="1px"></line><line x1="256.6813322703043" y1="0" x2="256.6813322703043" y2="5" style="visibility: inherit;" fill="rgb(0, 0, 0)" stroke="rgb(204, 204, 204)" stroke-width="1px"></line><line x1="280.01599884033203" y1="0" x2="280.01599884033203" y2="5" style="visibility: inherit;" fill="rgb(0, 0, 0)" stroke="rgb(204, 204, 204)" stroke-width="1px"></line></g><g transform="translate(0, 8)"><text style="text-anchor: middle; visibility: hidden; font-family: Roboto, sans-serif; font-size: 12px; font-weight: 200;" x="0" y="0" dx="0em" dy="0.95em" fill="rgb(50, 49, 63)" stroke="none" stroke-width="1px">-500</text><text style="text-anchor: middle; visibility: inherit; font-family: Roboto, sans-serif; font-size: 12px; font-weight: 200;" x="23.334666570027668" y="0" dx="0em" dy="0.95em" fill="rgb(50, 49, 63)" stroke="none" stroke-width="1px">0</text><text style="text-anchor: middle; visibility: inherit; font-family: Roboto, sans-serif; font-size: 12px; font-weight: 200;" x="46.669333140055336" y="0" dx="0em" dy="0.95em" fill="rgb(50, 49, 63)" stroke="none" stroke-width="1px">500</text><text style="text-anchor: middle; visibility: inherit; font-family: Roboto, sans-serif; font-size: 12px; font-weight: 200;" x="70.00399971008301" y="0" dx="0em" dy="0.95em" fill="rgb(50, 49, 63)" stroke="none" stroke-width="1px">1k</text><text style="text-anchor: middle; visibility: inherit; font-family: Roboto, sans-serif; font-size: 12px; font-weight: 200;" x="93.33866628011067" y="0" dx="0em" dy="0.95em" fill="rgb(50, 49, 63)" stroke="none" stroke-width="1px">1.5k</text><text style="text-anchor: middle; visibility: inherit; font-family: Roboto, sans-serif; font-size: 12px; font-weight: 200;" x="116.67333285013835" y="0" dx="0em" dy="0.95em" fill="rgb(50, 49, 63)" stroke="none" stroke-width="1px">2k</text><text style="text-anchor: middle; visibility: inherit; font-family: Roboto, sans-serif; font-size: 12px; font-weight: 200;" x="140.00799942016602" y="0" dx="0em" dy="0.95em" fill="rgb(50, 49, 63)" stroke="none" stroke-width="1px">2.5k</text><text style="text-anchor: middle; visibility: inherit; font-family: Roboto, sans-serif; font-size: 12px; font-weight: 200;" x="163.3426659901937" y="0" dx="0em" dy="0.95em" fill="rgb(50, 49, 63)" stroke="none" stroke-width="1px">3k</text><text style="text-anchor: middle; visibility: inherit; font-family: Roboto, sans-serif; font-size: 12px; font-weight: 200;" x="186.67733256022134" y="0" dx="0em" dy="0.95em" fill="rgb(50, 49, 63)" stroke="none" stroke-width="1px">3.5k</text><text style="text-anchor: middle; visibility: inherit; font-family: Roboto, sans-serif; font-size: 12px; font-weight: 200;" x="210.01199913024902" y="0" dx="0em" dy="0.95em" fill="rgb(50, 49, 63)" stroke="none" stroke-width="1px">4k</text><text style="text-anchor: middle; visibility: inherit; font-family: Roboto, sans-serif; font-size: 12px; font-weight: 200;" x="233.3466657002767" y="0" dx="0em" dy="0.95em" fill="rgb(50, 49, 63)" stroke="none" stroke-width="1px">4.5k</text><text style="text-anchor: middle; visibility: inherit; font-family: Roboto, sans-serif; font-size: 12px; font-weight: 200;" x="256.6813322703043" y="0" dx="0em" dy="0.95em" fill="rgb(50, 49, 63)" stroke="none" stroke-width="1px">5k</text><text style="text-anchor: middle; visibility: hidden; font-family: Roboto, sans-serif; font-size: 12px; font-weight: 200;" x="280.01599884033203" y="0" dx="0em" dy="0.95em" fill="rgb(50, 49, 63)" stroke="none" stroke-width="1px">5.5k</text></g><line x1="0" y1="0" x2="280.01599884033203" y2="0" fill="rgb(0, 0, 0)" stroke="rgb(204, 204, 204)" stroke-width="1px"></line></g></g></g></g></svg>