<svg viewBox="0 0 330 200" xmlns="http://www.w3.org/2000/svg"><g><g><g><g><g><line x1="49.98400115966797" y1="178.58999919891357" x2="44.98400115966797" y2="178.58999919891357" style="visibility: inherit;" fill="rgb(0, 0, 0)" stroke="rgb(204, 204, 204)" stroke-width="1px"></line><line x1="49.98400115966797" y1="166.68399925231932" x2="44.98400115966797" y2="166.68399925231932" style="visibility: inherit;" fill="rgb(0, 0, 0)" stroke="rgb(204, 204, 204)" stroke-width="1px"></line><line x1="49.98400115966797" y1="154.7779993057251" x2="44.98400115966797" y2="154.7779993057251" style="visibility: inherit;" fill="rgb(0, 0, 0)" stroke="rgb(204, 204, 204)" stroke-width="1px"></line><line x1="49.98400115966797" y1="142.87199935913085" x2="44.98400115966797" y2="142.87199935913085" style="visibility: inherit;" fill="rgb(0, 0, 0)" stroke="rgb(204, 204, 204)" stroke-width="1px"></line><line x1="49.98400115966797" y1="130.96599941253663" x2="44.98400115966797" y2="130.96599941253663" style="visibility: inherit;" fill="rgb(0, 0, 0)" stroke="rgb(204, 204, 204)" stroke-width="1px"></line><line x1="49.98400115966797" y1="119.0599994659424" x2="44.98400115966797" y2="119.0599994659424" style="visibility: inherit;" fill="rgb(0, 0, 0)" stroke="rgb(204, 204, 204)" stroke-width="1px"></line><line x1="49.98400115966797" y1="107.15399951934816" x2="44.98400115966797" y2="107.15399951934816" style="visibility: inherit;" fill="rgb(0, 0, 0)" stroke="rgb(204, 204, 204)" stroke-width="1px"></line><line x1="49.98400115966797" y1="95.24799957275393" x2="44.98400115966797" y2="95.24799957275393" style="visibility: inherit;" fill="rgb(0, 0, 0)" stroke="rgb(204, 204, 204)" stroke-width="1px"></line><line x1="49.98400115966797" y1="83.34199962615966" x2="44.98400115966797" y2="83.34199962615966" style="visibility: inherit;" fill="rgb(0, 0, 0)" stroke="rgb(204, 204, 204)" stroke-width="1px"></line><line x1="49.98400115966797" y1="71.43599967956543" x2="44.98400115966797" y2="71.43599967956543" style="visibility: inherit;" fill="rgb(0, 0, 0)" stroke="rgb(204, 204, 204)" stroke-width="1px"></line><line x1="49.98400115966797" y1="59.5299997329712" x2="44.98400115966797" y2="59.5299997329712" style="visibility: inherit;" fill="rgb(0, 0, 0)" stroke="rgb(204, 204, 204)" stroke-width="1px"></line><line x1="49.98400115966797" y1="47.62399978637694" x2="44.98400115966797" y2="47.62399978637694" style="visibility: inherit;" fill="rgb(0, 0, 0)" stroke="rgb(204, 204, 204)" stroke-width="1px"></line><line x1="49.98400115966797" y1="35.717999839782685" x2="44.98400115966797" y2="35.717999839782685" style="visibility: inherit;" fill="rgb(0, 0, 0)" stroke="rgb(204, 204, 204)" stroke-width="1px"></line><line x1="49.98400115966797" y1="23.81199989318847" x2="44.98400115966797" y2="23.81199989318847" style="visibility: inherit;" fill="rgb(0, 0, 0)" stroke="rgb(204, 204, 204)" stroke-width="1px"></line><line x1="49.98400115966797" y1="11.905999946594216" x2="44.98400115966797" y2="11.905999946594216" style="visibility: inherit;" fill="rgb(0, 0, 0)" stroke="rgb(204, 204, 204)" stroke-width="1px"></line><line x1="49.98400115966797" y1="0" x2="44.98400115966797" y2="0" style="visibility: inherit;" fill="rgb(0, 0, 0)" stroke="rgb(204, 204, 204)" stroke-width="1px"></line></g><g transform="translate(39.98400115966797, 0)"><text style="text-anchor: end; visibility: hidden; font-family: Roboto, sans-serif; font-size: 12px; font-weight: 200;" x="0" y="178.58999919891357" dx="0em" dy="0.3em" fill="rgb(50, 49, 63)" stroke="none" stroke-width="1px">-0.2</text><text style="text-anchor: end; visibility: inherit; font-family: Roboto, sans-serif; font-size: 12px; font-weight: 200;" x="0" y="166.68399925231932" dx="0em" dy="0.3em" fill="rgb(50, 49, 63)" stroke="none" stroke-width="1px">0</text><text style="text-anchor: end; visibility: hidden; font-family: Roboto, sans-serif; font-size: 12px; font-weight: 200;" x="0" y="154.7779993057251" dx="0em" dy="0.3em" fill="rgb(50, 49, 63)" stroke="none" stroke-width="1px">0.2</text><text style="text-anchor: end; visibility: hidden; font-family: Roboto, sans-serif; font-size: 12px; font-weight: 200;" x="0" y="142.87199935913085" dx="0em" dy="0.3em" fill="rgb(50, 49, 63)" stroke="none" stroke-width="1px">0.4</text><text style="text-anchor: end; visibility: inherit; font-family: Roboto, sans-serif; font-size: 12px; font-weight: 200;" x="0" y="130.96599941253663" dx="0em" dy="0.3em" fill="rgb(50, 49, 63)" stroke="none" stroke-width="1px">0.6</text><text style="text-anchor: end; visibility: hidden; font-family: Roboto, sans-serif; font-size: 12px; font-weight: 200;" x="0" y="119.0599994659424" dx="0em" dy="0.3em" fill="rgb(50, 49, 63)" stroke="none" stroke-width="1px">0.8</text><text style="text-anchor: end; visibility: hidden; font-family: Roboto, sans-serif; font-size: 12px; font-weight: 200;" x="0" y="107.15399951934816" dx="0em" dy="0.3em" fill="rgb(50, 49, 63)" stroke="none" stroke-width="1px">1</text><text style="text-anchor: end; visibility: inherit; font-family: Roboto, sans-serif; font-size: 12px; font-weight: 200;" x="0" y="95.24799957275393" dx="0em" dy="0.3em" fill="rgb(50, 49, 63)" stroke="none" stroke-width="1px">1.2</text><text style="text-anchor: end; visibility: hidden; font-family: Roboto, sans-serif; font-size: 12px; font-weight: 200;" x="0" y="83.34199962615966" dx="0em" dy="0.3em" fill="rgb(50, 49, 63)" stroke="none" stroke-width="1px">1.4</text><text style="text-anchor: end; visibility: hidden; font-family: Roboto, sans-serif; font-size: 12px; font-weight: 200;" x="0" y="71.43599967956543" dx="0em" dy="0.3em" fill="rgb(50, 49, 63)" stroke="none" stroke-width="1px">1.6</text><text style="text-anchor: end; visibility: inherit; font-family: Roboto, sans-serif; font-size: 12px; font-weight: 200;" x="0" y="59.5299997329712" dx="0em" dy="0.3em" fill="rgb(50, 49, 63)" stroke="none" stroke-width="1px">1.8</text><text style="text-anchor: end; visibility: hidden; font-family: Roboto, sans-serif; font-size: 12px; font-weight: 200;" x="0" y="47.62399978637694" dx="0em" dy="0.3em" fill="rgb(50, 49, 63)" stroke="none" stroke-width="1px">2</text><text style="text-anchor: end; visibility: hidden; font-family: Roboto, sans-serif; font-size: 12px; font-weight: 200;" x="0" y="35.717999839782685" dx="0em" dy="0.3em" fill="rgb(50, 49, 63)" stroke="none" stroke-width="1px">2.2</text><text style="text-anchor: end; visibility: inherit; font-family: Roboto, sans-serif; font-size: 12px; font-weight: 200;" x="0" y="23.81199989318847" dx="0em" dy="0.3em" fill="rgb(50, 49, 63)" stroke="none" stroke-width="1px">2.4</text><text style="text-anchor: end; visibility: hidden; font-family: Roboto, sans-serif; font-size: 12px; font-weight: 200;" x="0" y="11.905999946594216" dx="0em" dy="0.3em" fill="rgb(50, 49, 63)" stroke="none" stroke-width="1px">2.6</text><text style="text-anchor: end; visibility: hidden; font-family: Roboto, sans-serif; font-size: 12px; font-weight: 200;" x="0" y="0" dx="0em" dy="0.3em" fill="rgb(50, 49, 63)" stroke="none" stroke-width="1px">2.8</text></g><line x1="49.98400115966797" y1="0" x2="49.98400115966797" y2="178.58999919891357" fill="rgb(0, 0, 0)" stroke="rgb(204, 204, 204)" stroke-width="1px"></line></g></g><g transform="translate(49, 0)" clip-path="url(#clip_0)"><clipPath id="clip_0"><rect width="280" height="178"></rect></clipPath><g><g><g><line x1="0" y1="0" x2="0" y2="178.58999919891357" fill="rgb(0, 0, 0)" stroke="rgb(60, 60, 60)" stroke-width="1px" opacity="0.25"></line><line x1="23.334666570027668" y1="0" x2="23.334666570027668" y2="178.58999919891357" fill="rgb(0, 0, 0)" stroke="rgb(60, 60, 60)" stroke-width="1px" opacity="0.25"></line><line x1="46.669333140055336" y1="0" x2="46.669333140055336" y2="178.58999919891357" fill="rgb(0, 0, 0)" stroke="rgb(60, 60, 60)" stroke-width="1px" opacity="0.25"></line><line x1="70.00399971008301" y1="0" x2="70.00399971008301" y2="178.58999919891357" fill="rgb(0, 0, 0)" stroke="rgb(60, 60, 60)" stroke-width="1px" opacity="0.25"></line><line x1="93.33866628011067" y1="0" x2="93.33866628011067" y2="178.58999919891357" fill="rgb(0, 0, 0)" stroke="rgb(60, 60, 60)" stroke-width="1px" opacity="0.25"></line><line x1="116.67333285013835" y1="0" x2="116.67333285013835" y2="178.58999919891357" fill="rgb(0, 0, 0)" stroke="rgb(60, 60, 60)" stroke-width="1px" opacity="0.25"></line><line x1="140.00799942016602" y1="0" x2="140.00799942016602" y2="178.58999919891357" fill="rgb(0, 0, 0)" stroke="rgb(60, 60, 60)" stroke-width="1px" opacity="0.25"></line><line x1="163.3426659901937" y1="0" x2="163.3426659901937" y2="178.58999919891357" fill="rgb(0, 0, 0)" stroke="rgb(60, 60, 60)" stroke-width="1px" opacity="0.25"></line><line x1="186.67733256022134" y1="0" x2="186.67733256022134" y2="178.58999919891357" fill="rgb(0, 0, 0)" stroke="rgb(60, 60, 60)" stroke-width="1px" opacity="0.25"></line><line x1="210.01199913024902" y1="0" x2="210.01199913024902" y2="178.58999919891357" fill="rgb(0, 0, 0)" stroke="rgb(60, 60, 60)" stroke-width="1px" opacity="0.25"></line><line x1="233.3466657002767" y1="0" x2="233.3466657002767" y2="178.58999919891357" fill="rgb(0, 0, 0)" stroke="rgb(60, 60, 60)" stroke-width="1px" opacity="0.25"></line><line x1="256.6813322703043" y1="0" x2="256.6813322703043" y2="178.58999919891357" fill="rgb(0, 0, 0)" stroke="rgb(60, 60, 60)" stroke-width="1px" opacity="0.25"></line><line x1="280.01599884033203" y1="0" x2="280.01599884033203" y2="178.58999919891357" fill="rgb(0, 0, 0)" stroke="rgb(60, 60, 60)" stroke-width="1px" opacity="0.25"></line></g><g><line x1="0" y1="178.58999919891357" x2="280.01599884033203" y2="178.58999919891357" fill="rgb(0, 0, 0)" stroke="rgb(60, 60, 60)" stroke-width="1px" opacity="0.25"></line><line x1="0" y1="166.68399925231932" x2="280.01599884033203" y2="166.68399925231932" fill="rgb(0, 0, 0)" stroke="rgb(60, 60, 60)" stroke-width="1px" opacity="0.25"></line><line x1="0" y1="154.7779993057251" x2="280.01599884033203" y2="154.7779993057251" fill="rgb(0, 0, 0)" stroke="rgb(60, 60, 60)" stroke-width="1px" opacity="0.25"></line><line x1="0" y1="142.87199935913085" x2="280.01599884033203" y2="142.87199935913085" fill="rgb(0, 0, 0)" stroke="rgb(60, 60, 60)" stroke-width="1px" opacity="0.25"></line><line x1="0" y1="130.96599941253663" x2="280.01599884033203" y2="130.96599941253663" fill="rgb(0, 0, 0)" stroke="rgb(60, 60, 60)" stroke-width="1px" opacity="0.25"></line><line x1="0" y1="119.0599994659424" x2="280.01599884033203" y2="119.0599994659424" fill="rgb(0, 0, 0)" stroke="rgb(60, 60, 60)" stroke-width="1px" opacity="0.25"></line><line x1="0" y1="107.15399951934816" x2="280.01599884033203" y2="107.15399951934816" fill="rgb(0, 0, 0)" stroke="rgb(60, 60, 60)" stroke-width="1px" opacity="0.25"></line><line x1="0" y1="95.24799957275393" x2="280.01599884033203" y2="95.24799957275393" fill="rgb(0, 0, 0)" stroke="rgb(60, 60, 60)" stroke-width="1px" opacity="0.25"></line><line x1="0" y1="83.34199962615966" x2="280.01599884033203" y2="83.34199962615966" fill="rgb(0, 0, 0)" stroke="rgb(60, 60, 60)" stroke-width="1px" opacity="0.25"></line><line x1="0" y1="71.43599967956543" x2="280.01599884033203" y2="71.43599967956543" fill="rgb(0, 0, 0)" stroke="rgb(60, 60, 60)" stroke-width="1px" opacity="0.25"></line><line x1="0" y1="59.5299997329712" x2="280.01599884033203" y2="59.5299997329712" fill="rgb(0, 0, 0)" stroke="rgb(60, 60, 60)" stroke-width="1px" opacity="0.25"></line><line x1="0" y1="47.62399978637694" x2="280.01599884033203" y2="47.62399978637694" fill="rgb(0, 0, 0)" stroke="rgb(60, 60, 60)" stroke-width="1px" opacity="0.25"></line><line x1="0" y1="35.717999839782685" x2="280.01599884033203" y2="35.717999839782685" fill="rgb(0, 0, 0)" stroke="rgb(60, 60, 60)" stroke-width="1px" opacity="0.25"></line><line x1="0" y1="23.81199989318847" x2="280.01599884033203" y2="23.81199989318847" fill="rgb(0, 0, 0)" stroke="rgb(60, 60, 60)" stroke-width="1px" opacity="0.25"></line><line x1="0" y1="11.905999946594216" x2="280.01599884033203" y2="11.905999946594216" fill="rgb(0, 0, 0)" stroke="rgb(60, 60, 60)" stroke-width="1px" opacity="0.25"></line><line x1="0" y1="0" x2="280.01599884033203" y2="0" fill="rgb(0, 0, 0)" stroke="rgb(60, 60, 60)" stroke-width="1px" opacity="0.25"></line></g></g></g><g><g><line x1="0" y1="166.68399925231932" x2="280.01599884033203" y2="166.68399925231932" fill="rgb(0, 0, 0)" stroke="rgb(153, 153, 153)" stroke-width="1.5px"></line></g></g><g><g><line x1="23.334666570027668" y1="0" x2="23.334666570027668" y2="178.58999919891357" fill="rgb(0, 0, 0)" stroke="rgb(153, 153, 153)" stroke-width="1.5px"></line></g></g><g><g><g><g><g><path style="fill: none;" stroke="rgb(51, 187, 238)" stroke-width="2px" d="M24.268053232828777,-2.6689538073625982L25.201439895629882,4.078510122951543L26.13482655843099,11.51908178322811L27.068213221232096,20.100018251692347L28.001599884033205,33.54701176649568L28.93498654683431,46.92914074969712L29.86837320963542,61.70332691075932L30.801759872436524,73.74625955849119L31.73514653523763,85.66270712596258L32.66853319803874,94.98847637931156L33.60191986083984,102.61697802399488L34.535306523640955,108.28224014883907L35.46869318644206,116.27431695684535L36.402079849243165,116.73715006968678L37.33546651204427,120.42237347049758L38.268853174845376,124.28970639776519L39.20223983764649,129.3996046905763L40.13562650044759,131.51342381892917L41.0690131632487,133.42789621835428L42.0023998260498,136.7867554247757L42.93578648885091,136.79509827149144L43.86917315165202,137.41316937313158L44.802559814453126,138.0798305415501L45.73594647725423,139.8671047764744L46.669333140055336,139.57706146395788L47.60271980285645,141.87926779438905L48.536106465657554,142.78094107386852L49.46949312845866,145.0803474127303L50.402879791259764,145.50170570424103L51.33626645406087,145.6461764779903L52.26965311686198,147.52292444307707L53.20303977966309,149.06579061440559L54.13642644246419,149.32414485992726L55.0698131052653,150.68807881066078L56.00319976806641,151.27813353664314L56.936586430867514,151.57697701698285L57.86997309366862,151.3615777092054L58.803359756469725,151.43720853014307L59.73674641927084,152.4505812525619L60.67013308207194,153.3580301517397L61.60351974487305,154.3475579508433L62.53690640767415,154.1213537360772L63.47029307047526,154.53221580415877L64.40367973327638,154.68603889313232L65.33706639607747,155.61709315054202L66.27045305887857,155.78321917110694L67.20383972167969,156.04473041707038L68.1372263844808,155.70861149131437L69.07061304728191,156.02167586545863L70.00399971008301,155.37181501703782L70.93738637288412,155.47674337651526L71.87077303568522,155.95162267448077L72.80415969848633,155.87404287636667L73.73754636128743,156.5489572288788L74.67093302408854,156.98389612666114L75.60431968688965,157.42331055707123L76.53770634969075,157.20616973207885L77.47109301249186,157.39894123527102L78.40447967529298,157.58914572271456L79.33786633809407,157.6401015011202L80.27125300089519,157.57493711506595L81.20463966369628,157.53874380239583L82.1380263264974,158.24462960821666L83.07141298929851,158.15709923516874L84.0047996520996,158.3337534794511L84.93818631490072,158.62664269689458L85.87157297770182,158.72562478270953L86.80495964050293,158.35577551156777L87.73834630330404,158.86745668052092L88.67173296610514,159.61337718316958L89.60511962890625,159.6529755814831L90.53850629170735,159.4105819624575L91.47189295450846,159.03203723313496L92.40527961730957,159.18159645991304L93.33866628011067,159.33990965855745L94.27205294291178,159.63919050233457L95.2054396057129,159.2953158379575L96.138826268514,160.01019253007166L97.07221293131511,160.02697006120056L98.0055995941162,160.31819804184755L98.93898625691732,159.65188827944291L99.87237291971843,159.46977461008063L100.80575958251953,159.8500334930022L101.73914624532064,160.31081286514654L102.67253290812174,160.53215678031302L103.60591957092285,160.55068754591326L104.53930623372396,160.47562309620113L105.47269289652506,160.58569751810055L106.40607955932617,159.73287064837555L107.33946622212729,160.34679135699622L108.27285288492838,160.9300059221882L109.2062395477295,160.58560139571583L110.1396262105306,160.64367233918324L111.0730128733317,160.75333236835584L112.00639953613282,161.34771654000969L112.93978619893392,161.39874566748168L113.87317286173503,161.82781763355442L114.80655952453613,161.61655920258954L115.73994618733724,161.64922305469295L116.67333285013835,161.9186988444172L117.60671951293945,161.5341366291601L118.54010617574056,161.6082754102649L119.47349283854167,162.15672489355916L120.40687950134277,162.00906910502826L121.34026616414388,161.77594985176097L122.27365282694498,161.13511586847116L123.2070394897461,161.2566961039368L124.1404261525472,161.62135239113547L125.0738128153483,161.73131681111695L126.00719947814942,161.88230460628566L126.94058614095051,161.9963782784598L127.87397280375163,162.0626717012451L128.80735946655275,161.89728142502224L129.74074612935382,162.1253427238858L130.67413279215495,162.4949020986415L131.60751945495605,162.29076322171818L132.54090611775715,162.43938504373642L133.47429278055827,162.46705393962577L134.40767944335937,162.71009380748282L135.3410661061605,162.89859651957332L136.2744527689616,162.5641265399491L137.2078394317627,162.47935712749558L138.14122609456382,162.7283577151484L139.0746127573649,162.85685630612318L140.00799942016602,162.9047415347026" fill="none"></path></g><g><path style="fill: none;" stroke="rgb(204, 51, 17)" stroke-width="2px" d="M28.001599884033205,-4.327175078068347L28.93498654683431,0.15030155633992084L29.86837320963542,1.963151053670614L30.801759872436524,6.935748020122228L31.73514653523763,15.429839644557049L32.66853319803874,23.88706160925172L33.60191986083984,35.76430924362391L34.535306523640955,52.43547938717401L35.46869318644206,66.20299280307081L36.402079849243165,79.2580938221846L37.33546651204427,86.45770999084823L38.268853174845376,95.10122984775614L39.20223983764649,102.46449874415241L40.13562650044759,106.01162003764216L41.0690131632487,112.65276689205099L42.0023998260498,119.00037069072316L42.93578648885091,122.40101799422354L43.86917315165202,125.49664701867269L44.802559814453126,129.40433204145555L45.73594647725423,129.69035145332828L46.669333140055336,129.11747439042705L47.60271980285645,133.71677864542232L48.536106465657554,137.4199735782155L49.46949312845866,137.38420916725013L50.402879791259764,140.27827281577453L51.33626645406087,141.7719986274787L52.26965311686198,143.89160471508112L53.20303977966309,145.12450553619723L54.13642644246419,145.1256995547929L55.0698131052653,145.37518550308084L56.00319976806641,145.6759394638546L56.936586430867514,146.57703868299416L57.86997309366862,146.87513601102683L58.803359756469725,147.88326143133253L59.73674641927084,148.63809272639946L60.67013308207194,149.5323501876152L61.60351974487305,152.00157407555432L62.53690640767415,151.32166819162344L63.47029307047526,151.11617727863958L64.40367973327638,151.03085199950453L65.33706639607747,151.25303003087893L66.27045305887857,152.4835106146459L67.20383972167969,152.6884369756728L68.1372263844808,153.27911827534027L69.07061304728191,153.38830081917507L70.00399971008301,154.0077707196731L70.93738637288412,154.16307416912105L71.87077303568522,153.5756263706518L72.80415969848633,153.968898213055L73.73754636128743,154.10921359131697L74.67093302408854,154.31593361651736L75.60431968688965,153.37844128003368L76.53770634969075,154.48737538046498L77.47109301249186,155.32842709234603L78.40447967529298,155.1742621420358L79.33786633809407,155.24781414368573L80.27125300089519,155.5555359783162L81.20463966369628,155.8127076693195L82.1380263264974,155.55365845105442L83.07141298929851,155.70284139430302L84.0047996520996,155.8141467296935L84.93818631490072,155.8507987785523L85.87157297770182,156.01887241164698L86.80495964050293,156.27994982888606L87.73834630330404,156.3446749394147L88.67173296610514,157.49994765337146L89.60511962890625,157.5947869566625L90.53850629170735,157.1149885680831L91.47189295450846,157.14610383476412L92.40527961730957,157.69833652538748L93.33866628011067,157.9459651291444L94.27205294291178,158.45861551740947L95.2054396057129,158.47299562409165L96.138826268514,158.60023081547385L97.07221293131511,158.01988078335836L98.0055995941162,157.75903613230187L98.93898625691732,157.51802777772312L99.87237291971843,157.99911520887792L100.80575958251953,158.63022202771185L101.73914624532064,158.54750528769443L102.67253290812174,159.02761126139595L103.60591957092285,159.3292584891414L104.53930623372396,159.6085034144328L105.47269289652506,159.23584732648374L106.40607955932617,159.28515477595695L107.33946622212729,159.0986557929847L108.27285288492838,159.7814904736628L109.2062395477295,159.14736407701102L110.1396262105306,159.23601830256536L111.0730128733317,159.32413569559614L112.00639953613282,159.6470570902076L112.93978619893392,159.40940004389054L113.87317286173503,159.6279747876281L114.80655952453613,159.54426796123133L115.73994618733724,159.9834476477413L116.67333285013835,160.20795932327601L117.60671951293945,160.56435816810207L118.54010617574056,160.15318984614177L119.47349283854167,160.0017712863162L120.40687950134277,160.3236253572586L121.34026616414388,160.30664470468903L122.27365282694498,160.21914069444261L123.2070394897461,160.30409610299748L124.1404261525472,160.21919672058752L125.0738128153483,159.89949734579557L126.00719947814942,160.73896500445358L126.94058614095051,161.22517944512157L127.87397280375163,161.00273868294374L128.80735946655275,161.2814723854795L129.74074612935382,161.70142195535067L130.67413279215495,161.63069584793132L131.60751945495605,161.6938121813235L132.54090611775715,161.58538898808203L133.47429278055827,161.93696572397747L134.40767944335937,162.01398003864657L135.3410661061605,161.85869333199275L136.2744527689616,161.8562507857739L137.2078394317627,161.54410915465218L138.14122609456382,161.41857533250908L139.0746127573649,161.51588520307214L140.00799942016602,161.247485901246L140.9413860829671,161.13896577954975L141.87477274576824,161.58653162013326L142.80815940856934,161.88656658455434L143.74154607137044,161.37905436909665L144.67493273417156,162.31079015245854L145.60831939697266,161.5529804565165L146.54170605977376,161.8788734404793L147.47509272257486,161.79530185919918L148.40847938537598,161.41338748759597L149.34186604817708,161.6552833942837L150.27525271097818,161.78308340835724L151.2086393737793,161.97302597078982L152.1420260365804,162.10750615421068L153.0754126993815,162.22087537691266L154.00879936218263,162.2246284377632L154.94218602498373,161.97146590649172L155.87557268778482,162.55302783358104L156.80895935058595,162.2670848472817L157.74234601338705,162.64879177603945L158.67573267618815,162.63825113073858L159.60911933898925,162.26149254380033L160.54250600179037,162.43527393024485L161.47589266459147,162.80962982449572L162.40927932739257,162.66715987615072L163.3426659901937,162.34389362370806L164.2760526529948,162.63210522708548L165.2094393157959,162.92305527215012L166.14282597859702,162.67519554128336L167.07621264139812,162.8689738034666L168.0095993041992,163.09605155271072L168.94298596700034,163.0736228303982L169.87637262980144,163.2071520098749L170.80975929260254,163.18528121915526L171.74314595540363,162.97583504475884L172.67653261820476,163.04351794927146L173.60991928100586,162.77451943878614L174.54330594380696,162.8589455154991L175.47669260660808,162.92431501599728L176.41007926940918,163.03490925810402L177.34346593221028,163.10016096251323L178.2768525950114,163.45817127352367L179.2102392578125,163.28563462690298L180.1436259206136,163.19433747456958L181.0770125834147,163.2074804168169L182.01039924621583,163.16956864371772L182.94378590901692,163.3906851048404L183.87717257181802,163.398461748775L184.81055923461915,163.65491169610706L185.74394589742025,163.6852595698719L186.67733256022134,163.48017281649044L187.61071922302247,163.45642018803858L188.54410588582357,163.15630481148563L189.47749254862467,163.04731690355388L190.4108792114258,163.18279043566304L191.3442658742269,163.36216907659215L192.277652537028,162.92355123325638L193.2110391998291,163.06296652730714L194.14442586263021,163.4010386864216L195.0778125254313,163.26288693422632L196.0111991882324,163.3538038044481L196.94458585103354,163.2321106537112L197.87797251383464,163.22879287906517L198.81135917663573,163.23917483513247L199.74474583943686,163.1403951615155L200.67813250223796,162.78442680329206L201.61151916503906,162.80574870361653L202.54490582784018,162.90435555596358L203.47829249064128,163.21962372906336L204.41167915344238,163.16497291260254L205.34506581624348,163.41661041698296L206.2784524790446,163.35735274891314L207.2118391418457,163.38615594840041L208.1452258046468,163.39844634702487L209.07861246744793,163.66924232245043L210.01199913024902,163.6793396892874L210.94538579305012,163.86500185484908L211.87877245585125,163.82552073871207L212.81215911865235,164.07152341121704L213.74554578145344,163.39457895827374L214.67893244425457,163.5025885434955L215.61231910705567,163.5516729104569L216.54570576985677,163.80381553719138L217.47909243265786,163.9687103042609L218.412479095459,163.6829412240296L219.3458657582601,163.97801463879006L220.2792524210612,164.0953068894485L221.2126390838623,164.1167993080108L222.1460257466634,164.01423884546674L223.0794124094645,163.98805729788114L224.01279907226564,163.99001375890757L224.94618573506673,164.10075981703162L225.87957239786783,163.67459346596954L226.81295906066896,163.81799880792224L227.74634572347006,163.8624591032046L228.67973238627116,164.07687280122505L229.61311904907225,163.96802272671934L230.54650571187338,163.93336525185782L231.47989237467448,164.10744349284997L232.41327903747558,164.1374661220583L233.3466657002767,164.10342532895154L234.2800523630778,164.11400949127076L235.2134390258789,163.9263238548128L236.14682568868002,164.13608099488115L237.08021235148112,164.4196817151383L238.01359901428222,164.38828360402286L238.94698567708335,164.30022616950293L239.88037233988445,164.23964859731961L240.81375900268554,164.26079201100984L241.74714566548664,163.94113722864526L242.68053232828777,164.29467761620637L243.61391899108887,164.58902369710796L244.54730565388996,164.48514316686575L245.4806923166911,164.71114788545913L246.4140789794922,164.86742166362714L247.3474656422933,164.75421521943534L248.2808523050944,164.81065008396754L249.2142389678955,164.74949774955093L250.1476256306966,164.78278140674033L251.0810122934977,164.82455098487958L252.01439895629883,164.7147476339215L252.94778561909993,164.73991293691157L253.88117228190103,164.6262017793855L254.81455894470216,164.57446936975353L255.74794560750325,164.55546244367812L256.6813322703043,164.32076085884705" fill="none"></path></g></g></g></g><g opacity="0.2"><g><g><g><path style="fill: none;" stroke="rgb(51, 187, 238)" stroke-width="2px" d="M23.334666570027668,-9.300367402797335L24.268053232828777,1.3098943498982236L25.201439895629882,10.556075496053104L26.13482655843099,20.269194055713292L27.068213221232096,31.303288904919278L28.001599884033205,52.14904471513403L28.93498654683431,66.06579930973892L29.86837320963542,83.24423216577516L30.801759872436524,91.50724599465815L31.73514653523763,103.35724297319229L32.66853319803874,108.89254621858379L33.60191986083984,114.01821652194411L34.535306523640955,116.76163527232205L35.46869318644206,128.2467748583936L36.402079849243165,117.43085569599887L37.33546651204427,125.94760946665197L38.268853174845376,130.0890692629811L39.20223983764649,137.06315472716994L40.13562650044759,134.6838304923898L41.0690131632487,136.29942982713143L42.0023998260498,141.8248600265863L42.93578648885091,136.80761226704018L43.86917315165202,138.340263822856L44.802559814453126,139.07981439694078L45.73594647725423,142.54800342568058L46.669333140055336,139.14199773208531L47.60271980285645,145.33257139932076L48.536106465657554,144.13344960880687L49.46949312845866,148.52945480294474L50.402879791259764,146.1337429086288L51.33626645406087,145.86288259070622L52.26965311686198,150.33804601729713L53.20303977966309,151.38008968721113L54.13642644246419,149.7116762097044L55.0698131052653,152.73397967814356L56.00319976806641,152.16321561040155L56.936586430867514,152.02524223286878L57.86997309366862,151.03847874953877L58.803359756469725,151.55065476112827L59.73674641927084,153.97064033280364L60.67013308207194,154.71920349868682L61.60351974487305,155.83184964830824L62.53690640767415,153.78204741409132L63.47029307047526,155.1485089061032L64.40367973327638,154.9167735265527L65.33706639607747,157.0136745365114L66.27045305887857,156.03240820193875L67.20383972167969,156.43699728600086L68.1372263844808,155.20443310269167L69.07061304728191,156.49127242666873L70.00399971008301,154.3970237444145L70.93738637288412,155.6341359157306L71.87077303568522,156.663941621427L72.80415969848633,155.75767317919573L73.73754636128743,157.56132875764592L74.67093302408854,157.63630447333423L75.60431968688965,158.08243220268614L76.53770634969075,156.88045849459033L77.47109301249186,157.6880984900592L78.40447967529298,157.87445245387988L79.33786633809407,157.71653516872865L80.27125300089519,157.4771905359846L81.20463966369628,157.48445383339063L82.1380263264974,159.30345831694788L83.07141298929851,158.02580367559688L84.0047996520996,158.59873484587467L84.93818631490072,159.0659765230598L85.87157297770182,158.874097911432L86.80495964050293,157.8010016048551L87.73834630330404,159.6349784339507L88.67173296610514,160.73225793714255L89.60511962890625,159.7123731789534L90.53850629170735,159.04699153391908L91.47189295450846,158.46422013915117L92.40527961730957,159.40593530008013L93.33866628011067,159.57737945652408L94.27205294291178,160.0881117680002L95.2054396057129,158.77950384139191L96.138826268514,161.08250756824296L97.07221293131511,160.05213635789386L98.0055995941162,160.75504001281803L98.93898625691732,158.652423635836L99.87237291971843,159.19660410603717L100.80575958251953,160.42042181738452L101.73914624532064,161.00198192336302L102.67253290812174,160.8641726530628L103.60591957092285,160.57848369431363L104.53930623372396,160.3630264216329L105.47269289652506,160.75080915094966L106.40607955932617,158.45363034378803L107.33946622212729,161.26767241992724L108.27285288492838,161.80482776997613L109.2062395477295,160.06899460600732L110.1396262105306,160.73077875438432L111.0730128733317,160.91782241211476L112.00639953613282,162.23929279749046L112.93978619893392,161.47528935868965L113.87317286173503,162.47142558266353L114.80655952453613,161.29967155614221L115.73994618733724,161.6982188328481L116.67333285013835,162.32291252900353L117.60671951293945,160.9572933062744L118.54010617574056,161.71948358192208L119.47349283854167,162.9793991185006L120.40687950134277,161.78758542223187L121.34026616414388,161.42627097186008L122.27365282694498,160.17386489353643L123.2070394897461,161.43906645713528L124.1404261525472,162.16833682193348L125.0738128153483,161.8962634410892L126.00719947814942,162.1087862990387L126.94058614095051,162.16748878672095L127.87397280375163,162.1621118354231L128.80735946655275,161.64919601068794L129.74074612935382,162.46743467218116L130.67413279215495,163.049241160775L131.60751945495605,161.98455490633322L132.54090611775715,162.6623177767638L133.47429278055827,162.50855728345977L134.40767944335937,163.0746536092684L135.3410661061605,163.181350587709L136.2744527689616,162.06242157051278L137.2078394317627,162.3522030088153L138.14122609456382,163.1018585966276L139.0746127573649,163.04960419258538L140.00799942016602,162.97656937757176" fill="none"></path></g><g><path style="fill: none;" stroke="rgb(204, 51, 17)" stroke-width="2px" d="M27.068213221232096,-9.555317302757715L28.001599884033205,1.6414299905581524L28.93498654683431,6.553164783169855L29.86837320963542,4.606303024133866L30.801759872436524,14.269362668403524L31.73514653523763,28.042575771428524L32.66853319803874,36.49618817552545L33.60191986083984,53.515545238055275L34.535306523640955,77.38780033946576L35.46869318644206,86.82729093490305L36.402079849243165,98.82539956967703L37.33546651204427,97.25205651671781L38.268853174845376,108.06285198519251L39.20223983764649,113.50753255557163L40.13562650044759,111.33176160964953L41.0690131632487,122.61388014653616L42.0023998260498,128.52142827105337L42.93578648885091,127.50187704972605L43.86917315165202,130.14002943755145L44.802559814453126,135.26581328537537L45.73594647725423,130.11937853823383L46.669333140055336,128.25816123913415L47.60271980285645,140.61572325955623L48.536106465657554,142.9747602921287L49.46949312845866,137.33056258374614L50.402879791259764,144.61936668905614L51.33626645406087,144.01258684969923L52.26965311686198,147.07101342475406L53.20303977966309,146.97385662068783L54.13642644246419,145.12749058260084L55.0698131052653,145.7494144147907L56.00319976806641,146.12707039725996L56.936586430867514,147.928687497762L57.86997309366862,147.32228200030855L58.803359756469725,149.39544955617606L59.73674641927084,149.77033966647727L60.67013308207194,150.8737363776457L61.60351974487305,155.70540990449229L62.53690640767415,150.3018093662179L63.47029307047526,150.80794090925284L64.40367973327638,150.90286408082412L65.33706639607747,151.58629707790584L66.27045305887857,154.32923149018123L67.20383972167969,152.99582651720164L68.1372263844808,154.16514022482164L69.07061304728191,153.55207463492502L70.00399971008301,154.93697557041264L70.93738637288412,154.39602934329184L71.87077303568522,152.69445467295049L72.80415969848633,154.5588059766588L73.73754636128743,154.31968665870968L74.67093302408854,154.62601365431772L75.60431968688965,151.9722027753087L76.53770634969075,156.1507765311116L77.47109301249186,156.5900046601674L78.40447967529298,154.94301471657047L79.33786633809407,155.35814214616065L80.27125300089519,156.01711873026184L81.20463966369628,156.19846520582445L82.1380263264974,155.16508462365684L83.07141298929851,155.92661580917593L84.0047996520996,155.9811047327792L84.93818631490072,155.90577685184047L85.87157297770182,156.270982861289L86.80495964050293,156.67156595474466L87.73834630330404,156.44176260520766L88.67173296610514,159.2328567243066L89.60511962890625,157.737045911599L90.53850629170735,156.39529098521405L91.47189295450846,157.1927767347856L92.40527961730957,158.52668556132247L93.33866628011067,158.31740803477987L94.27205294291178,159.22759109980706L95.2054396057129,158.4945657841149L96.138826268514,158.79108360254708L97.07221293131511,157.1493557351852L98.0055995941162,157.36776915571713L98.93898625691732,157.15651524585496L99.87237291971843,158.72074635561012L100.80575958251953,159.57688225596274L101.73914624532064,158.42343017766825L102.67253290812174,159.74777022194826L103.60591957092285,159.78172933075956L104.53930623372396,160.02737080236986L105.47269289652506,158.67686319456018L106.40607955932617,159.35911595016674L107.33946622212729,158.8189073185263L108.27285288492838,160.80574249468L109.2062395477295,158.1961744820333L110.1396262105306,159.36899964089685L111.0730128733317,159.4563117851423L112.00639953613282,160.13143918212475L112.93978619893392,159.05291447441496L113.87317286173503,159.95583690323446L114.80655952453613,159.41870772163617L115.73994618733724,160.64221717750618L116.67333285013835,160.54472683657815L117.60671951293945,161.09895643534117L118.54010617574056,159.53643736320126L119.47349283854167,159.7746434465779L120.40687950134277,160.80640646367223L121.34026616414388,160.2811737258346L122.27365282694498,160.087884679073L123.2070394897461,160.43152921582978L124.1404261525472,160.09184764697255L125.0738128153483,159.41994828360765L126.00719947814942,161.99816649244056L126.94058614095051,161.95450110612356L127.87397280375163,160.66907753967703L128.80735946655275,161.69957293928317L129.74074612935382,162.33134631015741L130.67413279215495,161.5246066868023L131.60751945495605,161.7884866814117L132.54090611775715,161.42275419821985L133.47429278055827,162.46433082782065L134.40767944335937,162.12950151065016L135.3410661061605,161.62576327201208L136.2744527689616,161.85258696644567L137.2078394317627,161.07589670796958L138.14122609456382,161.23027459929443L139.0746127573649,161.66185000891673L140.00799942016602,160.8448869485068L140.9413860829671,160.97618559700538L141.87477274576824,162.25788038100853L142.80815940856934,162.33661903118593L143.74154607137044,160.61778604591012L144.67493273417156,163.7083938275014L145.60831939697266,160.41626591260348L146.54170605977376,162.3677129164235L147.47509272257486,161.66994448727897L148.40847938537598,160.84051593019117L149.34186604817708,162.01812725431535L150.27525271097818,161.97478342946752L151.2086393737793,162.2579398144387L152.1420260365804,162.30922642934195L153.0754126993815,162.39092921096562L154.00879936218263,162.230258029039L154.94218602498373,161.59172210958454L155.87557268778482,163.425370724215L156.80895935058595,161.8381703678327L157.74234601338705,163.22135216917607L158.67573267618815,162.62244016278729L159.60911933898925,161.69635466339295L160.54250600179037,162.69594600991164L161.47589266459147,163.371163665872L162.40927932739257,162.4534549536332L163.3426659901937,161.85899424504407L164.2760526529948,163.06442263215158L165.2094393157959,163.3594803397471L166.14282597859702,162.30340594498315L167.07621264139812,163.15964119674143L168.0095993041992,163.4366681765769L168.94298596700034,163.03997974692942L169.87637262980144,163.40744577908998L170.80975929260254,163.15247503307575L171.74314595540363,162.66166578316424L172.67653261820476,163.14504230604044L173.60991928100586,162.37102167305815L174.54330594380696,162.98558463056852L175.47669260660808,163.02236926674456L176.41007926940918,163.2008006212641L177.34346593221028,163.19803851912707L178.2768525950114,163.99518674003926L179.2102392578125,163.02682965697196L180.1436259206136,163.05739174606947L181.0770125834147,163.2271948301879L182.01039924621583,163.11270098406894L182.94378590901692,163.72235979652444L183.87717257181802,163.41012671467686L184.81055923461915,164.0395866171052L185.74394589742025,163.73078138051915L186.67733256022134,163.1725426864182L187.61071922302247,163.42079124536076L188.54410588582357,162.70613174665624L189.47749254862467,162.88383504165625L190.4108792114258,163.38600073382673L191.3442658742269,163.63123703798587L192.277652537028,162.26562446825264L193.2110391998291,163.27208946838334L194.14442586263021,163.90814692509323L195.0778125254313,163.0556593059334L196.0111991882324,163.49017910978077L196.94458585103354,163.0495709276058L197.87797251383464,163.22381621709616L198.81135917663573,163.25474776923343L199.74474583943686,162.99222565109008L200.67813250223796,162.25047426595688L201.61151916503906,162.83773155410321L202.54490582784018,163.05226583448413L203.47829249064128,163.69252598871302L204.41167915344238,163.0829966879113L205.34506581624348,163.7940666735536L206.2784524790446,163.26846624680846L207.2118391418457,163.42936074763128L208.1452258046468,163.4168819449616L209.07861246744793,164.07543628558875L210.01199913024902,163.69448573954278L210.94538579305012,164.14349510319164L211.87877245585125,163.7662990645066L212.81215911865235,164.4405274199745L213.74554578145344,162.37916227885876L214.67893244425457,163.66460292132814L215.61231910705567,163.625299460899L216.54570576985677,164.1820294772931L217.47909243265786,164.21605245486518L218.412479095459,163.25428760368268L219.3458657582601,164.4206247609307L220.2792524210612,164.27124526543614L221.2126390838623,164.1490379358543L222.1460257466634,163.86039815165063L223.0794124094645,163.94878497650276L224.01279907226564,163.99294845044722L224.94618573506673,164.26687890421766L225.87957239786783,163.03534393937642L226.81295906066896,164.03310682085132L227.74634572347006,163.92914954612817L228.67973238627116,164.39849334825567L229.61311904907225,163.80474761496075L230.54650571187338,163.8813790395656L231.47989237467448,164.36856085433817L232.41327903747558,164.18250006587078L233.3466657002767,164.05236413929146L234.2800523630778,164.1298857347496L235.2134390258789,163.6447954001259L236.14682568868002,164.45071670498362L237.08021235148112,164.84508279552398L238.01359901428222,164.34118643734968L238.94698567708335,164.1681400177231L239.88037233988445,164.14878223904464L240.81375900268554,164.29250713154522L241.74714566548664,163.4616550550983L242.68053232828777,164.82498819754807L243.61391899108887,165.03054281846033L244.54730565388996,164.32932237150246L245.4806923166911,165.0501549633492L246.4140789794922,165.10183233087915L247.3474656422933,164.58440555314763L248.2808523050944,164.89530238076586L249.2142389678955,164.65776924792596L250.1476256306966,164.8327068925244L251.0810122934977,164.8872053520885L252.01439895629883,164.55004260748436L252.94778561909993,164.77766089139664L253.88117228190103,164.45563504309644L254.81455894470216,164.4968707553056L255.74794560750325,164.52695205456502L256.6813322703043,163.96870848160043" fill="none"></path></g></g></g></g></g></g><g transform="translate(49, 178)" clip-path="url(#clip_1)"><clipPath id="clip_1"><rect width="280" height="21"></rect></clipPath><g><g><line x1="0" y1="0" x2="0" y2="5" style="visibility: inherit;" fill="rgb(0, 0, 0)" stroke="rgb(204, 204, 204)" stroke-width="1px"></line><line x1="23.334666570027668" y1="0" x2="23.334666570027668" y2="5" style="visibility: inherit;" fill="rgb(0, 0, 0)" stroke="rgb(204, 204, 204)" stroke-width="1px"></line><line x1="46.669333140055336" y1="0" x2="46.669333140055336" y2="5" style="visibility: inherit;" fill="rgb(0, 0, 0)" stroke="rgb(204, 204, 204)" stroke-width="1px"></line><line x1="70.00399971008301" y1="0" x2="70.00399971008301" y2="5" style="visibility: inherit;" fill="rgb(0, 0, 0)" stroke="rgb(204, 204, 204)" stroke-width="1px"></line><line x1="93.33866628011067" y1="0" x2="93.33866628011067" y2="5" style="visibility: inherit;" fill="rgb(0, 0, 0)" stroke="rgb(204, 204, 204)" stroke-width="1px"></line><line x1="116.67333285013835" y1="0" x2="116.67333285013835" y2="5" style="visibility: inherit;" fill="rgb(0, 0, 0)" stroke="rgb(204, 204, 204)" stroke-width="1px"></line><line x1="140.00799942016602" y1="0" x2="140.00799942016602" y2="5" style="visibility: inherit;" fill="rgb(0, 0, 0)" stroke="rgb(204, 204, 204)" stroke-width="1px"></line><line x1="163.3426659901937" y1="0" x2="163.3426659901937" y2="5" style="visibility: inherit;" fill="rgb(0, 0, 0)" stroke="rgb(204, 204, 204)" stroke-width="1px"></line><line x1="186.67733256022134" y1="0" x2="186.67733256022134" y2="5" style="visibility: inherit;" fill="rgb(0, 0, 0)" stroke="rgb(204, 204, 204)" stroke-width="1px"></line><line x1="210.01199913024902" y1="0" x2="210.01199913024902" y2="5" style="visibility: inherit;" fill="rgb(0, 0, 0)" stroke="rgb(204, 204, 204)" stroke-width="1px"></line><line x1="233.3466657002767" y1="0" x2="233.3466657002767" y2="5" style="visibility: inherit;" fill="rgb(0, 0, 0)" stroke="rgb(204, 204, 204)" stroke-width="1px"></line><line x1="256.6813322703043" y1="0" x2="256.6813322703043" y2="5" style="visibility: inherit;" fill="rgb(0, 0, 0)" stroke="rgb(204, 204, 204)" stroke-width="1px"></line><line x1="280.01599884033203" y1="0" x2="280.01599884033203" y2="5" style="visibility: inherit;" fill="rgb(0, 0, 0)" stroke="rgb(204, 204, 204)" stroke-width="1px"></line></g><g transform="translate(0, 8)"><text style="text-anchor: middle; visibility: hidden; font-family: Roboto, sans-serif; font-size: 12px; font-weight: 200;" x="0" y="0" dx="0em" dy="0.95em" fill="rgb(50, 49, 63)" stroke="none" stroke-width="1px">-500</text><text style="text-anchor: middle; visibility: inherit; font-family: Roboto, sans-serif; font-size: 12px; font-weight: 200;" x="23.334666570027668" y="0" dx="0em" dy="0.95em" fill="rgb(50, 49, 63)" stroke="none" stroke-width="1px">0</text><text style="text-anchor: middle; visibility: inherit; font-family: Roboto, sans-serif; font-size: 12px; font-weight: 200;" x="46.669333140055336" y="0" dx="0em" dy="0.95em" fill="rgb(50, 49, 63)" stroke="none" stroke-width="1px">500</text><text style="text-anchor: middle; visibility: inherit; font-family: Roboto, sans-serif; font-size: 12px; font-weight: 200;" x="70.00399971008301" y="0" dx="0em" dy="0.95em" fill="rgb(50, 49, 63)" stroke="none" stroke-width="1px">1k</text><text style="text-anchor: middle; visibility: inherit; font-family: Roboto, sans-serif; font-size: 12px; font-weight: 200;" x="93.33866628011067" y="0" dx="0em" dy="0.95em" fill="rgb(50, 49, 63)" stroke="none" stroke-width="1px">1.5k</text><text style="text-anchor: middle; visibility: inherit; font-family: Roboto, sans-serif; font-size: 12px; font-weight: 200;" x="116.67333285013835" y="0" dx="0em" dy="0.95em" fill="rgb(50, 49, 63)" stroke="none" stroke-width="1px">2k</text><text style="text-anchor: middle; visibility: inherit; font-family: Roboto, sans-serif; font-size: 12px; font-weight: 200;" x="140.00799942016602" y="0" dx="0em" dy="0.95em" fill="rgb(50, 49, 63)" stroke="none" stroke-width="1px">2.5k</text><text style="text-anchor: middle; visibility: inherit; font-family: Roboto, sans-serif; font-size: 12px; font-weight: 200;" x="163.3426659901937" y="0" dx="0em" dy="0.95em" fill="rgb(50, 49, 63)" stroke="none" stroke-width="1px">3k</text><text style="text-anchor: middle; visibility: inherit; font-family: Roboto, sans-serif; font-size: 12px; font-weight: 200;" x="186.67733256022134" y="0" dx="0em" dy="0.95em" fill="rgb(50, 49, 63)" stroke="none" stroke-width="1px">3.5k</text><text style="text-anchor: middle; visibility: inherit; font-family: Roboto, sans-serif; font-size: 12px; font-weight: 200;" x="210.01199913024902" y="0" dx="0em" dy="0.95em" fill="rgb(50, 49, 63)" stroke="none" stroke-width="1px">4k</text><text style="text-anchor: middle; visibility: inherit; font-family: Roboto, sans-serif; font-size: 12px; font-weight: 200;" x="233.3466657002767" y="0" dx="0em" dy="0.95em" fill="rgb(50, 49, 63)" stroke="none" stroke-width="1px">4.5k</text><text style="text-anchor: middle; visibility: inherit; font-family: Roboto, sans-serif; font-size: 12px; font-weight: 200;" x="256.6813322703043" y="0" dx="0em" dy="0.95em" fill="rgb(50, 49, 63)" stroke="none" stroke-width="1px">5k</text><text style="text-anchor: middle; visibility: hidden; font-family: Roboto, sans-serif; font-size: 12px; font-weight: 200;" x="280.01599884033203" y="0" dx="0em" dy="0.95em" fill="rgb(50, 49, 63)" stroke="none" stroke-width="1px">5.5k</text></g><line x1="0" y1="0" x2="280.01599884033203" y2="0" fill="rgb(0, 0, 0)" stroke="rgb(204, 204, 204)" stroke-width="1px"></line></g></g></g></g></svg>