<svg viewBox="0 0 330 200" xmlns="http://www.w3.org/2000/svg"><g><g><g><g><g><line x1="49.98400115966797" y1="178.58999919891357" x2="44.98400115966797" y2="178.58999919891357" style="visibility: inherit;" fill="rgb(0, 0, 0)" stroke="rgb(204, 204, 204)" stroke-width="1px"></line><line x1="49.98400115966797" y1="156.26624929904938" x2="44.98400115966797" y2="156.26624929904938" style="visibility: inherit;" fill="rgb(0, 0, 0)" stroke="rgb(204, 204, 204)" stroke-width="1px"></line><line x1="49.98400115966797" y1="133.94249939918518" x2="44.98400115966797" y2="133.94249939918518" style="visibility: inherit;" fill="rgb(0, 0, 0)" stroke="rgb(204, 204, 204)" stroke-width="1px"></line><line x1="49.98400115966797" y1="111.61874949932098" x2="44.98400115966797" y2="111.61874949932098" style="visibility: inherit;" fill="rgb(0, 0, 0)" stroke="rgb(204, 204, 204)" stroke-width="1px"></line><line x1="49.98400115966797" y1="89.29499959945679" x2="44.98400115966797" y2="89.29499959945679" style="visibility: inherit;" fill="rgb(0, 0, 0)" stroke="rgb(204, 204, 204)" stroke-width="1px"></line><line x1="49.98400115966797" y1="66.97124969959259" x2="44.98400115966797" y2="66.97124969959259" style="visibility: inherit;" fill="rgb(0, 0, 0)" stroke="rgb(204, 204, 204)" stroke-width="1px"></line><line x1="49.98400115966797" y1="44.647499799728394" x2="44.98400115966797" y2="44.647499799728394" style="visibility: inherit;" fill="rgb(0, 0, 0)" stroke="rgb(204, 204, 204)" stroke-width="1px"></line><line x1="49.98400115966797" y1="22.323749899864197" x2="44.98400115966797" y2="22.323749899864197" style="visibility: inherit;" fill="rgb(0, 0, 0)" stroke="rgb(204, 204, 204)" stroke-width="1px"></line><line x1="49.98400115966797" y1="0" x2="44.98400115966797" y2="0" style="visibility: inherit;" fill="rgb(0, 0, 0)" stroke="rgb(204, 204, 204)" stroke-width="1px"></line></g><g transform="translate(39.98400115966797, 0)"><text style="text-anchor: end; visibility: hidden; font-family: Roboto, sans-serif; font-size: 12px; font-weight: 200;" x="0" y="178.58999919891357" dx="0em" dy="0.3em" fill="rgb(50, 49, 63)" stroke="none" stroke-width="1px">-0.5</text><text style="text-anchor: end; visibility: inherit; font-family: Roboto, sans-serif; font-size: 12px; font-weight: 200;" x="0" y="156.26624929904938" dx="0em" dy="0.3em" fill="rgb(50, 49, 63)" stroke="none" stroke-width="1px">0</text><text style="text-anchor: end; visibility: hidden; font-family: Roboto, sans-serif; font-size: 12px; font-weight: 200;" x="0" y="133.94249939918518" dx="0em" dy="0.3em" fill="rgb(50, 49, 63)" stroke="none" stroke-width="1px">0.5</text><text style="text-anchor: end; visibility: inherit; font-family: Roboto, sans-serif; font-size: 12px; font-weight: 200;" x="0" y="111.61874949932098" dx="0em" dy="0.3em" fill="rgb(50, 49, 63)" stroke="none" stroke-width="1px">1</text><text style="text-anchor: end; visibility: hidden; font-family: Roboto, sans-serif; font-size: 12px; font-weight: 200;" x="0" y="89.29499959945679" dx="0em" dy="0.3em" fill="rgb(50, 49, 63)" stroke="none" stroke-width="1px">1.5</text><text style="text-anchor: end; visibility: inherit; font-family: Roboto, sans-serif; font-size: 12px; font-weight: 200;" x="0" y="66.97124969959259" dx="0em" dy="0.3em" fill="rgb(50, 49, 63)" stroke="none" stroke-width="1px">2</text><text style="text-anchor: end; visibility: hidden; font-family: Roboto, sans-serif; font-size: 12px; font-weight: 200;" x="0" y="44.647499799728394" dx="0em" dy="0.3em" fill="rgb(50, 49, 63)" stroke="none" stroke-width="1px">2.5</text><text style="text-anchor: end; visibility: inherit; font-family: Roboto, sans-serif; font-size: 12px; font-weight: 200;" x="0" y="22.323749899864197" dx="0em" dy="0.3em" fill="rgb(50, 49, 63)" stroke="none" stroke-width="1px">3</text><text style="text-anchor: end; visibility: hidden; font-family: Roboto, sans-serif; font-size: 12px; font-weight: 200;" x="0" y="0" dx="0em" dy="0.3em" fill="rgb(50, 49, 63)" stroke="none" stroke-width="1px">3.5</text></g><line x1="49.98400115966797" y1="0" x2="49.98400115966797" y2="178.58999919891357" fill="rgb(0, 0, 0)" stroke="rgb(204, 204, 204)" stroke-width="1px"></line></g></g><g transform="translate(49, 0)" clip-path="url(#clip_0)"><clipPath id="clip_0"><rect width="280" height="178"></rect></clipPath><g><g><g><line x1="0" y1="0" x2="0" y2="178.58999919891357" fill="rgb(0, 0, 0)" stroke="rgb(60, 60, 60)" stroke-width="1px" opacity="0.25"></line><line x1="23.334666570027668" y1="0" x2="23.334666570027668" y2="178.58999919891357" fill="rgb(0, 0, 0)" stroke="rgb(60, 60, 60)" stroke-width="1px" opacity="0.25"></line><line x1="46.669333140055336" y1="0" x2="46.669333140055336" y2="178.58999919891357" fill="rgb(0, 0, 0)" stroke="rgb(60, 60, 60)" stroke-width="1px" opacity="0.25"></line><line x1="70.00399971008301" y1="0" x2="70.00399971008301" y2="178.58999919891357" fill="rgb(0, 0, 0)" stroke="rgb(60, 60, 60)" stroke-width="1px" opacity="0.25"></line><line x1="93.33866628011067" y1="0" x2="93.33866628011067" y2="178.58999919891357" fill="rgb(0, 0, 0)" stroke="rgb(60, 60, 60)" stroke-width="1px" opacity="0.25"></line><line x1="116.67333285013835" y1="0" x2="116.67333285013835" y2="178.58999919891357" fill="rgb(0, 0, 0)" stroke="rgb(60, 60, 60)" stroke-width="1px" opacity="0.25"></line><line x1="140.00799942016602" y1="0" x2="140.00799942016602" y2="178.58999919891357" fill="rgb(0, 0, 0)" stroke="rgb(60, 60, 60)" stroke-width="1px" opacity="0.25"></line><line x1="163.3426659901937" y1="0" x2="163.3426659901937" y2="178.58999919891357" fill="rgb(0, 0, 0)" stroke="rgb(60, 60, 60)" stroke-width="1px" opacity="0.25"></line><line x1="186.67733256022134" y1="0" x2="186.67733256022134" y2="178.58999919891357" fill="rgb(0, 0, 0)" stroke="rgb(60, 60, 60)" stroke-width="1px" opacity="0.25"></line><line x1="210.01199913024902" y1="0" x2="210.01199913024902" y2="178.58999919891357" fill="rgb(0, 0, 0)" stroke="rgb(60, 60, 60)" stroke-width="1px" opacity="0.25"></line><line x1="233.3466657002767" y1="0" x2="233.3466657002767" y2="178.58999919891357" fill="rgb(0, 0, 0)" stroke="rgb(60, 60, 60)" stroke-width="1px" opacity="0.25"></line><line x1="256.6813322703043" y1="0" x2="256.6813322703043" y2="178.58999919891357" fill="rgb(0, 0, 0)" stroke="rgb(60, 60, 60)" stroke-width="1px" opacity="0.25"></line><line x1="280.01599884033203" y1="0" x2="280.01599884033203" y2="178.58999919891357" fill="rgb(0, 0, 0)" stroke="rgb(60, 60, 60)" stroke-width="1px" opacity="0.25"></line></g><g><line x1="0" y1="178.58999919891357" x2="280.01599884033203" y2="178.58999919891357" fill="rgb(0, 0, 0)" stroke="rgb(60, 60, 60)" stroke-width="1px" opacity="0.25"></line><line x1="0" y1="156.26624929904938" x2="280.01599884033203" y2="156.26624929904938" fill="rgb(0, 0, 0)" stroke="rgb(60, 60, 60)" stroke-width="1px" opacity="0.25"></line><line x1="0" y1="133.94249939918518" x2="280.01599884033203" y2="133.94249939918518" fill="rgb(0, 0, 0)" stroke="rgb(60, 60, 60)" stroke-width="1px" opacity="0.25"></line><line x1="0" y1="111.61874949932098" x2="280.01599884033203" y2="111.61874949932098" fill="rgb(0, 0, 0)" stroke="rgb(60, 60, 60)" stroke-width="1px" opacity="0.25"></line><line x1="0" y1="89.29499959945679" x2="280.01599884033203" y2="89.29499959945679" fill="rgb(0, 0, 0)" stroke="rgb(60, 60, 60)" stroke-width="1px" opacity="0.25"></line><line x1="0" y1="66.97124969959259" x2="280.01599884033203" y2="66.97124969959259" fill="rgb(0, 0, 0)" stroke="rgb(60, 60, 60)" stroke-width="1px" opacity="0.25"></line><line x1="0" y1="44.647499799728394" x2="280.01599884033203" y2="44.647499799728394" fill="rgb(0, 0, 0)" stroke="rgb(60, 60, 60)" stroke-width="1px" opacity="0.25"></line><line x1="0" y1="22.323749899864197" x2="280.01599884033203" y2="22.323749899864197" fill="rgb(0, 0, 0)" stroke="rgb(60, 60, 60)" stroke-width="1px" opacity="0.25"></line><line x1="0" y1="0" x2="280.01599884033203" y2="0" fill="rgb(0, 0, 0)" stroke="rgb(60, 60, 60)" stroke-width="1px" opacity="0.25"></line></g></g></g><g><g><line x1="0" y1="156.26624929904938" x2="280.01599884033203" y2="156.26624929904938" fill="rgb(0, 0, 0)" stroke="rgb(153, 153, 153)" stroke-width="1.5px"></line></g></g><g><g><line x1="23.334666570027668" y1="0" x2="23.334666570027668" y2="178.58999919891357" fill="rgb(0, 0, 0)" stroke="rgb(153, 153, 153)" stroke-width="1.5px"></line></g></g><g><g><g><g><g><path style="fill: none;" stroke="rgb(51, 187, 238)" stroke-width="2px" d="M27.068213221232096,-0.7731046227115628L28.001599884033205,13.747632831101802L28.93498654683431,19.096672377584916L29.86837320963542,29.090705047965425L30.801759872436524,34.97958037894815L31.73514653523763,42.913360139297396L32.66853319803874,50.73313834530794L33.60191986083984,56.499794025362945L34.535306523640955,62.99250599878401L35.46869318644206,70.78732535871266L36.402079849243165,72.73383537232263L37.33546651204427,76.9501799223501L38.268853174845376,81.03253587146033L39.20223983764649,84.53437989710764L40.13562650044759,88.68176829120881L41.0690131632487,91.03921028267607L42.0023998260498,95.91921955589488L42.93578648885091,95.72730753889984L43.86917315165202,98.69765208214588L44.802559814453126,99.88990867500779L45.73594647725423,102.93257088982153L46.669333140055336,103.87621875005365L47.60271980285645,105.84795066128147L48.536106465657554,107.76783434619848L49.46949312845866,111.54565967827676L50.402879791259764,113.26846346684694L51.33626645406087,114.11444902164772L52.26965311686198,118.0287353203965L53.20303977966309,120.29529621407913L54.13642644246419,121.30759926407254L55.0698131052653,124.01742681710896L56.00319976806641,123.5442573139307L56.936586430867514,125.21294073688553L57.86997309366862,125.61550675811296L58.803359756469725,126.17713318107023L59.73674641927084,128.01697504045418L60.67013308207194,130.0728600018325L61.60351974487305,131.94520685543415L62.53690640767415,132.08312797155332L63.47029307047526,132.7013722988294L64.40367973327638,132.94159125107694L65.33706639607747,134.05612860651237L66.27045305887857,134.6069327879021L67.20383972167969,135.42623379285453L68.1372263844808,136.4196812797683L69.07061304728191,136.53079214237223L70.00399971008301,136.95650860791156L70.93738637288412,136.5816214128101L71.87077303568522,137.12405309584824L72.80415969848633,138.10370545182994L73.73754636128743,139.36240892418996L74.67093302408854,140.1670712830826L75.60431968688965,140.54402858149783L76.53770634969075,140.7192798653404L77.47109301249186,141.5493602310833L78.40447967529298,141.66087524255153L79.33786633809407,142.1476271451134L80.27125300089519,141.7404510772685L81.20463966369628,141.6776136175961L82.1380263264974,142.93642622820087L83.07141298929851,143.38363271440627L84.0047996520996,143.48848185172463L84.93818631490072,143.9387468523881L85.87157297770182,144.06075108513284L86.80495964050293,143.85104588444247L87.73834630330404,144.37265985977618L88.67173296610514,145.6212047309287L89.60511962890625,145.55881065516147L90.53850629170735,146.06925401175044L91.47189295450846,145.3206808705146L92.40527961730957,145.83838867327827L93.33866628011067,145.8492410683163L94.27205294291178,146.67681044038093L95.2054396057129,146.66839020597308L96.138826268514,147.48651511262878L97.07221293131511,147.34364083466807L98.0055995941162,147.5791356843804L98.93898625691732,147.0248570812232L99.87237291971843,146.75924034781247L100.80575958251953,147.3055868493627L101.73914624532064,147.767090428866L102.67253290812174,148.40509351012423L103.60591957092285,148.54130259755976L104.53930623372396,148.34439100082108L105.47269289652506,148.50423974317175L106.40607955932617,147.75989529748904L107.33946622212729,148.8226346525013L108.27285288492838,149.52643272956107L109.2062395477295,149.55108702527102L110.1396262105306,149.7480407597859L111.0730128733317,149.946719839573L112.00639953613282,150.37292778800636L112.93978619893392,150.57890038914076L113.87317286173503,151.05813381770534L114.80655952453613,150.4760245866038L115.73994618733724,150.60883566412406L116.67333285013835,150.7679529610953L117.60671951293945,150.81452648050717L118.54010617574056,151.25030057229273L119.47349283854167,151.53131019876074L120.40687950134277,151.41332420434682L121.34026616414388,151.73880886207243L122.27365282694498,150.78821478467268L123.2070394897461,150.6219024975763L124.1404261525472,151.2035753760517L125.0738128153483,151.43291539130627L126.00719947814942,151.8661458061453L126.94058614095051,152.16627067850882L127.87397280375163,152.18715857032882L128.80735946655275,152.06715178447763L129.74074612935382,152.20083293218897L130.67413279215495,152.69914861680277L131.60751945495605,152.72072779081765L132.54090611775715,152.44862954812237L133.47429278055827,152.7005150194116L134.40767944335937,152.66795442379626L135.3410661061605,152.92267944021427L136.2744527689616,152.48649385188168L137.2078394317627,152.6299164189563L138.14122609456382,152.52920772319777L139.0746127573649,153.0021553171412L140.00799942016602,153.2108140777746" fill="none"></path></g><g><path style="fill: none;" stroke="rgb(204, 51, 17)" stroke-width="2px" d="M29.86837320963542,-8.317075665385058L30.801759872436524,0.28363783113813956L31.73514653523763,-2.521127718528248L32.66853319803874,-13.30010888466781L33.60191986083984,2.3074124747555156L34.535306523640955,16.388757768377783L35.46869318644206,25.79098980401215L36.402079849243165,34.69848037144487L37.33546651204427,40.14166481742849L38.268853174845376,43.94847019175501L39.20223983764649,53.18758699222116L40.13562650044759,57.155618765259675L41.0690131632487,64.39801677262933L42.0023998260498,71.45976073495564L42.93578648885091,74.9217929952952L43.86917315165202,77.30218336345912L44.802559814453126,83.94331760803935L45.73594647725423,85.06906364347599L46.669333140055336,82.9765899457375L47.60271980285645,88.95235141039093L48.536106465657554,95.52880369730188L49.46949312845866,97.40254345207964L50.402879791259764,101.81666745798087L51.33626645406087,104.0428643532602L52.26965311686198,106.84834950202296L53.20303977966309,109.97579409892184L54.13642644246419,111.02651323902211L55.0698131052653,113.44441419488061L56.00319976806641,114.74781270260159L56.936586430867514,116.38655968452002L57.86997309366862,116.2380661957772L58.803359756469725,117.12404595999118L59.73674641927084,119.46109298095894L60.67013308207194,121.40424914553276L61.60351974487305,124.87739011815484L62.53690640767415,124.4851094566365L63.47029307047526,125.03095500080458L64.40367973327638,126.51636570345943L65.33706639607747,128.14129493410098L66.27045305887857,129.41934699909226L67.20383972167969,130.1464071607202L68.1372263844808,130.40745976271L69.07061304728191,131.00700201925946L70.00399971008301,131.82942567511031L70.93738637288412,132.53291867530726L71.87077303568522,133.02839861707668L72.80415969848633,133.7967495627633L73.73754636128743,134.24696258392584L74.67093302408854,134.15929014739973L75.60431968688965,132.94853475346235L76.53770634969075,135.17612719900563L77.47109301249186,136.78316633597868L78.40447967529298,136.65903686135508L79.33786633809407,137.34338552008117L80.27125300089519,137.96411921259258L81.20463966369628,137.7670523330521L82.1380263264974,137.74376961765142L83.07141298929851,137.06873915374982L84.0047996520996,138.04712142725788L84.93818631490072,139.34894547894422L85.87157297770182,139.2830065499066L86.80495964050293,139.93435788265097L87.73834630330404,139.66763074203286L88.67173296610514,141.53422475064292L89.60511962890625,142.0407153216781L90.53850629170735,141.42241235313037L91.47189295450846,140.9867937893773L92.40527961730957,142.06040855334746L93.33866628011067,143.493072923569L94.27205294291178,144.48934191180825L95.2054396057129,144.30097546109832L96.138826268514,144.48916279545125L97.07221293131511,144.05467840151707L98.0055995941162,144.72025910490342L98.93898625691732,144.74988750411222L99.87237291971843,145.20615764970475L100.80575958251953,145.6312445242068L101.73914624532064,145.28355757314958L102.67253290812174,145.96144832612518L103.60591957092285,146.67985408078312L104.53930623372396,147.07458548187827L105.47269289652506,146.6770473238868L106.40607955932617,146.51261990906744L107.33946622212729,147.09964410539723L108.27285288492838,147.48684593034827L109.2062395477295,146.28148042188866L110.1396262105306,146.22454295654768L111.0730128733317,146.66500573810043L112.00639953613282,147.25117424386852L112.93978619893392,147.45172673151458L113.87317286173503,147.22737502162335L114.80655952453613,147.52698774121777L115.73994618733724,148.08030885204315L116.67333285013835,148.4642917542895L117.60671951293945,148.78752831153707L118.54010617574056,148.02344362440073L119.47349283854167,147.21942449506358L120.40687950134277,147.52479852157677L121.34026616414388,147.7738333085884L122.27365282694498,148.18896605565314L123.2070394897461,148.82519577765063L124.1404261525472,149.25563008138303L125.0738128153483,149.20755878915077L126.00719947814942,149.6971089396096L126.94058614095051,149.8686607517185L127.87397280375163,149.89754053490114L128.80735946655275,149.77633972388568L129.74074612935382,150.49046147963116L130.67413279215495,150.83582424363914L131.60751945495605,150.77167112192151L132.54090611775715,150.2475342318212L133.47429278055827,150.27812756087906L134.40767944335937,151.00019089514436L135.3410661061605,151.09589447039434L136.2744527689616,151.36484037092075L137.2078394317627,151.28810091314577L138.14122609456382,150.80474863180615L139.0746127573649,150.87584657933346L140.00799942016602,150.48647615955295L140.9413860829671,150.88104295483345L141.87477274576824,151.50782928794175L142.80815940856934,151.64128495520512L143.74154607137044,151.21868366485194L144.67493273417156,151.83545464320116L145.60831939697266,151.16261155379274L146.54170605977376,151.10339224006742L147.47509272257486,151.36631045592452L148.40847938537598,150.83889847635947L149.34186604817708,151.2103028064086L150.27525271097818,151.06512934692864L151.2086393737793,151.13808916770026L152.1420260365804,151.57073972352273L153.0754126993815,151.79662079037817L154.00879936218263,152.00964751869734L154.94218602498373,151.65998881678152L155.87557268778482,152.28289068090584L156.80895935058595,152.23669004018024L157.74234601338705,152.3573113725834L158.67573267618815,152.56991841498296L159.60911933898925,152.62356013834088L160.54250600179037,152.34896714797793L161.47589266459147,152.7494359153375L162.40927932739257,152.7326729570324L163.3426659901937,152.31533726751186L164.2760526529948,152.14198433254157L165.2094393157959,152.43606136814023L166.14282597859702,152.05261380742826L167.07621264139812,152.4139613468934L168.0095993041992,152.684812688623L168.94298596700034,152.77152670957003L169.87637262980144,153.1934062755107L170.80975929260254,153.14427157861422L171.74314595540363,153.02022055251499L172.67653261820476,153.2264117743265L173.60991928100586,153.22982417450493L174.54330594380696,153.536701708316L175.47669260660808,153.57153386927914L176.41007926940918,153.7921845780232L177.34346593221028,153.40646828935573L178.2768525950114,153.73634546108852L179.2102392578125,153.84886772128758L180.1436259206136,153.90820454542848L181.0770125834147,153.9426300575856L182.01039924621583,153.9453455613973L182.94378590901692,154.16659398448908L183.87717257181802,154.25414511224167L184.81055923461915,154.30566619676327L185.74394589742025,154.18723359273395L186.67733256022134,153.69179937993854L187.61071922302247,153.73196935777435L188.54410588582357,153.26370054771664L189.47749254862467,152.88708448232669L190.4108792114258,153.3444578916697L191.3442658742269,153.5108811934022L192.277652537028,153.13779791180778L193.2110391998291,152.79902582120852L194.14442586263021,153.41502379381419L195.0778125254313,152.8808205337916L196.0111991882324,153.29706332070703L196.94458585103354,153.51078541505953L197.87797251383464,153.43108527206965L198.81135917663573,153.61092385387317L199.74474583943686,153.03521444151386L200.67813250223796,152.44631482420348L201.61151916503906,152.87653291167905L202.54490582784018,153.02737123170624L203.47829249064128,153.02399193553867L204.41167915344238,152.6435117456381L205.34506581624348,153.38929827727708L206.2784524790446,153.38834104038528L207.2118391418457,153.6394432798675L208.1452258046468,153.49229816416937L209.07861246744793,153.8604573768221L210.01199913024902,154.27288839886563L210.94538579305012,154.44789435639723L211.87877245585125,154.3986665163847L212.81215911865235,154.37243176077934L213.74554578145344,154.00586632440883L214.67893244425457,153.70149029882188L215.61231910705567,153.83342791060625L216.54570576985677,154.18553582234236L217.47909243265786,154.18549044170635L218.412479095459,153.85092982141256L219.3458657582601,154.42451215861212L220.2792524210612,154.80645493543673L221.2126390838623,154.84864433864968L222.1460257466634,154.62743178248212L223.0794124094645,154.44274401804205L224.01279907226564,154.5175398993598L224.94618573506673,154.70836842417225L225.87957239786783,154.22165462319776L226.81295906066896,154.08020712522654L227.74634572347006,154.34515108918268L228.67973238627116,154.49049665596132L229.61311904907225,154.40157018711798L230.54650571187338,154.40335553348797L231.47989237467448,154.5021521991136L232.41327903747558,154.51158774940885L233.3466657002767,154.75838927830898L234.2800523630778,154.5478980991048L235.2134390258789,154.34065179972728L236.14682568868002,154.58984888353976L237.08021235148112,154.86187174144325L238.01359901428222,155.06992555090258L238.94698567708335,154.8027814799935L239.88037233988445,154.75604910354087L240.81375900268554,154.84365238529935L241.74714566548664,154.3968271085143L242.68053232828777,154.7173639724003L243.61391899108887,154.86113136227593L244.54730565388996,154.98333187889935L245.4806923166911,155.25426946964276L246.4140789794922,155.41813060572878L247.3474656422933,155.47748820819643L248.2808523050944,155.34469142577387L249.2142389678955,155.1266879909504L250.1476256306966,155.03871608817795L251.0810122934977,155.35247423441962L252.01439895629883,155.4032702097176L252.94778561909993,155.35898382189134L253.88117228190103,155.20672039694685L254.81455894470216,155.11526317907607L255.74794560750325,155.19859645569585L256.6813322703043,155.04626587584042" fill="none"></path></g></g></g></g><g opacity="0.2"><g><g><g><path style="fill: none;" stroke="rgb(51, 187, 238)" stroke-width="2px" d="M25.201439895629882,-1.0019837638494096L26.13482655843099,10.516055330550785L27.068213221232096,20.17662054488568L28.001599884033205,33.83504019520905L28.93498654683431,26.74588451368851L29.86837320963542,43.66210062409385L30.801759872436524,43.664527637003346L31.73514653523763,54.69409844898769L32.66853319803874,62.391880841530906L33.60191986083984,65.1183956598901L34.535306523640955,72.71037412781092L35.46869318644206,82.46428353602013L36.402079849243165,75.65131234328578L37.33546651204427,83.27172305454545L38.268853174845376,87.15434227890358L39.20223983764649,89.78625681775986L40.13562650044759,94.90221906948221L41.0690131632487,94.57515779034111L42.0023998260498,103.23896583441677L42.93578648885091,95.43944582835391L43.86917315165202,103.15311025274346L44.802559814453126,101.6782794408847L45.73594647725423,107.49654258610138L46.669333140055336,105.2916865161747L47.60271980285645,108.80554348300166L48.536106465657554,110.6476569261003L49.46949312845866,117.21239419648312L50.402879791259764,115.85266819753477L51.33626645406087,115.3834270733109L52.26965311686198,123.90016398970769L53.20303977966309,123.69513728402121L54.13642644246419,122.82605376655347L55.0698131052653,128.08216803020395L56.00319976806641,122.83450307136448L56.936586430867514,127.71596584550053L57.86997309366862,126.21935578621711L58.803359756469725,127.01957281237799L59.73674641927084,130.7767378233816L60.67013308207194,133.15668743977767L61.60351974487305,134.75372713358402L62.53690640767415,132.2900096456325L63.47029307047526,133.6287387894757L64.40367973327638,133.3019196793859L65.33706639607747,135.72793463949174L66.27045305887857,135.43313905993523L67.20383972167969,136.65518530023715L68.1372263844808,137.9098525101055L69.07061304728191,136.69745843627587L70.00399971008301,137.59508330621543L70.93738637288412,136.01929062016063L71.87077303568522,137.93770062040306L72.80415969848633,139.57318398579991L73.73754636128743,141.250464132728L74.67093302408854,141.37406482142083L75.60431968688965,141.10946452912043L76.53770634969075,140.98215679110422L77.47109301249186,142.79448077969752L78.40447967529298,141.82814775975385L79.33786633809407,142.87775499895614L80.27125300089519,141.12968697550116L81.20463966369628,141.58335742808748L82.1380263264974,144.82464514410802L83.07141298929851,144.05444244371438L84.0047996520996,143.6457555577022L84.93818631490072,144.61414435338335L85.87157297770182,144.24375743424991L86.80495964050293,143.53648808340688L87.73834630330404,145.1550808227768L88.67173296610514,147.49402203765746L89.60511962890625,145.46521954151058L90.53850629170735,146.8349190466339L91.47189295450846,144.19782115866087L92.40527961730957,146.61495037742375L93.33866628011067,145.86551966087336L94.27205294291178,147.91816449847786L95.2054396057129,146.65575985436135L96.138826268514,148.7137024726123L97.07221293131511,147.12932941772698L98.0055995941162,147.93237795894893L98.93898625691732,146.1934391764874L99.87237291971843,146.36081524769634L100.80575958251953,148.12510660168803L101.73914624532064,148.45934579812095L102.67253290812174,149.3620981320116L103.60591957092285,148.74561622871303L104.53930623372396,148.04902360571307L105.47269289652506,148.74401285669774L106.40607955932617,146.64337862896505L107.33946622212729,150.4167436850197L108.27285288492838,150.58212984515072L109.2062395477295,149.5880684688359L110.1396262105306,150.0434713615583L111.0730128733317,150.24473845925365L112.00639953613282,151.01223971065636L112.93978619893392,150.88785929084239L113.87317286173503,151.7769839605522L114.80655952453613,149.6028607399515L115.73994618733724,150.80805228040444L116.67333285013835,151.00662890655212L117.60671951293945,150.884386759625L118.54010617574056,151.90396170997107L119.47349283854167,151.95282463846277L120.40687950134277,151.23634521272592L121.34026616414388,152.22703584866082L122.27365282694498,149.36232366857308L123.2070394897461,150.37243406693167L124.1404261525472,152.07608469376478L125.0738128153483,151.77692541418816L126.00719947814942,152.51599142840385L126.94058614095051,152.6164579870541L127.87397280375163,152.21849040805884L128.80735946655275,151.88714160570083L129.74074612935382,152.40135465375602L130.67413279215495,153.4466221437235L131.60751945495605,152.75309655183995L132.54090611775715,152.04048218407945L133.47429278055827,153.07834322634545L134.40767944335937,152.61911353037326L135.3410661061605,153.30476696484132L136.2744527689616,151.83221546938276L137.2078394317627,152.8450502695682L138.14122609456382,152.37814467956L139.0746127573649,153.71157670805633L140.00799942016602,153.5238022187247" fill="none"></path></g><g><path style="fill: none;" stroke="rgb(204, 51, 17)" stroke-width="2px" d="M27.068213221232096,-7.155313072891147L28.001599884033205,0.942500657979906L28.93498654683431,5.308750106125103L29.86837320963542,8.375440589171433L30.801759872436524,12.968019635920314L31.73514653523763,-6.685877681186582L32.66853319803874,-29.370816068033264L33.60191986083984,25.63375907188066L34.535306523640955,37.46479767325775L35.46869318644206,39.87591790611094L36.402079849243165,48.04924580180631L37.33546651204427,48.30260253101176L38.268853174845376,49.65706734079117L39.20223983764649,67.04391638216563L40.13562650044759,63.1070619351151L41.0690131632487,75.2609517998188L42.0023998260498,82.05198939562328L42.93578648885091,80.1147274661584L43.86917315165202,80.87272191904952L44.802559814453126,93.90494030434331L45.73594647725423,86.75767469530996L46.669333140055336,79.83788832257426L47.60271980285645,97.91597831703533L48.536106465657554,105.39347203126493L49.46949312845866,100.21315135826717L50.402879791259764,108.43785102721347L51.33626645406087,107.38215895794806L52.26965311686198,111.05657666696948L53.20303977966309,114.66696062091609L54.13642644246419,112.6025918739116L55.0698131052653,117.07126552475479L56.00319976806641,116.70291043057355L56.936586430867514,118.8446801320436L57.86997309366862,116.01532596404138L58.803359756469725,118.45301560137744L59.73674641927084,122.96666350460049L60.67013308207194,124.31898338849717L61.60351974487305,130.0871015729095L62.53690640767415,123.89668846464212L63.47029307047526,125.84972331682035L64.40367973327638,128.7444817570557L65.33706639607747,130.5786887798099L66.27045305887857,131.33642509645958L67.20383972167969,131.23699740312134L68.1372263844808,130.79903866568594L69.07061304728191,131.90631540407153L70.00399971008301,133.06306115887662L70.93738637288412,133.58815817559758L71.87077303568522,133.77161852972864L72.80415969848633,134.94927598129118L73.73754636128743,134.92228211566896L74.67093302408854,134.0277814926107L75.60431968688965,131.13240166255696L76.53770634969075,138.51751586731982L77.47109301249186,139.19372504143792L78.40447967529298,136.47284264941968L79.33786633809407,138.36990850817025L80.27125300089519,138.89521975135966L81.20463966369628,137.4714520137414L82.1380263264974,137.70884554455037L83.07141298929851,136.0561934578974L84.0047996520996,139.51469483751998L84.93818631490072,141.30168155647374L85.87157297770182,139.1840981563501L86.80495964050293,140.91138488176753L87.73834630330404,139.26754003110574L88.67173296610514,144.33411576355795L89.60511962890625,142.8004511782309L90.53850629170735,140.4949579003088L91.47189295450846,140.33336594374762L92.40527961730957,143.67083069930274L93.33866628011067,145.64206947890133L94.27205294291178,145.98374539416713L95.2054396057129,144.01842578503337L96.138826268514,144.7714437969807L97.07221293131511,143.4029518106158L98.0055995941162,145.71863015998295L98.93898625691732,144.79433010292547L99.87237291971843,145.89056286809353L100.80575958251953,146.26887483595993L101.73914624532064,144.76202714656375L102.67253290812174,146.97828445558855L103.60591957092285,147.75746271277004L104.53930623372396,147.66668258352104L105.47269289652506,146.08074008689954L106.40607955932617,146.26597878683847L107.33946622212729,147.9801803998919L108.27285288492838,148.06764866777482L109.2062395477295,144.47343215919926L110.1396262105306,146.13913675853627L111.0730128733317,147.3256999104295L112.00639953613282,148.1304270025206L112.93978619893392,147.75255546298374L113.87317286173503,146.89084745678645L114.80655952453613,147.97640682060938L115.73994618733724,148.91029051828124L116.67333285013835,149.04026610765902L117.60671951293945,149.27238314740845L118.54010617574056,146.87731659369618L119.47349283854167,146.01339580105784L120.40687950134277,147.98285956134654L121.34026616414388,148.14738548910586L122.27365282694498,148.81166517625024L123.2070394897461,149.77954036064685L124.1404261525472,149.90128153698166L125.0738128153483,149.13545185080238L126.00719947814942,150.4314341652978L126.94058614095051,150.12598846988186L127.87397280375163,149.94086020967512L128.80735946655275,149.59453850736244L129.74074612935382,151.56164411324937L130.67413279215495,151.35386838965115L131.60751945495605,150.67544143934504L132.54090611775715,149.46132889667078L133.47429278055827,150.3240175544658L134.40767944335937,152.0832858965423L135.3410661061605,151.23944983326928L136.2744527689616,151.76825922171037L137.2078394317627,151.17299172648336L138.14122609456382,150.0797202097967L139.0746127573649,150.98249350062446L140.00799942016602,149.90242052988216L140.9413860829671,151.4728931477542L141.87477274576824,152.44800878760418L142.80815940856934,151.8414684561002L143.74154607137044,150.58478172932212L144.67493273417156,152.76061111072502L145.60831939697266,150.15334691968016L146.54170605977376,151.01456326947937L147.47509272257486,151.76068777971022L148.40847938537598,150.0477805070119L149.34186604817708,151.76740930148233L150.27525271097818,150.8473691577087L151.2086393737793,151.24752889885767L152.1420260365804,152.21971555725645L153.0754126993815,152.13544239066132L154.00879936218263,152.3291876111761L154.94218602498373,151.13550076390777L155.87557268778482,153.21724347709232L156.80895935058595,152.16738907909183L157.74234601338705,152.53824337118823L158.67573267618815,152.88882897858227L159.60911933898925,152.70402272337776L160.54250600179037,151.9370776624335L161.47589266459147,153.35013906637684L162.40927932739257,152.70752851957474L163.3426659901937,151.68933373323105L164.2760526529948,151.88195493008615L165.2094393157959,152.8771769215382L166.14282597859702,151.47744246636032L167.07621264139812,152.95598265609104L168.0095993041992,153.09108970121744L168.94298596700034,152.90159774099055L169.87637262980144,153.8262256244217L170.80975929260254,153.07056953326952L171.74314595540363,152.83414401336609L172.67653261820476,153.53569860704374L173.60991928100586,153.2349427747726L174.54330594380696,153.99701800903262L175.47669260660808,153.62378211072382L176.41007926940918,154.12316064113935L177.34346593221028,152.8278938563545L178.2768525950114,154.2311612186877L179.2102392578125,154.01765111158613L180.1436259206136,153.99720978163984L181.0770125834147,153.99426832582128L182.01039924621583,153.9494188171148L182.94378590901692,154.49846661912682L183.87717257181802,154.3854718038706L184.81055923461915,154.38294782354563L185.74394589742025,154.00958468669L186.67733256022134,152.94864806074546L187.61071922302247,153.792224324528L188.54410588582357,152.56129733263003L189.47749254862467,152.32216038424176L190.4108792114258,154.03051800568417L191.3442658742269,153.76051614600104L192.277652537028,152.57817298941615L193.2110391998291,152.29086768530962L194.14442586263021,154.33902075272266L195.0778125254313,152.07951564375773L196.0111991882324,153.9214275010802L196.94458585103354,153.83136855658827L197.87797251383464,153.31153505758482L198.81135917663573,153.88068172657847L199.74474583943686,152.17165032297484L200.67813250223796,151.56296539823794L201.61151916503906,153.52186004289246L202.54490582784018,153.25362871174698L203.47829249064128,153.01892299128735L204.41167915344238,152.07279146078727L205.34506581624348,154.50797807473552L206.2784524790446,153.3869051850476L207.2118391418457,154.0160966390908L208.1452258046468,153.2715804906222L209.07861246744793,154.4126961958012L210.01199913024902,154.89153493193086L210.94538579305012,154.71040329269465L211.87877245585125,154.3248247563659L212.81215911865235,154.33307962737132L213.74554578145344,153.45601816985308L214.67893244425457,153.24492626044145L215.61231910705567,154.03133432828284L216.54570576985677,154.71369768994646L217.47909243265786,154.1854223707524L218.412479095459,153.3490888909718L219.3458657582601,155.2848856644115L220.2792524210612,155.37936910067364L221.2126390838623,154.91192844346907L222.1460257466634,154.2956129482308L223.0794124094645,154.16571237138194L224.01279907226564,154.62973372133644L224.94618573506673,154.9946112113909L225.87957239786783,153.491583921736L226.81295906066896,153.8680358782697L227.74634572347006,154.74256703511688L228.67973238627116,154.70851500612932L229.61311904907225,154.26818048385297L230.54650571187338,154.40603355304296L231.47989237467448,154.65034719755204L232.41327903747558,154.52574107485168L233.3466657002767,155.12859157165923L234.2800523630778,154.23216133029848L235.2134390258789,154.02978235066095L236.14682568868002,154.96364450925856L237.08021235148112,155.26990602829846L238.01359901428222,155.38200626509158L238.94698567708335,154.40206537362994L239.88037233988445,154.68595053886187L240.81375900268554,154.97505730793708L241.74714566548664,153.72658919333668L242.68053232828777,155.19816926822932L243.61391899108887,155.07678244708939L244.54730565388996,155.16663265383448L245.4806923166911,155.66067585575783L246.4140789794922,155.66392230985784L247.3474656422933,155.5665246118979L248.2808523050944,155.14549625214002L249.2142389678955,154.7996828387152L250.1476256306966,154.90675823401924L251.0810122934977,155.82311145378213L252.01439895629883,155.47946417266454L252.94778561909993,155.29255424015196L253.88117228190103,154.97832525953012L254.81455894470216,154.97807735226988L255.74794560750325,155.3235963706255L256.6813322703043,154.8177700060573" fill="none"></path></g></g></g></g></g></g><g transform="translate(49, 178)" clip-path="url(#clip_1)"><clipPath id="clip_1"><rect width="280" height="21"></rect></clipPath><g><g><line x1="0" y1="0" x2="0" y2="5" style="visibility: inherit;" fill="rgb(0, 0, 0)" stroke="rgb(204, 204, 204)" stroke-width="1px"></line><line x1="23.334666570027668" y1="0" x2="23.334666570027668" y2="5" style="visibility: inherit;" fill="rgb(0, 0, 0)" stroke="rgb(204, 204, 204)" stroke-width="1px"></line><line x1="46.669333140055336" y1="0" x2="46.669333140055336" y2="5" style="visibility: inherit;" fill="rgb(0, 0, 0)" stroke="rgb(204, 204, 204)" stroke-width="1px"></line><line x1="70.00399971008301" y1="0" x2="70.00399971008301" y2="5" style="visibility: inherit;" fill="rgb(0, 0, 0)" stroke="rgb(204, 204, 204)" stroke-width="1px"></line><line x1="93.33866628011067" y1="0" x2="93.33866628011067" y2="5" style="visibility: inherit;" fill="rgb(0, 0, 0)" stroke="rgb(204, 204, 204)" stroke-width="1px"></line><line x1="116.67333285013835" y1="0" x2="116.67333285013835" y2="5" style="visibility: inherit;" fill="rgb(0, 0, 0)" stroke="rgb(204, 204, 204)" stroke-width="1px"></line><line x1="140.00799942016602" y1="0" x2="140.00799942016602" y2="5" style="visibility: inherit;" fill="rgb(0, 0, 0)" stroke="rgb(204, 204, 204)" stroke-width="1px"></line><line x1="163.3426659901937" y1="0" x2="163.3426659901937" y2="5" style="visibility: inherit;" fill="rgb(0, 0, 0)" stroke="rgb(204, 204, 204)" stroke-width="1px"></line><line x1="186.67733256022134" y1="0" x2="186.67733256022134" y2="5" style="visibility: inherit;" fill="rgb(0, 0, 0)" stroke="rgb(204, 204, 204)" stroke-width="1px"></line><line x1="210.01199913024902" y1="0" x2="210.01199913024902" y2="5" style="visibility: inherit;" fill="rgb(0, 0, 0)" stroke="rgb(204, 204, 204)" stroke-width="1px"></line><line x1="233.3466657002767" y1="0" x2="233.3466657002767" y2="5" style="visibility: inherit;" fill="rgb(0, 0, 0)" stroke="rgb(204, 204, 204)" stroke-width="1px"></line><line x1="256.6813322703043" y1="0" x2="256.6813322703043" y2="5" style="visibility: inherit;" fill="rgb(0, 0, 0)" stroke="rgb(204, 204, 204)" stroke-width="1px"></line><line x1="280.01599884033203" y1="0" x2="280.01599884033203" y2="5" style="visibility: inherit;" fill="rgb(0, 0, 0)" stroke="rgb(204, 204, 204)" stroke-width="1px"></line></g><g transform="translate(0, 8)"><text style="text-anchor: middle; visibility: hidden; font-family: Roboto, sans-serif; font-size: 12px; font-weight: 200;" x="0" y="0" dx="0em" dy="0.95em" fill="rgb(50, 49, 63)" stroke="none" stroke-width="1px">-500</text><text style="text-anchor: middle; visibility: inherit; font-family: Roboto, sans-serif; font-size: 12px; font-weight: 200;" x="23.334666570027668" y="0" dx="0em" dy="0.95em" fill="rgb(50, 49, 63)" stroke="none" stroke-width="1px">0</text><text style="text-anchor: middle; visibility: inherit; font-family: Roboto, sans-serif; font-size: 12px; font-weight: 200;" x="46.669333140055336" y="0" dx="0em" dy="0.95em" fill="rgb(50, 49, 63)" stroke="none" stroke-width="1px">500</text><text style="text-anchor: middle; visibility: inherit; font-family: Roboto, sans-serif; font-size: 12px; font-weight: 200;" x="70.00399971008301" y="0" dx="0em" dy="0.95em" fill="rgb(50, 49, 63)" stroke="none" stroke-width="1px">1k</text><text style="text-anchor: middle; visibility: inherit; font-family: Roboto, sans-serif; font-size: 12px; font-weight: 200;" x="93.33866628011067" y="0" dx="0em" dy="0.95em" fill="rgb(50, 49, 63)" stroke="none" stroke-width="1px">1.5k</text><text style="text-anchor: middle; visibility: inherit; font-family: Roboto, sans-serif; font-size: 12px; font-weight: 200;" x="116.67333285013835" y="0" dx="0em" dy="0.95em" fill="rgb(50, 49, 63)" stroke="none" stroke-width="1px">2k</text><text style="text-anchor: middle; visibility: inherit; font-family: Roboto, sans-serif; font-size: 12px; font-weight: 200;" x="140.00799942016602" y="0" dx="0em" dy="0.95em" fill="rgb(50, 49, 63)" stroke="none" stroke-width="1px">2.5k</text><text style="text-anchor: middle; visibility: inherit; font-family: Roboto, sans-serif; font-size: 12px; font-weight: 200;" x="163.3426659901937" y="0" dx="0em" dy="0.95em" fill="rgb(50, 49, 63)" stroke="none" stroke-width="1px">3k</text><text style="text-anchor: middle; visibility: inherit; font-family: Roboto, sans-serif; font-size: 12px; font-weight: 200;" x="186.67733256022134" y="0" dx="0em" dy="0.95em" fill="rgb(50, 49, 63)" stroke="none" stroke-width="1px">3.5k</text><text style="text-anchor: middle; visibility: inherit; font-family: Roboto, sans-serif; font-size: 12px; font-weight: 200;" x="210.01199913024902" y="0" dx="0em" dy="0.95em" fill="rgb(50, 49, 63)" stroke="none" stroke-width="1px">4k</text><text style="text-anchor: middle; visibility: inherit; font-family: Roboto, sans-serif; font-size: 12px; font-weight: 200;" x="233.3466657002767" y="0" dx="0em" dy="0.95em" fill="rgb(50, 49, 63)" stroke="none" stroke-width="1px">4.5k</text><text style="text-anchor: middle; visibility: inherit; font-family: Roboto, sans-serif; font-size: 12px; font-weight: 200;" x="256.6813322703043" y="0" dx="0em" dy="0.95em" fill="rgb(50, 49, 63)" stroke="none" stroke-width="1px">5k</text><text style="text-anchor: middle; visibility: hidden; font-family: Roboto, sans-serif; font-size: 12px; font-weight: 200;" x="280.01599884033203" y="0" dx="0em" dy="0.95em" fill="rgb(50, 49, 63)" stroke="none" stroke-width="1px">5.5k</text></g><line x1="0" y1="0" x2="280.01599884033203" y2="0" fill="rgb(0, 0, 0)" stroke="rgb(204, 204, 204)" stroke-width="1px"></line></g></g></g></g></svg>