<svg viewBox="0 0 330 200" xmlns="http://www.w3.org/2000/svg"><g><g><g><g><g><line x1="30.766000747680664" y1="177.89999961853027" x2="25.766000747680664" y2="177.89999961853027" style="visibility: inherit;" fill="rgb(0, 0, 0)" stroke="rgb(204, 204, 204)" stroke-width="1px"></line><line x1="30.766000747680664" y1="158.13333299424912" x2="25.766000747680664" y2="158.13333299424912" style="visibility: inherit;" fill="rgb(0, 0, 0)" stroke="rgb(204, 204, 204)" stroke-width="1px"></line><line x1="30.766000747680664" y1="138.366666369968" x2="25.766000747680664" y2="138.366666369968" style="visibility: inherit;" fill="rgb(0, 0, 0)" stroke="rgb(204, 204, 204)" stroke-width="1px"></line><line x1="30.766000747680664" y1="118.59999974568686" x2="25.766000747680664" y2="118.59999974568686" style="visibility: inherit;" fill="rgb(0, 0, 0)" stroke="rgb(204, 204, 204)" stroke-width="1px"></line><line x1="30.766000747680664" y1="98.83333312140572" x2="25.766000747680664" y2="98.83333312140572" style="visibility: inherit;" fill="rgb(0, 0, 0)" stroke="rgb(204, 204, 204)" stroke-width="1px"></line><line x1="30.766000747680664" y1="79.06666649712456" x2="25.766000747680664" y2="79.06666649712456" style="visibility: inherit;" fill="rgb(0, 0, 0)" stroke="rgb(204, 204, 204)" stroke-width="1px"></line><line x1="30.766000747680664" y1="59.29999987284343" x2="25.766000747680664" y2="59.29999987284343" style="visibility: inherit;" fill="rgb(0, 0, 0)" stroke="rgb(204, 204, 204)" stroke-width="1px"></line><line x1="30.766000747680664" y1="39.53333324856228" x2="25.766000747680664" y2="39.53333324856228" style="visibility: inherit;" fill="rgb(0, 0, 0)" stroke="rgb(204, 204, 204)" stroke-width="1px"></line><line x1="30.766000747680664" y1="19.76666662428115" x2="25.766000747680664" y2="19.76666662428115" style="visibility: inherit;" fill="rgb(0, 0, 0)" stroke="rgb(204, 204, 204)" stroke-width="1px"></line><line x1="30.766000747680664" y1="0" x2="25.766000747680664" y2="0" style="visibility: inherit;" fill="rgb(0, 0, 0)" stroke="rgb(204, 204, 204)" stroke-width="1px"></line></g><g transform="translate(20.766000747680664, 0)"><text style="text-anchor: end; visibility: hidden; font-family: Roboto, sans-serif; font-size: 12px; font-weight: 200;" x="0" y="177.89999961853027" dx="0em" dy="0.3em" fill="rgb(50, 49, 63)" stroke="none" stroke-width="1px">-1</text><text style="text-anchor: end; visibility: inherit; font-family: Roboto, sans-serif; font-size: 12px; font-weight: 200;" x="0" y="158.13333299424912" dx="0em" dy="0.3em" fill="rgb(50, 49, 63)" stroke="none" stroke-width="1px">0</text><text style="text-anchor: end; visibility: hidden; font-family: Roboto, sans-serif; font-size: 12px; font-weight: 200;" x="0" y="138.366666369968" dx="0em" dy="0.3em" fill="rgb(50, 49, 63)" stroke="none" stroke-width="1px">1</text><text style="text-anchor: end; visibility: inherit; font-family: Roboto, sans-serif; font-size: 12px; font-weight: 200;" x="0" y="118.59999974568686" dx="0em" dy="0.3em" fill="rgb(50, 49, 63)" stroke="none" stroke-width="1px">2</text><text style="text-anchor: end; visibility: hidden; font-family: Roboto, sans-serif; font-size: 12px; font-weight: 200;" x="0" y="98.83333312140572" dx="0em" dy="0.3em" fill="rgb(50, 49, 63)" stroke="none" stroke-width="1px">3</text><text style="text-anchor: end; visibility: inherit; font-family: Roboto, sans-serif; font-size: 12px; font-weight: 200;" x="0" y="79.06666649712456" dx="0em" dy="0.3em" fill="rgb(50, 49, 63)" stroke="none" stroke-width="1px">4</text><text style="text-anchor: end; visibility: hidden; font-family: Roboto, sans-serif; font-size: 12px; font-weight: 200;" x="0" y="59.29999987284343" dx="0em" dy="0.3em" fill="rgb(50, 49, 63)" stroke="none" stroke-width="1px">5</text><text style="text-anchor: end; visibility: inherit; font-family: Roboto, sans-serif; font-size: 12px; font-weight: 200;" x="0" y="39.53333324856228" dx="0em" dy="0.3em" fill="rgb(50, 49, 63)" stroke="none" stroke-width="1px">6</text><text style="text-anchor: end; visibility: hidden; font-family: Roboto, sans-serif; font-size: 12px; font-weight: 200;" x="0" y="19.76666662428115" dx="0em" dy="0.3em" fill="rgb(50, 49, 63)" stroke="none" stroke-width="1px">7</text><text style="text-anchor: end; visibility: hidden; font-family: Roboto, sans-serif; font-size: 12px; font-weight: 200;" x="0" y="0" dx="0em" dy="0.3em" fill="rgb(50, 49, 63)" stroke="none" stroke-width="1px">8</text></g><line x1="30.766000747680664" y1="0" x2="30.766000747680664" y2="177.89999961853027" fill="rgb(0, 0, 0)" stroke="rgb(204, 204, 204)" stroke-width="1px"></line></g></g><g transform="translate(30, 0)" clip-path="url(#clip_0)"><clipPath id="clip_0"><rect width="299" height="177"></rect></clipPath><g><g><g><line x1="0" y1="0" x2="0" y2="177.89999961853027" fill="rgb(0, 0, 0)" stroke="rgb(60, 60, 60)" stroke-width="1px" opacity="0.25"></line><line x1="24.936166604359943" y1="0" x2="24.936166604359943" y2="177.89999961853027" fill="rgb(0, 0, 0)" stroke="rgb(60, 60, 60)" stroke-width="1px" opacity="0.25"></line><line x1="49.87233320871989" y1="0" x2="49.87233320871989" y2="177.89999961853027" fill="rgb(0, 0, 0)" stroke="rgb(60, 60, 60)" stroke-width="1px" opacity="0.25"></line><line x1="74.80849981307983" y1="0" x2="74.80849981307983" y2="177.89999961853027" fill="rgb(0, 0, 0)" stroke="rgb(60, 60, 60)" stroke-width="1px" opacity="0.25"></line><line x1="99.74466641743977" y1="0" x2="99.74466641743977" y2="177.89999961853027" fill="rgb(0, 0, 0)" stroke="rgb(60, 60, 60)" stroke-width="1px" opacity="0.25"></line><line x1="124.68083302179973" y1="0" x2="124.68083302179973" y2="177.89999961853027" fill="rgb(0, 0, 0)" stroke="rgb(60, 60, 60)" stroke-width="1px" opacity="0.25"></line><line x1="149.61699962615967" y1="0" x2="149.61699962615967" y2="177.89999961853027" fill="rgb(0, 0, 0)" stroke="rgb(60, 60, 60)" stroke-width="1px" opacity="0.25"></line><line x1="174.55316623051962" y1="0" x2="174.55316623051962" y2="177.89999961853027" fill="rgb(0, 0, 0)" stroke="rgb(60, 60, 60)" stroke-width="1px" opacity="0.25"></line><line x1="199.48933283487955" y1="0" x2="199.48933283487955" y2="177.89999961853027" fill="rgb(0, 0, 0)" stroke="rgb(60, 60, 60)" stroke-width="1px" opacity="0.25"></line><line x1="224.4254994392395" y1="0" x2="224.4254994392395" y2="177.89999961853027" fill="rgb(0, 0, 0)" stroke="rgb(60, 60, 60)" stroke-width="1px" opacity="0.25"></line><line x1="249.36166604359946" y1="0" x2="249.36166604359946" y2="177.89999961853027" fill="rgb(0, 0, 0)" stroke="rgb(60, 60, 60)" stroke-width="1px" opacity="0.25"></line><line x1="274.29783264795935" y1="0" x2="274.29783264795935" y2="177.89999961853027" fill="rgb(0, 0, 0)" stroke="rgb(60, 60, 60)" stroke-width="1px" opacity="0.25"></line><line x1="299.23399925231934" y1="0" x2="299.23399925231934" y2="177.89999961853027" fill="rgb(0, 0, 0)" stroke="rgb(60, 60, 60)" stroke-width="1px" opacity="0.25"></line></g><g><line x1="0" y1="177.89999961853027" x2="299.23399925231934" y2="177.89999961853027" fill="rgb(0, 0, 0)" stroke="rgb(60, 60, 60)" stroke-width="1px" opacity="0.25"></line><line x1="0" y1="158.13333299424912" x2="299.23399925231934" y2="158.13333299424912" fill="rgb(0, 0, 0)" stroke="rgb(60, 60, 60)" stroke-width="1px" opacity="0.25"></line><line x1="0" y1="138.366666369968" x2="299.23399925231934" y2="138.366666369968" fill="rgb(0, 0, 0)" stroke="rgb(60, 60, 60)" stroke-width="1px" opacity="0.25"></line><line x1="0" y1="118.59999974568686" x2="299.23399925231934" y2="118.59999974568686" fill="rgb(0, 0, 0)" stroke="rgb(60, 60, 60)" stroke-width="1px" opacity="0.25"></line><line x1="0" y1="98.83333312140572" x2="299.23399925231934" y2="98.83333312140572" fill="rgb(0, 0, 0)" stroke="rgb(60, 60, 60)" stroke-width="1px" opacity="0.25"></line><line x1="0" y1="79.06666649712456" x2="299.23399925231934" y2="79.06666649712456" fill="rgb(0, 0, 0)" stroke="rgb(60, 60, 60)" stroke-width="1px" opacity="0.25"></line><line x1="0" y1="59.29999987284343" x2="299.23399925231934" y2="59.29999987284343" fill="rgb(0, 0, 0)" stroke="rgb(60, 60, 60)" stroke-width="1px" opacity="0.25"></line><line x1="0" y1="39.53333324856228" x2="299.23399925231934" y2="39.53333324856228" fill="rgb(0, 0, 0)" stroke="rgb(60, 60, 60)" stroke-width="1px" opacity="0.25"></line><line x1="0" y1="19.76666662428115" x2="299.23399925231934" y2="19.76666662428115" fill="rgb(0, 0, 0)" stroke="rgb(60, 60, 60)" stroke-width="1px" opacity="0.25"></line><line x1="0" y1="0" x2="299.23399925231934" y2="0" fill="rgb(0, 0, 0)" stroke="rgb(60, 60, 60)" stroke-width="1px" opacity="0.25"></line></g></g></g><g><g><line x1="0" y1="158.13333299424912" x2="299.23399925231934" y2="158.13333299424912" fill="rgb(0, 0, 0)" stroke="rgb(153, 153, 153)" stroke-width="1.5px"></line></g></g><g><g><line x1="24.936166604359943" y1="0" x2="24.936166604359943" y2="177.89999961853027" fill="rgb(0, 0, 0)" stroke="rgb(153, 153, 153)" stroke-width="1.5px"></line></g></g><g><g><g><g><g><path style="fill: none;" stroke="rgb(0, 153, 136)" stroke-width="2px" d="M24.936166604359943,25.1532631175779L25.933613268534344,26.351447952906256L26.931059932708738,41.04137349086484L27.92850659688314,61.662738265932774L28.925953261057536,72.88976494623041L29.923399925231934,80.92800828035442L30.92084658940633,85.07044791505365L31.91829325358073,88.49479478607067L32.915739917755126,91.56628088314307L33.91318658192952,80.90629254400459L34.91063324610392,82.37965721932939L35.90807991027832,86.16522320081786L36.90552657445272,92.30608344393313L37.90297323862712,96.5613677181476L38.90041990280152,102.25527684338522L39.897866566975914,105.90017946131603L40.895313231150304,108.78739050239625L41.89275989532471,110.41333803603476L42.890206559499106,112.58874150473495L43.8876532236735,115.01801329895912L44.8850998878479,118.23141679314107L45.8825465520223,120.86957751487797L46.8799932161967,123.04019543820017L47.87743988037109,125.44732298560334L48.87488654454549,126.01809928953381L49.87233320871989,127.52025081970636L50.86977987289429,128.55946707475974L51.86722653706869,130.7682593680715L52.864673201243086,131.44956120347595L53.862119865417476,134.13039351968555L54.85956652959187,135.3803085354948L55.85701319376628,137.38003439414643L56.854459857940675,138.07405793577115L57.85190652211507,138.9383416971619L58.84935318628946,139.65865116975007L59.84679985046387,140.2515243346111L60.844246514638265,140.03053932317417L61.84169317881266,141.4182195215009L62.83913984298706,141.96396500315217L63.83658650716146,141.72899335969896L64.83403317133586,142.28140531994933L65.83147983551025,143.54576117072986L66.82892649968466,144.33326378051208L67.82637316385905,145.5918198406569L68.82381982803345,145.87017211091091L69.82126649220784,146.82583798635142L70.81871315638224,146.97543489031113L71.81615982055663,146.4402332067453L72.81360648473104,147.08378709890442L73.81105314890544,147.00328035752776L74.80849981307983,147.03657977204475L75.80594647725424,147.04508908148114L76.80339314142863,147.7045841441065L77.80083980560303,147.93496719668752L78.79828646977742,147.45436989161547L79.79573313395183,148.08532911050747L80.79317979812623,148.45983448344916L81.79062646230061,148.62420166787976L82.78807312647501,149.121763008185L83.78551979064942,149.2479739763176L84.78296645482381,150.20583699240382L85.78041311899821,150.46429668497842L86.7778597831726,150.71983328434564L87.775306447347,150.6944460008132L88.77275311152141,151.01936864137983L89.7701997756958,151.0882816286307L90.7676464398702,151.01171052535375L91.7650931040446,150.7904536785415L92.762539768219,151.00887084785995L93.7599864323934,151.23666122459338L94.75743309656778,151.7047447930065L95.75487976074218,151.8233399889652L96.75232642491657,152.2133498229384L97.74977308909098,152.42818123140162L98.74721975326538,152.28460002038062L99.74466641743977,152.50767328917394L100.74211308161418,152.35363690071586L101.73955974578858,151.87960820472222L102.73700640996297,152.42674345706013L103.73445307413738,152.4109229131863L104.73189973831177,152.14074086512144L105.72934640248617,152.50464040482572L106.72679306666058,152.7351352291268L107.72423973083495,152.95681452479633L108.72168639500936,153.09319889863505L109.71913305918375,152.9469976795266L110.71657972335815,153.19173346138925L111.71402638753256,153.51466388990264L112.71147305170695,153.87419656675763L113.70891971588135,153.71868275885777L114.70636638005575,153.90186012406437L115.70381304423015,154.20268944262122L116.70125970840455,154.59723900353976L117.69870637257893,154.56000782308632L118.69615303675333,154.34278562820623L119.69359970092773,154.6828449679866L120.69104636510212,154.69375493747944L121.68849302927653,154.62068835708683L122.68593969345092,154.45971383107315L123.68338635762532,154.64570857460566L124.68083302179973,154.79417872767553L125.67827968597412,154.736808636108L126.67572635014852,154.56115646776536L127.67317301432293,154.35140188028964L128.6706196784973,154.51428248358147L129.66806634267172,154.84383620949018L130.6655130068461,154.8822716872021L131.6629596710205,154.93767521635843L132.66040633519492,155.07203365988804L133.6578529993693,155.12400268590577L134.6552996635437,154.97860112909035L135.6527463277181,155.03859304388595L136.6501929918925,155.2381426760647L137.6476396560669,155.3021821178732L138.6450863202413,155.25277420131565L139.64253298441568,155.47341491467427L140.63997964859007,155.57213117060084L141.6374263127645,155.49371856124142L142.63487297693888,155.47633934697396L143.63231964111327,155.70811499053815L144.6297663052877,155.80460612636784L145.62721296946208,155.71521217191432L146.62465963363647,155.7295560215998L147.6221062978109,155.92299578093474L148.61955296198528,155.95787172309332L149.61699962615967,155.999811928774L150.61444629033406,155.98782787463833L151.61189295450848,156.01594211340847L152.60933961868287,156.03175447259954L153.60678628285726,155.71926120798128L154.60423294703168,155.9277833193371L155.60167961120607,155.77835682678545L156.59912627538046,155.75270666385222L157.59657293955485,155.7379235670777L158.59401960372927,155.98830280487056L159.59146626790366,156.03907349528373L160.58891293207802,155.9568788476599L161.58635959625246,155.94317783012406L162.58380626042683,156.06811146294524L163.58125292460122,156.10968016733005L164.57869958877563,155.95295348827824L165.57614625295002,156.07717109448694L166.57359291712442,156.14576578473628L167.57103958129883,156.26157447134082L168.56848624547322,156.10582249504992L169.56593290964761,156.02359417075985L170.563379573822,155.77787592171535L171.56082623799642,155.8423917019512L172.5582729021708,155.97899698595063L173.5557195663452,156.15115464720552L174.55316623051962,156.4047679364594L175.550612894694,156.3494359456234L176.5480595588684,156.45940863145736L177.54550622304282,156.48490809309183L178.5429528872172,156.4898606536045L179.5403995513916,156.6784080138941L180.53784621556602,156.56818398458674L181.5352928797404,155.98769870480746L182.5327395439148,156.21812966367298L183.5301862080892,156.1680636501635L184.5276328722636,156.52906584105267L185.525079536438,156.39273463866544L186.52252620061236,156.5701509046308L187.5199728647868,156.53442334886245L188.51741952896117,156.68265543159083L189.51486619313556,156.830936715212L190.51231285730998,156.8126882515892L191.50975952148437,156.68694888952476L192.50720618565876,156.8369016628071L193.50465284983315,156.70319808802094L194.50209951400757,156.74673168579142L195.49954617818196,156.72288895947906L196.49699284235635,156.82438481443566L197.49443950653077,156.80662919093749L198.49188617070516,156.80274831958414L199.48933283487955,156.85621784984758L200.48677949905397,156.93035901031635L201.48422616322836,156.95069839265136L202.48167282740275,156.94413995384082L203.47911949157717,156.92939845860866L204.47656615575156,156.89783069990028L205.47401281992595,157.07275169130915L206.47145948410034,157.12895069041014L207.46890614827475,157.27115932180072L208.46635281244914,157.2079132334283L209.46379947662354,156.98109083802376L210.46124614079795,156.9126775393828L211.45869280497234,156.95532141161482" fill="none"></path></g><g><path style="fill: none;" stroke="rgb(204, 51, 17)" stroke-width="2px" d="M24.936166604359943,25.571254929705493L25.933613268534344,25.33165330819411L26.931059932708738,26.32004785213746L27.92850659688314,40.60033846498588L28.925953261057536,60.196889893325796L29.923399925231934,72.43607351592571L30.92084658940633,80.19909023885931L31.91829325358073,85.26780343311805L32.915739917755126,89.07557401779397L33.91318658192952,87.83382776485234L34.91063324610392,83.06167863631858L35.90807991027832,89.97155428281434L36.90552657445272,96.20575013451834L37.90297323862712,100.36837485048623L38.90041990280152,104.31196401662453L39.897866566975914,106.72181031934821L40.895313231150304,108.40718694906694L41.89275989532471,112.49759609889173L42.890206559499106,114.25435205530665L43.8876532236735,117.46075930351063L44.8850998878479,120.5871860757928L45.8825465520223,122.11992223883894L46.8799932161967,123.17378601742014L47.87743988037109,126.11399738890914L48.87488654454549,126.61239588123006L49.87233320871989,125.6860006701028L50.86977987289429,128.33163335340814L51.86722653706869,131.243208257019L52.864673201243086,132.07276398218818L53.862119865417476,134.0270171442749L54.85956652959187,135.0126152643574L55.85701319376628,136.2546801034574L56.854459857940675,137.63928517675615L57.85190652211507,138.10446721497277L58.84935318628946,139.17493795441774L59.84679985046387,139.7519880444849L60.844246514638265,140.47750605598452L61.84169317881266,140.41176393602208L62.83913984298706,140.80401135667572L63.83658650716146,141.83868585258153L64.83403317133586,142.69897411679204L65.83147983551025,144.23662840993055L66.82892649968466,144.06295505545006L67.82637316385905,144.3046157743776L68.82381982803345,144.96224763038796L69.82126649220784,145.68164814630077L70.81871315638224,146.2474766744485L71.81615982055663,146.56936605000504L72.81360648473104,146.68494116122247L73.81105314890544,146.95037488014384L74.80849981307983,147.3144842771324L75.80594647725424,147.62593982715836L76.80339314142863,147.84530231938987L77.80083980560303,148.18547225190488L78.79828646977742,148.38479384301635L79.79573313395183,148.3459788627213L80.79317979812623,147.80994440742452L81.79062646230061,148.79616037569446L82.78807312647501,149.50764045890648L83.78551979064942,149.45268495290642L84.78296645482381,149.75566478050013L85.78041311899821,150.03048052645164L86.7778597831726,149.9432336407797L87.775306447347,149.9329257472695L88.77275311152141,149.63407133882492L89.7701997756958,150.06722787207514L90.7676464398702,150.64358090748772L91.7650931040446,150.6143879440811L92.762539768219,150.90275895494156L93.7599864323934,150.7846715706111L94.75743309656778,151.61106367893916L95.75487976074218,151.83530087723474L96.75232642491657,151.56156127911822L97.74977308909098,151.36870105259536L98.74721975326538,151.84401960833748L99.74466641743977,152.47829922349362L100.74211308161418,152.91937469349685L101.73955974578858,152.83597972510927L102.73700640996297,152.9192953937974L103.73445307413738,152.7269372952057L104.73189973831177,153.02160803677927L105.72934640248617,153.0347253376897L106.72679306666058,153.23672858308967L107.72423973083495,153.42492614336362L108.72168639500936,153.27099564149927L109.71913305918375,153.57111637797627L110.71657972335815,153.88917421138208L111.71402638753256,154.06393257515572L112.71147305170695,153.88793158350563L113.70891971588135,153.81513507962063L114.70636638005575,154.0750267116557L115.70381304423015,154.2464515265827L116.70125970840455,153.71280332068085L117.69870637257893,153.6875955509093L118.69615303675333,153.88260044485432L119.69359970092773,154.1421132393253L120.69104636510212,154.23090329883038L121.68849302927653,154.13157667413918L122.68593969345092,154.264223401754L123.68338635762532,154.50919375805444L124.68083302179973,154.67919346805328L125.67827968597412,154.82229911330896L126.67572635014852,154.48401796988344L127.67317301432293,154.12805675905548L128.6706196784973,154.26325417447353L129.66806634267172,154.37350867102518L130.6655130068461,154.55729926742717L131.6629596710205,154.83897552853014L132.66040633519492,155.0295405416596L133.6578529993693,155.00825806868764L134.6552996635437,155.2249952804776L135.6527463277181,155.30094594947272L136.6501929918925,155.3137318176381L137.6476396560669,155.2600729109427L138.6450863202413,155.5762341011165L139.64253298441568,155.72913562194543L140.63997964859007,155.70073328417539L141.6374263127645,155.4686835788487L142.63487297693888,155.48222808053694L143.63231964111327,155.80190522425298L144.6297663052877,155.84427580883673L145.62721296946208,155.96334549873023L146.62465963363647,155.92937084649728L147.6221062978109,155.71537760051075L148.61955296198528,155.74685460219612L149.61699962615967,155.5744696911556L150.61444629033406,155.74915517944285L151.61189295450848,156.0266505945676L152.60933961868287,156.0857350605679L153.60678628285726,155.89863793623007L154.60423294703168,156.17169928047662L155.60167961120607,155.87381328241526L156.59912627538046,155.84759527609063L157.59657293955485,155.9639963454811L158.59401960372927,155.73049666866876L159.59146626790366,155.89492750147747L160.58891293207802,155.83065524907576L161.58635959625246,155.86295655285824L162.58380626042683,156.05450276127112L163.58125292460122,156.1545064740276L164.57869958877563,156.24881922030983L165.57614625295002,156.09401577052984L166.57359291712442,156.36979142522537L167.57103958129883,156.34933714072687L168.56848624547322,156.4027394964262L169.56593290964761,156.49686643629823L170.563379573822,156.52061509115066L171.56082623799642,156.39904528047333L172.5582729021708,156.57634373286913L173.5557195663452,156.56892231375406L174.55316623051962,156.38415641460696L175.550612894694,156.30740833936719L176.5480595588684,156.4376042686042L177.54550622304282,156.26784156891247L178.5429528872172,156.42781998607245L179.5403995513916,156.54773326678747L180.53784621556602,156.5861239303498L181.5352928797404,156.77290152759383L182.5327395439148,156.75114825635592L183.5301862080892,156.6962274816585L184.5276328722636,156.78751396266378L185.525079536438,156.7890247253497L186.52252620061236,156.92488778448032L187.5199728647868,156.94030893273384L188.51741952896117,157.03799702321416L189.51486619313556,156.86722989574127L190.51231285730998,157.0132755222568L191.50975952148437,157.06309219766175L192.50720618565876,157.08936222905427L193.50465284983315,157.10460334278366L194.50209951400757,157.10580557042917L195.49954617818196,157.20375828536328L196.49699284235635,157.24251955895372L197.49443950653077,157.2653293491195L198.49188617070516,157.2128960032033L199.48933283487955,156.99355375643657L200.48677949905397,157.01133810189256L201.48422616322836,156.8040227202815L202.48167282740275,156.63728451000534L203.47911949157717,156.83977620037655L204.47656615575156,156.91345633786722L205.47401281992595,156.7482821873896L206.47145948410034,156.59829853754306L207.46890614827475,156.87101765105103L208.46635281244914,156.63451128904114L209.46379947662354,156.81879333037884L210.46124614079795,156.91341393418105L211.45869280497234,156.8781285058042L212.4561394691467,156.95774795389514L213.45358613332115,156.7028656855125L214.45103279749551,156.4421437534277L215.4484794616699,156.63261304171957L216.44592612584432,156.69939328248375L217.4433727900187,156.6978971758469L218.4408194541931,156.52944821219512L219.4382661183675,156.85962826281187L220.4357127825419,156.8592044679162L221.4331594467163,156.97037428209882L222.4306061108907,156.90522912368138L223.4280527750651,157.06822325445705L224.4254994392395,157.25081772346013L225.4229461034139,157.32829763690003L226.4203927675883,157.3065031286627L227.4178394317627,157.29488828639055L228.4152860959371,157.1325997638703L229.4127327601115,156.9978441906985L230.4101794242859,157.0562565721094L231.4076260884603,157.21214435391752L232.40507275263468,157.21212426267152L233.4025194168091,157.0640051456633L234.3999660809835,157.31794569982327L235.39741274515785,157.4870421906214L236.3948594093323,157.50572059080343L237.39230607350666,157.40778375513554L238.38975273768105,157.3260174415537L239.38719940185547,157.3591316194474L240.38464606602986,157.44361661523192L241.38209273020425,157.22813513276472L242.37953939437867,157.16551246520714L243.37698605855306,157.2828103885652L244.37443272272745,157.34715883756496L245.37187938690184,157.3077886629396L246.36932605107626,157.30857908450102L247.36677271525065,157.3523190646068L248.36421937942504,157.35649644022556L249.36166604359946,157.465762212464L250.35911270777385,157.37257202297198L251.35655937194824,157.28081843033436L252.35400603612266,157.39114478010896L253.35145270029705,157.51157672300567L254.34889936447144,157.60368782239402L255.34634602864585,157.4854158516454L256.3437926928202,157.46472615322907L257.3412393569946,157.5035105168212L258.338686021169,157.30568877259967L259.33613268534344,157.4475991899276L260.33357934951783,157.51124893694282L261.3310260136922,157.5653504405935L262.3284726778666,157.68530190610073L263.325919342041,157.75784770293635L264.3233660062154,157.78412693346118L265.32081267038984,157.72533417376133L266.31825933456423,157.6288181036917L267.3157059987386,157.58987054151675L268.313152662913,157.72877983554733L269.3105993270874,157.75126860007109L270.3080459912618,157.7316618075725L271.3054926554362,157.66425063396926L272.30293931961063,157.62376002768346L273.300385983785,157.66065394346916L274.29783264795935,157.59321303855415" fill="none"></path></g></g></g></g><g opacity="0.2"><g><g><g><path style="fill: none;" stroke="rgb(0, 153, 136)" stroke-width="2px" d="M24.936166604359943,25.1532631175779L25.933613268534344,27.07035885410328L26.931059932708738,55.143702007305066L27.92850659688314,85.91346324141266L28.925953261057536,87.54777098002705L29.923399925231934,92.04779257904825L30.92084658940633,90.99420287170764L31.91829325358073,93.48752539774345L32.915739917755126,96.09612627086537L33.91318658192952,65.07745221806495L34.91063324610392,84.576340923151L35.90807991027832,91.82297129014992L36.90552657445272,101.49732283444841L37.90297323862712,102.9359575845908L38.90041990280152,110.78944755480606L39.897866566975914,111.36496272049044L40.895313231150304,113.11698529306568L41.89275989532471,112.85184650858987L42.890206559499106,115.85151530696217L43.8876532236735,118.66169894523105L44.8850998878479,123.05134580372939L45.8825465520223,124.8267317876811L46.8799932161967,126.29607946811902L47.87743988037109,129.05798579198745L48.87488654454549,126.8742596885958L49.87233320871989,129.7734717089751L50.86977987289429,130.1182887982702L51.86722653706869,134.08144441702274L52.864673201243086,132.47151332900734L53.862119865417476,138.15164051234473L54.85956652959187,137.25518064472325L55.85701319376628,140.37962278424533L56.854459857940675,139.11509316535574L57.85190652211507,140.2347672773411L58.84935318628946,140.73911534767586L59.84679985046387,141.14083406661476L60.844246514638265,139.6990618094378L61.84169317881266,143.49973980610918L62.83913984298706,142.78258322258938L63.83658650716146,141.37653589530436L64.83403317133586,143.11002325921726L65.83147983551025,145.4422949453796L66.82892649968466,145.5145176946169L67.82637316385905,147.4796539303291L68.82381982803345,146.2877005162196L69.82126649220784,148.25933679936313L70.81871315638224,147.19983024623673L71.81615982055663,145.6374306814266L72.81360648473104,148.0491179371214L73.81105314890544,146.88252024546438L74.80849981307983,147.0865288938198L75.80594647725424,147.05785304563568L76.80339314142863,148.69382673804165L77.80083980560303,148.28054177555845L78.79828646977742,146.73347393400815L79.79573313395183,149.0317679388449L80.79317979812623,149.0215925428614L81.79062646230061,148.87075244452564L82.78807312647501,149.86810501864284L83.78551979064942,149.43729042851646L84.78296645482381,151.64263151653304L85.78041311899821,150.85198622384027L86.7778597831726,151.1031381833965L87.775306447347,150.65636507551454L88.77275311152141,151.50675260222977L89.7701997756958,151.19165110950706L90.7676464398702,150.89685387043826L91.7650931040446,150.45856840832312L92.762539768219,151.33649660183764L93.7599864323934,151.57834678969354L94.75743309656778,152.40687014562621L95.75487976074218,152.0012327829032L96.75232642491657,152.7983645738982L97.74977308909098,152.7504283440965L98.74721975326538,152.06922820384915L99.74466641743977,152.84228319236388L100.74211308161418,152.12258231802878L101.73955974578858,151.1685651607317L102.73700640996297,153.24744633556696L103.73445307413738,152.3871920973756L104.73189973831177,151.73546779302413L105.72934640248617,153.05048971438214L106.72679306666058,153.0808774655784L107.72423973083495,153.2893334683006L108.72168639500936,153.29777545939316L109.71913305918375,152.72769585086388L110.71657972335815,153.55883713418322L111.71402638753256,153.99905953267273L112.71147305170695,154.41349558204013L113.70891971588135,153.48541204700794L114.70636638005575,154.1766261718743L115.70381304423015,154.65393342045644L116.70125970840455,155.1890633449176L117.69870637257893,154.50416105240612L118.69615303675333,154.01695233588612L119.69359970092773,155.1929339776571L120.69104636510212,154.71011989171873L121.68849302927653,154.51108848649795L122.68593969345092,154.2182520420526L123.68338635762532,154.92470068990443L124.68083302179973,155.01688395728027L125.67827968597412,154.65075349875676L126.67572635014852,154.29767821525135L127.67317301432293,154.03676999907609L128.6706196784973,154.75860338851916L129.66806634267172,155.33816679835326L130.6655130068461,154.93992490376996L131.6629596710205,155.02078051009292L132.66040633519492,155.27357132518244L133.6578529993693,155.20195622493236L134.6552996635437,154.7604987938672L135.6527463277181,155.12858091607936L136.6501929918925,155.53746712433286L137.6476396560669,155.39824128058595L138.6450863202413,155.17866232647933L139.64253298441568,155.8043759847122L140.63997964859007,155.72020555449072L141.6374263127645,155.3760996472023L142.63487297693888,155.4502705255728L143.63231964111327,156.05577845588437L144.6297663052877,155.9493428301124L145.62721296946208,155.58112124023404L146.62465963363647,155.75107179612797L147.6221062978109,156.21315541993718L148.61955296198528,156.01018563633116L149.61699962615967,156.06272223729502L150.61444629033406,155.9698517934348L151.61189295450848,156.05811347156373L152.60933961868287,156.05547301138614L153.60678628285726,155.2505213110539L154.60423294703168,156.2405664863708L155.60167961120607,155.554217087958L156.59912627538046,155.71423141945235L157.59657293955485,155.71574892191595L158.59401960372927,156.3638716615598L159.59146626790366,156.11522953090346L160.58891293207802,155.8335868762242L161.58635959625246,155.92262630382032L162.58380626042683,156.25551191217698L163.58125292460122,156.17203322390733L164.57869958877563,155.71786346970052L165.57614625295002,156.26349750379993L166.57359291712442,156.24865782011028L167.57103958129883,156.43528750124764L168.56848624547322,155.8721945306136L169.56593290964761,155.90025168432476L170.563379573822,155.40929854814863L171.56082623799642,155.93916537230493L172.5582729021708,156.18390491194975L173.5557195663452,156.4093911390879L174.55316623051962,156.78518787034022L175.550612894694,156.26643795936943L176.5480595588684,156.62436766020832L177.54550622304282,156.52315728554353L178.5429528872172,156.4972894943735L179.5403995513916,156.96122905432847L180.53784621556602,156.4028479406257L181.5352928797404,155.11697078513853L182.5327395439148,156.56377610197126L183.5301862080892,156.0929646298993L184.5276328722636,157.07056912738648L185.525079536438,156.18823783508458L186.52252620061236,156.83627530357876L187.5199728647868,156.48083201521L188.51741952896117,156.90500355568332L189.51486619313556,157.05335864064378L190.51231285730998,156.78531555615504L191.50975952148437,156.49833984642808L192.50720618565876,157.06183082273057L193.50465284983315,156.50264272584172L194.50209951400757,156.81203208244713L195.49954617818196,156.68712487001056L196.49699284235635,156.97662859687054L197.49443950653077,156.7799957556902L198.49188617070516,156.79692701255414L199.48933283487955,156.93642214524272L200.48677949905397,157.04157075101958L201.48422616322836,156.98120746615385L202.48167282740275,156.934302295625L203.47911949157717,156.90728621576042L204.47656615575156,156.85047906183772L205.47401281992595,157.33513317842244L206.47145948410034,157.2132491890616L207.46890614827475,157.4844722688866L208.46635281244914,157.11304410086967L209.46379947662354,156.64085724491696L210.46124614079795,156.81005759142138L211.45869280497234,157.01928721996282" fill="none"></path></g><g><path style="fill: none;" stroke="rgb(204, 51, 17)" stroke-width="2px" d="M24.936166604359943,25.571254929705493L25.933613268534344,25.187892335287255L26.931059932708738,27.26890661432308L27.92850659688314,57.39396022569558L28.925953261057536,85.7821474381664L29.923399925231934,89.3672705720855L30.92084658940633,91.30032836092191L31.91829325358073,92.65803592999393L32.915739917755126,94.69129600883257L33.91318658192952,85.98997929730938L34.91063324610392,75.94673798488354L35.90807991027832,100.29876451442988L36.90552657445272,105.53668818096057L37.90297323862712,106.60415690928025L38.90041990280152,110.22271222480387L39.897866566975914,110.33488016311367L40.895313231150304,110.93453869873883L41.89275989532471,118.63217126918889L42.890206559499106,116.88921836584086L43.8876532236735,122.2700770974935L44.8850998878479,125.27665477354162L45.8825465520223,124.41897604807181L46.8799932161967,124.75456087859001L47.87743988037109,130.52427961653595L48.87488654454549,127.35999007730825L49.87233320871989,124.29641180406432L50.86977987289429,132.30007560891724L51.86722653706869,135.61056614248199L52.864673201243086,133.31709680580389L53.862119865417476,136.958395807319L54.85956652959187,136.4910121176461L55.85701319376628,138.117777114978L56.854459857940675,139.71619262141024L57.85190652211507,138.80224023897762L58.84935318628946,140.78064401757987L59.84679985046387,140.61756316470579L60.844246514638265,141.565783062009L61.84169317881266,140.3131507566887L62.83913984298706,141.39238248547144L63.83658650716146,143.39069759298255L64.83403317133586,143.9894065113828L65.83147983551025,146.54310984778834L66.82892649968466,143.8024450238547L67.82637316385905,144.6671068526643L68.82381982803345,145.94869541423262L69.82126649220784,146.76074892005778L70.81871315638224,147.09621946661716L71.81615982055663,147.05220011332182L72.81360648473104,146.8583038280447L73.81105314890544,147.3485254585205L74.80849981307983,147.86064837261083L75.80594647725424,148.09312315219503L76.80339314142863,148.17434605773616L77.80083980560303,148.69572715067653L78.79828646977742,148.68377622968325L79.79573313395183,148.28775639227877L80.79317979812623,147.00589272447968L81.79062646230061,150.27548432809905L82.78807312647501,150.57486058372433L83.78551979064942,149.3702516939063L84.78296645482381,150.2101345218907L85.78041311899821,150.44270414537888L86.7778597831726,149.81236331227183L87.775306447347,149.91746390700413L88.77275311152141,149.18578972615805L89.7701997756958,150.71696267195048L90.7676464398702,151.50811046060653L91.7650931040446,150.5705984989712L92.762539768219,151.33531547123224L93.7599864323934,150.60754049411537L94.75743309656778,152.85065184143127L95.75487976074218,152.17165667467816L96.75232642491657,151.1509518819434L97.74977308909098,151.07941071281104L98.74721975326538,152.5569974419507L99.74466641743977,153.42971864622783L100.74211308161418,153.58098789850175L101.73955974578858,152.7108872725279L102.73700640996297,153.04426889682958L103.73445307413738,152.43840014731813L104.73189973831177,153.46361414913966L105.72934640248617,153.05440128905536L106.72679306666058,153.53973345118962L107.72423973083495,153.7072224837745L108.72168639500936,153.04009988870274L109.71913305918375,154.02129748269175L110.71657972335815,154.36626096149084L111.71402638753256,154.32607012081615L112.71147305170695,153.62393009603053L113.70891971588135,153.70594032379316L114.70636638005575,154.46486415970836L115.70381304423015,154.50358874897316L116.70125970840455,152.9123310118281L117.69870637257893,153.649783896252L118.69615303675333,154.17510778577184L119.69359970092773,154.5313824310318L120.69104636510212,154.364088388088L121.68849302927653,153.9825867371024L122.68593969345092,154.46319349317622L123.68338635762532,154.87664929250505L124.68083302179973,154.93419303305157L125.67827968597412,155.0369575811925L126.67572635014852,153.97659625474517L127.67317301432293,153.59411494281358L128.6706196784973,154.4660502976006L129.66806634267172,154.5388904158526L130.6655130068461,154.83298516203018L131.6629596710205,155.2614899201846L132.66040633519492,155.31538806135381L133.6578529993693,154.9763343592297L134.6552996635437,155.55010109816254L135.6527463277181,155.41487195296537L136.6501929918925,155.33291061988615L137.6476396560669,155.17958455089965L138.6450863202413,156.05047588637723L139.64253298441568,155.95848790318877L140.63997964859007,155.65812977752032L141.6374263127645,155.12060902085867L142.63487297693888,155.5025448330693L143.63231964111327,156.28142093982703L144.6297663052877,155.90783168571238L145.62721296946208,156.14195003357042L146.62465963363647,155.8784088681479L147.6221062978109,155.39438773153097L148.61955296198528,155.79407010472417L149.61699962615967,155.3158923245948L150.61444629033406,156.01118341187373L151.61189295450848,156.44289371725472L152.60933961868287,156.1743617595684L153.60678628285726,155.61799224972333L154.60423294703168,156.58129129684644L155.60167961120607,155.4269842853232L156.59912627538046,155.8082682666037L157.59657293955485,156.1385979495668L158.59401960372927,155.3802471534503L159.59146626790366,156.14157375069053L160.58891293207802,155.73424687047316L161.58635959625246,155.91140850853196L162.58380626042683,156.34182207389046L163.58125292460122,156.3045120431624L164.57869958877563,156.39028833973313L165.57614625295002,155.86181059585985L166.57359291712442,156.7834549072687L167.57103958129883,156.3186557139791L168.56848624547322,156.4828430299752L169.56593290964761,156.63805684610628L170.563379573822,156.5562380734293L171.56082623799642,156.21669056445737L172.5582729021708,156.84229141146284L173.5557195663452,156.55779018508144L174.55316623051962,156.1070075658863L175.550612894694,156.1922862265075L176.5480595588684,156.6328981624597L177.54550622304282,156.0131975193749L178.5429528872172,156.66778761181243L179.5403995513916,156.72760318786L180.53784621556602,156.64370992569332L181.5352928797404,157.05306792345982L182.5327395439148,156.71851834949908L183.5301862080892,156.61384631961238L184.5276328722636,156.9244436841717L185.525079536438,156.7912908693785L186.52252620061236,157.12868237317625L187.5199728647868,156.96344065511414L188.51741952896117,157.18452915893462L189.51486619313556,156.611079204532L190.51231285730998,157.2323439620301L191.50975952148437,157.13781721076916L192.50720618565876,157.12876727614307L193.50465284983315,157.12746501337773L194.50209951400757,157.10760891189747L195.49954617818196,157.35068735776449L196.49699284235635,157.30066146933933L197.49443950653077,157.2995440343682L198.49188617070516,157.134245984329L199.48933283487955,156.66454038628646L200.48677949905397,157.03801462007655L201.48422616322836,156.49304964786495L202.48167282740275,156.38717719459112L203.47911949157717,157.1435137359333L204.47656615575156,157.02397654410325L205.47401281992595,156.50052096167317L206.47145948410034,156.37332306277324L207.46890614827475,157.28009632131298L208.46635281244914,156.27975174602634L209.46379947662354,157.09521639238542L210.46124614079795,157.05534483988436L211.45869280497234,156.82520036323893L212.4561394691467,157.07717712603153L213.45358613332115,156.32054228293856L214.45103279749551,156.0510608553005L215.4484794616699,156.9183169741574L216.44592612584432,156.79956364362997L217.4433727900187,156.69565301589162L218.4408194541931,156.27677476671744L219.4382661183675,157.35489833873703L220.4357127825419,156.85856877557265L221.4331594467163,157.13712900337276L222.4306061108907,156.80751138605524L223.4280527750651,157.3127144506206L224.4254994392395,157.52470942696473L225.4229461034139,157.44451750705986L226.4203927675883,157.2738113663067L227.4178394317627,157.27746602298225L228.4152860959371,156.88916698008995L229.4127327601115,156.79571083094075L230.4101794242859,157.1438751442258L231.4076260884603,157.44597602662975L232.40507275263468,157.2120941258025L233.4025194168091,156.84182647015095L234.3999660809835,157.6988565310632L235.39741274515785,157.7406869268186L236.3948594093323,157.53373819107654L237.39230607350666,157.26087850163367L238.38975273768105,157.2033679711809L239.38719940185547,157.40880288628796L240.38464606602986,157.57034410890876L241.38209273020425,156.90491290906394L242.37953939437867,157.07157846387076L243.37698605855306,157.45875727360226L244.37443272272745,157.44368151106468L245.37187938690184,157.24873340100157L246.36932605107626,157.30976471684312L247.36677271525065,157.41792903476545L248.36421937942504,157.36276250365373L249.36166604359946,157.62966087082162L250.35911270777385,157.23278673873395L251.35655937194824,157.14318804137798L252.35400603612266,157.5566343047708L253.35145270029705,157.69222463735073L254.34889936447144,157.74185447147656L255.34634602864585,157.30800789552245L256.3437926928202,157.43369160560454L257.3412393569946,157.56168706220944L258.338686021169,157.00895615626737L259.33613268534344,157.66046481591945L260.33357934951783,157.60672355746564L261.3310260136922,157.64650269606958L262.3284726778666,157.86522910436156L263.325919342041,157.86666639818975L264.3233660062154,157.82354577924843L265.32081267038984,157.63714503421156L266.31825933456423,157.48404399858728L267.3157059987386,157.53144919825428L268.313152662913,157.93714377659325L269.3105993270874,157.78500174685672L270.3080459912618,157.70225161882456L271.3054926554362,157.56313387356445L272.30293931961063,157.5630241182548L273.300385983785,157.71599481714765L274.29783264795935,157.49205168118166" fill="none"></path></g></g></g></g></g></g><g transform="translate(30, 177)" clip-path="url(#clip_1)"><clipPath id="clip_1"><rect width="299" height="22"></rect></clipPath><g><g><line x1="0" y1="0" x2="0" y2="5" style="visibility: inherit;" fill="rgb(0, 0, 0)" stroke="rgb(204, 204, 204)" stroke-width="1px"></line><line x1="24.936166604359943" y1="0" x2="24.936166604359943" y2="5" style="visibility: inherit;" fill="rgb(0, 0, 0)" stroke="rgb(204, 204, 204)" stroke-width="1px"></line><line x1="49.87233320871989" y1="0" x2="49.87233320871989" y2="5" style="visibility: inherit;" fill="rgb(0, 0, 0)" stroke="rgb(204, 204, 204)" stroke-width="1px"></line><line x1="74.80849981307983" y1="0" x2="74.80849981307983" y2="5" style="visibility: inherit;" fill="rgb(0, 0, 0)" stroke="rgb(204, 204, 204)" stroke-width="1px"></line><line x1="99.74466641743977" y1="0" x2="99.74466641743977" y2="5" style="visibility: inherit;" fill="rgb(0, 0, 0)" stroke="rgb(204, 204, 204)" stroke-width="1px"></line><line x1="124.68083302179973" y1="0" x2="124.68083302179973" y2="5" style="visibility: inherit;" fill="rgb(0, 0, 0)" stroke="rgb(204, 204, 204)" stroke-width="1px"></line><line x1="149.61699962615967" y1="0" x2="149.61699962615967" y2="5" style="visibility: inherit;" fill="rgb(0, 0, 0)" stroke="rgb(204, 204, 204)" stroke-width="1px"></line><line x1="174.55316623051962" y1="0" x2="174.55316623051962" y2="5" style="visibility: inherit;" fill="rgb(0, 0, 0)" stroke="rgb(204, 204, 204)" stroke-width="1px"></line><line x1="199.48933283487955" y1="0" x2="199.48933283487955" y2="5" style="visibility: inherit;" fill="rgb(0, 0, 0)" stroke="rgb(204, 204, 204)" stroke-width="1px"></line><line x1="224.4254994392395" y1="0" x2="224.4254994392395" y2="5" style="visibility: inherit;" fill="rgb(0, 0, 0)" stroke="rgb(204, 204, 204)" stroke-width="1px"></line><line x1="249.36166604359946" y1="0" x2="249.36166604359946" y2="5" style="visibility: inherit;" fill="rgb(0, 0, 0)" stroke="rgb(204, 204, 204)" stroke-width="1px"></line><line x1="274.29783264795935" y1="0" x2="274.29783264795935" y2="5" style="visibility: inherit;" fill="rgb(0, 0, 0)" stroke="rgb(204, 204, 204)" stroke-width="1px"></line><line x1="299.23399925231934" y1="0" x2="299.23399925231934" y2="5" style="visibility: inherit;" fill="rgb(0, 0, 0)" stroke="rgb(204, 204, 204)" stroke-width="1px"></line></g><g transform="translate(0, 8)"><text style="text-anchor: middle; visibility: hidden; font-family: Roboto, sans-serif; font-size: 12px; font-weight: 200;" x="0" y="0" dx="0em" dy="0.95em" fill="rgb(50, 49, 63)" stroke="none" stroke-width="1px">-500</text><text style="text-anchor: middle; visibility: hidden; font-family: Roboto, sans-serif; font-size: 12px; font-weight: 200;" x="24.936166604359943" y="0" dx="0em" dy="0.95em" fill="rgb(50, 49, 63)" stroke="none" stroke-width="1px">0</text><text style="text-anchor: middle; visibility: hidden; font-family: Roboto, sans-serif; font-size: 12px; font-weight: 200;" x="49.87233320871989" y="0" dx="0em" dy="0.95em" fill="rgb(50, 49, 63)" stroke="none" stroke-width="1px">500</text><text style="text-anchor: middle; visibility: hidden; font-family: Roboto, sans-serif; font-size: 12px; font-weight: 200;" x="74.80849981307983" y="0" dx="0em" dy="0.95em" fill="rgb(50, 49, 63)" stroke="none" stroke-width="1px">1k</text><text style="text-anchor: middle; visibility: hidden; font-family: Roboto, sans-serif; font-size: 12px; font-weight: 200;" x="99.74466641743977" y="0" dx="0em" dy="0.95em" fill="rgb(50, 49, 63)" stroke="none" stroke-width="1px">1.5k</text><text style="text-anchor: middle; visibility: hidden; font-family: Roboto, sans-serif; font-size: 12px; font-weight: 200;" x="124.68083302179973" y="0" dx="0em" dy="0.95em" fill="rgb(50, 49, 63)" stroke="none" stroke-width="1px">2k</text><text style="text-anchor: middle; visibility: hidden; font-family: Roboto, sans-serif; font-size: 12px; font-weight: 200;" x="149.61699962615967" y="0" dx="0em" dy="0.95em" fill="rgb(50, 49, 63)" stroke="none" stroke-width="1px">2.5k</text><text style="text-anchor: middle; visibility: hidden; font-family: Roboto, sans-serif; font-size: 12px; font-weight: 200;" x="174.55316623051962" y="0" dx="0em" dy="0.95em" fill="rgb(50, 49, 63)" stroke="none" stroke-width="1px">3k</text><text style="text-anchor: middle; visibility: hidden; font-family: Roboto, sans-serif; font-size: 12px; font-weight: 200;" x="199.48933283487955" y="0" dx="0em" dy="0.95em" fill="rgb(50, 49, 63)" stroke="none" stroke-width="1px">3.5k</text><text style="text-anchor: middle; visibility: hidden; font-family: Roboto, sans-serif; font-size: 12px; font-weight: 200;" x="224.4254994392395" y="0" dx="0em" dy="0.95em" fill="rgb(50, 49, 63)" stroke="none" stroke-width="1px">4k</text><text style="text-anchor: middle; visibility: hidden; font-family: Roboto, sans-serif; font-size: 12px; font-weight: 200;" x="249.36166604359946" y="0" dx="0em" dy="0.95em" fill="rgb(50, 49, 63)" stroke="none" stroke-width="1px">4.5k</text><text style="text-anchor: middle; visibility: hidden; font-family: Roboto, sans-serif; font-size: 12px; font-weight: 200;" x="274.29783264795935" y="0" dx="0em" dy="0.95em" fill="rgb(50, 49, 63)" stroke="none" stroke-width="1px">5k</text><text style="text-anchor: middle; visibility: hidden; font-family: Roboto, sans-serif; font-size: 12px; font-weight: 200;" x="299.23399925231934" y="0" dx="0em" dy="0.95em" fill="rgb(50, 49, 63)" stroke="none" stroke-width="1px">5.5k</text></g><line x1="0" y1="0" x2="299.23399925231934" y2="0" fill="rgb(0, 0, 0)" stroke="rgb(204, 204, 204)" stroke-width="1px"></line></g></g></g></g></svg>