<svg viewBox="0 0 330 200" xmlns="http://www.w3.org/2000/svg"><g><g><g><g><g><line x1="51.53200149536133" y1="177.89999961853027" x2="46.53200149536133" y2="177.89999961853027" style="visibility: inherit;" fill="rgb(0, 0, 0)" stroke="rgb(204, 204, 204)" stroke-width="1px"></line><line x1="51.53200149536133" y1="155.662499666214" x2="46.53200149536133" y2="155.662499666214" style="visibility: inherit;" fill="rgb(0, 0, 0)" stroke="rgb(204, 204, 204)" stroke-width="1px"></line><line x1="51.53200149536133" y1="133.4249997138977" x2="46.53200149536133" y2="133.4249997138977" style="visibility: inherit;" fill="rgb(0, 0, 0)" stroke="rgb(204, 204, 204)" stroke-width="1px"></line><line x1="51.53200149536133" y1="111.18749976158142" x2="46.53200149536133" y2="111.18749976158142" style="visibility: inherit;" fill="rgb(0, 0, 0)" stroke="rgb(204, 204, 204)" stroke-width="1px"></line><line x1="51.53200149536133" y1="88.94999980926514" x2="46.53200149536133" y2="88.94999980926514" style="visibility: inherit;" fill="rgb(0, 0, 0)" stroke="rgb(204, 204, 204)" stroke-width="1px"></line><line x1="51.53200149536133" y1="66.71249985694885" x2="46.53200149536133" y2="66.71249985694885" style="visibility: inherit;" fill="rgb(0, 0, 0)" stroke="rgb(204, 204, 204)" stroke-width="1px"></line><line x1="51.53200149536133" y1="44.47499990463257" x2="46.53200149536133" y2="44.47499990463257" style="visibility: inherit;" fill="rgb(0, 0, 0)" stroke="rgb(204, 204, 204)" stroke-width="1px"></line><line x1="51.53200149536133" y1="22.237499952316284" x2="46.53200149536133" y2="22.237499952316284" style="visibility: inherit;" fill="rgb(0, 0, 0)" stroke="rgb(204, 204, 204)" stroke-width="1px"></line><line x1="51.53200149536133" y1="0" x2="46.53200149536133" y2="0" style="visibility: inherit;" fill="rgb(0, 0, 0)" stroke="rgb(204, 204, 204)" stroke-width="1px"></line></g><g transform="translate(41.53200149536133, 0)"><text style="text-anchor: end; visibility: hidden; font-family: Roboto, sans-serif; font-size: 12px; font-weight: 200;" x="0" y="177.89999961853027" dx="0em" dy="0.3em" fill="rgb(50, 49, 63)" stroke="none" stroke-width="1px">-0.5</text><text style="text-anchor: end; visibility: inherit; font-family: Roboto, sans-serif; font-size: 12px; font-weight: 200;" x="0" y="155.662499666214" dx="0em" dy="0.3em" fill="rgb(50, 49, 63)" stroke="none" stroke-width="1px">0</text><text style="text-anchor: end; visibility: hidden; font-family: Roboto, sans-serif; font-size: 12px; font-weight: 200;" x="0" y="133.4249997138977" dx="0em" dy="0.3em" fill="rgb(50, 49, 63)" stroke="none" stroke-width="1px">0.5</text><text style="text-anchor: end; visibility: inherit; font-family: Roboto, sans-serif; font-size: 12px; font-weight: 200;" x="0" y="111.18749976158142" dx="0em" dy="0.3em" fill="rgb(50, 49, 63)" stroke="none" stroke-width="1px">1</text><text style="text-anchor: end; visibility: hidden; font-family: Roboto, sans-serif; font-size: 12px; font-weight: 200;" x="0" y="88.94999980926514" dx="0em" dy="0.3em" fill="rgb(50, 49, 63)" stroke="none" stroke-width="1px">1.5</text><text style="text-anchor: end; visibility: inherit; font-family: Roboto, sans-serif; font-size: 12px; font-weight: 200;" x="0" y="66.71249985694885" dx="0em" dy="0.3em" fill="rgb(50, 49, 63)" stroke="none" stroke-width="1px">2</text><text style="text-anchor: end; visibility: hidden; font-family: Roboto, sans-serif; font-size: 12px; font-weight: 200;" x="0" y="44.47499990463257" dx="0em" dy="0.3em" fill="rgb(50, 49, 63)" stroke="none" stroke-width="1px">2.5</text><text style="text-anchor: end; visibility: inherit; font-family: Roboto, sans-serif; font-size: 12px; font-weight: 200;" x="0" y="22.237499952316284" dx="0em" dy="0.3em" fill="rgb(50, 49, 63)" stroke="none" stroke-width="1px">3</text><text style="text-anchor: end; visibility: hidden; font-family: Roboto, sans-serif; font-size: 12px; font-weight: 200;" x="0" y="0" dx="0em" dy="0.3em" fill="rgb(50, 49, 63)" stroke="none" stroke-width="1px">3.5</text></g><line x1="51.53200149536133" y1="0" x2="51.53200149536133" y2="177.89999961853027" fill="rgb(0, 0, 0)" stroke="rgb(204, 204, 204)" stroke-width="1px"></line></g></g><g transform="translate(51, 0)" clip-path="url(#clip_0)"><clipPath id="clip_0"><rect width="278" height="177"></rect></clipPath><g><g><g><line x1="0" y1="0" x2="0" y2="177.89999961853027" fill="rgb(0, 0, 0)" stroke="rgb(60, 60, 60)" stroke-width="1px" opacity="0.25"></line><line x1="23.205666542053223" y1="0" x2="23.205666542053223" y2="177.89999961853027" fill="rgb(0, 0, 0)" stroke="rgb(60, 60, 60)" stroke-width="1px" opacity="0.25"></line><line x1="46.411333084106445" y1="0" x2="46.411333084106445" y2="177.89999961853027" fill="rgb(0, 0, 0)" stroke="rgb(60, 60, 60)" stroke-width="1px" opacity="0.25"></line><line x1="69.61699962615967" y1="0" x2="69.61699962615967" y2="177.89999961853027" fill="rgb(0, 0, 0)" stroke="rgb(60, 60, 60)" stroke-width="1px" opacity="0.25"></line><line x1="92.82266616821289" y1="0" x2="92.82266616821289" y2="177.89999961853027" fill="rgb(0, 0, 0)" stroke="rgb(60, 60, 60)" stroke-width="1px" opacity="0.25"></line><line x1="116.02833271026611" y1="0" x2="116.02833271026611" y2="177.89999961853027" fill="rgb(0, 0, 0)" stroke="rgb(60, 60, 60)" stroke-width="1px" opacity="0.25"></line><line x1="139.23399925231934" y1="0" x2="139.23399925231934" y2="177.89999961853027" fill="rgb(0, 0, 0)" stroke="rgb(60, 60, 60)" stroke-width="1px" opacity="0.25"></line><line x1="162.43966579437256" y1="0" x2="162.43966579437256" y2="177.89999961853027" fill="rgb(0, 0, 0)" stroke="rgb(60, 60, 60)" stroke-width="1px" opacity="0.25"></line><line x1="185.64533233642578" y1="0" x2="185.64533233642578" y2="177.89999961853027" fill="rgb(0, 0, 0)" stroke="rgb(60, 60, 60)" stroke-width="1px" opacity="0.25"></line><line x1="208.850998878479" y1="0" x2="208.850998878479" y2="177.89999961853027" fill="rgb(0, 0, 0)" stroke="rgb(60, 60, 60)" stroke-width="1px" opacity="0.25"></line><line x1="232.05666542053223" y1="0" x2="232.05666542053223" y2="177.89999961853027" fill="rgb(0, 0, 0)" stroke="rgb(60, 60, 60)" stroke-width="1px" opacity="0.25"></line><line x1="255.26233196258545" y1="0" x2="255.26233196258545" y2="177.89999961853027" fill="rgb(0, 0, 0)" stroke="rgb(60, 60, 60)" stroke-width="1px" opacity="0.25"></line><line x1="278.4679985046387" y1="0" x2="278.4679985046387" y2="177.89999961853027" fill="rgb(0, 0, 0)" stroke="rgb(60, 60, 60)" stroke-width="1px" opacity="0.25"></line></g><g><line x1="0" y1="177.89999961853027" x2="278.4679985046387" y2="177.89999961853027" fill="rgb(0, 0, 0)" stroke="rgb(60, 60, 60)" stroke-width="1px" opacity="0.25"></line><line x1="0" y1="155.662499666214" x2="278.4679985046387" y2="155.662499666214" fill="rgb(0, 0, 0)" stroke="rgb(60, 60, 60)" stroke-width="1px" opacity="0.25"></line><line x1="0" y1="133.4249997138977" x2="278.4679985046387" y2="133.4249997138977" fill="rgb(0, 0, 0)" stroke="rgb(60, 60, 60)" stroke-width="1px" opacity="0.25"></line><line x1="0" y1="111.18749976158142" x2="278.4679985046387" y2="111.18749976158142" fill="rgb(0, 0, 0)" stroke="rgb(60, 60, 60)" stroke-width="1px" opacity="0.25"></line><line x1="0" y1="88.94999980926514" x2="278.4679985046387" y2="88.94999980926514" fill="rgb(0, 0, 0)" stroke="rgb(60, 60, 60)" stroke-width="1px" opacity="0.25"></line><line x1="0" y1="66.71249985694885" x2="278.4679985046387" y2="66.71249985694885" fill="rgb(0, 0, 0)" stroke="rgb(60, 60, 60)" stroke-width="1px" opacity="0.25"></line><line x1="0" y1="44.47499990463257" x2="278.4679985046387" y2="44.47499990463257" fill="rgb(0, 0, 0)" stroke="rgb(60, 60, 60)" stroke-width="1px" opacity="0.25"></line><line x1="0" y1="22.237499952316284" x2="278.4679985046387" y2="22.237499952316284" fill="rgb(0, 0, 0)" stroke="rgb(60, 60, 60)" stroke-width="1px" opacity="0.25"></line><line x1="0" y1="0" x2="278.4679985046387" y2="0" fill="rgb(0, 0, 0)" stroke="rgb(60, 60, 60)" stroke-width="1px" opacity="0.25"></line></g></g></g><g><g><line x1="0" y1="155.662499666214" x2="278.4679985046387" y2="155.662499666214" fill="rgb(0, 0, 0)" stroke="rgb(153, 153, 153)" stroke-width="1.5px"></line></g></g><g><g><line x1="23.205666542053223" y1="0" x2="23.205666542053223" y2="177.89999961853027" fill="rgb(0, 0, 0)" stroke="rgb(153, 153, 153)" stroke-width="1.5px"></line></g></g><g><g><g><g><g><path style="fill: none;" stroke="rgb(0, 153, 136)" stroke-width="2px" d="M23.205666542053223,23.486187693779378L24.13389320373535,25.945999688898667L25.06211986541748,26.626844329812716L25.99034652709961,26.1826407737144L26.91857318878174,28.06672126376617L27.846799850463867,30.594175175383597L28.775026512145995,32.095256051544716L29.703253173828127,35.27757105989255L30.631479835510255,40.95085763374114L31.55970649719238,48.68528834636796L32.48793315887451,57.68683758806886L33.416159820556636,68.54376438869038L34.34438648223877,79.32507093334729L35.2726131439209,88.83261415461315L36.20083980560303,94.9419611760824L37.129066467285156,102.3252522580123L38.05729312896728,108.10978701723111L38.98551979064942,111.85826840419362L39.913746452331544,115.74902911585563L40.84197311401367,118.68869379364375L41.7701997756958,121.51714539507853L42.698426437377925,124.3416899249895L43.626653099060064,126.96931607835188L44.55487976074219,129.67135165991016L45.483106422424314,129.46962716195335L46.411333084106445,130.5346329533575L47.33955974578858,132.283204040973L48.2677864074707,134.32608146850848L49.19601306915283,134.72601131399514L50.12423973083496,136.2617851497069L51.05246639251708,137.66215010026164L51.98069305419922,139.07613019884056L52.908919715881346,140.17041880935662L53.83714637756348,141.01069145271987L54.7653730392456,140.69182653202586L55.693599700927734,141.16389256939496L56.621826362609866,141.08031955870905L57.55005302429199,142.2984336252924L58.478279685974115,142.56044929257595L59.406506347656254,142.68708355098846L60.33473300933838,142.75556678367636L61.26295967102051,143.99930520193743L62.191186332702635,144.7168051594016L63.11941299438476,145.5925870127717L64.04763965606689,145.86252711894548L64.97586631774902,146.3653428542139L65.90409297943116,146.2401127852938L66.83231964111327,145.9103263726992L67.76054630279542,146.15135140644793L68.68877296447754,146.62909014627175L69.61699962615967,146.2383499806822L70.5452262878418,146.03677565625648L71.47345294952392,146.10010236953931L72.40167961120606,146.4058770236154L73.32990627288818,145.91822808936365L74.25813293457031,146.4285377360808L75.18635959625244,146.61563454336374L76.11458625793456,146.2699170998792L77.04281291961671,147.16146969393776L77.97103958129884,147.26252255414627L78.89926624298096,147.8898852409886L79.82749290466309,147.6992882343037L80.7557195663452,148.5252096077372L81.68394622802734,148.48967595038138L82.61217288970948,148.86315676084243L83.5403995513916,148.63996669781096L84.46862621307373,148.823551347115L85.39685287475585,148.16640281824098L86.32507953643798,148.50105452168663L87.25330619812013,148.46915073809444L88.18153285980225,148.60808103250005L89.10975952148438,148.5558188475697L90.0379861831665,148.8772447185654L90.96621284484863,149.532805932L91.89443950653077,149.04366380006977L92.82266616821289,149.6072421159185L93.75089282989502,149.37394268431458L94.67911949157715,148.96939890067972L95.60734615325927,149.48866627198478L96.5355728149414,149.38256776412493L97.46379947662354,149.20901968462044L98.39202613830567,149.24404380991362L99.3202527999878,149.2416960224436L100.24847946166992,149.42574520815617L101.17670612335205,149.70988026934543L102.10493278503417,149.61443567063571L103.03315944671631,149.80159985491127L103.96138610839844,150.37159196835356L104.88961277008056,150.35678274657303L105.81783943176269,150.4985331618099L106.74606609344484,150.67519656926473L107.67429275512696,150.77883834654372L108.60251941680909,151.26690654712297L109.5307460784912,151.31718687815558L110.45897274017334,150.69913784668287L111.38719940185547,150.7698111600831L112.3154260635376,150.95893224646196L113.24365272521973,151.05412510543852L114.17187938690185,151.11553663112727L115.10010604858398,151.2789866828532L116.02833271026611,151.19267393490944L116.95655937194823,150.7461742195196L117.88478603363038,150.39789594894543L118.81301269531251,150.15032236312356L119.74123935699463,150.66905089276207L120.66946601867676,151.11075048374732L121.59769268035888,151.03935699639192L122.52591934204102,151.21683486888645L123.45414600372315,151.5013623185588L124.38237266540527,151.11045653151425L125.3105993270874,151.08234868067268L126.23882598876952,150.81313460632387L127.16705265045167,150.90229830506428L128.09527931213378,151.378263952519L129.0235059738159,151.4281590967155L129.95173263549805,151.56467535613763L130.87995929718016,151.75973193049904L131.8081859588623,151.82883730351764L132.73641262054443,152.00249988106805L133.66463928222655,151.7502778508385L134.5928659439087,151.92315676603903L135.52109260559084,151.93272925803862L136.44931926727295,151.78260243761855L137.37754592895507,151.93399767306252L138.3057725906372,152.00063738041737L139.23399925231934,152.32672654501053L140.16222591400145,152.15197807500863L141.0904525756836,152.18766004498264L142.01867923736572,152.34120416343364L142.94690589904783,151.9195575543033L143.87513256073,152.1677005804462L144.80335922241213,151.7722706481158L145.73158588409424,151.76882816935742L146.65981254577636,151.76283495156542L147.5880392074585,151.8768852402938L148.51626586914062,152.13203351746316L149.44449253082274,152.24649292985902L150.3727191925049,152.2436598377102L151.300945854187,152.51006427362782L152.22917251586912,152.53572323784013L153.15739917755127,152.43897702522295L154.08562583923342,152.40183376300007L155.01385250091553,152.47173899633725L155.94207916259768,152.66201735415305L156.8703058242798,152.70155669336492L157.7985324859619,152.7953356051956L158.72675914764403,152.35989245661725L159.65498580932618,152.35680224829906L160.5832124710083,152.52936252816087L161.5114391326904,152.44339606937976L162.43966579437256,152.44428976216983L163.36789245605468,152.4463407115724L164.2961191177368,152.32299808426527L165.22434577941897,152.6338178486083L166.15257244110109,152.7035608230697L167.0807991027832,152.8244558795182L168.00902576446535,152.65960399721018L168.93725242614747,152.23173824474213L169.86547908782958,152.67796545514113L170.7937057495117,152.71090764861566L171.72193241119385,152.75119397496584L172.65015907287597,152.54087921060625L173.57838573455808,152.4950231975657L174.50661239624026,152.5064804491556L175.43483905792237,152.47749770729925L176.3630657196045,152.7955258849597L177.29129238128664,152.70509260507498L178.21951904296876,152.68183735971758L179.14774570465087,152.8807002587094L180.075972366333,152.75647093646072L181.00419902801514,152.81705321163673L181.93242568969725,152.83912129390097L182.86065235137937,152.66969357948062L183.78887901306155,152.8089222934165L184.71710567474366,152.7056609625278L185.64533233642578,152.72835800358L186.57355899810793,152.86518055811584L187.50178565979004,152.94229109668646L188.43001232147216,152.84820636508883L189.3582389831543,152.82209341064032L190.28646564483643,153.05093484978437L191.21469230651854,153.2138207930864L192.14291896820066,153.3335232881514L193.0711456298828,153.41729617745776L193.99937229156492,153.44143473059984L194.92759895324707,153.30924993864875L195.85582561492922,153.19709089352142L196.78405227661133,153.11967015805737" fill="none"></path></g><g><path style="fill: none;" stroke="rgb(204, 51, 17)" stroke-width="2px" d="M23.205666542053223,25.27768771592548L24.13389320373535,24.966695438433675L25.06211986541748,25.60144253369507L25.99034652709961,25.19900344417836L26.91857318878174,24.676231465183125L27.846799850463867,27.899657466458322L28.775026512145995,31.24479057214536L29.703253173828127,32.59917460679268L30.631479835510255,36.31421325286582L31.55970649719238,42.66016866830731L32.48793315887451,48.97857867604206L33.416159820556636,57.852097738287746L34.34438648223877,70.3071673480705L35.2726131439209,80.59290832918298L36.20083980560303,90.34640436789486L37.129066467285156,95.7252541890105L38.05729312896728,102.18284778108227L38.98551979064942,107.68396293199719L39.913746452331544,110.33402541977343L40.84197311401367,115.29564152999309L41.7701997756958,120.03795094721004L42.698426437377925,122.57858237971952L43.626653099060064,124.89133395345925L44.55487976074219,127.81077443380828L45.483106422424314,128.0244601951525L46.411333084106445,127.59646242206017L47.33955974578858,131.03261322367015L48.2677864074707,133.79927868682472L49.19601306915283,133.77255901302314L50.12423973083496,135.93472063018226L51.05246639251708,137.0506866243211L51.98069305419922,138.63424921405456L52.908919715881346,139.55535225701647L53.83714637756348,139.55624431105923L54.7653730392456,139.7426358376187L55.693599700927734,139.96732981438217L56.621826362609866,140.64054311633186L57.55005302429199,140.86325231665595L58.478279685974115,141.61642513998996L59.406506347656254,142.18036133899386L60.33473300933838,142.84846314784133L61.26295967102051,144.69322600141453L62.191186332702635,144.18526674963184L63.11941299438476,144.03174401527346L64.04763965606689,143.96799730271817L64.97586631774902,144.13398702165838L65.90409297943116,145.05328189972266L66.83231964111327,145.20638285601376L67.76054630279542,145.6476822153993L68.68877296447754,145.72925274535766L69.61699962615967,146.19206013472697L70.5452262878418,146.30808769949044L71.47345294952392,145.86920409629724L72.40167961120606,146.16301839550493L73.32990627288818,146.2678483377662L74.25813293457031,146.42228934469233L75.18635959625244,145.72188666095752L76.11458625793456,146.55037388138683L77.04281291961671,147.17872555236764L77.97103958129884,147.06354856293206L78.89926624298096,147.11849943276306L79.82749290466309,147.34839912413267L80.7557195663452,147.5405326867759L81.68394622802734,147.34699641919124L82.61217288970948,147.458451339677L83.5403995513916,147.54160781209563L84.46862621307373,147.5689906422117L85.39685287475585,147.6945588405888L86.32507953643798,147.88961038029808L87.25330619812013,147.93796665944308L88.18153285980225,148.80107356476017L89.10975952148438,148.8719282266742L90.0379861831665,148.51346974553817L90.96621284484863,148.53671603293742L91.89443950653077,148.9492903479547L92.82266616821289,149.1342942481374L93.75089282989502,149.5172965339004L94.67911949157715,149.5280399447216L95.60734615325927,149.62309764923987L96.5355728149414,149.1895168036365L97.46379947662354,148.9946391640783L98.39202613830567,148.8145812673038L99.3202527999878,149.17400279511676L100.24847946166992,149.64550415297595L101.17670612335205,149.58370628600318L102.10493278503417,149.9423945646924L103.03315944671631,150.16775590326773L103.96138610839844,150.37638043008465L104.88961277008056,150.09796820851003L105.81783943176269,150.13480591757192L106.74606609344484,149.9954720978657L107.67429275512696,150.50561946044363L108.60251941680909,150.03186216904228L109.5307460784912,150.09809594513436L110.45897274017334,150.1639286524117L111.38719940185547,150.40518397004936L112.3154260635376,150.22762984339562L113.24365272521973,150.3909275378436L114.17187938690185,150.32838997505658L115.10010604858398,150.6565021303272L116.02833271026611,150.82423532019425L116.95655937194823,151.09050171798953L117.88478603363038,150.78331691768713L118.81301269531251,150.67019176290788L119.74123935699463,150.91064968057424L120.66946601867676,150.89796339593119L121.59769268035888,150.83258894834475L122.52591934204102,150.8960593297377L123.45414600372315,150.83263080560664L124.38237266540527,150.59378266639678L125.3105993270874,151.22095088756643L126.23882598876952,151.58420281599476L127.16705265045167,151.4180168102662L128.09527931213378,151.62625940138503L129.0235059738159,151.94000469222578L129.95173263549805,151.88716505448278L130.87995929718016,151.9343194125239L131.8081859588623,151.8533161951427L132.73641262054443,152.11597998425003L133.66463928222655,152.17351755611173L134.5928659439087,152.05750249992832L135.52109260559084,152.05567766802278L136.44931926727295,151.82247593651525L137.37754592895507,151.72868932887397L138.3057725906372,151.80138975728693L139.23399925231934,151.60086802073954L140.16222591400145,151.51979238788653L141.0904525756836,151.85416985817977L142.01867923736572,152.07832667111225L142.94690589904783,151.69916312608743L143.87513256073,152.39526507572697L144.80335922241213,151.82910370656967L145.73158588409424,152.07257910545562L146.65981254577636,152.0101425846067L147.5880392074585,151.7248134779912L148.51626586914062,151.90553446699047L149.44449253082274,152.00101415184227L150.3727191925049,152.14292067769424L151.300945854187,152.2433911324506L152.22917251586912,152.32808953983303L153.15739917755127,152.33089346023817L154.08562583923342,152.1417551500641L155.01385250091553,152.57624140519357L155.94207916259768,152.36261274157124L156.8703058242798,152.64778686715914L157.7985324859619,152.63991192677858L158.72675914764403,152.3584347187606L159.65498580932618,152.48826719281092L160.5832124710083,152.7679493435885L161.5114391326904,152.66150971705602L162.43966579437256,152.4199967553384L163.36789245605468,152.63532030800465L164.2961191177368,152.85268975676237L165.22434577941897,152.6675131809836L166.15257244110109,152.81228536695335L167.0807991027832,152.98193567639865L168.00902576446535,152.96517912630313L168.93725242614747,153.06493908382257L169.86547908782958,153.0485993657051L170.7937057495117,152.89212164643595L171.72193241119385,152.94268770027853L172.65015907287597,152.7417182935618L173.57838573455808,152.8047932099166L174.50661239624026,152.85363091429193L175.43483905792237,152.93625612728056L176.3630657196045,152.98500582592652L177.29129238128664,153.2524761538195L178.21951904296876,153.12357362775833L179.14774570465087,153.05536531498265L180.075972366333,153.0651844374053L181.00419902801514,153.0368604644079L181.93242568969725,153.20205708176817L182.86065235137937,153.20786703036217L183.78887901306155,153.39946137664637L184.71710567474366,153.42213434303056L185.64533233642578,153.26891355724192L186.57355899810793,153.25116791382064L187.50178565979004,153.02695102479925L188.43001232147216,152.94552590777232L189.3582389831543,153.04673849562147L190.28646564483643,153.18075269138836L191.21469230651854,152.8530602904471L192.14291896820066,152.95721777772118L193.0711456298828,153.2097922664129L193.99937229156492,153.10657877416915L194.92759895324707,153.1745029773034L195.85582561492922,153.08358574411517L196.78405227661133,153.0811070270359L197.71227893829345,153.0888634103246L198.6405055999756,153.0150648886649L199.56873226165771,152.74912010840194L200.49695892333983,152.76504974924103L201.42518558502198,152.8387191557319L202.3534122467041,153.07425673395198L203.2816389083862,153.03342698310726L204.20986557006833,153.2214259421787L205.1380922317505,153.17715440188687L206.06631889343262,153.19867333856072L206.99454555511474,153.2078555236792L207.9227722167969,153.4101678205925L208.850998878479,153.41771158661174L209.77922554016112,153.55642021810326L210.70745220184327,153.52692378530793L211.63567886352538,153.7107129485076L212.5639055252075,153.20496618863618L213.49213218688968,153.2856603985133L214.4203588485718,153.32233144211685L215.3485855102539,153.51070777926236L216.27681217193603,153.63390103951076L217.20503883361818,153.42040230151238L218.1332654953003,153.6408523292664L219.0614921569824,153.72848163987027L219.98971881866456,153.74453867527757L220.91794548034667,153.66791551750288L221.8461721420288,153.6483552230027L222.77439880371094,153.64981689954146L223.70262546539308,153.7325555346263L224.6308521270752,153.41416567223987L225.55907878875735,153.52130413349101L226.48730545043946,153.55452052249342L227.41553211212158,153.7147094901028L228.3437587738037,153.63338734874588L229.27198543548585,153.6074946694569L230.20021209716796,153.73754892422343L231.12843875885008,153.75997889965038L232.05666542053223,153.73454694472065L232.98489208221434,153.74245439676585L233.91311874389646,153.60223402550747L234.84134540557864,153.75894406794623L235.76957206726075,153.97082281921396L236.69779872894287,153.9473652180863L237.62602539062502,153.88157730595054L238.55425205230713,153.8363196622556L239.48247871398925,153.85211595531916L240.41070537567137,153.61330113121448L241.33893203735352,153.87743196900377L242.26715869903563,154.0973386039567L243.19538536071775,154.01972922056447L244.12361202239993,154.18857786633927L245.05183868408204,154.30533036592428L245.98006534576416,154.22075357074172L246.9082920074463,154.2629161880094L247.83651866912842,154.2172291381262L248.76474533081054,154.24209543506834L249.69297199249266,154.2733015830961L250.6211986541748,154.19126724670613L251.54942531585692,154.21006830252844L252.47765197753904,154.12511443485144L253.4058786392212,154.08646503247L254.33410530090333,154.072264914224L255.26233196258545,153.89691881965317" fill="none"></path></g></g></g></g><g opacity="0.2"><g><g><g><path style="fill: none;" stroke="rgb(0, 153, 136)" stroke-width="2px" d="M23.205666542053223,23.486187693779357L24.13389320373535,27.421886885970252L25.06211986541748,27.280455185090204L25.99034652709961,25.66025739174279L26.91857318878174,30.52657675157775L27.846799850463867,34.09055381855865L28.775026512145995,34.24182572174914L29.703253173828127,39.91741689228775L30.631479835510255,49.31785335098368L31.55970649719238,60.17001655312583L32.48793315887451,71.107518061512L33.416159820556636,84.77007167341554L34.34438648223877,95.46182791386457L35.2726131439209,103.07530271958342L36.20083980560303,104.09880040019857L37.129066467285156,113.39498161200197L38.05729312896728,116.78414133481141L38.98551979064942,117.48003874561931L39.913746452331544,121.58457746511473L40.84197311401367,123.09792211333033L41.7701997756958,125.7596676782228L42.698426437377925,128.57841377701504L43.626653099060064,130.91070343050077L44.55487976074219,133.72437302406013L45.483106422424314,129.16704184878952L46.411333084106445,132.13213709870047L47.33955974578858,134.90605619828216L48.2677864074707,137.3903944735136L49.19601306915283,135.32590571383324L50.12423973083496,138.56544505447573L51.05246639251708,139.7626970617175L51.98069305419922,141.19710006537417L52.908919715881346,141.8118515944946L53.83714637756348,142.27110035757775L54.7653730392456,140.21352916468862L55.693599700927734,141.87199161327584L56.621826362609866,140.9549600439732L57.55005302429199,144.12560471385973L58.478279685974115,142.95347279204194L59.406506347656254,142.87703493818407L60.33473300933838,142.8582916325709L61.26295967102051,145.86491282783274L62.191186332702635,145.7930550950799L63.11941299438476,146.90625979244757L64.04763965606689,146.26743727813601L64.97586631774902,147.1195664570382L65.90409297943116,146.05226768192534L66.83231964111327,145.41564675382574L67.76054630279542,146.51288895706296L68.68877296447754,147.34569825599783L69.61699962615967,145.65223973230252L70.5452262878418,145.7344141696194L71.47345294952392,146.19509243946328L72.40167961120606,146.86453900472873L73.32990627288818,145.18675468798682L74.25813293457031,147.19400220615603L75.18635959625244,146.89627975428803L76.11458625793456,145.7513409346525L77.04281291961671,148.49879858502544L77.97103958129884,147.41410184445908L78.89926624298096,148.83092927125202L79.82749290466309,147.4133927242764L80.7557195663452,149.76409166788739L81.68394622802734,148.4363754643477L82.61217288970948,149.42337797653403L83.5403995513916,148.3051816032637L84.46862621307373,149.09892832107104L85.39685287475585,147.18068002492998L86.32507953643798,149.00303207685508L87.25330619812013,148.42129506270612L88.18153285980225,148.81647647410855L89.10975952148438,148.47742557017415L90.0379861831665,149.359383525059L90.96621284484863,150.51614775215188L91.89443950653077,148.3099506021744L92.82266616821289,150.45260958969158L93.75089282989502,149.02399353690873L94.67911949157715,148.36258322522738L95.60734615325927,150.26756732894236L96.5355728149414,149.22342000233516L97.46379947662354,148.9486975653637L98.39202613830567,149.29657999785337L99.3202527999878,149.23817434123856L100.24847946166992,149.70181898672504L101.17670612335205,150.1360828611293L102.10493278503417,149.47126877257116L103.03315944671631,150.0823461313246L103.96138610839844,151.22658013851694L104.88961277008056,150.33456891390227L105.81783943176269,150.7111587846652L106.74606609344484,150.94019168044693L107.67429275512696,150.93430101246227L108.60251941680909,151.99900884799183L109.5307460784912,151.3926073747045L110.45897274017334,149.77206429947375L111.38719940185547,150.87582113018345L112.3154260635376,151.24261387603025L113.24365272521973,151.19691439390334L114.17187938690185,151.2076539196604L115.10010604858398,151.52416176044213L116.02833271026611,151.06320481299375L116.95655937194823,150.07642464643482L117.88478603363038,149.87547854308423L118.81301269531251,149.77896198439072L119.74123935699463,151.44714368721984L120.66946601867676,151.7732998702252L121.59769268035888,150.93226676535883L122.52591934204102,151.48305167762825L123.45414600372315,151.92815349306727L124.38237266540527,150.5240978509474L125.3105993270874,151.04018690441035L126.23882598876952,150.4093134948006L127.16705265045167,151.03604385317493L128.09527931213378,152.0922124237011L129.0235059738159,151.50300181301023L129.95173263549805,151.76944974527083L130.87995929718016,152.0523167920412L131.8081859588623,151.93249536304552L132.73641262054443,152.26299374739366L133.66463928222655,151.3719448054942L134.5928659439087,152.18247513883978L135.52109260559084,151.94708799603808L136.44931926727295,151.55741220698843L137.37754592895507,152.1610905262285L138.3057725906372,152.10059694144968L139.23399925231934,152.81586029190026L140.16222591400145,151.8898553700058L141.0904525756836,152.24118299994365L142.01867923736572,152.57152034111016L142.94690589904783,151.28708764060775L143.87513256073,152.53991511966055L144.80335922241213,151.17912574962023L145.73158588409424,151.76366445121982L146.65981254577636,151.7538451248774L147.5880392074585,152.0479606733864L148.51626586914062,152.51475593321717L149.44449253082274,152.41818204845282L150.3727191925049,152.239410199487L151.300945854187,152.90967092750424L152.22917251586912,152.57421168415857L153.15739917755127,152.29385770629722L154.08562583923342,152.34611886966573L155.01385250091553,152.57659684634305L155.94207916259768,152.9474348908767L156.8703058242798,152.76086570218277L157.7985324859619,152.93600397294156L158.72675914764403,151.70672773374974L159.65498580932618,152.35216693582177L160.5832124710083,152.78820294795355L161.5114391326904,152.31444638120814L162.43966579437256,152.44563030135498L163.36789245605468,152.44941713567624L164.2961191177368,152.13798414330455L165.22434577941897,153.10004749512285L166.15257244110109,152.8081752847618L167.0807991027832,153.005798464191L168.00902576446535,152.4123261737481L168.93725242614747,151.58993961604008L169.86547908782958,153.34730627073958L170.7937057495117,152.7603209388275L171.72193241119385,152.81162346449113L172.65015907287597,152.22540706406684L173.57838573455808,152.4262391780049L174.50661239624026,152.52366632654042L175.43483905792237,152.43402359451474L176.3630657196045,153.27256815145037L177.29129238128664,152.56944268524788L178.21951904296876,152.64695449168147L179.14774570465087,153.17899460719718L180.075972366333,152.57012695308768L181.00419902801514,152.90792662440072L181.93242568969725,152.87222341729736L182.86065235137937,152.4155520078501L183.78887901306155,153.01776536432027L184.71710567474366,152.5507689661947L185.64533233642578,152.76240356515837L186.57355899810793,153.07041438991953L187.50178565979004,153.05795690454238L188.43001232147216,152.7070792676924L189.3582389831543,152.78292397896757L190.28646564483643,153.3941970085004L191.21469230651854,153.45814970803943L192.14291896820066,153.51307703074895L193.0711456298828,153.54295551141732L193.99937229156492,153.47764256031294L194.92759895324707,153.11097275072214L195.85582561492922,153.02885232583037L196.78405227661133,153.00353905486133" fill="none"></path></g><g><path style="fill: none;" stroke="rgb(204, 51, 17)" stroke-width="2px" d="M23.205666542053223,25.27768771592548L24.13389320373535,24.78010007193859L25.06211986541748,26.210799745146005L25.99034652709961,24.725735074906652L26.91857318878174,23.99370036940695L27.846799850463867,32.35881605958241L28.775026512145995,36.028384435407474L29.703253173828127,34.573879531395164L30.631479835510255,41.79317364671704L31.55970649719238,52.08317287721002L32.48793315887451,58.39888617390898L33.416159820556636,71.1140870327742L34.34438648223877,88.94910379946424L35.2726131439209,96.00136896349937L36.20083980560303,104.9651835575014L37.129066467285156,103.78973533905366L38.05729312896728,111.86650553200082L38.98551979064942,115.93423892582862L39.913746452331544,114.30871544109067L40.84197311401367,122.7376121839572L41.7701997756958,127.1511549935164L42.698426437377925,126.38944592792427L43.626653099060064,128.36041565282343L44.55487976074219,132.18990057077605L45.483106422424314,128.34498731838195L46.411333084106445,126.95446758763666L47.33955974578858,136.186830633917L48.2677864074707,137.9492726340734L49.19601306915283,133.73247952693333L50.12423973083496,139.1779618609271L51.05246639251708,138.7246352454629L51.98069305419922,141.00959278357877L52.908919715881346,140.9370067114981L53.83714637756348,139.5575823920595L54.7653730392456,140.0222231194474L55.693599700927734,140.3043707737334L56.621826362609866,141.65036305884064L57.55005302429199,141.19731611507467L58.478279685974115,142.74618437079596L59.406506347656254,143.02626563561512L60.33473300933838,143.85061585977292L61.26295967102051,147.46037027955495L62.191186332702635,143.42332787232442L63.11941299438476,143.80145991380238L64.04763965606689,143.87237723390177L64.97586631774902,144.38297160004282L65.90409297943116,146.43222421673306L66.83231964111327,145.43603429044185L67.76054630279542,146.30963125446272L68.68877296447754,145.85160854029354L69.61699962615967,146.88627121877533L70.5452262878418,146.4821290466348L71.47345294952392,145.21087869150935L72.40167961120606,146.60373984431573L73.32990627288818,146.42509325115788L74.25813293457031,146.65395085508138L75.18635959625244,144.6712826353557L76.11458625793456,147.7931047120305L77.04281291961671,148.12125305883876L77.97103958129884,146.89078307877867L78.89926624298096,147.20092573750958L79.82749290466309,147.69324866118706L80.7557195663452,147.82873303074072L81.68394622802734,147.0566920178143L82.61217288970948,147.6256337204056L83.5403995513916,147.66634252072356L84.46862621307373,147.61006488738587L85.39685287475585,147.88291113815444L86.32507953643798,148.18218768986202L87.25330619812013,148.01050107816056L88.18153285980225,150.0957339227358L89.10975952148438,148.9782102195453L90.0379861831665,147.97578202383409L90.96621284484863,148.57158546403633L91.89443950653077,149.56815182048058L92.82266616821289,149.41180009841148L93.75089282989502,150.09179996254488L94.67911949157715,149.54415506095344L95.60734615325927,149.76568420601723L96.5355728149414,148.5391455352315L97.46379947662354,148.70232270474102L98.39202613830567,148.54449442214204L99.3202527999878,149.71313508683622L100.24847946166992,150.3527561897647L101.17670612335205,149.49100948554403L102.10493278503417,150.48042698272624L103.03315944671631,150.5057979111307L103.96138610839844,150.68931722031007L104.88961277008056,149.68034987614806L105.81783943176269,150.19006248116477L106.74606609344484,149.78647136830637L107.67429275512696,151.27084050431048L108.60251941680909,149.32122623194033L109.5307460784912,150.19744660927248L110.45897274017334,150.26267771332772L111.38719940185547,150.76706694650588L112.3154260635376,149.96129865341499L113.24365272521973,150.6358740795156L114.17187938690185,150.234583630876L115.10010604858398,151.14867036323315L116.02833271026611,151.07583510499487L116.95655937194823,151.48990131468238L117.88478603363038,150.32253971723355L118.81301269531251,150.50050403073902L119.74123935699463,151.2713365570738L120.66946601867676,150.8789339689666L121.59769268035888,150.73452727696508L122.52591934204102,150.9912649018272L123.45414600372315,150.73748801941L124.38237266540527,150.23551045758202L125.3105993270874,152.16170321932088L126.23882598876952,152.12908070863728L127.16705265045167,151.16873780167336L128.09527931213378,151.93862328806324L129.0235059738159,152.4106226284869L129.95173263549805,151.80790559786826L130.87995929718016,152.0050509495856L131.8081859588623,151.73181136907087L132.73641262054443,152.50997566791105L133.66463928222655,152.25982391390426L134.5928659439087,151.88347991565325L135.52109260559084,152.05294042016445L136.44931926727295,151.47267333925396L137.37754592895507,151.58800941741202L138.3057725906372,151.9104403999064L139.23399925231934,151.30008541591846L140.16222591400145,151.39817893860697L141.0904525756836,152.35573606361964L142.01867923736572,152.41456189051095L142.94690589904783,151.13041780855016L143.87513256073,153.4394180001863L144.80335922241213,150.97986165283376L145.73158588409424,152.43779220378457L146.65981254577636,151.91648780333333L147.5880392074585,151.29681981806795L148.51626586914062,152.17661595048938L149.44449253082274,152.14423367911996L150.3727191925049,152.35578046647223L151.300945854187,152.39409681458514L152.22917251586912,152.45513715090667L153.15739917755127,152.3350993408459L154.08562583923342,151.85804768480307L155.01385250091553,153.22797078788773L155.94207916259768,152.0421697461377L156.8703058242798,153.075548055541L157.7985324859619,152.62809951620778L158.72675914764403,151.93621890673364L159.65498580932618,152.68301590388643L160.5832124710083,153.18747256975485L161.5114391326904,152.5018502772573L162.43966579437256,152.057727312762L163.36789245605468,152.95830563700403L164.2961191177368,153.17874392989896L165.22434577941897,152.38974831731548L166.15257244110109,153.02944364590792L167.0807991027832,153.23641114056656L168.00902576446535,152.9400443011599L168.93725242614747,153.2145790201017L169.86547908782958,153.02408978852884L170.7937057495117,152.6574050675323L171.72193241119385,153.01853678104234L172.65015907287597,152.44026418348676L173.57838573455808,152.89940558444874L174.50661239624026,152.92688747085492L175.43483905792237,153.0601939467635L176.3630657196045,153.0581303738955L177.29129238128664,153.65368164565893L178.21951904296876,152.93021983866657L179.14774570465087,152.95305284581917L180.075972366333,153.07991312103923L181.00419902801514,152.99437450491183L181.93242568969725,153.44985200780857L182.86065235137937,153.21658195325315L183.78887901306155,153.68685289607268L184.71710567474366,153.45614379260684L185.64533233642578,153.039082378559L186.57355899810793,153.2245494486887L187.50178565979004,152.6906256912672L188.43001232147216,152.8233882322319L189.3582389831543,153.19855737739525L190.28646564483643,153.38177398503868L191.21469230651854,152.36152168903521L192.14291896820066,153.11345400863232L193.0711456298828,153.5886539994505L193.99937229156492,152.95175853580355L194.92759895324707,153.27638928200474L195.85582561492922,152.9472098943328L196.78405227661133,153.07738895141705L197.71227893829345,153.1004979852576L198.6405055999756,152.90436710617539L199.56873226165771,152.35020293800747L200.49695892333983,152.78894421049964L201.42518558502198,152.94922326546822L202.3534122467041,153.42756310128212L203.2816389083862,152.97218235684022L204.20986557006833,153.50342438078587L205.1380922317505,153.11074709144904L206.06631889343262,153.2309517435715L206.99454555511474,153.2216288013569L207.9227722167969,153.71363626596246L208.850998878479,153.42902723564058L209.77922554016112,153.76448316534052L210.70745220184327,153.482679136115L211.63567886352538,153.98639669330706L212.5639055252075,152.44634604882907L213.49213218688968,153.40670171332897L214.4203588485718,153.37733800752218L215.3485855102539,153.79327228498062L216.27681217193603,153.81869092988336L217.20503883361818,153.1001541945148L218.1332654953003,153.97152737089743L219.0614921569824,153.85992560577606L219.98971881866456,153.76862422838852L220.91794548034667,153.55298078084084L221.8461721420288,153.61901478125245L222.77439880371094,153.65200941434966L223.70262546539308,153.8566634872535L224.6308521270752,152.93658087866027L225.55907878875735,153.68201182536774L226.48730545043946,153.60434510599703L227.41553211212158,153.95499294151682L228.3437587738037,153.51140413671055L229.27198543548585,153.5686556505234L230.20021209716796,153.93263030637323L231.12843875885008,153.7936238627908L232.05666542053223,153.69639901232605L232.98489208221434,153.75431557483358L233.91311874389646,153.3919034686199L234.84134540557864,153.9940091316044L235.76957206726075,154.28864094611555L236.69779872894287,153.91217881639486L237.62602539062502,153.7828954377469L238.55425205230713,153.76843319671315L239.48247871398925,153.87581039491454L240.41070537567137,153.25507889505744L241.33893203735352,154.27362822568767L242.26715869903563,154.4271985563861L243.19538536071775,153.90331514547614L244.12361202239993,154.4418508350015L245.05183868408204,154.48045911530178L245.98006534576416,154.09388837796786L246.9082920074463,154.32616011391096L247.83651866912842,154.14869856330137L248.76474533081054,154.2793948804815L249.69297199249266,154.32011080513777L250.6211986541748,154.06821574212117L251.54942531585692,154.23826988626195L252.47765197753904,153.99768363333595L253.4058786392212,154.02849092889778L254.33410530090333,154.05096473685506L255.26233196258545,153.63389967779693" fill="none"></path></g></g></g></g></g></g><g transform="translate(51, 177)" clip-path="url(#clip_1)"><clipPath id="clip_1"><rect width="278" height="22"></rect></clipPath><g><g><line x1="0" y1="0" x2="0" y2="5" style="visibility: inherit;" fill="rgb(0, 0, 0)" stroke="rgb(204, 204, 204)" stroke-width="1px"></line><line x1="23.205666542053223" y1="0" x2="23.205666542053223" y2="5" style="visibility: inherit;" fill="rgb(0, 0, 0)" stroke="rgb(204, 204, 204)" stroke-width="1px"></line><line x1="46.411333084106445" y1="0" x2="46.411333084106445" y2="5" style="visibility: inherit;" fill="rgb(0, 0, 0)" stroke="rgb(204, 204, 204)" stroke-width="1px"></line><line x1="69.61699962615967" y1="0" x2="69.61699962615967" y2="5" style="visibility: inherit;" fill="rgb(0, 0, 0)" stroke="rgb(204, 204, 204)" stroke-width="1px"></line><line x1="92.82266616821289" y1="0" x2="92.82266616821289" y2="5" style="visibility: inherit;" fill="rgb(0, 0, 0)" stroke="rgb(204, 204, 204)" stroke-width="1px"></line><line x1="116.02833271026611" y1="0" x2="116.02833271026611" y2="5" style="visibility: inherit;" fill="rgb(0, 0, 0)" stroke="rgb(204, 204, 204)" stroke-width="1px"></line><line x1="139.23399925231934" y1="0" x2="139.23399925231934" y2="5" style="visibility: inherit;" fill="rgb(0, 0, 0)" stroke="rgb(204, 204, 204)" stroke-width="1px"></line><line x1="162.43966579437256" y1="0" x2="162.43966579437256" y2="5" style="visibility: inherit;" fill="rgb(0, 0, 0)" stroke="rgb(204, 204, 204)" stroke-width="1px"></line><line x1="185.64533233642578" y1="0" x2="185.64533233642578" y2="5" style="visibility: inherit;" fill="rgb(0, 0, 0)" stroke="rgb(204, 204, 204)" stroke-width="1px"></line><line x1="208.850998878479" y1="0" x2="208.850998878479" y2="5" style="visibility: inherit;" fill="rgb(0, 0, 0)" stroke="rgb(204, 204, 204)" stroke-width="1px"></line><line x1="232.05666542053223" y1="0" x2="232.05666542053223" y2="5" style="visibility: inherit;" fill="rgb(0, 0, 0)" stroke="rgb(204, 204, 204)" stroke-width="1px"></line><line x1="255.26233196258545" y1="0" x2="255.26233196258545" y2="5" style="visibility: inherit;" fill="rgb(0, 0, 0)" stroke="rgb(204, 204, 204)" stroke-width="1px"></line><line x1="278.4679985046387" y1="0" x2="278.4679985046387" y2="5" style="visibility: inherit;" fill="rgb(0, 0, 0)" stroke="rgb(204, 204, 204)" stroke-width="1px"></line></g><g transform="translate(0, 8)"><text style="text-anchor: middle; visibility: hidden; font-family: Roboto, sans-serif; font-size: 12px; font-weight: 200;" x="0" y="0" dx="0em" dy="0.95em" fill="rgb(50, 49, 63)" stroke="none" stroke-width="1px">-500</text><text style="text-anchor: middle; visibility: hidden; font-family: Roboto, sans-serif; font-size: 12px; font-weight: 200;" x="23.205666542053223" y="0" dx="0em" dy="0.95em" fill="rgb(50, 49, 63)" stroke="none" stroke-width="1px">0</text><text style="text-anchor: middle; visibility: hidden; font-family: Roboto, sans-serif; font-size: 12px; font-weight: 200;" x="46.411333084106445" y="0" dx="0em" dy="0.95em" fill="rgb(50, 49, 63)" stroke="none" stroke-width="1px">500</text><text style="text-anchor: middle; visibility: hidden; font-family: Roboto, sans-serif; font-size: 12px; font-weight: 200;" x="69.61699962615967" y="0" dx="0em" dy="0.95em" fill="rgb(50, 49, 63)" stroke="none" stroke-width="1px">1k</text><text style="text-anchor: middle; visibility: hidden; font-family: Roboto, sans-serif; font-size: 12px; font-weight: 200;" x="92.82266616821289" y="0" dx="0em" dy="0.95em" fill="rgb(50, 49, 63)" stroke="none" stroke-width="1px">1.5k</text><text style="text-anchor: middle; visibility: hidden; font-family: Roboto, sans-serif; font-size: 12px; font-weight: 200;" x="116.02833271026611" y="0" dx="0em" dy="0.95em" fill="rgb(50, 49, 63)" stroke="none" stroke-width="1px">2k</text><text style="text-anchor: middle; visibility: hidden; font-family: Roboto, sans-serif; font-size: 12px; font-weight: 200;" x="139.23399925231934" y="0" dx="0em" dy="0.95em" fill="rgb(50, 49, 63)" stroke="none" stroke-width="1px">2.5k</text><text style="text-anchor: middle; visibility: hidden; font-family: Roboto, sans-serif; font-size: 12px; font-weight: 200;" x="162.43966579437256" y="0" dx="0em" dy="0.95em" fill="rgb(50, 49, 63)" stroke="none" stroke-width="1px">3k</text><text style="text-anchor: middle; visibility: hidden; font-family: Roboto, sans-serif; font-size: 12px; font-weight: 200;" x="185.64533233642578" y="0" dx="0em" dy="0.95em" fill="rgb(50, 49, 63)" stroke="none" stroke-width="1px">3.5k</text><text style="text-anchor: middle; visibility: hidden; font-family: Roboto, sans-serif; font-size: 12px; font-weight: 200;" x="208.850998878479" y="0" dx="0em" dy="0.95em" fill="rgb(50, 49, 63)" stroke="none" stroke-width="1px">4k</text><text style="text-anchor: middle; visibility: hidden; font-family: Roboto, sans-serif; font-size: 12px; font-weight: 200;" x="232.05666542053223" y="0" dx="0em" dy="0.95em" fill="rgb(50, 49, 63)" stroke="none" stroke-width="1px">4.5k</text><text style="text-anchor: middle; visibility: hidden; font-family: Roboto, sans-serif; font-size: 12px; font-weight: 200;" x="255.26233196258545" y="0" dx="0em" dy="0.95em" fill="rgb(50, 49, 63)" stroke="none" stroke-width="1px">5k</text><text style="text-anchor: middle; visibility: hidden; font-family: Roboto, sans-serif; font-size: 12px; font-weight: 200;" x="278.4679985046387" y="0" dx="0em" dy="0.95em" fill="rgb(50, 49, 63)" stroke="none" stroke-width="1px">5.5k</text></g><line x1="0" y1="0" x2="278.4679985046387" y2="0" fill="rgb(0, 0, 0)" stroke="rgb(204, 204, 204)" stroke-width="1px"></line></g></g></g></g></svg>